<?xml version="1.0" encoding="utf-8"?>
<!-- Generator: Adobe Illustrator 24.0.1, SVG Export Plug-In . SVG Version: 6.00 Build 0)  -->
<svg version="1.1" id="Layer_1" xmlns="http://www.w3.org/2000/svg" xmlns:xlink="http://www.w3.org/1999/xlink" x="0px" y="0px"
	 viewBox="0 0 512 512" style="enable-background:new 0 0 512 512;" xml:space="preserve">
<style type="text/css">
	.st0{display:none;}
	.st1{display:inline;fill:#200A7F;stroke:#18E5EA;stroke-width:20;stroke-miterlimit:10;}
	.st2{display:inline;fill:#EF0B79;}
	.st3{display:inline;fill:#18E5EA;}
	.st4{display:inline;}
	.st5{fill:#E9F21C;}
	.st6{display:inline;fill:none;}
	.st7{display:inline;fill:#EF3A24;}
	.st8{font-family:'MyriadPro-Regular';}
	.st9{font-size:250px;}
	.st10{display:inline;fill:#FFFFFF;}
	.st11{opacity:0.48;fill:#969696;enable-background:new    ;}
	.st12{fill:#969696;}
	.st13{fill:url(#SVGID_1_);}
	.st14{fill:none;}
	.st15{fill:#FFFFFF;stroke:#FFFFFF;stroke-width:3;stroke-miterlimit:10;}
</style>
<g id="Layer_3" class="st0">
	<path class="st1" d="M401.1,212.2c5.1,15.3,7.9,31.7,7.9,48.8c0,85.3-69.2,154.5-154.5,154.5S100,346.3,100,261
		s69.2-154.5,154.5-154.5c51.2,0,96.6,24.9,124.7,63.3"/>
	<path class="st2" d="M333.4,255.2c0,4.2-3.3,7.7-7.4,7.7H174.9c-4.1,0-7.4-3.4-7.4-7.7l0,0c0-4.2,3.3-7.7,7.4-7.7H326
		C330.1,247.5,333.4,250.9,333.4,255.2L333.4,255.2z"/>
	<path class="st2" d="M333.4,284.8c0,4.2-3.3,7.6-7.4,7.6H174.9c-4.1,0-7.4-3.4-7.4-7.6l0,0c0-4.2,3.3-7.6,7.4-7.6H326
		C330.1,277.1,333.4,280.6,333.4,284.8L333.4,284.8z"/>
	<path class="st2" d="M333.4,313c0,4.2-3.3,7.7-7.4,7.7H174.9c-4.1,0-7.4-3.4-7.4-7.7l0,0c0-4.2,3.3-7.6,7.4-7.6H326
		C330.1,305.4,333.4,308.8,333.4,313L333.4,313z"/>
	<path class="st2" d="M333.4,338.4c0,4.2-3.3,7.7-7.4,7.7H174.9c-4.1,0-7.4-3.4-7.4-7.7l0,0c0-4.2,3.3-7.6,7.4-7.6H326
		C330.1,330.7,333.4,334.1,333.4,338.4L333.4,338.4z"/>
	<polygon class="st3" points="395,191.5 320.2,165.2 380.4,113.5 	"/>
	<g class="st4">
		<g>
			<g>
				<path class="st5" d="M241.5,239.2c-2.3,0-4.4-1.1-5.8-2.9l-18.8-24.8c-2.4-3.2-1.8-7.8,1.4-10.3c3.2-2.4,7.8-1.8,10.3,1.4
					l12.3,16.3l31-49.8c2.1-3.4,6.6-4.5,10.1-2.3c3.4,2.1,4.5,6.6,2.3,10.1l-36.7,58.9c-1.3,2-3.5,3.3-5.9,3.4
					C241.7,239.2,241.6,239.2,241.5,239.2z"/>
			</g>
		</g>
	</g>
</g>
<g id="Layer_2_2_" class="st0">
	<rect x="121" y="171.5" class="st6" width="298" height="251"/>
	<text transform="matrix(1 0 0 1 121 348.9979)" class="st7 st8 st9">24</text>
	<circle class="st10" cx="138.3" cy="91.8" r="17.3"/>
	<circle class="st10" cx="185.3" cy="91.8" r="17.3"/>
	<circle class="st10" cx="232.3" cy="91.8" r="17.3"/>
	<circle class="st10" cx="278.3" cy="91.8" r="17.3"/>
	<circle class="st10" cx="323.3" cy="91.8" r="17.3"/>
	<circle class="st10" cx="368.3" cy="91.8" r="17.3"/>
</g>
<circle class="st11" cx="255.6" cy="260.3" r="244.6"/>
<path class="st11" d="M28.5,220.1c5.8,32.1,2.8,64.4,4.4,96.7c0.2,3.5,0.4,7,0.7,10.5c0.2,1.7,0.4,3.5,0.6,5.2
	c0,0.3,0.1,0.5,0.1,0.7s0.1,0.6,0.2,0.9c1.2,6.3,2.4,12.6,4.3,18.7c0.7,2.3,1.4,4.5,2.3,6.7c0.1,0.3,1.5,3.7,1.3,3.3c1,2,2,4,3.2,6
	c0.8,1.3,1.8,2.6,2.6,3.9c-2.7-3.9,0.2,0.3,0.8,0.9c1.8,2.2,3.8,4.4,5.7,6.6c5,5.8,10.5,11.7,13.8,18.6c1.6,3.2,2.9,6.6,4.2,9.9
	c0.5,1.3,1,2.6,1.5,3.8c0.3,0.8,0.7,1.7,1,2.5c-0.3-0.8-0.6-1.5-0.9-2.3c-0.3,1,2,3.8,2.5,4.8c0.1,0.2,0.2,0.5,0.3,0.7
	c0.3,0.3,0.6,0.6,0.9,0.9c0.2,0.1,0.5,0.3,0.8,0.6c0.5,0.3,1,0.5,1.4,0.8c0.2,0.1,0.3,0.2,0.4,0.3c0.2,0.1,0.5,0.1,0.9,0.2
	c1.6,0.5,3.2,1.1,4.8,1.6c2.7,0.8,5.3,1.7,7.9,2.6c14,5.2,24.6,13.7,35.7,23.5c1.3,1.1,2.6,2.2,3.9,3.4c0.1,0.1,0.3,0.2,0.4,0.3
	c0.1,0.1,0.2,0.1,0.3,0.2c2.6,1.7,5.1,3.2,7.9,4.6c1.2,0.6,2.5,1.2,3.7,1.8c0,0,0.1,0,0.1,0.1c0.1,0,0.2,0.1,0.4,0.1
	c3.1,1.1,6.1,2.2,9.3,3.1c9.8,2.8,20,4.3,30.1,5.6c0.9,0,1.7-0.1,2.6-0.1c12-0.4,24.1,0.9,35.8,3.3c7.4,1.5,15.1,3.8,22,7.2
	c1.9-0.2,3.7-0.3,5.5-0.3c9.7-0.3,19.1,1,28.2,3.8c-0.9-2.3-1.5-4.7-1.6-7.3c-0.5-11.5,9.6-18.8,19.9-19.9c4.5-0.4,8.9-0.9,13.4-1.5
	c2.5-0.3,5.1-0.6,7.6-1c0.4-0.1,0.7-0.1,1-0.1s0.7-0.1,1.3-0.2c9.6-1.3,19.3-2.7,28.9-3.8c4.8-0.5,9.6-1,14.4-1.4
	c-0.3-7.5,3.1-15.4,9.7-18.9c14.2-7.5,29.2-11.3,44.4-14.1c-1-3.4-1.1-7-0.1-10.5c3.6-12.8,11.4-23.9,20.6-33.3
	c1.9-16,4.1-32,8.6-47.6c7-24.4,19.8-47.8,44.9-56.9c2.6-1,5.2-1.2,7.6-0.9C499,130.7,390.1,22.8,256,22.8
	c-114.6,0-210.7,78.8-237.3,185.1C23.6,210.4,27.6,214.8,28.5,220.1z"/>
<path class="st12" d="M28.5,220.1c5.8,32.1,2.8,64.4,4.4,96.7c0.2,3.5,0.4,7,0.7,10.5c0.2,1.7,0.4,3.5,0.6,5.2
	c0,0.3,0.1,0.5,0.1,0.7s0.1,0.6,0.2,0.9c1.2,6.3,2.4,12.6,4.3,18.7c0.7,2.3,1.4,4.5,2.3,6.7c0.1,0.3,1.5,3.7,1.3,3.3c1,2,2,4,3.2,6
	c0.8,1.3,1.8,2.6,2.6,3.9c-2.7-3.9,0.2,0.3,0.8,0.9c1.8,2.2,3.8,4.4,5.7,6.6c5,5.8,10.5,11.7,13.8,18.6c1.6,3.2,2.9,6.6,4.2,9.9
	c0.5,1.3,1,2.6,1.5,3.8c0.3,0.8,0.7,1.7,1,2.5c-0.3-0.8-0.6-1.5-0.9-2.3c-0.3,1,2,3.8,2.5,4.8c0.1,0.2,0.2,0.5,0.3,0.7
	c0.3,0.3,0.6,0.6,0.9,0.9c0.2,0.1,0.5,0.3,0.8,0.6c0.5,0.3,1,0.5,1.4,0.8c0.2,0.1,0.3,0.2,0.4,0.3c0.2,0.1,0.5,0.1,0.9,0.2
	c1.6,0.5,3.2,1.1,4.8,1.6c2.7,0.8,5.3,1.7,7.9,2.6c14,5.2,24.6,13.7,35.7,23.5c1.3,1.1,2.6,2.2,3.9,3.4c0.1,0.1,0.3,0.2,0.4,0.3
	c0.1,0.1,0.2,0.1,0.3,0.2c2.6,1.7,5.1,3.2,7.9,4.6c1.2,0.6,2.5,1.2,3.7,1.8c0,0,0.1,0,0.1,0.1c0.1,0,0.2,0.1,0.4,0.1
	c3.1,1.1,6.1,2.2,9.3,3.1c9.8,2.8,20,4.3,30.1,5.6c0.9,0,1.7-0.1,2.6-0.1c12-0.4,24.1,0.9,35.8,3.3c7.4,1.5,15.1,3.8,22,7.2
	c1.9-0.2,3.7-0.3,5.5-0.3c9.7-0.3,19.1,1,28.2,3.8c-0.9-2.3-1.5-4.7-1.6-7.3c-0.5-11.5,9.6-18.8,19.9-19.9c4.5-0.4,8.9-0.9,13.4-1.5
	c2.5-0.3,5.1-0.6,7.6-1c0.4-0.1,0.7-0.1,1-0.1s0.7-0.1,1.3-0.2c9.6-1.3,19.3-2.7,28.9-3.8c4.8-0.5,9.6-1,14.4-1.4
	c-0.3-7.5,3.1-15.4,9.7-18.9c14.2-7.5,29.2-11.3,44.4-14.1c-1-3.4-1.1-7-0.1-10.5c3.6-12.8,11.4-23.9,20.6-33.3
	c1.9-16,4.1-32,8.6-47.6c7-24.4,19.8-47.8,44.9-56.9c0.1,0,0.3-0.1,0.4-0.1C485.7,137,379.3,35.3,249.2,35.3
	c-109.6,0-202.3,72-233.4,171.3C22,208.8,27.4,213.8,28.5,220.1z"/>
<linearGradient id="SVGID_1_" gradientUnits="userSpaceOnUse" x1="9.9" y1="-80.0858" x2="499.1" y2="-80.0858" gradientTransform="matrix(1 0 0 1 0 332)">
	<stop  offset="0" style="stop-color:#FFE7A3"/>
	<stop  offset="1.392779e-02" style="stop-color:#FFE596"/>
	<stop  offset="6.189609e-02" style="stop-color:#FFDE70"/>
	<stop  offset="0.1134" style="stop-color:#FFD84F"/>
	<stop  offset="0.1685" style="stop-color:#FFD334"/>
	<stop  offset="0.2282" style="stop-color:#FFCF1F"/>
	<stop  offset="0.295" style="stop-color:#FFCC10"/>
	<stop  offset="0.3745" style="stop-color:#FFCA08"/>
	<stop  offset="0.5" style="stop-color:#FFCA05"/>
	<stop  offset="1" style="stop-color:#FAAC18"/>
</linearGradient>
<path class="st13" d="M498.9,248.6c0,0.4,0,0.9-0.1,1.3c0,2.7,0,5.5-0.2,8.2c-0.1,3.2-0.3,6.4-0.5,9.5c-0.2,3.5-0.6,7.1-1,10.6
	c-0.3,2.5-0.6,4.9-1,7.3c-0.5,3.2-1,6.3-1.6,9.4c-0.2,1.3-0.5,2.7-0.8,4c-0.1,0.4-0.1,0.8-0.2,1.1c0,0,0,0.1,0,0.2
	c-0.1,0.5-0.2,0.9-0.3,1.4c-0.8,3.5-1.6,6.9-2.5,10.4c-0.9,3.2-1.8,6.4-2.8,9.6c-0.7,2.6-1.6,5.2-2.5,7.8c-0.2,0.6-0.4,1.2-0.6,1.7
	c-2,5.7-4.2,11.2-6.7,16.8c-0.3,0.6-0.5,1.2-0.8,1.8c-0.3,0.8-0.7,1.7-1.1,2.5c-0.6,1.5-1.3,2.9-2,4.4c-0.7,1.3-1.4,2.7-2.1,4.1
	c0,0.1-0.1,0.2-0.1,0.3c-0.7,1.4-1.3,2.7-2.1,4c-0.1,0.1-0.1,0.2-0.2,0.3c-0.5,0.8-0.9,1.7-1.4,2.5c-0.1,0.2-0.1,0.3-0.2,0.4
	c-0.9,1.7-1.8,3.3-2.8,4.9c-0.4,0.7-0.8,1.3-1.2,2c-0.1,0.2-0.3,0.5-0.4,0.7c0,0-0.1,0.1-0.1,0.2c-0.9,1.5-1.8,3-2.8,4.5
	c-1.8,2.7-3.6,5.3-5.4,8c-0.2,0.4-0.5,0.8-0.7,1.1v0.1c-0.1,0.2-0.2,0.4-0.4,0.6l-1.2,1.6c-0.7,0.9-1.4,1.9-2,2.8
	c-0.7,1-1.5,2.1-2.3,3.1c0,0.1-0.1,0.1-0.1,0.2c-1.8,2.4-3.7,4.8-5.6,7.1c-3.1,3.6-6.1,7.2-9.4,10.7c-0.6,0.7-1.2,1.3-1.8,2
	c-0.9,1-1.8,1.9-2.7,2.8c-2.1,2.1-4.1,4.1-6.2,6.1c-0.1,0.1-0.1,0.1-0.1,0.1l-0.1,0.1c-0.1,0.1-0.3,0.3-0.4,0.4
	c-0.2,0.2-0.4,0.4-0.7,0.6l-0.1,0.1c-0.1,0.1-0.2,0.2-0.3,0.3c-1.7,1.6-3.4,3.1-5.2,4.7c-0.4,0.4-0.8,0.8-1.2,1.1
	c-0.4,0.5-0.9,0.9-1.4,1.3l-0.1,0.1c-0.1,0.2-0.3,0.3-0.5,0.5c-2.8,2.3-5.6,4.6-8.5,6.9c-1.4,1.1-2.8,2.2-4.3,3.3
	c-1,0.7-2,1.4-3,2.1c-1.4,1-2.8,1.9-4.1,2.9c0,0,0,0-0.1,0c-0.1,0.1-0.1,0.1-0.2,0.2c0,0,0,0-0.1,0.1h-0.1c-1,0.6-1.9,1.3-2.9,1.9
	c-2,1.3-4,2.6-6,3.8c-1.3,0.7-2.5,1.5-3.7,2.2c-1.7,1-3.5,2-5.2,3c-3.1,1.8-6.4,3.5-9.6,5.2c-0.8,0.4-1.6,0.8-2.4,1.2
	c-7.8,3.9-15.9,7.4-24.3,10.4c-0.4,0.1-0.7,0.3-1.1,0.4c-1.1,0.4-2.2,0.8-3.2,1.1c-4,1.3-8.1,2.6-12.2,3.8c-3.2,0.9-6.3,1.7-9.5,2.5
	c-18.7,4.5-38.1,6.9-58.1,6.9H253c-7-0.1-14-0.4-20.8-1c-5.9-0.5-11.6-1.2-17.3-2.2c-5.7-0.9-11.4-2-17-3.3
	c-0.5-0.1-1.1-0.3-1.6-0.4c-3-0.8-6-1.5-9-2.4c-7.7-2.2-15.3-4.8-22.7-7.7c-5.2-2-10.3-4.3-15.3-6.7c-0.1,0-0.2-0.1-0.3-0.1
	c-0.6-0.3-1.3-0.6-1.9-1c-1.7-0.8-3.4-1.7-5.1-2.6c-1.7-0.9-3.3-1.7-5-2.7c-2.5-1.3-5-2.7-7.4-4.2c-0.1,0-0.1-0.1-0.2-0.1
	c-1.4-0.8-2.8-1.6-4.2-2.5c0-0.1-0.1-0.2-0.2-0.2c-1-0.6-1.9-1.2-2.8-1.8c-1.3-0.9-2.6-1.7-3.9-2.6c0,0,0,0-0.1,0
	c-2.5-1.7-4.9-3.4-7.3-5.1c-1.2-0.9-2.3-1.7-3.5-2.6c-2-1.5-3.9-3-5.9-4.6c-1.1-0.9-2.3-1.9-3.4-2.8s-2.2-1.9-3.3-2.8
	c-2.1-1.8-4.1-3.6-6.2-5.5l-0.1-0.1c0,0,0,0-0.1,0c-0.1-0.1-0.2-0.2-0.3-0.2l-0.2-0.2c-2.1-1.9-4.2-3.9-6.2-5.9
	c-4.9-4.9-9.6-9.9-14-15.2c-2.5-3-5-6-7.4-9.1l-0.6-0.7c-1.1-1.4-2.1-2.8-3.1-4.2c-3-4.1-5.9-8.3-8.6-12.6c-1-1.6-2-3.2-3-4.9
	c-0.8-1.4-1.6-2.7-2.4-4.1c-0.3-0.5-0.5-0.9-0.8-1.4c-0.5-0.8-0.9-1.5-1.3-2.3V368h-0.1c-1.5-2.7-3-5.5-4.4-8.2
	c-4.1-8.8-8.1-17.8-11.4-27c0,0,0-0.1-0.1-0.1c-2.1-6.1-4.1-12.1-5.8-18.3c-0.1-0.5-0.3-0.9-0.4-1.4c-1.6-6.1-3-12.3-4.2-18.7
	c-1.7-9.3-3-18.8-3.6-28.4c-0.2-2.7-0.3-5.3-0.4-8c-0.1-2.9-0.2-5.8-0.2-8.8c0-3.2,0.1-6.4,0.2-9.5c0.7-18.8,3.6-37.1,8.3-54.6
	c0.6-2.1,1.2-4.2,1.8-6.2c1.6-5.4,3.4-10.7,5.4-16c0.9-2.4,1.8-4.8,2.8-7.1c0.9-2.2,1.9-4.4,2.8-6.5c1.4-3.2,3-6.4,4.6-9.6
	c0.2-0.3,0.4-0.7,0.6-1.1c0.8-1.3,1.6-2.7,2.2-4.2c0.4-0.8,0.8-1.7,1.3-2.5c0.3-0.5,0.5-0.9,0.8-1.4c2.4-4.2,4.9-8.4,7.5-12.5
	c3.7-5.8,7.7-11.5,11.9-17c0.1-0.1,0.3-0.3,0.4-0.5c5.7-7.5,11.9-14.6,18.4-21.3c1.7-1.8,3.3-3.5,5-5.2c0.3-0.3,0.5-0.5,0.8-0.7
	c2.5-2.4,5-4.7,7.6-7c3.5-3,6.9-6,10.5-8.8c0.3-0.2,0.5-0.4,0.8-0.6c1.4-1.1,2.8-2.1,4.2-3.2c0.9-0.6,1.7-1.3,2.6-1.9
	c1.2-0.9,2.4-1.8,3.7-2.7c0.4-0.3,0.8-0.6,1.3-0.9s1-0.7,1.5-1c0.1,0,0.2-0.1,0.2-0.1c1.8-1.3,3.7-2.5,5.5-3.7
	c1.1-0.7,2.1-1.3,3.2-2c2.2-1.4,4.4-2.7,6.6-4c1.6-1,3.2-1.9,4.9-2.8c0.5-0.3,0.9-0.5,1.3-0.7c2-1.1,3.9-2.1,5.9-3.1
	c3.6-1.8,7.2-3.5,10.8-5.1c0.9-0.4,1.7-0.7,2.6-1.1c8.3-3.6,16.8-6.8,25.6-9.4c3.8-1.1,7.7-2.2,11.6-3.2c0.5-0.2,1-0.3,1.5-0.4
	c0.7-0.2,1.4-0.3,2.1-0.5c1.3-0.3,2.6-0.6,3.9-0.9c4.5-1,8.9,2.5,8.9,7.1v32.5c0,48.1,39,87.2,87.2,87.2h169c2.8,0,5.3,1.6,6.5,4.1
	l0,0c2.3,4.7,4.4,9.5,6.4,14.3c0.4,1,0.8,2,1.2,3c0.6,1.5,1.2,3.1,1.8,4.6c0.2,0.5,0.3,1,0.5,1.5c2,5.3,3.7,10.7,5.3,16.1
	c0.9,3.3,1.8,6.6,2.6,9.9c0,0,0,0,0,0.1c0.6,2.2,1.1,4.4,1.6,6.7c0.2,1.1,0.5,2.2,0.7,3.3c1,4.8,1.8,9.7,2.5,14.6
	c0.2,0.9,0.3,1.9,0.4,2.8c0.5,3.4,0.8,6.9,1.1,10.4c0,0.1,0,0.1,0,0.2c0.3,3.6,0.6,7.2,0.7,10.8v0.1
	C499.1,242.7,499.2,245.7,498.9,248.6z"/>
<rect x="87.6" y="252.2" class="st14" width="480.5" height="288"/>
<path class="st15" d="M236.6,230.1h-45.4v-12H215c2,0,3.9-0.7,5.4-2c1.5-1.2,2.5-3,2.9-4.9c0.4-2.5,1.3-4.9,2.6-7.1
	c0.8-1.5,1.9-2.8,3.3-3.8c1.5-1.2,3.1-2,4.9-2.5c3.2-0.9,6.5-1.3,9.8-1.3s6.6,0.4,9.8,1.4c1.8,0.5,3.5,1.3,4.9,2.5
	c1.3,1,2.4,2.3,3.3,3.8c1.2,2.2,2.1,4.6,2.6,7.1c0.3,2,1.3,3.7,2.9,4.9c1.5,1.2,3.4,2,5.4,2h20.4v12L236.6,230.1L236.6,230.1
	L236.6,230.1L236.6,230.1L236.6,230.1L236.6,230.1L236.6,230.1z M326.4,230.1L326.4,230.1c-4.6,0-8.4-3.8-8.4-8.4l0,0
	c0-4.6,3.8-8.4,8.4-8.4l0,0h14c12.4,0,22.4,10.1,22.4,22.4v162.7c0,12.4-10.1,22.4-22.4,22.4H149.6c-12.4,0-22.4-10.1-22.4-22.4
	V235.7c0-12.4,10.1-22.4,22.4-22.4h8.4l0,0c4.6,0,8.4,3.8,8.4,8.4l0,0c0,4.6-3.8,8.4-8.4,8.4l0,0h-2.8c-6.2,0-11.2,5-11.2,11.2
	v151.5c0,6.2,5,11.2,11.2,11.2h179.5c6.2,0,11.2-5,11.2-11.2V241.3c0-6.2-5-11.2-11.2-11.2H326.4L326.4,230.1L326.4,230.1
	L326.4,230.1L326.4,230.1L326.4,230.1z M214.1,300.2L214.1,300.2c6.2,0,11.2,5,11.2,11.2l0,0c0,6.2-5,11.2-11.2,11.2l0,0
	c-6.2,0-11.2-5-11.2-11.2l0,0C202.9,305.3,207.9,300.2,214.1,300.2L214.1,300.2L214.1,300.2L214.1,300.2z M247.8,300.2h33.7
	c3.1,0,5.6,2.5,5.6,5.6V317c0,3.1-2.5,5.6-5.6,5.6h-33.7c-3.1,0-5.6-2.5-5.6-5.6v-11.2C242.2,302.7,244.7,300.2,247.8,300.2
	L247.8,300.2L247.8,300.2z M247.8,339.5h33.7c3.1,0,5.6,2.5,5.6,5.6v11.2c0,3.1-2.5,5.6-5.6,5.6h-33.7c-3.1,0-5.6-2.5-5.6-5.6v-11.2
	C242.2,342,244.7,339.5,247.8,339.5L247.8,339.5z M236.6,246.9h-51c-6.2,0-11.2-5-11.2-11.2v-23.2c0-6.2,5-11.2,11.2-11.2h23
	c0.7-1.8,1.6-3.6,2.5-5.4c1.9-3.4,4.5-6.5,7.6-8.9c3.2-2.5,6.8-4.3,10.7-5.4c4.7-1.3,9.5-2,14.4-2s9.8,0.7,14.4,2
	c3.9,1.1,7.6,3,10.8,5.5c3.1,2.4,5.6,5.4,7.5,8.8c1,1.7,1.8,3.5,2.5,5.3h19.7c6.2,0,11.2,5,11.2,11.2v23.2c0,6.2-5,11.2-11.2,11.2
	L236.6,246.9L236.6,246.9L236.6,246.9L236.6,246.9L236.6,246.9L236.6,246.9L236.6,246.9z M191.7,280.6h106.6V376H191.7V280.6
	L191.7,280.6L191.7,280.6L191.7,280.6L191.7,280.6L191.7,280.6z M174.9,263.8h140.3v129H174.9V263.8L174.9,263.8L174.9,263.8
	L174.9,263.8L174.9,263.8L174.9,263.8z M214.1,339.5L214.1,339.5c6.2,0,11.2,5,11.2,11.2l0,0c0,6.2-5,11.2-11.2,11.2l0,0
	c-6.2,0-11.2-5-11.2-11.2l0,0C202.9,344.5,207.9,339.5,214.1,339.5z"/>
</svg>
