<?xml version="1.0" encoding="utf-8"?>
<!-- Generator: Adobe Illustrator 24.0.1, SVG Export Plug-In . SVG Version: 6.00 Build 0)  -->
<svg version="1.1" id="Layer_1" xmlns="http://www.w3.org/2000/svg" xmlns:xlink="http://www.w3.org/1999/xlink" x="0px" y="0px"
	 viewBox="0 0 512 512" style="enable-background:new 0 0 512 512;" xml:space="preserve">
<style type="text/css">
	.st0{display:none;}
	.st1{display:inline;fill:#200A7F;stroke:#18E5EA;stroke-width:20;stroke-miterlimit:10;}
	.st2{display:inline;fill:#EF0B79;}
	.st3{display:inline;fill:#18E5EA;}
	.st4{display:inline;}
	.st5{fill:#E9F21C;}
	.st6{display:inline;fill:none;}
	.st7{display:inline;fill:#EF3A24;}
	.st8{font-family:'MyriadPro-Regular';}
	.st9{font-size:250px;}
	.st10{display:inline;fill:#FFFFFF;}
	.st11{opacity:0.48;fill:#969696;enable-background:new    ;}
	.st12{fill:url(#SVGID_1_);}
	.st13{fill:url(#SVGID_2_);stroke:#000000;stroke-miterlimit:10;}
	.st14{fill:url(#SVGID_3_);stroke:#000000;stroke-miterlimit:10;}
	.st15{fill:url(#SVGID_4_);stroke:#000000;stroke-miterlimit:10;}
	.st16{fill:url(#SVGID_5_);stroke:#000000;stroke-miterlimit:10;}
	.st17{fill:url(#SVGID_6_);stroke:#000000;stroke-miterlimit:10;}
	.st18{fill:url(#SVGID_7_);stroke:#000000;stroke-miterlimit:10;}
	.st19{fill:url(#SVGID_8_);stroke:#000000;stroke-miterlimit:10;}
	.st20{fill:url(#SVGID_9_);stroke:#000000;stroke-miterlimit:10;}
	.st21{fill:url(#SVGID_10_);stroke:#000000;stroke-miterlimit:10;}
</style>
<g id="Layer_3" class="st0">
	<path class="st1" d="M401.1,212.2c5.1,15.3,7.9,31.7,7.9,48.8c0,85.3-69.2,154.5-154.5,154.5S100,346.3,100,261
		s69.2-154.5,154.5-154.5c51.2,0,96.6,24.9,124.7,63.3"/>
	<path class="st2" d="M333.4,255.2c0,4.2-3.3,7.7-7.4,7.7H174.9c-4.1,0-7.4-3.4-7.4-7.7l0,0c0-4.2,3.3-7.7,7.4-7.7H326
		C330.1,247.5,333.4,250.9,333.4,255.2L333.4,255.2z"/>
	<path class="st2" d="M333.4,284.8c0,4.2-3.3,7.6-7.4,7.6H174.9c-4.1,0-7.4-3.4-7.4-7.6l0,0c0-4.2,3.3-7.6,7.4-7.6H326
		C330.1,277.1,333.4,280.6,333.4,284.8L333.4,284.8z"/>
	<path class="st2" d="M333.4,313c0,4.2-3.3,7.7-7.4,7.7H174.9c-4.1,0-7.4-3.4-7.4-7.7l0,0c0-4.2,3.3-7.6,7.4-7.6H326
		C330.1,305.4,333.4,308.8,333.4,313L333.4,313z"/>
	<path class="st2" d="M333.4,338.4c0,4.2-3.3,7.7-7.4,7.7H174.9c-4.1,0-7.4-3.4-7.4-7.7l0,0c0-4.2,3.3-7.6,7.4-7.6H326
		C330.1,330.7,333.4,334.1,333.4,338.4L333.4,338.4z"/>
	<polygon class="st3" points="395,191.5 320.2,165.2 380.4,113.5 	"/>
	<g class="st4">
		<g>
			<g>
				<path class="st5" d="M241.5,239.2c-2.3,0-4.4-1.1-5.8-2.9l-18.8-24.8c-2.4-3.2-1.8-7.8,1.4-10.3c3.2-2.4,7.8-1.8,10.3,1.4
					l12.3,16.3l31-49.8c2.1-3.4,6.6-4.5,10.1-2.3c3.4,2.1,4.5,6.6,2.3,10.1l-36.7,58.9c-1.3,2-3.5,3.3-5.9,3.4
					C241.7,239.2,241.6,239.2,241.5,239.2z"/>
			</g>
		</g>
	</g>
</g>
<g id="Layer_2_2_" class="st0">
	<rect x="121" y="171.5" class="st6" width="298" height="251"/>
	<text transform="matrix(1 0 0 1 121 348.9979)" class="st7 st8 st9">24</text>
	<circle class="st10" cx="138.3" cy="91.8" r="17.3"/>
	<circle class="st10" cx="185.3" cy="91.8" r="17.3"/>
	<circle class="st10" cx="232.3" cy="91.8" r="17.3"/>
	<circle class="st10" cx="278.3" cy="91.8" r="17.3"/>
	<circle class="st10" cx="323.3" cy="91.8" r="17.3"/>
	<circle class="st10" cx="368.3" cy="91.8" r="17.3"/>
</g>
<circle class="st11" cx="255.6" cy="260.3" r="244.6"/>
<radialGradient id="SVGID_1_" cx="254.55" cy="249.3" r="244.625" gradientUnits="userSpaceOnUse">
	<stop  offset="0" style="stop-color:#2BC4F3"/>
	<stop  offset="0.5" style="stop-color:#00AEEE"/>
	<stop  offset="1" style="stop-color:#0095DA"/>
</radialGradient>
<path class="st12" d="M499.2,249.3c0,2.9,0,5.9-0.2,8.8c-0.5,14.3-2.3,28.3-5.1,41.9c0,0,0,0.1,0,0.2c-0.1,0.5-0.2,0.9-0.3,1.4
	c-2.1,9.5-4.7,18.8-7.8,27.9c-2.2,6.3-4.6,12.4-7.3,18.5c-0.7,1.4-1.3,2.9-2,4.3l0,0c-0.7,1.5-1.3,2.9-2,4.4
	c-1.4,2.8-2.8,5.6-4.3,8.4c-0.1,0.1-0.1,0.2-0.2,0.3c-0.5,0.9-1,1.9-1.6,2.8c-0.9,1.7-1.9,3.3-2.8,4.9c-0.5,0.9-1.1,1.8-1.6,2.7
	c0,0.1-0.1,0.2-0.1,0.2c-2.6,4.3-5.3,8.4-8.2,12.6c-0.2,0.4-0.5,0.7-0.7,1.1l0,0.1c-0.3,0.4-0.5,0.7-0.8,1.1
	c-0.9,1.3-1.9,2.6-2.8,3.9c-0.8,1-1.5,2.1-2.3,3.1c-1.9,2.5-3.8,4.9-5.8,7.3c-4.4,5.3-9,10.5-13.9,15.4c-2.1,2.1-4.2,4.2-6.3,6.2
	l-0.1,0.1c-0.1,0.1-0.3,0.3-0.4,0.4c-0.2,0.2-0.4,0.4-0.7,0.6l-0.1,0.1c-0.1,0.1-0.2,0.2-0.3,0.3c-1.7,1.6-3.4,3.1-5.2,4.7
	c-1.1,1-2.2,1.9-3.3,2.9c-2.8,2.4-5.6,4.7-8.5,6.9c-1.4,1.1-2.8,2.2-4.3,3.3c-2.3,1.7-4.7,3.4-7.1,5c0,0,0,0-0.1,0
	c-0.1,0.1-0.2,0.2-0.4,0.3c-1,0.7-1.9,1.3-2.9,1.9c-2,1.3-4,2.6-6,3.8c-1.2,0.8-2.4,1.5-3.7,2.2c-1.7,1-3.4,2-5.2,3
	c-3.2,1.8-6.4,3.5-9.6,5.2c-8.6,4.4-17.5,8.3-26.7,11.6c-5.4,2-10.9,3.8-16.5,5.4c-3.1,0.9-6.3,1.7-9.5,2.5
	c-18.6,4.5-38.1,6.9-58.1,6.9s-39.4-2.4-58-6.9c-3-0.7-6-1.5-9-2.4c-7.7-2.2-15.3-4.8-22.7-7.7c-5.2-2-10.3-4.3-15.3-6.7
	c-0.1,0-0.2-0.1-0.3-0.1c-4.1-2-8.1-4-12-6.2c-2.5-1.3-4.9-2.8-7.4-4.2c-0.1,0-0.1-0.1-0.2-0.1c-1.4-0.8-2.8-1.7-4.2-2.5
	c-1-0.6-2-1.3-3-1.9c-1.3-0.8-2.6-1.7-3.9-2.6c0,0,0,0-0.1,0c-2.5-1.7-4.9-3.4-7.3-5.1c-1.2-0.8-2.3-1.7-3.5-2.6c-2-1.5-4-3-5.9-4.6
	c-1.2-0.9-2.3-1.8-3.4-2.8c0,0,0,0,0,0c-1.1-0.9-2.2-1.9-3.3-2.8c-2.1-1.8-4.1-3.6-6.2-5.5l-0.1-0.1c0,0,0,0-0.1,0
	c-0.1-0.1-0.2-0.2-0.3-0.2l-0.2-0.2c-2.1-1.9-4.2-3.9-6.2-5.9c-4.9-4.9-9.6-9.9-14-15.2c-2.5-3-5-6-7.4-9.1l-0.6-0.7
	c-1.1-1.4-2.1-2.8-3.1-4.2c-3-4.1-5.8-8.3-8.6-12.6c-1-1.6-2-3.3-3-4.9c-0.8-1.4-1.6-2.7-2.4-4.1c-0.3-0.5-0.5-0.9-0.8-1.4
	c-0.5-0.8-0.9-1.5-1.3-2.3c0,0,0,0,0-0.1c0,0,0,0-0.1,0c-1.5-2.7-3-5.5-4.4-8.2c-4.1-8.8-8.1-17.8-11.4-27c0,0,0-0.1-0.1-0.1
	c-2.3-6.5-4.4-13-6.2-19.7c-4.8-17.7-7.6-36.1-8.3-55.1c-0.1-2.9-0.2-5.8-0.2-8.8c0-3.2,0.1-6.4,0.2-9.5c0.7-18.8,3.6-37.1,8.3-54.6
	c2-7.5,4.4-15,7.2-22.2c0.9-2.4,1.8-4.8,2.8-7.1c3.4-8.2,7.3-16.2,11.5-24c0.3-0.5,0.5-0.9,0.8-1.4c2.4-4.3,4.9-8.5,7.5-12.5
	c3.7-5.8,7.7-11.5,11.9-17c5.8-7.6,12.1-14.9,18.8-21.8c4.3-4.5,8.8-8.8,13.4-12.9c3.4-3,6.9-5.9,10.5-8.8c0.3-0.2,0.5-0.4,0.8-0.6
	c1.4-1.1,2.8-2.2,4.2-3.2c0.9-0.6,1.7-1.3,2.6-1.9c1.2-0.9,2.4-1.8,3.7-2.7c0.4-0.3,0.9-0.6,1.3-0.9c2.4-1.6,4.7-3.2,7.1-4.8
	c1.1-0.7,2.1-1.4,3.2-2c2.2-1.4,4.4-2.7,6.6-4c1.6-1,3.3-1.9,4.9-2.8c0.4-0.2,0.8-0.5,1.3-0.7c2-1.1,3.9-2.1,5.9-3.1
	c3.5-1.8,7.1-3.5,10.8-5.1c0.8-0.4,1.7-0.8,2.6-1.1c12-5.2,24.4-9.4,37.3-12.6c0.5-0.1,1-0.2,1.5-0.4c12.5-3,25.3-5.1,38.4-6.2
	c3.1-0.3,6.3-0.5,9.5-0.6c0.6,0,1.3-0.1,1.9-0.1c2.8-0.1,5.6-0.1,8.4-0.1h0.4c2.8,0,5.5,0,8.2,0.1c0.7,0,1.3,0,2,0.1
	c3.2,0.1,6.3,0.3,9.4,0.6c13,1,25.8,3.1,38.2,6.2c0.5,0.1,1.1,0.3,1.6,0.4c13.8,3.4,27.1,8.1,39.8,13.7c1.9,0.8,3.7,1.7,5.5,2.5
	c5.1,2.5,10.2,5.1,15.1,7.9c2.9,1.7,5.8,3.4,8.7,5.1c1.7,1,3.3,2.1,5,3.2c0.4,0.3,0.8,0.5,1.1,0.7c1.5,1,2.9,2,4.4,2.9
	c1.6,1.1,3.2,2.2,4.7,3.3c1.7,1.3,3.5,2.6,5.2,3.9c0.2,0.1,0.3,0.3,0.5,0.4c1.9,1.4,3.7,2.9,5.5,4.4c2.3,1.9,4.7,3.9,6.9,5.9
	c4,3.5,7.9,7.2,11.6,11c1.6,1.6,3.2,3.3,4.8,5c5.7,6,11,12.4,16,19c5.3,6.9,10.2,14.1,14.7,21.6c0.6,1,1.2,1.9,1.7,2.9
	c1,1.7,2,3.4,2.9,5.1c0.1,0.1,0.1,0.2,0.2,0.3l0,0c0,0,0,0.1,0.1,0.1c1.9,3.4,3.7,6.8,5.4,10.3l0,0c3.5,7.1,6.6,14.3,9.4,21.8
	c0.2,0.5,0.4,1,0.5,1.5c3.9,10.6,7.1,21.6,9.5,32.8c3,13.7,4.8,27.8,5.3,42.2C499.1,242.9,499.2,246.1,499.2,249.3z"/>
<g id="Layer_2_1_">
	<g id="Layer_3_1_">
		<g>
			<g>
				
					<radialGradient id="SVGID_2_" cx="381.6007" cy="-252.8889" r="13.89" gradientTransform="matrix(1 0 0 1 0 333.2912)" gradientUnits="userSpaceOnUse">
					<stop  offset="0" style="stop-color:#FEEC8E"/>
					<stop  offset="0.5" style="stop-color:#FECB00"/>
					<stop  offset="1" style="stop-color:#FEA300"/>
				</radialGradient>
				<polygon class="st13" points="378.6,81.2 379.1,85.3 372.9,86.6 372.1,95.3 379.5,95.3 389.3,94.4 394.4,88.3 389,86.3 
					386,82.8 381.7,75.7 379.5,65.5 371.1,67.2 368.8,70.8 368.8,74.8 372.8,77.5 				"/>
				
					<radialGradient id="SVGID_3_" cx="363.4789" cy="-248.8562" r="7.9681" gradientTransform="matrix(1 0 0 1 0 333.2912)" gradientUnits="userSpaceOnUse">
					<stop  offset="0" style="stop-color:#FEEC8E"/>
					<stop  offset="0.5" style="stop-color:#FECB00"/>
					<stop  offset="1" style="stop-color:#FEA300"/>
				</radialGradient>
				<polygon class="st14" points="371.5,84.5 371.9,79 367,77 360.2,78.6 355,86.7 355,92 361,92 				"/>
				
					<radialGradient id="SVGID_4_" cx="229.4043" cy="-220.7078" r="6.2886" gradientTransform="matrix(1 0 0 1 0 333.2912)" gradientUnits="userSpaceOnUse">
					<stop  offset="0" style="stop-color:#FEEC8E"/>
					<stop  offset="0.5" style="stop-color:#FECB00"/>
					<stop  offset="1" style="stop-color:#FEA300"/>
				</radialGradient>
				<path class="st15" d="M230.7,107.9l-1.5,3.9h-7.3v3.8h1.7c0,0,0.1,0.8,0.2,1.8l4.5-0.3l2.8-1.7l0.7-3.6l3.6-0.3l1.4-3l-3.3-0.7
					L230.7,107.9z"/>
				
					<radialGradient id="SVGID_5_" cx="214.5476" cy="-218.226" r="3.1182" gradientTransform="matrix(1 0 0 1 0 333.2912)" gradientUnits="userSpaceOnUse">
					<stop  offset="0" style="stop-color:#FEEC8E"/>
					<stop  offset="0.5" style="stop-color:#FECB00"/>
					<stop  offset="1" style="stop-color:#FEA300"/>
				</radialGradient>
				<polygon class="st16" points="211.9,114.7 211.7,118.4 217,117.9 217.4,114.2 214.3,111.7 				"/>
				<radialGradient id="SVGID_6_" cx="295.643" cy="199.5165" r="186.4802" gradientUnits="userSpaceOnUse">
					<stop  offset="0" style="stop-color:#FEEC8E"/>
					<stop  offset="0.5" style="stop-color:#FECB00"/>
					<stop  offset="1" style="stop-color:#FEA300"/>
				</radialGradient>
				<path class="st17" d="M463.9,122.6c0.6,1,1.2,1.9,1.7,2.9l-4.4,2.4l-3.7,14.3l-9.9-10.4l-0.3-9.9l-9.5-8.1l-3.5-3.4h-11l3.4,9.9
					l13.2,7.3l2.3,2.4l-2.9,1.5l0.1,7.8l-6.4,2.6l-5.5-1.2l-3.4-4.9l9,0.5l2.4-3.2l-19.9-13.4l-1.5-5.7l-8,7.3l-8.3-1.7l-12.4,16.2
					l-2.4,6.3l-8,0.7l-11.8,0.1l-7-3.3l-2.1-14l2.5-6.6l11.9-2.6l13.1,2.6l1.6-7.2l-5.5-1.3l1.8-11.2l13.2-2.1l9.2-13l9.5-1.6
					l8.6,1.3h3.1l-1.7-12.2l-10.4,4.2l-3.7-9.1l-6.1-0.8l-1.1-6.3l3.9-4.2c0.2,0.1,0.3,0.3,0.5,0.4c1.9,1.4,3.7,2.9,5.5,4.4
					c2.3,1.9,4.7,3.9,6.9,5.9c4,3.5,7.9,7.2,11.6,11l-2.5,1.3l1.2,3.7l6.1,0c5.7,6,11,12.4,16,19
					C454.5,107.9,459.3,115.1,463.9,122.6z"/>
				<radialGradient id="SVGID_7_" cx="465.7776" cy="148.1178" r="11.1639" gradientUnits="userSpaceOnUse">
					<stop  offset="0" style="stop-color:#FEEC8E"/>
					<stop  offset="0.5" style="stop-color:#FECB00"/>
					<stop  offset="1" style="stop-color:#FEA300"/>
				</radialGradient>
				<path class="st18" d="M474.1,141.3l-4.9-5.4l-0.5-5c0,0,0,0.1,0.1,0.1C470.6,134.4,472.4,137.8,474.1,141.3z"/>
				
					<radialGradient id="SVGID_8_" cx="257.365" cy="-82.2746" r="246.3965" gradientTransform="matrix(1 0 0 1 0 333.2912)" gradientUnits="userSpaceOnUse">
					<stop  offset="0" style="stop-color:#FEEC8E"/>
					<stop  offset="0.5" style="stop-color:#FECB00"/>
					<stop  offset="1" style="stop-color:#FEA300"/>
				</radialGradient>
				<path class="st19" d="M288,291.9l-6.9-10.4l-22.4-0.2l-17.8-6.8l-0.8-12.7l-6-10.3l-16.1-0.2l-9.3-14.6l-8.3-4l-0.5,4.5l-15,0.9
					l-5.5-7.7l-15.7-3.2L151.1,242l-20.3-3.4l-1.5-22.9l-14.8-2.5l6-11.2l-1.7-6.4l-19.5,13L87,206.9l-4.4-9.5l2.6-9.9l6.8-12.4
					l15.6-7.9h29.9l-0.1,9.2l10.8,5l-0.9-15.6l7.8-7.8l15.7-10.3l1-7.2l15.6-16.3l16.6-9.2l-1.5-1.1l11.2-10.5l4.1,1.1l2,2.4
					l4.2-4.7l1-0.5l-4.7-0.7l-4.8-1.6v-4.6l2.5-2.1h5.5l2.5,1.2l2.2,4.5l2.6-0.5v-0.3l0.8,0.2l7.8-1.2l1.1-3.8l4.5,1.1v4.1l-4.1,2.9
					l0.6,4.6l14.1,4.3c0,0,0,0,0,0.1l3.2-0.2l0.2-6.1l-11.2-5l-0.7-3l9.3-3.2l0.5-9l-9.8-6l-0.6-15l-13.3,6.5h-4.4l1.3-11.5
					l-18.1-4.2l-7.5,5.6v17.3l-13.5,4.2l-5.4,11.2l-5.8,0.9V78.3l-12.7-1.7l-6.3-4.1l-2.5-9.3l22.7-13.3l11.1-3.3l1.1,7.5l6.2-0.3
					l0.5-3.8l6.4-0.9l0.1-1.4l-2.8-1.1l-0.6-4l7.9-0.7l4.8-5l0.2-0.3h0.1l1.5-1.5l16.8-2.1l7.1,6.2l-19.4,10.3l24.7,5.8l3.2-8.3H261
					l3.8-7.2l-7.6-2v-9.1l-23.9-10.5l-16.5,2l-9.3,4.8l0.7,11.8l-9.8-1.5l-1.5-6.5l9.3-8.5l-16.9-0.8l-4.8,1.5l-2.1,5.7l6.3,1
					l-1.3,6.3l-10.8,0.7l-1.7,4.2l-15.6,0.5c0,0-0.5-8.8-1-8.8c0.6,0,12.3-0.2,12.3-0.2l9.3-9.1l-5-2.5l-6.8,6.5l-10.6-0.6
					c-0.9,0.4-1.7,0.7-2.6,1.1c-3.6,1.6-7.2,3.3-10.8,5.1c-2,1-3.9,2-5.9,3.1l9,0.3l2.3,5.5L132.5,39l-0.3-1.6
					c-2.2,1.3-4.4,2.6-6.6,4c-1.1,0.7-2.1,1.3-3.2,2c-2.4,1.5-4.8,3.2-7.1,4.8c-0.5,0.3-0.9,0.6-1.3,0.9c-1.3,0.9-2.5,1.8-3.7,2.7
					c-0.9,0.6-1.7,1.3-2.6,1.9c-1.4,1.1-2.8,2.1-4.2,3.2l7.8-2.2c0,0,5.5-0.9,6.1-0.9c0.6,0,0,5.5,0,5.5l-12.5,0.8l-2.1-2.5
					c-3.6,2.8-7,5.8-10.5,8.8c-4.6,4.1-9.1,8.4-13.4,12.9c-6.7,6.9-13,14.2-18.8,21.8c-4.2,5.5-8.2,11.2-11.9,17
					c-2.6,4.1-5.1,8.3-7.5,12.5c-0.3,0.5-0.5,0.9-0.8,1.4c-4.3,7.8-8.1,15.7-11.5,24v19.3l10.1,17.3l8.3,1.3l1-6l-9.8-15l-2-14.6
					h5.7l2.4,15l14.1,20.5l-3.7,6.7l9,13.7l22.3,5.5V216l8.8,1.3l-0.8,6.3l7,1.3l10.8,3l15.3,17.3l19.4,1.5l2,15.8l-13.3,9.3
					l-0.6,14.1l-2,8.6l19.3,24.1l1.5,8.3c0,0,7,1.8,7.8,1.8c0.8,0,15.6,11.2,15.6,11.2v43.6l5.3,1.5l-3.6,20.1l8.8,11.8l-1.6,19.8
					l11.7,20.6l15,13.2l15.1,0.3l1.5-4.9l-11.1-9.4l0.7-4.7l2-5.7l0.5-5.8l-7.5-0.2l-3.8-4.7l6.2-6.1l0.8-4.6l-7-1.9l0.5-4.2l10-1.5
					l15.1-7.2l5-9.3l15.8-20.3l-3.6-15.8l4.9-8.5l14.6,0.5l9.9-7.8l3.2-30.6l10.9-13.9l2-8.8L288,291.9z M166.3,125.1l-3.7,3.7h-8
					l1.3-5.5l3.8-0.3l0.8-2l5.9-0.8V125.1z M168.3,115.2h-0.1l-3.8,2.4l-4.7,0.9c0,0,0-7.6,0-8.4h8.6V115.2z M175.3,109.3l3.9,2.4
					l-3.1,2.5l-3.1-2.5L175.3,109.3z M170.3,115.6h0.7l9.6,2.9v4.9h-8.1l-2.2-3.2V115.6z M163.8,102.1l5.3,4.8l-5.3,1.3V102.1z
					 M141.7,102.9l7.3-3h10v3h2.2v5.2H146l-5.7-1.6L141.7,102.9z M140.2,116.4l5.8-6.3h8.4l-10.8,15l-4.5-2.4L140.2,116.4z
					 M132.5,80.6l6.1,1.5l-2.1,8l-6.5,2.1l-4.1-8.4L132.5,80.6z"/>
				
					<radialGradient id="SVGID_9_" cx="262.7182" cy="-93.5739" r="240.6528" gradientTransform="matrix(1 0 0 1 0 333.2912)" gradientUnits="userSpaceOnUse">
					<stop  offset="0" style="stop-color:#FEEC8E"/>
					<stop  offset="0.5" style="stop-color:#FECB00"/>
					<stop  offset="1" style="stop-color:#FEA300"/>
				</radialGradient>
				<path class="st20" d="M498.9,239.6c-0.6-14.4-2.4-28.5-5.3-42.2c-2.4-11.2-5.6-22.2-9.5-32.8h-9.8l-12.4-9.2l-13,1.3v7.9h-4.1
					l-4.5-3.2l-22.5-5.7v-14.6l-28.6,2.2l-8.8,4.7H369l-5.5-0.6l-13.8,7.7v14.3l-28.1,20.3l2.3,8.6h5.7l-1.5,8.3l-4,1.5l-0.2,21.6
					l24.3,27.6h10.5l0.7-1.7h19l5.5-5h10.8l6,6l16.1,1.6l-2.2,21.3l17.8,31.5l-9.5,18.2l0.6,8.5l7.5,7.3v20.3l9.8,13.1v16.9h8.4
					c-1.9,2.3-3.8,4.6-5.8,6.9c1.3,0.4,2.5,0.9,3.7,1.4l8-13.8l0-0.1l21.5-37.3l0,0c0.7-1.4,1.3-2.9,2-4.3
					c2.7-6.1,5.1-12.2,7.3-18.5c3.1-9,5.7-18.4,7.8-27.9c0.1-0.5,0.2-0.9,0.3-1.4c0-0.1,0-0.2,0-0.2c2.8-13.6,4.6-27.6,5.1-41.9
					c0.2-2.9,0.2-5.9,0.2-8.8C499.2,246.1,499.1,242.9,498.9,239.6z"/>
				
					<radialGradient id="SVGID_10_" cx="524.2926" cy="230.2607" r="13.0092" gradientTransform="matrix(1 0 0 -1 0 512)" gradientUnits="userSpaceOnUse">
					<stop  offset="0" style="stop-color:#C18F73"/>
					<stop  offset="0.5056" style="stop-color:#B57E5C"/>
					<stop  offset="1" style="stop-color:#78533B"/>
				</radialGradient>
				<path class="st21" d="M526.9,268.7c0.2-1.7,0.5-3.3,0.6-5c-0.8,1.6-1.6,3.3-2.5,4.9l-0.2,1.5
					C525.4,269.5,526.1,269.1,526.9,268.7z"/>
			</g>
		</g>
	</g>
</g>
</svg>
