<?xml version="1.0" encoding="utf-8"?>
<!-- Generator: Adobe Illustrator 24.0.1, SVG Export Plug-In . SVG Version: 6.00 Build 0)  -->
<svg version="1.1" id="Layer_1" xmlns="http://www.w3.org/2000/svg" xmlns:xlink="http://www.w3.org/1999/xlink" x="0px" y="0px"
	 viewBox="0 0 512 512" style="enable-background:new 0 0 512 512;" xml:space="preserve">
<style type="text/css">
	.st0{display:none;}
	.st1{display:inline;fill:#200A7F;stroke:#18E5EA;stroke-width:20;stroke-miterlimit:10;}
	.st2{display:inline;fill:#EF0B79;}
	.st3{display:inline;fill:#18E5EA;}
	.st4{display:inline;}
	.st5{fill:#E9F21C;}
	.st6{display:inline;fill:none;}
	.st7{display:inline;fill:#EF3A24;}
	.st8{font-family:'MyriadPro-Regular';}
	.st9{font-size:250px;}
	.st10{display:inline;fill:#FFFFFF;}
	.st11{opacity:0.48;fill:#969696;}
	.st12{fill:url(#SVGID_1_);stroke:#D8D8D8;stroke-width:2;stroke-miterlimit:10;}
	.st13{fill:#FFFFFF;}
</style>
<g id="Layer_3" class="st0">
	<path class="st1" d="M401.1,212.2c5.1,15.3,7.9,31.7,7.9,48.8c0,85.3-69.2,154.5-154.5,154.5S100,346.3,100,261
		s69.2-154.5,154.5-154.5c51.2,0,96.6,24.9,124.7,63.3"/>
	<path class="st2" d="M333.4,255.2c0,4.2-3.3,7.7-7.4,7.7H174.9c-4.1,0-7.4-3.4-7.4-7.7l0,0c0-4.2,3.3-7.7,7.4-7.7H326
		C330.1,247.5,333.4,250.9,333.4,255.2L333.4,255.2z"/>
	<path class="st2" d="M333.4,284.8c0,4.2-3.3,7.6-7.4,7.6H174.9c-4.1,0-7.4-3.4-7.4-7.6l0,0c0-4.2,3.3-7.6,7.4-7.6H326
		C330.1,277.1,333.4,280.6,333.4,284.8L333.4,284.8z"/>
	<path class="st2" d="M333.4,313c0,4.2-3.3,7.7-7.4,7.7H174.9c-4.1,0-7.4-3.4-7.4-7.7l0,0c0-4.2,3.3-7.6,7.4-7.6H326
		C330.1,305.4,333.4,308.8,333.4,313L333.4,313z"/>
	<path class="st2" d="M333.4,338.4c0,4.2-3.3,7.7-7.4,7.7H174.9c-4.1,0-7.4-3.4-7.4-7.7l0,0c0-4.2,3.3-7.6,7.4-7.6H326
		C330.1,330.7,333.4,334.1,333.4,338.4L333.4,338.4z"/>
	<polygon class="st3" points="395,191.5 320.2,165.2 380.4,113.5 	"/>
	<g class="st4">
		<g>
			<g>
				<path class="st5" d="M241.5,239.2c-2.3,0-4.4-1.1-5.8-2.9l-18.8-24.8c-2.4-3.2-1.8-7.8,1.4-10.3c3.2-2.4,7.8-1.8,10.3,1.4
					l12.3,16.3l31-49.8c2.1-3.4,6.6-4.5,10.1-2.3c3.4,2.1,4.5,6.6,2.3,10.1l-36.7,58.9c-1.3,2-3.5,3.3-5.9,3.4
					C241.7,239.2,241.6,239.2,241.5,239.2z"/>
			</g>
		</g>
	</g>
</g>
<g id="Layer_2_2_" class="st0">
	<rect x="121" y="171.5" class="st6" width="298" height="251"/>
	<text transform="matrix(1 0 0 1 121 348.9979)" class="st7 st8 st9">24</text>
	<circle class="st10" cx="138.3" cy="91.8" r="17.3"/>
	<circle class="st10" cx="185.3" cy="91.8" r="17.3"/>
	<circle class="st10" cx="232.3" cy="91.8" r="17.3"/>
	<circle class="st10" cx="278.3" cy="91.8" r="17.3"/>
	<circle class="st10" cx="323.3" cy="91.8" r="17.3"/>
	<circle class="st10" cx="368.3" cy="91.8" r="17.3"/>
</g>
<circle class="st11" cx="255.6" cy="260.3" r="244.6"/>
<radialGradient id="SVGID_1_" cx="254.628" cy="249.3248" r="244.6133" gradientUnits="userSpaceOnUse">
	<stop  offset="0" style="stop-color:#F37F7B"/>
	<stop  offset="0.5" style="stop-color:#ED3D57"/>
	<stop  offset="1" style="stop-color:#DD1E47"/>
</radialGradient>
<circle class="st12" cx="254.6" cy="249.3" r="244.6"/>
<g>
	<path class="st13" d="M512.6,283.4c-0.8-2.9-1.3-6-1.4-9.1c-0.1-1.3,0-2.6,0.1-3.9c-15.8-5.2-36.4-19.6-60.1-42
		c20.4,2.5,38.3,6.6,52.7,11.4c-0.3-1.8-0.5-3.5-0.6-5.3c-0.2-5.4,0.9-10.7,3-15.5c-23.4-7.3-51.6-11.9-78-13.4
		c-4.8-5.2-9.8-10.7-14.9-16.4c-46.1-52.7-64.8-129.4-71.7-170c-0.5-5.3-1.1-9.9-1.6-14c-3.3,0.9-6.7,1.5-10.1,1.5
		c-4,0-7.8-0.6-11.4-1.7c0.6,4.7,1.5,10.4,2.6,16.7c3.9,41.3,5.8,119.8-25.9,182.1c-3.3,6.5-6.6,12.7-9.9,18.7
		C225.9,239.6,178,270.5,171,296c-2.5,9.3-0.4,18.2,6.2,25c7.6,8,16.6,12.1,26.8,12.1c28.1,0,60.1-31.2,95.1-93
		c15.6-4.1,31.1-7,46.1-8.5c5.8-0.6,15.2-1.8,21.1-2.7c16-2.4,34-3.4,52.7-2.8c37.3,38.7,68.7,61,93.6,66.2
		c-0.1-1.1-0.2-2.2-0.3-3.3C512.3,287.1,512.4,285.2,512.6,283.4z M204.1,312.1c-4.4,0-8.1-1.8-11.8-5.6c-1.5-1.5-1.8-2.9-1.3-5.1
		c3.6-13.2,34-35.7,78.5-52.1C244.3,288.9,220.3,312.1,204.1,312.1z M363.3,208.2c-5.5,0.9-14.5,2-20.1,2.5c-10,1-20.4,2.5-30.9,4.7
		c0.4-0.9,0.9-1.7,1.3-2.5c15.6-30.6,25.1-67.2,28.8-109.2c14.2,40,32.9,73.1,55.5,99.1c0.6,0.8,1.4,1.5,2,2.3
		C386.9,205.5,374.6,206.6,363.3,208.2z"/>
</g>
</svg>
