<?xml version="1.0" encoding="utf-8"?>
<!-- Generator: Adobe Illustrator 24.0.1, SVG Export Plug-In . SVG Version: 6.00 Build 0)  -->
<svg version="1.1" id="Layer_1" xmlns="http://www.w3.org/2000/svg" xmlns:xlink="http://www.w3.org/1999/xlink" x="0px" y="0px"
	 viewBox="0 0 512 512" style="enable-background:new 0 0 512 512;" xml:space="preserve">
<style type="text/css">
	.st0{display:none;}
	.st1{display:inline;fill:#200A7F;stroke:#18E5EA;stroke-width:20;stroke-miterlimit:10;}
	.st2{display:inline;fill:#EF0B79;}
	.st3{display:inline;fill:#18E5EA;}
	.st4{display:inline;}
	.st5{fill:#E9F21C;}
	.st6{display:inline;fill:none;}
	.st7{display:inline;fill:#EF3A24;}
	.st8{font-family:'MyriadPro-Regular';}
	.st9{font-size:250px;}
	.st10{display:inline;fill:#FFFFFF;}
	.st11{opacity:0.48;fill:#969696;enable-background:new    ;}
	.st12{fill:url(#SVGID_1_);}
	.st13{fill:#F69D23;}
	.st14{fill:#F0DF9E;}
	.st15{fill:#666666;}
	.st16{fill:url(#SVGID_2_);}
	.st17{fill:#A0BE28;}
</style>
<g id="Layer_3" class="st0">
	<path class="st1" d="M401.1,212.2c5.1,15.3,7.9,31.7,7.9,48.8c0,85.3-69.2,154.5-154.5,154.5S100,346.3,100,261
		s69.2-154.5,154.5-154.5c51.2,0,96.6,24.9,124.7,63.3"/>
	<path class="st2" d="M333.4,255.2c0,4.2-3.3,7.7-7.4,7.7H174.9c-4.1,0-7.4-3.4-7.4-7.7l0,0c0-4.2,3.3-7.7,7.4-7.7H326
		C330.1,247.5,333.4,250.9,333.4,255.2L333.4,255.2z"/>
	<path class="st2" d="M333.4,284.8c0,4.2-3.3,7.6-7.4,7.6H174.9c-4.1,0-7.4-3.4-7.4-7.6l0,0c0-4.2,3.3-7.6,7.4-7.6H326
		C330.1,277.1,333.4,280.6,333.4,284.8L333.4,284.8z"/>
	<path class="st2" d="M333.4,313c0,4.2-3.3,7.7-7.4,7.7H174.9c-4.1,0-7.4-3.4-7.4-7.7l0,0c0-4.2,3.3-7.6,7.4-7.6H326
		C330.1,305.4,333.4,308.8,333.4,313L333.4,313z"/>
	<path class="st2" d="M333.4,338.4c0,4.2-3.3,7.7-7.4,7.7H174.9c-4.1,0-7.4-3.4-7.4-7.7l0,0c0-4.2,3.3-7.6,7.4-7.6H326
		C330.1,330.7,333.4,334.1,333.4,338.4L333.4,338.4z"/>
	<polygon class="st3" points="395,191.5 320.2,165.2 380.4,113.5 	"/>
	<g class="st4">
		<g>
			<g>
				<path class="st5" d="M241.5,239.2c-2.3,0-4.4-1.1-5.8-2.9l-18.8-24.8c-2.4-3.2-1.8-7.8,1.4-10.3c3.2-2.4,7.8-1.8,10.3,1.4
					l12.3,16.3l31-49.8c2.1-3.4,6.6-4.5,10.1-2.3c3.4,2.1,4.5,6.6,2.3,10.1l-36.7,58.9c-1.3,2-3.5,3.3-5.9,3.4
					C241.7,239.2,241.6,239.2,241.5,239.2z"/>
			</g>
		</g>
	</g>
</g>
<g id="Layer_2_2_" class="st0">
	<rect x="121" y="171.5" class="st6" width="298" height="251"/>
	<text transform="matrix(1 0 0 1 121 348.9979)" class="st7 st8 st9">24</text>
	<circle class="st10" cx="138.3" cy="91.8" r="17.3"/>
	<circle class="st10" cx="185.3" cy="91.8" r="17.3"/>
	<circle class="st10" cx="232.3" cy="91.8" r="17.3"/>
	<circle class="st10" cx="278.3" cy="91.8" r="17.3"/>
	<circle class="st10" cx="323.3" cy="91.8" r="17.3"/>
	<circle class="st10" cx="368.3" cy="91.8" r="17.3"/>
</g>
<circle class="st11" cx="255.6" cy="260.3" r="244.6"/>
<linearGradient id="SVGID_1_" gradientUnits="userSpaceOnUse" x1="9.9" y1="249.3" x2="499.2" y2="249.3">
	<stop  offset="0" style="stop-color:#6D583F"/>
	<stop  offset="0.5" style="stop-color:#483318"/>
	<stop  offset="1" style="stop-color:#282913"/>
</linearGradient>
<path class="st12" d="M499.2,249.3c0,2.9,0,5.9-0.2,8.8c-0.1,3.2-0.3,6.3-0.5,9.5c-0.7,9.2-1.9,18.3-3.6,27.2
	c-0.3,1.7-0.7,3.5-1,5.2c0,0,0,0.1,0,0.2c-0.1,0.5-0.2,0.9-0.3,1.4c-0.8,3.5-1.6,7-2.5,10.4c-0.8,3.2-1.8,6.4-2.8,9.6
	c-0.8,2.6-1.6,5.2-2.5,7.8c-0.2,0.6-0.4,1.1-0.6,1.7c-2,5.7-4.3,11.3-6.7,16.8c-0.3,0.6-0.5,1.2-0.8,1.8c0,0,0,0,0,0
	c-0.4,0.8-0.8,1.7-1.1,2.5l0,0c-0.7,1.5-1.3,2.9-2,4.4c-0.7,1.4-1.4,2.8-2.1,4.1c-0.7,1.4-1.5,2.8-2.2,4.3c-0.1,0.1-0.1,0.2-0.2,0.3
	c-0.5,0.9-1,1.9-1.6,2.8c-0.9,1.7-1.9,3.3-2.8,4.9c-0.4,0.7-0.8,1.3-1.2,2c-0.1,0.3-0.3,0.5-0.4,0.7c0,0.1-0.1,0.2-0.1,0.2
	c-0.9,1.5-1.8,3-2.8,4.5c0,0,0,0,0,0c-1.7,2.7-3.5,5.4-5.4,8c-0.2,0.4-0.5,0.7-0.7,1.1l0,0.1c-0.3,0.4-0.5,0.7-0.8,1.1
	c-0.9,1.3-1.9,2.6-2.8,3.9c-0.8,1-1.5,2.1-2.3,3.1c0,0.1-0.1,0.1-0.1,0.2c-1.8,2.4-3.7,4.8-5.6,7.1c-3.6,4.3-7.3,8.6-11.2,12.7
	c-0.9,0.9-1.8,1.8-2.7,2.8c-2.1,2.1-4.1,4.2-6.2,6.1c0,0,0,0-0.1,0.1l-0.1,0.1c-0.1,0.1-0.3,0.3-0.4,0.4c-0.2,0.2-0.4,0.4-0.7,0.6
	l-0.1,0.1c-0.1,0.1-0.2,0.2-0.3,0.3c-1.7,1.6-3.4,3.1-5.2,4.7c-0.9,0.8-1.8,1.6-2.8,2.4c-0.2,0.2-0.4,0.3-0.5,0.5
	c-2.8,2.4-5.6,4.7-8.5,6.9c-1.4,1.1-2.8,2.2-4.3,3.3c-2.3,1.7-4.7,3.4-7.1,5c0,0,0,0-0.1,0c-0.1,0-0.1,0.1-0.2,0.2
	c-0.1,0-0.1,0.1-0.2,0.1c-1,0.7-1.9,1.3-2.9,1.9c-2,1.3-4,2.6-6,3.8c-1.2,0.8-2.4,1.5-3.7,2.2c-1.7,1-3.4,2-5.2,3
	c-3.2,1.8-6.4,3.5-9.6,5.2c-8.6,4.4-17.5,8.3-26.7,11.6c-5.4,2-10.9,3.8-16.5,5.4c-3.1,0.9-6.3,1.7-9.5,2.5
	c-18.6,4.5-38.1,6.9-58.1,6.9s-39.4-2.4-58-6.9c-3-0.7-6-1.5-9-2.4c-7.7-2.2-15.3-4.8-22.7-7.7c-5.2-2-10.3-4.3-15.3-6.7
	c-0.1,0-0.2-0.1-0.3-0.1c-4.1-2-8.1-4-12-6.2c-2.5-1.3-4.9-2.8-7.4-4.2c-0.1,0-0.1-0.1-0.2-0.1c-1.4-0.8-2.8-1.7-4.2-2.5
	c-1-0.6-2-1.3-3-1.9c-1.3-0.8-2.6-1.7-3.9-2.6c0,0,0,0-0.1,0c-2.5-1.7-4.9-3.4-7.3-5.1c-1.2-0.8-2.3-1.7-3.5-2.6c-2-1.5-4-3-5.9-4.6
	c-1.2-0.9-2.3-1.8-3.4-2.8c0,0,0,0,0,0c-1.1-0.9-2.2-1.9-3.3-2.8c-2.1-1.8-4.1-3.6-6.2-5.5l-0.1-0.1c0,0,0,0-0.1,0
	c-0.1-0.1-0.2-0.2-0.3-0.2l-0.2-0.2c-2.1-1.9-4.2-3.9-6.2-5.9c-4.9-4.9-9.6-9.9-14-15.2c-2.5-3-5-6-7.4-9.1l-0.6-0.7
	c-1.1-1.4-2.1-2.8-3.1-4.2c-3-4.1-5.8-8.3-8.6-12.6c-1-1.6-2-3.3-3-4.9c-0.8-1.4-1.6-2.7-2.4-4.1c-0.3-0.5-0.5-0.9-0.8-1.4
	c-0.5-0.8-0.9-1.5-1.3-2.3c0,0,0,0,0-0.1c0,0,0,0-0.1,0c-1.5-2.7-3-5.5-4.4-8.2c-4.1-8.8-8.1-17.8-11.4-27c0,0,0-0.1-0.1-0.1
	c-2.3-6.5-4.4-13-6.2-19.7c-4.8-17.7-7.6-36.1-8.3-55.1c-0.1-2.9-0.2-5.8-0.2-8.8c0-3.2,0.1-6.4,0.2-9.5c0.7-18.8,3.6-37.1,8.3-54.6
	c2-7.5,4.4-15,7.2-22.2c0.9-2.4,1.8-4.8,2.8-7.1c3.4-8.2,7.3-16.2,11.5-24c0.3-0.5,0.5-0.9,0.8-1.4c2.4-4.3,4.9-8.5,7.5-12.5
	c3.7-5.8,7.7-11.5,11.9-17c5.8-7.6,12.1-14.9,18.8-21.8c4.3-4.5,8.8-8.8,13.4-12.9c3.4-3,6.9-5.9,10.5-8.8c0.3-0.2,0.5-0.4,0.8-0.6
	c1.4-1.1,2.8-2.2,4.2-3.2c0.9-0.6,1.7-1.3,2.6-1.9c1.2-0.9,2.4-1.8,3.7-2.7c0.4-0.3,0.9-0.6,1.3-0.9c2.4-1.6,4.7-3.2,7.1-4.8
	c1.1-0.7,2.1-1.4,3.2-2c2.2-1.4,4.4-2.7,6.6-4c1.6-1,3.3-1.9,4.9-2.8c0.4-0.2,0.8-0.5,1.3-0.7c2-1.1,3.9-2.1,5.9-3.1
	c3.5-1.8,7.1-3.5,10.8-5.1c0.8-0.4,1.7-0.8,2.6-1.1c12-5.2,24.4-9.4,37.3-12.6c0.5-0.1,1-0.2,1.5-0.4c12.5-3,25.3-5.1,38.4-6.2
	c3.1-0.3,6.3-0.5,9.5-0.6c0.6,0,1.3-0.1,1.9-0.1c2.8-0.1,5.6-0.1,8.4-0.1h0.4c2.8,0,5.5,0,8.2,0.1c0.7,0,1.3,0,2,0.1
	c3.2,0.1,6.3,0.3,9.4,0.6c13,1,25.8,3.1,38.2,6.2c0.5,0.1,1.1,0.3,1.6,0.4c13.8,3.4,27.1,8.1,39.8,13.7c1.9,0.8,3.7,1.7,5.5,2.5
	c5.1,2.5,10.2,5.1,15.1,7.9c2.9,1.7,5.8,3.4,8.7,5.1c1.7,1,3.3,2.1,5,3.2c0.4,0.3,0.8,0.5,1.1,0.7c1.5,1,2.9,2,4.4,2.9
	c1.6,1.1,3.2,2.2,4.7,3.3c1.7,1.3,3.5,2.6,5.2,3.9c0.2,0.1,0.3,0.3,0.5,0.4c1.9,1.4,3.7,2.9,5.5,4.4c2.3,1.9,4.7,3.9,6.9,5.9
	c4,3.5,7.9,7.2,11.6,11c1.6,1.6,3.2,3.3,4.8,5c1.3,1.4,2.7,2.9,3.9,4.3c2.8,3.1,5.5,6.3,8.1,9.5c1.3,1.7,2.7,3.4,4,5.1
	c0.8,1,1.5,2,2.3,3c4.4,6,8.5,12.2,12.4,18.6c0.6,1,1.2,1.9,1.7,2.9c1,1.7,2,3.4,2.9,5.1c0.1,0.1,0.1,0.2,0.2,0.3l0,0
	c0,0,0,0.1,0.1,0.1c1.9,3.4,3.7,6.8,5.4,10.3l0,0c3.5,7.1,6.6,14.3,9.4,21.8c0.2,0.5,0.4,1,0.5,1.5c2,5.3,3.7,10.6,5.3,16.1
	c1,3.3,1.8,6.5,2.6,9.9c0,0,0,0.1,0,0.1c0.6,2.2,1.1,4.5,1.6,6.7c0.2,1.1,0.5,2.2,0.7,3.3c1,4.8,1.8,9.7,2.5,14.6
	c0.6,4.4,1.1,8.8,1.5,13.3c0,0.1,0,0.1,0,0.2c0.3,3.6,0.5,7.2,0.7,10.8c0,0,0,0.1,0,0.1C499.1,242.9,499.2,246.1,499.2,249.3z"/>
<g>
	<path class="st13" d="M498.9,239.5c-0.1-3.6-0.4-7.2-0.7-10.8c-3.9,3-9,4.2-13.8,3.1c-2.2-0.5-4.1-1.3-5.8-2.5
		c-0.1-0.1-0.2-0.1-0.3-0.2c-7.5-5.3-9.7-16.5-3.2-24.3c4.2-5.1,9.8-10.2,16.9-14.2c0.2-0.1,0.3-0.2,0.5-0.3c0,0,0-0.1,0-0.1
		c-0.2,0.1-0.3,0.2-0.5,0.3c-0.8-3.3-1.7-6.6-2.6-9.9c-1.6-5.4-3.3-10.8-5.3-16.1c-0.2-0.5-0.3-1-0.5-1.5
		c-2.8-7.4-5.9-14.7-9.4-21.8l0,0c-1.7-3.5-3.5-6.9-5.4-10.3c0,0,0-0.1-0.1-0.1l0,0c0-0.1-0.1-0.2-0.2-0.3c-0.9-1.7-1.9-3.4-2.9-5.1
		c-0.5-1-1.1-1.9-1.7-2.9c-3.8-6.4-8-12.6-12.4-18.6c-0.8-1-1.5-2-2.3-3c-1.3-1.7-2.6-3.4-4-5.1c-26.8,0.1-50.5,5-70.8,14.7
		c-0.1,0-0.2,0.1-0.3,0.1c-2.5,1.2-4.9,2.4-7.3,3.7c-2.4,1.3-4.7,2.7-7,4.1c-0.9,0.5-1.7,1.1-2.5,1.6c-0.8,0.6-1.7,1.1-2.5,1.7
		c-2.7,1.9-5.2,3.9-7.7,6c-10.2,8.6-19,18.6-26.3,30.2c-5.7,9-10.5,18.9-14.4,29.6c-2,5.8-3.9,11.6-5.4,17.8c-0.3,1-0.4,2.2-0.7,3.2
		c-12.3,48-59.6,13.3-59.6,13.3s4.8,42.2,28.7,45.8c0,0-22.6,10.7-42.5,0c0,0,1.7,36,30.5,49.2c0,0-13.2,10.7-38.4,0
		c0,0,10.2,75,137.5,85.7l0.2-1c8.2,5.4,16.9,10.1,26.1,14c0,0,0,0,0,0c0.2,0.1,0.4,0.2,0.6,0.3c12.4,5.1,25.6,8.8,39.6,10.7
		c2.1-2,4.1-4,6.2-6.1c0.9-0.9,1.8-1.8,2.7-2.8c3.9-4.1,7.6-8.3,11.2-12.7c1.9-2.3,3.8-4.7,5.6-7.1c0-0.1,0.1-0.1,0.1-0.2
		c0.8-1,1.6-2.1,2.3-3.1c0.9-1.3,1.9-2.6,2.8-3.9c0.3-0.3,0.6-0.7,0.8-1.1l0-0.1c0.2-0.3,0.5-0.7,0.7-1.1c1.8-2.7,3.6-5.3,5.4-8
		c0,0,0,0,0,0c7-4.1,11.6-11,11.6-17.3c0-0.8-0.1-1.7-0.3-2.4c0.7-1.4,1.4-2.8,2.1-4.1c0.7-1.5,1.4-2.9,2-4.4l0,0
		c0.4-0.8,0.8-1.7,1.1-2.5c0,0,0,0,0,0c0.3-0.6,0.5-1.2,0.8-1.8c2.5-5.6,4.7-11.1,6.7-16.8c0.2-0.5,0.4-1.1,0.6-1.7
		c0.9-2.6,1.8-5.2,2.5-7.8c1-3.2,1.9-6.4,2.8-9.6c0.9-3.5,1.7-6.9,2.5-10.4c0.1-0.5,0.2-0.9,0.3-1.4c0-0.1,0-0.2,0-0.2
		c0.3-1.7,0.7-3.5,1-5.2c1.7-8.9,2.9-18,3.6-27.2c0.2-3.1,0.4-6.3,0.5-9.5c0.2-2.9,0.2-5.9,0.2-8.8c0-3.2-0.1-6.4-0.3-9.7
		C498.9,239.6,498.9,239.5,498.9,239.5z M361.8,271.1c-0.3,0.2-0.6,0.4-1,0.6c-26.6,17.6-58.6,66.7-35.2,116.2
		c0.6,1.3,1.2,2.5,1.9,3.8c0.5,1,1,1.9,1.6,2.8c0.6,1,1.1,1.9,1.7,2.9c-2.6-3.8-57.2-85.7-20.5-134.6
		C348.1,212.8,394.8,250.4,361.8,271.1z M420.2,216c-0.3,7.2-5.2,14.1-13.1,15.9c-6.3,1.4-12.6-0.8-16.5-5.6c0,0-0.1-0.1-0.1-0.1
		c-0.1-0.2-0.3-0.3-0.4-0.5c-1.7-2.2-3.6-4.8-5.5-7.5c-0.3-0.4-0.6-0.8-0.8-1.2c-0.5-0.7-0.9-1.4-1.4-2.1c-1.5-2.2-3-4.5-4.3-6.7
		c-0.4-0.6-0.8-1.3-1.1-1.9c-0.4-0.6-0.7-1.3-1-1.9c-0.6-1.1-1.2-2.2-1.7-3.2c-0.2-0.3-0.3-0.6-0.4-0.9c-0.2-0.5-0.5-1-0.7-1.4
		c-0.2-0.5-0.4-1-0.6-1.4c-3.9-9.6-2.9-16.4,11.1-13c15.2,3.8,25.8,12.2,32.8,20.4c2.2,2.6,3.4,5.6,3.7,8.6c0,0.2,0,0.4,0.1,0.6
		c0,0.2,0,0.4,0,0.6C420.2,215.1,420.2,215.5,420.2,216z"/>
	<path class="st14" d="M423.7,426.9c0,0,0.1-0.1,0.1-0.1c-0.2,0-0.5-0.1-0.7-0.1c2.1-2,4.1-4,6.2-6.1c0.9-0.9,1.8-1.8,2.7-2.8
		c3.9-4.1,7.6-8.3,11.2-12.7c1.9-2.3,3.8-4.7,5.6-7.1c0-0.1,0.1-0.1,0.1-0.2c0.8-1,1.6-2.1,2.3-3.1c0.9-1.3,1.9-2.6,2.8-3.9
		c0.3-0.3,0.6-0.7,0.8-1.1l0-0.1c0.2-0.3,0.5-0.7,0.7-1.1c1.8-2.7,3.6-5.3,5.4-8c0,0,0,0,0,0c7-4.1,11.6-11,11.6-17.3
		c0-0.8-0.1-1.7-0.3-2.4c0.7-1.4,1.4-2.8,2.1-4.1c0.7-1.5,1.4-2.9,2-4.4l0,0c0.4-0.8,0.8-1.7,1.1-2.5c0,0,0,0,0,0
		c0.3-0.6,0.5-1.2,0.8-1.8c2.5-5.6,4.7-11.1,6.7-16.8c0.2-0.5,0.4-1.1,0.6-1.7c0.9-2.6,1.8-5.2,2.5-7.8c-13.4-7.4-28.9-12-45-12
		c-46,0-83.3,37.7-83.3,70.5c0,15.8,8.7,27.5,22.8,35.4c0,0,0,0,0,0c0.1,0.1,0.3,0.2,0.4,0.3c10,5.5,24.3,9,39.6,10.9
		C423.2,426.8,423.4,426.8,423.7,426.9z"/>
	<path class="st15" d="M472.7,363.3c0,6.3-4.6,13.2-11.6,17.3c0,0,0,0,0,0c-3.8,2.3-8.4,3.7-13.3,3.7h-4.2c-13.8,0-25-11.2-25-21
		c0-9.7,11.2-14.4,25-14.4h4.2c12.6,0,23,3.8,24.7,12C472.6,361.6,472.7,362.4,472.7,363.3z"/>
	<g>
		<path class="st14" d="M494.3,200.7c-0.2-1.1-0.5-2.2-0.7-3.3c-0.5-2.3-1-4.5-1.6-6.7c0.2-0.1,0.3-0.2,0.5-0.3c0,0,0-0.1,0-0.1
			c-0.2,0.1-0.3,0.2-0.5,0.3c-7.2,4.1-12.8,9.2-17.1,14.2c-6.6,7.9-4.3,19.2,3.5,24.5c0.1,0.1,0.2,0.2,0.3,0.2
			c1.6,1,3.5,1.8,5.5,2.3c5.1,1.1,10.2-0.1,14.1-3.2c-0.4-4.5-0.8-8.9-1.5-13.3C496.1,210.4,495.3,205.5,494.3,200.7z"/>
		<path class="st14" d="M416.4,204.7c8,9.6,2.9,24.4-9.3,27c-6.4,1.5-13.1-1-17.1-6.2c-12-16-33.5-47.9-6.5-41.2
			C398.8,188,409.3,196.4,416.4,204.7z"/>
	</g>
	
		<radialGradient id="SVGID_2_" cx="313.705" cy="-209.4375" r="62.1279" gradientTransform="matrix(1 0 0 1 0 333.2912)" gradientUnits="userSpaceOnUse">
		<stop  offset="0" style="stop-color:#FCF7D9"/>
		<stop  offset="0" style="stop-color:#FDEEA5"/>
		<stop  offset="0" style="stop-color:#FEE56E"/>
		<stop  offset="0.5506" style="stop-color:#FFCF00"/>
		<stop  offset="0.7073" style="stop-color:#F3C002"/>
		<stop  offset="1" style="stop-color:#E0A905"/>
	</radialGradient>
	<path class="st16" d="M364.9,97.2c3.8,4.2,6.8,8.7,9.3,13.5c-9.9,4.6-19,10.4-27.3,17.3c-1-4.2-3-8.1-6.1-11.6
		c-9.6-10.6-35.1-22.3-45.3-13.2c-10.2,9.1-0.9,35.7,8.6,46.3c4.5,4.9,10.4,7.8,16.4,8.6c-5.7,9-10.4,18.9-14.4,29.6l0,0
		c-8.7-3.2-17-8.6-23.6-16.1c-21.5-23.8-42.1-83.6-19.4-104.1C286,47,343.4,73.6,364.9,97.2z"/>
	<g>
		<path class="st14" d="M310.5,262.9c37.6-50,84.3-12.5,51.3,8.3c-28.6,18-64.3,73-30.9,126.3C328.3,393.7,273.8,311.8,310.5,262.9z
			"/>
		<path class="st14" d="M340.7,116.5c3,3.5,5.1,7.4,6.1,11.6c-10.2,8.4-19,18.6-26.3,30.2c-6.1-0.7-11.9-3.6-16.4-8.6
			c-9.6-10.6-18.7-37.1-8.6-46.3C305.6,94.2,331.1,105.9,340.7,116.5z"/>
	</g>
	<path d="M416.2,432.9c1.8-1.6,3.5-3.1,5.2-4.7c0.1-0.1,0.2-0.2,0.3-0.3l0.1-0.1c0.3-0.2,0.5-0.4,0.7-0.6c0.1-0.1,0.3-0.3,0.4-0.4
		l0,0c0.2,0,0.5,0,0.7,0.1c0,0,0.1-0.1,0.1-0.1c-0.2,0-0.5-0.1-0.7-0.1c2.1-2,4.1-4,6.2-6.1c0.9-0.9,1.8-1.8,2.7-2.8
		c-0.5,0-0.9-0.1-1.4-0.1c-14.8-1.5-29.2-4.9-42.8-10.6c-11.9-6.7-17.7-15.5-17.7-26.8c0-27.4,32.8-60.6,73.4-60.6
		c15,0,29.4,4.5,41.7,11.6c0.2-0.5,0.4-1.1,0.6-1.7c0.9-2.6,1.8-5.2,2.5-7.8c1-3.2,1.9-6.4,2.8-9.6c-14.9-7.8-31.5-12-47.6-12
		c-52.5,0-93.1,43.2-93.1,80.3c0,4.2,0.4,8.3,1.5,12c-4.6-0.4-9.3-1-13.6-1.7c-28.3-47.7,4.6-95.7,28.9-111
		c11.6-7.3,17.3-17.7,15.5-28.3c-1.8-10.6-10.2-18.8-22.2-21.9c-19.4-4.8-41.1,5.5-57.7,27.7c-17.1,22.8-19.1,55.1-6,93.3
		c4.7,13.5,10.5,25.7,15.4,34.8c-27.1-7.4-48.9-19.1-63.8-35.1c-6.4-6.7-10.7-13.2-13.6-18.8c17.7,1.9,27.6-5.7,29-6.7
		c2.6-2.2,3.9-5.5,3.5-8.8c-0.4-3.3-2.6-6.2-5.7-7.7c-12.2-5.7-18.4-16.8-21.6-26c17.7,2.2,32.9-4.9,33.7-5.4
		c3.9-1.9,6.1-6.1,5.5-10.3c-0.6-4.2-4.1-7.7-8.3-8.3c-7.1-1-12-8.8-15.4-17.4c9,3.2,19.9,4.9,30,1.2c12-4.3,20.2-14.6,24.2-30.8
		c0-0.1,0-0.3,0.2-0.3c0.1-1,0.4-2,0.7-2.9c1.5-5.8,3-11.5,5.1-16.8c3.6-10,8.1-19.3,13.3-27.7c6.7-10.6,14.9-20,24.2-27.9
		c7.5-6.2,16-11.6,25.1-15.9c19.3-9.1,41.9-13.8,67.5-13.8c2.2,0,4.2-0.7,5.8-1.9c-0.8-1-1.5-2-2.3-3c-1.3-1.7-2.6-3.4-4-5.1
		c-2.6-3.3-5.3-6.4-8.1-9.5c-21.5,0.8-41.3,4.8-59,11.9c-1.7-2.6-3.8-5.2-5.9-7.5c-12-13.3-33.4-26.7-54.4-34.2
		c-26.4-9.4-48.2-8-61.2,3.8c-13,11.8-16.5,33.2-9.9,60.5c5.2,21.6,16.5,44.2,28.6,57.6c5.4,5.9,11.9,11,18.8,14.8
		c-1,3.3-1.9,6.7-2.8,10.2c-0.3,1-0.6,2.2-0.7,3.2c-2.5,9.3-6.4,15.1-11.8,17c-10.7,3.9-27.4-5.7-32.3-9.3
		c-3.2-2.3-7.4-2.6-10.7-0.6c-3.3,2-5.2,5.8-4.8,9.6c0.4,3.3,3.2,24.5,14.2,39.6c-4.3-0.1-9-1.2-13.3-3.5c-3.2-1.8-7-1.6-9.9,0.3
		c-3,1.9-4.8,5.2-4.6,8.8c0,1.3,1.5,25,16.8,43.1c-3.2-0.6-7-1.6-11.2-3.5c-3.2-1.4-7-0.9-9.9,1.2c-2.9,2-4.3,5.5-3.9,9.1
		c0.1,0.9,3.2,22,23.5,44.1c26.1,28.4,67.3,45.3,122.4,50c7.7,4.8,15.7,8.9,23.9,12.3c8.8,4.7,20.7,8.3,34.3,10.6
		C414.4,434.5,415.3,433.7,416.2,432.9z M316.5,146.7c-1.9-0.9-3.5-2.2-4.9-3.8c-3.8-4.2-7.7-12.2-9.4-19.4
		c-1.9-8-0.7-12.2,0.1-13.1c0.9-0.7,5.2-1.6,12.9,1.2c7.1,2.5,14.6,7.1,18.4,11.3c0.6,0.7,1.2,1.4,1.7,2.2
		C328.2,131.7,322,138.8,316.5,146.7z M289.9,165.1c-9.9-10.9-19.6-30.6-24.1-49c-4.8-19.3-3.2-34.7,3.9-41.2
		c7.1-6.5,22.6-6.4,41.3,0.3c17.8,6.4,36.4,17.9,46.3,28.9c0.9,1,1.7,2,2.6,3.1c-3.3,1.9-6.5,3.9-9.6,5.9c-0.7-1-1.6-2-2.5-3
		c-6-6.7-16.1-13.1-26.4-16.7c-13.8-4.9-25.4-3.9-32.6,2.8c-7.4,6.7-9.4,18.1-6.1,32.2c2.6,10.6,8,21.3,13.9,28
		c2.8,3,5.8,5.5,9.3,7.4c-1.7,3.5-3.5,7.1-5.1,10.7C297,171.8,293.1,168.6,289.9,165.1z M310.8,328.2c-4.9-20.8-4.9-42.7,7.6-59.3
		c11.6-15.5,23.8-20.9,32.6-20.9c1.6,0,3.2,0.2,4.7,0.6c4.6,1.2,7.1,3.9,7.5,6c0.4,2.5-2.2,5.8-6.5,8.6c-14.2,9-32.8,28-42.6,54.8
		C312.8,321,311.7,324.5,310.8,328.2z"/>
	<path class="st17" d="M451.5,104c-0.8-1-1.5-2-2.3-3c-1.3-1.7-2.6-3.4-4-5.1h0.9"/>
	<path class="st17" d="M446.1,95.9h-0.9c-2.6-3.3-5.3-6.4-8.1-9.5"/>
	<path d="M447.7,339h-4.2c-21.2,0-34.8,9.6-34.8,24.2c0,9,5.1,17.5,12.8,23.3c-3.8,1.3-7.8,1.9-11.8,1.9h-2.2
		c-5.4,0-9.9,4.4-9.9,9.9c0,5.4,4.4,9.9,9.9,9.9h2.2c13.1,0,25.8-4.5,36-12.6c1,0.8,2.1,1.6,3.2,2.4c0-0.1,0.1-0.1,0.1-0.2
		c0.8-1,1.6-2.1,2.3-3.1c0.9-1.3,1.9-2.6,2.8-3.9c0.3-0.3,0.6-0.7,0.8-1.1l0-0.1c0.2-0.3,0.5-0.7,0.7-1.1c1.8-2.7,3.6-5.3,5.4-8
		c0,0,0,0,0,0c7-4.1,11.6-11,11.6-17.3c0-0.8-0.1-1.7-0.3-2.4c0.7-1.4,1.4-2.8,2.1-4.1c0.7-1.5,1.4-2.9,2-4.4l0,0
		c0.4-0.8,0.8-1.7,1.1-2.5c0,0,0,0,0,0C472,343,461.4,339,447.7,339z M447.7,374.6h-4.2c-8.7,0-15.1-7.4-15.1-11.3
		c0-1.9,5.4-4.5,15.1-4.5h4.2c9.7,0,15.1,2.8,15.1,4.5C462.8,367.2,456.4,374.6,447.7,374.6z"/>
	<path d="M402,265.8c-12.5,0-22.5,10.2-22.5,22.5c0,5.4,4.4,9.9,9.9,9.9c5.5,0,9.9-4.4,9.9-9.9c0-1.6,1.3-2.9,2.9-2.9
		c1.6,0,2.9,1.3,2.9,2.9c0,5.4,4.4,9.9,9.9,9.9c5.5,0,9.9-4.4,9.9-9.9C424.5,275.9,414.4,265.8,402,265.8z"/>
	<path d="M423.9,198.5c-10-12-22.9-20-38-23.6c-13.5-3.3-19.9,1.3-22.8,5.7c-4.5,6.8-5.8,18.3,19,51.1c5.1,6.7,13.1,10.6,21.2,10.6
		c1.9,0,3.9-0.1,5.8-0.6c9.1-2,16.4-8.6,19.4-17.6C431.6,215,429.9,205.6,423.9,198.5z M410,217.6c-0.4,1.2-1.6,3.8-5.1,4.6l0,0
		c-2.6,0.6-5.4-0.4-7.1-2.6c-9.4-12.5-14.1-20.7-16.2-25.7c10.9,2.8,20,8.6,27.1,17.1C411,213.7,410.3,216.5,410,217.6z"/>
	<path d="M498.5,267.6c-0.7,9.2-1.9,18.3-3.6,27.2c-1.6-1.8-2.5-4.1-2.5-6.6c0-1.6-1.3-2.9-2.9-2.9c-1.6,0-2.9,1.3-2.9,2.9
		c0,5.5-4.5,9.9-9.9,9.9c-5.5,0-9.9-4.5-9.9-9.9c0-12.3,10-22.5,22.8-22.5C492.8,265.8,495.8,266.4,498.5,267.6z"/>
	<path d="M498.4,228.5c0-0.1,0-0.1,0-0.2c-0.1,0.1-0.1,0.1-0.2,0.2c-0.4-4.5-0.8-8.9-1.5-13.3c-1,1.4-2.1,2.9-3.2,4.4
		c-1.6,2.2-4.3,3.2-7.1,2.6c-1.7-0.4-2.9-1.2-3.7-2.2c-0.8-0.9-1.2-1.9-1.3-2.5c-0.4-1.2-1-3.9,1.2-6.5c3.5-4.1,7.4-7.6,11.7-10.4
		c-0.2-1.1-0.5-2.2-0.7-3.3c-0.5-2.3-1-4.5-1.6-6.7c0.2-0.1,0.3-0.2,0.5-0.3c0,0,0-0.1,0-0.1c-0.2,0.1-0.3,0.2-0.5,0.3
		c-0.8-3.3-1.7-6.6-2.6-9.9c-8.3,4.3-15.6,10.1-21.9,17.7c-6,7.1-7.7,16.7-4.8,25.4c3.1,8.8,10.3,15.4,19.4,17.5
		c1.9,0.4,3.9,0.6,5.8,0.6c3.8,0,7.6-0.8,11-2.4c-0.1-3.6-0.4-7.2-0.7-10.8C498.3,228.7,498.4,228.6,498.4,228.5z"/>
</g>
</svg>
