<?xml version="1.0" encoding="utf-8"?>
<!-- Generator: Adobe Illustrator 24.0.1, SVG Export Plug-In . SVG Version: 6.00 Build 0)  -->
<svg version="1.1" id="Layer_1" xmlns="http://www.w3.org/2000/svg" xmlns:xlink="http://www.w3.org/1999/xlink" x="0px" y="0px"
	 viewBox="0 0 512 512" style="enable-background:new 0 0 512 512;" xml:space="preserve">
<style type="text/css">
	.st0{display:none;}
	.st1{display:inline;fill:#200A7F;stroke:#18E5EA;stroke-width:20;stroke-miterlimit:10;}
	.st2{display:inline;fill:#EF0B79;}
	.st3{display:inline;fill:#18E5EA;}
	.st4{display:inline;}
	.st5{fill:#E9F21C;}
	.st6{display:inline;fill:none;}
	.st7{display:inline;fill:#EF3A24;}
	.st8{font-family:'MyriadPro-Regular';}
	.st9{font-size:250px;}
	.st10{display:inline;fill:#FFFFFF;}
	.st11{opacity:0.48;fill:#969696;enable-background:new    ;}
	.st12{fill:#CDE2DD;}
	.st13{fill:#3A5565;}
	.st14{fill:#FFD884;}
</style>
<g id="Layer_3" class="st0">
	<path class="st1" d="M401.1,212.2c5.1,15.3,7.9,31.7,7.9,48.8c0,85.3-69.2,154.5-154.5,154.5S100,346.3,100,261
		s69.2-154.5,154.5-154.5c51.2,0,96.6,24.9,124.7,63.3"/>
	<path class="st2" d="M333.4,255.2c0,4.2-3.3,7.7-7.4,7.7H174.9c-4.1,0-7.4-3.4-7.4-7.7l0,0c0-4.2,3.3-7.7,7.4-7.7H326
		C330.1,247.5,333.4,250.9,333.4,255.2L333.4,255.2z"/>
	<path class="st2" d="M333.4,284.8c0,4.2-3.3,7.6-7.4,7.6H174.9c-4.1,0-7.4-3.4-7.4-7.6l0,0c0-4.2,3.3-7.6,7.4-7.6H326
		C330.1,277.1,333.4,280.6,333.4,284.8L333.4,284.8z"/>
	<path class="st2" d="M333.4,313c0,4.2-3.3,7.7-7.4,7.7H174.9c-4.1,0-7.4-3.4-7.4-7.7l0,0c0-4.2,3.3-7.6,7.4-7.6H326
		C330.1,305.4,333.4,308.8,333.4,313L333.4,313z"/>
	<path class="st2" d="M333.4,338.4c0,4.2-3.3,7.7-7.4,7.7H174.9c-4.1,0-7.4-3.4-7.4-7.7l0,0c0-4.2,3.3-7.6,7.4-7.6H326
		C330.1,330.7,333.4,334.1,333.4,338.4L333.4,338.4z"/>
	<polygon class="st3" points="395,191.5 320.2,165.2 380.4,113.5 	"/>
	<g class="st4">
		<g>
			<g>
				<path class="st5" d="M241.5,239.2c-2.3,0-4.4-1.1-5.8-2.9l-18.8-24.8c-2.4-3.2-1.8-7.8,1.4-10.3c3.2-2.4,7.8-1.8,10.3,1.4
					l12.3,16.3l31-49.8c2.1-3.4,6.6-4.5,10.1-2.3c3.4,2.1,4.5,6.6,2.3,10.1l-36.7,58.9c-1.3,2-3.5,3.3-5.9,3.4
					C241.7,239.2,241.6,239.2,241.5,239.2z"/>
			</g>
		</g>
	</g>
</g>
<g id="Layer_2_2_" class="st0">
	<rect x="121" y="171.5" class="st6" width="298" height="251"/>
	<text transform="matrix(1 0 0 1 121 348.9979)" class="st7 st8 st9">24</text>
	<circle class="st10" cx="138.3" cy="91.8" r="17.3"/>
	<circle class="st10" cx="185.3" cy="91.8" r="17.3"/>
	<circle class="st10" cx="232.3" cy="91.8" r="17.3"/>
	<circle class="st10" cx="278.3" cy="91.8" r="17.3"/>
	<circle class="st10" cx="323.3" cy="91.8" r="17.3"/>
	<circle class="st10" cx="368.3" cy="91.8" r="17.3"/>
</g>
<circle class="st11" cx="255.6" cy="260.3" r="244.6"/>
<path class="st12" d="M499.2,249.3c0,2.9,0,5.9-0.2,8.8c-0.5,14.3-2.3,28.3-5.1,41.9c0,0,0,0.1,0,0.2c-2.1,10-4.8,19.8-8.1,29.3
	c-2.2,6.3-4.6,12.4-7.3,18.5c-1.3,2.9-2.6,5.8-4,8.7c-1.4,2.8-2.8,5.6-4.3,8.4c-0.1,0.1-0.1,0.2-0.2,0.3c-1.4,2.6-2.9,5.2-4.4,7.7
	c-0.5,0.9-1.1,1.8-1.6,2.7c-2.6,4.4-5.4,8.6-8.3,12.8c-0.5,0.8-1,1.5-1.6,2.2c-0.9,1.3-1.9,2.6-2.8,3.9c-2.6,3.5-5.3,7-8.1,10.4
	c-4.4,5.3-9,10.5-13.9,15.4c-2.1,2.1-4.2,4.2-6.3,6.2l-0.1,0.1c-0.1,0.1-0.3,0.3-0.4,0.4c-0.2,0.2-0.4,0.4-0.7,0.6l-0.1,0.1
	c-0.1,0.1-0.2,0.2-0.3,0.3c-1.7,1.6-3.4,3.1-5.2,4.7c-1.1,1-2.2,1.9-3.3,2.9c-4.2,3.5-8.4,6.9-12.8,10.2c-2.3,1.7-4.7,3.4-7.1,5
	c0,0,0,0-0.1,0c-0.1,0.1-0.2,0.2-0.4,0.3c-4.1,2.8-8.3,5.5-12.5,8c-4.8,2.9-9.8,5.6-14.8,8.2c-8.6,4.4-17.5,8.3-26.7,11.6
	c-26.2,9.6-54.5,14.8-84,14.8c-31.7,0-61.9-6-89.7-17c-5.2-2-10.3-4.3-15.3-6.7c-0.1,0-0.2-0.1-0.3-0.1c-6.6-3.2-13.1-6.6-19.4-10.4
	c-0.1,0-0.1-0.1-0.2-0.1c-3.8-2.2-7.5-4.6-11.1-7c0,0,0,0-0.1,0c-2.5-1.7-4.9-3.4-7.3-5.1c-3.2-2.3-6.3-4.7-9.4-7.2
	c-2.3-1.8-4.6-3.7-6.8-5.6c-2.1-1.8-4.1-3.6-6.2-5.5l-0.1-0.1c0,0,0,0-0.1,0c-0.1-0.1-0.2-0.2-0.3-0.2l-0.2-0.2
	c-2.1-1.9-4.2-3.9-6.2-5.9c-4.9-4.9-9.6-9.9-14-15.2c-2.5-3-5-6-7.4-9.1c-1.3-1.6-2.5-3.3-3.7-4.9c-4.1-5.6-8-11.5-11.6-17.5
	c-0.8-1.4-1.6-2.7-2.4-4.1c-0.3-0.5-0.5-0.9-0.8-1.4c-0.5-0.8-0.9-1.5-1.3-2.3c0,0,0-0.1-0.1-0.1c-1.5-2.7-3-5.5-4.4-8.2
	c-4.1-8.8-8.1-17.8-11.4-27c0,0,0-0.1-0.1-0.1c-8.5-23.5-13.5-48.6-14.5-74.8c-0.1-2.9-0.2-5.8-0.2-8.8c0-3.2,0.1-6.4,0.2-9.5
	c1-26.9,6.4-52.8,15.5-76.8c4-10.8,8.8-21.1,14.3-31.1c10.6-19.3,23.7-37,38.9-52.7c4.3-4.5,8.8-8.8,13.4-12.9
	c5.8-5.1,11.8-10,18-14.5c1.2-0.9,2.4-1.8,3.7-2.7c0.4-0.3,0.9-0.6,1.3-0.9c9.2-6.4,19-12.2,29.1-17.4c3.5-1.8,7.1-3.5,10.8-5.1
	c12.7-5.7,26-10.3,39.8-13.7c12.9-3.2,26.2-5.4,39.8-6.5c3.1-0.3,6.3-0.5,9.5-0.6c0.6,0,1.3-0.1,1.9-0.1c2.8-0.1,5.6-0.1,8.4-0.1
	h0.4c2.8,0,5.5,0,8.2,0.1c0.7,0,1.3,0,2,0.1c3.2,0.1,6.3,0.3,9.4,0.6c13.6,1.1,26.9,3.3,39.8,6.6c13.8,3.4,27.1,8.1,39.8,13.7
	c1.9,0.8,3.7,1.7,5.5,2.5c10,4.8,19.6,10.2,28.8,16.2c1.9,1.2,3.7,2.4,5.5,3.7c1.6,1.1,3.2,2.2,4.7,3.3c3.8,2.8,7.6,5.7,11.2,8.7
	c2.3,1.9,4.7,3.9,6.9,5.9c20.8,18.4,38.4,40.4,51.9,64.9c5.7,10.3,10.6,21,14.8,32.1c9,23.9,14.4,49.6,15.4,76.5
	C499.1,242.9,499.2,246.1,499.2,249.3z"/>
<path class="st13" d="M483.5,163.1v117.5h-79.6v66.6h-99.5v56.8h-99.6V347h-99.6v-66.6H25.6V163c4-10.8,8.8-21.1,14.3-31.1
	c10.6-19.3,23.7-37,38.9-52.7c4.3-4.5,8.8-8.8,13.4-12.9c5.8-5.1,11.8-10,18-14.5c1.2-0.9,2.4-1.8,3.7-2.7c0.4-0.3,0.9-0.6,1.3-0.9
	c9.2-6.4,19-12.2,29.1-17.4c3.5-1.8,7.1-3.5,10.8-5.1c12.7-5.7,26-10.3,39.8-13.7c12.9-3.2,26.2-5.4,39.8-6.5
	c3.1-0.3,6.3-0.5,9.5-0.6h30.4v0.6c13.6,1.1,26.9,3.3,39.8,6.6c13.8,3.4,27.1,8.1,39.8,13.7c1.9,0.8,3.7,1.7,5.5,2.5
	c10,4.8,19.6,10.2,28.8,16.2c1.9,1.2,3.7,2.4,5.5,3.7c1.6,1.1,3.2,2.2,4.7,3.3c3.8,2.8,7.6,5.7,11.2,8.7c2.3,1.9,4.7,3.9,6.9,5.9
	c20.8,18.4,38.4,40.4,51.9,64.9C474.4,141.3,479.3,152,483.5,163.1z"/>
<g>
	<rect x="115.2" y="4.8" class="st14" width="39.8" height="0.1"/>
	<path class="st14" d="M144.3,30.8c3.5-1.8,7.1-3.5,10.8-5.1v93.1h-39.8V48.2C124.5,41.7,134.2,36,144.3,30.8z"/>
	<path class="st14" d="M234.7,5.5v113.3h-39.8V12C207.8,8.7,221.1,6.5,234.7,5.5z"/>
	<rect x="274.5" y="4.8" class="st14" width="39.8" height="0.1"/>
	<path class="st14" d="M274.5,5.5c13.6,1.1,26.9,3.3,39.8,6.6v106.8h-39.8V5.5z"/>
	<rect x="354.2" y="4.8" class="st14" width="39.8" height="0.1"/>
	<path class="st14" d="M394,48.2v70.6h-39.8v-93c1.9,0.8,3.7,1.7,5.5,2.5c10,4.8,19.6,10.2,28.8,16.2
		C390.4,45.7,392.2,46.9,394,48.2z"/>
</g>
</svg>
