<?xml version="1.0" encoding="utf-8"?>
<!-- Generator: Adobe Illustrator 24.0.1, SVG Export Plug-In . SVG Version: 6.00 Build 0)  -->
<svg version="1.1" id="Layer_1" xmlns="http://www.w3.org/2000/svg" xmlns:xlink="http://www.w3.org/1999/xlink" x="0px" y="0px"
	 viewBox="0 0 512 512" style="enable-background:new 0 0 512 512;" xml:space="preserve">
<style type="text/css">
	.st0{display:none;}
	.st1{display:inline;fill:#200A7F;stroke:#18E5EA;stroke-width:20;stroke-miterlimit:10;}
	.st2{display:inline;fill:#EF0B79;}
	.st3{display:inline;fill:#18E5EA;}
	.st4{display:inline;}
	.st5{fill:#E9F21C;}
	.st6{display:inline;fill:none;}
	.st7{display:inline;fill:#EF3A24;}
	.st8{font-family:'MyriadPro-Regular';}
	.st9{font-size:250px;}
	.st10{display:inline;fill:#FFFFFF;}
	.st11{opacity:0.48;fill:#969696;enable-background:new    ;}
	.st12{fill:url(#SVGID_1_);}
	.st13{fill:#2BBDC4;}
	.st14{fill:#495D85;}
	.st15{fill:#E9EEF0;}
</style>
<g id="Layer_3" class="st0">
	<path class="st1" d="M401.1,212.2c5.1,15.3,7.9,31.7,7.9,48.8c0,85.3-69.2,154.5-154.5,154.5S100,346.3,100,261
		s69.2-154.5,154.5-154.5c51.2,0,96.6,24.9,124.7,63.3"/>
	<path class="st2" d="M333.4,255.2c0,4.2-3.3,7.7-7.4,7.7H174.9c-4.1,0-7.4-3.4-7.4-7.7l0,0c0-4.2,3.3-7.7,7.4-7.7H326
		C330.1,247.5,333.4,250.9,333.4,255.2L333.4,255.2z"/>
	<path class="st2" d="M333.4,284.8c0,4.2-3.3,7.6-7.4,7.6H174.9c-4.1,0-7.4-3.4-7.4-7.6l0,0c0-4.2,3.3-7.6,7.4-7.6H326
		C330.1,277.1,333.4,280.6,333.4,284.8L333.4,284.8z"/>
	<path class="st2" d="M333.4,313c0,4.2-3.3,7.7-7.4,7.7H174.9c-4.1,0-7.4-3.4-7.4-7.7l0,0c0-4.2,3.3-7.6,7.4-7.6H326
		C330.1,305.4,333.4,308.8,333.4,313L333.4,313z"/>
	<path class="st2" d="M333.4,338.4c0,4.2-3.3,7.7-7.4,7.7H174.9c-4.1,0-7.4-3.4-7.4-7.7l0,0c0-4.2,3.3-7.6,7.4-7.6H326
		C330.1,330.7,333.4,334.1,333.4,338.4L333.4,338.4z"/>
	<polygon class="st3" points="395,191.5 320.2,165.2 380.4,113.5 	"/>
	<g class="st4">
		<g>
			<g>
				<path class="st5" d="M241.5,239.2c-2.3,0-4.4-1.1-5.8-2.9l-18.8-24.8c-2.4-3.2-1.8-7.8,1.4-10.3c3.2-2.4,7.8-1.8,10.3,1.4
					l12.3,16.3l31-49.8c2.1-3.4,6.6-4.5,10.1-2.3c3.4,2.1,4.5,6.6,2.3,10.1l-36.7,58.9c-1.3,2-3.5,3.3-5.9,3.4
					C241.7,239.2,241.6,239.2,241.5,239.2z"/>
			</g>
		</g>
	</g>
</g>
<g id="Layer_2_2_" class="st0">
	<rect x="121" y="171.5" class="st6" width="298" height="251"/>
	<text transform="matrix(1 0 0 1 121 348.9979)" class="st7 st8 st9">24</text>
	<circle class="st10" cx="138.3" cy="91.8" r="17.3"/>
	<circle class="st10" cx="185.3" cy="91.8" r="17.3"/>
	<circle class="st10" cx="232.3" cy="91.8" r="17.3"/>
	<circle class="st10" cx="278.3" cy="91.8" r="17.3"/>
	<circle class="st10" cx="323.3" cy="91.8" r="17.3"/>
	<circle class="st10" cx="368.3" cy="91.8" r="17.3"/>
</g>
<circle class="st11" cx="255.6" cy="260.3" r="244.6"/>
<linearGradient id="SVGID_1_" gradientUnits="userSpaceOnUse" x1="9.9" y1="249.3" x2="499.2" y2="249.3">
	<stop  offset="0" style="stop-color:#FFE7A3"/>
	<stop  offset="0.5" style="stop-color:#FFCA05"/>
	<stop  offset="1" style="stop-color:#FAAC18"/>
</linearGradient>
<path class="st12" d="M499.2,249.3c0,2.9,0,5.9-0.2,8.8c-0.1,3.2-0.3,6.3-0.5,9.5c-0.4,6-1.1,12-2,17.9c-0.5,3.1-1,6.3-1.6,9.4
	c-0.3,1.7-0.7,3.5-1,5.2c0,0,0,0.1,0,0.2c-0.1,0.5-0.2,0.9-0.3,1.4c-0.8,3.5-1.6,7-2.5,10.4c-0.8,3.2-1.8,6.4-2.8,9.6
	c-0.8,2.6-1.6,5.2-2.5,7.8c-0.2,0.6-0.4,1.1-0.6,1.7c-2,5.7-4.3,11.3-6.7,16.8c-0.3,0.6-0.5,1.2-0.8,1.8c0,0,0,0,0,0
	c-0.4,0.8-0.8,1.7-1.1,2.5l0,0c-0.7,1.5-1.3,2.9-2,4.4c-0.7,1.4-1.4,2.8-2.1,4.1c-0.7,1.4-1.5,2.8-2.2,4.3c-0.1,0.1-0.1,0.2-0.2,0.3
	c-0.5,0.8-0.9,1.6-1.4,2.5c-0.1,0.1-0.1,0.2-0.2,0.4c-0.9,1.7-1.9,3.3-2.8,4.9c-0.4,0.7-0.8,1.3-1.2,2c-0.1,0.3-0.3,0.5-0.4,0.7
	c0,0.1-0.1,0.2-0.1,0.2c-0.9,1.5-1.8,3-2.8,4.5c0,0,0,0,0,0c-1.7,2.7-3.5,5.4-5.4,8c-0.2,0.4-0.5,0.7-0.7,1.1l0,0.1
	c-0.3,0.4-0.5,0.7-0.8,1.1c-0.9,1.3-1.9,2.6-2.8,3.9c-0.8,1-1.5,2.1-2.3,3.1c0,0.1-0.1,0.1-0.1,0.2c-1.8,2.4-3.7,4.8-5.6,7.1
	c-3.6,4.3-7.3,8.6-11.2,12.7c-0.9,0.9-1.8,1.8-2.7,2.8c-2.1,2.1-4.1,4.2-6.2,6.1c0,0,0,0-0.1,0.1l-0.1,0.1c-0.1,0.1-0.3,0.3-0.4,0.4
	c-0.2,0.2-0.4,0.4-0.7,0.6l-0.1,0.1c-0.1,0.1-0.2,0.2-0.3,0.3c-1.7,1.6-3.4,3.1-5.2,4.7c-0.9,0.8-1.8,1.5-2.7,2.3
	c0,0-0.1,0.1-0.1,0.1c-0.2,0.2-0.4,0.3-0.5,0.5c-2.8,2.4-5.6,4.7-8.5,6.9c-1.4,1.1-2.8,2.2-4.3,3.3c-2.3,1.7-4.7,3.4-7.1,5
	c0,0,0,0-0.1,0c-0.1,0-0.1,0.1-0.2,0.2c-0.1,0-0.1,0.1-0.2,0.1c-1,0.7-1.9,1.3-2.9,1.9c-2,1.3-4,2.6-6,3.8c-1.2,0.8-2.4,1.5-3.7,2.2
	c-1.7,1-3.4,2-5.2,3c-3.2,1.8-6.4,3.5-9.6,5.2c-8.6,4.4-17.5,8.3-26.7,11.6c-5.4,2-10.9,3.8-16.5,5.4c-3.1,0.9-6.3,1.7-9.5,2.5
	c-18.6,4.5-38.1,6.9-58.1,6.9s-39.4-2.4-58-6.9c-3-0.7-6-1.5-9-2.4c-7.7-2.2-15.3-4.8-22.7-7.7c-5.2-2-10.3-4.3-15.3-6.7
	c-0.1,0-0.2-0.1-0.3-0.1c-4.1-2-8.1-4-12-6.2c-2.5-1.3-4.9-2.8-7.4-4.2c-0.1,0-0.1-0.1-0.2-0.1c-1.4-0.8-2.8-1.7-4.2-2.5
	c-1-0.6-2-1.3-3-1.9c-1.3-0.8-2.6-1.7-3.9-2.6c0,0,0,0-0.1,0c-2.5-1.7-4.9-3.4-7.3-5.1c-1.2-0.8-2.3-1.7-3.5-2.6c-2-1.5-4-3-5.9-4.6
	c-1.2-0.9-2.3-1.8-3.4-2.8c0,0,0,0,0,0c-1.1-0.9-2.2-1.9-3.3-2.8c-2.1-1.8-4.1-3.6-6.2-5.5l-0.1-0.1c0,0,0,0-0.1,0
	c-0.1-0.1-0.2-0.2-0.3-0.2l-0.2-0.2c-2.1-1.9-4.2-3.9-6.2-5.9c-4.9-4.9-9.6-9.9-14-15.2c-2.5-3-5-6-7.4-9.1l-0.6-0.7
	c-1.1-1.4-2.1-2.8-3.1-4.2c-3-4.1-5.8-8.3-8.6-12.6c-1-1.6-2-3.3-3-4.9c-0.8-1.4-1.6-2.7-2.4-4.1c-0.3-0.5-0.5-0.9-0.8-1.4
	c-0.5-0.8-0.9-1.5-1.3-2.3c0,0,0,0,0-0.1c0,0,0,0-0.1,0c-1.5-2.7-3-5.5-4.4-8.2c-4.1-8.8-8.1-17.8-11.4-27c0,0,0-0.1-0.1-0.1
	c-2.3-6.5-4.4-13-6.2-19.7c-4.8-17.7-7.6-36.1-8.3-55.1c-0.1-2.9-0.2-5.8-0.2-8.8c0-3.2,0.1-6.4,0.2-9.5c0.7-18.8,3.6-37.1,8.3-54.6
	c0.6-2.1,1.1-4.1,1.8-6.2c1.6-5.4,3.4-10.8,5.4-16c0.9-2.4,1.8-4.8,2.8-7.1c2.3-5.5,4.7-10.9,7.4-16.1c1.3-2.7,2.7-5.3,4.1-7.8
	c0.3-0.5,0.5-0.9,0.8-1.4c2.4-4.3,4.9-8.5,7.5-12.5c3.7-5.8,7.7-11.5,11.9-17c5.8-7.6,12.1-14.9,18.8-21.8c1.9-2,3.9-4,5.8-5.9
	c2.5-2.4,5-4.8,7.6-7c3.4-3,6.9-5.9,10.5-8.8c0.3-0.2,0.5-0.4,0.8-0.6c1.4-1.1,2.8-2.2,4.2-3.2c0.9-0.6,1.7-1.3,2.6-1.9
	c1.2-0.9,2.4-1.8,3.7-2.7c0.4-0.3,0.9-0.6,1.3-0.9c0.5-0.4,1.1-0.8,1.6-1.1c1.8-1.3,3.7-2.5,5.5-3.7c1.1-0.7,2.1-1.4,3.2-2
	c2.2-1.4,4.4-2.7,6.6-4c1.6-1,3.3-1.9,4.9-2.8c0.4-0.2,0.8-0.5,1.3-0.7c2-1.1,3.9-2.1,5.9-3.1c3.5-1.8,7.1-3.5,10.8-5.1
	c0.8-0.4,1.7-0.8,2.6-1.1c8.3-3.6,16.9-6.7,25.6-9.4c3.8-1.2,7.7-2.3,11.6-3.2c0.5-0.1,1-0.2,1.5-0.4c0.7-0.2,1.4-0.3,2.1-0.5
	c11.8-2.8,23.9-4.7,36.2-5.7c3.1-0.3,6.3-0.5,9.5-0.6c0.6,0,1.3-0.1,1.9-0.1c2.8-0.1,5.6-0.1,8.4-0.1h0.4c2.8,0,5.5,0,8.2,0.1
	c0.6,0,1.2,0,1.8,0.1c0.1,0,0.2,0,0.2,0c3.2,0.1,6.3,0.3,9.4,0.6c1.9,0.1,3.8,0.3,5.6,0.5c11.1,1.2,22,3.1,32.6,5.6
	c0.5,0.1,1.1,0.3,1.6,0.4c13.8,3.4,27.1,8.1,39.8,13.7c1.9,0.8,3.7,1.7,5.5,2.5c5.1,2.5,10.2,5.1,15.1,7.9c2.9,1.7,5.8,3.4,8.7,5.1
	c1.7,1,3.3,2.1,5,3.2c0.4,0.3,0.8,0.5,1.1,0.7c1.5,1,2.9,2,4.4,2.9c1.6,1.1,3.2,2.2,4.7,3.3c1.7,1.3,3.5,2.6,5.2,3.9
	c0.2,0.1,0.3,0.3,0.5,0.4c1.9,1.4,3.7,2.9,5.5,4.4c2.3,1.9,4.7,3.9,6.9,5.9c4,3.5,7.9,7.2,11.6,11c1.6,1.6,3.2,3.3,4.8,5
	c1.3,1.4,2.7,2.9,3.9,4.3c1.4,1.6,2.8,3.2,4.2,4.8c1.3,1.6,2.6,3.1,3.9,4.7c1.3,1.7,2.7,3.4,4,5.1c0.8,1,1.5,2,2.3,3
	c4.4,6,8.5,12.2,12.4,18.6c0.6,1,1.2,1.9,1.7,2.9c1,1.7,2,3.4,2.9,5.1c0.1,0.1,0.1,0.2,0.2,0.3l0,0c0,0,0,0.1,0.1,0.1
	c1.9,3.4,3.7,6.8,5.4,10.3l0,0c2.8,5.6,5.3,11.4,7.6,17.2c0.6,1.5,1.2,3,1.8,4.6c0.2,0.5,0.4,1,0.5,1.5c2,5.3,3.7,10.6,5.3,16.1
	c1,3.3,1.8,6.5,2.6,9.9c0,0,0,0.1,0,0.1c0.6,2.2,1.1,4.5,1.6,6.7c0.2,1.1,0.5,2.2,0.7,3.3c1,4.8,1.8,9.7,2.5,14.6
	c0.1,0.9,0.3,1.9,0.4,2.8c0.4,3.5,0.8,6.9,1.1,10.4c0,0.1,0,0.1,0,0.2c0.3,3.6,0.5,7.2,0.7,10.8c0,0,0,0.1,0,0.1
	C499.1,242.9,499.2,246.1,499.2,249.3z"/>
<g>
	<path class="st13" d="M470.5,220.4h-35.5c-8.7,0-16.2-6.5-17.1-15.1c-7.7-78.5-79.2-140.1-159.8-140.1S106.1,126.7,98.4,205.3
		c-0.8,8.7-8.3,15.1-17.1,15.1H46c0-114.3,97.9-207.1,212.2-207.1C372.6,13.3,470.5,106.1,470.5,220.4z"/>
	<path class="st14" d="M436,220.4h34.5c0,22.8-4.6,44.8-11.3,65.3l0,0c-0.4-0.1-0.8-0.3-1.2-0.4l-32.2-8.6
		C432.1,259.1,436,240.1,436,220.4z"/>
	<path class="st15" d="M470.1,306.5l-22.3,83.3c-2.5,9.3-11.9,14.7-21.1,12.3l-33.4-9c0,0,31.1-112.9,32.5-116.4l32.2,8.6
		C467.5,288,472.6,297.6,470.1,306.5z"/>
	<path class="st14" d="M338.9,396.3c-9.3-2.5-14.7-11.9-12.3-21.1l31.3-116.6c2.5-9.3,12-14.7,21.1-12.3l33.4,8.9
		c9.3,2.5,14.7,11.9,12.3,21.1l-2.9,10.6L393.4,393c-2.5,9.3-11.9,14.7-21.1,12.3C360.5,402.2,350.6,399.5,338.9,396.3z"/>
	<path class="st14" d="M144.4,405.3c-9.3,2.5-18.6-3-21.1-12.3L92,276.4c-2.5-9.3,3-18.6,12.3-21.1l33.4-8.9
		c9.3-2.5,18.6,3,21.1,12.3L190,375.4c2.5,9.3-3,18.6-12.3,21.1C166.1,399.5,156,402.2,144.4,405.3z"/>
	<path class="st15" d="M123.3,393.1l-33.4,9c-9.3,2.5-18.6-3-21.1-12.3l-22.3-83.3c-2.3-8.9,2.5-17.9,10.9-20.7
		c0.4-0.1,0.8-0.3,1.2-0.4l32.2-8.6C92,280.2,123.3,393.1,123.3,393.1z"/>
	<path class="st14" d="M90.9,276.7l-32.2,8.6c-0.4,0.1-0.8,0.3-1.2,0.4l0,0c-6.8-20.6-11.3-42.5-11.3-65.3h34.5
		C80.6,240.1,84.5,259.1,90.9,276.7z"/>
	<path d="M384.6,292.5c-4.6-1.2-9.4,1.4-10.6,6.1c-1.2,4.6,1.4,9.4,6.1,10.6c4.6,1.2,9.4-1.6,10.6-6.1S389.2,293.8,384.6,292.5z"/>
	<path d="M136.5,309.2c4.6-1.2,7.3-6,6.1-10.6c-1.2-4.6-6-7.3-10.6-6.1c-4.6,1.2-7.3,6-6.1,10.6
		C127.2,307.7,131.9,310.5,136.5,309.2z"/>
	<path d="M469.5,281.7c6.5-21.4,9.6-41.6,9.6-61.3c0-57.3-23.3-111.6-65.8-152.6c-41.4-40-96.8-63.1-155-63.1
		c-119,0-220.9,96.3-220.9,215.7c0,19.8,3.1,39.9,9.6,61.3c-8,6.3-11.7,16.8-9,27l22.3,83.3c3.6,13.7,17.9,22,31.7,18.4l26.5-7
		c6,8.9,17.2,13.3,28,10.3l33.4-9c13.8-3.6,22-17.9,18.2-31.7l-31.3-116.6c-3.6-13.8-18-22-31.7-18.2l-33.4,9
		c-3.5,0.9-6.6,2.6-9.4,4.7c-1.7-8.1-2.7-16-3.3-23.9c9.5-3,16.7-11.3,17.7-21.8c7.2-73,74.9-132.3,151.2-132.3
		s144,59.3,151.2,132.3c1,10.4,8.2,18.8,17.7,21.8c-0.4,7.8-1.4,15.8-3.3,23.9c-2.7-2.1-5.9-3.8-9.4-4.7l-33.4-9
		c-13.8-3.6-28,4.6-31.7,18.2L318,372.9c-3.6,13.8,4.6,28,18.2,31.7l33.4,9c10.8,2.9,21.9-1.6,28-10.3l26.5,7
		c13.9,3.8,28-4.7,31.7-18.2l22.3-83.3C481.2,298.5,477.4,287.9,469.5,281.7z M106.5,263.7l33.4-9c4.6-1.2,9.4,1.6,10.6,6.1
		l31.3,116.6c1.2,4.6-1.6,9.4-6.1,10.6l-8.3,2.2l-15.6-58.4c-1.2-4.6-6-7.3-10.6-6.1c-4.6,1.2-7.3,6-6.1,10.6l15.6,58.4l-8.3,2.2
		c-4.6,1.2-9.4-1.6-10.6-6.1l0,0l-31.3-116.6C99.1,269.7,101.8,264.8,106.5,263.7z M112.8,387l-25,6.6c-4.6,1.2-9.4-1.4-10.6-6.1
		l-22.3-83.3c-1.2-4.3,1.3-8.9,5.6-10.4c0.3-0.1,0.4-0.1,0.5-0.1l24.6-6.6C88.1,293.4,83.4,279,112.8,387z M54.9,229h17.3
		c0.8,13.7,3.3,27.8,7.6,41.7l-16.6,4.4C58.4,259.1,55.7,243.9,54.9,229z M426.6,204.4c-8.1-83.5-83.9-147.9-168.3-147.9
		S98.2,120.8,90.1,204.4c-0.4,4.2-4.2,7.4-8.5,7.4H55C59.8,108.1,151.1,22,258.5,22s198.6,86,203.4,189.8h-26.6
		C430.8,211.8,427,208.5,426.6,204.4z M461.7,229c-0.8,14.9-3.5,30.1-8.2,46.3l-16.6-4.4c4.3-14.1,6.8-28,7.6-41.7h17.2V229z
		 M385,390.9L385,390.9c-1.2,4.6-6,7.3-10.6,6.1l-8.3-2.2l15.6-58.4c1.2-4.6-1.4-9.4-6.1-10.6c-4.6-1.2-9.4,1.6-10.6,6.1l-15.6,58.4
		l-8.3-2.2c-4.6-1.2-7.3-6-6.1-10.6l31.3-116.6c1-3.9,4.6-6.4,8.3-6.4c0.8,0,1.4,0.1,2.2,0.3l33.4,9c4.6,1.2,7.3,6,6.1,10.6
		L385,390.9z M461.8,304.3l-22.3,83.3c-1.2,4.6-6,7.3-10.6,6.1l-25-6.6c29.2-108,24.6-93.6,27.1-100c26.2,7,24.8,6.6,25.3,6.8
		C460.6,295.3,463,299.9,461.8,304.3z"/>
</g>
</svg>
