<?xml version="1.0" encoding="utf-8"?>
<!-- Generator: Adobe Illustrator 24.0.1, SVG Export Plug-In . SVG Version: 6.00 Build 0)  -->
<svg version="1.1" id="Layer_1" xmlns="http://www.w3.org/2000/svg" xmlns:xlink="http://www.w3.org/1999/xlink" x="0px" y="0px"
	 viewBox="0 0 512 512" style="enable-background:new 0 0 512 512;" xml:space="preserve">
<style type="text/css">
	.st0{display:none;}
	.st1{display:inline;fill:#200A7F;stroke:#18E5EA;stroke-width:20;stroke-miterlimit:10;}
	.st2{display:inline;fill:#EF0B79;}
	.st3{display:inline;fill:#18E5EA;}
	.st4{display:inline;}
	.st5{fill:#E9F21C;}
	.st6{display:inline;fill:none;}
	.st7{display:inline;fill:#EF3A24;}
	.st8{font-family:'MyriadPro-Regular';}
	.st9{font-size:250px;}
	.st10{display:inline;fill:#FFFFFF;}
	.st11{opacity:0.48;fill:#969696;enable-background:new    ;}
	.st12{fill:#FFFFFF;stroke:#D8D8D8;stroke-width:2;stroke-miterlimit:10;}
	.st13{fill:#C52828;}
	.st14{fill:#F44335;}
	.st15{fill:#FFEB3A;}
</style>
<g id="Layer_3" class="st0">
	<path class="st1" d="M401.1,212.2c5.1,15.3,7.9,31.7,7.9,48.8c0,85.3-69.2,154.5-154.5,154.5S100,346.3,100,261
		s69.2-154.5,154.5-154.5c51.2,0,96.6,24.9,124.7,63.3"/>
	<path class="st2" d="M333.4,255.2c0,4.2-3.3,7.7-7.4,7.7H174.9c-4.1,0-7.4-3.4-7.4-7.7l0,0c0-4.2,3.3-7.7,7.4-7.7H326
		C330.1,247.5,333.4,250.9,333.4,255.2L333.4,255.2z"/>
	<path class="st2" d="M333.4,284.8c0,4.2-3.3,7.6-7.4,7.6H174.9c-4.1,0-7.4-3.4-7.4-7.6l0,0c0-4.2,3.3-7.6,7.4-7.6H326
		C330.1,277.1,333.4,280.6,333.4,284.8L333.4,284.8z"/>
	<path class="st2" d="M333.4,313c0,4.2-3.3,7.7-7.4,7.7H174.9c-4.1,0-7.4-3.4-7.4-7.7l0,0c0-4.2,3.3-7.6,7.4-7.6H326
		C330.1,305.4,333.4,308.8,333.4,313L333.4,313z"/>
	<path class="st2" d="M333.4,338.4c0,4.2-3.3,7.7-7.4,7.7H174.9c-4.1,0-7.4-3.4-7.4-7.7l0,0c0-4.2,3.3-7.6,7.4-7.6H326
		C330.1,330.7,333.4,334.1,333.4,338.4L333.4,338.4z"/>
	<polygon class="st3" points="395,191.5 320.2,165.2 380.4,113.5 	"/>
	<g class="st4">
		<g>
			<g>
				<path class="st5" d="M241.5,239.2c-2.3,0-4.4-1.1-5.8-2.9l-18.8-24.8c-2.4-3.2-1.8-7.8,1.4-10.3c3.2-2.4,7.8-1.8,10.3,1.4
					l12.3,16.3l31-49.8c2.1-3.4,6.6-4.5,10.1-2.3c3.4,2.1,4.5,6.6,2.3,10.1l-36.7,58.9c-1.3,2-3.5,3.3-5.9,3.4
					C241.7,239.2,241.6,239.2,241.5,239.2z"/>
			</g>
		</g>
	</g>
</g>
<g id="Layer_2_2_" class="st0">
	<rect x="121" y="171.5" class="st6" width="298" height="251"/>
	<text transform="matrix(1 0 0 1 121 348.9979)" class="st7 st8 st9">24</text>
	<circle class="st10" cx="138.3" cy="91.8" r="17.3"/>
	<circle class="st10" cx="185.3" cy="91.8" r="17.3"/>
	<circle class="st10" cx="232.3" cy="91.8" r="17.3"/>
	<circle class="st10" cx="278.3" cy="91.8" r="17.3"/>
	<circle class="st10" cx="323.3" cy="91.8" r="17.3"/>
	<circle class="st10" cx="368.3" cy="91.8" r="17.3"/>
</g>
<circle class="st11" cx="255.6" cy="260.3" r="244.6"/>
<path class="st12" d="M499.2,249.3c0,2.9,0,5.9-0.2,8.8c-0.5,14.3-2.3,28.3-5.1,41.9c0,0,0,0.1,0,0.2c-2.1,10-4.8,19.8-8.1,29.3l0,0
	c-3.2,9.3-7,18.4-11.3,27.2c-1.4,2.8-2.8,5.6-4.3,8.4l0,0c-0.1,0.1-0.1,0.2-0.2,0.3c-1.4,2.6-2.9,5.2-4.4,7.7
	c-3.6,6.1-7.4,12-11.5,17.7c-0.9,1.3-1.9,2.6-2.8,3.9c-2.6,3.5-5.3,7-8.1,10.4c-4.4,5.3-9,10.5-13.9,15.4c-2.1,2.1-4.2,4.2-6.3,6.2
	l-0.1,0.1c-0.1,0.1-0.3,0.3-0.4,0.4c-0.2,0.2-0.4,0.4-0.7,0.6l-0.1,0.1c-0.1,0.1-0.2,0.2-0.3,0.3c-1.7,1.6-3.4,3.1-5.2,4.7
	c-1.1,1-2.2,1.9-3.3,2.9c-4.2,3.5-8.4,6.9-12.8,10.2c-2.3,1.7-4.7,3.4-7.1,5c0,0,0,0-0.1,0c-0.1,0.1-0.2,0.2-0.4,0.3
	c-39.3,26.9-86.8,42.6-138,42.6c-31.7,0-61.9-6-89.7-17c-5.2-2-10.3-4.3-15.3-6.7c-0.1,0-0.2-0.1-0.3-0.1
	c-6.6-3.2-13.1-6.6-19.4-10.4c-0.1,0-0.1-0.1-0.2-0.1l0,0c-3.8-2.2-7.5-4.6-11.1-7c0,0,0,0-0.1,0c-2.5-1.7-4.9-3.4-7.3-5.1
	c-3.2-2.3-6.3-4.7-9.4-7.2c-2.3-1.8-4.6-3.7-6.8-5.6c-2.1-1.8-4.1-3.6-6.2-5.5l-0.1-0.1c0,0,0,0-0.1,0c-0.1-0.1-0.2-0.2-0.3-0.2
	l-0.1-0.1l-0.1-0.1c-2.1-1.9-4.2-3.9-6.2-5.9c-4.9-4.9-9.6-9.9-14-15.2c-2.5-3-5-6-7.4-9.1c-1.3-1.6-2.5-3.3-3.7-4.9
	c-4.1-5.6-8-11.5-11.6-17.5c-0.8-1.4-1.6-2.7-2.4-4.1c-0.3-0.5-0.5-0.9-0.8-1.4c-0.5-0.8-0.9-1.5-1.3-2.3l0,0c0,0,0-0.1-0.1-0.1l0,0
	c-1.5-2.7-3-5.5-4.4-8.2c-4.1-8.8-8.1-17.8-11.4-27c0,0,0-0.1-0.1-0.1c-8.5-23.5-13.5-48.6-14.5-74.8c-0.1-2.9-0.2-5.8-0.2-8.8
	c0-3.2,0.1-6.4,0.2-9.5c1.5-39,12.1-75.7,29.8-107.9c10.6-19.3,23.7-37,38.9-52.7l0,0c4.3-4.5,8.8-8.8,13.4-12.9
	c5.8-5.1,11.8-10,18-14.5c1.2-0.9,2.4-1.8,3.7-2.7c9.6-6.8,19.8-12.9,30.4-18.3c30.8-15.5,65.3-24.8,101.8-26
	c2.8-0.1,5.6-0.1,8.4-0.1h0.4c2.8,0,5.5,0,8.2,0.1c34.5,1.2,67.1,9.5,96.6,23.5c10,4.8,19.6,10.2,28.8,16.2c3.5,2.3,6.9,4.6,10.2,7
	c3.8,2.8,7.6,5.7,11.2,8.7c2.3,1.9,4.7,3.9,6.9,5.9c20.8,18.4,38.4,40.4,51.9,64.9c17.9,32.4,28.7,69.3,30.2,108.6
	C499.1,242.9,499.2,246.1,499.2,249.3z"/>
<g>
	<g transform="translate(1 1)">
		<path class="st13" d="M498.2,249.8c0,64.4-25.6,126.3-71.2,171.9s-107.5,71.2-171.9,71.2c-4.1,0-8.4-0.2-12.6-0.3h-0.2
			C113.2,486,11.9,379.2,11.9,249.8S113.2,13.8,242.4,7h0.2c4.1-0.3,8.3-0.3,12.6-0.3c64.4,0,126.3,25.6,171.9,71.2
			S498.2,185.4,498.2,249.8z"/>
		<path class="st14" d="M473.1,249.8c0,129.3-101.3,236-230.5,242.8h-0.2C113.2,486,11.9,379.2,11.9,249.8S113.2,13.8,242.4,7h0.2
			C371.8,13.8,473.1,120.5,473.1,249.8z"/>
		<path class="st15" d="M306.1,195c-16.8-9-30.9-22.3-41-38.6c-10.4-20.4-13.3-43.6-8.1-66c-27.7,18.1-48.4,45.2-58.3,76.7
			c-9.8,31.4-11.6,64.9-5.2,97.2c-16.4-8.6-27.9-24.3-30.9-42.6c-27.9,37.5-29.7,88.2-4.7,127.7c26.5,38.4,73.8,56.8,119.2,45.9
			c45-12.6,77.6-51.4,82.2-97.8C361.3,256.4,341.1,217.1,306.1,195z"/>
		<path class="st14" d="M277.3,300.3c-8.1-4.3-15-10.7-19.9-18.7c-5.1-9.8-6.4-21.1-4-31.8c-13.5,8.7-23.4,21.7-28.2,37
			c-4.7,15.2-5.7,31.4-2.4,47c-8-4.1-13.5-11.8-14.8-20.5c-13.9,17.9-14.8,42.7-2.3,61.7c12.6,19,35.7,27.9,57.6,22.2
			c20.7-5.4,36.1-22.5,39.3-43.8C305.5,332.3,295.7,311.4,277.3,300.3L277.3,300.3z"/>
	</g>
	<g>
		<path d="M311.5,189c-15.6-8.3-28.6-20.5-38.1-35.4c-9.5-18.5-12.1-39.8-7.3-60.2c0.8-3.4-0.6-6.7-3.4-8.7s-6.4-2-9.3-0.3
			c-29.4,19-51.3,47.8-61.8,81.1c-8.3,26-11.2,53.3-8.4,80.5c-6-7-9.9-15.5-11.5-24.5c-0.5-3.4-2.9-6-6.3-6.7s-6.7,0.3-8.7,3.1
			c-30,40.3-32,94.9-5.2,137.5c21.1,30.8,55.3,50.1,92.5,52.5c2.6,0.3,5.2,0.5,7.8,0.5h0.2h0.2c9.3,0,18.7-1.2,27.9-3.5
			c48.4-13.5,83.6-55.3,88.5-105.3C370.9,254.9,349.2,212.5,311.5,189z M213.6,371.3c-7.2-11.5-9-25.4-5.1-38.4
			c3.1,3.8,7,7,11.5,9.3c2.9,1.5,6.3,1.2,8.9-0.8c2.6-1.8,3.8-5.1,3.2-8.3c-2.9-14.2-2.1-28.9,2.3-42.9c2.4-7.5,6.3-14.5,11.3-20.7
			c0.9,6,2.8,11.6,5.5,16.8c5.5,9.2,13.5,16.7,22.8,21.7c15.5,9.2,23.9,26.9,21.3,44.7s-15.6,32.3-33.1,36.9
			c-4.4,1.1-8.9,1.5-13.5,1.2h-0.3C234.2,390.3,221.5,382.9,213.6,371.3z M351.5,298c-3.1,31.5-20.2,60-46.7,77.3
			c4.1-7.3,6.6-15.5,7.3-23.7c1.4-23.1-9.9-45-29.5-57.4c-6.9-3.7-12.7-8.9-16.8-15.5c-4-8.1-5.2-17.3-3.2-26
			c0.8-3.4-0.6-6.7-3.4-8.7s-6.4-2-9.3-0.3c-15.2,9.8-26.3,24.3-31.7,41.5c-2.3,7.2-3.8,14.7-4.4,22.3c-3.7-2.8-8.9-2.1-11.6,1.5
			c-14.4,19.3-16.4,45.2-5.4,66.6c-12.6-7.5-23.3-17.8-31.4-29.8c-19.7-31.2-21.6-70.6-4.7-103.5c6.3,13,16.7,23.7,29.5,30.5
			c2.9,1.5,6.3,1.2,8.9-0.8c2.6-1.8,3.8-5.1,3.2-8.3c-4.9-25.3-4.7-51.3,0.5-76.4c0.6-1.1,0.9-2.3,0.9-3.5v-0.2
			c1.1-4.3,2.1-8.6,3.5-12.9c7.5-23.4,21.3-44.5,39.6-60.9c-0.8,17.9,3.2,35.7,11.5,51.6c10.7,17.6,25.9,32,44.1,41.6
			C335.1,223.6,353.8,259.8,351.5,298z"/>
	</g>
</g>
</svg>
