<?xml version="1.0" encoding="utf-8"?>
<!-- Generator: Adobe Illustrator 24.0.1, SVG Export Plug-In . SVG Version: 6.00 Build 0)  -->
<svg version="1.1" id="Layer_1" xmlns="http://www.w3.org/2000/svg" xmlns:xlink="http://www.w3.org/1999/xlink" x="0px" y="0px"
	 viewBox="0 0 512 512" style="enable-background:new 0 0 512 512;" xml:space="preserve">
<style type="text/css">
	.st0{display:none;}
	.st1{display:inline;fill:#200A7F;stroke:#18E5EA;stroke-width:20;stroke-miterlimit:10;}
	.st2{display:inline;fill:#EF0B79;}
	.st3{display:inline;fill:#18E5EA;}
	.st4{display:inline;}
	.st5{fill:#E9F21C;}
	.st6{display:inline;fill:none;}
	.st7{display:inline;fill:#EF3A24;}
	.st8{font-family:'MyriadPro-Regular';}
	.st9{font-size:250px;}
	.st10{display:inline;fill:#FFFFFF;}
	.st11{opacity:0.48;fill:#969696;enable-background:new    ;}
	.st12{fill:url(#SVGID_1_);}
	.st13{fill:#FFFFFF;}
</style>
<g id="Layer_3" class="st0">
	<path class="st1" d="M401.1,212.2c5.1,15.3,7.9,31.7,7.9,48.8c0,85.3-69.2,154.5-154.5,154.5S100,346.3,100,261
		s69.2-154.5,154.5-154.5c51.2,0,96.6,24.9,124.7,63.3"/>
	<path class="st2" d="M333.4,255.2c0,4.2-3.3,7.7-7.4,7.7H174.9c-4.1,0-7.4-3.4-7.4-7.7l0,0c0-4.2,3.3-7.7,7.4-7.7H326
		C330.1,247.5,333.4,250.9,333.4,255.2L333.4,255.2z"/>
	<path class="st2" d="M333.4,284.8c0,4.2-3.3,7.6-7.4,7.6H174.9c-4.1,0-7.4-3.4-7.4-7.6l0,0c0-4.2,3.3-7.6,7.4-7.6H326
		C330.1,277.1,333.4,280.6,333.4,284.8L333.4,284.8z"/>
	<path class="st2" d="M333.4,313c0,4.2-3.3,7.7-7.4,7.7H174.9c-4.1,0-7.4-3.4-7.4-7.7l0,0c0-4.2,3.3-7.6,7.4-7.6H326
		C330.1,305.4,333.4,308.8,333.4,313L333.4,313z"/>
	<path class="st2" d="M333.4,338.4c0,4.2-3.3,7.7-7.4,7.7H174.9c-4.1,0-7.4-3.4-7.4-7.7l0,0c0-4.2,3.3-7.6,7.4-7.6H326
		C330.1,330.7,333.4,334.1,333.4,338.4L333.4,338.4z"/>
	<polygon class="st3" points="395,191.5 320.2,165.2 380.4,113.5 	"/>
	<g class="st4">
		<g>
			<g>
				<path class="st5" d="M241.5,239.2c-2.3,0-4.4-1.1-5.8-2.9l-18.8-24.8c-2.4-3.2-1.8-7.8,1.4-10.3c3.2-2.4,7.8-1.8,10.3,1.4
					l12.3,16.3l31-49.8c2.1-3.4,6.6-4.5,10.1-2.3c3.4,2.1,4.5,6.6,2.3,10.1l-36.7,58.9c-1.3,2-3.5,3.3-5.9,3.4
					C241.7,239.2,241.6,239.2,241.5,239.2z"/>
			</g>
		</g>
	</g>
</g>
<g id="Layer_2_2_" class="st0">
	<rect x="121" y="171.5" class="st6" width="298" height="251"/>
	<text transform="matrix(1 0 0 1 121 348.9979)" class="st7 st8 st9">24</text>
	<circle class="st10" cx="138.3" cy="91.8" r="17.3"/>
	<circle class="st10" cx="185.3" cy="91.8" r="17.3"/>
	<circle class="st10" cx="232.3" cy="91.8" r="17.3"/>
	<circle class="st10" cx="278.3" cy="91.8" r="17.3"/>
	<circle class="st10" cx="323.3" cy="91.8" r="17.3"/>
	<circle class="st10" cx="368.3" cy="91.8" r="17.3"/>
</g>
<circle class="st11" cx="255.6" cy="260.3" r="244.6"/>
<linearGradient id="SVGID_1_" gradientUnits="userSpaceOnUse" x1="9.9" y1="249.3" x2="499.2" y2="249.3">
	<stop  offset="0" style="stop-color:#7C76B7"/>
	<stop  offset="0.5" style="stop-color:#6561AB"/>
	<stop  offset="1" style="stop-color:#483F99"/>
</linearGradient>
<path class="st12" d="M499.2,249.3c0,2.9,0,5.9-0.2,8.8c-0.1,3.2-0.3,6.3-0.5,9.5c-0.4,6-1.1,12-2,17.9c-0.5,3.1-1,6.3-1.6,9.4
	c-0.3,1.7-0.7,3.5-1,5.2c0,0,0,0.1,0,0.2c-0.1,0.5-0.2,0.9-0.3,1.4c-0.8,3.5-1.6,7-2.5,10.4c-0.8,3.2-1.8,6.4-2.8,9.6
	c-0.8,2.6-1.6,5.2-2.5,7.8c-0.2,0.6-0.4,1.1-0.6,1.7c-2,5.7-4.3,11.3-6.7,16.8c-0.3,0.6-0.5,1.2-0.8,1.8c0,0,0,0,0,0
	c-0.4,0.8-0.8,1.7-1.1,2.5l0,0c-0.7,1.5-1.3,2.9-2,4.4c-0.7,1.4-1.4,2.8-2.1,4.1c-0.7,1.4-1.5,2.8-2.2,4.3c-0.1,0.1-0.1,0.2-0.2,0.3
	c-0.5,0.8-0.9,1.6-1.4,2.5c-0.1,0.1-0.1,0.2-0.2,0.4c-0.9,1.7-1.9,3.3-2.8,4.9c-0.4,0.7-0.8,1.3-1.2,2c-0.1,0.3-0.3,0.5-0.4,0.7
	c0,0.1-0.1,0.2-0.1,0.2c-0.9,1.5-1.8,3-2.8,4.5c0,0,0,0,0,0c-1.7,2.7-3.5,5.4-5.4,8c-0.2,0.4-0.5,0.7-0.7,1.1l0,0.1
	c-0.3,0.4-0.5,0.7-0.8,1.1c-0.9,1.3-1.9,2.6-2.8,3.9c-0.8,1-1.5,2.1-2.3,3.1c0,0.1-0.1,0.1-0.1,0.2c-1.8,2.4-3.7,4.8-5.6,7.1
	c-3,3.6-6.1,7.2-9.4,10.7c-0.6,0.7-1.2,1.3-1.8,2c-0.9,0.9-1.8,1.8-2.7,2.8c-2.1,2.1-4.1,4.2-6.2,6.1c0,0,0,0-0.1,0.1l-0.1,0.1
	c-0.1,0.1-0.3,0.3-0.4,0.4c-0.2,0.2-0.4,0.4-0.7,0.6l-0.1,0.1c-0.1,0.1-0.2,0.2-0.3,0.3c-1.7,1.6-3.4,3.1-5.2,4.7
	c-0.4,0.4-0.8,0.7-1.2,1.1c-0.5,0.4-1,0.8-1.4,1.3c0,0-0.1,0.1-0.1,0.1c-0.2,0.2-0.4,0.3-0.5,0.5c-2.8,2.4-5.6,4.7-8.5,6.9
	c-1.4,1.1-2.8,2.2-4.3,3.3c-2.3,1.7-4.7,3.4-7.1,5c0,0,0,0-0.1,0c-0.1,0-0.1,0.1-0.2,0.2c-0.1,0-0.1,0.1-0.2,0.1
	c-1,0.7-1.9,1.3-2.9,1.9c-2,1.3-4,2.6-6,3.8c-1.2,0.8-2.4,1.5-3.7,2.2c-1.7,1-3.4,2-5.2,3c-3.2,1.8-6.4,3.5-9.6,5.2
	c-0.8,0.4-1.6,0.8-2.4,1.2c-7.9,3.9-16,7.4-24.3,10.4c-1.4,0.5-2.8,1-4.3,1.5h0c-4,1.4-8.1,2.7-12.2,3.8c-3.1,0.9-6.3,1.7-9.5,2.5
	c-18.6,4.5-38.1,6.9-58.1,6.9c-0.4,0-0.8,0-1.3,0c-7,0-13.9-0.4-20.8-1h0c-11.7-1-23.1-2.9-34.3-5.5h0c-0.5-0.1-1.1-0.3-1.6-0.4
	c-3-0.7-6-1.5-9-2.4c-7.7-2.2-15.3-4.8-22.7-7.7c-5.2-2-10.3-4.3-15.3-6.7c-0.1,0-0.2-0.1-0.3-0.1c-4.1-2-8.1-4-12-6.2
	c-2.5-1.3-4.9-2.8-7.4-4.2c-0.1,0-0.1-0.1-0.2-0.1c-1.4-0.8-2.8-1.7-4.2-2.5c-0.1,0-0.2-0.1-0.2-0.2c-0.9-0.6-1.9-1.2-2.8-1.8
	c-1.3-0.8-2.6-1.7-3.9-2.6c0,0,0,0-0.1,0c-2.5-1.7-4.9-3.4-7.3-5.1c-1.2-0.8-2.3-1.7-3.5-2.6c-2-1.5-4-3-5.9-4.6
	c-1.2-0.9-2.3-1.8-3.4-2.8c0,0,0,0,0,0c-1.1-0.9-2.2-1.9-3.3-2.8c-2.1-1.8-4.1-3.6-6.2-5.5l-0.1-0.1c0,0,0,0-0.1,0
	c-0.1-0.1-0.2-0.2-0.3-0.2l-0.2-0.2c-2.1-1.9-4.2-3.9-6.2-5.9c-4.9-4.9-9.6-9.9-14-15.2c-2.5-3-5-6-7.4-9.1l-0.6-0.7
	c-1.1-1.4-2.1-2.8-3.1-4.2c-3-4.1-5.8-8.3-8.6-12.6c-1-1.6-2-3.3-3-4.9c-0.8-1.4-1.6-2.7-2.4-4.1c-0.3-0.5-0.5-0.9-0.8-1.4
	c-0.5-0.8-0.9-1.5-1.3-2.3c0,0,0,0,0-0.1c0,0,0,0-0.1,0c-1.5-2.7-3-5.5-4.4-8.2c-4.1-8.8-8.1-17.8-11.4-27c0,0,0-0.1-0.1-0.1
	c-2.3-6.5-4.4-13-6.2-19.7c-4.8-17.7-7.6-36.1-8.3-55.1c-0.1-2.9-0.2-5.8-0.2-8.8c0-3.2,0.1-6.4,0.2-9.5c0.7-18.8,3.6-37.1,8.3-54.6
	c0.6-2.1,1.1-4.1,1.8-6.2c1.6-5.4,3.4-10.8,5.4-16c0.9-2.4,1.8-4.8,2.8-7.1l0,0c2.3-5.5,4.7-10.8,7.4-16.1c1.3-2.7,2.7-5.3,4.1-7.8
	c0.3-0.5,0.5-0.9,0.8-1.4c2.4-4.3,4.9-8.5,7.5-12.5c3.7-5.8,7.7-11.5,11.9-17c0.1-0.2,0.3-0.4,0.4-0.5c5.7-7.4,11.9-14.5,18.4-21.3
	c1.9-2,3.9-4,5.8-5.9c2.5-2.4,5-4.8,7.6-7c3.4-3,6.9-5.9,10.5-8.8c0.3-0.2,0.5-0.4,0.8-0.6c1.4-1.1,2.8-2.2,4.2-3.2
	c0.9-0.6,1.7-1.3,2.6-1.9c1.2-0.9,2.4-1.8,3.7-2.7c0.4-0.3,0.9-0.6,1.3-0.9c0.5-0.3,1-0.7,1.5-1c0.1,0,0.1-0.1,0.2-0.1
	c1.8-1.3,3.7-2.5,5.5-3.7c1.1-0.7,2.1-1.4,3.2-2c2.2-1.4,4.4-2.7,6.6-4c1.6-1,3.3-1.9,4.9-2.8c0.4-0.2,0.8-0.5,1.3-0.7
	c2-1.1,3.9-2.1,5.9-3.1c3.5-1.8,7.1-3.5,10.8-5.1c0.8-0.4,1.7-0.8,2.6-1.1c8.3-3.6,16.9-6.7,25.6-9.4c3.8-1.2,7.7-2.3,11.6-3.2
	c0.5-0.1,1-0.2,1.5-0.4c0.7-0.2,1.4-0.3,2.1-0.5c11.8-2.8,23.9-4.7,36.2-5.7c3.1-0.3,6.3-0.5,9.5-0.6c0.6,0,1.3-0.1,1.9-0.1
	c2.8-0.1,5.6-0.1,8.4-0.1h0.4c2.8,0,5.5,0,8.2,0.1c0.6,0,1.2,0,1.8,0.1c0.1,0,0.2,0,0.2,0c3.2,0.1,6.3,0.3,9.4,0.6
	c1.9,0.1,3.8,0.3,5.6,0.5c11.1,1.2,22,3.1,32.6,5.6c0.5,0.1,1.1,0.3,1.6,0.4c13.8,3.4,27.1,8.1,39.8,13.7c1.9,0.8,3.7,1.7,5.5,2.5
	c5.1,2.5,10.2,5.1,15.1,7.9c2.9,1.7,5.8,3.4,8.7,5.1c1.7,1,3.3,2.1,5,3.2c0.4,0.3,0.8,0.5,1.1,0.7c1.5,1,2.9,2,4.4,2.9
	c1.6,1.1,3.2,2.2,4.7,3.3c1.7,1.3,3.5,2.6,5.2,3.9c0.2,0.1,0.3,0.3,0.5,0.4c1.9,1.4,3.7,2.9,5.5,4.4c2.3,1.9,4.7,3.9,6.9,5.9
	c4,3.5,7.9,7.2,11.6,11c1.6,1.6,3.2,3.3,4.8,5c1.3,1.4,2.7,2.9,3.9,4.3c1.4,1.6,2.8,3.2,4.2,4.8c1.3,1.6,2.6,3.1,3.9,4.7
	c1.3,1.7,2.7,3.4,4,5.1c0.8,1,1.5,2,2.3,3c4.4,6,8.5,12.2,12.4,18.6c0.6,1,1.2,1.9,1.7,2.9c1,1.7,2,3.4,2.9,5.1
	c0.1,0.1,0.1,0.2,0.2,0.3l0,0c0,0,0,0.1,0.1,0.1c1.9,3.4,3.7,6.8,5.4,10.3l0,0c2.3,4.7,4.4,9.4,6.4,14.3c0.4,1,0.8,2,1.2,3
	c0.6,1.5,1.2,3,1.8,4.6c0.2,0.5,0.4,1,0.5,1.5c2,5.3,3.7,10.6,5.3,16.1c1,3.3,1.8,6.5,2.6,9.9c0,0,0,0.1,0,0.1
	c0.6,2.2,1.1,4.5,1.6,6.7c0.2,1.1,0.5,2.2,0.7,3.3c1,4.8,1.8,9.7,2.5,14.6c0.1,0.9,0.3,1.9,0.4,2.8c0.4,3.5,0.8,6.9,1.1,10.4
	c0,0.1,0,0.1,0,0.2c0.3,3.6,0.5,7.2,0.7,10.8c0,0,0,0.1,0,0.1C499.1,242.9,499.2,246.1,499.2,249.3z"/>
<g>
	<g transform="translate(0.000000,227.000000) scale(0.100000,-0.100000)">
		<path class="st13" d="M2748.3,635.2l-8.8-69c-5.9-39.6-13.2-113-19.1-165.9l-8.8-95.5l-120.4-1.5
			c-584.4-5.9-1114.6-443.5-1309.8-1082.2c-29.3-95.5-39.6-164.5-45.5-333.4c-16.2-417.1,57.3-672.6,293.7-1017.7
			c95.4-140.9,308.4-365.6,440.5-465.5c3.8-2.7,7.5-5.4,11.1-8.1c-5.4,1.2-10.7,2.5-16.1,3.8c-30.3,7.4-60.4,15.3-90.3,23.9
			c-77.2,21.9-152.8,47.6-226.8,76.9c-52,20-103,43-153,67c-1,0-2,1-3,1c-40.6,19.7-80.8,40.1-120.4,61.8
			c-24.8,13.5-49.4,27.6-73.6,42.2c-1,0-1,1-2,1c-14.1,8.2-28.1,16.6-41.9,25.3c-0.8,0.5-1.6,1-2.4,1.5c-0.4,0.6-0.8,1.2-1.2,1.8
			c-292.3,437.6-402.4,879.6-336.3,1346.6c48.4,336.3,205.6,696,406.8,932.5c295.2,348,610.9,541.9,1011.8,625.6
			c69,13.1,189.4,26.4,270.1,26.4L2748.3,635.2z"/>
		<path class="st13" d="M1711.5-859.9c-39.7-114.5-44.1-145.4-44.1-311.3c0-715.2,512.5-1220.3,1364.2-1345.1
			c61.6-8.8,181.3-15.7,310.7-19.9c-40.1-13.9-80.8-26.7-121.9-38.5c-31.3-9-62.9-17.4-94.8-25.1c-186.2-45.3-380.6-69.2-580.6-69.2
			h-200.6l-20,9.9h-0.1l-95.9,47.4c-309.8,155.7-571.2,414.1-723.9,713.7c-211.4,415.6-229.1,912-45.5,1296.7
			c201.2,424.4,596.2,722.5,1057.3,797.4c41.1,5.8,166,8.8,278.9,5.8c213-5.8,359.8-35.2,550.7-110.1c129.2-50,129.2-50,51.4-207.1
			c-36.7-74.9-69.1-139.5-72-141c-1.5-1.5-52.9,16.1-113.1,41.1c-151.2,61.7-289.3,89.6-461.1,89.6c-234.9,2.9-419.9-50-612.3-173.3
			C1943.5-423.7,1793.7-620.5,1711.5-859.9z"/>
		<path class="st13" d="M4149.9-2069.7c-4.8-4.2-9.6-8.3-14.4-12.5c-0.3-0.3-0.7-0.6-1-0.9c-1.8-1.6-3.7-3.2-5.5-4.9
			c-28.2-23.5-56.3-46.5-85.1-69.1c-14.1-11-28.4-22-42.9-32.9c-23-17-47-34-71-50c0,0,0,0-1,0c-0.5-0.5-1-1-1.7-1.6
			c-0.6-0.4-1.3-0.9-2.3-1.4c-9.6-6.5-19.2-13-28.8-19.4c-19.7-13.1-39.6-25.9-59.6-38.3c-12.2-7.6-24.4-15-36.6-22.3
			c-17-10.3-34.2-20.3-51.6-30c-31.8-18-64.1-35.2-96.4-52c-7.8-4-15.7-8-23.6-11.8l-37.1,0.4c-430.3,5.9-505.2,10.3-634.4,39.7
			c-539,116-894.3,345.1-1063.2,681.3c-86.6,171.8-110.1,279-110.1,480.2c0,323.1,113,578.6,343.6,769.5
			c95.4,79.3,311.3,180.6,440.5,205.6c245.3,47,456.7,19.1,675.3-88c116-57.3,160.1-89.6,257-189.4
			c104.3-105.7,185-218.8,167.4-233.5c-2.9-3-69-38.2-146.8-80.8l-141-74.9l-36.7,54.3c-204.2,308.3-635.9,389.1-951.6,179.1
			c-267.2-179.2-353.9-549.2-202.6-863.5c42.6-88.1,196.8-246.7,295.2-306.9c336.3-202.6,751.8-270.2,1447.9-237.9
			C4004.6-2078.1,4080.6-2073.9,4149.9-2069.7z"/>
	</g>
</g>
</svg>
