<?xml version="1.0" encoding="utf-8"?>
<!-- Generator: Adobe Illustrator 24.0.1, SVG Export Plug-In . SVG Version: 6.00 Build 0)  -->
<svg version="1.1" id="Layer_1" xmlns="http://www.w3.org/2000/svg" xmlns:xlink="http://www.w3.org/1999/xlink" x="0px" y="0px"
	 viewBox="0 0 512 512" style="enable-background:new 0 0 512 512;" xml:space="preserve">
<style type="text/css">
	.st0{display:none;}
	.st1{display:inline;fill:#200A7F;stroke:#18E5EA;stroke-width:20;stroke-miterlimit:10;}
	.st2{display:inline;fill:#EF0B79;}
	.st3{display:inline;fill:#18E5EA;}
	.st4{display:inline;}
	.st5{fill:#E9F21C;}
	.st6{display:inline;fill:none;}
	.st7{display:inline;fill:#EF3A24;}
	.st8{font-family:'MyriadPro-Regular';}
	.st9{font-size:250px;}
	.st10{display:inline;fill:#FFFFFF;}
	.st11{opacity:0.48;fill:#969696;enable-background:new    ;}
	.st12{fill:url(#SVGID_1_);}
	.st13{fill:#EEFAFF;}
	.st14{fill:#DFF1F7;}
	.st15{fill:#C9EBFA;}
	.st16{fill:#A0DDF3;}
	.st17{fill:#548EB5;}
	.st18{fill:#447D99;}
	.st19{fill:#F37C7B;}
	.st20{fill:#EE6261;}
</style>
<g id="Layer_3" class="st0">
	<path class="st1" d="M401.1,212.2c5.1,15.3,7.9,31.7,7.9,48.8c0,85.3-69.2,154.5-154.5,154.5S100,346.3,100,261
		s69.2-154.5,154.5-154.5c51.2,0,96.6,24.9,124.7,63.3"/>
	<path class="st2" d="M333.4,255.2c0,4.2-3.3,7.7-7.4,7.7H174.9c-4.1,0-7.4-3.4-7.4-7.7l0,0c0-4.2,3.3-7.7,7.4-7.7H326
		C330.1,247.5,333.4,250.9,333.4,255.2L333.4,255.2z"/>
	<path class="st2" d="M333.4,284.8c0,4.2-3.3,7.6-7.4,7.6H174.9c-4.1,0-7.4-3.4-7.4-7.6l0,0c0-4.2,3.3-7.6,7.4-7.6H326
		C330.1,277.1,333.4,280.6,333.4,284.8L333.4,284.8z"/>
	<path class="st2" d="M333.4,313c0,4.2-3.3,7.7-7.4,7.7H174.9c-4.1,0-7.4-3.4-7.4-7.7l0,0c0-4.2,3.3-7.6,7.4-7.6H326
		C330.1,305.4,333.4,308.8,333.4,313L333.4,313z"/>
	<path class="st2" d="M333.4,338.4c0,4.2-3.3,7.7-7.4,7.7H174.9c-4.1,0-7.4-3.4-7.4-7.7l0,0c0-4.2,3.3-7.6,7.4-7.6H326
		C330.1,330.7,333.4,334.1,333.4,338.4L333.4,338.4z"/>
	<polygon class="st3" points="395,191.5 320.2,165.2 380.4,113.5 	"/>
	<g class="st4">
		<g>
			<g>
				<path class="st5" d="M241.5,239.2c-2.3,0-4.4-1.1-5.8-2.9l-18.8-24.8c-2.4-3.2-1.8-7.8,1.4-10.3c3.2-2.4,7.8-1.8,10.3,1.4
					l12.3,16.3l31-49.8c2.1-3.4,6.6-4.5,10.1-2.3c3.4,2.1,4.5,6.6,2.3,10.1l-36.7,58.9c-1.3,2-3.5,3.3-5.9,3.4
					C241.7,239.2,241.6,239.2,241.5,239.2z"/>
			</g>
		</g>
	</g>
</g>
<g id="Layer_2_2_" class="st0">
	<rect x="121" y="171.5" class="st6" width="298" height="251"/>
	<text transform="matrix(1 0 0 1 121 348.9979)" class="st7 st8 st9">24</text>
	<circle class="st10" cx="138.3" cy="91.8" r="17.3"/>
	<circle class="st10" cx="185.3" cy="91.8" r="17.3"/>
	<circle class="st10" cx="232.3" cy="91.8" r="17.3"/>
	<circle class="st10" cx="278.3" cy="91.8" r="17.3"/>
	<circle class="st10" cx="323.3" cy="91.8" r="17.3"/>
	<circle class="st10" cx="368.3" cy="91.8" r="17.3"/>
</g>
<circle class="st11" cx="255.6" cy="260.3" r="244.6"/>
<linearGradient id="SVGID_1_" gradientUnits="userSpaceOnUse" x1="9.9" y1="249.3" x2="499.2" y2="249.3">
	<stop  offset="5.618000e-03" style="stop-color:#D3EDF0"/>
	<stop  offset="0.4494" style="stop-color:#AEDFE6"/>
	<stop  offset="1" style="stop-color:#7CCFDA"/>
</linearGradient>
<path class="st12" d="M499.2,249.3c0,2.9,0,5.9-0.2,8.8c-0.1,3.2-0.3,6.3-0.5,9.5c-0.4,6-1.1,12-2,17.9c-0.5,3.1-1,6.3-1.6,9.4
	c-0.3,1.7-0.7,3.5-1,5.2c0,0,0,0.1,0,0.2c-0.1,0.5-0.2,0.9-0.3,1.4c-0.8,3.5-1.6,7-2.5,10.4c-0.8,3.2-1.8,6.4-2.8,9.6
	c-0.8,2.6-1.6,5.2-2.5,7.8c-0.2,0.6-0.4,1.1-0.6,1.7c-2,5.7-4.3,11.3-6.7,16.8c-0.3,0.6-0.5,1.2-0.8,1.8c0,0,0,0,0,0
	c-0.4,0.8-0.8,1.7-1.1,2.5l0,0c-0.7,1.5-1.3,2.9-2,4.4c-0.7,1.4-1.4,2.8-2.1,4.1c-0.7,1.4-1.5,2.8-2.2,4.3c-0.1,0.1-0.1,0.2-0.2,0.3
	c-0.5,0.8-0.9,1.6-1.4,2.5c-0.1,0.1-0.1,0.2-0.2,0.4c-0.9,1.7-1.9,3.3-2.8,4.9c-0.4,0.7-0.8,1.3-1.2,2c-0.1,0.3-0.3,0.5-0.4,0.7
	c0,0.1-0.1,0.2-0.1,0.2c-0.9,1.5-1.8,3-2.8,4.5c0,0,0,0,0,0c-1.7,2.7-3.5,5.4-5.4,8c-0.2,0.4-0.5,0.7-0.7,1.1l0,0.1
	c-0.3,0.4-0.5,0.7-0.8,1.1c-0.9,1.3-1.9,2.6-2.8,3.9c-0.8,1-1.5,2.1-2.3,3.1c0,0.1-0.1,0.1-0.1,0.2c-1.8,2.4-3.7,4.8-5.6,7.1
	c-3,3.6-6.1,7.2-9.4,10.7c-0.6,0.7-1.2,1.3-1.8,2c-0.9,0.9-1.8,1.8-2.7,2.8c-2.1,2.1-4.1,4.2-6.2,6.1c0,0,0,0-0.1,0.1l-0.1,0.1
	c-0.1,0.1-0.3,0.3-0.4,0.4c-0.2,0.2-0.4,0.4-0.7,0.6l-0.1,0.1c-0.1,0.1-0.2,0.2-0.3,0.3c-1.7,1.6-3.4,3.1-5.2,4.7
	c-0.4,0.4-0.8,0.7-1.2,1.1c-0.5,0.4-1,0.8-1.4,1.3c0,0-0.1,0.1-0.1,0.1c-0.2,0.2-0.4,0.3-0.5,0.5c-2.8,2.4-5.6,4.7-8.5,6.9
	c-1.4,1.1-2.8,2.2-4.3,3.3c-2.3,1.7-4.7,3.4-7.1,5c0,0,0,0-0.1,0c-0.1,0-0.1,0.1-0.2,0.2c-0.1,0-0.1,0.1-0.2,0.1
	c-1,0.7-1.9,1.3-2.9,1.9c-2,1.3-4,2.6-6,3.8c-1.2,0.8-2.4,1.5-3.7,2.2c-1.7,1-3.4,2-5.2,3c-3.2,1.8-6.4,3.5-9.6,5.2
	c-0.8,0.4-1.6,0.8-2.4,1.2c-7.9,3.9-16,7.4-24.3,10.4c-1.4,0.5-2.8,1-4.3,1.5h0c-4,1.4-8.1,2.7-12.2,3.8c-3.1,0.9-6.3,1.7-9.5,2.5
	c-18.6,4.5-38.1,6.9-58.1,6.9c-0.4,0-0.8,0-1.3,0c-7,0-13.9-0.4-20.8-1h0c-11.7-1-23.1-2.9-34.3-5.5h0c-0.5-0.1-1.1-0.3-1.6-0.4
	c-3-0.7-6-1.5-9-2.4c-7.7-2.2-15.3-4.8-22.7-7.7c-5.2-2-10.3-4.3-15.3-6.7c-0.1,0-0.2-0.1-0.3-0.1c-4.1-2-8.1-4-12-6.2
	c-2.5-1.3-4.9-2.8-7.4-4.2c-0.1,0-0.1-0.1-0.2-0.1c-1.4-0.8-2.8-1.7-4.2-2.5c-0.1,0-0.2-0.1-0.2-0.2c-0.9-0.6-1.9-1.2-2.8-1.8
	c-1.3-0.8-2.6-1.7-3.9-2.6c0,0,0,0-0.1,0c-2.5-1.7-4.9-3.4-7.3-5.1c-1.2-0.8-2.3-1.7-3.5-2.6c-2-1.5-4-3-5.9-4.6
	c-1.2-0.9-2.3-1.8-3.4-2.8c0,0,0,0,0,0c-1.1-0.9-2.2-1.9-3.3-2.8c-2.1-1.8-4.1-3.6-6.2-5.5l-0.1-0.1c0,0,0,0-0.1,0
	c-0.1-0.1-0.2-0.2-0.3-0.2l-0.2-0.2c-2.1-1.9-4.2-3.9-6.2-5.9c-4.9-4.9-9.6-9.9-14-15.2c-2.5-3-5-6-7.4-9.1l-0.6-0.7
	c-1.1-1.4-2.1-2.8-3.1-4.2c-3-4.1-5.8-8.3-8.6-12.6c-1-1.6-2-3.3-3-4.9c-0.8-1.4-1.6-2.7-2.4-4.1c-0.3-0.5-0.5-0.9-0.8-1.4
	c-0.5-0.8-0.9-1.5-1.3-2.3c0,0,0,0,0-0.1c0,0,0,0-0.1,0c-1.5-2.7-3-5.5-4.4-8.2c-4.1-8.8-8.1-17.8-11.4-27c0,0,0-0.1-0.1-0.1
	c-2.3-6.5-4.4-13-6.2-19.7c-4.8-17.7-7.6-36.1-8.3-55.1c-0.1-2.9-0.2-5.8-0.2-8.8c0-3.2,0.1-6.4,0.2-9.5c0.7-18.8,3.6-37.1,8.3-54.6
	c0.6-2.1,1.1-4.1,1.8-6.2c1.6-5.4,3.4-10.8,5.4-16c0.9-2.4,1.8-4.8,2.8-7.1l0,0c2.3-5.5,4.7-10.8,7.4-16.1c1.3-2.7,2.7-5.3,4.1-7.8
	c0.3-0.5,0.5-0.9,0.8-1.4c2.4-4.3,4.9-8.5,7.5-12.5c3.7-5.8,7.7-11.5,11.9-17c0.1-0.2,0.3-0.4,0.4-0.5c5.7-7.4,11.9-14.5,18.4-21.3
	c1.9-2,3.9-4,5.8-5.9c2.5-2.4,5-4.8,7.6-7c3.4-3,6.9-5.9,10.5-8.8c0.3-0.2,0.5-0.4,0.8-0.6c1.4-1.1,2.8-2.2,4.2-3.2
	c0.9-0.6,1.7-1.3,2.6-1.9c1.2-0.9,2.4-1.8,3.7-2.7c0.4-0.3,0.9-0.6,1.3-0.9c0.5-0.3,1-0.7,1.5-1c0.1,0,0.1-0.1,0.2-0.1
	c1.8-1.3,3.7-2.5,5.5-3.7c1.1-0.7,2.1-1.4,3.2-2c2.2-1.4,4.4-2.7,6.6-4c1.6-1,3.3-1.9,4.9-2.8c0.4-0.2,0.8-0.5,1.3-0.7
	c2-1.1,3.9-2.1,5.9-3.1c3.5-1.8,7.1-3.5,10.8-5.1c0.8-0.4,1.7-0.8,2.6-1.1c8.3-3.6,16.9-6.7,25.6-9.4c3.8-1.2,7.7-2.3,11.6-3.2
	c0.5-0.1,1-0.2,1.5-0.4c0.7-0.2,1.4-0.3,2.1-0.5c11.8-2.8,23.9-4.7,36.2-5.7c3.1-0.3,6.3-0.5,9.5-0.6c0.6,0,1.3-0.1,1.9-0.1
	c2.8-0.1,5.6-0.1,8.4-0.1h0.4c2.8,0,5.5,0,8.2,0.1c0.6,0,1.2,0,1.8,0.1c0.1,0,0.2,0,0.2,0c3.2,0.1,6.3,0.3,9.4,0.6
	c1.9,0.1,3.8,0.3,5.6,0.5c11.1,1.2,22,3.1,32.6,5.6c0.5,0.1,1.1,0.3,1.6,0.4c13.8,3.4,27.1,8.1,39.8,13.7c1.9,0.8,3.7,1.7,5.5,2.5
	c5.1,2.5,10.2,5.1,15.1,7.9c2.9,1.7,5.8,3.4,8.7,5.1c1.7,1,3.3,2.1,5,3.2c0.4,0.3,0.8,0.5,1.1,0.7c1.5,1,2.9,2,4.4,2.9
	c1.6,1.1,3.2,2.2,4.7,3.3c1.7,1.3,3.5,2.6,5.2,3.9c0.2,0.1,0.3,0.3,0.5,0.4c1.9,1.4,3.7,2.9,5.5,4.4c2.3,1.9,4.7,3.9,6.9,5.9
	c4,3.5,7.9,7.2,11.6,11c1.6,1.6,3.2,3.3,4.8,5c1.3,1.4,2.7,2.9,3.9,4.3c1.4,1.6,2.8,3.2,4.2,4.8c1.3,1.6,2.6,3.1,3.9,4.7
	c1.3,1.7,2.7,3.4,4,5.1c0.8,1,1.5,2,2.3,3c4.4,6,8.5,12.2,12.4,18.6c0.6,1,1.2,1.9,1.7,2.9c1,1.7,2,3.4,2.9,5.1
	c0.1,0.1,0.1,0.2,0.2,0.3l0,0c0,0,0,0.1,0.1,0.1c1.9,3.4,3.7,6.8,5.4,10.3l0,0c2.3,4.7,4.4,9.4,6.4,14.3c0.4,1,0.8,2,1.2,3
	c0.6,1.5,1.2,3,1.8,4.6c0.2,0.5,0.4,1,0.5,1.5c2,5.3,3.7,10.6,5.3,16.1c1,3.3,1.8,6.5,2.6,9.9c0,0,0,0.1,0,0.1
	c0.6,2.2,1.1,4.5,1.6,6.7c0.2,1.1,0.5,2.2,0.7,3.3c1,4.8,1.8,9.7,2.5,14.6c0.1,0.9,0.3,1.9,0.4,2.8c0.4,3.5,0.8,6.9,1.1,10.4
	c0,0.1,0,0.1,0,0.2c0.3,3.6,0.5,7.2,0.7,10.8c0,0,0,0.1,0,0.1C499.1,242.9,499.2,246.1,499.2,249.3z"/>
<g>
	<g>
		<path class="st13" d="M337,269.3h-37.4v-27.8H337c15.4,0,27.8-12.5,27.8-27.8v-40.1c0-3.8-3.1-7-7-7h-51.6v-27.8h51.7
			c19.2,0,34.8,15.6,34.8,34.8v40.1C392.7,244.3,367.7,269.3,337,269.3L337,269.3z"/>
	</g>
	<path class="st13" d="M303.7,303.9H201.9c-10.6,0-19.6,8-20.8,18.6l-11.8,106.7h167.1l-11.9-106.7
		C323.3,311.9,314.4,303.9,303.7,303.9z"/>
	<path class="st14" d="M323.4,317.8h-86.7c-10.6,0-19.6,8-20.8,18.6l-10.3,92.8h-36.3l11.9-106.7c1.2-10.6,10.1-18.6,20.8-18.6
		h101.8C312.7,303.9,320.5,309.5,323.4,317.8L323.4,317.8z"/>
	<path class="st13" d="M284.1,110.6h-62.6V96.6c0-7.7,6.2-13.9,13.9-13.9h34.8c7.7,0,13.9,6.2,13.9,13.9L284.1,110.6L284.1,110.6z"
		/>
	<path class="st15" d="M334.7,133.3l-4.9,68.3l-6,82.8c-0.8,10.9-9.9,19.4-20.8,19.4H202.6c-10.9,0-20-8.5-20.8-19.4l-6-82.8
		l-4.9-68.3c-0.9-12.1,8.7-22.4,20.8-22.4h122.2C326,110.8,335.6,121.1,334.7,133.3L334.7,133.3z"/>
	<path class="st16" d="M237.4,303.9h-34.8c-10.9,0-20-8.5-20.8-19.4l-6-82.8l-4.5-62.9l-0.4-5.5c-0.9-12.1,8.7-22.4,20.8-22.4h34.8
		c-12.1,0-21.7,10.3-20.8,22.4l0.4,5.5l4.5,62.9l0.6,8.9l5.3,73.9C217.4,295.4,226.5,303.9,237.4,303.9z"/>
	<path class="st17" d="M334.7,133.3l-0.4,5.2l-0.3,0.3H171.3l-0.4-5.5c-0.9-12.1,8.7-22.4,20.8-22.4h122.2
		C326,110.8,335.6,121.1,334.7,133.3z"/>
	<path class="st18" d="M205.7,133.3l0.4,5.5h-34.8l-0.4-5.5c-0.9-12.1,8.7-22.4,20.8-22.4h34.8C214.4,110.8,204.8,121.1,205.7,133.3
		z"/>
	<path class="st19" d="M329.8,201.6l-6,82.8c-0.8,10.9-9.9,19.4-20.8,19.4H202.6c-10.9,0-20-8.5-20.8-19.4l-6-82.8
		C226.7,229.4,252.8,181.6,329.8,201.6z"/>
	<path class="st20" d="M237.4,303.9h-34.8c-10.9,0-20-8.5-20.8-19.4l-6-82.8c13,7.1,24.4,9.3,35.4,8.9l5.3,73.9
		C217.4,295.4,226.5,303.9,237.4,303.9z"/>
	<ellipse class="st19" cx="252.9" cy="380.4" rx="20.9" ry="20.9"/>
	<g>
		<path d="M252.8,348.8c2.9,0,5.2-2.3,5.2-5.2v-10.4c0-2.9-2.3-5.2-5.2-5.2c-2.9,0-5.2,2.3-5.2,5.2v10.4
			C247.6,346.4,249.9,348.8,252.8,348.8z"/>
		<path d="M230.4,358c2-2,2-5.4,0-7.4l-7.4-7.4c-2-2-5.4-2-7.4,0s-2,5.4,0,7.4l7.4,7.4C225.5,360,227.9,360,230.4,358z"/>
		<path d="M215.9,375.1h-10.4c-2.9,0-5.2,2.3-5.2,5.2c0,2.9,2.3,5.2,5.2,5.2h10.4c2.9,0,5.2-2.3,5.2-5.2
			C221.1,377.5,218.8,375.1,215.9,375.1z"/>
		<path d="M300.1,375.1h-10.4c-2.9,0-5.2,2.3-5.2,5.2c0,2.9,2.3,5.2,5.2,5.2h10.4c2.9,0,5.2-2.3,5.2-5.2
			C305.4,377.5,303,375.1,300.1,375.1z"/>
		<path d="M290,343.3c-2-2-5.4-2-7.4,0l-7.4,7.4c-2,2-2,5.4,0,7.4c2.5,2,4.9,2,7.4,0l7.4-7.4C292,348.5,292,345.3,290,343.3z"/>
		<path d="M252.8,354.3c-14.4,0-26.1,11.7-26.1,26.1s11.7,26.1,26.1,26.1c14.4,0,26.1-11.7,26.1-26.1
			C278.9,366,267.2,354.3,252.8,354.3L252.8,354.3z M252.8,396c-8.6,0-15.7-7-15.7-15.7c0-6.8,4.4-12.6,10.4-14.8v4.3
			c0,2.9,2.3,5.2,5.2,5.2s5.2-2.3,5.2-5.2v-4.3c6.1,2.2,10.4,8,10.4,14.8C268.4,389,261.4,396,252.8,396L252.8,396z"/>
	</g>
	<path class="st13" d="M174.6,184.3l-43.1-45.6h39.9L174.6,184.3z"/>
	<path d="M392.7,186.3c2.9,0,5.2-2.3,5.2-5.2v-7.6c0-22.1-18-40-40-40h-18c1-14.9-11.1-27.8-26-27.8h-24.5v-9
		c0-10.6-8.6-19.1-19.1-19.1h-34.8c-10.6,0-19.1,8.6-19.1,19.1v9h-24.5c-14.9,0-27,13-26,27.8h-34.2c-6.1,0-7.2,4.5-3.8,8.8
		l41.8,44.2l7.1,98.3c0.5,7.6,4.4,14.3,10,18.7c-5.8,4.2-9.8,10.7-10.7,18.3l-11.9,106.7c0,3.5,1.7,5.4,5.2,5.8h167.1
		c3.5-0.4,5.2-2.3,5.2-5.8l-11.9-106.7c-0.8-7.6-4.9-14.1-10.7-18.3c8.5-6.6,11.5-18.7,10.8-29c35.5,1.8,68.1-23.7,68.1-60.9v-9.8
		c0-2.9-2.3-5.2-5.2-5.2s-5.2,2.3-5.2,5.2v9.8c0,30.9-27.5,52-56.9,50.5l1.3-17.4c19.5,1.9,38.3-12.6,38.3-33.1v-40.1
		c0-6.7-5.5-12.2-12.2-12.2h-20.2l1.3-17.4h18.7c16.3,0,29.6,13.3,29.6,29.6v7.6C387.4,183.9,389.8,186.3,392.7,186.3L392.7,186.3z
		 M226.7,96.6c0-4.8,3.9-8.7,8.7-8.7h34.8c4.8,0,8.7,3.9,8.7,8.7v8.7h-52.2V96.6L226.7,96.6z M191.7,116.1h122.2
		c10.1,0,15,8.9,15.6,17.4h-96.6c-2.9,0-5.2,2.3-5.2,5.2s2.3,5.2,5.2,5.2h95.9l-3.7,51.1c-36.2-8.1-61-1.5-82.9,4.3
		c-21.6,5.7-38.7,10.3-61.3-1.1l-3.9-54.4h33.2c2.9,0,5.2-2.3,5.2-5.2s-2.3-5.2-5.2-5.2h-34C175,124.8,181.8,116.1,191.7,116.1z
		 M168,169.8l-24.4-25.8h22.9v0.3L168,169.8z M303.7,309c8,0,14.7,6,15.6,13.9l11.2,100.9H175.1l11.2-100.9
		c0.9-7.9,7.6-13.9,15.6-13.9h39.5c2.9,0,5.2-2.3,5.2-5.2s-2.3-5.2-5.2-5.2h-38.8c-8.2,0-15-6.4-15.6-14.5l-5.3-73.9
		c21,8.8,41.8,5,63.1-0.7c21.1-5.6,44.9-11.9,79.5-3.9l-5.7,78.4c-0.6,8.1-7.4,14.5-15.6,14.5h-38.8c-2.9,0-5.2,2.3-5.2,5.2
		s2.3,5.2,5.2,5.2L303.7,309L303.7,309z M357.9,171.8c1,0,1.7,0.8,1.7,1.7v40.1c0,14.6-13.7,23.4-27.1,22.6l4.6-64.4L357.9,171.8z"
		/>
</g>
</svg>
