<?xml version="1.0" encoding="utf-8"?>
<!-- Generator: Adobe Illustrator 24.0.1, SVG Export Plug-In . SVG Version: 6.00 Build 0)  -->
<svg version="1.1" id="Layer_1" xmlns="http://www.w3.org/2000/svg" xmlns:xlink="http://www.w3.org/1999/xlink" x="0px" y="0px"
	 viewBox="0 0 512 512" style="enable-background:new 0 0 512 512;" xml:space="preserve">
<style type="text/css">
	.st0{display:none;}
	.st1{display:inline;fill:#200A7F;stroke:#18E5EA;stroke-width:20;stroke-miterlimit:10;}
	.st2{display:inline;fill:#EF0B79;}
	.st3{display:inline;fill:#18E5EA;}
	.st4{display:inline;}
	.st5{fill:#E9F21C;}
	.st6{display:inline;fill:none;}
	.st7{display:inline;fill:#EF3A24;}
	.st8{font-family:'MyriadPro-Regular';}
	.st9{font-size:250px;}
	.st10{display:inline;fill:#FFFFFF;}
	.st11{opacity:0.48;fill:#969696;enable-background:new    ;}
	.st12{fill:url(#SVGID_1_);}
	.st13{fill:#004ED6;}
	.st14{fill:#0026B6;}
	.st15{fill:#99CEFA;}
	.st16{fill:#C9E5FC;}
	.st17{fill:#64AEF7;}
	.st18{fill:#0A86E3;}
	.st19{fill:#001386;}
	.st20{fill:#46A4F2;}
	.st21{fill:#006CE2;}
	.st22{fill:#E1EBFC;}
</style>
<g id="Layer_3" class="st0">
	<path class="st1" d="M401.1,212.2c5.1,15.3,7.9,31.7,7.9,48.8c0,85.3-69.2,154.5-154.5,154.5S100,346.3,100,261
		s69.2-154.5,154.5-154.5c51.2,0,96.6,24.9,124.7,63.3"/>
	<path class="st2" d="M333.4,255.2c0,4.2-3.3,7.7-7.4,7.7H174.9c-4.1,0-7.4-3.4-7.4-7.7l0,0c0-4.2,3.3-7.7,7.4-7.7H326
		C330.1,247.5,333.4,250.9,333.4,255.2L333.4,255.2z"/>
	<path class="st2" d="M333.4,284.8c0,4.2-3.3,7.6-7.4,7.6H174.9c-4.1,0-7.4-3.4-7.4-7.6l0,0c0-4.2,3.3-7.6,7.4-7.6H326
		C330.1,277.1,333.4,280.6,333.4,284.8L333.4,284.8z"/>
	<path class="st2" d="M333.4,313c0,4.2-3.3,7.7-7.4,7.7H174.9c-4.1,0-7.4-3.4-7.4-7.7l0,0c0-4.2,3.3-7.6,7.4-7.6H326
		C330.1,305.4,333.4,308.8,333.4,313L333.4,313z"/>
	<path class="st2" d="M333.4,338.4c0,4.2-3.3,7.7-7.4,7.7H174.9c-4.1,0-7.4-3.4-7.4-7.7l0,0c0-4.2,3.3-7.6,7.4-7.6H326
		C330.1,330.7,333.4,334.1,333.4,338.4L333.4,338.4z"/>
	<polygon class="st3" points="395,191.5 320.2,165.2 380.4,113.5 	"/>
	<g class="st4">
		<g>
			<g>
				<path class="st5" d="M241.5,239.2c-2.3,0-4.4-1.1-5.8-2.9l-18.8-24.8c-2.4-3.2-1.8-7.8,1.4-10.3c3.2-2.4,7.8-1.8,10.3,1.4
					l12.3,16.3l31-49.8c2.1-3.4,6.6-4.5,10.1-2.3c3.4,2.1,4.5,6.6,2.3,10.1l-36.7,58.9c-1.3,2-3.5,3.3-5.9,3.4
					C241.7,239.2,241.6,239.2,241.5,239.2z"/>
			</g>
		</g>
	</g>
</g>
<g id="Layer_2_2_" class="st0">
	<rect x="121" y="171.5" class="st6" width="298" height="251"/>
	<text transform="matrix(1 0 0 1 121 348.9979)" class="st7 st8 st9">24</text>
	<circle class="st10" cx="138.3" cy="91.8" r="17.3"/>
	<circle class="st10" cx="185.3" cy="91.8" r="17.3"/>
	<circle class="st10" cx="232.3" cy="91.8" r="17.3"/>
	<circle class="st10" cx="278.3" cy="91.8" r="17.3"/>
	<circle class="st10" cx="323.3" cy="91.8" r="17.3"/>
	<circle class="st10" cx="368.3" cy="91.8" r="17.3"/>
</g>
<circle class="st11" cx="255.6" cy="260.3" r="244.6"/>
<linearGradient id="SVGID_1_" gradientUnits="userSpaceOnUse" x1="9.9" y1="1017.3" x2="499.2" y2="1017.3" gradientTransform="matrix(1 0 0 1 0 -768)">
	<stop  offset="5.618000e-03" style="stop-color:#D7F0FC"/>
	<stop  offset="0.4494" style="stop-color:#ABE1FA"/>
	<stop  offset="1" style="stop-color:#96CFF1"/>
</linearGradient>
<path class="st12" d="M499.2,249.3c0,2.9,0,5.9-0.2,8.8c-0.5,14.3-2.3,28.3-5.1,41.9c0,0,0,0.1,0,0.2c-2.1,10-4.8,19.8-8.1,29.3l0,0
	c-2.2,6.3-4.6,12.4-7.3,18.5c-1.3,2.9-2.6,5.8-4,8.7c-1.4,2.8-2.8,5.6-4.3,8.4l0,0c-0.1,0.1-0.1,0.2-0.2,0.3
	c-1.4,2.6-2.9,5.2-4.4,7.7c-0.5,0.9-1.1,1.8-1.6,2.7c-2.6,4.4-5.4,8.6-8.3,12.8c-0.5,0.8-1,1.5-1.6,2.2c-0.9,1.3-1.9,2.6-2.8,3.9
	c-2.6,3.5-5.3,7-8.1,10.4c-4.4,5.3-9,10.5-13.9,15.4c-2.1,2.1-4.2,4.2-6.3,6.2l-0.1,0.1c-0.1,0.1-0.3,0.3-0.4,0.4
	c-0.2,0.2-0.4,0.4-0.7,0.6l-0.1,0.1c-0.1,0.1-0.2,0.2-0.3,0.3c-1.7,1.6-3.4,3.1-5.2,4.7c-1.1,1-2.2,1.9-3.3,2.9
	c-4.2,3.5-8.4,6.9-12.8,10.2c-2.3,1.7-4.7,3.4-7.1,5c0,0,0,0-0.1,0c-0.1,0.1-0.2,0.2-0.4,0.3c-4.1,2.8-8.3,5.5-12.5,8
	c-4.8,2.9-9.8,5.6-14.8,8.2c-8.6,4.4-17.5,8.3-26.7,11.6c-26.2,9.6-54.5,14.8-84,14.8c-31.7,0-61.9-6-89.7-17
	c-5.2-2-10.3-4.3-15.3-6.7c-0.1,0-0.2-0.1-0.3-0.1c-6.6-3.2-13.1-6.6-19.4-10.4c-0.1,0-0.1-0.1-0.2-0.1l0,0c-3.8-2.2-7.5-4.6-11.1-7
	c0,0,0,0-0.1,0c-2.5-1.7-4.9-3.4-7.3-5.1c-3.2-2.3-6.3-4.7-9.4-7.2c-2.3-1.8-4.6-3.7-6.8-5.6c-2.1-1.8-4.1-3.6-6.2-5.5l-0.1-0.1
	c0,0,0,0-0.1,0c-0.1-0.1-0.2-0.2-0.3-0.2l-0.1-0.1l-0.1-0.1c-2.1-1.9-4.2-3.9-6.2-5.9c-4.9-4.9-9.6-9.9-14-15.2c-2.5-3-5-6-7.4-9.1
	c-1.3-1.6-2.5-3.3-3.7-4.9c-4.1-5.6-8-11.5-11.6-17.5c-0.8-1.4-1.6-2.7-2.4-4.1c-0.3-0.5-0.5-0.9-0.8-1.4c-0.5-0.8-0.9-1.5-1.3-2.3
	l0,0c0,0,0-0.1-0.1-0.1l0,0c-1.5-2.7-3-5.5-4.4-8.2c-4.1-8.8-8.1-17.8-11.4-27c0,0,0-0.1-0.1-0.1c-8.5-23.5-13.5-48.6-14.5-74.8
	c-0.1-2.9-0.2-5.8-0.2-8.8c0-3.2,0.1-6.4,0.2-9.5c1.5-39,12.1-75.7,29.8-107.9c10.6-19.3,23.7-37,38.9-52.7l0,0
	c4.3-4.5,8.8-8.8,13.4-12.9c5.8-5.1,11.8-10,18-14.5c1.2-0.9,2.4-1.8,3.7-2.7c9.6-6.8,19.8-12.9,30.4-18.3
	c30.8-15.5,65.3-24.8,101.8-26c2.8-0.1,5.6-0.1,8.4-0.1h0.4c2.8,0,5.5,0,8.2,0.1c34.5,1.2,67.1,9.5,96.6,23.5
	c10,4.8,19.6,10.2,28.8,16.2c3.5,2.3,6.9,4.6,10.2,7c3.8,2.8,7.6,5.7,11.2,8.7c2.3,1.9,4.7,3.9,6.9,5.9
	c20.8,18.4,38.4,40.4,51.9,64.9c17.9,32.4,28.7,69.3,30.2,108.6C499.1,242.9,499.2,246.1,499.2,249.3z"/>
<g>
	<path class="st13" d="M348,54.4c0,0,34-17,67.9-17c50.9,0,84.9,34,84.9,84.9c0,34-34,67.9-34,67.9L348,54.4z"/>
	<g>
		<path class="st14" d="M378.4,57.8l17-17c4.7-4.7,12.3-4.7,17,0s4.7,12.3,0,17l-17,17c-4.7,4.7-12.3,4.7-17,0
			C373.7,70.2,373.7,62.5,378.4,57.8z"/>
		<path class="st14" d="M412.3,74.9l17-17c4.7-4.7,12.3-4.7,17,0s4.7,12.3,0,17l-17,17c-4.7,4.7-12.3,4.7-17,0
			C407.6,87,407.6,79.5,412.3,74.9z"/>
		<path class="st14" d="M436.4,101.8l26.9-26.9c4.7-4.7,12.3-4.7,17,0s4.7,12.3,0,17l-27.1,26.8c-4.7,4.7-12.3,4.7-17,0
			C431.7,114,431.7,106.5,436.4,101.8z"/>
		<path class="st14" d="M453.3,135.7l26.9-26.9c4.7-4.7,12.3-4.7,17,0s4.7,12.3,0,17l-26.9,26.9c-4.7,4.7-12.3,4.7-17,0
			S448.6,140.3,453.3,135.7z"/>
	</g>
	<path class="st15" d="M132.8,55.2c6.4-13,18.5-22.4,32.7-25.3c22.8-5,29.6-9.4,97.5-9.4c84.9,0,220.7,67.9,220.7,169.8
		S364.9,343,297,343c-50.9,0-84.9-17-84.9-17s-11.8,37-33.4,58.8c-9.1,9.2-23.3,11.7-35,5.9c-11.1-5.5-17.7-17.4-16.5-29.9
		c1.7-16.1,24-42.1,33.8-51.8c0,0-30-16.7-33.8-50.9c-1.5-12.5,5-24.5,16.2-30.3c10.6-5.4,23.4-3.8,32.4,3.9c15,12.9,36,39,36,60.3
		c0,0,152.8,0,152.8-67.9c0,0-34-34-84.9-34c-32.1,0-126.7-1.6-151.1-102.3C126.5,76.7,127.8,65.2,132.8,55.2z"/>
	<path class="st16" d="M304.5,84.8c-4.7,0-8.4,3.8-8.4,8.4c0,0.5,0,0.9,0.1,1.5c0.5,3.5,0.9,7,0.9,10.4c0,9.1-3.1,16.9-9.6,23.7
		c-0.1,0.1-0.1,0.1-0.3,0.3c-0.1,0.1-0.1,0.1-0.3,0.3c-2.9,2.9-6.3,5.6-10,7.8c-4,2.4-5.4,7.6-2.9,11.7c2.4,4,7.6,5.4,11.7,2.9
		c0.3-0.1,0.7-0.4,0.9-0.5l0,0l0,0l0,0l0,0l0,0l0,0l0,0l0,0l0,0l0,0l0,0l0,0l0,0l0,0l0,0l0,0l0,0l0,0l0,0l0,0l0,0l0,0l0,0l0,0l0,0
		c3.2-2,6.2-4.3,9-6.7c0,0,0.1,0,0.1-0.1l0,0l0,0c0,0,0.1,0,0.1-0.1l0,0l0,0l0,0l0,0l0,0l0,0l0,0l0,0l0,0l0,0l0,0l0,0l0,0l0,0l0,0
		l0,0l0,0l0,0l0,0l0,0l0,0l0,0l0,0l0,0c0.7-0.7,1.3-1.2,2-1.9c0.1-0.1,0.3-0.3,0.3-0.3c0.1-0.1,0.3-0.3,0.3-0.3
		c5.1-5.2,9-11.4,11.4-18.2l0,0c0-0.1,0.1-0.3,0.1-0.4s0-0.1,0.1-0.3l0,0l0.1-0.3l0,0c0-0.1,0-0.1,0.1-0.3l0,0c0-0.1,0-0.1,0.1-0.3
		l0,0V122v-0.1l0,0c0-0.1,0-0.1,0.1-0.3l0,0c0-0.1,0-0.1,0.1-0.3l0,0c0,0,0,0,0-0.1v-0.1l0,0c0,0,0,0,0-0.1l0,0v-0.1l0,0
		c0,0,0,0,0-0.1l0,0v-0.1v-0.1l0,0v-0.1v-0.1c0,0,0,0,0-0.1l0,0c0,0,0,0,0-0.1l0,0v-0.1l0,0V120l0,0v-0.1l0,0v-0.1l0,0v-0.1l0,0
		c0,0,0,0,0-0.1l0,0c0,0,0,0,0-0.1l0,0v-0.1l0,0v-0.1l0,0c0,0,0,0,0-0.1l0,0v-0.1l0,0V119l0,0c0,0,0,0,0-0.1V118l0,0c0,0,0,0,0-0.1
		c0,0,0,0,0-0.1l0,0c0,0,0,0,0-0.1l0,0c0,0,0,0,0-0.1l0,0c0,0,0,0,0-0.1l0,0c0,0,0,0,0-0.1V117l0,0v-0.1l0,0v-0.1c0,0,0,0,0-0.1l0,0
		c0,0,0,0,0-0.1l0,0v-0.1l0,0c0,0,0,0,0-0.1l0,0l0,0l0,0v-0.1l0,0c0,0,0,0,0-0.1l0,0c0,0,0,0,0-0.1l0,0V116l0,0v-0.1l0,0v-0.1l0,0
		v-0.1l0,0v-0.1l0,0l0,0l0,0c0,0,0,0,0-0.1l0,0c0,0,0,0,0-0.1l0,0l0,0l0,0l0,0l0,0v-0.1l0,0l0,0l0,0v-0.1l0,0c0,0,0,0,0-0.1l0,0l0,0
		l0,0c0,0,0,0,0-0.1v-0.1l0,0l0,0l0,0v-0.1V114l0,0v-0.1l0,0c0,0,0,0,0-0.1l0,0v-0.1l0,0l0,0l0,0c0,0,0,0,0-0.1l0,0c0,0,0,0,0-0.1
		l0,0l0,0v-0.1c0,0,0,0,0-0.1l0,0v-0.1l0,0v-0.1l0,0c0,0,0,0,0-0.1l0,0l0,0l0,0c0,0,0,0,0-0.1l0,0c0,0,0,0,0-0.1l0,0l0,0l0,0
		c0,0,0,0,0-0.1l0,0c0,0,0,0,0-0.1l0,0l0,0l0,0c0,0,0,0,0-0.1l0,0v-0.1l0,0l0,0l0,0v-0.1l0,0v-0.1l0,0l0,0l0,0v-0.1l0,0V112l0,0
		v-0.1l0,0V111l0,0c0,0,0,0,0-0.1l0,0v-0.1l0,0c0,0,0,0,0-0.1l0,0v-0.1l0,0l0,0l0,0v-0.1l0,0c0,0,0,0,0-0.1l0,0v-0.1l0,0v-0.1l0,0
		v-0.1l0,0V110l0,0v-0.1l0,0v-0.1l0,0c0,0,0,0,0-0.1l0,0c0,0,0,0,0-0.1l0,0c0,0,0,0,0-0.1l0,0v-0.1l0,0c0,0,0,0,0-0.1l0,0v-0.1l0,0
		c0,0,0,0,0-0.1l0,0c0,0,0,0,0-0.1l0,0c0,0,0,0,0-0.1l0,0v-0.1l0,0v-0.1l0,0v-0.1l0,0c0,0,0,0,0-0.1l0,0c0,0,0,0,0-0.1l0,0
		c0,0,0,0,0-0.1l0,0v-0.1l0,0c0,0,0,0,0-0.1l0,0c0,0,0,0,0-0.1l0,0c0,0,0,0,0-0.1l0,0c0,0,0,0,0-0.1l0,0v-0.1l0,0c0,0,0,0,0-0.1l0,0
		c0,0,0,0,0-0.1l0,0v-0.1l0,0l0,0l0,0c0,0,0,0,0-0.1l0,0v-0.1l0,0c0,0,0,0,0-0.1l0,0c0,0,0,0,0-0.1l0,0v-0.1l0,0c0,0,0,0,0-0.1l0,0
		c0,0,0,0,0-0.1l0,0c0,0,0,0,0-0.1l0,0c0,0,0,0,0-0.1l0,0c0,0,0,0,0-0.1l0,0c0,0,0,0,0-0.1c0,0,0,0,0-0.1l0,0v-0.1l0,0V106l0,0v-0.1
		l0,0v-0.1l0,0c0,0,0,0,0-0.1l0,0c0,0,0,0,0-0.1l0,0c0,0,0,0,0-0.1l0,0v-0.1l0,0c0,0,0,0,0-0.1l0,0v-0.1l0,0c0,0,0,0,0-0.1l0,0
		c0,0,0,0,0-0.1l0,0v-0.1l0,0c0,0,0,0,0-0.1l0,0v-0.1l0,0v-0.1l0,0v-0.1l0,0c0,0,0,0,0-0.1l0,0c0,0,0,0,0-0.1l0,0c0,0,0,0,0-0.1l0,0
		c0,0,0,0,0-0.1l0,0c0,0,0,0,0-0.1v-0.1l0,0v-0.1l0,0v-0.1v-0.1V101l0,0c0,0,0,0,0-0.1l0,0c0,0,0,0,0-0.1c0,0,0,0,0-0.1l0,0
		c0,0,0,0,0-0.1v-0.1c0,0,0,0,0-0.1l0,0V100l0,0c0,0,0,0,0-0.1v-0.5c0,0,0,0,0-0.1l0,0l0,0l0,0l0,0l0,0v-0.1V99v-0.1v5.2l0,0V104
		l0,0l0,0l0,0v-0.1l0,0v-0.1l0,0v-0.1v-0.1l0,0c0-0.1,0-0.1,0-0.3V103c0-0.1,0-0.1,0-0.3l0,0c-0.1-3.8-0.5-7.4-1.1-11.1
		C312.1,87.7,308.6,84.8,304.5,84.8L304.5,84.8z"/>
	<path class="st16" d="M271.5,343c-4.7,0-8.4-3.8-8.4-8.4c0-4.7,3.8-8.4,8.4-8.4c0.5,0,49.2-0.5,97.2-32.5
		c46.6-31.1,47.1-77.4,47.1-77.8c0-4.7,3.8-8.4,8.4-8.4c4.7,0,8.4,3.8,8.4,8.4c0,2.3-0.7,55.9-54.8,92
		C325.7,342.6,273.8,343,271.5,343z"/>
	<path class="st17" d="M285.2,156.3c-9.4,0-17,7.6-16.9,17c0,9.1,7.2,16.5,16.3,16.9l0,0c0,0,0,0,0.1,0l0,0c0,0,0,0,0.1,0l0,0h0.1
		l0,0c0,0,0,0,0.1,0s0.3,0,0.5,0c0.1,0,0.3,0,0.4,0s0.3,0,0.5,0c33.1,1.9,58.3,17.5,70.5,26.9c7.5,5.6,18.1,4.3,23.8-3.2
		c5.6-7.5,4.3-18.1-3.2-23.7c-15.1-11.7-46.9-31.5-89.1-33.8c-0.1,0-0.4,0-0.5,0c-0.3,0-0.4,0-0.7,0H286
		C285.7,156.3,285.5,156.3,285.2,156.3z"/>
	<path class="st18" d="M483.8,190.2c0-102-135.8-169.9-220.7-169.9c-67.9,0-74.7,4.6-97.5,9.4c-6.2,1.3-11.9,4-17.1,7.6
		C171.3,38,290.2,44,382,105.1c101.8,67.9,101.8,205.2-85,237.8C364.9,343,483.8,292,483.8,190.2z"/>
	<path class="st14" d="M402.5,46.7c-4.7,0-8.4,3.8-8.4,8.4c0,2.9,1.5,5.6,4,7.2c11,6.8,21.6,14.5,31.3,23l0.1,0.1l0,0l0.1,0.1l0,0
		l0.1,0.1l0,0c0.1,0.1,0.3,0.3,0.4,0.3l0,0l0.1,0.1l0,0c0,0,0.1,0,0.1,0.1l0,0c0,0,0.1,0,0.1,0.1l0,0l0.1,0.1l0,0l0.1,0.1l0,0
		l0.1,0.1l0,0l0.1,0.1l0,0c0,0,0,0,0.1,0.1l0,0c0,0,0.1,0,0.1,0.1l0,0l0.1,0.1l0,0l0.1,0.1l0,0c0,0,0.1,0,0.1,0.1l0,0
		c0,0,0,0,0.1,0.1l0,0c0,0,0.1,0,0.1,0.1l0,0c0,0,0.1,0,0.1,0.1l0,0c0,0,0,0,0.1,0.1l0,0c0,0,0.1,0,0.1,0.1l0,0l0.1,0.1l0,0
		c0,0,0,0,0.1,0.1l0,0l0.1,0.1l0,0l0.1,0.1l0,0l0.1,0.1l0,0l0.1,0.1l0,0c0,0,0,0,0.1,0.1l0,0c0,0,0,0,0.1,0.1l0,0l0.1,0.1l0,0
		c0,0,0,0,0.1,0.1l0,0c0,0,0,0,0.1,0.1l0,0c0,0,0,0,0.1,0.1l0,0c0,0,0,0,0.1,0.1l0,0c0,0,0,0,0.1,0.1l0,0c0,0,0,0,0.1,0.1l0,0
		c0,0,0,0,0.1,0.1l0,0c0,0,0,0,0.1,0.1l0,0c0,0,0,0,0.1,0.1l0,0c0,0,0,0,0.1,0.1l0,0l0.1,0.1l0,0c0,0,0,0,0.1,0.1l0,0l0.1,0.1l0,0
		l0.1,0.1l0,0c0,0,0,0,0.1,0.1l0,0c0,0,0,0,0.1,0.1l0,0l0.1,0.1l0,0c0,0,0,0,0.1,0.1l0,0c0,0,0,0,0.1,0.1l0,0c0,0,0,0,0.1,0.1l0,0
		c0,0,0,0,0.1,0.1l0,0c0,0,0,0,0.1,0.1l0,0c0,0,0,0,0.1,0.1l0,0l0.1,0.1l0,0c0,0,0,0,0.1,0.1l0,0l0,0l0,0l0,0l0,0c0,0,0,0,0.1,0.1
		l0,0l0.1,0.1l0,0h0.1l0,0l0,0l0,0l0,0l0,0l0,0l0,0h0.1l0.1,0.1l0,0l0.1,0.1l0,0l0,0l0,0l0,0l0,0l0,0l0,0c0,0,0,0,0.1,0.1l0,0l0,0
		l0,0l0,0l0.1,0.1l0.1,0.1l0,0c0,0,0,0,0.1,0.1l0,0l0.1,0.1l0,0l0.1,0.1l0,0l0,0l0,0c0,0,0,0,0.1,0.1l0,0c0,0,0,0,0.1,0.1l0,0
		c0,0,0,0,0.1,0.1l0,0c0,0,0,0,0.1,0.1l0.1,0.1l0,0l0.1,0.1l0,0c0,0,0,0,0.1,0.1l0,0c0,0,0,0,0.1,0.1l0,0c0,0,0,0,0.1,0.1l0,0
		c0,0,0,0,0.1,0.1l0,0l0.1,0.1l0,0c0,0,0,0,0.1,0.1l0,0c0,0,0,0,0.1,0.1l0,0c0,0,0,0,0.1,0.1l0,0c0,0,0,0,0.1,0.1l0,0
		c0,0,0,0,0.1,0.1l0,0c0.1,0.1,0.1,0.1,0.3,0.3l0,0c0,0,0,0,0.1,0.1l0,0c0,0,0,0,0.1,0.1l0,0l0.1,0.1l0.1,0.1l0.1,0.1l0,0
		c0,0,0,0,0.1,0.1l0,0c0,0,0,0,0.1,0.1l0,0c0,0,0,0,0.1,0.1l0,0l0.1,0.1l0,0c0.1,0.1,0.1,0.1,0.3,0.3l0,0c0,0,0,0,0.1,0.1l0,0
		l0.1,0.1l0,0l0.1,0.1l0,0c0,0,0,0,0.1,0.1l0,0c0.1,0.1,0.1,0.1,0.3,0.3l0,0c0,0,0,0,0.1,0.1l0,0c0,0,0,0,0.1,0.1l0,0l0.1,0.1l0,0
		c0,0,0,0,0.1,0.1l0,0c0.1,0.1,0.3,0.3,0.4,0.5l0,0c0,0,0,0.1,0.1,0.1l0,0c0.1,0.1,0.3,0.3,0.4,0.4l0,0c0.1,0.1,0.1,0.1,0.3,0.3l0,0
		l0.1,0.1l0.1,0.1l0,0c0.4,0.4,0.8,0.8,1.1,1.2l0,0c0,0,0,0.1,0.1,0.1l0,0c0.1,0.1,0.3,0.3,0.4,0.4s0.1,0.1,0.3,0.3l0.1,0.1l0,0
		c0.1,0.3,0.4,0.4,0.5,0.7l0,0c0.3,0.3,0.5,0.5,0.8,0.8l0,0c0.1,0.1,0.3,0.3,0.4,0.5l0,0l0.1,0.1l0,0c0,0,0,0.1,0.1,0.1l0,0
		c0.1,0.3,0.4,0.4,0.5,0.7l0,0l0.1,0.1l0,0c0.1,0.1,0.1,0.1,0.3,0.3c0,0,0,0,0.1,0.1l0,0c0,0,0,0,0.1,0.1l0,0l0.1,0.1l0,0
		c0,0,0,0,0.1,0.1l0,0c0.1,0.1,0.3,0.3,0.3,0.4l0,0l0.1,0.1l0,0l0.1,0.1l0,0c0,0,0,0,0.1,0.1l0,0l0.3,0.3l0,0c0,0,0,0.1,0.1,0.1l0,0
		c0,0,0,0,0.1,0.1l0,0c0,0,0,0,0.1,0.1l0,0l0.1,0.1l0,0c0,0,0,0,0.1,0.1l0,0l0.1,0.1l0,0l0.1,0.1l0,0c0,0,0,0,0.1,0.1l0,0l0.1,0.1
		l0,0c0,0,0,0,0.1,0.1l0,0l0.1,0.1l0,0c0,0,0,0,0.1,0.1l0,0c0,0,0,0,0.1,0.1l0,0c0,0,0,0,0.1,0.1l0,0c0,0,0,0,0.1,0.1l0,0
		c0,0,0,0,0.1,0.1l0,0c0,0,0,0,0.1,0.1l0,0l0.1,0.1l0,0v0.1l0,0c0,0,0,0,0.1,0.1l0,0c0,0,0,0,0.1,0.1l0,0c0,0,0,0,0,0.1l0,0
		c0,0,0,0,0,0.1l0,0c0,0,0,0,0.1,0.1l0,0c0,0,0,0,0.1,0.1l0,0c0,0,0,0,0,0.1l0,0c0,0,0,0,0,0.1l0,0c0,0,0,0,0.1,0.1l0,0
		c0,0,0,0,0,0.1l0,0c0,0,0,0,0,0.1l0,0c0,0,0,0,0.1,0.1l0,0c0,0,0,0,0.1,0.1l0,0l0.1,0.1l0,0v0.1l0,0l0,0l0,0c0,0,0,0,0,0.1l0,0v0.1
		l0,0v0.1l0,0c0,0,0,0,0,0.1l0,0v0.1c0,0,0,0,0,0.1l0,0v0.1l0,0v0.1l0,0l0,0l0,0l0,0c0,0,0,0,0,0.1l0,0l0,0c0,0,0,0,0,0.1l0,0
		c0,0,0,0,0,0.1l0,0c0,0,0,0,0,0.1l0,0c0,0,0,0,0,0.1l0,0c0,0,0,0,0,0.1l0,0c0,0,0,0,0,0.1l0,0v0.1l0,0l0.1,0.1v0.1l0,0l0.1,0.3l0,0
		c0,0,0,0,0,0.1l0,0c0,0,0,0,0,0.1l0.1,0.1l0,0c0,0,0,0,0,0.1l0,0c0,0,0,0,0,0.1l0,0c0,0,0,0,0,0.1l0,0c0,0,0,0,0,0.1l0,0v0.1l0,0
		v0.1l0,0v0.1l0,0c0,0,0,0,0,0.1l0,0c0,0,0,0,0,0.1l0,0l0.1,0.1l0,0c0,0,0,0,0.1,0.1l0.1,0.1l0.1,0.1l0.1,0.1l0,0l0.1,0.1l0,0
		c0,0,0,0.1,0.1,0.1l0,0c0,0,0,0.1,0.1,0.1l0,0c0,0,0,0.1,0.1,0.1l0,0c0,0,0,0.1,0.1,0.1l0,0c0,0,0,0.1,0.1,0.1l0,0
		c0,0,0,0.1,0.1,0.1l0,0c0,0,0,0,0.1,0.1l0,0c0,0,0,0.1,0.1,0.1l0,0c0,0,0,0.1,0.1,0.1l0,0c0,0,0,0.1,0.1,0.1l0,0l0.1,0.1l0,0
		l0.1,0.1l0,0c0,0,0,0.1,0.1,0.1l0,0c0,0,0,0.1,0.1,0.1l0,0l0.1,0.1l0,0c0,0,0,0.1,0.1,0.1l0,0c0,0,0,0.1,0.1,0.1l0,0
		c0,0,0,0.1,0.1,0.1l0,0c0,0,0,0.1,0.1,0.1l0,0c0,0,0,0.1,0.1,0.1l0,0l0.1,0.1l0,0c0,0,0,0.1,0.1,0.1l0,0c0.1,0.1,0.1,0.3,0.3,0.4
		c0.1,0.1,0.1,0.3,0.3,0.4l0,0c0,0,0,0.1,0.1,0.1l0,0c0,0,0,0.1,0.1,0.1l0,0c6.4,9.2,11.7,19.3,15.5,29.9c1.6,4.4,6.6,6.6,11,5
		s6.6-6.6,5-10.8c-4.4-11.9-10.4-23.3-17.7-33.8c-0.1-0.1-0.1-0.3-0.3-0.4c-0.1-0.1-0.1-0.3-0.3-0.4c-15.9-22.9-39.1-44.2-67.2-61.6
		C405.6,47.1,404.1,46.7,402.5,46.7L402.5,46.7z"/>
	<path class="st18" d="M314,54.4c0,9.4-7.6,17-17,17s-17-7.6-17-17s7.6-17,17-17S314,45,314,54.4z"/>
	<path class="st18" d="M364.9,88.2c0,9.4-7.6,17-17,17s-17-7.6-17-17s7.6-17,17-17C357.4,71.2,364.9,78.9,364.9,88.2z"/>
	<path class="st19" d="M229.1,54.4c0,9.4-7.6,17-17,17s-17-7.6-17-17s7.6-17,17-17S229.1,45,229.1,54.4z"/>
	<path class="st20" d="M212.2,45.8c0,4.7-3.8,8.4-8.4,8.4s-8.4-3.8-8.4-8.4s3.8-8.4,8.4-8.4C208.3,37.4,212.2,41.1,212.2,45.8z"/>
	<path class="st17" d="M169.8,105.3c-4.7,0-8.4-3.8-8.4-8.4l0,0v-7c0-2.9-1.5-5.6-4-7.1c-29.2-17.4-30-34.8-30-36.8
		c0-4.7,3.8-8.4,8.4-8.4c4.6,0,8.3,3.6,8.4,8.2c0.1,0.7,1.9,10.8,21.7,22.6c7.6,4.6,12.3,12.9,12.3,21.7v7
		C178.2,101.4,174.4,105.3,169.8,105.3L169.8,105.3z"/>
	<path class="st21" d="M178.2,96.7c0,4.7-3.8,8.4-8.4,8.4s-8.4-3.8-8.4-8.4s3.8-8.4,8.4-8.4S178.2,92,178.2,96.7z"/>
	<path class="st16" d="M143.2,75c-4.7,0-8.4,3.8-8.4,8.4c0,2.7,1.2,5.2,3.3,6.8c1.9,1.5,3.9,2.8,6,4.3v2.1c0,11.5,7.8,21.7,19,24.6
		c0.4,0.1,0.9,0.3,1.3,0.3c0.4,0.1,0.9,0.3,1.3,0.3c0.9,0.1,1.9,0.3,2.8,0.3c0.1,0,0.3,0,0.3,0c4.7,0,8.4-3.8,8.4-8.4
		s-3.6-8.3-8.2-8.4l0,0c-0.3,0-0.7,0-0.9-0.1c-0.1,0-0.3,0-0.4,0s-0.3-0.1-0.4-0.1c-2.8-0.8-5.1-2.9-5.9-5.8l0,0c0,0,0,0,0-0.1l0,0
		l0,0V99l0,0l0,0l0,0l0,0c0,0,0,0,0-0.1l0,0v-0.1l0,0l0,0l0,0l0,0l0,0l0,0l0,0l0,0l0,0v-0.1l0,0l0,0l0,0l0,0l0,0l0,0l0,0l0,0l0,0
		l0,0l0,0l0,0l0,0l0,0l0,0l0,0l0,0l0,0l0,0l0,0l0,0l0,0l0,0l0,0l0,0l0,0l0,0l0,0l0,0l0,0l0,0l0,0l0,0l0,0l0,0l0,0l0,0l0,0l0,0l0,0
		l0,0l0,0l0,0l0,0l0,0l0,0l0,0l0,0l0,0l0,0l0,0l0,0l0,0l0,0l0,0l0,0l0,0l0,0l0,0l0,0l0,0l0,0l0,0l0,0l0,0l0,0l0,0l0,0l0,0l0,0l0,0
		l0,0l0,0l0,0l0,0l0,0l0,0l0,0l0,0v-7.1c0-2.9-1.5-5.6-4-7.1h-0.1l0,0l0,0l0,0l0,0l0,0l0,0l0,0l0,0l0,0l0,0l0,0l0,0l0,0l0,0l0,0l0,0
		l0,0l0,0c-0.1,0-0.1-0.1-0.3-0.1l0,0c0,0,0,0-0.1,0l0,0h-0.1l0,0l0,0l0,0c0,0,0,0-0.1,0l0,0h-0.1l0,0c-0.3-0.1-0.4-0.3-0.7-0.4
		c-0.8-0.5-1.6-1.1-2.4-1.6l0,0l0,0l0,0l0,0l0,0l0,0l0,0c-0.1-0.1-0.3-0.3-0.5-0.3l0,0l0,0l0,0l0,0l0,0l0,0l0,0l0,0l0,0l0,0l0,0l0,0
		l0,0l-0.1-0.1l0,0l0,0l0,0l0,0h-0.1l0,0l0,0l0,0l0,0l0,0l0,0l0,0l0,0l0,0l0,0l0,0l0,0c-0.1,0-0.1-0.1-0.3-0.1l0,0h-0.1l0,0l0,0l0,0
		l0,0l0,0l0,0l0,0l0,0l0,0c-0.7-0.4-1.2-0.9-1.9-1.3C146.8,75.7,145.1,75,143.2,75z"/>
	<path class="st17" d="M280.1,190.2c-9.4,0-17-7.6-17-17c0-7.4,4.7-13.8,11.7-16.1c1.5-0.5,39.4-14.1,39.4-51.8
		c0-25.7-11.7-38.6-12.2-39.1c-6.3-6.8-6.2-17.4,0.5-24c6.6-6.4,17.1-6.4,23.7,0.1c2.3,2.3,22,23,22,63c0,62.4-60,83.2-62.5,84
		C283.7,189.8,281.9,190.2,280.1,190.2z"/>
	<path class="st17" d="M280.1,190.2c-9.4,0-17-7.6-17-17c0-7.4,4.7-13.8,11.7-16.1c1.5-0.5,39.4-14.1,39.4-51.8
		c0-25.7-11.7-38.6-12.2-39.1c-6.3-6.8-6.2-17.4,0.5-24c6.6-6.4,17.1-6.4,23.7,0.1c2.3,2.3,22,23,22,63c0,62.4-60,83.2-62.5,84
		C283.7,189.8,281.9,190.2,280.1,190.2z"/>
	<path class="st21" d="M329.4,105.3c-8.2,0-15.3-5.9-16.7-13.9c-3.1-16.6-10.6-24.9-11-25.2c-6.3-6.8-6.2-17.4,0.5-24
		c6.6-6.4,17.1-6.4,23.7,0.1c1.6,1.6,15.3,15.8,20.2,42.9c1.7,9.2-4.4,18.1-13.7,19.7l0,0C331.6,105.1,330.5,105.3,329.4,105.3z"/>
	<path class="st18" d="M432.8,139.1c0,9.4-7.6,17-17,17s-17-7.6-17-17s7.6-17,17-17C425.3,122.3,432.8,129.8,432.8,139.1z"/>
	<path class="st17" d="M381.9,258.1c0,9.4-7.6,17-17,17s-17-7.6-17-17s7.6-17,17-17S381.9,248.7,381.9,258.1z"/>
	<path class="st16" d="M297,317.4c0,4.7-3.8,8.4-8.4,8.4c-4.7,0-8.4-3.8-8.4-8.4c0-4.7,3.8-8.4,8.4-8.4S297,312.7,297,317.4z"/>
	<path class="st16" d="M331,283.5c0,4.7-3.8,8.4-8.4,8.4c-4.7,0-8.4-3.8-8.4-8.4s3.8-8.4,8.4-8.4S331,278.8,331,283.5z"/>
	<path class="st22" d="M398.9,156.2c0,9.4-7.6,17-17,17s-17-7.6-17-17s7.6-17,17-17C391.3,139.1,398.9,146.8,398.9,156.2z"/>
	<path class="st17" d="M246.1,96.7c0,4.7-3.8,8.4-8.4,8.4s-8.4-3.8-8.4-8.4s3.8-8.4,8.4-8.4S246.1,92,246.1,96.7z"/>
	<path class="st21" d="M466.8,215.6c0,4.7-3.8,8.4-8.4,8.4s-8.4-3.8-8.4-8.4s3.8-8.4,8.4-8.4C463.1,207.1,466.8,210.9,466.8,215.6z"
		/>
	<path class="st21" d="M432.8,283.5c0,4.7-3.8,8.4-8.4,8.4c-4.7,0-8.4-3.8-8.4-8.4s3.8-8.4,8.4-8.4
		C429.1,275.1,432.8,278.8,432.8,283.5z"/>
	<path class="st21" d="M466.8,249.5c0,4.7-3.8,8.4-8.4,8.4s-8.4-3.8-8.4-8.4s3.8-8.4,8.4-8.4C463.1,241.1,466.8,244.8,466.8,249.5z"
		/>
	<path class="st17" d="M381.9,300.5c0,4.7-3.8,8.4-8.4,8.4c-4.7,0-8.4-3.8-8.4-8.4c0-4.7,3.8-8.4,8.4-8.4
		C378.2,292.1,381.9,295.9,381.9,300.5z"/>
	<path class="st17" d="M229.1,317.4c0,4.7-3.8,8.4-8.4,8.4s-8.4-3.8-8.4-8.4c0-4.7,3.8-8.4,8.4-8.4S229.1,312.7,229.1,317.4z"/>
	<path class="st21" d="M432.8,130.7c0,4.7-3.8,8.4-8.4,8.4c-4.7,0-8.4-3.8-8.4-8.4c0-4.7,3.8-8.4,8.4-8.4
		C429.1,122.3,432.8,126,432.8,130.7z"/>
	<path class="st18" d="M212.2,292.1c0-21.4-21.2-47.4-36-60.3c-9-7.8-21.8-9.2-32.4-3.9c-11.3,5.8-17.7,17.8-16.2,30.3
		c3.8,34.3,33.8,50.9,33.8,50.9c-9.8,9.8-32,35.8-33.8,51.8c-1.6,16.5,10.4,31.2,26.9,32.9c9.1,0.9,18.1-2.4,24.5-8.8
		c21.6-21.8,33.4-58.8,33.4-58.8c-17,0-17-17-17-17S195.2,292.1,212.2,292.1z"/>
	<path class="st20" d="M156.9,224.7L156.9,224.7L156.9,224.7h-0.4c-0.1,0-0.4,0-0.5,0l0,0c-0.1,0-0.3,0-0.4,0c-4.6,0.3-8,4-7.9,8.6
		c0.1,4.7,4,8.3,8.6,8.3h0.1h0.4c2.9,0,5.8,1.1,8,2.9c9.5,8.2,21.7,22.4,27.3,35.6c1.9,4.3,6.8,6.3,11.1,4.6
		c4.3-1.9,6.3-6.8,4.6-11.1c-0.8-1.9-1.7-3.8-2.7-5.6l0,0c-0.1-0.1-0.1-0.3-0.3-0.4l0,0c0,0,0-0.1-0.1-0.1l0,0c0,0,0-0.1-0.1-0.1
		l0,0l0,0l0,0v-0.1l0,0l0,0l0,0v-0.1l0,0l-0.1-0.1l0,0V267l0,0l0,0l0,0c0,0,0,0,0-0.1l0,0l0,0l0,0c0,0,0,0,0-0.1v-0.1l0,0l0,0l0,0
		v-0.1l0,0c0,0,0,0,0-0.1l0,0l0,0l0,0l0,0l0,0l0,0l0,0l0,0l0,0l0,0l0,0l0,0l0,0c0,0,0,0,0-0.1l0,0l0,0l0,0v-0.1l0,0c0,0,0,0,0-0.1
		l0,0c0,0,0,0,0-0.1l0,0V266l0,0c0,0,0,0,0-0.1l0,0v-0.1l0,0c0,0,0,0,0-0.1l0,0c0,0,0,0,0-0.1l0,0c0,0,0,0,0-0.1l0,0c0,0,0,0,0-0.1
		l0,0c0,0,0,0,0-0.1l0,0l-0.1-0.1l0,0l-0.1-0.1l0,0l-0.1-0.1l0,0c0-0.1-0.1-0.1-0.1-0.3l-0.1-0.1l0,0c-7-11.4-15.5-21.7-25.6-30.5
		l0,0l-0.1-0.1l0,0l-0.1-0.1l0,0l0,0l0,0l0,0l0,0l0,0l0,0l0,0l0,0l0,0l0,0l0,0l0,0l0,0l0,0l0,0C170.7,227.1,164,224.7,156.9,224.7z"
		/>
	<path class="st21" d="M415.9,88.2c0,9.4-7.6,17-17,17s-17-7.6-17-17s7.6-17,17-17S415.9,78.9,415.9,88.2z"/>
	<path class="st22" d="M237.7,156.2c-1.5,0-37.6-0.3-56.9-19.4c-3.3-3.3-3.3-8.7,0-12.1c3.3-3.3,8.7-3.3,12.1,0
		c14.2,14.2,44.6,14.5,45,14.5c4.7,0,8.4,3.9,8.4,8.6C246.1,152.4,242.3,156.2,237.7,156.2z"/>
	<path class="st13" d="M187.7,307.6c-4.7,0-8.4,3.8-8.4,8.4c0,0.8,0.1,1.5,0.3,2.3c1.7,6.7,5.5,12.6,10.7,17
		c-4.6,10.2-11.5,24-20.6,34.4c-0.1,0.1-0.1,0.1-0.3,0.3c-0.1,0.1-0.1,0.1-0.3,0.3c-0.8,0.8-1.6,1.7-2.4,2.5
		c-3.1,3.1-7.5,4.6-11.9,3.8c-4.6-0.9-9.1,2.1-9.9,6.7c-0.9,4.6,2.1,9,6.7,9.9c0.4,0.1,0.9,0.1,1.3,0.3l0,0l0,0l0,0l0,0h0.1l0,0l0,0
		l0,0l0,0l0,0l0,0l0,0l0,0l0,0l0,0l0,0l0,0l0,0l0,0h0.1l0,0l0,0l0,0l0,0l0,0l0,0l0,0h0.1l0,0l0,0l0,0l0,0l0,0l0,0l0,0h0.1l0,0l0,0
		l0,0l0,0l0,0h0.1l0,0l0,0l0,0l0,0l0,0h0.1l0,0l0,0l0,0l0,0l0,0h0.1l0,0l0,0l0,0l0,0l0,0h0.1l0,0l0,0l0,0l0,0l0,0h0.1l0,0l0,0l0,0
		l0,0l0,0h0.1l0,0l0,0l0,0l0,0l0,0l0,0l0,0h0.1l0,0l0,0l0,0l0,0l0,0h0.1l0,0h0.1l0,0h0.1l0,0h0.1l0,0h0.1l0,0h0.1l0,0h0.3l0,0h0.1
		c8,0,15.8-3.2,21.6-9l0.1-0.1l0,0l0,0l0,0c0,0,0,0,0.1-0.1l0,0c0.3-0.3,0.4-0.4,0.7-0.7l0,0l0,0l0,0l0,0l0,0l0,0l0,0l0,0l0,0l0,0
		l0,0l0,0c0.5-0.7,1.2-1.2,1.7-1.9c0.1-0.1,0.3-0.3,0.3-0.4c0.1-0.1,0.3-0.3,0.3-0.4c5.4-6.3,10.2-13.3,14.3-20.5
		c0.1-0.1,0.1-0.3,0.3-0.5l0,0l0,0l0,0l0,0l0,0l0,0l0,0l0,0c0-0.1,0.1-0.1,0.1-0.3l0,0l0,0l0,0l0,0l0,0l0,0l0,0l0,0l0,0l0,0l0,0l0,0
		c0-0.1,0.1-0.3,0.1-0.3l0,0l0,0l0,0l0,0l0,0l0,0v-0.1l0,0v-0.1l0,0l0.1-0.1l0,0l0,0l0,0l0,0l0,0l0,0l0,0l0,0l0,0l0,0l0,0l0,0v-0.1
		l0,0l0,0l0,0v-0.1l0,0l0,0l0,0l0,0l0,0l0,0l0,0c0-0.1,0.1-0.1,0.1-0.3l0,0l0,0l0,0c0,0,0-0.1,0.1-0.1l0,0l0,0l0,0l0,0l0,0
		c0-0.1,0.1-0.1,0.1-0.3l0,0l0,0l0,0l0,0l0,0l0,0V358l0,0c0,0,0,0,0-0.1l0,0l0,0l0,0c0-0.1,0.1-0.1,0.1-0.3l0,0
		c5.2-9.8,9.6-19.8,13.1-30.3l0,0c-10.6,0-14.6-6.7-16.1-11.7l0,0l0,0l0,0l0,0l0,0l0,0l0,0l0,0l0,0l0,0l0,0l0,0l0,0l0,0l0,0l0,0l0,0
		l0,0l0,0l0,0l0,0l0,0l0,0l0,0C194.9,310.2,191.6,307.6,187.7,307.6z"/>
	<path class="st20" d="M186.6,275.1h17c4.7,0,8.4,3.8,8.4,8.4s-3.8,8.4-8.4,8.4h-17c-4.7,0-8.4-3.8-8.4-8.4
		C178.2,278.8,181.9,275.1,186.6,275.1z"/>
	<path class="st13" d="M169.8,309h17c4.7,0,8.4,3.8,8.4,8.4c0,4.7-3.8,8.4-8.4,8.4h-17c-4.7,0-8.4-3.8-8.4-8.4
		C161.3,312.7,165.1,309,169.8,309z"/>
	<path class="st13" d="M152.7,343h34c4.7,0,8.4,3.8,8.4,8.4c0,4.7-3.8,8.4-8.4,8.4h-34c-4.7,0-8.4-3.8-8.4-8.4
		C144.3,346.7,148.1,343,152.7,343z"/>
	<path class="st20" d="M135.7,241.1h34c4.7,0,8.4,3.8,8.4,8.4c0,4.7-3.8,8.4-8.4,8.4h-34c-4.7,0-8.4-3.8-8.4-8.4
		C127.3,244.8,131,241.1,135.7,241.1z"/>
	<path class="st20" d="M161.2,266.5c0,4.7-3.8,8.4-8.4,8.4s-8.4-3.8-8.4-8.4c0-4.7,3.8-8.4,8.4-8.4S161.2,261.8,161.2,266.5z"/>
	<path class="st13" d="M161.2,334.4c0,4.7-3.8,8.4-8.4,8.4s-8.4-3.8-8.4-8.4c0-4.7,3.8-8.4,8.4-8.4S161.2,329.7,161.2,334.4z"/>
</g>
</svg>
