<?xml version="1.0" encoding="utf-8"?>
<!-- Generator: Adobe Illustrator 24.0.1, SVG Export Plug-In . SVG Version: 6.00 Build 0)  -->
<svg version="1.1" id="Layer_1" xmlns="http://www.w3.org/2000/svg" xmlns:xlink="http://www.w3.org/1999/xlink" x="0px" y="0px"
	 viewBox="0 0 512 512" style="enable-background:new 0 0 512 512;" xml:space="preserve">
<style type="text/css">
	.st0{display:none;}
	.st1{display:inline;fill:#200A7F;stroke:#18E5EA;stroke-width:20;stroke-miterlimit:10;}
	.st2{display:inline;fill:#EF0B79;}
	.st3{display:inline;fill:#18E5EA;}
	.st4{display:inline;}
	.st5{fill:#E9F21C;}
	.st6{display:inline;fill:none;}
	.st7{display:inline;fill:#EF3A24;}
	.st8{font-family:'MyriadPro-Regular';}
	.st9{font-size:250px;}
	.st10{display:inline;fill:#FFFFFF;}
	.st11{opacity:0.48;fill:#969696;enable-background:new    ;}
	.st12{fill:url(#SVGID_1_);}
	.st13{fill:#35495E;}
	.st14{fill:#2C3E50;}
	.st15{fill:#F9EAB0;}
	.st16{fill:#E64C3C;}
	.st17{fill:#3F5C6C;}
	.st18{fill:#ECF0F1;}
	.st19{fill:#C03A2B;}
	.st20{fill:#802F34;}
</style>
<g id="Layer_3" class="st0">
	<path class="st1" d="M401.1,212.2c5.1,15.3,7.9,31.7,7.9,48.8c0,85.3-69.2,154.5-154.5,154.5S100,346.3,100,261
		s69.2-154.5,154.5-154.5c51.2,0,96.6,24.9,124.7,63.3"/>
	<path class="st2" d="M333.4,255.2c0,4.2-3.3,7.7-7.4,7.7H174.9c-4.1,0-7.4-3.4-7.4-7.7l0,0c0-4.2,3.3-7.7,7.4-7.7H326
		C330.1,247.5,333.4,250.9,333.4,255.2L333.4,255.2z"/>
	<path class="st2" d="M333.4,284.8c0,4.2-3.3,7.6-7.4,7.6H174.9c-4.1,0-7.4-3.4-7.4-7.6l0,0c0-4.2,3.3-7.6,7.4-7.6H326
		C330.1,277.1,333.4,280.6,333.4,284.8L333.4,284.8z"/>
	<path class="st2" d="M333.4,313c0,4.2-3.3,7.7-7.4,7.7H174.9c-4.1,0-7.4-3.4-7.4-7.7l0,0c0-4.2,3.3-7.6,7.4-7.6H326
		C330.1,305.4,333.4,308.8,333.4,313L333.4,313z"/>
	<path class="st2" d="M333.4,338.4c0,4.2-3.3,7.7-7.4,7.7H174.9c-4.1,0-7.4-3.4-7.4-7.7l0,0c0-4.2,3.3-7.6,7.4-7.6H326
		C330.1,330.7,333.4,334.1,333.4,338.4L333.4,338.4z"/>
	<polygon class="st3" points="395,191.5 320.2,165.2 380.4,113.5 	"/>
	<g class="st4">
		<g>
			<g>
				<path class="st5" d="M241.5,239.2c-2.3,0-4.4-1.1-5.8-2.9l-18.8-24.8c-2.4-3.2-1.8-7.8,1.4-10.3c3.2-2.4,7.8-1.8,10.3,1.4
					l12.3,16.3l31-49.8c2.1-3.4,6.6-4.5,10.1-2.3c3.4,2.1,4.5,6.6,2.3,10.1l-36.7,58.9c-1.3,2-3.5,3.3-5.9,3.4
					C241.7,239.2,241.6,239.2,241.5,239.2z"/>
			</g>
		</g>
	</g>
</g>
<g id="Layer_2_2_" class="st0">
	<rect x="121" y="171.5" class="st6" width="298" height="251"/>
	<text transform="matrix(1 0 0 1 121 348.9979)" class="st7 st8 st9">24</text>
	<circle class="st10" cx="138.3" cy="91.8" r="17.3"/>
	<circle class="st10" cx="185.3" cy="91.8" r="17.3"/>
	<circle class="st10" cx="232.3" cy="91.8" r="17.3"/>
	<circle class="st10" cx="278.3" cy="91.8" r="17.3"/>
	<circle class="st10" cx="323.3" cy="91.8" r="17.3"/>
	<circle class="st10" cx="368.3" cy="91.8" r="17.3"/>
</g>
<circle class="st11" cx="255.6" cy="260.3" r="244.6"/>
<radialGradient id="SVGID_1_" cx="254.55" cy="264.85" r="244.65" gradientTransform="matrix(1 0 0 -1 0 514)" gradientUnits="userSpaceOnUse">
	<stop  offset="5.618000e-03" style="stop-color:#CFEAE6"/>
	<stop  offset="0.4494" style="stop-color:#B8E1DB"/>
	<stop  offset="1" style="stop-color:#93D3CB"/>
</radialGradient>
<path class="st12" d="M499.2,249.3c0,2.9,0,5.9-0.2,8.8c-0.5,14.3-2.3,28.3-5.1,41.9c0,0,0,0.1,0,0.2c-2.1,10-4.8,19.8-8.1,29.3
	c-2.2,6.3-4.6,12.4-7.3,18.5c-1.3,2.9-2.6,5.8-4,8.7c-1.4,2.8-2.8,5.6-4.3,8.4c-0.1,0.1-0.1,0.2-0.2,0.3c-1.4,2.6-2.9,5.2-4.4,7.7
	c-0.5,0.9-1.1,1.8-1.6,2.7c-2.6,4.4-5.4,8.6-8.3,12.8c-0.5,0.8-1,1.5-1.6,2.2c-0.9,1.3-1.9,2.6-2.8,3.9c-0.5,0.7-1,1.4-1.5,2
	c-2.1,2.8-4.3,5.6-6.6,8.3c-4.4,5.3-9,10.5-13.9,15.4c-2.1,2.1-4.2,4.2-6.3,6.2l-0.1,0.1c-0.1,0.1-0.3,0.3-0.4,0.4
	c-0.2,0.2-0.4,0.4-0.7,0.6l-0.1,0.1c-0.1,0.1-0.2,0.2-0.3,0.3c-1.7,1.6-3.4,3.1-5.2,4.7c-1.1,1-2.2,1.9-3.3,2.9
	c-4.2,3.5-8.4,6.9-12.8,10.2c-2.3,1.7-4.7,3.4-7.1,5c0,0,0,0-0.1,0c-0.1,0.1-0.2,0.2-0.4,0.3c-3.1,2.1-6.2,4.1-9.3,6.1
	c-1.1,0.7-2.1,1.3-3.2,1.9c-4.8,2.9-9.8,5.6-14.8,8.2c-8.6,4.4-17.5,8.3-26.7,11.6c-26.2,9.6-54.5,14.8-84,14.8
	c-31.7,0-61.9-6-89.7-17c-5.2-2-10.3-4.3-15.3-6.7c-0.1,0-0.2-0.1-0.3-0.1c-6.6-3.2-13.1-6.6-19.4-10.4c-0.1,0-0.1-0.1-0.2-0.1
	c-1.2-0.7-2.5-1.5-3.7-2.2c-2.5-1.5-5-3.2-7.4-4.8c0,0,0,0-0.1,0c-2.5-1.7-4.9-3.4-7.3-5.1c-3.2-2.3-6.3-4.7-9.4-7.2
	c-2.3-1.8-4.6-3.7-6.8-5.6c-2.1-1.8-4.1-3.6-6.2-5.5l-0.1-0.1c0,0,0,0-0.1,0c-0.1-0.1-0.2-0.2-0.3-0.2l-0.2-0.2
	c-2.1-1.9-4.2-3.9-6.2-5.9c-4.9-4.9-9.6-9.9-14-15.2c-0.8-1-1.7-2-2.5-3c-1.7-2-3.3-4-4.9-6.1c-0.5-0.6-0.9-1.2-1.4-1.8
	c-0.8-1-1.6-2.1-2.3-3.2c-4.1-5.6-8-11.5-11.6-17.5c-0.8-1.4-1.6-2.7-2.4-4.1c-0.3-0.5-0.5-0.9-0.8-1.4c-0.5-0.8-0.9-1.5-1.3-2.3
	c0,0,0-0.1-0.1-0.1c-1.5-2.7-3-5.5-4.4-8.2C32,351,28,342,24.7,332.8c0,0,0-0.1-0.1-0.1c-8.5-23.5-13.5-48.6-14.5-74.8
	c-0.1-2.9-0.2-5.8-0.2-8.8c0-3.2,0.1-6.4,0.2-9.5c1.5-39,12.1-75.7,29.8-107.9c10.6-19.3,23.7-37,38.9-52.7
	c4.3-4.5,8.8-8.8,13.4-12.9c5.8-5.1,11.8-10,18-14.5c1.2-0.9,2.4-1.8,3.7-2.7c9.6-6.8,19.8-12.9,30.4-18.3
	c30.8-15.5,65.3-24.8,101.8-26c2.8-0.1,5.6-0.1,8.4-0.1h0.4c2.8,0,5.5,0,8.2,0.1c34.5,1.2,67.1,9.5,96.6,23.5
	c10,4.8,19.6,10.2,28.8,16.2c0.8,0.5,1.6,1,2.3,1.6c2.7,1.8,5.3,3.6,7.9,5.4c3.8,2.8,7.6,5.7,11.2,8.7c2.3,1.9,4.7,3.9,6.9,5.9
	c20.8,18.4,38.4,40.4,51.9,64.9c17.9,32.4,28.7,69.3,30.2,108.6c0.1,1.9,0.2,3.9,0.2,5.7C499.2,246.7,499.2,248,499.2,249.3z"/>
<path d="M616.3,333.3"/>
<g id="Page-1">
	<g id="_x30_30---Messy-Books">
		<path id="Shape" class="st13" d="M142.5,368.6l-26.9-152.9c-0.3-1.5-0.4-3-0.5-4.4c-0.4-17.4,12.1-32.3,29.2-35.1l52-9.2
			l-1.4,201.6L142.5,368.6L142.5,368.6z"/>
		<path id="Shape_1_" class="st14" d="M342.5,362c-0.9,3.8-3.9,6.5-7.7,7.3l-152.9,26.9c-9.7,1.6-19.5-0.9-27.2-7
			c-7.7-6.2-12.2-15.2-12.7-25c-0.4-16.6,11.1-31.1,27.2-34.6l42.8,12.1l0,0l-38.5,6.8c-4.3,0.8-8.1,3.4-10.2,7.2s-2.5,8.4-0.9,12.5
			c2.8,6.5,9.7,10.3,16.7,8.9L296,356.5L342.5,362z"/>
		<path id="Shape_2_" class="st15" d="M212.1,341.6l-38.5,6.8c-4.3,0.8-8.1,3.4-10.2,7.2c-2.1,3.8-2.5,8.4-0.9,12.5
			c2.8,6.5,9.7,10.3,16.7,8.9l116.9-20.6L212.1,341.6z"/>
		<path id="Shape_3_" class="st16" d="M177,276.3l26.9-152.9c1-5.3,5.9-8.8,11.2-7.9l151.8,26.8c17.1,2.8,29.6,17.7,29.2,35.1
			c-0.1,1.5-0.3,3-0.5,4.4l-26.9,152.9L177,276.3z"/>
		<path id="Shape_4_" class="st17" d="M335.3,166.2c-0.3,0-0.6,0-0.9-0.1l-109.8-19.4c-2.5-0.6-4-3-3.6-5.5c0.5-2.5,2.8-4.3,5.3-4
			l109.8,19.4c2.5,0.4,4.2,2.6,4,5.2C339.8,164.3,337.8,166.2,335.3,166.2L335.3,166.2z"/>
		<path id="Shape_5_" class="st17" d="M311.9,186.7c-0.3,0-0.6,0-0.9-0.1L239.3,174c-2.5-0.5-4.3-3-3.8-5.5c0.5-2.6,2.9-4.4,5.5-3.9
			l71.7,12.6c2.5,0.4,4.3,2.6,4,5.2C316.6,184.8,314.4,186.7,311.9,186.7z"/>
		<path id="Rectangle-path" class="st18" d="M221.7,190.6L322,208.3c2.6,0.5,4.4,3,3.9,5.7l-8.4,47.8c-0.5,2.6-3,4.4-5.7,3.9
			L211.6,248c-2.6-0.5-4.4-3-3.9-5.7l8.4-47.8C216.5,191.8,219,190.1,221.7,190.6z"/>
		<path id="Shape_6_" class="st19" d="M396.1,177.4c0,1.5-0.3,3-0.5,4.4l-26.9,152.9l-37.4-11.5l21.6-122.9l5.2-29.1l5.3-29.7
			l3.6,0.6C384.1,145,396.6,160,396.1,177.4L396.1,177.4z"/>
		<path id="Shape_7_" class="st20" d="M340,295.1l-151.8-26.7c-0.5-0.1-1.1-0.1-1.6-0.1c-5,0-9.2,3.9-9.7,8.9c-0.4,5,3,9.6,8.1,10.4
			l152.9,26.9c4.3,0.8,8.1,3.4,10.2,7.3s2.4,8.4,0.9,12.5c-2.8,6.5-9.7,10.2-16.6,8.9L180,316.5c-0.5-0.1-1.1-0.1-1.6-0.1
			c-5,0-9.2,3.8-9.7,8.8s3,9.6,8.1,10.4l152.9,26.9c9.7,1.6,19.5-0.9,27.2-6.9c7.7-6.2,12.2-15.2,12.7-25
			C369.7,312.9,357.2,297.9,340,295.1L340,295.1z"/>
		<path id="Shape_8_" class="st15" d="M348.8,334.2c-2.8,6.5-9.7,10.2-16.6,8.9l-152.3-26.8l5-28.7l152.9,26.9
			c4.3,0.8,8.1,3.4,10.2,7.3C350.2,325.7,350.4,330.1,348.8,334.2L348.8,334.2z"/>
	</g>
</g>
</svg>
