<?xml version="1.0" encoding="utf-8"?>
<!-- Generator: Adobe Illustrator 24.0.1, SVG Export Plug-In . SVG Version: 6.00 Build 0)  -->
<svg version="1.1" id="Layer_1" xmlns="http://www.w3.org/2000/svg" xmlns:xlink="http://www.w3.org/1999/xlink" x="0px" y="0px"
	 viewBox="0 0 512 512" style="enable-background:new 0 0 512 512;" xml:space="preserve">
<style type="text/css">
	.st0{display:none;}
	.st1{display:inline;fill:#200A7F;stroke:#18E5EA;stroke-width:20;stroke-miterlimit:10;}
	.st2{display:inline;fill:#EF0B79;}
	.st3{display:inline;fill:#18E5EA;}
	.st4{display:inline;}
	.st5{fill:#E9F21C;}
	.st6{display:inline;fill:none;}
	.st7{display:inline;fill:#EF3A24;}
	.st8{font-family:'MyriadPro-Regular';}
	.st9{font-size:250px;}
	.st10{display:inline;fill:#FFFFFF;}
	.st11{opacity:0.48;fill:#969696;enable-background:new    ;}
	.st12{fill:url(#SVGID_1_);}
	.st13{fill:#FFFFFF;}
</style>
<g id="Layer_3" class="st0">
	<path class="st1" d="M401.1,212.2c5.1,15.3,7.9,31.7,7.9,48.8c0,85.3-69.2,154.5-154.5,154.5S100,346.3,100,261
		s69.2-154.5,154.5-154.5c51.2,0,96.6,24.9,124.7,63.3"/>
	<path class="st2" d="M333.4,255.2c0,4.2-3.3,7.7-7.4,7.7H174.9c-4.1,0-7.4-3.4-7.4-7.7l0,0c0-4.2,3.3-7.7,7.4-7.7H326
		C330.1,247.5,333.4,250.9,333.4,255.2L333.4,255.2z"/>
	<path class="st2" d="M333.4,284.8c0,4.2-3.3,7.6-7.4,7.6H174.9c-4.1,0-7.4-3.4-7.4-7.6l0,0c0-4.2,3.3-7.6,7.4-7.6H326
		C330.1,277.1,333.4,280.6,333.4,284.8L333.4,284.8z"/>
	<path class="st2" d="M333.4,313c0,4.2-3.3,7.7-7.4,7.7H174.9c-4.1,0-7.4-3.4-7.4-7.7l0,0c0-4.2,3.3-7.6,7.4-7.6H326
		C330.1,305.4,333.4,308.8,333.4,313L333.4,313z"/>
	<path class="st2" d="M333.4,338.4c0,4.2-3.3,7.7-7.4,7.7H174.9c-4.1,0-7.4-3.4-7.4-7.7l0,0c0-4.2,3.3-7.6,7.4-7.6H326
		C330.1,330.7,333.4,334.1,333.4,338.4L333.4,338.4z"/>
	<polygon class="st3" points="395,191.5 320.2,165.2 380.4,113.5 	"/>
	<g class="st4">
		<g>
			<g>
				<path class="st5" d="M241.5,239.2c-2.3,0-4.4-1.1-5.8-2.9l-18.8-24.8c-2.4-3.2-1.8-7.8,1.4-10.3c3.2-2.4,7.8-1.8,10.3,1.4
					l12.3,16.3l31-49.8c2.1-3.4,6.6-4.5,10.1-2.3c3.4,2.1,4.5,6.6,2.3,10.1l-36.7,58.9c-1.3,2-3.5,3.3-5.9,3.4
					C241.7,239.2,241.6,239.2,241.5,239.2z"/>
			</g>
		</g>
	</g>
</g>
<g id="Layer_2_2_" class="st0">
	<rect x="121" y="171.5" class="st6" width="298" height="251"/>
	<text transform="matrix(1 0 0 1 121 348.9979)" class="st7 st8 st9">24</text>
	<circle class="st10" cx="138.3" cy="91.8" r="17.3"/>
	<circle class="st10" cx="185.3" cy="91.8" r="17.3"/>
	<circle class="st10" cx="232.3" cy="91.8" r="17.3"/>
	<circle class="st10" cx="278.3" cy="91.8" r="17.3"/>
	<circle class="st10" cx="323.3" cy="91.8" r="17.3"/>
	<circle class="st10" cx="368.3" cy="91.8" r="17.3"/>
</g>
<circle class="st11" cx="255.6" cy="260.3" r="244.6"/>
<linearGradient id="SVGID_1_" gradientUnits="userSpaceOnUse" x1="9.9" y1="249.3" x2="499.2" y2="249.3">
	<stop  offset="0" style="stop-color:#F074AC"/>
	<stop  offset="0.5" style="stop-color:#EB008B"/>
	<stop  offset="1" style="stop-color:#CD118C"/>
</linearGradient>
<path class="st12" d="M498.9,239.6c0,0,0-0.1,0-0.1c-0.1-3.6-0.4-7.2-0.7-10.8c0-0.1,0-0.1,0-0.2c-0.3-3.5-0.6-7-1.1-10.4
	c-0.1-0.9-0.2-1.9-0.4-2.8c-0.7-4.9-1.5-9.8-2.5-14.6c-0.2-1.1-0.5-2.2-0.7-3.3c-0.5-2.3-1-4.5-1.6-6.7c0-0.1,0-0.1,0-0.1
	c-0.8-3.3-1.7-6.6-2.6-9.9c-1.6-5.4-3.3-10.8-5.3-16.1c-0.2-0.5-0.3-1-0.5-1.5c-0.6-1.5-1.2-3.1-1.8-4.6c-0.4-1-0.8-2-1.2-3
	c-2-4.8-4.1-9.6-6.4-14.3l0,0c-1.7-3.5-3.5-6.9-5.4-10.3c0,0,0-0.1-0.1-0.1l0,0c0-0.1-0.1-0.2-0.2-0.3c-0.9-1.7-1.9-3.4-2.9-5.1
	c-0.5-1-1.1-1.9-1.7-2.9c-3.8-6.4-8-12.6-12.4-18.6c-0.8-1-1.5-2-2.3-3c-1.3-1.7-2.6-3.4-4-5.1c-1.3-1.6-2.6-3.1-3.9-4.7
	c-1.4-1.6-2.8-3.3-4.2-4.8c-1.3-1.5-2.6-2.9-3.9-4.3c-1.6-1.7-3.2-3.3-4.8-5c-3.8-3.8-7.6-7.5-11.6-11c-2.2-2-4.6-4-6.9-5.9
	c-1.8-1.5-3.6-3-5.5-4.4c-0.2-0.1-0.3-0.3-0.5-0.4c-1.7-1.3-3.5-2.6-5.2-3.9c-1.5-1.1-3.1-2.2-4.7-3.3c-1.4-1-2.9-2-4.4-2.9
	c-0.4-0.3-0.7-0.5-1.1-0.7c-1.6-1.1-3.3-2.1-5-3.2c-2.9-1.8-5.8-3.5-8.7-5.1c-4.9-2.8-10-5.4-15.1-7.9c-1.8-0.9-3.7-1.7-5.5-2.5
	c-12.8-5.7-26.1-10.3-39.8-13.7c-0.5-0.1-1.1-0.3-1.6-0.4C302.1,9,291.3,7.1,280.2,6c-1.9-0.2-3.8-0.4-5.6-0.5
	c-3.1-0.3-6.3-0.5-9.4-0.6c-0.1,0-0.2,0-0.2,0c-0.6,0-1.2,0-1.8-0.1c-2.7-0.1-5.4-0.1-8.2-0.1h-0.4c-2.8,0-5.6,0-8.4,0.1
	c-0.6,0-1.3,0-1.9,0.1c-3.2,0.1-6.3,0.3-9.5,0.6c-12.4,1-24.5,2.9-36.2,5.7c-0.7,0.2-1.4,0.3-2.1,0.5c-0.5,0.1-1,0.2-1.5,0.4
	c-3.9,1-7.8,2.1-11.6,3.2c-8.8,2.6-17.3,5.8-25.6,9.4c-0.9,0.4-1.7,0.7-2.6,1.1c-3.6,1.6-7.2,3.3-10.8,5.1c-2,1-3.9,2-5.9,3.1
	c-0.4,0.2-0.8,0.4-1.3,0.7c-1.7,0.9-3.3,1.8-4.9,2.8c-2.2,1.3-4.4,2.6-6.6,4c-1.1,0.7-2.1,1.3-3.2,2c-1.8,1.2-3.7,2.4-5.5,3.7
	c0,0-0.1,0.1-0.2,0.1c-0.5,0.3-1,0.7-1.5,1c-0.5,0.3-0.9,0.6-1.3,0.9c-1.3,0.9-2.5,1.8-3.7,2.7c-0.9,0.6-1.7,1.3-2.6,1.9
	c-1.4,1.1-2.8,2.1-4.2,3.2c-0.3,0.2-0.5,0.4-0.8,0.6c-3.6,2.8-7,5.8-10.5,8.8c-2.6,2.3-5.1,4.6-7.6,7c-2,1.9-3.9,3.9-5.8,5.9
	c-6.5,6.7-12.7,13.8-18.4,21.3c-0.1,0.2-0.3,0.4-0.4,0.5c-4.2,5.5-8.2,11.2-11.9,17c-2.6,4.1-5.1,8.3-7.5,12.5
	c-0.3,0.5-0.5,0.9-0.8,1.4c-0.5,0.8-0.9,1.7-1.3,2.5c-0.6,1.5-1.4,2.9-2.2,4.2c-0.2,0.4-0.4,0.8-0.6,1.1c-2.7,5.3-5.1,10.6-7.4,16.1
	l0,0c-1,2.3-1.9,4.7-2.8,7.1c-2,5.3-3.8,10.6-5.4,16c-0.6,2-1.2,4.1-1.8,6.2c-4.7,17.5-7.6,35.8-8.3,54.6c-0.1,3.1-0.2,6.3-0.2,9.5
	c0,3,0.1,5.9,0.2,8.8c0.7,19,3.6,37.5,8.3,55.1c1.8,6.7,3.9,13.2,6.2,19.7c0.1,0,0.1,0.1,0.1,0.1c3.3,9.2,7.3,18.2,11.4,27
	c1.4,2.7,2.9,5.5,4.4,8.2c0,0,0.1,0,0.1,0c0,0,0,0.1,0,0.1c0.4,0.8,0.8,1.5,1.3,2.3c0.3,0.5,0.5,0.9,0.8,1.4
	c0.8,1.4,1.6,2.7,2.4,4.1c1,1.7,2,3.3,3,4.9c2.7,4.3,5.6,8.5,8.6,12.6c1,1.4,2,2.8,3.1,4.2l0.6,0.7c2.4,3.1,4.9,6.1,7.4,9.1
	c4.4,5.3,9.1,10.3,14,15.2c2,2,4.1,4,6.2,5.9l0.2,0.2c0.1,0,0.2,0.1,0.3,0.2c0.1,0,0.1,0,0.1,0l0.1,0.1c2.1,1.9,4.1,3.7,6.2,5.5
	c1.1,0.9,2.2,1.9,3.3,2.8c0,0,0,0,0,0c1.1,0.9,2.3,1.9,3.4,2.8c2,1.6,3.9,3.1,5.9,4.6c1.2,0.9,2.3,1.7,3.5,2.6
	c2.4,1.7,4.8,3.4,7.3,5.1c0.1,0,0.1,0,0.1,0c1.3,0.9,2.6,1.7,3.9,2.6c0.9,0.6,1.8,1.2,2.8,1.8c0.1,0,0.2,0.1,0.2,0.2
	c1.4,0.9,2.8,1.7,4.2,2.5c0.1,0,0.1,0.1,0.2,0.1c2.4,1.5,4.9,2.9,7.4,4.2c4,2.2,8,4.2,12,6.2c0.1,0,0.2,0.1,0.3,0.1
	c5,2.4,10.1,4.7,15.3,6.7c7.4,2.9,15,5.5,22.7,7.7c3,0.9,6,1.6,9,2.4c0.5,0.1,1.1,0.3,1.6,0.4h0c11.2,2.6,22.6,4.5,34.3,5.5h0
	c6.8,0.6,13.8,0.9,20.8,1c0.4,0,0.9,0,1.3,0c20,0,39.4-2.4,58.1-6.9c3.2-0.8,6.3-1.6,9.5-2.5c4.1-1.2,8.2-2.5,12.2-3.8h0
	c1.4-0.5,2.8-1,4.3-1.5c8.4-3,16.5-6.5,24.3-10.4c0.8-0.4,1.6-0.8,2.4-1.2c3.2-1.7,6.5-3.4,9.6-5.2c1.7-1,3.5-2,5.2-3
	c1.2-0.7,2.4-1.5,3.7-2.2c2-1.2,4-2.5,6-3.8c1-0.6,1.9-1.3,2.9-1.9c0.1,0,0.2-0.1,0.2-0.1c0.1-0.1,0.1-0.1,0.2-0.2
	c0.1,0,0.1,0,0.1,0c2.4-1.6,4.8-3.3,7.1-5c1.5-1.1,2.9-2.2,4.3-3.3c2.9-2.3,5.7-4.6,8.5-6.9c0.2-0.2,0.4-0.3,0.5-0.5
	c0,0,0.1-0.1,0.1-0.1c0.5-0.4,1-0.8,1.4-1.3c0.4-0.3,0.8-0.7,1.2-1.1c1.8-1.6,3.5-3.1,5.2-4.7c0.1-0.1,0.2-0.2,0.3-0.3l0.1-0.1
	c0.3-0.2,0.5-0.4,0.7-0.6c0.1-0.1,0.3-0.3,0.4-0.4l0.1-0.1c0,0,0,0,0.1-0.1c2.1-2,4.1-4,6.2-6.1c0.9-0.9,1.8-1.8,2.7-2.8
	c0.6-0.7,1.2-1.3,1.8-2c3.3-3.5,6.3-7.1,9.4-10.7c1.9-2.3,3.8-4.7,5.6-7.1c0-0.1,0.1-0.1,0.1-0.2c0.8-1,1.6-2.1,2.3-3.1
	c0.9-1.3,1.9-2.6,2.8-3.9c0.3-0.3,0.6-0.7,0.8-1.1l0-0.1c0.2-0.3,0.5-0.7,0.7-1.1c1.8-2.7,3.6-5.3,5.4-8c0,0,0,0,0,0
	c1-1.5,1.9-3,2.8-4.5c0-0.1,0.1-0.2,0.1-0.2c0.1-0.2,0.3-0.5,0.4-0.7c0.4-0.7,0.8-1.3,1.2-2c1-1.6,1.9-3.2,2.8-4.9
	c0.1-0.1,0.1-0.2,0.2-0.4c0.5-0.8,0.9-1.7,1.4-2.5c0.1-0.1,0.1-0.2,0.2-0.3c0.8-1.4,1.5-2.8,2.2-4.3c0.7-1.4,1.4-2.8,2.1-4.1
	c0.7-1.5,1.4-2.9,2-4.4l0,0c0.4-0.8,0.8-1.7,1.1-2.5c0,0,0,0,0,0c0.3-0.6,0.5-1.2,0.8-1.8c2.5-5.6,4.7-11.1,6.7-16.8
	c0.2-0.5,0.4-1.1,0.6-1.7c0.9-2.6,1.8-5.2,2.5-7.8c1-3.2,1.9-6.4,2.8-9.6c0.9-3.5,1.7-6.9,2.5-10.4c0.1-0.5,0.2-0.9,0.3-1.4
	c0-0.1,0-0.2,0-0.2c0.3-1.7,0.7-3.5,1-5.2c0.6-3.1,1.1-6.2,1.6-9.4c0.9-5.9,1.6-11.9,2-17.9c0.2-3.1,0.4-6.3,0.5-9.5
	c0.2-2.9,0.2-5.9,0.2-8.8C499.2,246.1,499.1,242.9,498.9,239.6z"/>
<path class="st13" d="M369.7,133.9l25.1-4.3l-1.5-9.4l-18.2,3.1l13.7-24.7l-8.1-4.7l-11.9,21.3c-0.4-3.6-1.5-7.1-3.4-10.2
	c-4.8-8.4-13.3-13.5-22.8-13.5H329v9.5h13.6c6.1,0,11.7,3.3,14.7,8.8c2,3.6,2.7,7.6,2.1,11.5c-3.1-6.3-9.3-10.7-16.6-10.7h-32.5v9.5
	h32.5c3.7,0,6.9,2.2,8.4,5.5c-15.3,2.2-60,10.9-96.6,37.6c-1.1,0-41.1,1.3-91.7,63.9c-34.8,43-35.8,56.4-32.6,63.2
	c2.1,4.5,6.4,6.7,13,6.7c9.4,0,18.5-3.3,25.7-6.7c-4.5,9.8-8.6,19-12.2,27.2l-23.8,7.3c-13.3,4.2-22.2,16.5-22.2,30.9
	c0,17.7,14.1,32.2,31.3,32.2c14,0,26-9.2,30-22.9l7-24c8.2-3.5,18.3-8.5,29.3-14.5v4.2c0,6.4,3.2,12,8.8,15.8
	c3.3,2.1,7.1,3.3,10.9,3.3c2.9,0,6-0.7,8.7-2c6.7-3.3,12.6-7.4,18-12.2h0.1v-0.1c1.3-1.2,2.6-2.4,3.8-3.6
	c15.7-16.3,28.1-33.7,37.4-65.3c5-4.6,10.1-9.5,15.3-14.8l-0.7,2.7l-0.1,1.1c0,4.8,2.5,9.2,6.5,11.6c2,1.1,4,1.7,6.1,1.7
	c2.2,0,4.3-0.6,6.1-1.8l9.5-5.2l-4.9-35.5c20.7-26.2,37-56.4,37-86.7C370.9,137.4,370.5,135.6,369.7,133.9L369.7,133.9z M236,179.2
	c-1.2,1.2-2.4,2.6-3.5,3.9l-11.4,2.9c6.4-4,12.1-6.8,16.9-8.8C237.4,178,236.7,178.6,236,179.2L236,179.2z M200.8,201.1l21.5-5.5
	c-2.7,3.6-5.5,7.4-8.1,11.5l-29,9C190.7,210.4,195.9,205.5,200.8,201.1z M186.5,254.7L146.4,266c2.2-3.5,4.8-7.6,8.2-12.3l38.3-10.8
	C190.7,246.9,188.6,250.8,186.5,254.7z M199.4,231.2l-35.5,10c2-2.5,4-5.2,6.3-8c1-1.1,1.9-2.2,2.8-3.4l33.3-10.3
	C204,223.3,201.6,227.2,199.4,231.2L199.4,231.2z M143.3,287.5c-2.5,0-4.1-0.4-4.6-1.2c-0.3-0.7-0.8-2.9,1.5-8.5l40.3-11.3
	c-1.4,2.9-2.9,5.8-4.4,8.8C171.8,278.2,157.4,287.5,143.3,287.5z M140.7,378.1c-3.8-0.2-7.4-1.5-10.5-3.5l27.8-28.6L140.7,378.1z
	 M123.7,367.9c-2-3.1-3.2-6.8-3.4-10.8l31.2-17.9L123.7,367.9z M135.8,334l12.6-3.9l-25.5,14.6C125.6,339.6,130.1,335.8,135.8,334z
	 M163.2,362.2c-1.7,5.8-5.5,10.6-10.4,13.2l14.2-26.3L163.2,362.2z M217.6,330.5v-9.3c3.1-1.8,6.1-3.6,9.3-5.4V340
	c-1.6-0.2-3.3-0.7-4.7-1.7C219.2,336.2,217.6,333.7,217.6,330.5z M236.2,337v-26.8c3.1-1.9,6.2-3.8,9.3-5.8v26.4
	C242.6,333,239.5,335.1,236.2,337L236.2,337z M254.8,322v-23.7c3.2-2.1,6.2-4.3,9.3-6.4v19.3C261.2,314.8,258,318.4,254.8,322z
	 M282.3,278c-2.7,7.2-5.7,13.5-8.9,19.1v-12.1C276.5,282.7,279.4,280.3,282.3,278z M287.9,260.8c-33.5,30.4-94.2,64.8-119.6,74.2
	c-2.7,1-4.6-0.7-5.1-1.2c-0.4-0.6-2-2.5-0.9-5.2c13.6-32.1,48.6-110.1,80.3-142.5c40.1-41,105-50.4,113.3-51.4l-7.5,11.6l7.7,5.3
	l5.2-8.1c-1.1,21.3-10.9,42.8-24.4,62.6c-7.1-0.7-12.8-5.8-15.6-9.1c-2.8-3.3-6.9-5.1-11.1-5.1h-6.4c-3.5,0-6.8-1.3-9.2-3.9
	l-13.4-13.8l-6.5,6.7l13.4,13.8c2.5,2.6,5.5,4.3,8.7,5.4c0.9,6.7,4.4,15.6,13.6,15.6c6.8,0,11.4-2.1,14.3-3.9c1.9,1.1,3.9,2,6.1,2.7
	C317.8,232,302.3,247.8,287.9,260.8L287.9,260.8z M316.3,205.3c-1.5,0.4-3.5,0.9-5.8,0.9c-2.2,0-3.4-2.4-3.9-4.8h3.7
	c1.5,0,3.1,0.7,4.1,1.9C315,204,315.6,204.7,316.3,205.3z M328.7,256.1l-4,2.1c-1.3,0.9-2.5,0.4-3.2,0.1c-0.4-0.2-1.5-1-1.7-2.7
	l4.3-18.1c0.5-0.7,1.2-1.3,1.7-2L328.7,256.1z"/>
</svg>
