<?xml version="1.0" encoding="utf-8"?>
<!-- Generator: Adobe Illustrator 24.0.1, SVG Export Plug-In . SVG Version: 6.00 Build 0)  -->
<svg version="1.1" id="Layer_1" xmlns="http://www.w3.org/2000/svg" xmlns:xlink="http://www.w3.org/1999/xlink" x="0px" y="0px"
	 viewBox="0 0 512 512" style="enable-background:new 0 0 512 512;" xml:space="preserve">
<style type="text/css">
	.st0{display:none;}
	.st1{display:inline;fill:#200A7F;stroke:#18E5EA;stroke-width:20;stroke-miterlimit:10;}
	.st2{display:inline;fill:#EF0B79;}
	.st3{display:inline;fill:#18E5EA;}
	.st4{display:inline;}
	.st5{fill:#E9F21C;}
	.st6{display:inline;fill:none;}
	.st7{display:inline;fill:#EF3A24;}
	.st8{font-family:'MyriadPro-Regular';}
	.st9{font-size:250px;}
	.st10{display:inline;fill:#FFFFFF;}
	.st11{opacity:0.48;fill:#969696;enable-background:new    ;}
	.st12{fill:url(#SVGID_1_);}
	.st13{fill:#E2E2E2;}
</style>
<g id="Layer_3" class="st0">
	<path class="st1" d="M401.1,212.2c5.1,15.3,7.9,31.7,7.9,48.8c0,85.3-69.2,154.5-154.5,154.5S100,346.3,100,261
		s69.2-154.5,154.5-154.5c51.2,0,96.6,24.9,124.7,63.3"/>
	<path class="st2" d="M333.4,255.2c0,4.2-3.3,7.7-7.4,7.7H174.9c-4.1,0-7.4-3.4-7.4-7.7l0,0c0-4.2,3.3-7.7,7.4-7.7H326
		C330.1,247.5,333.4,250.9,333.4,255.2L333.4,255.2z"/>
	<path class="st2" d="M333.4,284.8c0,4.2-3.3,7.6-7.4,7.6H174.9c-4.1,0-7.4-3.4-7.4-7.6l0,0c0-4.2,3.3-7.6,7.4-7.6H326
		C330.1,277.1,333.4,280.6,333.4,284.8L333.4,284.8z"/>
	<path class="st2" d="M333.4,313c0,4.2-3.3,7.7-7.4,7.7H174.9c-4.1,0-7.4-3.4-7.4-7.7l0,0c0-4.2,3.3-7.6,7.4-7.6H326
		C330.1,305.4,333.4,308.8,333.4,313L333.4,313z"/>
	<path class="st2" d="M333.4,338.4c0,4.2-3.3,7.7-7.4,7.7H174.9c-4.1,0-7.4-3.4-7.4-7.7l0,0c0-4.2,3.3-7.6,7.4-7.6H326
		C330.1,330.7,333.4,334.1,333.4,338.4L333.4,338.4z"/>
	<polygon class="st3" points="395,191.5 320.2,165.2 380.4,113.5 	"/>
	<g class="st4">
		<g>
			<g>
				<path class="st5" d="M241.5,239.2c-2.3,0-4.4-1.1-5.8-2.9l-18.8-24.8c-2.4-3.2-1.8-7.8,1.4-10.3c3.2-2.4,7.8-1.8,10.3,1.4
					l12.3,16.3l31-49.8c2.1-3.4,6.6-4.5,10.1-2.3c3.4,2.1,4.5,6.6,2.3,10.1l-36.7,58.9c-1.3,2-3.5,3.3-5.9,3.4
					C241.7,239.2,241.6,239.2,241.5,239.2z"/>
			</g>
		</g>
	</g>
</g>
<g id="Layer_2_2_" class="st0">
	<rect x="121" y="171.5" class="st6" width="298" height="251"/>
	<text transform="matrix(1 0 0 1 121 348.9979)" class="st7 st8 st9">24</text>
	<circle class="st10" cx="138.3" cy="91.8" r="17.3"/>
	<circle class="st10" cx="185.3" cy="91.8" r="17.3"/>
	<circle class="st10" cx="232.3" cy="91.8" r="17.3"/>
	<circle class="st10" cx="278.3" cy="91.8" r="17.3"/>
	<circle class="st10" cx="323.3" cy="91.8" r="17.3"/>
	<circle class="st10" cx="368.3" cy="91.8" r="17.3"/>
</g>
<circle class="st11" cx="255.6" cy="260.3" r="244.6"/>
<linearGradient id="SVGID_1_" gradientUnits="userSpaceOnUse" x1="9.8" y1="249.35" x2="499.075" y2="249.35">
	<stop  offset="0" style="stop-color:#5B57A5"/>
	<stop  offset="0.5" style="stop-color:#2E3092"/>
	<stop  offset="1" style="stop-color:#474374"/>
</linearGradient>
<path class="st12" d="M498.8,249.3c0,2.9,0,5.9-0.2,8.8c-0.1,3.2-0.3,6.4-0.5,9.5c-0.2,3.5-0.6,7.1-1,10.6c-0.3,2.5-0.6,4.9-1,7.3
	c-0.5,3.2-1,6.3-1.6,9.4c-0.2,1.3-0.5,2.7-0.8,4c-0.1,0.4-0.1,0.8-0.2,1.1c0,0,0,0.1,0,0.2c-0.1,0.5-0.2,0.9-0.3,1.4
	c-0.8,3.5-1.6,6.9-2.5,10.4c-0.9,3.2-1.8,6.4-2.8,9.6c-0.7,2.6-1.6,5.2-2.5,7.8c-0.2,0.6-0.4,1.2-0.6,1.7c-2,5.7-4.2,11.2-6.7,16.8
	c-0.3,0.6-0.5,1.2-0.8,1.8c-0.3,0.8-0.7,1.7-1.1,2.5c-0.6,1.5-1.3,2.9-2,4.4c-0.7,1.3-1.4,2.7-2.1,4.1c0,0.1-0.1,0.2-0.1,0.3
	c-0.7,1.4-1.3,2.7-2.1,4c-0.1,0.1-0.1,0.2-0.2,0.3c-0.5,0.8-0.9,1.7-1.4,2.5c-0.1,0.2-0.1,0.3-0.2,0.4c-0.9,1.7-1.8,3.3-2.8,4.9
	c-0.4,0.7-0.8,1.3-1.2,2c-0.1,0.2-0.3,0.5-0.4,0.7c0,0-0.1,0.1-0.1,0.2c-0.9,1.5-1.8,3-2.8,4.5c-1.8,2.7-3.6,5.3-5.4,8
	c-0.2,0.4-0.5,0.8-0.7,1.1v0.1c-0.2,0.4-0.5,0.8-0.8,1.1c-0.9,1.3-1.9,2.6-2.8,3.9c-0.7,1-1.5,2.1-2.3,3.1c0,0.1-0.1,0.1-0.1,0.2
	c-1.8,2.4-3.7,4.8-5.6,7.1c-3.1,3.6-6.1,7.2-9.4,10.7c-0.6,0.7-1.2,1.3-1.8,2c-0.9,1-1.8,1.9-2.7,2.8c-2.1,2.1-4.1,4.1-6.2,6.1
	c-0.1,0.1-0.1,0.1-0.1,0.1l-0.1,0.1c-0.1,0.1-0.3,0.3-0.4,0.4c-0.2,0.2-0.4,0.4-0.7,0.6l-0.1,0.1c-0.1,0.1-0.2,0.2-0.3,0.3
	c-1.7,1.6-3.4,3.1-5.2,4.7c-0.4,0.4-0.8,0.8-1.2,1.1c-0.4,0.5-0.9,0.9-1.4,1.3l-0.1,0.1c-0.1,0.2-0.3,0.3-0.5,0.5
	c-2.8,2.3-5.6,4.6-8.5,6.9c-1.4,1.1-2.8,2.2-4.3,3.3c-1,0.7-2,1.4-3,2.1c-1.4,1-2.8,1.9-4.1,2.9c0,0,0,0-0.1,0
	c-0.1,0.1-0.1,0.1-0.2,0.2c0,0-0.1,0.1-0.2,0.1c-1,0.6-1.9,1.3-2.9,1.9c-2,1.3-4,2.6-6,3.8c-1.3,0.7-2.5,1.5-3.7,2.2
	c-1.7,1-3.5,2-5.2,3c-3.1,1.8-6.4,3.5-9.6,5.2c-0.8,0.4-1.6,0.8-2.4,1.2c-7.8,3.9-15.9,7.4-24.3,10.4c-0.4,0.1-0.7,0.3-1.1,0.4
	c-1.1,0.4-2.2,0.8-3.2,1.1c-4,1.3-8.1,2.6-12.2,3.8c-3.2,0.9-6.3,1.7-9.5,2.5c-18.7,4.5-38.1,6.9-58.1,6.9H253c-7-0.1-14-0.4-20.8-1
	c-5.9-0.5-11.6-1.2-17.3-2.2c-5.7-0.9-11.4-2-17-3.3c-0.5-0.1-1.1-0.3-1.6-0.4c-3-0.8-6-1.5-9-2.4c-7.7-2.2-15.3-4.8-22.7-7.7
	c-5.2-2-10.3-4.3-15.3-6.7c-0.1,0-0.2-0.1-0.3-0.1c-0.6-0.3-1.3-0.6-1.9-1c-1.7-0.8-3.4-1.7-5.1-2.6c-1.7-0.9-3.3-1.7-5-2.7
	c-2.5-1.3-5-2.7-7.4-4.2c-0.1,0-0.1-0.1-0.2-0.1c-1.4-0.8-2.8-1.6-4.2-2.5c0-0.1-0.1-0.2-0.2-0.2c-1-0.6-1.9-1.2-2.8-1.8
	c-1.3-0.9-2.6-1.7-3.9-2.6c0,0,0,0-0.1,0c-2.5-1.7-4.9-3.4-7.3-5.1c-1.2-0.9-2.3-1.7-3.5-2.6c-2-1.5-3.9-3-5.9-4.6
	c-1.1-0.9-2.3-1.9-3.4-2.8c-1.1-0.9-2.2-1.9-3.3-2.8c-2.1-1.8-4.1-3.6-6.2-5.5l-0.1-0.1c0,0,0,0-0.1,0c-0.1-0.1-0.2-0.2-0.3-0.2
	l-0.2-0.2c-2.1-1.9-4.2-3.9-6.2-5.9c-4.9-4.9-9.6-9.9-14-15.2c-2.5-3-5-6-7.4-9.1l-0.6-0.7c-1.1-1.4-2.1-2.8-3.1-4.2
	c-3-4.1-5.9-8.3-8.6-12.6c-1-1.6-2-3.2-3-4.9c-0.8-1.4-1.6-2.7-2.4-4.1c-0.3-0.5-0.5-0.9-0.8-1.4c-0.5-0.8-0.9-1.5-1.3-2.3v-0.1
	h-0.1c-1.5-2.7-3-5.5-4.4-8.2c-4.1-8.8-8.1-17.8-11.4-27c0,0,0-0.1-0.1-0.1c-2.3-6.5-4.4-13-6.2-19.7c-1.6-6.1-3-12.3-4.2-18.7
	c-1.7-9.3-3-18.8-3.6-28.4c-0.2-2.7-0.3-5.3-0.4-8c-0.1-2.9-0.2-5.8-0.2-8.8c0-3.2,0.1-6.4,0.2-9.5c0.7-18.8,3.6-37.1,8.3-54.6
	c0.6-2.1,1.2-4.2,1.8-6.2c1.6-5.4,3.4-10.7,5.4-16c0.9-2.4,1.8-4.8,2.8-7.1c0.9-2.2,1.9-4.4,2.8-6.5c1.4-3.2,3-6.4,4.6-9.6
	c0.2-0.3,0.4-0.7,0.6-1.1c0.8-1.3,1.6-2.7,2.2-4.2c0.4-0.8,0.8-1.7,1.3-2.5c0.3-0.5,0.5-0.9,0.8-1.4c2.4-4.2,4.9-8.4,7.5-12.5
	c3.7-5.8,7.7-11.5,11.9-17c0.1-0.1,0.3-0.3,0.4-0.5c5.7-7.5,11.9-14.6,18.4-21.3c1.7-1.8,3.3-3.5,5-5.2c0.3-0.3,0.5-0.5,0.8-0.7
	c2.5-2.4,5-4.7,7.6-7c3.5-3,6.9-6,10.5-8.8c0.3-0.2,0.5-0.4,0.8-0.6c1.4-1.1,2.8-2.1,4.2-3.2c0.9-0.6,1.7-1.3,2.6-1.9
	c1.2-0.9,2.4-1.8,3.7-2.7c0.4-0.3,0.8-0.6,1.3-0.9s1-0.7,1.5-1c0.1,0,0.2-0.1,0.2-0.1c1.8-1.3,3.7-2.5,5.5-3.7
	c1.1-0.7,2.1-1.3,3.2-2c2.2-1.4,4.4-2.7,6.6-4c1.6-1,3.2-1.9,4.9-2.8c0.5-0.3,0.9-0.5,1.3-0.7c2-1.1,3.9-2.1,5.9-3.1
	c3.6-1.8,7.2-3.5,10.8-5.1c0.9-0.4,1.7-0.7,2.6-1.1c8.3-3.6,16.8-6.8,25.6-9.4c3.8-1.1,7.7-2.2,11.6-3.2c0.5-0.2,1-0.3,1.5-0.4
	c0.7-0.2,1.4-0.3,2.1-0.5c6.9-1.7,13.9-3,21.1-4c0.3,0,0.7-0.1,1-0.1c4.7-0.6,9.4-1.2,14.1-1.5c3.2-0.3,6.3-0.5,9.5-0.6
	c0.6-0.1,1.3-0.1,1.9-0.1c2.8-0.1,5.6-0.1,8.4-0.1h0.4c2.8,0,5.5,0,8.2,0.1c0.6,0.1,1.2,0.1,1.8,0.1c0,0,0.1,0,0.2,0
	c3.1,0.1,6.3,0.3,9.4,0.6c1.8,0.1,3.7,0.3,5.6,0.5c11.1,1.1,21.9,3,32.5,5.7c0.5,0.1,1.1,0.3,1.6,0.4c13.7,3.4,27,8,39.8,13.7
	c1.8,0.8,3.7,1.6,5.5,2.5c5.1,2.5,10.2,5.1,15.1,7.9c2.9,1.6,5.8,3.3,8.7,5.1c1.7,1.1,3.4,2.1,5,3.2c0.4,0.2,0.7,0.4,1.1,0.7
	c1.5,0.9,3,1.9,4.4,2.9c0.4,0.3,0.9,0.6,1.3,0.9c1.2,0.8,2.3,1.6,3.4,2.4c1.7,1.3,3.5,2.6,5.2,3.9c0.2,0.1,0.3,0.3,0.5,0.4
	c1.9,1.4,3.7,2.9,5.5,4.4c2.3,1.9,4.7,3.9,6.9,5.9c4,3.5,7.8,7.2,11.6,11c1.6,1.7,3.2,3.3,4.8,5c1.3,1.4,2.6,2.8,3.9,4.3
	c1.4,1.5,2.8,3.2,4.2,4.8c1.3,1.6,2.6,3.1,3.9,4.7c1.4,1.7,2.7,3.4,4,5.1c0.8,1,1.5,2,2.3,3c2.2,3,4.3,6,6.3,9
	c0.8,1.2,1.6,2.4,2.4,3.6c1.3,1.9,2.5,3.9,3.7,5.9c0.6,1,1.2,1.9,1.7,2.9c1,1.7,2,3.4,2.9,5.1c0.1,0.1,0.2,0.2,0.2,0.3
	c0.1,0,0.1,0.1,0.1,0.1c1.9,3.4,3.7,6.8,5.4,10.3c2.3,4.7,4.4,9.5,6.4,14.3c0.4,1,0.8,2,1.2,3c0.6,1.5,1.2,3.1,1.8,4.6
	c0.2,0.5,0.3,1,0.5,1.5c2,5.3,3.7,10.7,5.3,16.1c0.9,3.3,1.8,6.6,2.6,9.9c0,0,0,0,0,0.1c0.6,2.2,1.1,4.4,1.6,6.7
	c0.2,1.1,0.5,2.2,0.7,3.3c1,4.8,1.8,9.7,2.5,14.6c0.2,0.9,0.3,1.9,0.4,2.8c0.5,3.4,0.8,6.9,1.1,10.4c0,0.1,0,0.1,0,0.2
	c0.3,3.6,0.6,7.2,0.7,10.8v0.1C499.1,242.9,499.2,246.1,498.8,249.3z"/>
<g>
	<g>
		<g>
			<g>
				<path class="st13" d="M174.2,359c1.2,1.7-0.3-0.8-1.3-2.9c-1.1-2.1-1.8-3.6,0.8-0.1c-0.7-1.4-1.7-3-3-4.8
					c-1.2-1.8-2.5-3.8-3.9-5.9c-1.3-2.1-2.7-4.2-3.9-6.2c-1.2-2.1-2.4-4-3.3-5.7c0.3-0.7,1.5,0.4,1.9,0s-0.1-2.1-2.8-8.4
					c-0.9-2.1-1.7-3.7-2.3-4.9c-0.6-1.2-1-2.1-1.4-2.6c-0.7-1.1-1.1-1.2-1.5-1.2c-0.7,0-1.6,0.2-4.7-7.4l2,5.3
					c0.7,1.8,1.4,3.5,2.1,5.3c-3.2-4.8-7.2-13.6-10.3-23.9c-0.8-2.6-1.5-5.2-2.2-7.9c-0.7-2.7-1.3-5.4-1.9-8.1
					c-0.3-1.3-0.5-2.7-0.8-4c-0.2-1.3-0.5-2.7-0.7-4c-0.4-2.6-0.9-5.2-1.2-7.6c-0.2-7.4,0.4-14.5,1.4-22s2.3-15.4,4-24.7
					c-0.1,1.1-0.5,5.7,0.3,4.9c0.3-0.8,0.5-1.8,0.8-2.9c0.3-1.1,0.6-2.2,0.8-3.4c0.4-2.4,1-4.7,1.4-6.5c0.8-4.9,0.2-4.4-0.6-3.1
					c-0.9,1.3-1.8,3.4-1.8,1.4c0.5-2,0.9-4.1,1.5-6.1s1.2-4.1,2-6.3c0.8-2.1,1.7-4.4,2.8-6.6c1.1-2.3,2.4-4.7,4-7.2
					c3.1-3.9,6.4-7.5,9.9-10.9c1.6-4.8,5.5-9.9,11-15.2c5.5-5.2,12.5-10.6,20.6-16.3c0.5-0.1,1.2-0.4,2.1-0.8c0.9-0.4,1.9-0.9,3-1.5
					s2.3-1.3,3.6-2c1.3-0.6,2.7-1.3,4-2c0.7-0.3,1.4-0.7,2-1c0.7-0.3,1.3-0.7,2-0.9c1.3-0.6,2.6-1.1,3.8-1.5
					c0.6-0.2,1.2-0.4,1.7-0.6s1-0.3,1.5-0.4c0.9-0.2,1.7-0.3,2.2-0.2c2.2-0.7,3.5-0.8,4.3-0.6c0.8,0.2,1.1,0.8,1.4,1.4
					c0.5,1.2,0.9,2.5,4.5,2.3c6.2-0.7,4.1-0.1,2,0.5c-1,0.3-2,0.7-2,0.8c0,0.1,1,0,4.1-0.2c-3.2,0.7-5.1,1.1-6.5,1
					c-1.4,0-2.1-0.4-3.1-0.7c-0.9-0.3-2-0.5-4-0.3c-1,0.1-2.2,0.3-3.6,0.8c-1.5,0.5-3.2,1.1-5.3,2l1.1,0.2c-0.8,0.4-1.7,0.9-2.7,1.4
					s-2,1-3.1,1.5c-2.2,0.9-4.3,2.1-6.5,3.2s-4.1,2.4-5.8,3.6c-0.8,0.6-1.6,1.2-2.3,1.7c-0.6,0.6-1.1,1.2-1.5,1.7
					c-4,2.8-5.9,4.3-6.9,4.8s-0.9,0-0.6-0.7c0.6-1.4,2.1-3.8-2.1-1.1c-0.9,1.2-2.5,3.1-4.4,5.4c-1,1.1-1.9,2.4-3,3.6
					c-0.5,0.6-1,1.3-1.5,1.9c-0.5,0.7-1,1.3-1.4,2c-1.9,2.6-3.5,5.2-4.6,7.3s-1.6,3.6-1.3,4c2.8-4.2,6-8.1,9.4-12
					c-1.6,1.9,0,0.7-0.5,1.6c-1,0.8-2.1,2-3.2,3.3c-1,1.4-2.1,3-3.1,4.7c-2,3.4-3.8,7.2-5.2,10.5s-2.4,6.1-3.3,7.5
					c-0.8,1.4-1.5,1.4-2-1c0.6-2,3.3-6.6,3.6-8.2c-0.4,0-1,0.6-1.7,1.5c-0.7,1-1.6,2.4-2.4,4c-0.9,1.6-1.8,3.5-2.6,5.4
					s-1.7,3.9-2.5,5.7c-0.8,4-1.4,8.4-2,13.2c-0.7,4.8-1.4,10.1-2.6,16.2c-0.9,4.2-1.5,1.6-2.2,5.9c0,0.8-0.1,1.6-0.1,2.3
					c0,0.8,0,1.5,0,2.2c0,1.4,0,2.7,0,4c0.1,2.5,0,4.6,0,6.6c0,3.9,0,7.1,0,10.3c0,1.6,0.1,3.2,0.1,4.9c0.1,1.7,0.3,3.6,0.5,5.6
					c0.2,2.1,0.6,4.3,1.1,6.9c0.6,2.6,1.2,5.5,2.2,8.8c1.3,8.5,4.3,17.6,7.9,26.5c3.6,8.9,7.9,17.4,11.5,25.3
					c-0.1-1.4,1.4,0.9,3.3,4.1c0.9,1.6,2,3.3,2.9,4.8c0.4,0.8,0.9,1.5,1.2,2.1c0.4,0.6,0.7,1.1,0.9,1.5c0.9,2.4,5.6,10.7,10.2,15.9
					c-2.5-3.2-1.4-0.9-3.4-3c1.2,1.5,2.3,2.9,3.3,4.1s1.8,2.3,2.6,3.3c1.5,2,2.5,3.5,3.2,4.8c1.4,2.5,1.4,3.7,1.3,4.4
					c-2.1-2.2-3.9-3.8-5.4-5.2c-1.5-1.4-2.8-2.6-4.2-3.9c-1.4-1.2-2.6-2.7-4.2-4.5C177.8,364.4,176.2,362.1,174.2,359z"/>
				<path class="st13" d="M269.3,122.6c-1.7,1,4.9,2,10,3.5c2.6,0.7,4.8,1.4,5.4,1.9c0.3,0.2,0.3,0.4-0.3,0.5c-0.3,0-0.7,0-1.3,0
					c-0.6,0-1.3,0-2.2,0c2.3,0.6,4.2,1.3,6,1.8c0.9,0.3,1.7,0.5,2.5,0.7c0.8,0.3,1.5,0.5,2.2,0.7c1.4,0.4,2.7,0.8,4,1.1
					c1.2,0.4,2.5,0.7,3.8,1.1c-4.9-2.6-4.3-2.3-3-2c1.2,0.4,3.1,1,0.6-0.7c8.3,3,16.3,7,23.5,12c3.6,2.5,7.1,5.1,10.4,7.9
					c3.3,2.8,6.4,5.7,9.4,8.8c11.9,12.3,21.4,26.5,27.4,42c3.6,11.9,5.8,23.4,5.3,35.2c-0.2,5.8-1.2,11.7-2.9,17.4
					c-1.8,5.7-4.3,11.3-7.7,16.4c-2.4,2.9-4.1,4.4-5.1,5c-1,0.6-1.3,0.5-1.2-0.1c0.1-0.6,0.5-1.6,1-2.7c0.4-1.1,0.9-2.3,1.2-3.1
					c-3.8,4.7-8.1,9-12.8,12.6c4.4-4.2,8.3-8.8,11.6-13.8c-0.2-0.5-1.6,0.8-3.3,2.5c-0.9,0.8-1.9,1.8-2.9,2.6
					c-0.5,0.4-1,0.9-1.5,1.2c-0.5,0.4-1,0.7-1.5,1c-1.1,1.2-2.3,2.3-3.5,3.4c0.8-3.6,7.3-8.9,13-16.8c2.9-3.9,5.5-8.4,7.2-13
					c1.7-4.7,2.6-9.4,2.5-13.5c-0.3,4.8-0.7,7-0.7,7.8s0.4,0.1,0.8-0.9c0.2-0.5,0.5-1.1,0.6-1.7c0.2-0.6,0.4-1.1,0.6-1.4
					c0.3-0.6,0.6-0.5,0.5,1.7l0.5-3.1l0.3-3.1c-0.1,1.4-0.1,3.2-0.3,5.2c-0.1,1-0.2,2.2-0.4,3.3c-0.2,1.2-0.3,2.5-0.6,3.8
					c-0.5,2.6-1.3,5.5-2.5,8.5c-1.1,3-2.8,6.2-4.8,9.3c6-8.5,9.5-18.7,10.1-28.9c0.7-10.2-1.3-20.3-4.8-29.5
					c-3.4-9.2-8.2-17.5-13.6-24.9c-2.7-3.7-5.6-7.1-8.5-10.4c-3-3.2-6-6.2-9.1-9c0.9,0.5,2.9,2.1,1.1-0.3c-4.1-4.3-8.1-7.1-11.5-9
					s-6.3-3.1-8.6-4.3c1.5,0.7,3,1.6,4.5,2.5c-2.6-2.6-6.6-5.4-11-7.6c-2.2-1.1-4.5-2.3-6.7-3.2c-1.1-0.5-2.2-1-3.3-1.4
					c-1.1-0.4-2.2-0.8-3.2-1.2c-1-0.6-2-1.2-3-1.7s-2-1-3-1.5s-2-1-3-1.4c-1-0.4-2.1-0.9-3.2-1.3c-2.2-0.9-4.8-1.5-7.7-2.3
					c-1.5-0.3-3.1-0.6-4.8-0.8c-0.9-0.1-1.8-0.3-2.7-0.3c-0.9-0.1-1.9-0.1-2.9-0.2l0.7-0.9l-3.3-0.5c-1.1-0.1-2.2-0.2-3.3-0.3
					l-3.3-0.3l-3.3-0.1c3.3-0.2,2-0.6,1.3-0.8c1-0.3,1.7-0.1,4,0.1c0.2-0.3,0-0.8-0.7-1.2c-0.3-0.2-0.7-0.4-1.2-0.7
					c-0.5-0.2-1.1-0.4-1.7-0.6c-1.3-0.4-2.9-0.8-4.6-1.1c-1.7-0.3-3.6-0.5-5.6-0.6c2.4,0,4.9-0.1,6.6-0.2c-1.6-0.2-4.1-0.2-6.9-0.2
					c-1.4-0.1-2.8,0-4.3,0.1c-1.4,0-2.8,0.1-4,0.1c-5,0.3-7.9,0.3-2.5-1.5c2.3-0.5,4.4-0.6,6.2-0.7c0.9-0.1,1.8-0.1,2.6-0.1
					s1.6,0,2.3,0.1c2.9,0.1,5.2,0.3,7.4,0.8c2.2,0.4,4.3,0.7,7,1.1c1.3,0.2,2.8,0.4,4.4,0.5C265.3,122.2,267.2,122.4,269.3,122.6z"
					/>
				<path class="st13" d="M196.6,144.8c2.7-1.6,4-2,4.3-2s-0.3,0.5-1.1,1.1c-1.7,1.3-4.2,3.4-2.8,3.1c-1.5,1-3.1,2-4.5,3.2
					c-1.4,1.1-3,2.2-4.3,3.4c-0.2-0.1,0.1-0.8,0.8-1.5s1.7-1.7,2.8-2.7c0.5-0.5,1.1-1,1.6-1.5c0.5-0.4,1.1-0.9,1.5-1.3
					C195.8,145.8,196.5,145.1,196.6,144.8z"/>
				<path class="st13" d="M288.1,303.9c-0.3-0.3-1-0.5-2.1-0.8c-0.5-0.1-1.1-0.3-1.8-0.4c-0.7-0.2-1.4-0.3-2.1-0.5
					c-1.5-0.3-3-0.8-4.6-1.3c-1.5-0.5-2.9-1-4.1-1.6c-4.8-1.6-7.7-2.8-11-4.5c-3.2-1.8-6.9-4.1-12-9.3c2.5,1.5,3.3,1.5,3.1,0.7
					s-1.6-2.5-3.2-4.7c-3.4-4.4-7.7-11.1-9.4-15.7c1.9,2.8,4.9,6.5,8.5,10.4c3.6,3.8,7.7,7.7,11.5,11.4c-0.7-0.1,0.7,1.4,2.9,3.2
					c2.2,1.8,5.3,3.7,7.5,4.9c3.7,0.9,2.7-0.6,4.3-0.9c0.4-0.1,0.9-0.1,1.7,0c0.8,0.1,1.9,0.3,3.3,0.5c2.9,0.5,7.4,1.4,14.4,1.6
					c2.6,0.3,7.1,0.1,10.9-0.4c0.9-0.1,1.8-0.2,2.6-0.3c0.8-0.1,1.5-0.2,2.1-0.3c1.2-0.1,1.9,0,1.8,0.4c0.9-0.1,1.8-0.3,2.7-0.6
					c0.8-0.3,1.7-0.7,2.5-1.1s1.7-0.8,2.6-1.1c0.9-0.3,1.8-0.5,2.9-0.6c0.7-0.1,1.4-0.1,2.1-0.2c-5.5,2.6-11.2,4.7-17.2,6
					c-0.7-0.1-2.1-0.2-3.8,0c0.9,0.2,0.1,0.5-1.4,0.9c-0.7,0.2-1.7,0.4-2.7,0.6s-2,0.4-3,0.5c-2,0.4-3.8,0.5-4.3,0.9
					c-0.5,0.3,0.3,0.8,3.4,1.3c8.8,0.1,17.6-1.6,25.8-4.5c1.6-0.4,2.2-0.5,2.2-0.3s-0.7,0.7-1.9,1.3c-2.4,1.2-6.8,2.9-11.6,3.9
					c-7,0.8-10.4,0.6-13.1,0.7c-1.4,0-2.6,0.1-4,0.1c-0.7,0-1.5,0.1-2.4,0.1C290.3,303.9,289.3,303.9,288.1,303.9z"/>
				<path class="st13" d="M348.1,281.5l1.3-0.6c-2.8,2.6-5.8,4.9-8.9,7.1s-6.4,4.1-9.8,5.8c3.2-1.7,6.2-3.6,9.1-5.6
					C342.7,286.1,345.5,283.9,348.1,281.5z"/>
				<path class="st13" d="M227.9,245.8c1.4,4.5,2.2,8.5,4.5,12.7l-1.5,1.2C229.4,255.1,228.4,250.5,227.9,245.8z"/>
				<path class="st13" d="M360.3,204.9c-1.7-2.3-3.9-6.7-6.3-10.9s-5-8.1-6.9-9.6c2.1,3.2,1.7,1.9,2.4,2.5c-1.1-2.2-2.4-4.3-3.7-6.5
					c3.2,3.4,5.8,7.2,8.2,11.2C356.3,195.9,358.4,200.2,360.3,204.9z"/>
				<path class="st13" d="M242.7,201.1c0.8-0.6,1.6-1.2,2.4-1.8c0.8-0.6,1.5-1,2.3-1.5c1.4-1,2.8-1.7,4.1-2.4
					c1.3-0.8,2.5-1.3,3.7-1.9c1.2-0.6,2.4-1.1,3.6-1.5c0.6-0.2,1.2-0.5,1.9-0.7c0.6-0.2,1.3-0.4,2-0.6c0.7-0.2,1.4-0.4,2.1-0.6
					c0.7-0.2,1.5-0.3,2.3-0.4c0.8-0.1,1.6-0.3,2.5-0.4c0.9-0.1,1.8-0.2,2.7-0.2c1.9-0.2,4-0.1,6.4-0.1c2,0.3,0.8,0.5-0.2,0.7
					c-1,0.3-1.8,0.5,1.1,0.6c2.9,0.3,4.7,0.2,6.1,0.2c1.4-0.1,2.5-0.3,3.9-0.3c-0.7-0.3-1.4-0.6-2.2-0.8c2.2,0.7,6.7,1.9,9.7,3.2
					c1.5,0.6,2.5,1.2,2.7,1.6c0.3,0.4-0.3,0.8-2.1,0.9c-5.4-1.2-10.2-1.6-14.6-1.5c-2.2,0.1-4.2,0.2-6.2,0.5c-1,0.2-1.9,0.2-2.9,0.4
					c-0.9,0.2-1.9,0.4-2.8,0.6c-0.9,0.2-1.8,0.4-2.7,0.7c-0.9,0.2-1.8,0.4-2.6,0.7c-1.7,0.6-3.4,1-5.1,1.6c-3.5,1.1-6.9,2.4-10.9,4
					c-1.2-0.1-2.4-0.2-3.6-0.1c-2.9,2.1-5.4,4.6-7.7,7.3c-0.6,0.5-0.8-0.1-2.8,2.9c-1.7,3.4-0.7,2.3,0.7,0.6
					c0.7-0.8,1.7-1.8,2.4-2.4c0.4-0.3,0.7-0.6,1-0.7c0.3-0.1,0.4-0.2,0.5,0c-0.6,0.6-1,1.3-1.5,2c-0.4,0.7-1,1.3-1.3,2.1
					c-0.4,0.7-0.8,1.4-1.2,2.2l-1,2.2c-1.2,3-1.9,6.2-2.2,9.4c-0.5,2.3-0.2-2-0.5-1.4c-1.3,4.5-0.8,8.4-0.2,11.9
					c0.7,3.5,1.6,6.7,1.8,10.8c-1.4-3.7-2.6-7.7-3.2-11.7c0.4,7.4,2,13.7,4,19.3c2,5.6,4.3,10.5,7,15c-4.2-6.2-7.3-12.1-9.8-17.9
					c-1.2-2.9-2.3-5.8-3.1-8.7s-1.5-5.8-1.8-8.8c-0.2-1.5-0.3-3-0.3-4.5c0-0.8,0-1.5,0-2.3s0.1-1.5,0.1-2.3c0.3-3.1,1-6.3,2.1-9.4
					c0.5-1.6,1.3-3.1,2.1-4.6c0.5-0.7,0.9-1.5,1.4-2.2c0.5-0.8,1.1-1.4,1.6-2.1C236.8,205.6,239.6,203.1,242.7,201.1z"/>
			</g>
		</g>
	</g>
</g>
</svg>
