<?xml version="1.0" encoding="utf-8"?>
<!-- Generator: Adobe Illustrator 24.0.1, SVG Export Plug-In . SVG Version: 6.00 Build 0)  -->
<svg version="1.1" id="Layer_1" xmlns="http://www.w3.org/2000/svg" xmlns:xlink="http://www.w3.org/1999/xlink" x="0px" y="0px"
	 viewBox="0 0 512 512" style="enable-background:new 0 0 512 512;" xml:space="preserve">
<style type="text/css">
	.st0{display:none;}
	.st1{display:inline;fill:#200A7F;stroke:#18E5EA;stroke-width:20;stroke-miterlimit:10;}
	.st2{display:inline;fill:#EF0B79;}
	.st3{display:inline;fill:#18E5EA;}
	.st4{display:inline;}
	.st5{fill:#E9F21C;}
	.st6{display:inline;fill:none;}
	.st7{display:inline;fill:#EF3A24;}
	.st8{font-family:'MyriadPro-Regular';}
	.st9{font-size:250px;}
	.st10{display:inline;fill:#FFFFFF;}
	.st11{opacity:0.48;fill:#969696;enable-background:new    ;}
	.st12{fill:url(#SVGID_1_);}
	.st13{fill:none;}
	.st14{fill:none;stroke:#E2E2E2;stroke-width:7;stroke-miterlimit:10;}
	.st15{opacity:0.5;fill:none;stroke:#E2E2E2;stroke-width:7;stroke-miterlimit:10;enable-background:new    ;}
	.st16{opacity:0.5;stroke:#E2E2E2;stroke-width:7;stroke-miterlimit:10;enable-background:new    ;}
	.st17{font-size:65.9142px;}
</style>
<g id="Layer_3" class="st0">
	<path class="st1" d="M401.1,212.2c5.1,15.3,7.9,31.7,7.9,48.8c0,85.3-69.2,154.5-154.5,154.5S100,346.3,100,261
		s69.2-154.5,154.5-154.5c51.2,0,96.6,24.9,124.7,63.3"/>
	<path class="st2" d="M333.4,255.2c0,4.2-3.3,7.7-7.4,7.7H174.9c-4.1,0-7.4-3.4-7.4-7.7l0,0c0-4.2,3.3-7.7,7.4-7.7H326
		C330.1,247.5,333.4,250.9,333.4,255.2L333.4,255.2z"/>
	<path class="st2" d="M333.4,284.8c0,4.2-3.3,7.6-7.4,7.6H174.9c-4.1,0-7.4-3.4-7.4-7.6l0,0c0-4.2,3.3-7.6,7.4-7.6H326
		C330.1,277.1,333.4,280.6,333.4,284.8L333.4,284.8z"/>
	<path class="st2" d="M333.4,313c0,4.2-3.3,7.7-7.4,7.7H174.9c-4.1,0-7.4-3.4-7.4-7.7l0,0c0-4.2,3.3-7.6,7.4-7.6H326
		C330.1,305.4,333.4,308.8,333.4,313L333.4,313z"/>
	<path class="st2" d="M333.4,338.4c0,4.2-3.3,7.7-7.4,7.7H174.9c-4.1,0-7.4-3.4-7.4-7.7l0,0c0-4.2,3.3-7.6,7.4-7.6H326
		C330.1,330.7,333.4,334.1,333.4,338.4L333.4,338.4z"/>
	<polygon class="st3" points="395,191.5 320.2,165.2 380.4,113.5 	"/>
	<g class="st4">
		<g>
			<g>
				<path class="st5" d="M241.5,239.2c-2.3,0-4.4-1.1-5.8-2.9l-18.8-24.8c-2.4-3.2-1.8-7.8,1.4-10.3c3.2-2.4,7.8-1.8,10.3,1.4
					l12.3,16.3l31-49.8c2.1-3.4,6.6-4.5,10.1-2.3c3.4,2.1,4.5,6.6,2.3,10.1l-36.7,58.9c-1.3,2-3.5,3.3-5.9,3.4
					C241.7,239.2,241.6,239.2,241.5,239.2z"/>
			</g>
		</g>
	</g>
</g>
<g id="Layer_2_2_" class="st0">
	<rect x="121" y="171.5" class="st6" width="298" height="251"/>
	<text transform="matrix(1 0 0 1 121 348.9979)" class="st7 st8 st9">24</text>
	<circle class="st10" cx="138.3" cy="91.8" r="17.3"/>
	<circle class="st10" cx="185.3" cy="91.8" r="17.3"/>
	<circle class="st10" cx="232.3" cy="91.8" r="17.3"/>
	<circle class="st10" cx="278.3" cy="91.8" r="17.3"/>
	<circle class="st10" cx="323.3" cy="91.8" r="17.3"/>
	<circle class="st10" cx="368.3" cy="91.8" r="17.3"/>
</g>
<circle class="st11" cx="255.6" cy="260.3" r="244.6"/>
<linearGradient id="SVGID_1_" gradientUnits="userSpaceOnUse" x1="9.9" y1="249.25" x2="499.0894" y2="249.25">
	<stop  offset="0" style="stop-color:#2BC4F3"/>
	<stop  offset="0.5" style="stop-color:#00AEEE"/>
	<stop  offset="1" style="stop-color:#0095DA"/>
</linearGradient>
<path class="st12" d="M498.8,249.3c0,2.9,0,5.9-0.2,8.8c0,1.2-0.1,2.4-0.1,3.6c-0.1,2-0.2,4-0.4,5.9c-0.2,3.5-0.6,7.1-1,10.6
	c-0.1,0.8-0.2,1.7-0.3,2.5c-0.2,1.6-0.4,3.2-0.7,4.8c-0.5,3.2-1,6.3-1.6,9.4c-0.2,1.3-0.5,2.7-0.8,4c-0.1,0.4-0.1,0.8-0.2,1.1
	c0,0,0,0.1,0,0.2c-0.1,0.5-0.2,0.9-0.3,1.4c-0.8,3.5-1.6,6.9-2.5,10.4c-0.9,3.2-1.8,6.4-2.8,9.6c-0.7,2.6-1.6,5.2-2.5,7.8
	c-0.1,0.3-0.2,0.7-0.4,1c-0.1,0.2-0.2,0.5-0.3,0.7c0,0.2-0.1,0.3-0.2,0.5c0,0.1-0.1,0.2-0.1,0.3c-1.6,4.6-3.4,9.1-5.4,13.7
	c-0.3,0.8-0.7,1.6-1,2.4c-0.3,0.6-0.5,1.2-0.8,1.8c-0.3,0.8-0.7,1.6-1.1,2.4c0,0,0,0,0,0.1c-0.4,1-0.9,2-1.4,3
	c-0.2,0.5-0.4,0.9-0.6,1.4c-0.7,1.3-1.4,2.7-2.1,4.1c0,0.1,0,0.1-0.1,0.2c0,0,0,0.1,0,0.1c-0.2,0.4-0.4,0.8-0.6,1.2c0,0,0,0,0,0.1
	c-0.5,0.9-0.9,1.8-1.5,2.7c-0.1,0.1-0.1,0.2-0.2,0.3c-0.5,0.8-0.9,1.7-1.4,2.5c-0.1,0.2-0.1,0.3-0.2,0.4c-0.1,0.1-0.1,0.3-0.2,0.4
	c-0.8,1.5-1.7,3-2.6,4.5c-0.2,0.3-0.4,0.6-0.6,1c-0.2,0.3-0.4,0.7-0.6,1c-0.1,0.2-0.3,0.5-0.4,0.7c0,0-0.1,0.1-0.1,0.2
	c-0.9,1.5-1.8,3-2.8,4.5c-0.9,1.3-1.8,2.7-2.7,4c-0.9,1.3-1.8,2.7-2.7,4c-0.1,0.1-0.1,0.2-0.2,0.3c-0.2,0.3-0.4,0.5-0.5,0.8v0.1
	c-0.2,0.4-0.5,0.8-0.8,1.1c-0.9,1.3-1.9,2.6-2.8,3.9c-0.7,1-1.5,2.1-2.3,3.1c0,0.1-0.1,0.1-0.1,0.2c-1,1.3-1.9,2.5-2.9,3.8
	c-0.9,1.1-1.8,2.2-2.7,3.3c-1.9,2.2-3.8,4.4-5.7,6.6c-1.2,1.4-2.4,2.7-3.7,4.1c-0.6,0.7-1.2,1.3-1.8,2c-0.9,1-1.8,1.9-2.7,2.8
	c-2.1,2.1-4.1,4.1-6.2,6.1c-0.1,0.1-0.1,0.1-0.1,0.1l-0.5,0.5c-0.2,0.2-0.4,0.4-0.7,0.6l-0.1,0.1c-0.1,0.1-0.2,0.2-0.3,0.3
	c-1.7,1.6-3.4,3.1-5.2,4.7c-0.4,0.4-0.8,0.8-1.2,1.1c-0.4,0.5-0.9,0.9-1.4,1.3l-0.1,0.1c-0.1,0.2-0.3,0.3-0.5,0.5
	c-2.8,2.3-5.6,4.6-8.5,6.9c-1.4,1.1-2.8,2.2-4.3,3.3c-1,0.7-2,1.4-3,2.1c-1.4,1-2.8,1.9-4.1,2.9c0,0,0,0-0.1,0
	c-0.1,0.1-0.1,0.1-0.2,0.2c0,0,0,0-0.1,0.1h-0.1c-1,0.6-1.9,1.3-2.9,1.9c-2,1.3-4,2.6-6,3.8c-1.3,0.7-2.5,1.5-3.7,2.2
	c-1.7,1-3.5,2-5.2,3c-3.1,1.8-6.4,3.5-9.6,5.2c-0.8,0.4-1.6,0.8-2.4,1.2c-7.6,3.8-15.5,7.2-23.7,10.2c-0.2,0.1-0.4,0.1-0.6,0.2
	c-0.4,0.1-0.7,0.3-1.1,0.4c-1.1,0.4-2.2,0.8-3.2,1.1c-1.3,0.4-2.7,0.9-4,1.3c-2.7,0.9-5.4,1.7-8.2,2.5c-3.2,0.9-6.3,1.7-9.5,2.5
	c-17.3,4.2-35.3,6.5-53.8,6.9c-1.4,0-2.9,0-4.4,0H253c-7-0.1-14-0.4-20.8-1c-4.5-0.4-8.8-0.9-13.1-1.5c-1.4-0.2-2.8-0.4-4.2-0.7
	c-5.7-0.9-11.4-2-17-3.3c-0.5-0.1-1.1-0.3-1.6-0.4c-3-0.8-6-1.5-9-2.4c-7.7-2.2-15.3-4.8-22.7-7.7c-5.2-2-10.3-4.3-15.3-6.7
	c-0.1,0-0.2-0.1-0.3-0.1c-0.6-0.3-1.3-0.6-1.9-1c-1.7-0.8-3.4-1.7-5.1-2.6s-3.3-1.7-5-2.7c-2.5-1.3-5-2.7-7.4-4.2
	c-0.1,0-0.1-0.1-0.2-0.1c-1.4-0.8-2.8-1.6-4.2-2.5c0-0.1-0.1-0.2-0.2-0.2c-1-0.6-1.9-1.2-2.8-1.8c-1.3-0.9-2.6-1.7-3.9-2.6
	c0,0,0,0-0.1,0c-2.5-1.7-4.9-3.4-7.3-5.1c-1.2-0.9-2.3-1.7-3.5-2.6c-2-1.5-3.9-3-5.9-4.6c-1.1-0.9-2.3-1.9-3.4-2.8
	c-1.1-0.9-2.2-1.9-3.3-2.8c-0.7-0.6-1.4-1.2-2.1-1.9c-1.4-1.2-2.7-2.4-4.1-3.6l-0.1-0.1c0,0,0,0-0.1,0c-0.1-0.1-0.2-0.2-0.3-0.2
	l-0.2-0.2c-2.1-1.9-4.2-3.9-6.2-5.9c-3.5-3.5-7-7.1-10.3-10.9c-1.3-1.4-2.5-2.9-3.7-4.3c-2.5-3-5-6-7.4-9.1l-0.6-0.7
	c-1.1-1.4-2.1-2.8-3.1-4.2c-3-4.1-5.9-8.3-8.6-12.6c-1-1.6-2-3.2-3-4.9c-0.8-1.4-1.6-2.7-2.4-4.1c-0.3-0.5-0.5-0.9-0.8-1.4
	c-0.5-0.8-0.9-1.5-1.3-2.3V368h-0.1c-1.5-2.7-3-5.5-4.4-8.2c-4.1-8.8-8.1-17.8-11.4-27c0,0,0-0.1-0.1-0.1
	c-2.1-6.1-4.1-12.1-5.8-18.3c-0.1-0.5-0.3-0.9-0.4-1.4c-1.6-6.1-3-12.3-4.2-18.7c-1.7-9.3-3-18.8-3.6-28.4c-0.1-1.4-0.2-2.8-0.3-4.3
	c-0.1-1.2-0.1-2.5-0.2-3.8c-0.1-2.9-0.2-5.8-0.2-8.8c0-3.2,0.1-6.4,0.2-9.5c0.1-2.7,0.3-5.4,0.4-8.1c1.1-15.9,3.8-31.5,7.9-46.5
	c0.6-2.1,1.2-4.2,1.8-6.2c1.6-5.4,3.4-10.7,5.4-16c0.9-2.4,1.8-4.8,2.8-7.1c0.9-2.2,1.9-4.4,2.8-6.5c0-0.1,0-0.1,0.1-0.2
	c1.4-3.1,2.9-6.3,4.5-9.4c0.2-0.3,0.4-0.7,0.6-1.1c0.8-1.3,1.6-2.7,2.2-4.2c0.4-0.8,0.8-1.7,1.3-2.5c0.3-0.5,0.5-0.9,0.8-1.4
	c1.2-2,2.3-4.1,3.5-6.1c1.3-2.2,2.6-4.3,4-6.4c3.7-5.8,7.7-11.5,11.9-17c0.1-0.1,0.3-0.3,0.4-0.5c5.7-7.5,11.9-14.6,18.4-21.3
	c1.7-1.8,3.3-3.5,5-5.2c0.3-0.3,0.5-0.5,0.8-0.7c2.5-2.4,5-4.7,7.6-7c0.1-0.1,0.2-0.2,0.4-0.3c3.4-2.9,6.7-5.8,10.1-8.5
	c0.3-0.2,0.5-0.4,0.8-0.6c1.4-1.1,2.8-2.1,4.2-3.2c0.9-0.6,1.7-1.3,2.6-1.9c1.2-0.9,2.4-1.8,3.7-2.7c0.4-0.3,0.8-0.6,1.3-0.9
	c0.5-0.3,1-0.7,1.5-1c0.1,0,0.2-0.1,0.2-0.1c1.8-1.3,3.7-2.5,5.5-3.7c1.1-0.7,2.1-1.3,3.2-2c2.2-1.4,4.4-2.7,6.6-4
	c1.6-1,3.2-1.9,4.9-2.8c0.5-0.3,0.9-0.5,1.3-0.7c2-1.1,3.9-2.1,5.9-3.1c3.6-1.8,7.2-3.5,10.8-5.1c0.9-0.4,1.7-0.7,2.6-1.1
	c8.3-3.6,16.8-6.8,25.6-9.4c3.8-1.1,7.7-2.2,11.6-3.2c0.5-0.2,1-0.3,1.5-0.4c0.7-0.2,1.4-0.3,2.1-0.5c6.7-1.6,13.4-2.9,20.4-3.9
	c0.2,0,0.5-0.1,0.7-0.1c0.3,0,0.7-0.1,1-0.1c4.7-0.6,9.4-1.2,14.1-1.5c3.2-0.3,6.3-0.5,9.5-0.6c0.6-0.1,1.3-0.1,1.9-0.1
	c2.8-0.1,5.6-0.1,8.4-0.1h0.4c2.8,0,5.5,0,8.2,0.1c0.6,0.1,1.2,0.1,1.8,0.1c0,0,0.1,0,0.2,0c3.1,0.1,6.3,0.3,9.4,0.6
	c1.8,0.1,3.7,0.3,5.6,0.5c11.1,1.1,21.9,3,32.5,5.7c0.5,0.1,1.1,0.3,1.6,0.4c8.3,2.1,16.5,4.6,24.6,7.5c5.1,1.9,10.2,3.9,15.2,6.2
	c1.8,0.8,3.7,1.6,5.5,2.5c5.1,2.5,10.2,5.1,15.1,7.9c2.9,1.6,5.8,3.3,8.7,5.1c1.7,1.1,3.4,2.1,5,3.2c0.4,0.2,0.7,0.4,1.1,0.7
	c1.5,0.9,3,1.9,4.4,2.9c0.4,0.3,0.9,0.6,1.3,0.9c1.2,0.8,2.3,1.6,3.4,2.4c1.7,1.3,3.5,2.6,5.2,3.9c0.2,0.1,0.3,0.3,0.5,0.4
	c1.9,1.4,3.7,2.9,5.5,4.4c2.3,1.9,4.7,3.9,6.9,5.9c4,3.5,7.8,7.2,11.6,11c1.6,1.7,3.2,3.3,4.8,5c1.3,1.4,2.6,2.8,3.9,4.3
	c1.4,1.5,2.8,3.2,4.2,4.8c1.3,1.6,2.6,3.1,3.9,4.7c1.4,1.7,2.7,3.4,4,5.1c0.5,0.6,0.9,1.1,1.3,1.7c0.3,0.4,0.7,0.9,1,1.3
	c1.3,1.7,2.5,3.5,3.7,5.2c0.9,1.3,1.8,2.5,2.6,3.8c0.8,1.2,1.6,2.4,2.4,3.6c1.3,1.9,2.5,3.9,3.7,5.9c0.4,0.7,0.8,1.4,1.2,2
	c0.2,0.3,0.3,0.6,0.5,0.9c0.7,1.1,1.4,2.3,2,3.5c0,0,0.1,0.1,0.1,0.2c0.3,0.5,0.5,1,0.8,1.5c0.1,0.1,0.2,0.2,0.2,0.3
	c0.1,0,0.1,0.1,0.1,0.1c0.1,0.1,0.1,0.3,0.2,0.4c0,0.1,0.1,0.1,0.1,0.2c1.5,2.7,3,5.5,4.4,8.3c0.1,0.1,0.1,0.3,0.2,0.4
	c0.2,0.3,0.4,0.7,0.5,1c0.2,0.4,0.4,0.8,0.6,1.2c0.2,0.3,0.3,0.6,0.5,0.9c1,2.1,1.9,4.2,2.8,6.2c0,0.1,0.1,0.1,0.1,0.2
	c0.6,1.2,1.1,2.5,1.6,3.7c0.1,0.3,0.3,0.7,0.4,1c0.1,0.3,0.3,0.7,0.4,1c0.4,1,0.8,2,1.2,3c0.5,1.2,1,2.6,1.5,3.8
	c0.1,0.3,0.2,0.5,0.3,0.8c0.2,0.5,0.3,1,0.5,1.5c0.2,0.5,0.4,1,0.5,1.5c0.1,0.4,0.3,0.7,0.4,1.1c1.4,3.8,2.6,7.6,3.7,11.4
	c0.2,0.7,0.4,1.4,0.6,2.1c0.9,3.3,1.8,6.6,2.6,9.9c0,0,0,0,0,0.1c0.6,2.2,1.1,4.4,1.6,6.7c0.2,1.1,0.5,2.2,0.7,3.3
	c0.7,3.3,1.3,6.5,1.8,9.9c0.3,1.6,0.5,3.2,0.7,4.7c0.2,0.9,0.3,1.9,0.4,2.8c0.5,3.4,0.8,6.9,1.1,10.4c0,0.1,0,0.1,0,0.2
	c0.3,3.6,0.6,7.2,0.7,10.8v0.1C499.1,242.9,499.2,246.1,498.8,249.3z"/>
<rect x="87.6" y="252.2" class="st13" width="480.5" height="288"/>
<g>
	<path class="st14" d="M465.1,124.3H44.3c1.3-2.2,2.6-4.3,4-6.4c3.7-5.8,7.7-11.5,11.9-17c0.1-0.1,0.3-0.3,0.4-0.5
		c5.7-7.5,11.9-14.6,18.4-21.3c1.7-1.8,3.3-3.5,5-5.2c0.3-0.3,0.5-0.5,0.8-0.7c2.5-2.4,5-4.7,7.6-7c0.1-0.1,0.2-0.2,0.4-0.3
		c3.4-2.9,6.7-5.8,10.1-8.5c0.3-0.2,0.5-0.4,0.8-0.6c1.4-1.1,2.8-2.1,4.2-3.2c0.9-0.6,1.7-1.3,2.6-1.9c1.2-0.9,2.4-1.8,3.7-2.7
		c0.4-0.3,0.8-0.6,1.3-0.9c0.5-0.3,1-0.7,1.5-1c0.1,0,0.2-0.1,0.2-0.1c1.8-1.3,3.7-2.5,5.5-3.7c1.1-0.7,2.1-1.3,3.2-2
		c2.2-1.4,4.4-2.7,6.6-4c1.6-1,3.2-1.9,4.9-2.8c0.5-0.3,0.9-0.5,1.3-0.7c2-1.1,3.9-2.1,5.9-3.1c3.6-1.8,7.2-3.5,10.8-5.1
		c0.9-0.4,1.7-0.7,2.6-1.1c8.3-3.6,16.8-6.8,25.6-9.4c3.8-1.1,7.7-2.2,11.6-3.2c0.5-0.2,1-0.3,1.5-0.4c0.7-0.2,1.4-0.3,2.1-0.5
		c6.7-1.6,13.4-2.9,20.4-3.9c0.2,0,0.5-0.1,0.7-0.1c0.3,0,0.7-0.1,1-0.1c4.7-0.6,9.4-1.2,14.1-1.5c3.2-0.3,6.3-0.5,9.5-0.6
		c0.6-0.1,1.3-0.1,1.9-0.1c2.8-0.1,5.6-0.1,8.4-0.1h0.4c2.8,0,5.5,0,8.2,0.1c0.6,0.1,1.2,0.1,1.8,0.1c0,0,0.1,0,0.2,0
		c3.1,0.1,6.3,0.3,9.4,0.6c1.8,0.1,3.7,0.3,5.6,0.5c11.1,1.1,21.9,3,32.5,5.7c0.5,0.1,1.1,0.3,1.6,0.4c8.3,2.1,16.5,4.6,24.6,7.5
		c5.1,1.9,10.2,3.9,15.2,6.2c1.8,0.8,3.7,1.6,5.5,2.5c5.1,2.5,10.2,5.1,15.1,7.9c2.9,1.6,5.8,3.3,8.7,5.1c1.7,1.1,3.4,2.1,5,3.2
		c0.4,0.2,0.7,0.4,1.1,0.7c1.5,0.9,3,1.9,4.4,2.9c0.4,0.3,0.9,0.6,1.3,0.9c1.2,0.8,2.3,1.6,3.4,2.4c1.7,1.3,3.5,2.6,5.2,3.9
		c0.2,0.1,0.3,0.3,0.5,0.4c1.9,1.4,3.7,2.9,5.5,4.4c2.3,1.9,4.7,3.9,6.9,5.9c4,3.5,7.8,7.2,11.6,11c1.6,1.7,3.2,3.3,4.8,5
		c1.3,1.4,2.6,2.8,3.9,4.3c1.4,1.5,2.8,3.2,4.2,4.8c1.3,1.6,2.6,3.1,3.9,4.7c1.4,1.7,2.7,3.4,4,5.1c0.5,0.6,0.9,1.1,1.3,1.7
		c0.3,0.4,0.7,0.9,1,1.3c1.3,1.7,2.5,3.5,3.7,5.2c0.9,1.3,1.8,2.5,2.6,3.8c0.8,1.2,1.6,2.4,2.4,3.6c1.3,1.9,2.5,3.9,3.7,5.9
		C464.3,123,464.7,123.7,465.1,124.3z"/>
	<path class="st14" d="M498.8,249.3c0,2.9,0,5.9-0.2,8.8c0,1.2-0.1,2.4-0.1,3.6H10.3c-0.1-1.2-0.1-2.5-0.2-3.8
		c-0.1-2.9-0.2-5.8-0.2-8.8c0-3.2,0.1-6.4,0.2-9.5c0.1-2.7,0.3-5.4,0.4-8.1c1.1-15.9,3.8-31.5,7.9-46.5c0.6-2.1,1.2-4.2,1.8-6.2
		c1.6-5.4,3.4-10.7,5.4-16c0.9-2.4,1.8-4.8,2.8-7.1c0.9-2.2,1.9-4.4,2.8-6.5c0-0.1,0-0.1,0.1-0.2c1.4-3.1,2.9-6.3,4.5-9.4
		c0.2-0.3,0.4-0.7,0.6-1.1c0.8-1.3,1.6-2.7,2.2-4.2c0.4-0.8,0.8-1.7,1.3-2.5c0.3-0.5,0.5-0.9,0.8-1.4c1.2-2,2.3-4.1,3.5-6.1h420.9
		c0.2,0.3,0.3,0.6,0.5,0.9c0.7,1.1,1.4,2.3,2,3.5c0,0,0.1,0.1,0.1,0.2c0.3,0.5,0.5,1,0.8,1.5c0.1,0.1,0.2,0.2,0.2,0.3
		c0.1,0,0.1,0.1,0.1,0.1c0.1,0.1,0.1,0.3,0.2,0.4c0,0.1,0.1,0.1,0.1,0.2c1.5,2.7,3,5.5,4.4,8.3c0.1,0.1,0.1,0.3,0.2,0.4
		c0.2,0.3,0.4,0.7,0.5,1c0.2,0.4,0.4,0.8,0.6,1.2c0.2,0.3,0.3,0.6,0.5,0.9c1,2.1,1.9,4.2,2.8,6.2c0,0.1,0.1,0.1,0.1,0.2
		c0.6,1.2,1.1,2.5,1.6,3.7c0.1,0.3,0.3,0.7,0.4,1c0.1,0.3,0.3,0.7,0.4,1c0.4,1,0.8,2,1.2,3c0.5,1.2,1,2.6,1.5,3.8
		c0.1,0.3,0.2,0.5,0.3,0.8c0.2,0.5,0.3,1,0.5,1.5c0.2,0.5,0.4,1,0.5,1.5c0.1,0.4,0.3,0.7,0.4,1.1c1.4,3.8,2.6,7.6,3.7,11.4
		c0.2,0.7,0.4,1.4,0.6,2.1c0.9,3.3,1.8,6.6,2.6,9.9c0,0,0,0,0,0.1c0.6,2.2,1.1,4.4,1.6,6.7c0.2,1.1,0.5,2.2,0.7,3.3
		c0.7,3.3,1.3,6.5,1.8,9.9c0.3,1.6,0.5,3.2,0.7,4.7c0.2,0.9,0.3,1.9,0.4,2.8c0.5,3.4,0.8,6.9,1.1,10.4c0,0.1,0,0.1,0,0.2
		c0.3,3.6,0.6,7.2,0.7,10.8v0.1C499.1,242.9,499.2,246.1,498.8,249.3z"/>
	<path class="st14" d="M498.5,261.7c-0.1,2-0.2,4-0.4,5.9c-0.2,3.5-0.6,7.1-1,10.6c-0.1,0.8-0.2,1.7-0.3,2.5
		c-0.2,1.6-0.4,3.2-0.7,4.8c-0.5,3.2-1,6.3-1.6,9.4c-0.2,1.3-0.5,2.7-0.8,4c-0.1,0.4-0.1,0.8-0.2,1.1c0,0,0,0.1,0,0.2
		c-0.1,0.5-0.2,0.9-0.3,1.4c-0.8,3.5-1.6,6.9-2.5,10.4c-0.9,3.2-1.8,6.4-2.8,9.6c-0.7,2.6-1.6,5.2-2.5,7.8c-0.1,0.3-0.2,0.7-0.4,1
		c-0.1,0.2-0.2,0.5-0.3,0.7c0,0.2-0.1,0.3-0.2,0.5c0,0.1-0.1,0.2-0.1,0.3c-1.6,4.6-3.4,9.1-5.4,13.7c-0.3,0.8-0.7,1.6-1,2.4
		c-0.3,0.6-0.5,1.2-0.8,1.8c-0.3,0.8-0.7,1.6-1.1,2.4c0,0,0,0,0,0.1c-0.4,1-0.9,2-1.4,3c-0.2,0.5-0.4,0.9-0.6,1.4
		c-0.7,1.3-1.4,2.7-2.1,4.1c0,0.1,0,0.1-0.1,0.2c0,0,0,0.1,0,0.1c-0.2,0.4-0.4,0.8-0.6,1.2c0,0,0,0,0,0.1c-0.5,0.9-0.9,1.8-1.5,2.7
		c-0.1,0.1-0.1,0.2-0.2,0.3c-0.5,0.8-0.9,1.7-1.4,2.5c-0.1,0.2-0.1,0.3-0.2,0.4c-0.1,0.1-0.1,0.3-0.2,0.4c-0.8,1.5-1.7,3-2.6,4.5
		c-0.2,0.3-0.4,0.6-0.6,1c-0.2,0.3-0.4,0.7-0.6,1c-0.1,0.2-0.3,0.5-0.4,0.7c0,0-0.1,0.1-0.1,0.2c-0.9,1.5-1.8,3-2.8,4.5
		c-0.9,1.3-1.8,2.7-2.7,4c-0.9,1.3-1.8,2.7-2.7,4c-0.1,0.1-0.1,0.2-0.2,0.3c-0.2,0.3-0.4,0.5-0.5,0.8v0.1c-0.2,0.4-0.5,0.8-0.8,1.1
		c-0.9,1.3-1.9,2.6-2.8,3.9c-0.7,1-1.5,2.1-2.3,3.1c0,0.1-0.1,0.1-0.1,0.2c-1,1.3-1.9,2.5-2.9,3.8c-0.9,1.1-1.8,2.2-2.7,3.3
		c-1.9,2.2-3.8,4.4-5.7,6.6h-366c-1.3-1.4-2.5-2.9-3.7-4.3c-2.5-3-5-6-7.4-9.1l-0.6-0.7c-1.1-1.4-2.1-2.8-3.1-4.2
		c-3-4.1-5.9-8.3-8.6-12.6c-1-1.6-2-3.2-3-4.9c-0.8-1.4-1.6-2.7-2.4-4.1c-0.3-0.5-0.5-0.9-0.8-1.4c-0.5-0.8-0.9-1.5-1.3-2.3V368
		h-0.1c-1.5-2.7-3-5.5-4.4-8.2c-4.1-8.8-8.1-17.8-11.4-27c0,0,0-0.1-0.1-0.1c-2.1-6.1-4.1-12.1-5.8-18.3c-0.1-0.5-0.3-0.9-0.4-1.4
		c-1.6-6.1-3-12.3-4.2-18.7c-1.7-9.3-3-18.8-3.6-28.4c-0.1-1.4-0.2-2.8-0.3-4.3H498.5z"/>
	<path class="st14" d="M437.4,411.7c-1.2,1.4-2.4,2.7-3.7,4.1c-0.6,0.7-1.2,1.3-1.8,2c-0.9,1-1.8,1.9-2.7,2.8
		c-2.1,2.1-4.1,4.1-6.2,6.1c-0.1,0.1-0.1,0.1-0.1,0.1l-0.5,0.5c-0.2,0.2-0.4,0.4-0.7,0.6l-0.1,0.1c-0.1,0.1-0.2,0.2-0.3,0.3
		c-1.7,1.6-3.4,3.1-5.2,4.7c-0.4,0.4-0.8,0.8-1.2,1.1c-0.4,0.5-0.9,0.9-1.4,1.3l-0.1,0.1c-0.1,0.2-0.3,0.3-0.5,0.5
		c-2.8,2.3-5.6,4.6-8.5,6.9c-1.4,1.1-2.8,2.2-4.3,3.3c-1,0.7-2,1.4-3,2.1c-1.4,1-2.8,1.9-4.1,2.9c0,0,0,0-0.1,0
		c-0.1,0.1-0.1,0.1-0.2,0.2c0,0,0,0-0.1,0.1h-0.1c-1,0.6-1.9,1.3-2.9,1.9c-2,1.3-4,2.6-6,3.8c-1.3,0.7-2.5,1.5-3.7,2.2
		c-1.7,1-3.5,2-5.2,3c-3.1,1.8-6.4,3.5-9.6,5.2c-0.8,0.4-1.6,0.8-2.4,1.2c-7.6,3.8-15.5,7.2-23.7,10.2c-0.2,0.1-0.4,0.1-0.6,0.2
		c-0.4,0.1-0.7,0.3-1.1,0.4c-1.1,0.4-2.2,0.8-3.2,1.1c-1.3,0.4-2.7,0.9-4,1.3c-2.7,0.9-5.4,1.7-8.2,2.5c-3.2,0.9-6.3,1.7-9.5,2.5
		c-17.3,4.2-35.3,6.5-53.8,6.9c-1.4,0-2.9,0-4.4,0H253c-7-0.1-14-0.4-20.8-1c-4.5-0.4-8.8-0.9-13.1-1.5c-1.4-0.2-2.8-0.4-4.2-0.7
		c-5.7-0.9-11.4-2-17-3.3c-0.5-0.1-1.1-0.3-1.6-0.4c-3-0.8-6-1.5-9-2.4c-7.7-2.2-15.3-4.8-22.7-7.7c-5.2-2-10.3-4.3-15.3-6.7
		c-0.1,0-0.2-0.1-0.3-0.1c-0.6-0.3-1.3-0.6-1.9-1c-1.7-0.8-3.4-1.7-5.1-2.6s-3.3-1.7-5-2.7c-2.5-1.3-5-2.7-7.4-4.2
		c-0.1,0-0.1-0.1-0.2-0.1c-1.4-0.8-2.8-1.6-4.2-2.5c0-0.1-0.1-0.2-0.2-0.2c-1-0.6-1.9-1.2-2.8-1.8c-1.3-0.9-2.6-1.7-3.9-2.6
		c0,0,0,0-0.1,0c-2.5-1.7-4.9-3.4-7.3-5.1c-1.2-0.9-2.3-1.7-3.5-2.6c-2-1.5-3.9-3-5.9-4.6c-1.1-0.9-2.3-1.9-3.4-2.8
		c-1.1-0.9-2.2-1.9-3.3-2.8c-0.7-0.6-1.4-1.2-2.1-1.9c-1.4-1.2-2.7-2.4-4.1-3.6l-0.1-0.1c0,0,0,0-0.1,0c-0.1-0.1-0.2-0.2-0.3-0.2
		l-0.2-0.2c-2.1-1.9-4.2-3.9-6.2-5.9c-3.5-3.5-7-7.1-10.3-10.9H437.4z"/>
	<path class="st14" d="M452.4,537c-0.2,0-0.5,0.1-0.6,0.1c-0.2,0-0.6,0.1-0.8,0.1C451.3,537.1,451.9,537.1,452.4,537z"/>
	<line class="st15" x1="36.7" y1="124.3" x2="36.6" y2="124.3"/>
	<path class="st15" d="M92.7,65.9v366.7c-1.4-1.2-2.7-2.4-4.1-3.6l-0.1-0.1c0,0,0,0-0.1,0c-0.1-0.1-0.2-0.2-0.3-0.2l-0.2-0.2
		c-2.1-1.9-4.2-3.9-6.2-5.9c-3.5-3.5-7-7.1-10.3-10.9c-1.3-1.4-2.5-2.9-3.7-4.3c-2.5-3-5-6-7.4-9.1l-0.6-0.7
		c-1.1-1.4-2.1-2.8-3.1-4.2c-3-4.1-5.9-8.3-8.6-12.6c-1-1.6-2-3.2-3-4.9c-0.8-1.4-1.6-2.7-2.4-4.1c-0.3-0.5-0.5-0.9-0.8-1.4
		c-0.5-0.8-0.9-1.5-1.3-2.3V368h-0.1c-1.5-2.7-3-5.5-4.4-8.2c-4.1-8.8-8.1-17.8-11.4-27c0,0,0-0.1-0.1-0.1
		c-2.1-6.1-4.1-12.1-5.8-18.3c-0.1-0.5-0.3-0.9-0.4-1.4c-1.6-6.1-3-12.3-4.2-18.7c-1.7-9.3-3-18.8-3.6-28.4
		c-0.1-1.4-0.2-2.8-0.3-4.3c-0.1-1.2-0.1-2.5-0.2-3.8c-0.1-2.9-0.2-5.8-0.2-8.8c0-3.2,0.1-6.4,0.2-9.5c0.1-2.7,0.3-5.4,0.4-8.1
		c1.1-15.9,3.8-31.5,7.9-46.5c0.6-2.1,1.2-4.2,1.8-6.2c1.6-5.4,3.4-10.7,5.4-16c0.9-2.4,1.8-4.8,2.8-7.1c0.9-2.2,1.9-4.4,2.8-6.5
		c0-0.1,0-0.1,0.1-0.2c1.4-3.1,2.9-6.3,4.5-9.4c0.2-0.3,0.4-0.7,0.6-1.1c0.8-1.3,1.6-2.7,2.2-4.2c0.4-0.8,0.8-1.7,1.3-2.5
		c0.3-0.5,0.5-0.9,0.8-1.4c1.2-2,2.3-4.1,3.5-6.1c1.3-2.2,2.6-4.3,4-6.4c3.7-5.8,7.7-11.5,11.9-17c0.1-0.1,0.3-0.3,0.4-0.5
		c5.7-7.5,11.9-14.6,18.4-21.3c1.7-1.8,3.3-3.5,5-5.2c0.3-0.3,0.5-0.5,0.8-0.7c2.5-2.4,5-4.7,7.6-7C92.4,66.1,92.5,66,92.7,65.9z"/>
	<path class="st15" d="M219.1,7.1v484.3c-1.4-0.2-2.8-0.4-4.2-0.7c-5.7-0.9-11.4-2-17-3.3c-0.5-0.1-1.1-0.3-1.6-0.4
		c-3-0.8-6-1.5-9-2.4c-7.7-2.2-15.3-4.8-22.7-7.7c-5.2-2-10.3-4.3-15.3-6.7c-0.1,0-0.2-0.1-0.3-0.1c-0.6-0.3-1.3-0.6-1.9-1
		c-1.7-0.8-3.4-1.7-5.1-2.6s-3.3-1.7-5-2.7c-2.5-1.3-5-2.7-7.4-4.2c-0.1,0-0.1-0.1-0.2-0.1c-1.4-0.8-2.8-1.6-4.2-2.5
		c0-0.1-0.1-0.2-0.2-0.2c-1-0.6-1.9-1.2-2.8-1.8c-1.3-0.9-2.6-1.7-3.9-2.6c0,0,0,0-0.1,0c-2.5-1.7-4.9-3.4-7.3-5.1
		c-1.2-0.9-2.3-1.7-3.5-2.6c-2-1.5-3.9-3-5.9-4.6c-1.1-0.9-2.3-1.9-3.4-2.8c-1.1-0.9-2.2-1.9-3.3-2.8c-0.7-0.6-1.4-1.2-2.1-1.9V65.9
		c3.4-2.9,6.7-5.8,10.1-8.5c0.3-0.2,0.5-0.4,0.8-0.6c1.4-1.1,2.8-2.1,4.2-3.2c0.9-0.6,1.7-1.3,2.6-1.9c1.2-0.9,2.4-1.8,3.7-2.7
		c0.4-0.3,0.8-0.6,1.3-0.9c0.5-0.3,1-0.7,1.5-1c0.1,0,0.2-0.1,0.2-0.1c1.8-1.3,3.7-2.5,5.5-3.7c1.1-0.7,2.1-1.3,3.2-2
		c2.2-1.4,4.4-2.7,6.6-4c1.6-1,3.2-1.9,4.9-2.8c0.5-0.3,0.9-0.5,1.3-0.7c2-1.1,3.9-2.1,5.9-3.1c3.6-1.8,7.2-3.5,10.8-5.1
		c0.9-0.4,1.7-0.7,2.6-1.1c8.3-3.6,16.8-6.8,25.6-9.4c3.8-1.1,7.7-2.2,11.6-3.2c0.5-0.2,1-0.3,1.5-0.4c0.7-0.2,1.4-0.3,2.1-0.5
		C205.4,9.4,212.1,8.1,219.1,7.1z"/>
	<path class="st15" d="M339,19.5V479c-0.2,0.1-0.4,0.1-0.6,0.2c-0.4,0.1-0.7,0.3-1.1,0.4c-1.1,0.4-2.2,0.8-3.2,1.1
		c-1.3,0.4-2.7,0.9-4,1.3c-2.7,0.9-5.4,1.7-8.2,2.5c-3.2,0.9-6.3,1.7-9.5,2.5c-17.3,4.2-35.3,6.5-53.8,6.9c-1.4,0-2.9,0-4.4,0H253
		c-7-0.1-14-0.4-20.8-1c-4.5-0.4-8.8-0.9-13.1-1.5V7.1c0.2,0,0.5-0.1,0.7-0.1c0.3,0,0.7-0.1,1-0.1c4.7-0.6,9.4-1.2,14.1-1.5
		c3.2-0.3,6.3-0.5,9.5-0.6c0.6-0.1,1.3-0.1,1.9-0.1c2.8-0.1,5.6-0.1,8.4-0.1h0.4c2.8,0,5.5,0,8.2,0.1c0.6,0.1,1.2,0.1,1.8,0.1
		c0,0,0.1,0,0.2,0c3.1,0.1,6.3,0.3,9.4,0.6c1.8,0.1,3.7,0.3,5.6,0.5c11.1,1.1,21.9,3,32.5,5.7c0.5,0.1,1.1,0.3,1.6,0.4
		C322.7,14.1,330.9,16.6,339,19.5z"/>
	<path class="st15" d="M455.2,109v279.8c-0.2,0.3-0.4,0.5-0.5,0.8v0.1c-0.2,0.4-0.5,0.8-0.8,1.1c-0.9,1.3-1.9,2.6-2.8,3.9
		c-0.7,1-1.5,2.1-2.3,3.1c0,0.1-0.1,0.1-0.1,0.2c-1,1.3-1.9,2.5-2.9,3.8c-0.9,1.1-1.8,2.2-2.7,3.3c-1.9,2.2-3.8,4.4-5.7,6.6
		c-1.2,1.4-2.4,2.7-3.7,4.1c-0.6,0.7-1.2,1.3-1.8,2c-0.9,1-1.8,1.9-2.7,2.8c-2.1,2.1-4.1,4.1-6.2,6.1c-0.1,0.1-0.1,0.1-0.1,0.1
		l-0.5,0.5c-0.2,0.2-0.4,0.4-0.7,0.6l-0.1,0.1c-0.1,0.1-0.2,0.2-0.3,0.3c-1.7,1.6-3.4,3.1-5.2,4.7c-0.4,0.4-0.8,0.8-1.2,1.1
		c-0.4,0.5-0.9,0.9-1.4,1.3l-0.1,0.1c-0.1,0.2-0.3,0.3-0.5,0.5c-2.8,2.3-5.6,4.6-8.5,6.9c-1.4,1.1-2.8,2.2-4.3,3.3
		c-1,0.7-2,1.4-3,2.1c-1.4,1-2.8,1.9-4.1,2.9c0,0,0,0-0.1,0c-0.1,0.1-0.1,0.1-0.2,0.2c0,0,0,0-0.1,0.1h-0.1c-1,0.6-1.9,1.3-2.9,1.9
		c-2,1.3-4,2.6-6,3.8c-1.3,0.7-2.5,1.5-3.7,2.2c-1.7,1-3.5,2-5.2,3c-3.1,1.8-6.4,3.5-9.6,5.2c-0.8,0.4-1.6,0.8-2.4,1.2
		c-7.6,3.8-15.5,7.2-23.7,10.2V19.5c5.1,1.9,10.2,3.9,15.2,6.2c1.8,0.8,3.7,1.6,5.5,2.5c5.1,2.5,10.2,5.1,15.1,7.9
		c2.9,1.6,5.8,3.3,8.7,5.1c1.7,1.1,3.4,2.1,5,3.2c0.4,0.2,0.7,0.4,1.1,0.7c1.5,0.9,3,1.9,4.4,2.9c0.4,0.3,0.9,0.6,1.3,0.9
		c1.2,0.8,2.3,1.6,3.4,2.4c1.7,1.3,3.5,2.6,5.2,3.9c0.2,0.1,0.3,0.3,0.5,0.4c1.9,1.4,3.7,2.9,5.5,4.4c2.3,1.9,4.7,3.9,6.9,5.9
		c4,3.5,7.8,7.2,11.6,11c1.6,1.7,3.2,3.3,4.8,5c1.3,1.4,2.6,2.8,3.9,4.3c1.4,1.5,2.8,3.2,4.2,4.8c1.3,1.6,2.6,3.1,3.9,4.7
		c1.4,1.7,2.7,3.4,4,5.1c0.5,0.6,0.9,1.1,1.3,1.7c0.3,0.4,0.7,0.9,1,1.3C452.8,105.5,454,107.3,455.2,109z"/>
	<path class="st16" d="M468.7,124.3h-3.5c-0.4-0.7-0.8-1.3-1.2-2c-1.2-2-2.4-4-3.7-5.9c-0.8-1.2-1.6-2.4-2.4-3.6
		c-0.8-1.3-1.7-2.5-2.6-3.8v-8L468.7,124.3z"/>
	<path class="st15" d="M498.8,249.3c0,2.9,0,5.9-0.2,8.8c0,1.2-0.1,2.4-0.1,3.6c-0.1,2-0.2,4-0.4,5.9c-0.2,3.5-0.6,7.1-1,10.6
		c-0.1,0.8-0.2,1.7-0.3,2.5c-0.2,1.6-0.4,3.2-0.7,4.8c-0.5,3.2-1,6.3-1.6,9.4c-0.2,1.3-0.5,2.7-0.8,4c-0.1,0.4-0.1,0.8-0.2,1.1
		c0,0,0,0.1,0,0.2c-0.1,0.5-0.2,0.9-0.3,1.4c-0.8,3.5-1.6,6.9-2.5,10.4c-0.9,3.2-1.8,6.4-2.8,9.6c-0.7,2.6-1.6,5.2-2.5,7.8
		c-0.1,0.3-0.2,0.7-0.4,1c-0.1,0.2-0.2,0.5-0.3,0.7c0,0.2-0.1,0.3-0.2,0.5c0,0.1-0.1,0.2-0.1,0.3c-1.6,4.6-3.4,9.1-5.4,13.7
		c-0.3,0.8-0.7,1.6-1,2.4c-0.3,0.6-0.5,1.2-0.8,1.8c-0.3,0.8-0.7,1.6-1.1,2.4c0,0,0,0,0,0.1c-0.4,1-0.9,2-1.4,3
		c-0.2,0.5-0.4,0.9-0.6,1.4c-0.7,1.3-1.4,2.7-2.1,4.1c0,0.1,0,0.1-0.1,0.2c0,0,0,0.1,0,0.1c-0.2,0.4-0.4,0.8-0.6,1.2c0,0,0,0,0,0.1
		c-0.5,0.9-0.9,1.8-1.5,2.7c-0.1,0.1-0.1,0.2-0.2,0.3c-0.5,0.8-0.9,1.7-1.4,2.5c-0.1,0.2-0.1,0.3-0.2,0.4c-0.1,0.1-0.1,0.3-0.2,0.4
		c-0.8,1.5-1.7,3-2.6,4.5c-0.2,0.3-0.4,0.6-0.6,1c-0.2,0.3-0.4,0.7-0.6,1c-0.1,0.2-0.3,0.5-0.4,0.7c0,0-0.1,0.1-0.1,0.2
		c-0.9,1.5-1.8,3-2.8,4.5c-0.9,1.3-1.8,2.7-2.7,4c-0.9,1.3-1.8,2.7-2.7,4c-0.1,0.1-0.1,0.2-0.2,0.3V109c0.9,1.3,1.8,2.5,2.6,3.8
		c0.8,1.2,1.6,2.4,2.4,3.6c1.3,1.9,2.5,3.9,3.7,5.9c0.4,0.7,0.8,1.4,1.2,2c0.2,0.3,0.3,0.6,0.5,0.9c0.7,1.1,1.4,2.3,2,3.5
		c0,0,0.1,0.1,0.1,0.2c0.3,0.5,0.5,1,0.8,1.5c0.1,0.1,0.2,0.2,0.2,0.3c0.1,0,0.1,0.1,0.1,0.1c0.1,0.1,0.1,0.3,0.2,0.4
		c0,0.1,0.1,0.1,0.1,0.2c1.5,2.7,3,5.5,4.4,8.3c0.1,0.1,0.1,0.3,0.2,0.4c0.2,0.3,0.4,0.7,0.5,1c0.2,0.4,0.4,0.8,0.6,1.2
		c0.2,0.3,0.3,0.6,0.5,0.9c1,2.1,1.9,4.2,2.8,6.2c0,0.1,0.1,0.1,0.1,0.2c0.6,1.2,1.1,2.5,1.6,3.7c0.1,0.3,0.3,0.7,0.4,1
		c0.1,0.3,0.3,0.7,0.4,1c0.4,1,0.8,2,1.2,3c0.5,1.2,1,2.6,1.5,3.8c0.1,0.3,0.2,0.5,0.3,0.8c0.2,0.5,0.3,1,0.5,1.5
		c0.2,0.5,0.4,1,0.5,1.5c0.1,0.4,0.3,0.7,0.4,1.1c1.4,3.8,2.6,7.6,3.7,11.4c0.2,0.7,0.4,1.4,0.6,2.1c0.9,3.3,1.8,6.6,2.6,9.9
		c0,0,0,0,0,0.1c0.6,2.2,1.1,4.4,1.6,6.7c0.2,1.1,0.5,2.2,0.7,3.3c0.7,3.3,1.3,6.5,1.8,9.9c0.3,1.6,0.5,3.2,0.7,4.7
		c0.2,0.9,0.3,1.9,0.4,2.8c0.5,3.4,0.8,6.9,1.1,10.4c0,0.1,0,0.1,0,0.2c0.3,3.6,0.6,7.2,0.7,10.8v0.1
		C499.1,242.9,499.2,246.1,498.8,249.3z"/>
	<polygon class="st13" points="5,149 5,179.2 4.8,179.4 4.8,149 	"/>
	<path class="st13" d="M76.3,149v82.4H10.5c1.1-15.9,3.8-31.5,7.9-46.5c0.6-2.1,1.2-4.2,1.8-6.2c1.6-5.4,3.4-10.7,5.4-16
		c0.9-2.4,1.8-4.8,2.8-7.1c0.9-2.2,1.9-4.4,2.8-6.5c0-0.1,0-0.1,0.1-0.2H76.3z"/>
	<rect x="133.9" y="146.2" class="st13" width="71.4" height="82.4"/>
	<text transform="matrix(1 0 0 1 133.8828 193.0464)" class="st8 st17">8</text>
	<rect x="374" y="146.2" class="st13" width="71.4" height="82.4"/>
	<text transform="matrix(1 0 0 1 373.9609 193.0464)" class="st8 st17">5</text>
	<rect x="374.4" y="310.1" class="st13" width="71.4" height="82.4"/>
	<text transform="matrix(1 0 0 1 374.4141 356.916)" class="st8 st17">3</text>
	<rect x="130" y="320.2" class="st13" width="71.4" height="82.4"/>
	<text transform="matrix(1 0 0 1 129.9834 366.9883)" class="st8 st17">2</text>
	<path class="st13" d="M330.1,433.7V482c-2.7,0.9-5.4,1.7-8.2,2.5c-3.2,0.9-6.3,1.7-9.5,2.5c-17.3,4.2-35.3,6.5-53.8,6.9v-60.1
		H330.1z"/>
	<text transform="matrix(1 0 0 1 258.6055 480.5059)" class="st8 st17">5</text>
	<rect x="137.5" y="39.2" class="st13" width="71.4" height="82.4"/>
	<text transform="matrix(1 0 0 1 137.5342 86.0503)" class="st8 st17">2</text>
</g>
</svg>
