<?xml version="1.0" encoding="utf-8"?>
<!-- Generator: Adobe Illustrator 24.0.1, SVG Export Plug-In . SVG Version: 6.00 Build 0)  -->
<svg version="1.1" id="Layer_1" xmlns="http://www.w3.org/2000/svg" xmlns:xlink="http://www.w3.org/1999/xlink" x="0px" y="0px"
	 viewBox="0 0 512 512" style="enable-background:new 0 0 512 512;" xml:space="preserve">
<style type="text/css">
	.st0{display:none;}
	.st1{display:inline;fill:#200A7F;stroke:#18E5EA;stroke-width:20;stroke-miterlimit:10;}
	.st2{display:inline;fill:#EF0B79;}
	.st3{display:inline;fill:#18E5EA;}
	.st4{display:inline;}
	.st5{fill:#E9F21C;}
	.st6{display:inline;fill:none;}
	.st7{display:inline;fill:#EF3A24;}
	.st8{font-family:'MyriadPro-Regular';}
	.st9{font-size:250px;}
	.st10{display:inline;fill:#FFFFFF;}
	.st11{opacity:0.48;fill:#969696;}
	.st12{fill:url(#SVGID_1_);stroke:#D8D8D8;stroke-width:2;stroke-miterlimit:10;}
	.st13{fill:#EAF5E9;}
</style>
<g id="Layer_3" class="st0">
	<path class="st1" d="M401.1,212.2c5.1,15.3,7.9,31.7,7.9,48.8c0,85.3-69.2,154.5-154.5,154.5S100,346.3,100,261
		s69.2-154.5,154.5-154.5c51.2,0,96.6,24.9,124.7,63.3"/>
	<path class="st2" d="M333.4,255.2c0,4.2-3.3,7.7-7.4,7.7H174.9c-4.1,0-7.4-3.4-7.4-7.7l0,0c0-4.2,3.3-7.7,7.4-7.7H326
		C330.1,247.5,333.4,250.9,333.4,255.2L333.4,255.2z"/>
	<path class="st2" d="M333.4,284.8c0,4.2-3.3,7.6-7.4,7.6H174.9c-4.1,0-7.4-3.4-7.4-7.6l0,0c0-4.2,3.3-7.6,7.4-7.6H326
		C330.1,277.1,333.4,280.6,333.4,284.8L333.4,284.8z"/>
	<path class="st2" d="M333.4,313c0,4.2-3.3,7.7-7.4,7.7H174.9c-4.1,0-7.4-3.4-7.4-7.7l0,0c0-4.2,3.3-7.6,7.4-7.6H326
		C330.1,305.4,333.4,308.8,333.4,313L333.4,313z"/>
	<path class="st2" d="M333.4,338.4c0,4.2-3.3,7.7-7.4,7.7H174.9c-4.1,0-7.4-3.4-7.4-7.7l0,0c0-4.2,3.3-7.6,7.4-7.6H326
		C330.1,330.7,333.4,334.1,333.4,338.4L333.4,338.4z"/>
	<polygon class="st3" points="395,191.5 320.2,165.2 380.4,113.5 	"/>
	<g class="st4">
		<g>
			<g>
				<path class="st5" d="M241.5,239.2c-2.3,0-4.4-1.1-5.8-2.9l-18.8-24.8c-2.4-3.2-1.8-7.8,1.4-10.3c3.2-2.4,7.8-1.8,10.3,1.4
					l12.3,16.3l31-49.8c2.1-3.4,6.6-4.5,10.1-2.3c3.4,2.1,4.5,6.6,2.3,10.1l-36.7,58.9c-1.3,2-3.5,3.3-5.9,3.4
					C241.7,239.2,241.6,239.2,241.5,239.2z"/>
			</g>
		</g>
	</g>
</g>
<g id="Layer_2_2_" class="st0">
	<rect x="121" y="171.5" class="st6" width="298" height="251"/>
	<text transform="matrix(1 0 0 1 121 348.9979)" class="st7 st8 st9">24</text>
	<circle class="st10" cx="138.3" cy="91.8" r="17.3"/>
	<circle class="st10" cx="185.3" cy="91.8" r="17.3"/>
	<circle class="st10" cx="232.3" cy="91.8" r="17.3"/>
	<circle class="st10" cx="278.3" cy="91.8" r="17.3"/>
	<circle class="st10" cx="323.3" cy="91.8" r="17.3"/>
	<circle class="st10" cx="368.3" cy="91.8" r="17.3"/>
</g>
<circle class="st11" cx="255.6" cy="260.3" r="244.6"/>
<radialGradient id="SVGID_1_" cx="254.625" cy="249.325" r="244.615" gradientUnits="userSpaceOnUse">
	<stop  offset="0" style="stop-color:#D471AD"/>
	<stop  offset="0.5" style="stop-color:#C7158C"/>
	<stop  offset="1" style="stop-color:#9D248E"/>
</radialGradient>
<path class="st12" d="M499.2,249.3c0,76.1-34.7,144-89.2,188.9c-42.3,34.8-96.4,55.7-155.4,55.7c-3.2,0-6.3-0.1-9.5-0.2
	c-50.6-1.9-97.3-19.3-135.5-47.4C49.2,401.8,10,330.1,10,249.3c0-1.7,0-3.4,0.1-5C12.7,111.5,121.2,4.7,254.6,4.7
	c13.5,0,26.7,1.1,39.5,3.2C406,26.1,492.4,120.1,498.8,235.5C499.1,240,499.2,244.7,499.2,249.3z"/>
<g>
	<path class="st13" d="M373.5,116.1c-5,0-9-4-9-9V75.3h-29c-5,0-9-4-9-9s4-9,9-9h38c5,0,9,4,9,9v40.8
		C382.5,112.1,378.4,116.1,373.5,116.1z"/>
	<path class="st13" d="M146.5,112c-5,0-9-4-9-9V62.2c0-5,4-9,9-9h37.9c5,0,9,4,9,9s-4,9-9,9h-28.9V103
		C155.5,108,151.4,112,146.5,112z"/>
	<path class="st13" d="M81.9,285.8c-3.2,3.8-8.9,4.3-12.7,1.1l-31.3-26.2c-3.8-3.2-4.3-8.9-1.1-12.7l24.4-29.1
		c3.2-3.8,8.9-4.3,12.7-1.1c3.8,3.2,4.3,8.9,1.1,12.7l-18.6,22.2l24.4,20.5C84.6,276.3,85.1,282,81.9,285.8z"/>
	<path class="st13" d="M431.1,268.2l24.4-20.5l-18.6-22.2c-3.2-3.8-2.7-9.5,1.1-12.7c3.8-3.2,9.5-2.7,12.7,1.1l24.4,29.1
		c3.2,3.8,2.7,9.5-1.1,12.7l-31.3,26.2c-3.8,3.2-9.5,2.7-12.7-1.1C426.8,277.1,427.3,271.4,431.1,268.2z"/>
	<path class="st13" d="M184.3,445.4h-37.9c-5,0-9-4-9-9v-40.8c0-5,4-9,9-9s9,4,9,9v31.8h28.9c5,0,9,4,9,9S189.3,445.4,184.3,445.4z"
		/>
	<path class="st13" d="M370.8,443.4l-37.6-4.8c-4.9-0.6-8.4-5.1-7.8-10s5.1-8.4,10-7.8l28.7,3.7l4-31.6c0.6-4.9,5.1-8.4,10-7.8
		s8.4,5.1,7.8,10l-5.2,40.5C380.1,440.5,375.6,444,370.8,443.4z"/>
	<path class="st13" d="M278.3,243.4h-13.8v-13.8c0-5-4-9-9-9s-9,4-9,9v13.8h-13.8c-5,0-9,4-9,9s4,9,9,9h13.8v13.8c0,5,4,9,9,9
		s9-4,9-9v-13.8h13.8c5,0,9-4,9-9S283.3,243.4,278.3,243.4z"/>
</g>
</svg>
