<?xml version="1.0" encoding="utf-8"?>
<!-- Generator: Adobe Illustrator 24.0.1, SVG Export Plug-In . SVG Version: 6.00 Build 0)  -->
<svg version="1.1" id="Layer_1" xmlns="http://www.w3.org/2000/svg" xmlns:xlink="http://www.w3.org/1999/xlink" x="0px" y="0px"
	 viewBox="0 0 512 512" style="enable-background:new 0 0 512 512;" xml:space="preserve">
<style type="text/css">
	.st0{display:none;}
	.st1{display:inline;fill:#200A7F;stroke:#18E5EA;stroke-width:20;stroke-miterlimit:10;}
	.st2{display:inline;fill:#EF0B79;}
	.st3{display:inline;fill:#18E5EA;}
	.st4{display:inline;}
	.st5{fill:#E9F21C;}
	.st6{display:inline;fill:none;}
	.st7{display:inline;fill:#EF3A24;}
	.st8{font-family:'MyriadPro-Regular';}
	.st9{font-size:250px;}
	.st10{display:inline;fill:#FFFFFF;}
	.st11{opacity:0.48;fill:#969696;enable-background:new    ;}
	.st12{fill:url(#SVGID_1_);stroke:#D8D8D8;stroke-width:2;stroke-miterlimit:10;}
	.st13{fill:url(#SVGID_2_);}
	.st14{fill:#231F20;}
	.st15{fill:url(#SVGID_3_);}
	.st16{fill:url(#SVGID_4_);}
	.st17{fill:url(#SVGID_5_);}
	.st18{fill:url(#SVGID_6_);}
	.st19{fill:url(#SVGID_7_);}
	.st20{fill:url(#SVGID_8_);}
	.st21{fill:url(#SVGID_9_);}
</style>
<g id="Layer_3" class="st0">
	<path class="st1" d="M401.1,212.2c5.1,15.3,7.9,31.7,7.9,48.8c0,85.3-69.2,154.5-154.5,154.5S100,346.3,100,261
		s69.2-154.5,154.5-154.5c51.2,0,96.6,24.9,124.7,63.3"/>
	<path class="st2" d="M333.4,255.2c0,4.2-3.3,7.7-7.4,7.7H174.9c-4.1,0-7.4-3.4-7.4-7.7l0,0c0-4.2,3.3-7.7,7.4-7.7H326
		C330.1,247.5,333.4,250.9,333.4,255.2L333.4,255.2z"/>
	<path class="st2" d="M333.4,284.8c0,4.2-3.3,7.6-7.4,7.6H174.9c-4.1,0-7.4-3.4-7.4-7.6l0,0c0-4.2,3.3-7.6,7.4-7.6H326
		C330.1,277.1,333.4,280.6,333.4,284.8L333.4,284.8z"/>
	<path class="st2" d="M333.4,313c0,4.2-3.3,7.7-7.4,7.7H174.9c-4.1,0-7.4-3.4-7.4-7.7l0,0c0-4.2,3.3-7.6,7.4-7.6H326
		C330.1,305.4,333.4,308.8,333.4,313L333.4,313z"/>
	<path class="st2" d="M333.4,338.4c0,4.2-3.3,7.7-7.4,7.7H174.9c-4.1,0-7.4-3.4-7.4-7.7l0,0c0-4.2,3.3-7.6,7.4-7.6H326
		C330.1,330.7,333.4,334.1,333.4,338.4L333.4,338.4z"/>
	<polygon class="st3" points="395,191.5 320.2,165.2 380.4,113.5 	"/>
	<g class="st4">
		<g>
			<g>
				<path class="st5" d="M241.5,239.2c-2.3,0-4.4-1.1-5.8-2.9l-18.8-24.8c-2.4-3.2-1.8-7.8,1.4-10.3c3.2-2.4,7.8-1.8,10.3,1.4
					l12.3,16.3l31-49.8c2.1-3.4,6.6-4.5,10.1-2.3c3.4,2.1,4.5,6.6,2.3,10.1l-36.7,58.9c-1.3,2-3.5,3.3-5.9,3.4
					C241.7,239.2,241.6,239.2,241.5,239.2z"/>
			</g>
		</g>
	</g>
</g>
<g id="Layer_2_2_" class="st0">
	<rect x="121" y="171.5" class="st6" width="298" height="251"/>
	<text transform="matrix(1 0 0 1 121 348.9979)" class="st7 st8 st9">24</text>
	<circle class="st10" cx="138.3" cy="91.8" r="17.3"/>
	<circle class="st10" cx="185.3" cy="91.8" r="17.3"/>
	<circle class="st10" cx="232.3" cy="91.8" r="17.3"/>
	<circle class="st10" cx="278.3" cy="91.8" r="17.3"/>
	<circle class="st10" cx="323.3" cy="91.8" r="17.3"/>
	<circle class="st10" cx="368.3" cy="91.8" r="17.3"/>
</g>
<circle class="st11" cx="255.6" cy="260.3" r="244.6"/>
<radialGradient id="SVGID_1_" cx="254.6" cy="262.7" r="244.6" gradientTransform="matrix(1 0 0 -1 0 512)" gradientUnits="userSpaceOnUse">
	<stop  offset="0" style="stop-color:#FFFFFF"/>
	<stop  offset="4.718959e-03" style="stop-color:#FDFDFE"/>
	<stop  offset="0.149" style="stop-color:#C9C8E1"/>
	<stop  offset="0.295" style="stop-color:#9B9AC8"/>
	<stop  offset="0.4399" style="stop-color:#7674B4"/>
	<stop  offset="0.5835" style="stop-color:#5A57A4"/>
	<stop  offset="0.7255" style="stop-color:#454399"/>
	<stop  offset="0.8652" style="stop-color:#393692"/>
	<stop  offset="1" style="stop-color:#353290"/>
</radialGradient>
<circle class="st12" cx="254.6" cy="249.3" r="244.6"/>
<g>
	<g>
		<g>
			
				<radialGradient id="SVGID_2_" cx="349.4658" cy="194.6464" r="90.4929" gradientTransform="matrix(1.8675 0 0 -1.9328 -398.9142 594.6125)" gradientUnits="userSpaceOnUse">
				<stop  offset="0" style="stop-color:#D6AB72"/>
				<stop  offset="0.1305" style="stop-color:#D09F5D"/>
				<stop  offset="0.5" style="stop-color:#C18026"/>
				<stop  offset="0.6095" style="stop-color:#B97926"/>
				<stop  offset="1" style="stop-color:#A26526"/>
			</radialGradient>
			<path class="st13" d="M253.7,43.5c-93.3,0-169,78.3-169,174.9s75.7,174.9,169,174.9s169-78.3,169-174.9
				C422.7,121.9,347,43.5,253.7,43.5z M252.9,238.8c-11.4,0-20.7-9.6-20.7-21.4s9.3-21.4,20.7-21.4s20.7,9.6,20.7,21.4
				S264.3,238.8,252.9,238.8z"/>
		</g>
	</g>
	<path class="st14" d="M284.8,138c0,0-247.6,77.6-253.8,96s-15,24.9,12.5,33.6C70.9,276.3,284.8,138,284.8,138z"/>
	
		<radialGradient id="SVGID_3_" cx="119.6319" cy="41.7705" r="13.499" gradientTransform="matrix(0.7516 0 0 0.7063 71.6979 406.2041)" gradientUnits="userSpaceOnUse">
		<stop  offset="0" style="stop-color:#FFE7A3"/>
		<stop  offset="0.5" style="stop-color:#FFCA05"/>
		<stop  offset="1" style="stop-color:#FAAC18"/>
	</radialGradient>
	<ellipse class="st15" cx="161.6" cy="435.8" rx="10.1" ry="9.5"/>
	
		<radialGradient id="SVGID_4_" cx="166.1298" cy="41.7705" r="13.5" gradientTransform="matrix(0.7516 0 0 0.7063 71.6979 406.2041)" gradientUnits="userSpaceOnUse">
		<stop  offset="0" style="stop-color:#FFE7A3"/>
		<stop  offset="0.5" style="stop-color:#FFCA05"/>
		<stop  offset="1" style="stop-color:#FAAC18"/>
	</radialGradient>
	<ellipse class="st16" cx="196.5" cy="435.8" rx="10.1" ry="9.5"/>
	
		<radialGradient id="SVGID_5_" cx="211.1298" cy="41.7705" r="13.495" gradientTransform="matrix(0.7516 0 0 0.7063 71.6979 406.2041)" gradientUnits="userSpaceOnUse">
		<stop  offset="0" style="stop-color:#FFE7A3"/>
		<stop  offset="0.5" style="stop-color:#FFCA05"/>
		<stop  offset="1" style="stop-color:#FAAC18"/>
	</radialGradient>
	<ellipse class="st17" cx="230.4" cy="435.8" rx="10.1" ry="9.5"/>
	
		<radialGradient id="SVGID_6_" cx="255.6084" cy="41.7705" r="13.5107" gradientTransform="matrix(0.7516 0 0 0.7063 71.6979 406.2041)" gradientUnits="userSpaceOnUse">
		<stop  offset="0" style="stop-color:#FFE7A3"/>
		<stop  offset="0.5" style="stop-color:#FFCA05"/>
		<stop  offset="1" style="stop-color:#FAAC18"/>
	</radialGradient>
	<ellipse class="st18" cx="263.8" cy="435.8" rx="10.1" ry="9.5"/>
	
		<radialGradient id="SVGID_7_" cx="300.1298" cy="41.7705" r="13.5001" gradientTransform="matrix(0.7516 0 0 0.7063 71.6979 406.2041)" gradientUnits="userSpaceOnUse">
		<stop  offset="0" style="stop-color:#FFE7A3"/>
		<stop  offset="0.5" style="stop-color:#FFCA05"/>
		<stop  offset="1" style="stop-color:#FAAC18"/>
	</radialGradient>
	<ellipse class="st19" cx="297.3" cy="435.8" rx="10.1" ry="9.5"/>
	
		<radialGradient id="SVGID_8_" cx="344.7516" cy="41.7705" r="13.4956" gradientTransform="matrix(0.7516 0 0 0.7063 71.6979 406.2041)" gradientUnits="userSpaceOnUse">
		<stop  offset="0" style="stop-color:#FFE7A3"/>
		<stop  offset="0.5" style="stop-color:#FFCA05"/>
		<stop  offset="1" style="stop-color:#FAAC18"/>
	</radialGradient>
	<ellipse class="st20" cx="330.8" cy="435.8" rx="10.1" ry="9.5"/>
	
		<radialGradient id="SVGID_9_" cx="387.1298" cy="41.7705" r="13.5" gradientTransform="matrix(0.7516 0 0 0.7063 71.6979 406.2041)" gradientUnits="userSpaceOnUse">
		<stop  offset="0" style="stop-color:#FFE7A3"/>
		<stop  offset="0.5" style="stop-color:#FFCA05"/>
		<stop  offset="1" style="stop-color:#FAAC18"/>
	</radialGradient>
	<ellipse class="st21" cx="362.6" cy="435.8" rx="10.1" ry="9.5"/>
</g>
</svg>
