<?xml version="1.0" encoding="utf-8"?>
<!-- Generator: Adobe Illustrator 24.0.1, SVG Export Plug-In . SVG Version: 6.00 Build 0)  -->
<svg version="1.1" id="Layer_1" xmlns="http://www.w3.org/2000/svg" xmlns:xlink="http://www.w3.org/1999/xlink" x="0px" y="0px"
	 viewBox="0 0 512 512" style="enable-background:new 0 0 512 512;" xml:space="preserve">
<style type="text/css">
	.st0{display:none;}
	.st1{display:inline;fill:#200A7F;stroke:#18E5EA;stroke-width:20;stroke-miterlimit:10;}
	.st2{display:inline;fill:#EF0B79;}
	.st3{display:inline;fill:#18E5EA;}
	.st4{display:inline;}
	.st5{fill:#E9F21C;}
	.st6{display:inline;fill:none;}
	.st7{display:inline;fill:#EF3A24;}
	.st8{font-family:'MyriadPro-Regular';}
	.st9{font-size:250px;}
	.st10{display:inline;fill:#FFFFFF;}
	.st11{opacity:0.48;fill:#969696;enable-background:new    ;}
	.st12{fill:url(#SVGID_1_);}
	.st13{fill:#FFFFFF;}
	.st14{fill:#57A4FF;}
	.st15{fill:url(#SVGID_2_);}
	.st16{fill:#4C4C4C;}
	.st17{fill:url(#SVGID_3_);}
	.st18{fill:#FFFFFF;stroke:#000000;stroke-miterlimit:10;}
	.st19{fill:#004FAC;}
	.st20{fill:#1E1E1E;}
	.st21{fill:#262626;}
</style>
<g id="Layer_3" class="st0">
	<path class="st1" d="M401.1,212.2c5.1,15.3,7.9,31.7,7.9,48.8c0,85.3-69.2,154.5-154.5,154.5S100,346.3,100,261
		s69.2-154.5,154.5-154.5c51.2,0,96.6,24.9,124.7,63.3"/>
	<path class="st2" d="M333.4,255.2c0,4.2-3.3,7.7-7.4,7.7H174.9c-4.1,0-7.4-3.4-7.4-7.7l0,0c0-4.2,3.3-7.7,7.4-7.7H326
		C330.1,247.5,333.4,250.9,333.4,255.2L333.4,255.2z"/>
	<path class="st2" d="M333.4,284.8c0,4.2-3.3,7.6-7.4,7.6H174.9c-4.1,0-7.4-3.4-7.4-7.6l0,0c0-4.2,3.3-7.6,7.4-7.6H326
		C330.1,277.1,333.4,280.6,333.4,284.8L333.4,284.8z"/>
	<path class="st2" d="M333.4,313c0,4.2-3.3,7.7-7.4,7.7H174.9c-4.1,0-7.4-3.4-7.4-7.7l0,0c0-4.2,3.3-7.6,7.4-7.6H326
		C330.1,305.4,333.4,308.8,333.4,313L333.4,313z"/>
	<path class="st2" d="M333.4,338.4c0,4.2-3.3,7.7-7.4,7.7H174.9c-4.1,0-7.4-3.4-7.4-7.7l0,0c0-4.2,3.3-7.6,7.4-7.6H326
		C330.1,330.7,333.4,334.1,333.4,338.4L333.4,338.4z"/>
	<polygon class="st3" points="395,191.5 320.2,165.2 380.4,113.5 	"/>
	<g class="st4">
		<g>
			<g>
				<path class="st5" d="M241.5,239.2c-2.3,0-4.4-1.1-5.8-2.9l-18.8-24.8c-2.4-3.2-1.8-7.8,1.4-10.3c3.2-2.4,7.8-1.8,10.3,1.4
					l12.3,16.3l31-49.8c2.1-3.4,6.6-4.5,10.1-2.3c3.4,2.1,4.5,6.6,2.3,10.1l-36.7,58.9c-1.3,2-3.5,3.3-5.9,3.4
					C241.7,239.2,241.6,239.2,241.5,239.2z"/>
			</g>
		</g>
	</g>
</g>
<g id="Layer_2_2_" class="st0">
	<rect x="121" y="171.5" class="st6" width="298" height="251"/>
	<text transform="matrix(1 0 0 1 121 348.9979)" class="st7 st8 st9">24</text>
	<circle class="st10" cx="138.3" cy="91.8" r="17.3"/>
	<circle class="st10" cx="185.3" cy="91.8" r="17.3"/>
	<circle class="st10" cx="232.3" cy="91.8" r="17.3"/>
	<circle class="st10" cx="278.3" cy="91.8" r="17.3"/>
	<circle class="st10" cx="323.3" cy="91.8" r="17.3"/>
	<circle class="st10" cx="368.3" cy="91.8" r="17.3"/>
</g>
<circle class="st11" cx="255.6" cy="260.3" r="244.6"/>
<radialGradient id="SVGID_1_" cx="254.6" cy="249.3" r="244.6" gradientUnits="userSpaceOnUse">
	<stop  offset="5.618000e-03" style="stop-color:#FCE6F0"/>
	<stop  offset="0.4494" style="stop-color:#F9C9DE"/>
	<stop  offset="1" style="stop-color:#F7B2D0"/>
</radialGradient>
<path class="st12" d="M499.2,249.3c0,2.9,0,5.9-0.2,8.8c-0.5,14.3-2.3,28.3-5.1,41.9c0,0,0,0.1,0,0.2c-2.1,10-4.8,19.8-8.1,29.3
	c0,0,0,0,0,0c-3.2,9.3-7,18.4-11.3,27.2c-1.4,2.8-2.8,5.6-4.3,8.4c0,0,0,0,0,0c-0.1,0.1-0.1,0.2-0.2,0.3c-1.4,2.6-2.9,5.2-4.4,7.7
	c-3.6,6.1-7.4,12-11.5,17.7c-0.9,1.3-1.9,2.6-2.8,3.9c-2.6,3.5-5.3,7-8.1,10.4c-4.4,5.3-9,10.5-13.9,15.4c-2.1,2.1-4.2,4.2-6.3,6.2
	c0,0-0.1,0.1-0.1,0.1c-0.1,0.1-0.3,0.3-0.4,0.4c-0.2,0.2-0.4,0.4-0.7,0.6c0,0-0.1,0.1-0.1,0.1c-0.1,0.1-0.2,0.2-0.3,0.3
	c-1.7,1.6-3.4,3.1-5.2,4.7c-1.1,1-2.2,1.9-3.3,2.9c-4.2,3.5-8.4,6.9-12.8,10.2c-2.3,1.7-4.7,3.4-7.1,5c0,0,0,0-0.1,0
	c-0.1,0.1-0.2,0.2-0.4,0.3c-39.3,26.9-86.8,42.6-138,42.6c-31.7,0-61.9-6-89.7-17c-5.2-2-10.3-4.3-15.3-6.7c-0.1,0-0.2-0.1-0.3-0.1
	c-6.6-3.2-13.1-6.6-19.4-10.4c-0.1,0-0.1-0.1-0.2-0.1h0c-3.8-2.2-7.5-4.6-11.1-7c0,0,0,0-0.1,0c-2.5-1.7-4.9-3.4-7.3-5.1
	c-3.2-2.3-6.3-4.7-9.4-7.2c-2.3-1.8-4.6-3.7-6.8-5.6c-2.1-1.8-4.1-3.6-6.2-5.5c0,0-0.1-0.1-0.1-0.1c0,0,0,0-0.1,0
	c-0.1-0.1-0.2-0.2-0.3-0.2c0,0-0.1-0.1-0.1-0.1c0,0-0.1-0.1-0.1-0.1c-2.1-1.9-4.2-3.9-6.2-5.9c-4.9-4.9-9.6-9.9-14-15.2
	c-2.5-3-5-6-7.4-9.1c-1.3-1.6-2.5-3.3-3.7-4.9c-4.1-5.6-8-11.5-11.6-17.5c-0.8-1.4-1.6-2.7-2.4-4.1c-0.3-0.5-0.5-0.9-0.8-1.4
	c-0.5-0.8-0.9-1.5-1.3-2.3c0,0,0,0,0,0c0,0,0-0.1-0.1-0.1c0,0,0,0,0,0c-1.5-2.7-3-5.5-4.4-8.2C32,351.2,28,342.2,24.7,333
	c0,0,0-0.1-0.1-0.1c-8.5-23.5-13.5-48.6-14.5-74.8c-0.1-2.9-0.2-5.8-0.2-8.8c0-3.2,0.1-6.4,0.2-9.5c1.5-39,12.1-75.7,29.8-107.9
	c10.6-19.3,23.7-37,38.9-52.7c0,0,0,0,0,0c4.3-4.5,8.8-8.8,13.4-12.9c5.8-5.1,11.8-10,18-14.5c1.2-0.9,2.4-1.8,3.7-2.7
	c9.6-6.8,19.8-12.9,30.4-18.3c30.8-15.5,65.3-24.8,101.8-26c2.8-0.1,5.6-0.1,8.4-0.1h0.4c2.8,0,5.5,0,8.2,0.1
	c34.5,1.2,67.1,9.5,96.6,23.5c10,4.8,19.6,10.2,28.8,16.2c3.5,2.3,6.9,4.6,10.2,7c3.8,2.8,7.6,5.7,11.2,8.7c2.3,1.9,4.7,3.9,6.9,5.9
	c20.8,18.4,38.4,40.4,51.9,64.9c17.9,32.4,28.7,69.3,30.2,108.6C499.1,242.9,499.2,246.1,499.2,249.3z"/>
<g>
	<g>
		<path class="st13" d="M317.1,284.9c0,5.4-4.3,9.7-9.7,9.7c-5.4,0-9.7-4.3-9.7-9.7c0-5.4,4.3-9.7,9.7-9.7
			C312.7,275.2,317.1,279.5,317.1,284.9z"/>
		<path class="st14" d="M258.9,265.5h-19.4v19.4C239.5,274.2,248.1,265.5,258.9,265.5z"/>
		<path class="st14" d="M239.5,284.9v19.4h19.4C248.1,304.3,239.5,295.6,239.5,284.9z"/>
		<path class="st13" d="M268.6,284.9c0,5.4-4.3,9.7-9.7,9.7c-5.4,0-9.7-4.3-9.7-9.7c0-5.4,4.3-9.7,9.7-9.7
			C264.3,275.2,268.6,279.5,268.6,284.9z"/>
		<path class="st14" d="M278.3,284.9c0,10.7-8.7,19.4-19.4,19.4h48.5c-10.7,0-19.4-8.7-19.4-19.4c0-10.7,8.7-19.4,19.4-19.4h-48.5
			C269.6,265.5,278.3,274.2,278.3,284.9z"/>
		
			<linearGradient id="SVGID_2_" gradientUnits="userSpaceOnUse" x1="93.968" y1="-55.7859" x2="123.068" y2="-55.7859" gradientTransform="matrix(1 0 0 1 0 333.2912)">
			<stop  offset="0" style="stop-color:#FEFE93"/>
			<stop  offset="0.5" style="stop-color:#FEFE00"/>
			<stop  offset="1" style="stop-color:#FEDD00"/>
		</linearGradient>
		<path class="st15" d="M93.9,324.6l29.1-18.2v-57.7l-29.1-18.2C93.9,230.5,93.9,324.6,93.9,324.6z"/>
		<path class="st14" d="M326.8,284.9v-19.4h-19.4C318.1,265.5,326.8,274.2,326.8,284.9z"/>
		<path class="st14" d="M307.4,304.3h19.4v-19.4C326.8,295.6,318.1,304.3,307.4,304.3z"/>
		<path class="st14" d="M336.5,150.1l9.7,2.4v-31.2l-9.7,2.4V150.1z"/>
		<path class="st16" d="M355.9,120h19.4v34h-19.4V120z"/>
		<path class="st14" d="M166.7,207.3h179.5v9.7H166.7V207.3z"/>
		
			<radialGradient id="SVGID_3_" cx="195.8369" cy="-48.4359" r="15.337" gradientTransform="matrix(1 0 0 1 0 333.2912)" gradientUnits="userSpaceOnUse">
			<stop  offset="0" style="stop-color:#FB6040"/>
			<stop  offset="0.5" style="stop-color:#FE0000"/>
			<stop  offset="1" style="stop-color:#D50000"/>
		</radialGradient>
		<path class="st17" d="M186.1,265.5h19.4v38.8h-19.4V265.5z"/>
	</g>
	<path class="st18" d="M380.1,110.3H351c-0.2,0-0.4,0.1-0.7,0.1c-0.2,0-0.3,0-0.5,0l-19.4,4.9c-0.1,0-0.2,0.1-0.4,0.2
		c-0.3,0.1-0.6,0.2-0.9,0.4c-0.2,0.1-0.4,0.2-0.5,0.4c-0.2,0.1-0.3,0.2-0.4,0.3l-61.7,61.6h-95c-8,0-14.6,6.5-14.6,14.6v48.5h-27.7
		l-37.5-23.6c-1.5-0.9-3.4-1-4.9-0.1s-2.5,2.5-2.5,4.2v111.6c0,1.8,1,3.4,2.5,4.2c1.5,0.9,3.4,0.8,4.9-0.1l37.6-23.5H157v24.3
		c0,2.7,2.2,4.9,4.9,4.9h189.2c2.7,0,4.9-2.2,4.9-4.9V192.7c0-8-6.5-14.6-14.6-14.6h-27.1l18.9-18.9l16.7,4.2
		c0.4,0.1,0.8,0.1,1.2,0.1h29.1c2.7,0,4.9-2.2,4.9-4.9v-43.7C385,112.4,382.8,110.3,380.1,110.3z M346.2,217H166.7v-9.7h179.5V217z
		 M93.9,230.6l29.1,18.2v57.6l-29.1,18.2C93.9,324.6,93.9,230.6,93.9,230.6z M132.7,304.3v-53.4H157v53.4H132.7z M346.2,333.4H166.7
		V226.7h179.5V333.4z M346.2,192.7v4.9H166.7v-4.9c0-2.7,2.2-4.9,4.9-4.9h169.8C344,187.9,346.2,190,346.2,192.7z M280.3,178.2
		l46.5-46.5v20.2l-26.3,26.3H280.3L280.3,178.2z M336.5,123.7l9.7-2.4v31.2l-9.7-2.4V123.7z M375.3,153.9h-19.4v-34h19.4V153.9z"/>
	<path class="st19" d="M181.2,314h29.1c2.7,0,4.9-2.2,4.9-4.9v-48.5c0-2.7-2.2-4.9-4.9-4.9h-29.1c-2.7,0-4.9,2.2-4.9,4.9v48.5
		C176.4,311.8,178.6,314,181.2,314z M186.1,265.5h19.4v38.8h-19.4V265.5z"/>
	<path class="st18" d="M234.6,314h97c2.7,0,4.9-2.2,4.9-4.9v-48.5c0-2.7-2.2-4.9-4.9-4.9h-97c-2.7,0-4.9,2.2-4.9,4.9v48.5
		C229.8,311.8,231.9,314,234.6,314z M239.5,284.9v-19.4h87.3v38.8h-87.3V284.9z"/>
	<path class="st20" d="M258.9,304.3c10.7,0,19.4-8.7,19.4-19.4c0-10.7-8.7-19.4-19.4-19.4c-10.7,0-19.4,8.7-19.4,19.4
		C239.5,295.6,248.1,304.3,258.9,304.3z M258.9,275.2c5.4,0,9.7,4.3,9.7,9.7c0,5.4-4.3,9.7-9.7,9.7c-5.4,0-9.7-4.3-9.7-9.7
		C249.2,279.5,253.5,275.2,258.9,275.2z"/>
	<path class="st21" d="M288,284.9c0,10.7,8.7,19.4,19.4,19.4c10.7,0,19.4-8.7,19.4-19.4c0-10.7-8.7-19.4-19.4-19.4
		C296.6,265.5,288,274.2,288,284.9z M307.4,275.2c5.4,0,9.7,4.3,9.7,9.7c0,5.4-4.3,9.7-9.7,9.7c-5.4,0-9.7-4.3-9.7-9.7
		C297.7,279.5,302,275.2,307.4,275.2z"/>
</g>
</svg>
