<?xml version="1.0" encoding="utf-8"?>
<!-- Generator: Adobe Illustrator 24.0.1, SVG Export Plug-In . SVG Version: 6.00 Build 0)  -->
<svg version="1.1" id="Layer_1" xmlns="http://www.w3.org/2000/svg" xmlns:xlink="http://www.w3.org/1999/xlink" x="0px" y="0px"
	 viewBox="0 0 512 512" style="enable-background:new 0 0 512 512;" xml:space="preserve">
<style type="text/css">
	.st0{display:none;}
	.st1{display:inline;fill:#200A7F;stroke:#18E5EA;stroke-width:20;stroke-miterlimit:10;}
	.st2{display:inline;fill:#EF0B79;}
	.st3{display:inline;fill:#18E5EA;}
	.st4{display:inline;}
	.st5{fill:#E9F21C;}
	.st6{display:inline;fill:none;}
	.st7{display:inline;fill:#EF3A24;}
	.st8{font-family:'MyriadPro-Regular';}
	.st9{font-size:250px;}
	.st10{display:inline;fill:#FFFFFF;}
	.st11{opacity:0.48;fill:#969696;enable-background:new    ;}
	.st12{fill:url(#SVGID_1_);}
	.st13{fill:#787780;}
	.st14{fill:#57555C;}
	.st15{fill:#3C3A41;}
	.st16{fill:#FD3018;}
	.st17{fill:#C1001F;}
</style>
<g id="Layer_3" class="st0">
	<path class="st1" d="M401.1,212.2c5.1,15.3,7.9,31.7,7.9,48.8c0,85.3-69.2,154.5-154.5,154.5S100,346.3,100,261
		s69.2-154.5,154.5-154.5c51.2,0,96.6,24.9,124.7,63.3"/>
	<path class="st2" d="M333.4,255.2c0,4.2-3.3,7.7-7.4,7.7H174.9c-4.1,0-7.4-3.4-7.4-7.7l0,0c0-4.2,3.3-7.7,7.4-7.7H326
		C330.1,247.5,333.4,250.9,333.4,255.2L333.4,255.2z"/>
	<path class="st2" d="M333.4,284.8c0,4.2-3.3,7.6-7.4,7.6H174.9c-4.1,0-7.4-3.4-7.4-7.6l0,0c0-4.2,3.3-7.6,7.4-7.6H326
		C330.1,277.1,333.4,280.6,333.4,284.8L333.4,284.8z"/>
	<path class="st2" d="M333.4,313c0,4.2-3.3,7.7-7.4,7.7H174.9c-4.1,0-7.4-3.4-7.4-7.7l0,0c0-4.2,3.3-7.6,7.4-7.6H326
		C330.1,305.4,333.4,308.8,333.4,313L333.4,313z"/>
	<path class="st2" d="M333.4,338.4c0,4.2-3.3,7.7-7.4,7.7H174.9c-4.1,0-7.4-3.4-7.4-7.7l0,0c0-4.2,3.3-7.6,7.4-7.6H326
		C330.1,330.7,333.4,334.1,333.4,338.4L333.4,338.4z"/>
	<polygon class="st3" points="395,191.5 320.2,165.2 380.4,113.5 	"/>
	<g class="st4">
		<g>
			<g>
				<path class="st5" d="M241.5,239.2c-2.3,0-4.4-1.1-5.8-2.9l-18.8-24.8c-2.4-3.2-1.8-7.8,1.4-10.3c3.2-2.4,7.8-1.8,10.3,1.4
					l12.3,16.3l31-49.8c2.1-3.4,6.6-4.5,10.1-2.3c3.4,2.1,4.5,6.6,2.3,10.1l-36.7,58.9c-1.3,2-3.5,3.3-5.9,3.4
					C241.7,239.2,241.6,239.2,241.5,239.2z"/>
			</g>
		</g>
	</g>
</g>
<g id="Layer_2_2_" class="st0">
	<rect x="121" y="171.5" class="st6" width="298" height="251"/>
	<text transform="matrix(1 0 0 1 121 348.9979)" class="st7 st8 st9">24</text>
	<circle class="st10" cx="138.3" cy="91.8" r="17.3"/>
	<circle class="st10" cx="185.3" cy="91.8" r="17.3"/>
	<circle class="st10" cx="232.3" cy="91.8" r="17.3"/>
	<circle class="st10" cx="278.3" cy="91.8" r="17.3"/>
	<circle class="st10" cx="323.3" cy="91.8" r="17.3"/>
	<circle class="st10" cx="368.3" cy="91.8" r="17.3"/>
</g>
<circle class="st11" cx="255.6" cy="260.3" r="244.6"/>
<radialGradient id="SVGID_1_" cx="254.55" cy="1015.3" r="244.625" gradientTransform="matrix(1 0 0 1 0 -766)" gradientUnits="userSpaceOnUse">
	<stop  offset="5.618000e-03" style="stop-color:#8AD0C3"/>
	<stop  offset="0.5" style="stop-color:#00B6A9"/>
	<stop  offset="1" style="stop-color:#00A185"/>
</radialGradient>
<path class="st12" d="M499.2,249.3c0,2.9,0,5.9-0.2,8.8c-0.5,14.3-2.3,28.3-5.1,41.9c0,0,0,0.1,0,0.2c-2.1,10-4.8,19.8-8.1,29.3l0,0
	c-2.2,6.3-4.6,12.4-7.3,18.5c-1.3,2.9-2.6,5.8-4,8.7c-1.4,2.8-2.8,5.6-4.3,8.4l0,0c-0.1,0.1-0.1,0.2-0.2,0.3
	c-1.4,2.6-2.9,5.2-4.4,7.7c-0.5,0.9-1.1,1.8-1.6,2.7c-2.6,4.4-5.4,8.6-8.3,12.8c-0.5,0.8-1,1.5-1.6,2.2c-0.9,1.3-1.9,2.6-2.8,3.9
	c-2.6,3.5-5.3,7-8.1,10.4c-4.4,5.3-9,10.5-13.9,15.4c-2.1,2.1-4.2,4.2-6.3,6.2l-0.1,0.1c-0.1,0.1-0.3,0.3-0.4,0.4
	c-0.2,0.2-0.4,0.4-0.7,0.6l-0.1,0.1c-0.1,0.1-0.2,0.2-0.3,0.3c-1.7,1.6-3.4,3.1-5.2,4.7c-1.1,1-2.2,1.9-3.3,2.9
	c-4.2,3.5-8.4,6.9-12.8,10.2c-2.3,1.7-4.7,3.4-7.1,5c0,0,0,0-0.1,0c-0.1,0.1-0.2,0.2-0.4,0.3c-4.1,2.8-8.3,5.5-12.5,8
	c-4.8,2.9-9.8,5.6-14.8,8.2c-8.6,4.4-17.5,8.3-26.7,11.6c-26.2,9.6-54.5,14.8-84,14.8c-31.7,0-61.9-6-89.7-17
	c-5.2-2-10.3-4.3-15.3-6.7c-0.1,0-0.2-0.1-0.3-0.1c-6.6-3.2-13.1-6.6-19.4-10.4c-0.1,0-0.1-0.1-0.2-0.1l0,0c-3.8-2.2-7.5-4.6-11.1-7
	c0,0,0,0-0.1,0c-2.5-1.7-4.9-3.4-7.3-5.1c-3.2-2.3-6.3-4.7-9.4-7.2c-2.3-1.8-4.6-3.7-6.8-5.6c-2.1-1.8-4.1-3.6-6.2-5.5l-0.1-0.1
	c0,0,0,0-0.1,0c-0.1-0.1-0.2-0.2-0.3-0.2l-0.1-0.1l-0.1-0.1c-2.1-1.9-4.2-3.9-6.2-5.9c-4.9-4.9-9.6-9.9-14-15.2c-2.5-3-5-6-7.4-9.1
	c-1.3-1.6-2.5-3.3-3.7-4.9c-4.1-5.6-8-11.5-11.6-17.5c-0.8-1.4-1.6-2.7-2.4-4.1c-0.3-0.5-0.5-0.9-0.8-1.4c-0.5-0.8-0.9-1.5-1.3-2.3
	l0,0c0,0,0-0.1-0.1-0.1l0,0c-1.5-2.7-3-5.5-4.4-8.2c-4.1-8.8-8.1-17.8-11.4-27c0,0,0-0.1-0.1-0.1c-8.5-23.5-13.5-48.6-14.5-74.8
	c-0.1-2.9-0.2-5.8-0.2-8.8c0-3.2,0.1-6.4,0.2-9.5c1.5-39,12.1-75.7,29.8-107.9c10.6-19.3,23.7-37,38.9-52.7l0,0
	c4.3-4.5,8.8-8.8,13.4-12.9c5.8-5.1,11.8-10,18-14.5c1.2-0.9,2.4-1.8,3.7-2.7c9.6-6.8,19.8-12.9,30.4-18.3
	c30.8-15.5,65.3-24.8,101.8-26c2.8-0.1,5.6-0.1,8.4-0.1h0.4c2.8,0,5.5,0,8.2,0.1c34.5,1.2,67.1,9.5,96.6,23.5
	c10,4.8,19.6,10.2,28.8,16.2c3.5,2.3,6.9,4.6,10.2,7c3.8,2.8,7.6,5.7,11.2,8.7c2.3,1.9,4.7,3.9,6.9,5.9
	c20.8,18.4,38.4,40.4,51.9,64.9c17.9,32.4,28.7,69.3,30.2,108.6C499.1,242.9,499.2,246.1,499.2,249.3z"/>
<g id="Layer_2_1_">
	<path class="st13" d="M300,90.3c0,24.3-19.8,44-44,44s-44-19.8-44-44c0-5,3.9-8.8,8.8-8.8s8.8,3.9,8.8,8.8
		c0,14.6,11.8,26.5,26.5,26.5c14.6,0,26.5-11.8,26.5-26.5c0-5,3.9-8.8,8.8-8.8C296.1,81.5,300,85.3,300,90.3z"/>
	<g>
		<path class="st14" d="M300,90.3c0,24.3-19.8,44-44,44v-17.6c14.6,0,26.5-11.8,26.5-26.5c0-5,3.9-8.8,8.8-8.8
			C296.1,81.5,300,85.3,300,90.3z"/>
		<path class="st14" d="M299.4,167.9c-0.7,4.4-4.6,7.4-8.8,7.4h-67.9c-4.7,0.7-9.4-2.4-10.2-7.4c-4.4-26.9,16.4-51.2,43.4-51.2
			C283,116.6,303.8,141,299.4,167.9z"/>
		<path class="st14" d="M163.1,217.6l-34.2-13.5c-2.1-0.8-3.7-2.3-4.6-4.3l-17.6-35.2c-2.2-4.4-0.5-9.6,3.9-11.8s9.6-0.5,11.8,3.9
			l16.1,32.2l31.1,12.2c4.5,1.7,6.7,6.9,5,11.4C172.8,217.3,167.6,219.4,163.1,217.6z"/>
	</g>
	<g>
		<path class="st15" d="M337.4,212.7c-1.7-4.5,0.5-9.6,5-11.4l31.1-12.2l16.1-32.2c2.2-4.4,7.5-6.1,11.8-3.9
			c4.4,2.2,6.1,7.5,3.9,11.8L387.7,200c-0.9,2-2.7,3.5-4.6,4.3l-34.2,13.5C344.4,219.4,339.2,217.3,337.4,212.7z"/>
		<path class="st15" d="M299.4,167.9c-0.7,4.4-4.6,7.4-8.8,7.4H256v-58.6C283,116.6,303.8,141,299.4,167.9z"/>
	</g>
	<g>
		<path class="st14" d="M295.1,348.1l-30.5-136.6c-0.9-4-4.6-6.8-8.7-6.8s-7.7,2.8-8.7,6.8l-30.5,136.4c-0.9,4.3,1.4,8.7,5.4,10.2
			c10.5,4,22,6.1,33.6,6.1c11.4,0,22.8-2,33.4-6C293.7,356.8,296,352.4,295.1,348.1z"/>
		<path class="st14" d="M149.8,276.3h-35.2c-4.9,0-8.8-3.9-8.8-8.8s3.9-8.8,8.8-8.8h35.2c4.9,0,8.8,3.9,8.8,8.8
			S154.7,276.3,149.8,276.3z"/>
	</g>
	<path class="st15" d="M397.4,276.3h-35.2c-4.9,0-8.8-3.9-8.8-8.8s3.9-8.8,8.8-8.8h35.2c4.9,0,8.8,3.9,8.8,8.8
		S402.3,276.3,397.4,276.3z"/>
	<path class="st14" d="M110.6,381c-4.4-2.2-6.1-7.5-3.9-11.8l17.6-35.2c0.9-2,2.7-3.5,4.6-4.3l34.2-13.5c4.5-1.7,9.6,0.5,11.4,5
		c1.7,4.5-0.5,9.6-5,11.4l-31.1,12.2L122.3,377C120.3,381.4,115.1,383.2,110.6,381z"/>
	<path class="st15" d="M389.6,377.1l-16.1-32.2l-31.1-12.2c-4.5-1.7-6.7-6.9-5-11.4c1.8-4.5,6.9-6.7,11.4-5l34.2,13.5
		c2.1,0.8,3.7,2.3,4.6,4.3l17.6,35.2c2.2,4.4,0.5,9.6-3.9,11.8C396.9,383.2,391.7,381.4,389.6,377.1z"/>
	<path class="st16" d="M370.4,267.6c0,49-31,92.4-77.3,108.3c-5,1.7-10.2-1.3-11.4-6.4L256,254.8l-25.7,114.6
		c-1.3,5.3-6.7,8.1-11.4,6.4c-46.3-15.8-77.3-59.3-77.3-108.3c0-35.6,16.5-69.3,43-90.5h142.9C353.9,198,370.4,231.6,370.4,267.6z"
		/>
	<path class="st15" d="M289.4,358.4c-10.7,4-22,6-33.4,6V204.7c4,0,7.7,2.8,8.7,6.8l30.5,136.6C296,352.4,293.7,356.8,289.4,358.4z"
		/>
	<path class="st17" d="M370.4,267.6c0,49-31,92.4-77.3,108.3c-5,1.7-10.2-1.3-11.4-6.4L256,254.8V177h71.5
		C353.9,198,370.4,231.6,370.4,267.6z"/>
	<path class="st13" d="M293.4,158.2c-12.4-4.3-24.8-6.4-37.4-6.4c-12.7,0-25.2,2.1-37.4,6.4c-12.5,4.3-25.2,11.3-34,18.8
		c12.8,27.2,40.4,45.3,71.5,45.3c31.5,0,58.8-18.3,71.5-45.3C317.6,169.1,305.6,162.3,293.4,158.2z"/>
	<path class="st14" d="M327.4,177.1c-12.7,26.9-40,45.3-71.5,45.3V152c12.7,0,25.2,2.1,37.4,6.4
		C305.6,162.3,317.6,169.1,327.4,177.1z"/>
	<circle class="st15" cx="308.8" cy="249.9" r="8.8"/>
	<circle class="st14" cx="203.2" cy="249.9" r="8.8"/>
	<path class="st15" d="M317.6,311.5c-9.7,0-17.6-7.9-17.6-17.6s7.9-17.6,17.6-17.6s17.6,7.9,17.6,17.6S327.3,311.5,317.6,311.5z"/>
	<path class="st14" d="M194.4,311.5c-9.7,0-17.6-7.9-17.6-17.6s7.9-17.6,17.6-17.6s17.6,7.9,17.6,17.6S204.1,311.5,194.4,311.5z"/>
</g>
</svg>
