<?xml version="1.0" encoding="utf-8"?>
<!-- Generator: Adobe Illustrator 24.0.1, SVG Export Plug-In . SVG Version: 6.00 Build 0)  -->
<svg version="1.1" id="Layer_1" xmlns="http://www.w3.org/2000/svg" xmlns:xlink="http://www.w3.org/1999/xlink" x="0px" y="0px"
	 viewBox="0 0 512 512" style="enable-background:new 0 0 512 512;" xml:space="preserve">
<style type="text/css">
	.st0{display:none;}
	.st1{display:inline;fill:#200A7F;stroke:#18E5EA;stroke-width:20;stroke-miterlimit:10;}
	.st2{display:inline;fill:#EF0B79;}
	.st3{display:inline;fill:#18E5EA;}
	.st4{display:inline;}
	.st5{fill:#E9F21C;}
	.st6{display:inline;fill:none;}
	.st7{display:inline;fill:#EF3A24;}
	.st8{font-family:'MyriadPro-Regular';}
	.st9{font-size:250px;}
	.st10{display:inline;fill:#FFFFFF;}
	.st11{opacity:0.48;fill:#969696;enable-background:new    ;}
	.st12{fill:url(#SVGID_1_);stroke:#D8D8D8;stroke-width:2;stroke-miterlimit:10;}
	.st13{fill:#199B94;}
	.st14{fill:#102D35;}
	.st15{fill:#3EC1B1;}
	.st16{fill:#E57F23;}
	.st17{fill:#FF9C39;}
	.st18{fill:#194951;}
	.st19{fill:#56DBC8;}
	.st20{fill:#E2F2EF;}
	.st21{fill:#9AB2AC;}
</style>
<g id="Layer_3" class="st0">
	<path class="st1" d="M401.1,212.2c5.1,15.3,7.9,31.7,7.9,48.8c0,85.3-69.2,154.5-154.5,154.5S100,346.3,100,261
		s69.2-154.5,154.5-154.5c51.2,0,96.6,24.9,124.7,63.3"/>
	<path class="st2" d="M333.4,255.2c0,4.2-3.3,7.7-7.4,7.7H174.9c-4.1,0-7.4-3.4-7.4-7.7l0,0c0-4.2,3.3-7.7,7.4-7.7H326
		C330.1,247.5,333.4,250.9,333.4,255.2L333.4,255.2z"/>
	<path class="st2" d="M333.4,284.8c0,4.2-3.3,7.6-7.4,7.6H174.9c-4.1,0-7.4-3.4-7.4-7.6l0,0c0-4.2,3.3-7.6,7.4-7.6H326
		C330.1,277.1,333.4,280.6,333.4,284.8L333.4,284.8z"/>
	<path class="st2" d="M333.4,313c0,4.2-3.3,7.7-7.4,7.7H174.9c-4.1,0-7.4-3.4-7.4-7.7l0,0c0-4.2,3.3-7.6,7.4-7.6H326
		C330.1,305.4,333.4,308.8,333.4,313L333.4,313z"/>
	<path class="st2" d="M333.4,338.4c0,4.2-3.3,7.7-7.4,7.7H174.9c-4.1,0-7.4-3.4-7.4-7.7l0,0c0-4.2,3.3-7.6,7.4-7.6H326
		C330.1,330.7,333.4,334.1,333.4,338.4L333.4,338.4z"/>
	<polygon class="st3" points="395,191.5 320.2,165.2 380.4,113.5 	"/>
	<g class="st4">
		<g>
			<g>
				<path class="st5" d="M241.5,239.2c-2.3,0-4.4-1.1-5.8-2.9l-18.8-24.8c-2.4-3.2-1.8-7.8,1.4-10.3c3.2-2.4,7.8-1.8,10.3,1.4
					l12.3,16.3l31-49.8c2.1-3.4,6.6-4.5,10.1-2.3c3.4,2.1,4.5,6.6,2.3,10.1l-36.7,58.9c-1.3,2-3.5,3.3-5.9,3.4
					C241.7,239.2,241.6,239.2,241.5,239.2z"/>
			</g>
		</g>
	</g>
</g>
<g id="Layer_2_2_" class="st0">
	<rect x="121" y="171.5" class="st6" width="298" height="251"/>
	<text transform="matrix(1 0 0 1 121 348.9979)" class="st7 st8 st9">24</text>
	<circle class="st10" cx="138.3" cy="91.8" r="17.3"/>
	<circle class="st10" cx="185.3" cy="91.8" r="17.3"/>
	<circle class="st10" cx="232.3" cy="91.8" r="17.3"/>
	<circle class="st10" cx="278.3" cy="91.8" r="17.3"/>
	<circle class="st10" cx="323.3" cy="91.8" r="17.3"/>
	<circle class="st10" cx="368.3" cy="91.8" r="17.3"/>
</g>
<circle class="st11" cx="255.6" cy="260.3" r="244.6"/>
<radialGradient id="SVGID_1_" cx="254.6" cy="249.3" r="244.6" gradientUnits="userSpaceOnUse">
	<stop  offset="0" style="stop-color:#7C76B7"/>
	<stop  offset="0.5" style="stop-color:#6561AB"/>
	<stop  offset="1" style="stop-color:#483F99"/>
</radialGradient>
<path class="st12" d="M499.2,249.3c0,2.9,0,5.9-0.2,8.8c-0.5,14.4-2.3,28.4-5.1,42.1c-2.1,10-4.8,19.8-8.1,29.3c0,0,0,0,0,0
	c-3.2,9.3-7,18.4-11.3,27.2c-1.4,2.8-2.8,5.6-4.3,8.4c0,0,0,0,0,0c-0.1,0.1-0.1,0.2-0.2,0.3c-1.4,2.6-2.9,5.2-4.4,7.7
	c-3.6,6.1-7.4,12-11.5,17.7c-0.9,1.3-1.9,2.6-2.8,3.9c-2.6,3.5-5.3,7-8.1,10.4c-4.4,5.3-9,10.5-13.9,15.4c-2.1,2.1-4.2,4.2-6.3,6.2
	c0,0-0.1,0.1-0.1,0.1c-0.1,0.1-0.3,0.3-0.4,0.4c-0.2,0.2-0.4,0.4-0.7,0.6c0,0-0.1,0.1-0.1,0.1c-0.1,0.1-0.2,0.2-0.3,0.3
	c-1.7,1.6-3.4,3.1-5.2,4.7c-5.2,4.6-10.6,8.9-16.1,13.1c-2.3,1.7-4.7,3.4-7.1,5c0,0,0,0-0.1,0c-0.1,0.1-0.2,0.2-0.4,0.3
	c-39.3,26.9-86.8,42.6-138,42.6c-37.6,0-73.2-8.5-105-23.6c-0.1,0-0.2-0.1-0.3-0.1c-6.6-3.2-13.1-6.6-19.4-10.4
	c-0.1,0-0.1-0.1-0.2-0.1h0c-3.8-2.2-7.5-4.6-11.1-7c0,0,0,0-0.1,0c-2.5-1.7-4.9-3.4-7.3-5.1c-3.2-2.3-6.3-4.7-9.4-7.2
	c-2.3-1.8-4.6-3.7-6.8-5.6c-2.1-1.8-4.1-3.6-6.2-5.5c0,0-0.1-0.1-0.1-0.1c0,0,0,0-0.1,0c-0.1-0.1-0.2-0.2-0.3-0.2
	c0,0-0.1-0.1-0.1-0.1c0,0-0.1-0.1-0.1-0.1c-2.1-1.9-4.2-3.9-6.2-5.9c-4.9-4.9-9.6-9.9-14-15.2c-2.5-3-5-6-7.4-9.1
	c-1.3-1.6-2.5-3.3-3.7-4.9c-4.1-5.6-8-11.5-11.6-17.5c-1.1-1.8-2.2-3.6-3.2-5.5c-0.5-0.8-0.9-1.5-1.3-2.3c0,0,0,0,0,0
	c0,0,0-0.1-0.1-0.1c0,0,0,0,0,0c-1.5-2.7-3-5.5-4.4-8.2C32,351.2,28,342.2,24.7,333c0,0,0-0.1-0.1-0.1
	c-8.5-23.5-13.5-48.6-14.5-74.8c-0.1-2.9-0.2-5.8-0.2-8.8c0-3.2,0.1-6.4,0.2-9.5c1.5-39,12.1-75.7,29.8-107.9
	c10.6-19.3,23.7-37,38.9-52.7c0,0,0,0,0,0c9.7-10,20.2-19.2,31.5-27.4c38.3-28,85.1-45.2,135.9-46.9c2.8-0.1,5.6-0.1,8.4-0.1
	c2.9,0,5.7,0,8.6,0.1c50.6,1.7,97.3,18.8,135.6,46.8c28.8,21,52.8,48.1,70.1,79.5c17.9,32.4,28.7,69.3,30.2,108.6
	C499.1,242.9,499.2,246.1,499.2,249.3z"/>
<path class="st13" d="M118.8,143.9c0,0,1.1-95.7,16.5-127.9l42.6,119.1l-22.5,10.4L118.8,143.9z"/>
<path class="st14" d="M140.6,165.9c0,0-19.7-114.2-4.4-157.9c0,0,28.4,38.3,30.6,55.3l15.4-14.3l1.1,17l10.4-13.2l1.1,8.2l11-4.4
	l2.2,5.5l21.4-1.1l-5.5,52.5L174.1,160L140.6,165.9z"/>
<path class="st13" d="M385.7,143.9c0,0-1.1-95.7-16.5-127.9l-42.6,119.1l22.5,10.4L385.7,143.9z"/>
<g>
	<path class="st14" d="M363.7,165.9c0,0,19.7-114.2,4.4-157.9c0,0-28.4,38.3-30.6,55.3l-15.4-14.3l-1.1,17l-10.4-13.2l-1.1,8.2
		l-11-4.4l-2.2,5.5L275,61l5.5,52.5l49.8,46.5L363.7,165.9z"/>
	<polygon class="st14" points="143.9,198.1 118.8,159.3 114.5,191.5 92.7,190.4 109.5,208.5 84.4,222.2 147.8,266.5 129.3,292.7 
		153.8,280.1 153.8,296 165.9,287.2 165.9,295.4 173.6,291.6 182.9,304.7 156.6,220 	"/>
	<polygon class="st14" points="137.5,140.1 121,96.3 110.1,127.6 88.8,121.6 101.3,142.8 74,150.5 126.5,207.4 102.4,229.2 
		128.7,222.2 124.9,237.4 139,231.4 137.5,239.6 146.1,238 152.2,252.8 145,163.7 	"/>
	<polygon class="st14" points="360.6,198.1 385.7,159.3 390,191.5 411.8,190.4 395,208.5 420.1,222.2 356.7,266.5 375.2,292.7 
		350.7,280.1 350.7,296 338.6,287.2 338.6,295.4 331,291.6 321.6,304.7 348,220 	"/>
	<polygon class="st14" points="367,140.1 383.5,96.3 394.4,127.6 415.7,121.6 403.2,142.8 430.5,150.5 378,207.4 402.1,229.2 
		375.8,222.2 379.6,237.4 365.4,231.4 367,239.6 358.4,238 352.3,252.8 359.5,163.7 	"/>
	<path class="st14" d="M376.3,163.1c0-59.1-55.8-107.2-124.1-107.2S128.2,104,128.2,163.7c0,28.4,12.6,61.3,32.8,88
		c11.5,52.5,48.1,107.8,91.3,107.8S332,304.2,343,251.1C363.7,224.4,376.3,191.5,376.3,163.1z"/>
</g>
<path class="st15" d="M285,298.7c0,12.6-14.8,22.5-32.8,22.5s-32.8-9.9-32.8-22.5c0-12.6,14.8-11.5,32.8-11.5
	C270.3,287.2,285,286.1,285,298.7z"/>
<path class="st13" d="M285,298.7c0,12.6-14.8,22.5-32.8,22.5s-32.8-9.9-32.8-22.5"/>
<path class="st16" d="M163.7,171.9L163.7,171.9c-6.6,18.6,2.7,39.3,21.9,45.9c18.6,6.6,39.3-2.7,45.9-21.9l0,0L163.7,171.9z"/>
<path class="st17" d="M163.7,171.9L163.7,171.9c-6.6,18.6,7.7,28.4,26.2,35c18.6,6.6,35,8.2,41.5-10.4l0,0L163.7,171.9z"/>
<circle class="st14" cx="194.3" cy="197.5" r="6.6"/>
<path class="st16" d="M340.8,171.9L340.8,171.9c6.6,18.6-2.7,39.3-21.9,45.9c-18.6,6.6-39.3-2.7-45.9-21.9l0,0L340.8,171.9z"/>
<path class="st17" d="M340.8,171.9L340.8,171.9c6.6,18.6-7.7,28.4-26.2,35c-18.6,6.6-35,8.2-41.5-10.4l0,0L340.8,171.9z"/>
<circle class="st14" cx="310.2" cy="197.5" r="6.6"/>
<g>
	<ellipse class="st18" cx="252.3" cy="80.6" rx="41.5" ry="16.5"/>
	<ellipse class="st18" cx="252.3" cy="263.8" rx="36.6" ry="10.4"/>
</g>
<ellipse class="st19" cx="252.3" cy="290.5" rx="23.4" ry="3.8"/>
<g>
	<path class="st18" d="M240.2,179.6c-4.4,7.1-25.6,3.3-48.1-9.9c-22.5-12.6-37.2-28.9-33.3-36.1c4.4-7.1,21.4,4.4,43.7,17.5
		C225.5,163.7,244.6,171.9,240.2,179.6z"/>
	<path class="st18" d="M264.3,179.6c4.4,7.1,25.6,3.3,48.1-9.9c22.5-12.6,37.2-28.9,33.3-36.1c-4.4-7.1-21.4,4.4-43.7,17.5
		C279,163.7,259.9,171.9,264.3,179.6z"/>
</g>
<polygon class="st20" points="199.7,331.5 214,359.5 228.1,331.5 "/>
<polygon class="st21" points="211.3,331.5 214,359.5 228.1,331.5 "/>
<polygon class="st20" points="276.2,331.5 290.5,359.5 304.8,331.5 "/>
<polygon class="st21" points="287.8,331.5 290.5,359.5 304.8,331.5 "/>
</svg>
