<?xml version="1.0" encoding="utf-8"?>
<!-- Generator: Adobe Illustrator 24.0.1, SVG Export Plug-In . SVG Version: 6.00 Build 0)  -->
<svg version="1.1" id="Layer_1" xmlns="http://www.w3.org/2000/svg" xmlns:xlink="http://www.w3.org/1999/xlink" x="0px" y="0px"
	 viewBox="0 0 512 512" style="enable-background:new 0 0 512 512;" xml:space="preserve">
<style type="text/css">
	.st0{display:none;}
	.st1{display:inline;fill:#200A7F;stroke:#18E5EA;stroke-width:20;stroke-miterlimit:10;}
	.st2{display:inline;fill:#EF0B79;}
	.st3{display:inline;fill:#18E5EA;}
	.st4{display:inline;}
	.st5{fill:#E9F21C;}
	.st6{display:inline;fill:none;}
	.st7{display:inline;fill:#EF3A24;}
	.st8{font-family:'MyriadPro-Regular';}
	.st9{font-size:250px;}
	.st10{display:inline;fill:#FFFFFF;}
	.st11{opacity:0.48;fill:#969696;enable-background:new    ;}
	.st12{fill:url(#SVGID_1_);stroke:#D8D8D8;stroke-width:2;stroke-miterlimit:10;}
	.st13{fill:#314E55;}
	.st14{fill:#5ECB66;}
</style>
<g id="Layer_3" class="st0">
	<path class="st1" d="M401.1,212.2c5.1,15.3,7.9,31.7,7.9,48.8c0,85.3-69.2,154.5-154.5,154.5S100,346.3,100,261
		s69.2-154.5,154.5-154.5c51.2,0,96.6,24.9,124.7,63.3"/>
	<path class="st2" d="M333.4,255.2c0,4.2-3.3,7.7-7.4,7.7H174.9c-4.1,0-7.4-3.4-7.4-7.7l0,0c0-4.2,3.3-7.7,7.4-7.7H326
		C330.1,247.5,333.4,250.9,333.4,255.2L333.4,255.2z"/>
	<path class="st2" d="M333.4,284.8c0,4.2-3.3,7.6-7.4,7.6H174.9c-4.1,0-7.4-3.4-7.4-7.6l0,0c0-4.2,3.3-7.6,7.4-7.6H326
		C330.1,277.1,333.4,280.6,333.4,284.8L333.4,284.8z"/>
	<path class="st2" d="M333.4,313c0,4.2-3.3,7.7-7.4,7.7H174.9c-4.1,0-7.4-3.4-7.4-7.7l0,0c0-4.2,3.3-7.6,7.4-7.6H326
		C330.1,305.4,333.4,308.8,333.4,313L333.4,313z"/>
	<path class="st2" d="M333.4,338.4c0,4.2-3.3,7.7-7.4,7.7H174.9c-4.1,0-7.4-3.4-7.4-7.7l0,0c0-4.2,3.3-7.6,7.4-7.6H326
		C330.1,330.7,333.4,334.1,333.4,338.4L333.4,338.4z"/>
	<polygon class="st3" points="395,191.5 320.2,165.2 380.4,113.5 	"/>
	<g class="st4">
		<g>
			<g>
				<path class="st5" d="M241.5,239.2c-2.3,0-4.4-1.1-5.8-2.9l-18.8-24.8c-2.4-3.2-1.8-7.8,1.4-10.3c3.2-2.4,7.8-1.8,10.3,1.4
					l12.3,16.3l31-49.8c2.1-3.4,6.6-4.5,10.1-2.3c3.4,2.1,4.5,6.6,2.3,10.1l-36.7,58.9c-1.3,2-3.5,3.3-5.9,3.4
					C241.7,239.2,241.6,239.2,241.5,239.2z"/>
			</g>
		</g>
	</g>
</g>
<g id="Layer_2_2_" class="st0">
	<rect x="121" y="171.5" class="st6" width="298" height="251"/>
	<text transform="matrix(1 0 0 1 121 348.9979)" class="st7 st8 st9">24</text>
	<circle class="st10" cx="138.3" cy="91.8" r="17.3"/>
	<circle class="st10" cx="185.3" cy="91.8" r="17.3"/>
	<circle class="st10" cx="232.3" cy="91.8" r="17.3"/>
	<circle class="st10" cx="278.3" cy="91.8" r="17.3"/>
	<circle class="st10" cx="323.3" cy="91.8" r="17.3"/>
	<circle class="st10" cx="368.3" cy="91.8" r="17.3"/>
</g>
<circle class="st11" cx="255.6" cy="260.3" r="244.6"/>
<radialGradient id="SVGID_1_" cx="254.55" cy="264.65" r="244.6" gradientTransform="matrix(1 0 0 -1 0 514)" gradientUnits="userSpaceOnUse">
	<stop  offset="0" style="stop-color:#64C08A"/>
	<stop  offset="0.5" style="stop-color:#00A550"/>
	<stop  offset="1" style="stop-color:#00914C"/>
</radialGradient>
<path class="st12" d="M499.2,249.3c0,2.9,0,5.9-0.2,8.8c-0.5,14.4-2.3,28.4-5.1,42.1c-2.1,10-4.8,19.8-8.1,29.3l0,0
	c-3.2,9.3-7,18.4-11.3,27.2c-1.4,2.8-2.8,5.6-4.3,8.4l0,0c-0.1,0.1-0.1,0.2-0.2,0.3c-1.4,2.6-2.9,5.2-4.4,7.7
	c-3.6,6.1-7.4,12-11.5,17.7c-0.9,1.3-1.9,2.6-2.8,3.9c-2.6,3.5-5.3,7-8.1,10.4c-4.4,5.3-9,10.5-13.9,15.4c-2.1,2.1-4.2,4.2-6.3,6.2
	l-0.1,0.1c-0.1,0.1-0.3,0.3-0.4,0.4c-0.2,0.2-0.4,0.4-0.7,0.6l-0.1,0.1c-0.1,0.1-0.2,0.2-0.3,0.3c-1.7,1.6-3.4,3.1-5.2,4.7
	c-5.2,4.6-10.6,8.9-16.1,13.1c-2.3,1.7-4.7,3.4-7.1,5c0,0,0,0-0.1,0c-0.1,0.1-0.2,0.2-0.4,0.3c-39.3,26.9-86.8,42.6-138,42.6
	c-37.6,0-73.2-8.5-105-23.6c-0.1,0-0.2-0.1-0.3-0.1c-6.6-3.2-13.1-6.6-19.4-10.4c-0.1,0-0.1-0.1-0.2-0.1l0,0
	c-3.8-2.2-7.5-4.6-11.1-7c0,0,0,0-0.1,0c-2.5-1.7-4.9-3.4-7.3-5.1c-3.2-2.3-6.3-4.7-9.4-7.2c-2.3-1.8-4.6-3.7-6.8-5.6
	c-2.1-1.8-4.1-3.6-6.2-5.5l-0.1-0.1c0,0,0,0-0.1,0c-0.1-0.1-0.2-0.2-0.3-0.2l-0.1-0.1l-0.1-0.1c-2.1-1.9-4.2-3.9-6.2-5.9
	c-4.9-4.9-9.6-9.9-14-15.2c-2.5-3-5-6-7.4-9.1c-1.3-1.6-2.5-3.3-3.7-4.9c-4.1-5.6-8-11.5-11.6-17.5c-1.1-1.8-2.2-3.6-3.2-5.5
	c-0.5-0.8-0.9-1.5-1.3-2.3l0,0c0,0,0-0.1-0.1-0.1l0,0c-1.5-2.7-3-5.5-4.4-8.2C32,351.2,28,342.2,24.7,333c0,0,0-0.1-0.1-0.1
	c-8.5-23.5-13.5-48.6-14.5-74.8c-0.1-2.9-0.2-5.8-0.2-8.8c0-3.2,0.1-6.4,0.2-9.5c1.5-39,12.1-75.7,29.8-107.9
	c10.6-19.3,23.7-37,38.9-52.7l0,0c9.7-10,20.2-19.2,31.5-27.4c38.3-28,85.1-45.2,135.9-46.9c2.8-0.1,5.6-0.1,8.4-0.1
	c2.9,0,5.7,0,8.6,0.1c50.6,1.7,97.3,18.8,135.6,46.8c28.8,21,52.8,48.1,70.1,79.5c17.9,32.4,28.7,69.3,30.2,108.6
	C499.1,242.9,499.2,246.1,499.2,249.3z"/>
<path class="st13" d="M289.5,126.2l12.7-21.2c1.5-2.4,0.7-5.6-1.7-7c-2.4-1.5-5.6-0.7-7,1.8L280,122.2c-8-2.8-16.6-4.5-25.6-4.5
	s-17.6,1.6-25.6,4.5l-13.3-22.5c-1.5-2.4-4.6-3.2-7-1.8c-2.4,1.4-3.2,4.6-1.8,7l12.7,21.2c-24.6,12.7-41.6,38.4-41.6,68
	c0,2.8,2.3,5.1,5.1,5.1h142.9c2.8,0,5.1-2.3,5.1-5.1C331.2,164.6,314.3,139,289.5,126.2z"/>
<path class="st14" d="M188.4,189.1c2.6-34.2,31.3-61.3,66.2-61.3s63.6,27,66.2,61.3H188.4L188.4,189.1z"/>
<g>
	<path class="st13" d="M290.2,155.3h-6.7c-1.9,0-3.4,1.5-3.4,3.4v6.7c0,1.9,1.5,3.4,3.4,3.4h6.7c1.9,0,3.4-1.5,3.4-3.4v-6.7
		C293.5,156.8,292,155.3,290.2,155.3z"/>
	<path class="st13" d="M225.7,155.3H219c-1.9,0-3.4,1.5-3.4,3.4v6.7c0,1.9,1.5,3.4,3.4,3.4h6.7c1.9,0,3.4-1.5,3.4-3.4v-6.7
		C229.1,156.8,227.6,155.3,225.7,155.3z"/>
	<path class="st13" d="M326,204.5H183c-2.8,0-5.1,2.3-5.1,5.1v103c0,13.6,11.1,24.7,24.7,24.7h5.9V368c0,11.2,9.2,20.4,20.4,20.4
		c11.3,0,20.4-9.1,20.4-20.4v-30.7h10.2V368c0,11.2,9.2,20.4,20.4,20.4c11.3,0,20.4-9.1,20.4-20.4v-30.7h5.9
		c13.6,0,24.7-11.1,24.7-24.7v-103C331.2,206.7,328.8,204.5,326,204.5z"/>
</g>
<path class="st14" d="M321,312.5c0,8-6.5,14.4-14.5,14.4h-11.1c-2.8,0-5.1,2.3-5.1,5.1v35.8c0,5.6-4.6,10.2-10.2,10.2
	s-10.2-4.6-10.2-10.2V332c0-2.8-2.3-5.1-5.1-5.1h-20.4c-2.8,0-5.1,2.3-5.1,5.1v35.8c0,5.6-4.6,10.2-10.2,10.2
	c-5.6,0-10.2-4.6-10.2-10.2V332c0-2.8-2.3-5.1-5.1-5.1h-11.1c-8,0-14.5-6.5-14.5-14.4v-97.9h132.7v97.9H321z"/>
<path class="st13" d="M354.2,204.5c-9.9,0-17.9,8-17.9,17.9v71.4c0,9.9,8,17.9,17.9,17.9s17.9-8,17.9-17.9v-71.4
	C372,212.5,364,204.5,354.2,204.5z"/>
<path class="st14" d="M361.8,293.8c0,4.2-3.4,7.7-7.7,7.7c-4.2,0-7.7-3.4-7.7-7.7v-71.4c0-4.2,3.4-7.7,7.7-7.7
	c4.3,0,7.7,3.4,7.7,7.7V293.8z"/>
<path class="st13" d="M155.1,204.5c-9.9,0-17.9,8-17.9,17.9v71.4c0,9.9,8,17.9,17.9,17.9s17.9-8,17.9-17.9v-71.4
	C172.9,212.5,164.9,204.5,155.1,204.5z"/>
<path class="st14" d="M162.7,293.8c0,4.2-3.4,7.7-7.7,7.7c-4.2,0-7.7-3.4-7.7-7.7v-71.4c0-4.2,3.4-7.7,7.7-7.7
	c4.2,0,7.7,3.4,7.7,7.7V293.8z"/>
<g>
	<g>
		<path class="st13" d="M232.9,289.4l-34.3-18.7v-10.4l34.3-18.6v12.2L209,265.4l23.9,11.9V289.4L232.9,289.4z"/>
		<path class="st13" d="M238.7,295.9l22.7-60.7h7.2l-22.8,60.7H238.7z"/>
		<path class="st13" d="M276.3,289.4v-12.1l23.9-11.8l-23.9-11.7v-12l34.3,18.6v10.3L276.3,289.4z"/>
	</g>
</g>
</svg>
