<?xml version="1.0" encoding="utf-8"?>
<!-- Generator: Adobe Illustrator 24.0.1, SVG Export Plug-In . SVG Version: 6.00 Build 0)  -->
<svg version="1.1" id="Layer_1" xmlns="http://www.w3.org/2000/svg" xmlns:xlink="http://www.w3.org/1999/xlink" x="0px" y="0px"
	 viewBox="0 0 512 512" style="enable-background:new 0 0 512 512;" xml:space="preserve">
<style type="text/css">
	.st0{display:none;}
	.st1{display:inline;fill:#200A7F;stroke:#18E5EA;stroke-width:20;stroke-miterlimit:10;}
	.st2{display:inline;fill:#EF0B79;}
	.st3{display:inline;fill:#18E5EA;}
	.st4{display:inline;}
	.st5{fill:#E9F21C;}
	.st6{display:inline;fill:none;}
	.st7{display:inline;fill:#EF3A24;}
	.st8{font-family:'MyriadPro-Regular';}
	.st9{font-size:250px;}
	.st10{display:inline;fill:#FFFFFF;}
	.st11{opacity:0.48;fill:#969696;enable-background:new    ;}
	.st12{fill:url(#SVGID_1_);stroke:#D8D8D8;stroke-width:2;stroke-miterlimit:10;}
	.st13{fill:#F9FAE9;}
</style>
<g id="Layer_3" class="st0">
	<path class="st1" d="M401.1,212.2c5.1,15.3,7.9,31.7,7.9,48.8c0,85.3-69.2,154.5-154.5,154.5S100,346.3,100,261
		s69.2-154.5,154.5-154.5c51.2,0,96.6,24.9,124.7,63.3"/>
	<path class="st2" d="M333.4,255.2c0,4.2-3.3,7.7-7.4,7.7H174.9c-4.1,0-7.4-3.4-7.4-7.7l0,0c0-4.2,3.3-7.7,7.4-7.7H326
		C330.1,247.5,333.4,250.9,333.4,255.2L333.4,255.2z"/>
	<path class="st2" d="M333.4,284.8c0,4.2-3.3,7.6-7.4,7.6H174.9c-4.1,0-7.4-3.4-7.4-7.6l0,0c0-4.2,3.3-7.6,7.4-7.6H326
		C330.1,277.1,333.4,280.6,333.4,284.8L333.4,284.8z"/>
	<path class="st2" d="M333.4,313c0,4.2-3.3,7.7-7.4,7.7H174.9c-4.1,0-7.4-3.4-7.4-7.7l0,0c0-4.2,3.3-7.6,7.4-7.6H326
		C330.1,305.4,333.4,308.8,333.4,313L333.4,313z"/>
	<path class="st2" d="M333.4,338.4c0,4.2-3.3,7.7-7.4,7.7H174.9c-4.1,0-7.4-3.4-7.4-7.7l0,0c0-4.2,3.3-7.6,7.4-7.6H326
		C330.1,330.7,333.4,334.1,333.4,338.4L333.4,338.4z"/>
	<polygon class="st3" points="395,191.5 320.2,165.2 380.4,113.5 	"/>
	<g class="st4">
		<g>
			<g>
				<path class="st5" d="M241.5,239.2c-2.3,0-4.4-1.1-5.8-2.9l-18.8-24.8c-2.4-3.2-1.8-7.8,1.4-10.3c3.2-2.4,7.8-1.8,10.3,1.4
					l12.3,16.3l31-49.8c2.1-3.4,6.6-4.5,10.1-2.3c3.4,2.1,4.5,6.6,2.3,10.1l-36.7,58.9c-1.3,2-3.5,3.3-5.9,3.4
					C241.7,239.2,241.6,239.2,241.5,239.2z"/>
			</g>
		</g>
	</g>
</g>
<g id="Layer_2_2_" class="st0">
	<rect x="121" y="171.5" class="st6" width="298" height="251"/>
	<text transform="matrix(1 0 0 1 121 348.9979)" class="st7 st8 st9">24</text>
	<circle class="st10" cx="138.3" cy="91.8" r="17.3"/>
	<circle class="st10" cx="185.3" cy="91.8" r="17.3"/>
	<circle class="st10" cx="232.3" cy="91.8" r="17.3"/>
	<circle class="st10" cx="278.3" cy="91.8" r="17.3"/>
	<circle class="st10" cx="323.3" cy="91.8" r="17.3"/>
	<circle class="st10" cx="368.3" cy="91.8" r="17.3"/>
</g>
<circle class="st11" cx="255.6" cy="260.3" r="244.6"/>
<radialGradient id="SVGID_1_" cx="254.6" cy="264.7" r="244.6" gradientTransform="matrix(1 0 0 -1 0 514)" gradientUnits="userSpaceOnUse">
	<stop  offset="0" style="stop-color:#F69453"/>
	<stop  offset="0.5" style="stop-color:#F37521"/>
	<stop  offset="1" style="stop-color:#D4622A"/>
</radialGradient>
<circle class="st12" cx="254.6" cy="249.3" r="244.6"/>
<path class="st13" d="M385.1,234.8c-0.4-3.7-4.7-6.4-8.4-6.4c-11.9,0-22.5-7-26.9-17.8c-4.5-11.1-1.6-24,7.3-32.1
	c2.8-2.6,3.1-6.8,0.8-9.8c-6.1-7.7-13-14.7-20.6-20.8c-3-2.4-7.3-2-9.9,0.8c-7.7,8.6-21.7,11.8-32.4,7.3
	c-11.2-4.7-18.3-16.1-17.6-28.2c0.2-3.8-2.6-7.2-6.4-7.6c-9.7-1.1-19.5-1.2-29.2-0.1c-3.8,0.4-6.6,3.7-6.4,7.4
	c0.4,12.1-6.7,23.2-17.8,27.7c-10.6,4.3-24.4,1.2-32.2-7.3c-2.6-2.8-6.8-3.1-9.8-0.8c-7.8,6.1-14.9,13.1-21,20.8
	c-2.4,3-2,7.3,0.8,9.9c9.1,8.2,12,21.2,7.3,32.4c-4.5,10.7-15.6,17.6-28.3,17.6c-4.1-0.1-7.1,2.6-7.5,6.4
	c-1.1,9.8-1.2,19.7-0.1,29.6c0.4,3.7,4.8,6.4,8.5,6.4c11.3-0.3,22.2,6.7,26.8,17.8c4.5,11.1,1.6,24-7.3,32.1
	c-2.8,2.6-3.1,6.8-0.8,9.8c6,7.7,13,14.7,20.6,20.8c3,2.4,7.3,2.1,9.9-0.8c7.8-8.6,21.7-11.8,32.4-7.3c11.2,4.7,18.3,16,17.6,28.2
	c-0.2,3.8,2.6,7.2,6.4,7.6c5,0.6,10,0.9,15,0.9c4.8,0,9.5-0.3,14.3-0.8c3.8-0.4,6.6-3.7,6.4-7.4c-0.4-12,6.7-23.2,17.8-27.7
	c10.7-4.4,24.5-1.2,32.2,7.3c2.6,2.8,6.8,3.1,9.8,0.8c7.8-6.1,14.8-13.1,21-20.8c2.4-3,2.1-7.3-0.8-9.9c-9-8.2-12-21.2-7.3-32.4
	c4.4-10.5,15.1-17.6,26.6-17.6h1.6c3.7,0.3,7.2-2.6,7.6-6.4C386.2,254.6,386.2,244.7,385.1,234.8z M255.9,324.2
	c-41.4,0-74.9-33.6-74.9-74.9c0-41.4,33.6-74.9,74.9-74.9s74.9,33.6,74.9,74.9c0,14-3.9,27.2-10.6,38.4l-32.8-32.8
	c2.4-5.6,3.6-11.7,3.6-17.9c0-12.3-4.8-23.8-13.5-32.5S257.3,191,245,191c-4.1,0-8.2,0.5-12.1,1.6c-1.7,0.5-3.1,1.9-3.6,3.6
	c-0.5,1.8,0.1,3.6,1.4,5c0,0,16.2,16.3,21.6,21.7c0.6,0.6,0.6,1.9,0.5,2.4l-0.1,0.4c-0.5,6-1.6,13.1-2.5,15.9
	c-0.1,0.1-0.2,0.2-0.3,0.3s-0.2,0.2-0.4,0.4c-2.8,0.9-10,2-16.1,2.5l0,0l-0.3,0.1c0,0-0.1,0-0.3,0c-0.7,0-1.6-0.2-2.5-1.1
	c-5.6-5.6-21.2-21.1-21.2-21.1c-1.4-1.4-2.8-1.7-3.8-1.7c-2.2,0-4.2,1.6-4.8,3.9c-4.3,15.9,0.3,32.9,11.9,44.5
	c8.7,8.7,20.2,13.5,32.5,13.5c6.3,0,12.3-1.3,17.9-3.6l33.2,33.2C284.6,319.9,270.8,324.2,255.9,324.2z"/>
</svg>
