<?xml version="1.0" encoding="utf-8"?>
<!-- Generator: Adobe Illustrator 24.0.1, SVG Export Plug-In . SVG Version: 6.00 Build 0)  -->
<svg version="1.1" id="Layer_1" xmlns="http://www.w3.org/2000/svg" xmlns:xlink="http://www.w3.org/1999/xlink" x="0px" y="0px"
	 viewBox="0 0 512 512" style="enable-background:new 0 0 512 512;" xml:space="preserve">
<style type="text/css">
	.st0{display:none;}
	.st1{display:inline;fill:#200A7F;stroke:#18E5EA;stroke-width:20;stroke-miterlimit:10;}
	.st2{display:inline;fill:#EF0B79;}
	.st3{display:inline;fill:#18E5EA;}
	.st4{display:inline;}
	.st5{fill:#E9F21C;}
	.st6{display:inline;fill:none;}
	.st7{display:inline;fill:#EF3A24;}
	.st8{font-family:'MyriadPro-Regular';}
	.st9{font-size:250px;}
	.st10{display:inline;fill:#FFFFFF;}
	.st11{opacity:0.48;fill:#969696;enable-background:new    ;}
	.st12{fill:url(#SVGID_1_);}
	.st13{fill:#FCFCFC;}
</style>
<g id="Layer_3" class="st0">
	<path class="st1" d="M401.1,212.2c5.1,15.3,7.9,31.7,7.9,48.8c0,85.3-69.2,154.5-154.5,154.5S100,346.3,100,261
		s69.2-154.5,154.5-154.5c51.2,0,96.6,24.9,124.7,63.3"/>
	<path class="st2" d="M333.4,255.2c0,4.2-3.3,7.7-7.4,7.7H174.9c-4.1,0-7.4-3.4-7.4-7.7l0,0c0-4.2,3.3-7.7,7.4-7.7H326
		C330.1,247.5,333.4,250.9,333.4,255.2L333.4,255.2z"/>
	<path class="st2" d="M333.4,284.8c0,4.2-3.3,7.6-7.4,7.6H174.9c-4.1,0-7.4-3.4-7.4-7.6l0,0c0-4.2,3.3-7.6,7.4-7.6H326
		C330.1,277.1,333.4,280.6,333.4,284.8L333.4,284.8z"/>
	<path class="st2" d="M333.4,313c0,4.2-3.3,7.7-7.4,7.7H174.9c-4.1,0-7.4-3.4-7.4-7.7l0,0c0-4.2,3.3-7.6,7.4-7.6H326
		C330.1,305.4,333.4,308.8,333.4,313L333.4,313z"/>
	<path class="st2" d="M333.4,338.4c0,4.2-3.3,7.7-7.4,7.7H174.9c-4.1,0-7.4-3.4-7.4-7.7l0,0c0-4.2,3.3-7.6,7.4-7.6H326
		C330.1,330.7,333.4,334.1,333.4,338.4L333.4,338.4z"/>
	<polygon class="st3" points="395,191.5 320.2,165.2 380.4,113.5 	"/>
	<g class="st4">
		<g>
			<g>
				<path class="st5" d="M241.5,239.2c-2.3,0-4.4-1.1-5.8-2.9l-18.8-24.8c-2.4-3.2-1.8-7.8,1.4-10.3c3.2-2.4,7.8-1.8,10.3,1.4
					l12.3,16.3l31-49.8c2.1-3.4,6.6-4.5,10.1-2.3c3.4,2.1,4.5,6.6,2.3,10.1l-36.7,58.9c-1.3,2-3.5,3.3-5.9,3.4
					C241.7,239.2,241.6,239.2,241.5,239.2z"/>
			</g>
		</g>
	</g>
</g>
<g id="Layer_2_2_" class="st0">
	<rect x="121" y="171.5" class="st6" width="298" height="251"/>
	<text transform="matrix(1 0 0 1 121 348.9979)" class="st7 st8 st9">24</text>
	<circle class="st10" cx="138.3" cy="91.8" r="17.3"/>
	<circle class="st10" cx="185.3" cy="91.8" r="17.3"/>
	<circle class="st10" cx="232.3" cy="91.8" r="17.3"/>
	<circle class="st10" cx="278.3" cy="91.8" r="17.3"/>
	<circle class="st10" cx="323.3" cy="91.8" r="17.3"/>
	<circle class="st10" cx="368.3" cy="91.8" r="17.3"/>
</g>
<circle class="st11" cx="255.6" cy="260.3" r="244.6"/>
<radialGradient id="SVGID_1_" cx="254.55" cy="249.3" r="244.625" gradientUnits="userSpaceOnUse">
	<stop  offset="0" style="stop-color:#5B57A5"/>
	<stop  offset="0.5" style="stop-color:#2E3092"/>
	<stop  offset="1" style="stop-color:#474374"/>
</radialGradient>
<path class="st12" d="M499.2,249.3c0,2.9,0,5.9-0.2,8.8c-0.1,3.2-0.3,6.3-0.5,9.5c-0.4,6-1.1,12-2,17.9c-0.5,3.1-1,6.3-1.6,9.4
	c-0.3,1.7-0.7,3.5-1,5.2c0,0,0,0.1,0,0.2c-0.1,0.5-0.2,0.9-0.3,1.4c-0.8,3.5-1.6,7-2.5,10.4c-0.8,3.2-1.8,6.4-2.8,9.6
	c-0.8,2.6-1.6,5.2-2.5,7.8c-0.2,0.6-0.4,1.1-0.6,1.7c-2,5.7-4.3,11.3-6.7,16.8c-0.3,0.6-0.5,1.2-0.8,1.8c0,0,0,0,0,0
	c-0.4,0.8-0.8,1.7-1.1,2.5l0,0c-0.7,1.5-1.3,2.9-2,4.4c-0.7,1.4-1.4,2.8-2.1,4.1c-0.7,1.4-1.5,2.8-2.2,4.3c-0.1,0.1-0.1,0.2-0.2,0.3
	c-0.5,0.8-0.9,1.6-1.4,2.5c-0.1,0.1-0.1,0.2-0.2,0.4c-0.9,1.7-1.9,3.3-2.8,4.9c-0.4,0.7-0.8,1.3-1.2,2c-0.1,0.3-0.3,0.5-0.4,0.7
	c0,0.1-0.1,0.2-0.1,0.2c-0.9,1.5-1.8,3-2.8,4.5c0,0,0,0,0,0c-1.7,2.7-3.5,5.4-5.4,8c-0.2,0.4-0.5,0.7-0.7,1.1l0,0.1
	c-0.3,0.4-0.5,0.7-0.8,1.1c-0.9,1.3-1.9,2.6-2.8,3.9c-0.8,1-1.5,2.1-2.3,3.1c0,0.1-0.1,0.1-0.1,0.2c-1.8,2.4-3.7,4.8-5.6,7.1
	c-3.6,4.3-7.3,8.6-11.2,12.7c-0.9,0.9-1.8,1.8-2.7,2.8c-2.1,2.1-4.1,4.2-6.2,6.1c0,0,0,0-0.1,0.1l-0.1,0.1c-0.1,0.1-0.3,0.3-0.4,0.4
	c-0.2,0.2-0.4,0.4-0.7,0.6l-0.1,0.1c-0.1,0.1-0.2,0.2-0.3,0.3c-1.7,1.6-3.4,3.1-5.2,4.7c-0.9,0.8-1.8,1.5-2.7,2.3
	c0,0-0.1,0.1-0.1,0.1c-0.2,0.2-0.4,0.3-0.5,0.5c-2.8,2.4-5.6,4.7-8.5,6.9c-1.4,1.1-2.8,2.2-4.3,3.3c-2.3,1.7-4.7,3.4-7.1,5
	c0,0,0,0-0.1,0c-0.1,0-0.1,0.1-0.2,0.2c-0.1,0-0.1,0.1-0.2,0.1c-1,0.7-1.9,1.3-2.9,1.9c-2,1.3-4,2.6-6,3.8c-1.2,0.8-2.4,1.5-3.7,2.2
	c-1.7,1-3.4,2-5.2,3c-3.2,1.8-6.4,3.5-9.6,5.2c-8.6,4.4-17.5,8.3-26.7,11.6c-5.4,2-10.9,3.8-16.5,5.4c-3.1,0.9-6.3,1.7-9.5,2.5
	c-18.6,4.5-38.1,6.9-58.1,6.9s-39.4-2.4-58-6.9c-3-0.7-6-1.5-9-2.4c-7.7-2.2-15.3-4.8-22.7-7.7c-5.2-2-10.3-4.3-15.3-6.7
	c-0.1,0-0.2-0.1-0.3-0.1c-4.1-2-8.1-4-12-6.2c-2.5-1.3-4.9-2.8-7.4-4.2c-0.1,0-0.1-0.1-0.2-0.1c-1.4-0.8-2.8-1.7-4.2-2.5
	c-1-0.6-2-1.3-3-1.9c-1.3-0.8-2.6-1.7-3.9-2.6c0,0,0,0-0.1,0c-2.5-1.7-4.9-3.4-7.3-5.1c-1.2-0.8-2.3-1.7-3.5-2.6c-2-1.5-4-3-5.9-4.6
	c-1.2-0.9-2.3-1.8-3.4-2.8c0,0,0,0,0,0c-1.1-0.9-2.2-1.9-3.3-2.8c-2.1-1.8-4.1-3.6-6.2-5.5l-0.1-0.1c0,0,0,0-0.1,0
	c-0.1-0.1-0.2-0.2-0.3-0.2l-0.2-0.2c-2.1-1.9-4.2-3.9-6.2-5.9c-4.9-4.9-9.6-9.9-14-15.2c-2.5-3-5-6-7.4-9.1l-0.6-0.7
	c-1.1-1.4-2.1-2.8-3.1-4.2c-3-4.1-5.8-8.3-8.6-12.6c-1-1.6-2-3.3-3-4.9c-0.8-1.4-1.6-2.7-2.4-4.1c-0.3-0.5-0.5-0.9-0.8-1.4
	c-0.5-0.8-0.9-1.5-1.3-2.3c0,0,0,0,0-0.1c0,0,0,0-0.1,0c-1.5-2.7-3-5.5-4.4-8.2c-4.1-8.8-8.1-17.8-11.4-27c0,0,0-0.1-0.1-0.1
	c-2.3-6.5-4.4-13-6.2-19.7c-4.8-17.7-7.6-36.1-8.3-55.1c-0.1-2.9-0.2-5.8-0.2-8.8c0-3.2,0.1-6.4,0.2-9.5c0.7-18.8,3.6-37.1,8.3-54.6
	c0.6-2.1,1.1-4.1,1.8-6.2c1.6-5.4,3.4-10.8,5.4-16c0.9-2.4,1.8-4.8,2.8-7.1c2.3-5.5,4.7-10.9,7.4-16.1c1.3-2.7,2.7-5.3,4.1-7.8
	c0.3-0.5,0.5-0.9,0.8-1.4c2.4-4.3,4.9-8.5,7.5-12.5c3.7-5.8,7.7-11.5,11.9-17c5.8-7.6,12.1-14.9,18.8-21.8c1.9-2,3.9-4,5.8-5.9
	c2.5-2.4,5-4.8,7.6-7c3.4-3,6.9-5.9,10.5-8.8c0.3-0.2,0.5-0.4,0.8-0.6c1.4-1.1,2.8-2.2,4.2-3.2c0.9-0.6,1.7-1.3,2.6-1.9
	c1.2-0.9,2.4-1.8,3.7-2.7c0.4-0.3,0.9-0.6,1.3-0.9c0.5-0.4,1.1-0.8,1.6-1.1c1.8-1.3,3.7-2.5,5.5-3.7c1.1-0.7,2.1-1.4,3.2-2
	c2.2-1.4,4.4-2.7,6.6-4c1.6-1,3.3-1.9,4.9-2.8c0.4-0.2,0.8-0.5,1.3-0.7c2-1.1,3.9-2.1,5.9-3.1c3.5-1.8,7.1-3.5,10.8-5.1
	c0.8-0.4,1.7-0.8,2.6-1.1c8.3-3.6,16.9-6.7,25.6-9.4c3.8-1.2,7.7-2.3,11.6-3.2c0.5-0.1,1-0.2,1.5-0.4c0.7-0.2,1.4-0.3,2.1-0.5
	c11.8-2.8,23.9-4.7,36.2-5.7c3.1-0.3,6.3-0.5,9.5-0.6c0.6,0,1.3-0.1,1.9-0.1c2.8-0.1,5.6-0.1,8.4-0.1h0.4c2.8,0,5.5,0,8.2,0.1
	c0.6,0,1.2,0,1.8,0.1c0.1,0,0.2,0,0.2,0c3.2,0.1,6.3,0.3,9.4,0.6c1.9,0.1,3.8,0.3,5.6,0.5c11.1,1.2,22,3.1,32.6,5.6
	c0.5,0.1,1.1,0.3,1.6,0.4c13.8,3.4,27.1,8.1,39.8,13.7c1.9,0.8,3.7,1.7,5.5,2.5c5.1,2.5,10.2,5.1,15.1,7.9c2.9,1.7,5.8,3.4,8.7,5.1
	c1.7,1,3.3,2.1,5,3.2c0.4,0.3,0.8,0.5,1.1,0.7c1.5,1,2.9,2,4.4,2.9c1.6,1.1,3.2,2.2,4.7,3.3c1.7,1.3,3.5,2.6,5.2,3.9
	c0.2,0.1,0.3,0.3,0.5,0.4c1.9,1.4,3.7,2.9,5.5,4.4c2.3,1.9,4.7,3.9,6.9,5.9c4,3.5,7.9,7.2,11.6,11c1.6,1.6,3.2,3.3,4.8,5
	c1.3,1.4,2.7,2.9,3.9,4.3c1.4,1.6,2.8,3.2,4.2,4.8c1.3,1.6,2.6,3.1,3.9,4.7c1.3,1.7,2.7,3.4,4,5.1c0.8,1,1.5,2,2.3,3
	c4.4,6,8.5,12.2,12.4,18.6c0.6,1,1.2,1.9,1.7,2.9c1,1.7,2,3.4,2.9,5.1c0.1,0.1,0.1,0.2,0.2,0.3l0,0c0,0,0,0.1,0.1,0.1
	c1.9,3.4,3.7,6.8,5.4,10.3l0,0c2.8,5.6,5.3,11.4,7.6,17.2c0.6,1.5,1.2,3,1.8,4.6c0.2,0.5,0.4,1,0.5,1.5c2,5.3,3.7,10.6,5.3,16.1
	c1,3.3,1.8,6.5,2.6,9.9c0,0,0,0.1,0,0.1c0.6,2.2,1.1,4.5,1.6,6.7c0.2,1.1,0.5,2.2,0.7,3.3c1,4.8,1.8,9.7,2.5,14.6
	c0.1,0.9,0.3,1.9,0.4,2.8c0.4,3.5,0.8,6.9,1.1,10.4c0,0.1,0,0.1,0,0.2c0.3,3.6,0.5,7.2,0.7,10.8c0,0,0,0.1,0,0.1
	C499.1,242.9,499.2,246.1,499.2,249.3z"/>
<g>
	<g>
		<path class="st13" d="M470,200.8l-34-5.7c-3.5-11.4-8.1-22.6-13.7-33l20-28.1c8.6-11.9,7.1-28.3-3.2-38.6L409,65.2
			c-5.7-5.7-13.2-8.9-21.1-8.9c-6.4,0-12.2,1.9-17.3,5.6l-28.1,20c-11-5.7-22.4-10.5-34.3-14.1L302.5,34
			c-2.4-14.5-14.9-25.1-29.5-25.1H230c-14.8,0-27.2,10.5-29.5,25.1l-5.9,34.5c-11.3,3.5-22.4,8.3-32.9,13.8l-27.8-20
			c-5.1-3.7-11.1-5.6-17.5-5.6c-7.9,0-15.6,3.2-21.1,8.9L65,95.8c-10.3,10.3-11.8,26.7-3.2,38.6l20.3,28.4
			c-5.6,10.6-10,21.8-13.5,33.2L35,201.8c-14.5,2.4-25.1,14.9-25.1,29.5V274c0,14.8,10.5,27.2,25.1,29.5l34.5,5.9
			c3.5,11.3,8.3,22.4,13.8,32.9l-20,27.8c-8.6,11.9-7.1,28.3,3.2,38.6l30.2,30.2c5.7,5.7,13.2,8.7,21.1,8.7c6.4,0,12.2-1.9,17.3-5.6
			l28.4-20.3c10.2,5.4,21,9.7,32.1,13.2l5.7,34c2.4,14.5,14.9,25.1,29.5,25.1h42.7c14.8,0,27.2-10.5,29.5-25.1l5.7-34
			c11.4-3.5,22.6-8.1,33-13.7l28.1,20c5.1,3.7,11.1,5.6,17.5,5.6l0,0c7.9,0,15.6-3.2,21.1-8.9l30.2-30.2
			c10.3-10.3,11.8-26.7,3.2-38.6l-20-28.1c5.6-10.6,10.2-21.8,13.7-33l34-5.7c14.5-2.4,25.1-14.9,25.1-29.5V230
			C494.9,215.7,484.5,203.3,470,200.8z M467.6,273.1c0,1.3-1,2.4-2.2,2.7l-42.6,7.1c-5.4,1-9.7,4.9-11,10
			c-3.8,14.9-9.7,29.2-17.6,42.4c-2.7,4.6-2.5,10.5,0.6,14.9l25.1,35.3c0.6,1,0.6,2.5-0.3,3.5l-30.2,30.2c-0.6,0.6-1.4,0.8-1.9,0.8
			c-0.6,0-1.1-0.2-1.6-0.5l-35.3-25.1c-4.3-3.2-10.2-3.3-14.9-0.6c-13.3,7.9-27.6,13.8-42.4,17.6c-5.2,1.3-9.2,5.7-10,11l-7.1,42.6
			c-0.2,1.3-1.3,2.2-2.7,2.2h-42.7c-1.3,0-2.4-1-2.7-2.2l-7.1-42.6c-1-5.4-4.9-9.7-10-11c-14.5-3.8-28.4-9.5-41.6-17
			c-2.1-1.3-4.6-1.7-6.8-1.7c-2.7,0-5.6,0.8-7.9,2.5l-35.4,25.3c-0.5,0.3-1,0.5-1.6,0.5c-0.5,0-1.3-0.2-1.9-0.8L85.5,390
			c-1-1-1-2.4-0.3-3.5l24.9-34.9c3.2-4.4,3.3-10.3,0.6-14.9c-7.9-13.2-14-27.5-17.8-42.4c-1.4-5.2-5.7-9.1-11-10l-42.9-7.3
			c-1.3-0.2-2.2-1.3-2.2-2.7v-42.7c0-1.3,1-2.4,2.2-2.7l42.2-7.1c5.4-1,9.7-4.9,11.1-10.2c3.8-14.9,9.5-29.2,17.3-42.6
			c2.7-4.6,2.4-10.5-0.6-14.8l-25.1-35.3c-0.6-1-0.6-2.5,0.3-3.5l30.2-30.2c0.6-0.6,1.4-0.8,1.9-0.8c0.6,0,1.1,0.2,1.6,0.5
			l34.9,24.9c4.4,3.2,10.3,3.3,14.9,0.6c13.2-7.9,27.5-14,42.4-17.8c5.2-1.4,9.1-5.7,10-11l7.3-42.9c0.2-1.3,1.3-2.2,2.7-2.2h42.6
			c1.3,0,2.4,1,2.7,2.2l7.1,42.2c1,5.4,4.9,9.7,10.2,11.1c15.2,3.8,29.9,9.8,43.5,17.8c4.6,2.7,10.5,2.5,14.9-0.6l34.9-25.1
			c0.5-0.3,1-0.5,1.6-0.5c0.5,0,1.3,0.2,1.9,0.8l30.2,30.2c1,1,1,2.4,0.3,3.5l-25.1,35.1c-3.2,4.3-3.3,10.2-0.6,14.9
			c7.9,13.3,13.8,27.6,17.6,42.4c1.3,5.2,5.7,9.2,11,10l42.6,7.1c1.3,0.2,2.2,1.3,2.2,2.7L467.6,273.1L467.6,273.1z"/>
	</g>
</g>
</svg>
