<?xml version="1.0" encoding="utf-8"?>
<!-- Generator: Adobe Illustrator 24.0.1, SVG Export Plug-In . SVG Version: 6.00 Build 0)  -->
<svg version="1.1" id="Layer_1" xmlns="http://www.w3.org/2000/svg" xmlns:xlink="http://www.w3.org/1999/xlink" x="0px" y="0px"
	 viewBox="0 0 512 512" style="enable-background:new 0 0 512 512;" xml:space="preserve">
<style type="text/css">
	.st0{display:none;}
	.st1{display:inline;fill:#200A7F;stroke:#18E5EA;stroke-width:20;stroke-miterlimit:10;}
	.st2{display:inline;fill:#EF0B79;}
	.st3{display:inline;fill:#18E5EA;}
	.st4{display:inline;}
	.st5{fill:#E9F21C;}
	.st6{display:inline;fill:none;}
	.st7{display:inline;fill:#EF3A24;}
	.st8{font-family:'MyriadPro-Regular';}
	.st9{font-size:250px;}
	.st10{display:inline;fill:#FFFFFF;}
	.st11{opacity:0.48;fill:#969696;enable-background:new    ;}
	.st12{fill:url(#SVGID_1_);}
	.st13{fill:#FFFFFF;}
	.st14{fill:#F44336;}
	.st15{fill:url(#SVGID_2_);}
	.st16{fill:url(#SVGID_3_);}
	.st17{fill:url(#SVGID_4_);}
	.st18{fill:url(#SVGID_5_);}
	.st19{fill:url(#SVGID_6_);}
</style>
<g id="Layer_3" class="st0">
	<path class="st1" d="M401.1,212.2c5.1,15.3,7.9,31.7,7.9,48.8c0,85.3-69.2,154.5-154.5,154.5S100,346.3,100,261
		s69.2-154.5,154.5-154.5c51.2,0,96.6,24.9,124.7,63.3"/>
	<path class="st2" d="M333.4,255.2c0,4.2-3.3,7.7-7.4,7.7H174.9c-4.1,0-7.4-3.4-7.4-7.7l0,0c0-4.2,3.3-7.7,7.4-7.7H326
		C330.1,247.5,333.4,250.9,333.4,255.2L333.4,255.2z"/>
	<path class="st2" d="M333.4,284.8c0,4.2-3.3,7.6-7.4,7.6H174.9c-4.1,0-7.4-3.4-7.4-7.6l0,0c0-4.2,3.3-7.6,7.4-7.6H326
		C330.1,277.1,333.4,280.6,333.4,284.8L333.4,284.8z"/>
	<path class="st2" d="M333.4,313c0,4.2-3.3,7.7-7.4,7.7H174.9c-4.1,0-7.4-3.4-7.4-7.7l0,0c0-4.2,3.3-7.6,7.4-7.6H326
		C330.1,305.4,333.4,308.8,333.4,313L333.4,313z"/>
	<path class="st2" d="M333.4,338.4c0,4.2-3.3,7.7-7.4,7.7H174.9c-4.1,0-7.4-3.4-7.4-7.7l0,0c0-4.2,3.3-7.6,7.4-7.6H326
		C330.1,330.7,333.4,334.1,333.4,338.4L333.4,338.4z"/>
	<polygon class="st3" points="395,191.5 320.2,165.2 380.4,113.5 	"/>
	<g class="st4">
		<g>
			<g>
				<path class="st5" d="M241.5,239.2c-2.3,0-4.4-1.1-5.8-2.9l-18.8-24.8c-2.4-3.2-1.8-7.8,1.4-10.3c3.2-2.4,7.8-1.8,10.3,1.4
					l12.3,16.3l31-49.8c2.1-3.4,6.6-4.5,10.1-2.3c3.4,2.1,4.5,6.6,2.3,10.1l-36.7,58.9c-1.3,2-3.5,3.3-5.9,3.4
					C241.7,239.2,241.6,239.2,241.5,239.2z"/>
			</g>
		</g>
	</g>
</g>
<g id="Layer_2_2_" class="st0">
	<rect x="121" y="171.5" class="st6" width="298" height="251"/>
	<text transform="matrix(1 0 0 1 121 348.9979)" class="st7 st8 st9">24</text>
	<circle class="st10" cx="138.3" cy="91.8" r="17.3"/>
	<circle class="st10" cx="185.3" cy="91.8" r="17.3"/>
	<circle class="st10" cx="232.3" cy="91.8" r="17.3"/>
	<circle class="st10" cx="278.3" cy="91.8" r="17.3"/>
	<circle class="st10" cx="323.3" cy="91.8" r="17.3"/>
	<circle class="st10" cx="368.3" cy="91.8" r="17.3"/>
</g>
<circle class="st11" cx="255.6" cy="260.3" r="244.6"/>
<radialGradient id="SVGID_1_" cx="254.5" cy="264.8501" r="244.675" gradientTransform="matrix(1 0 0 -1 0 514)" gradientUnits="userSpaceOnUse">
	<stop  offset="0" style="stop-color:#F37E5F"/>
	<stop  offset="0.5" style="stop-color:#EC1C24"/>
	<stop  offset="1" style="stop-color:#CF232A"/>
</radialGradient>
<path class="st12" d="M499.2,249.3c0,2.9,0,5.9-0.2,8.8c-0.5,14.3-2.3,28.3-5.1,41.9c0,0,0,0.1,0,0.2c-0.1,0.5-0.2,0.9-0.3,1.4
	c-2.1,9.5-4.7,18.8-7.8,27.9c-2.2,6.3-4.6,12.4-7.3,18.5c-1.3,2.9-2.6,5.8-4,8.7c-1.4,2.8-2.8,5.6-4.3,8.4c-0.1,0.1-0.1,0.2-0.2,0.3
	c-0.5,0.9-1,1.9-1.6,2.8c-0.9,1.7-1.9,3.3-2.8,4.9c-0.5,0.9-1.1,1.8-1.6,2.7c0,0.1-0.1,0.2-0.1,0.2c-2.6,4.3-5.3,8.4-8.2,12.6
	c-0.5,0.8-1,1.5-1.6,2.2c-0.9,1.3-1.9,2.6-2.8,3.9c-0.8,1-1.5,2.1-2.3,3.1c-1.9,2.5-3.8,4.9-5.8,7.3c-4.4,5.3-9,10.5-13.9,15.4
	c-2.1,2.1-4.2,4.2-6.3,6.2l-0.1,0.1c-0.1,0.1-0.3,0.3-0.4,0.4c-0.2,0.2-0.4,0.4-0.7,0.6l-0.1,0.1c-0.1,0.1-0.2,0.2-0.3,0.3
	c-1.7,1.6-3.4,3.1-5.2,4.7c-1.1,1-2.2,1.9-3.3,2.9c-2.8,2.4-5.6,4.7-8.5,6.9c-1.4,1.1-2.8,2.2-4.3,3.3c-2.3,1.7-4.7,3.4-7.1,5
	c0,0,0,0-0.1,0c-0.1,0.1-0.2,0.2-0.4,0.3c-1,0.7-1.9,1.3-2.9,1.9c-2,1.3-4,2.6-6,3.8c-1.2,0.8-2.4,1.5-3.7,2.2c-1.7,1-3.4,2-5.2,3
	c-3.2,1.8-6.4,3.5-9.6,5.2c-8.6,4.4-17.5,8.3-26.7,11.6c-8.4,3.1-17.1,5.7-25.9,7.9c-18.6,4.5-38.1,6.9-58.1,6.9s-39.4-2.4-58-6.9
	c-10.9-2.6-21.5-6-31.7-10.1c-5.2-2-10.3-4.3-15.3-6.7c-0.1,0-0.2-0.1-0.3-0.1c-4.1-2-8.1-4-12-6.2c-2.5-1.3-4.9-2.8-7.4-4.2
	c-0.1,0-0.1-0.1-0.2-0.1c-1.4-0.8-2.8-1.7-4.2-2.5c-1-0.6-2-1.3-3-1.9c-1.3-0.8-2.6-1.7-3.9-2.6c0,0,0,0-0.1,0
	c-2.5-1.7-4.9-3.4-7.3-5.1c-1.2-0.8-2.3-1.7-3.5-2.6c-2-1.5-4-3-5.9-4.6c-2.3-1.8-4.6-3.7-6.8-5.6c-2.1-1.8-4.1-3.6-6.2-5.5
	l-0.1-0.1c0,0,0,0-0.1,0c-0.1-0.1-0.2-0.2-0.3-0.2l-0.2-0.2c-2.1-1.9-4.2-3.9-6.2-5.9c-4.9-4.9-9.6-9.9-14-15.2c-2.5-3-5-6-7.4-9.1
	l-0.6-0.7c-1.1-1.4-2.1-2.8-3.1-4.2c-3-4.1-5.8-8.3-8.6-12.6c-1-1.6-2-3.3-3-4.9c-0.8-1.4-1.6-2.7-2.4-4.1c-0.3-0.5-0.5-0.9-0.8-1.4
	c-0.5-0.8-0.9-1.5-1.3-2.3c0,0,0,0,0-0.1c0,0,0,0-0.1,0c-1.5-2.7-3-5.5-4.4-8.2c-4.1-8.8-8.1-17.8-11.4-27c0,0,0-0.1-0.1-0.1
	c-2.3-6.5-4.4-13-6.2-19.7C13.5,295.4,10.7,277,10,258c-0.1-2.9-0.2-5.8-0.2-8.8c0-3.2,0.1-6.4,0.2-9.5c0.7-18.8,3.6-37.1,8.3-54.6
	c2-7.5,4.4-15,7.2-22.2c4-10.8,8.8-21.1,14.3-31.1c0.3-0.5,0.5-0.9,0.8-1.4c2.4-4.3,4.9-8.5,7.5-12.5c3.7-5.8,7.7-11.5,11.9-17
	c5.8-7.6,12.1-14.9,18.8-21.8c4.3-4.5,8.8-8.8,13.4-12.9c5-4.4,10.1-8.6,15.4-12.6c0.9-0.6,1.7-1.3,2.6-1.9c1.2-0.9,2.4-1.8,3.7-2.7
	c0.4-0.3,0.9-0.6,1.3-0.9c2.4-1.6,4.7-3.2,7.1-4.8c1.1-0.7,2.1-1.4,3.2-2c3.8-2.4,7.6-4.6,11.6-6.8c2.4-1.3,4.7-2.6,7.1-3.8
	c3.5-1.8,7.1-3.5,10.8-5.1c12.7-5.7,26-10.3,39.8-13.7c0.5-0.1,1-0.2,1.5-0.4c12.5-3,25.3-5.1,38.4-6.2c3.1-0.3,6.3-0.5,9.5-0.6
	c0.6,0,1.3-0.1,1.9-0.1c2.8-0.1,5.6-0.1,8.4-0.1h0.4c2.8,0,5.5,0,8.2,0.1c0.7,0,1.3,0,2,0.1c3.2,0.1,6.3,0.3,9.4,0.6
	c13,1,25.8,3.1,38.2,6.2c0.5,0.1,1.1,0.3,1.6,0.4c13.8,3.4,27.1,8.1,39.8,13.7c1.9,0.8,3.7,1.7,5.5,2.5c5.1,2.5,10.2,5.1,15.1,7.9
	c2.9,1.7,5.8,3.4,8.7,5.1c1.7,1,3.3,2.1,5,3.2c0.4,0.3,0.8,0.5,1.1,0.7c1.5,1,2.9,2,4.4,2.9c1.6,1.1,3.2,2.2,4.7,3.3
	c1.9,1.4,3.8,2.8,5.7,4.3c1.9,1.4,3.7,2.9,5.5,4.4c2.3,1.9,4.7,3.9,6.9,5.9c11.9,10.5,22.8,22.2,32.4,34.9
	c5.3,6.9,10.2,14.1,14.7,21.6c1.6,2.6,3.1,5.3,4.6,7.9c0.1,0.2,0.2,0.3,0.3,0.5c5.7,10.3,10.6,21,14.8,32.1
	c4.2,11.1,7.5,22.5,10.1,34.3c3,13.7,4.8,27.8,5.3,42.2C499.1,242.9,499.2,246.1,499.2,249.3z"/>
<g>
	<path class="st13" d="M389.6,45.2v408c-2,1.3-4,2.6-6,3.8H125.4c-1-0.6-2-1.3-3-1.9V43.4c1.1-0.7,2.1-1.4,3.2-2h257.9
		c1.7,1,3.3,2.1,5,3.2C388.9,44.8,389.3,45,389.6,45.2z"/>
	<path class="st14" d="M323.7,238.7l-95-47.6c-5.9-2.9-13-0.5-15.9,5.2c-0.9,1.6-1.3,3.4-1.3,5.4v95c0,6.5,5.2,11.9,11.9,11.9
		c1.8,0,3.6-0.4,5.4-1.3l95-47.6c5.9-2.9,8.3-10.1,5.4-15.9C327.8,241.7,326,239.7,323.7,238.7L323.7,238.7z"/>
	<path d="M125.4,457.1c1.4,0.9,2.8,1.7,4.2,2.5c0.1,0,0.1,0.1,0.2,0.1c2.4,1.5,4.9,2.9,7.4,4.2c4,2.2,8,4.2,12,6.2
		c0.1,0,0.2,0.1,0.3,0.1c5,2.4,10.1,4.7,15.3,6.7c10.3,4.1,20.8,7.4,31.7,10.1h116c8.8-2.1,17.5-4.8,25.9-7.9
		c9.2-3.3,18.1-7.2,26.7-11.6c3.2-1.7,6.5-3.4,9.6-5.2c1.7-1,3.5-2,5.2-3c1.2-0.7,2.4-1.5,3.7-2.2L125.4,457.1L125.4,457.1z
		 M40.7,130.5c-0.3,0.5-0.5,0.9-0.8,1.4c-5.5,10-10.3,20.3-14.3,31.1c-2.7,7.2-5.1,14.6-7.2,22.2v128c1.8,6.7,3.9,13.2,6.2,19.7
		c0.1,0,0.1,0.1,0.1,0.1c3.3,9.2,7.3,18.2,11.4,27c1.4,2.7,2.9,5.5,4.4,8.2h0.1v0.1c0.4,0.8,0.8,1.5,1.3,2.3
		c0.3,0.5,0.5,0.9,0.8,1.4c0.8,1.4,1.6,2.7,2.4,4.1c1,1.7,2,3.3,3,4.9V118C45.5,122.1,43,126.3,40.7,130.5z M483.5,163.1
		c-4.2-11.1-9.1-21.9-14.8-32.1c-0.1-0.2-0.2-0.3-0.3-0.5c-1.5-2.7-3-5.3-4.6-7.9V376c0-0.1,0.1-0.2,0.1-0.2
		c0.5-0.9,1.1-1.8,1.6-2.7c1-1.6,1.9-3.2,2.8-4.9c0.5-0.9,1-1.9,1.6-2.8c0.1-0.1,0.1-0.2,0.2-0.3c1.5-2.8,2.9-5.6,4.3-8.4
		c1.4-2.9,2.7-5.8,4-8.7c2.7-6.1,5.1-12.2,7.3-18.5c3.1-9,5.7-18.4,7.8-27.9V197.4C491.1,185.6,487.7,174.2,483.5,163.1z
		 M374.8,36.2c-4.9-2.8-10-5.4-15.1-7.9c-1.8-0.9-3.7-1.7-5.5-2.5c-12.8-5.7-26.1-10.3-39.8-13.7c-0.5-0.1-1.1-0.3-1.6-0.4H196.3
		c-0.5,0.1-1,0.2-1.5,0.4c-13.8,3.5-27.1,8.1-39.8,13.7c-3.6,1.6-7.2,3.3-10.8,5.1c-2.4,1.2-4.8,2.5-7.1,3.8
		c-3.9,2.1-7.8,4.4-11.6,6.8h257.9C380.7,39.6,377.8,37.9,374.8,36.2z"/>
	
		<radialGradient id="SVGID_2_" cx="123.99" cy="471.635" r="1.3458" gradientTransform="matrix(1 0 0 -1 0 514)" gradientUnits="userSpaceOnUse">
		<stop  offset="0" style="stop-color:#F074AC"/>
		<stop  offset="0.5" style="stop-color:#EB008B"/>
		<stop  offset="1" style="stop-color:#CD118C"/>
	</radialGradient>
	<path class="st15" d="M125.6,41.3c-1.1,0.7-2.1,1.3-3.2,2v-2H125.6z"/>
	
		<radialGradient id="SVGID_3_" cx="115" cy="63" r="6.7613" gradientTransform="matrix(1 0 0 -1 0 514)" gradientUnits="userSpaceOnUse">
		<stop  offset="0" style="stop-color:#F074AC"/>
		<stop  offset="0.5" style="stop-color:#EB008B"/>
		<stop  offset="1" style="stop-color:#CD118C"/>
	</radialGradient>
	<path class="st16" d="M107.6,444.9c1.2,0.9,2.3,1.7,3.5,2.6c2.4,1.7,4.8,3.4,7.3,5.1c0.1,0,0.1,0,0.1,0c1.3,0.9,2.6,1.7,3.9,2.6
		v1.9"/>
	
		<radialGradient id="SVGID_4_" cx="123.895" cy="57.89" r="1.2682" gradientTransform="matrix(1 0 0 -1 0 514)" gradientUnits="userSpaceOnUse">
		<stop  offset="0" style="stop-color:#F074AC"/>
		<stop  offset="0.5" style="stop-color:#EB008B"/>
		<stop  offset="1" style="stop-color:#CD118C"/>
	</radialGradient>
	<path class="st17" d="M125.4,457.1h-3v-1.9C123.4,455.8,124.4,456.4,125.4,457.1z"/>
	<path d="M137.2,34.6v429.3c-2.5-1.3-4.9-2.8-7.4-4.2c-0.1,0-0.1-0.1-0.2-0.1c-1.4-0.8-2.8-1.7-4.2-2.5c-1-0.6-2-1.3-3-1.9
		c-1.3-0.8-2.6-1.7-3.9-2.6c0,0,0,0-0.1,0c-2.5-1.7-4.9-3.4-7.3-5.1c-1.2-0.8-2.3-1.7-3.5-2.6V53.7c0.9-0.6,1.7-1.3,2.6-1.9
		c1.2-0.9,2.4-1.8,3.7-2.7c0.4-0.3,0.9-0.6,1.3-0.9c2.4-1.6,4.7-3.2,7.1-4.8c1.1-0.7,2.1-1.4,3.2-2C129.4,39,133.2,36.7,137.2,34.6z
		"/>
	
		<radialGradient id="SVGID_5_" cx="386.575" cy="470.705" r="2.5549" gradientTransform="matrix(1 0 0 -1 0 514)" gradientUnits="userSpaceOnUse">
		<stop  offset="0" style="stop-color:#F074AC"/>
		<stop  offset="0.5" style="stop-color:#EB008B"/>
		<stop  offset="1" style="stop-color:#CD118C"/>
	</radialGradient>
	<path class="st18" d="M389.6,41.3v3.9c-0.4-0.3-0.7-0.5-1.1-0.7c-1.6-1.1-3.3-2.1-5-3.2H389.6z"/>
	
		<radialGradient id="SVGID_6_" cx="386.64" cy="58.845" r="2.5048" gradientTransform="matrix(1 0 0 -1 0 514)" gradientUnits="userSpaceOnUse">
		<stop  offset="0" style="stop-color:#F074AC"/>
		<stop  offset="0.5" style="stop-color:#EB008B"/>
		<stop  offset="1" style="stop-color:#CD118C"/>
	</radialGradient>
	<path class="st19" d="M383.7,457.1c2-1.2,4-2.5,6-3.8"/>
	<path d="M404.4,55.8v386.9c-1.4,1.1-2.8,2.2-4.3,3.3c-2.3,1.7-4.7,3.4-7.1,5c0,0,0,0-0.1,0c-0.1,0.1-0.2,0.2-0.4,0.3
		c-1,0.7-1.9,1.3-2.9,1.9c-2,1.3-4,2.6-6,3.8c-1.2,0.8-2.4,1.5-3.7,2.2c-1.7,1-3.4,2-5.2,3v-426c2.9,1.7,5.8,3.4,8.7,5.1
		c1.7,1,3.3,2.1,5,3.2c0.4,0.3,0.8,0.5,1.1,0.7c1.5,1,2.9,2,4.4,2.9c1.6,1.1,3.2,2.2,4.7,3.3C400.6,52.9,402.5,54.3,404.4,55.8z"/>
	<path d="M137.2,115.8c0,8.1-6.7,14.8-14.8,14.8H40.7c2.4-4.3,4.9-8.5,7.5-12.5c3.7-5.8,7.7-11.5,11.9-17h62.4
		C130.7,101,137.2,107.7,137.2,115.8z"/>
	<path d="M122.4,219.6h-89c-8.3,0-14.8-6.7-14.8-14.8c0-8.3,6.7-14.8,14.8-14.8h89c8.3,0,14.8,6.7,14.8,14.8
		C137.2,212.9,130.5,219.6,122.4,219.6z"/>
	<path d="M122.4,308.8h-89c-8.3,0-14.8-6.7-14.8-14.8s6.7-14.8,14.8-14.8h89c8.3,0,14.8,6.7,14.8,14.8S130.5,308.8,122.4,308.8z"/>
	<path d="M137.2,383c0,8.1-6.7,14.8-14.8,14.8H59.8c-1.1-1.4-2.1-2.8-3.1-4.2c-3-4.1-5.8-8.3-8.6-12.6c-1-1.6-2-3.3-3-4.9
		c-0.8-1.4-1.6-2.7-2.4-4.1c-0.3-0.5-0.5-0.9-0.8-1.4c-0.5-0.8-0.9-1.5-1.3-2.3c0,0,0,0,0-0.1h81.8
		C130.7,368.2,137.2,374.9,137.2,383z"/>
	<path d="M468.5,130.5h-78.8c-8.3,0-14.8-6.7-14.8-14.8c0-8.3,6.7-14.8,14.8-14.8h59.6c5.3,6.9,10.2,14.1,14.7,21.6
		C465.4,125.2,467,127.9,468.5,130.5z"/>
	<path d="M478.6,219.6h-89c-8.3,0-14.8-6.7-14.8-14.8c0-8.3,6.7-14.8,14.8-14.8h89c8.3,0,14.8,6.7,14.8,14.8
		C493.6,212.9,486.9,219.6,478.6,219.6z"/>
	<path d="M478.6,308.8h-89c-8.3,0-14.8-6.7-14.8-14.8s6.7-14.8,14.8-14.8h89c8.3,0,14.8,6.7,14.8,14.8S486.9,308.8,478.6,308.8z"/>
	<path d="M468.4,368.2c-0.9,1.7-1.9,3.3-2.8,4.9c-0.5,0.9-1.1,1.8-1.6,2.7c0,0.1-0.1,0.2-0.1,0.2c-2.6,4.3-5.3,8.4-8.2,12.6
		c-0.5,0.8-1,1.5-1.6,2.2c-0.9,1.3-1.9,2.6-2.8,3.9c-0.8,1-1.5,2.1-2.3,3.1h-59.4c-8.3,0-14.8-6.7-14.8-14.8
		c0-8.3,6.7-14.8,14.8-14.8L468.4,368.2L468.4,368.2z"/>
	<path d="M211.4,323.5c-2.7,0-5.4-0.7-7.7-2.2c-4.3-2.7-7-7.4-7-12.6V190c0-8.3,6.7-14.8,14.8-14.8c2.3,0,4.5,0.5,6.7,1.6L337,236.3
		c7.4,3.6,10.3,12.6,6.7,20c-1.4,2.9-3.8,5.2-6.7,6.7l-118.8,59.5C215.9,323,213.7,323.5,211.4,323.5z M226.2,214v70.8l70.8-35.3
		L226.2,214z"/>
</g>
</svg>
