<?xml version="1.0" encoding="utf-8"?>
<!-- Generator: Adobe Illustrator 24.0.1, SVG Export Plug-In . SVG Version: 6.00 Build 0)  -->
<svg version="1.1" id="Layer_1" xmlns="http://www.w3.org/2000/svg" xmlns:xlink="http://www.w3.org/1999/xlink" x="0px" y="0px"
	 viewBox="0 0 512 512" style="enable-background:new 0 0 512 512;" xml:space="preserve">
<style type="text/css">
	.st0{display:none;}
	.st1{display:inline;fill:#200A7F;stroke:#18E5EA;stroke-width:20;stroke-miterlimit:10;}
	.st2{display:inline;fill:#EF0B79;}
	.st3{display:inline;fill:#18E5EA;}
	.st4{display:inline;}
	.st5{fill:#E9F21C;}
	.st6{display:inline;fill:none;}
	.st7{display:inline;fill:#EF3A24;}
	.st8{font-family:'MyriadPro-Regular';}
	.st9{font-size:250px;}
	.st10{display:inline;fill:#FFFFFF;}
	.st11{opacity:0.48;fill:#969696;}
	.st12{fill:url(#SVGID_1_);stroke:#D8D8D8;stroke-width:2;stroke-miterlimit:10;}
	.st13{fill:url(#SVGID_2_);}
	.st14{fill:#F4F4F4;}
</style>
<g id="Layer_3" class="st0">
	<path class="st1" d="M401.1,212.2c5.1,15.3,7.9,31.7,7.9,48.8c0,85.3-69.2,154.5-154.5,154.5S100,346.3,100,261
		s69.2-154.5,154.5-154.5c51.2,0,96.6,24.9,124.7,63.3"/>
	<path class="st2" d="M333.4,255.2c0,4.2-3.3,7.7-7.4,7.7H174.9c-4.1,0-7.4-3.4-7.4-7.7l0,0c0-4.2,3.3-7.7,7.4-7.7H326
		C330.1,247.5,333.4,250.9,333.4,255.2L333.4,255.2z"/>
	<path class="st2" d="M333.4,284.8c0,4.2-3.3,7.6-7.4,7.6H174.9c-4.1,0-7.4-3.4-7.4-7.6l0,0c0-4.2,3.3-7.6,7.4-7.6H326
		C330.1,277.1,333.4,280.6,333.4,284.8L333.4,284.8z"/>
	<path class="st2" d="M333.4,313c0,4.2-3.3,7.7-7.4,7.7H174.9c-4.1,0-7.4-3.4-7.4-7.7l0,0c0-4.2,3.3-7.6,7.4-7.6H326
		C330.1,305.4,333.4,308.8,333.4,313L333.4,313z"/>
	<path class="st2" d="M333.4,338.4c0,4.2-3.3,7.7-7.4,7.7H174.9c-4.1,0-7.4-3.4-7.4-7.7l0,0c0-4.2,3.3-7.6,7.4-7.6H326
		C330.1,330.7,333.4,334.1,333.4,338.4L333.4,338.4z"/>
	<polygon class="st3" points="395,191.5 320.2,165.2 380.4,113.5 	"/>
	<g class="st4">
		<g>
			<g>
				<path class="st5" d="M241.5,239.2c-2.3,0-4.4-1.1-5.8-2.9l-18.8-24.8c-2.4-3.2-1.8-7.8,1.4-10.3c3.2-2.4,7.8-1.8,10.3,1.4
					l12.3,16.3l31-49.8c2.1-3.4,6.6-4.5,10.1-2.3c3.4,2.1,4.5,6.6,2.3,10.1l-36.7,58.9c-1.3,2-3.5,3.3-5.9,3.4
					C241.7,239.2,241.6,239.2,241.5,239.2z"/>
			</g>
		</g>
	</g>
</g>
<g id="Layer_2_2_" class="st0">
	<rect x="121" y="171.5" class="st6" width="298" height="251"/>
	<text transform="matrix(1 0 0 1 121 348.9979)" class="st7 st8 st9">24</text>
	<circle class="st10" cx="138.3" cy="91.8" r="17.3"/>
	<circle class="st10" cx="185.3" cy="91.8" r="17.3"/>
	<circle class="st10" cx="232.3" cy="91.8" r="17.3"/>
	<circle class="st10" cx="278.3" cy="91.8" r="17.3"/>
	<circle class="st10" cx="323.3" cy="91.8" r="17.3"/>
	<circle class="st10" cx="368.3" cy="91.8" r="17.3"/>
</g>
<circle class="st11" cx="255.6" cy="260.3" r="244.6"/>
<linearGradient id="SVGID_1_" gradientUnits="userSpaceOnUse" x1="10.01" y1="249.325" x2="499.24" y2="249.325">
	<stop  offset="0" style="stop-color:#B07EB7"/>
	<stop  offset="0.5" style="stop-color:#8C3D96"/>
	<stop  offset="1" style="stop-color:#762A90"/>
</linearGradient>
<path class="st12" d="M499.2,249.3c0,76.1-34.7,144-89.2,188.9c-42.3,34.8-96.4,55.7-155.4,55.7c-3.2,0-6.3-0.1-9.5-0.2
	c-50.6-1.9-97.3-19.3-135.5-47.4C49.2,401.8,10,330.1,10,249.3c0-1.7,0-3.4,0.1-5C12.7,111.5,121.2,4.7,254.6,4.7
	c13.5,0,26.7,1.1,39.5,3.2C406,26.1,492.4,120.1,498.8,235.5C499.1,240,499.2,244.7,499.2,249.3z"/>
<linearGradient id="SVGID_2_" gradientUnits="userSpaceOnUse" x1="109.6" y1="457.42" x2="410.05" y2="457.42">
	<stop  offset="0" style="stop-color:#5B57A5"/>
	<stop  offset="0.5" style="stop-color:#2E3092"/>
	<stop  offset="1" style="stop-color:#474374"/>
</linearGradient>
<path class="st13" d="M410,438.2c-42.3,34.8-96.4,55.7-155.4,55.7c-3.2,0-6.3-0.1-9.5-0.2c-50.6-1.9-97.3-19.3-135.5-47.4
	c2.2-4.1,5-7.8,8.3-11.1c8.8-8.8,21-14.3,34.5-14.3h220.3C387.7,420.9,401.1,427.6,410,438.2z"/>
<path class="st14" d="M159.6,445h-13.5c-9.1,0-16.5-7.4-16.5-16.5V415c0-9.1,7.4-16.5,16.5-16.5h13.5c9.1,0,16.5,7.4,16.5,16.5v13.5
	C176.1,437.6,168.7,445,159.6,445z"/>
<path class="st14" d="M220.6,445h-13.5c-9.1,0-16.5-7.4-16.5-16.5V415c0-9.1,7.4-16.5,16.5-16.5h13.5c9.1,0,16.5,7.4,16.5,16.5v13.5
	C237.1,437.6,229.7,445,220.6,445z"/>
<path class="st14" d="M286.6,445h-13.5c-9.1,0-16.5-7.4-16.5-16.5V415c0-9.1,7.4-16.5,16.5-16.5h13.5c9.1,0,16.5,7.4,16.5,16.5v13.5
	C303.1,437.6,295.7,445,286.6,445z"/>
<path class="st14" d="M354.6,445h-13.5c-9.1,0-16.5-7.4-16.5-16.5V415c0-9.1,7.4-16.5,16.5-16.5h13.5c9.1,0,16.5,7.4,16.5,16.5v13.5
	C371.1,437.6,363.7,445,354.6,445z"/>
</svg>
