<?xml version="1.0" encoding="utf-8"?>
<!-- Generator: Adobe Illustrator 24.0.1, SVG Export Plug-In . SVG Version: 6.00 Build 0)  -->
<svg version="1.1" id="Layer_1" xmlns="http://www.w3.org/2000/svg" xmlns:xlink="http://www.w3.org/1999/xlink" x="0px" y="0px"
	 viewBox="0 0 512 512" style="enable-background:new 0 0 512 512;" xml:space="preserve">
<style type="text/css">
	.st0{display:none;}
	.st1{display:inline;fill:#200A7F;stroke:#18E5EA;stroke-width:20;stroke-miterlimit:10;}
	.st2{display:inline;fill:#EF0B79;}
	.st3{display:inline;fill:#18E5EA;}
	.st4{display:inline;}
	.st5{fill:#E9F21C;}
	.st6{display:inline;fill:none;}
	.st7{display:inline;fill:#EF3A24;}
	.st8{font-family:'MyriadPro-Regular';}
	.st9{font-size:250px;}
	.st10{display:inline;fill:#FFFFFF;}
	.st11{opacity:0.48;fill:#969696;enable-background:new    ;}
	.st12{fill:url(#SVGID_1_);}
	.st13{fill:#FF826E;}
	.st14{fill:#FC6E51;}
	.st15{fill:#656D78;}
	.st16{fill:#969FAA;}
	.st17{fill:#AAB2BD;}
	.st18{fill:#F0D0B4;}
	.st19{fill:#69D6F4;}
</style>
<g id="Layer_3" class="st0">
	<path class="st1" d="M401.1,212.2c5.1,15.3,7.9,31.7,7.9,48.8c0,85.3-69.2,154.5-154.5,154.5S100,346.3,100,261
		s69.2-154.5,154.5-154.5c51.2,0,96.6,24.9,124.7,63.3"/>
	<path class="st2" d="M333.4,255.2c0,4.2-3.3,7.7-7.4,7.7H174.9c-4.1,0-7.4-3.4-7.4-7.7l0,0c0-4.2,3.3-7.7,7.4-7.7H326
		C330.1,247.5,333.4,250.9,333.4,255.2L333.4,255.2z"/>
	<path class="st2" d="M333.4,284.8c0,4.2-3.3,7.6-7.4,7.6H174.9c-4.1,0-7.4-3.4-7.4-7.6l0,0c0-4.2,3.3-7.6,7.4-7.6H326
		C330.1,277.1,333.4,280.6,333.4,284.8L333.4,284.8z"/>
	<path class="st2" d="M333.4,313c0,4.2-3.3,7.7-7.4,7.7H174.9c-4.1,0-7.4-3.4-7.4-7.7l0,0c0-4.2,3.3-7.6,7.4-7.6H326
		C330.1,305.4,333.4,308.8,333.4,313L333.4,313z"/>
	<path class="st2" d="M333.4,338.4c0,4.2-3.3,7.7-7.4,7.7H174.9c-4.1,0-7.4-3.4-7.4-7.7l0,0c0-4.2,3.3-7.6,7.4-7.6H326
		C330.1,330.7,333.4,334.1,333.4,338.4L333.4,338.4z"/>
	<polygon class="st3" points="395,191.5 320.2,165.2 380.4,113.5 	"/>
	<g class="st4">
		<g>
			<g>
				<path class="st5" d="M241.5,239.2c-2.3,0-4.4-1.1-5.8-2.9l-18.8-24.8c-2.4-3.2-1.8-7.8,1.4-10.3c3.2-2.4,7.8-1.8,10.3,1.4
					l12.3,16.3l31-49.8c2.1-3.4,6.6-4.5,10.1-2.3c3.4,2.1,4.5,6.6,2.3,10.1l-36.7,58.9c-1.3,2-3.5,3.3-5.9,3.4
					C241.7,239.2,241.6,239.2,241.5,239.2z"/>
			</g>
		</g>
	</g>
</g>
<g id="Layer_2_2_" class="st0">
	<rect x="121" y="171.5" class="st6" width="298" height="251"/>
	<text transform="matrix(1 0 0 1 121 348.9979)" class="st7 st8 st9">24</text>
	<circle class="st10" cx="138.3" cy="91.8" r="17.3"/>
	<circle class="st10" cx="185.3" cy="91.8" r="17.3"/>
	<circle class="st10" cx="232.3" cy="91.8" r="17.3"/>
	<circle class="st10" cx="278.3" cy="91.8" r="17.3"/>
	<circle class="st10" cx="323.3" cy="91.8" r="17.3"/>
	<circle class="st10" cx="368.3" cy="91.8" r="17.3"/>
</g>
<circle class="st11" cx="255.6" cy="260.3" r="244.6"/>
<radialGradient id="SVGID_1_" cx="254.55" cy="249.3" r="244.625" gradientUnits="userSpaceOnUse">
	<stop  offset="0" style="stop-color:#4A6876"/>
	<stop  offset="0.5393" style="stop-color:#0A3542"/>
	<stop  offset="1" style="stop-color:#000315"/>
</radialGradient>
<path class="st12" d="M499.2,249.3c0,2.9,0,5.9-0.2,8.8c-0.1,3.2-0.3,6.3-0.5,9.5c-0.4,6-1.1,12-2,17.9c-0.5,3.1-1,6.3-1.6,9.4
	c-0.3,1.7-0.7,3.5-1,5.2c0,0,0,0.1,0,0.2c-0.1,0.5-0.2,0.9-0.3,1.4c-0.8,3.5-1.6,7-2.5,10.4c-0.8,3.2-1.8,6.4-2.8,9.6
	c-0.8,2.6-1.6,5.2-2.5,7.8c-0.2,0.6-0.4,1.1-0.6,1.7c-2,5.7-4.3,11.3-6.7,16.8c-0.3,0.6-0.5,1.2-0.8,1.8c0,0,0,0,0,0
	c-0.4,0.8-0.8,1.7-1.1,2.5l0,0c-0.7,1.5-1.3,2.9-2,4.4c-0.7,1.4-1.4,2.8-2.1,4.1c-0.7,1.4-1.5,2.8-2.2,4.3c-0.1,0.1-0.1,0.2-0.2,0.3
	c-0.5,0.8-0.9,1.6-1.4,2.5c-0.1,0.1-0.1,0.2-0.2,0.4c-0.9,1.7-1.9,3.3-2.8,4.9c-0.4,0.7-0.8,1.3-1.2,2c-0.1,0.3-0.3,0.5-0.4,0.7
	c0,0.1-0.1,0.2-0.1,0.2c-0.9,1.5-1.8,3-2.8,4.5c0,0,0,0,0,0c-1.7,2.7-3.5,5.4-5.4,8c-0.2,0.4-0.5,0.7-0.7,1.1l0,0.1
	c-0.3,0.4-0.5,0.7-0.8,1.1c-0.9,1.3-1.9,2.6-2.8,3.9c-0.8,1-1.5,2.1-2.3,3.1c0,0.1-0.1,0.1-0.1,0.2c-1.8,2.4-3.7,4.8-5.6,7.1
	c-3,3.6-6.1,7.2-9.4,10.7c-0.6,0.7-1.2,1.3-1.8,2c-0.9,0.9-1.8,1.8-2.7,2.8c-2.1,2.1-4.1,4.2-6.2,6.1c0,0,0,0-0.1,0.1l-0.1,0.1
	c-0.1,0.1-0.3,0.3-0.4,0.4c-0.2,0.2-0.4,0.4-0.7,0.6l-0.1,0.1c-0.1,0.1-0.2,0.2-0.3,0.3c-1.7,1.6-3.4,3.1-5.2,4.7
	c-0.9,0.8-1.8,1.5-2.7,2.3c0,0-0.1,0.1-0.1,0.1c-0.2,0.2-0.4,0.3-0.5,0.5c-2.8,2.4-5.6,4.7-8.5,6.9c-1.4,1.1-2.8,2.2-4.3,3.3
	c-2.3,1.7-4.7,3.4-7.1,5c0,0,0,0-0.1,0c-0.1,0-0.1,0.1-0.2,0.2c-0.1,0-0.1,0.1-0.2,0.1c-1,0.7-1.9,1.3-2.9,1.9c-2,1.3-4,2.6-6,3.8
	c-1.2,0.8-2.4,1.5-3.7,2.2c-1.7,1-3.4,2-5.2,3c-3.2,1.8-6.4,3.5-9.6,5.2c-8.6,4.4-17.5,8.3-26.7,11.6c-5.4,2-10.9,3.8-16.5,5.4
	c-3.1,0.9-6.3,1.7-9.5,2.5c-18.6,4.5-38.1,6.9-58.1,6.9c-0.4,0-0.8,0-1.3,0c-19.5-0.1-38.5-2.5-56.7-6.9c-3-0.7-6-1.5-9-2.4
	c-7.7-2.2-15.3-4.8-22.7-7.7c-5.2-2-10.3-4.3-15.3-6.7c-0.1,0-0.2-0.1-0.3-0.1c-4.1-2-8.1-4-12-6.2c-2.5-1.3-4.9-2.8-7.4-4.2
	c-0.1,0-0.1-0.1-0.2-0.1c-1.4-0.8-2.8-1.7-4.2-2.5c-1-0.6-2-1.3-3-1.9c-1.3-0.8-2.6-1.7-3.9-2.6c0,0,0,0-0.1,0
	c-2.5-1.7-4.9-3.4-7.3-5.1c-1.2-0.8-2.3-1.7-3.5-2.6c-2-1.5-4-3-5.9-4.6c-1.2-0.9-2.3-1.8-3.4-2.8c0,0,0,0,0,0
	c-1.1-0.9-2.2-1.9-3.3-2.8c-2.1-1.8-4.1-3.6-6.2-5.5l-0.1-0.1c0,0,0,0-0.1,0c-0.1-0.1-0.2-0.2-0.3-0.2l-0.2-0.2
	c-2.1-1.9-4.2-3.9-6.2-5.9c-4.9-4.9-9.6-9.9-14-15.2c-2.5-3-5-6-7.4-9.1l-0.6-0.7c-1.1-1.4-2.1-2.8-3.1-4.2c-3-4.1-5.8-8.3-8.6-12.6
	c-1-1.6-2-3.3-3-4.9c-0.8-1.4-1.6-2.7-2.4-4.1c-0.3-0.5-0.5-0.9-0.8-1.4c-0.5-0.8-0.9-1.5-1.3-2.3c0,0,0,0,0-0.1c0,0,0,0-0.1,0
	c-1.5-2.7-3-5.5-4.4-8.2c-4.1-8.8-8.1-17.8-11.4-27c0,0,0-0.1-0.1-0.1c-2.3-6.5-4.4-13-6.2-19.7c-4.8-17.7-7.6-36.1-8.3-55.1
	c-0.1-2.9-0.2-5.8-0.2-8.8c0-3.2,0.1-6.4,0.2-9.5c0.7-18.8,3.6-37.1,8.3-54.6c0.6-2.1,1.1-4.1,1.8-6.2c1.6-5.4,3.4-10.8,5.4-16
	c0.9-2.4,1.8-4.8,2.8-7.1l0,0c2.3-5.5,4.7-10.8,7.4-16.1c1.3-2.7,2.7-5.3,4.1-7.8c0.3-0.5,0.5-0.9,0.8-1.4c2.4-4.3,4.9-8.5,7.5-12.5
	c3.7-5.8,7.7-11.5,11.9-17c0.1-0.2,0.3-0.4,0.4-0.5c5.7-7.4,11.9-14.5,18.4-21.3c1.9-2,3.9-4,5.8-5.9c2.5-2.4,5-4.8,7.6-7
	c3.4-3,6.9-5.9,10.5-8.8c0.3-0.2,0.5-0.4,0.8-0.6c1.4-1.1,2.8-2.2,4.2-3.2c0.9-0.6,1.7-1.3,2.6-1.9c1.2-0.9,2.4-1.8,3.7-2.7
	c0.4-0.3,0.9-0.6,1.3-0.9c0.5-0.3,1-0.7,1.5-1c0.1,0,0.1-0.1,0.2-0.1c1.8-1.3,3.7-2.5,5.5-3.7c1.1-0.7,2.1-1.4,3.2-2
	c2.2-1.4,4.4-2.7,6.6-4c1.6-1,3.3-1.9,4.9-2.8c0.4-0.2,0.8-0.5,1.3-0.7c2-1.1,3.9-2.1,5.9-3.1c3.5-1.8,7.1-3.5,10.8-5.1
	c0.8-0.4,1.7-0.8,2.6-1.1c8.3-3.6,16.9-6.7,25.6-9.4c3.8-1.2,7.7-2.3,11.6-3.2c0.5-0.1,1-0.2,1.5-0.4c0.7-0.2,1.4-0.3,2.1-0.5
	c11.8-2.8,23.9-4.7,36.2-5.7c3.1-0.3,6.3-0.5,9.5-0.6c0.6,0,1.3-0.1,1.9-0.1c2.8-0.1,5.6-0.1,8.4-0.1h0.4c2.8,0,5.5,0,8.2,0.1
	c0.6,0,1.2,0,1.8,0.1c0.1,0,0.2,0,0.2,0c3.2,0.1,6.3,0.3,9.4,0.6c1.9,0.1,3.8,0.3,5.6,0.5c11.1,1.2,22,3.1,32.6,5.6
	c0.5,0.1,1.1,0.3,1.6,0.4c13.8,3.4,27.1,8.1,39.8,13.7c1.9,0.8,3.7,1.7,5.5,2.5c5.1,2.5,10.2,5.1,15.1,7.9c2.9,1.7,5.8,3.4,8.7,5.1
	c1.7,1,3.3,2.1,5,3.2c0.4,0.3,0.8,0.5,1.1,0.7c1.5,1,2.9,2,4.4,2.9c1.6,1.1,3.2,2.2,4.7,3.3c1.7,1.3,3.5,2.6,5.2,3.9
	c0.2,0.1,0.3,0.3,0.5,0.4c1.9,1.4,3.7,2.9,5.5,4.4c2.3,1.9,4.7,3.9,6.9,5.9c4,3.5,7.9,7.2,11.6,11c1.6,1.6,3.2,3.3,4.8,5
	c1.3,1.4,2.7,2.9,3.9,4.3c1.4,1.6,2.8,3.2,4.2,4.8c1.3,1.6,2.6,3.1,3.9,4.7c1.3,1.7,2.7,3.4,4,5.1c0.8,1,1.5,2,2.3,3
	c4.4,6,8.5,12.2,12.4,18.6c0.6,1,1.2,1.9,1.7,2.9c1,1.7,2,3.4,2.9,5.1c0.1,0.1,0.1,0.2,0.2,0.3l0,0c0,0,0,0.1,0.1,0.1
	c1.9,3.4,3.7,6.8,5.4,10.3l0,0c2.3,4.7,4.4,9.4,6.4,14.3c0.4,1,0.8,2,1.2,3c0.6,1.5,1.2,3,1.8,4.6c0.2,0.5,0.4,1,0.5,1.5
	c2,5.3,3.7,10.6,5.3,16.1c1,3.3,1.8,6.5,2.6,9.9c0,0,0,0.1,0,0.1c0.6,2.2,1.1,4.5,1.6,6.7c0.2,1.1,0.5,2.2,0.7,3.3
	c1,4.8,1.8,9.7,2.5,14.6c0.1,0.9,0.3,1.9,0.4,2.8c0.4,3.5,0.8,6.9,1.1,10.4c0,0.1,0,0.1,0,0.2c0.3,3.6,0.5,7.2,0.7,10.8
	c0,0,0,0.1,0,0.1C499.1,242.9,499.2,246.1,499.2,249.3z"/>
<g>
	<g>
		<g>
			<path class="st13" d="M423.1,470.4c-15-42.6-46-77.5-85.9-97.6l10.3-9.2c23.4-20.8,36.8-50.7,36.8-82c0-20.7-5.8-40.6-16.5-57.6
				c-10.5-17-25.7-31.2-44.3-40.5l-62-31l-61.9,31.1C162.5,202.1,139,240,139,281.6c0,15.6,3.3,31,9.7,45c6.3,14,15.5,26.6,27.2,37
				l10.5,9.4l0,0c-36.7,18.7-65.7,50.1-81.5,88.5l-10.5,25.6h334.6L423.1,470.4z"/>
		</g>
		<g>
			<path class="st14" d="M317.5,252.8H353c5.8,11.2,9.1,24,9.1,37.6c0,25.8-10.9,50.3-29.9,67.7l-9.1,8.3l-20.8,18.9l0,0
				c-5.4-4.5-11.2-8.2-17.5-11.2l6.6-16.7c22.3-10.9,37.4-33.7,37.4-60V264C328.6,257.8,323.6,252.8,317.5,252.8z"/>
		</g>
		<g>
			<path class="st14" d="M230.5,356.6l2.5,9.7c-0.5,0.4-0.9,0.8-1.4,1.2c-2,2-3.3,4.9-3.3,7.8h-11.1c-3.1,0-5.8,1.2-7.8,3.3
				L198,367.4l-8-8c-9.1-9.1-16.3-19.9-21.2-31.7c-4.9-11.7-7.5-24.5-7.5-37.4c0-25.9,12-49,30.7-63.9c7.7,16,23.8,26.4,41.9,26.4
				H206c-6.2,0-11.1,5-11.1,11.1v33.5C194.7,323.1,209.3,345.4,230.5,356.6L230.5,356.6z"/>
		</g>
		<g>
			<path class="st15" d="M272.8,252.8h-22.3h-16.7c-18.1,0-34.2-10.4-41.9-26.4l0,0c14.1-11.4,32.1-18.2,51.6-18.2h36.3
				c22.7,0,43.3,9.2,58.1,24.1c6,5.9,11.1,12.9,15,20.5h-35.5h-33.5H272.8z"/>
		</g>
		<g>
			<path class="st16" d="M282.3,448.5L282.3,448.5l-3.9,38.6h-33.5l-5.6-55.7H256C263.6,438.8,272.5,444.7,282.3,448.5z"/>
		</g>
		<g>
			<path class="st17" d="M239.3,364.3c-2.4,0-4.6,0.8-6.5,2l-2.5-9.7l-0.8-3.4c-0.9-3.8-1.4-7.6-1.4-11.5c0-6.2,2.5-11.6,6.5-15.6
				s9.5-6.5,15.6-6.5h21.4c12.9,0,23.3,10.5,23.3,23.3c0,3-0.6,5.9-1.7,8.8l-2.2,5.7l-6.6,16.7c-12.9-6.4-27.2-9.8-42-9.8
				L239.3,364.3z"/>
		</g>
		<g>
			<path class="st18" d="M228.2,375.4c0,6.2,5,11.1,11.1,11.1c-3.1,0-5.8,1.2-7.8,3.3c-2,2-3.3,4.9-3.3,7.8h-11.1
				c-3.1,0-5.8-1.2-7.8-3.3c-2-2-3.3-4.9-3.3-7.8c0-3.1,1.2-5.8,3.3-7.8c2-2,4.9-3.3,7.8-3.3H228.2z"/>
		</g>
		<g>
			<path class="st18" d="M239.3,386.7c-6.2,0-11.1-5-11.1-11.1c0-3.1,1.2-5.8,3.3-7.8c0.5-0.5,0.9-0.8,1.4-1.2c1.9-1.3,4-2,6.5-2
				h3.2c14.8,0,29.1,3.4,42,9.8c6.3,3.1,12.1,6.7,17.5,11.2c8.2,6.5,15.3,14.4,20.9,23.6l-22.3,44.6l-4.7-0.9
				c-4.7-0.9-9.4-2.4-13.7-4.1c-9.7-3.9-18.6-9.7-26.2-17.3h-16.7c-6.2,0-11.1-5-11.1-11.1c0-3.1,1.2-5.8,3.3-7.8
				c2-2,4.9-3.3,7.8-3.3c-6.2,0-11.1-5-11.1-11.1c0-3.1,1.2-5.8,3.3-7.8C233.5,387.9,236.3,386.7,239.3,386.7L239.3,386.7z"/>
		</g>
		<g>
			<path class="st18" d="M228.2,341.8c0,3.9,0.5,7.7,1.4,11.5l0.8,3.4c-21.2-11.2-35.7-33.5-35.7-59.2h44.6c6.2,0,11.1-5,11.1-11.1
				v-33.5h22.3v33.5c0,6.2,5,11.1,11.1,11.1h44.6c0,26.4-15.3,49.2-37.4,60l2.2-5.7c1.1-2.8,1.7-5.7,1.7-8.8
				c0-12.9-10.5-23.3-23.3-23.3h-21.4c-6.2,0-11.6,2.5-15.6,6.5C230.7,330.2,228.2,335.7,228.2,341.8L228.2,341.8z"/>
		</g>
		<g>
			<path class="st19" d="M284,252.8h33.5c6.2,0,11.1,5,11.1,11.1v33.5H284c-6.2,0-11.1-5-11.1-11.1v-33.5H284z"/>
		</g>
		<g>
			<path class="st19" d="M250.6,252.8v33.5c0,6.2-5,11.1-11.1,11.1h-44.6V264c0-6.2,5-11.1,11.1-11.1h27.9H250.6z"/>
		</g>
	</g>
	<path d="M428.4,468.6c-14.6-41.4-43.8-75.6-81.5-96.8l4.4-3.9c24.6-21.9,38.7-53.3,38.7-86.2c0-43.9-24.4-83.4-63.8-103.1
		l-64.4-32.4l-64.5,32.3c-39.3,19.6-63.8,59.2-63.8,103.2c0,32.9,14.1,64.3,38.7,86.2l4.6,4c-34.7,19.8-61.5,50.2-77.1,87.6
		l-13.6,33.1h350.8L428.4,468.6z M179.6,359.5c-22.3-19.8-34.9-48.2-34.9-77.9c0-39.6,22-75.4,57.6-93.1l59.5-29.7l59.5,29.7
		c35.5,17.8,57.6,53.5,57.6,93.1c0,29.7-12.8,58.1-34.9,77.9l-7.6,6.7c-1.1-0.5-2-0.9-3.1-1.4l2.7-2.5
		c20.2-18.3,31.8-44.5,31.8-71.8c0-48.4-39.4-87.8-87.8-87.8h-36.7c-48.4,0-87.8,39.4-87.8,87.8c0,27.6,10.8,53.5,30.3,73l2.2,2.2
		c-0.4,0.1-0.7,0.4-1.1,0.5L179.6,359.5z M275.6,459.1h-27.8l-2.2-22.3h8.3c6.6,6.3,14.2,11.4,22.5,15.1L275.6,459.1z M248.9,470.3
		h25.6l-1.1,11.1h-23.3L248.9,470.3z M287.2,456.1c2.6,0.8,5.2,1.4,7.8,2l2.4,0.5l15.3,22.8h-28.1L287.2,456.1z M297.7,447.3
		l-0.5-0.1c-14.1-2.8-26.9-9.7-37-19.9l-1.7-1.7h-19.1c-3.1,0-5.6-2.5-5.6-5.6s2.5-5.6,5.6-5.6h11.1h5.6v-11.1h-5.6h-11.1
		c-3.1,0-5.6-2.5-5.6-5.6c0-3.1,2.5-5.6,5.6-5.6h11.1h5.6v-11.1h-5.6h-11.1c-3.1,0-5.6-2.5-5.6-5.6c0-3.1,2.5-5.6,5.6-5.6h3.2
		c29.9,0,57.4,14.7,74.1,39.4L297.7,447.3z M217.1,392.3c-3.1,0-5.6-2.5-5.6-5.6c0-3.1,2.5-5.6,5.6-5.6h6.6c0.7,2.1,1.9,4,3.3,5.6
		c-1.4,1.7-2.6,3.4-3.3,5.6H217.1z M193.9,355.6c-17.4-17.4-27-40.6-27-65.2c0-21.7,9.1-41.3,23.7-55.3c3.2,4.9,7.3,9,11.8,12.4
		c-7.6,1.7-13.1,8.3-13.1,16.3v33.5c0,26.2,14,49.9,36.5,62.8l1.1,4.4c-1.3,1.5-2.4,3.3-3.1,5.2h-6.6c-2.6,0-5,0.6-7.2,1.7
		L193.9,355.6z M289.5,343.1c0,2.2-0.5,4.5-1.3,6.6l-4.3,10.8l-5.9-14.9l10.9-6.7C289.3,340.2,289.5,341.6,289.5,343.1z
		 M273.9,335.1l-3.9-9.8h1.9c4.3,0,8.2,1.5,11.2,4.1L273.9,335.1z M257.9,325.3l6.3,15.7l-8.3,5.1l-8.3-20.6
		c0.8-0.1,1.8-0.2,2.6-0.2H257.9L257.9,325.3z M237.9,331.1l8.4,21.1l-9.7,6l-1.5-6.3c-0.8-3.3-1.2-6.6-1.2-10.1
		C233.8,337.7,235.4,333.9,237.9,331.1z M261.7,360.5l-1.5-3.9l8.3-5.1l4.7,12C269.4,362.3,265.6,361.4,261.7,360.5L261.7,360.5z
		 M271.8,314.1h-21.4c-15.3,0-27.7,12.4-27.7,27.7c0,0.9,0.1,1.9,0.2,2.8c-12.7-10.3-20.6-25.3-22.1-41.8h38.7
		c9.2,0,16.7-7.5,16.7-16.7v-5.6h11.1v5.6c0,9.2,7.5,16.7,16.7,16.7h38.7c-1.5,16.6-9.5,31.4-22,41.8c0-0.6,0.1-1.1,0.1-1.7
		C300.8,327.2,287.7,314.1,271.8,314.1L271.8,314.1z M200.4,280.6H245v5.6c0,3.1-2.5,5.6-5.6,5.6h-39.1V280.6z M323,291.9H284
		c-3.1,0-5.6-2.5-5.6-5.6v-5.6H323V291.9z M323,269.5h-44.6v-11.1h5.6h33.5c3.1,0,5.6,2.5,5.6,5.6V269.5z M267.3,269.5h-11.1v-11.1
		h11.1V269.5z M245,258.4v11.1h-44.6V264c0-3.1,2.5-5.6,5.6-5.6H245z M291.6,371.5l4-10.1c23.8-12.7,38.6-36.9,38.6-64V264
		c0-9.2-7.5-16.7-16.7-16.7h-33.5c-3.1,0-5.6-2.5-5.6-5.6s2.5-5.6,5.6-5.6h5.6V225h-5.6c-9.2,0-16.7,7.5-16.7,16.7
		c0,2,0.4,3.8,1.1,5.6h-17.8c-3.1,0-5.6-2.5-5.6-5.6s2.5-5.6,5.6-5.6h5.6V225h-5.7c-9.2,0-16.7,7.5-16.7,16.7c0,2,0.4,3.8,1.1,5.6
		h-1.1c-14.1,0-27.2-7.5-34.6-19.3c12.5-8.9,27.8-14.2,44.3-14.2h36.3c42.3,0,76.6,34.3,76.6,76.6c0,24.1-10.3,47.3-28.2,63.6
		l-26.5,24C298.6,375.7,295.2,373.4,291.6,371.5z M110.1,463.6c16.6-40.1,47.2-71.7,86.6-89.5l5.3,5.3c-1.1,2.1-1.7,4.6-1.7,7.2
		c0,9.2,7.5,16.7,16.7,16.7h6.6c0.7,2.1,1.9,4,3.3,5.6c-2.7,3-4.4,6.9-4.4,11.1c0,7.5,4.9,13.6,11.6,15.9l4.5,45.4H178v-42.3
		c0-6.6-2.6-12.8-7.2-17.4l-7.9,7.9c2.5,2.5,3.9,5.9,3.9,9.5v42.3h-64.2L110.1,463.6z M326,481.5l-18.8-28.3l17.5-34.9l44.6,44.9
		l7.9-7.9l-9.5-9.5v-6.5c0-3.6,1.4-7,3.9-9.5l-7.9-7.9c-3.7,3.7-5.9,8.3-6.7,13.1l-29.5-29.5c-4.9-7.6-10.5-14.3-16.8-20.2
		l13.5-12.3c43.8,18.3,77.9,54.3,93.7,99.3l3.2,9.2L326,481.5z"/>
</g>
</svg>
