<?xml version="1.0" encoding="utf-8"?>
<!-- Generator: Adobe Illustrator 24.0.1, SVG Export Plug-In . SVG Version: 6.00 Build 0)  -->
<svg version="1.1" id="Layer_1" xmlns="http://www.w3.org/2000/svg" xmlns:xlink="http://www.w3.org/1999/xlink" x="0px" y="0px"
	 viewBox="0 0 512 512" style="enable-background:new 0 0 512 512;" xml:space="preserve">
<style type="text/css">
	.st0{display:none;}
	.st1{display:inline;fill:#200A7F;stroke:#18E5EA;stroke-width:20;stroke-miterlimit:10;}
	.st2{display:inline;fill:#EF0B79;}
	.st3{display:inline;fill:#18E5EA;}
	.st4{display:inline;}
	.st5{fill:#E9F21C;}
	.st6{display:inline;fill:none;}
	.st7{display:inline;fill:#EF3A24;}
	.st8{font-family:'MyriadPro-Regular';}
	.st9{font-size:250px;}
	.st10{display:inline;fill:#FFFFFF;}
	.st11{opacity:0.48;fill:#969696;enable-background:new    ;}
	.st12{fill:url(#SVGID_1_);}
	.st13{fill:#969FAA;}
	.st14{fill:#AAB2BD;}
	.st15{fill:#CCD1D9;}
	.st16{fill:#FFC729;}
	.st17{fill:#838F9B;}
	.st18{fill:#FCD770;}
</style>
<g id="Layer_3" class="st0">
	<path class="st1" d="M401.1,212.2c5.1,15.3,7.9,31.7,7.9,48.8c0,85.3-69.2,154.5-154.5,154.5S100,346.3,100,261
		s69.2-154.5,154.5-154.5c51.2,0,96.6,24.9,124.7,63.3"/>
	<path class="st2" d="M333.4,255.2c0,4.2-3.3,7.7-7.4,7.7H174.9c-4.1,0-7.4-3.4-7.4-7.7l0,0c0-4.2,3.3-7.7,7.4-7.7H326
		C330.1,247.5,333.4,250.9,333.4,255.2L333.4,255.2z"/>
	<path class="st2" d="M333.4,284.8c0,4.2-3.3,7.6-7.4,7.6H174.9c-4.1,0-7.4-3.4-7.4-7.6l0,0c0-4.2,3.3-7.6,7.4-7.6H326
		C330.1,277.1,333.4,280.6,333.4,284.8L333.4,284.8z"/>
	<path class="st2" d="M333.4,313c0,4.2-3.3,7.7-7.4,7.7H174.9c-4.1,0-7.4-3.4-7.4-7.7l0,0c0-4.2,3.3-7.6,7.4-7.6H326
		C330.1,305.4,333.4,308.8,333.4,313L333.4,313z"/>
	<path class="st2" d="M333.4,338.4c0,4.2-3.3,7.7-7.4,7.7H174.9c-4.1,0-7.4-3.4-7.4-7.7l0,0c0-4.2,3.3-7.6,7.4-7.6H326
		C330.1,330.7,333.4,334.1,333.4,338.4L333.4,338.4z"/>
	<polygon class="st3" points="395,191.5 320.2,165.2 380.4,113.5 	"/>
	<g class="st4">
		<g>
			<g>
				<path class="st5" d="M241.5,239.2c-2.3,0-4.4-1.1-5.8-2.9l-18.8-24.8c-2.4-3.2-1.8-7.8,1.4-10.3c3.2-2.4,7.8-1.8,10.3,1.4
					l12.3,16.3l31-49.8c2.1-3.4,6.6-4.5,10.1-2.3c3.4,2.1,4.5,6.6,2.3,10.1l-36.7,58.9c-1.3,2-3.5,3.3-5.9,3.4
					C241.7,239.2,241.6,239.2,241.5,239.2z"/>
			</g>
		</g>
	</g>
</g>
<g id="Layer_2_2_" class="st0">
	<rect x="121" y="171.5" class="st6" width="298" height="251"/>
	<text transform="matrix(1 0 0 1 121 348.9979)" class="st7 st8 st9">24</text>
	<circle class="st10" cx="138.3" cy="91.8" r="17.3"/>
	<circle class="st10" cx="185.3" cy="91.8" r="17.3"/>
	<circle class="st10" cx="232.3" cy="91.8" r="17.3"/>
	<circle class="st10" cx="278.3" cy="91.8" r="17.3"/>
	<circle class="st10" cx="323.3" cy="91.8" r="17.3"/>
	<circle class="st10" cx="368.3" cy="91.8" r="17.3"/>
</g>
<circle class="st11" cx="255.6" cy="260.3" r="244.6"/>
<linearGradient id="SVGID_1_" gradientUnits="userSpaceOnUse" x1="9.9" y1="249.3" x2="499.2" y2="249.3">
	<stop  offset="5.618000e-03" style="stop-color:#CFEAE6"/>
	<stop  offset="0.4494" style="stop-color:#B8E1DB"/>
	<stop  offset="1" style="stop-color:#93D3CB"/>
</linearGradient>
<path class="st12" d="M499.2,249.3c0,2.9,0,5.9-0.2,8.8c-0.1,3.2-0.3,6.3-0.5,9.5c-0.4,6-1.1,12-2,17.9c-0.5,3.1-1,6.3-1.6,9.4
	c-0.3,1.7-0.7,3.5-1,5.2c0,0,0,0.1,0,0.2c-0.1,0.5-0.2,0.9-0.3,1.4c-0.8,3.5-1.6,7-2.5,10.4c-0.8,3.2-1.8,6.4-2.8,9.6
	c-0.8,2.6-1.6,5.2-2.5,7.8c-0.2,0.6-0.4,1.1-0.6,1.7c-2,5.7-4.3,11.3-6.7,16.8c-0.3,0.6-0.5,1.2-0.8,1.8c0,0,0,0,0,0
	c-0.4,0.8-0.8,1.7-1.1,2.5l0,0c-0.7,1.5-1.3,2.9-2,4.4c-0.7,1.4-1.4,2.8-2.1,4.1c-0.7,1.4-1.5,2.8-2.2,4.3c-0.1,0.1-0.1,0.2-0.2,0.3
	c-0.5,0.8-0.9,1.6-1.4,2.5c-0.1,0.1-0.1,0.2-0.2,0.4c-0.9,1.7-1.9,3.3-2.8,4.9c-0.4,0.7-0.8,1.3-1.2,2c-0.1,0.3-0.3,0.5-0.4,0.7
	c0,0.1-0.1,0.2-0.1,0.2c-0.9,1.5-1.8,3-2.8,4.5c0,0,0,0,0,0c-1.7,2.7-3.5,5.4-5.4,8c-0.2,0.4-0.5,0.7-0.7,1.1l0,0.1
	c-0.3,0.4-0.5,0.7-0.8,1.1c-0.9,1.3-1.9,2.6-2.8,3.9c-0.8,1-1.5,2.1-2.3,3.1c0,0.1-0.1,0.1-0.1,0.2c-1.8,2.4-3.7,4.8-5.6,7.1
	c-3,3.6-6.1,7.2-9.4,10.7c-0.6,0.7-1.2,1.3-1.8,2c-0.9,0.9-1.8,1.8-2.7,2.8c-2.1,2.1-4.1,4.2-6.2,6.1c0,0,0,0-0.1,0.1l-0.1,0.1
	c-0.1,0.1-0.3,0.3-0.4,0.4c-0.2,0.2-0.4,0.4-0.7,0.6l-0.1,0.1c-0.1,0.1-0.2,0.2-0.3,0.3c-1.7,1.6-3.4,3.1-5.2,4.7
	c-0.4,0.4-0.8,0.7-1.2,1.1c-0.5,0.4-1,0.8-1.4,1.3c0,0-0.1,0.1-0.1,0.1c-0.2,0.2-0.4,0.3-0.5,0.5c-2.8,2.4-5.6,4.7-8.5,6.9
	c-1.4,1.1-2.8,2.2-4.3,3.3c-2.3,1.7-4.7,3.4-7.1,5c0,0,0,0-0.1,0c-0.1,0-0.1,0.1-0.2,0.2c-0.1,0-0.1,0.1-0.2,0.1
	c-1,0.7-1.9,1.3-2.9,1.9c-2,1.3-4,2.6-6,3.8c-1.2,0.8-2.4,1.5-3.7,2.2c-1.7,1-3.4,2-5.2,3c-3.2,1.8-6.4,3.5-9.6,5.2
	c-0.8,0.4-1.6,0.8-2.4,1.2c-7.9,3.9-16,7.4-24.3,10.4c-1.4,0.5-2.8,1-4.3,1.5h0c-4,1.4-8.1,2.7-12.2,3.8c-3.1,0.9-6.3,1.7-9.5,2.5
	c-18.6,4.5-38.1,6.9-58.1,6.9c-0.4,0-0.8,0-1.3,0c-7,0-13.9-0.4-20.8-1h0c-11.7-1-23.1-2.9-34.3-5.5h0c-0.5-0.1-1.1-0.3-1.6-0.4
	c-3-0.7-6-1.5-9-2.4c-7.7-2.2-15.3-4.8-22.7-7.7c-5.2-2-10.3-4.3-15.3-6.7c-0.1,0-0.2-0.1-0.3-0.1c-4.1-2-8.1-4-12-6.2
	c-2.5-1.3-4.9-2.8-7.4-4.2c-0.1,0-0.1-0.1-0.2-0.1c-1.4-0.8-2.8-1.7-4.2-2.5c-0.1,0-0.2-0.1-0.2-0.2c-0.9-0.6-1.9-1.2-2.8-1.8
	c-1.3-0.8-2.6-1.7-3.9-2.6c0,0,0,0-0.1,0c-2.5-1.7-4.9-3.4-7.3-5.1c-1.2-0.8-2.3-1.7-3.5-2.6c-2-1.5-4-3-5.9-4.6
	c-1.2-0.9-2.3-1.8-3.4-2.8c0,0,0,0,0,0c-1.1-0.9-2.2-1.9-3.3-2.8c-2.1-1.8-4.1-3.6-6.2-5.5l-0.1-0.1c0,0,0,0-0.1,0
	c-0.1-0.1-0.2-0.2-0.3-0.2l-0.2-0.2c-2.1-1.9-4.2-3.9-6.2-5.9c-4.9-4.9-9.6-9.9-14-15.2c-2.5-3-5-6-7.4-9.1l-0.6-0.7
	c-1.1-1.4-2.1-2.8-3.1-4.2c-3-4.1-5.8-8.3-8.6-12.6c-1-1.6-2-3.3-3-4.9c-0.8-1.4-1.6-2.7-2.4-4.1c-0.3-0.5-0.5-0.9-0.8-1.4
	c-0.5-0.8-0.9-1.5-1.3-2.3c0,0,0,0,0-0.1c0,0,0,0-0.1,0c-1.5-2.7-3-5.5-4.4-8.2c-4.1-8.8-8.1-17.8-11.4-27c0,0,0-0.1-0.1-0.1
	c-2.3-6.5-4.4-13-6.2-19.7c-4.8-17.7-7.6-36.1-8.3-55.1c-0.1-2.9-0.2-5.8-0.2-8.8c0-3.2,0.1-6.4,0.2-9.5c0.7-18.8,3.6-37.1,8.3-54.6
	c0.6-2.1,1.1-4.1,1.8-6.2c1.6-5.4,3.4-10.8,5.4-16c0.9-2.4,1.8-4.8,2.8-7.1l0,0c2.3-5.5,4.7-10.8,7.4-16.1c1.3-2.7,2.7-5.3,4.1-7.8
	c0.3-0.5,0.5-0.9,0.8-1.4c2.4-4.3,4.9-8.5,7.5-12.5c3.7-5.8,7.7-11.5,11.9-17c0.1-0.2,0.3-0.4,0.4-0.5c5.7-7.4,11.9-14.5,18.4-21.3
	c1.9-2,3.9-4,5.8-5.9c2.5-2.4,5-4.8,7.6-7c3.4-3,6.9-5.9,10.5-8.8c0.3-0.2,0.5-0.4,0.8-0.6c1.4-1.1,2.8-2.2,4.2-3.2
	c0.9-0.6,1.7-1.3,2.6-1.9c1.2-0.9,2.4-1.8,3.7-2.7c0.4-0.3,0.9-0.6,1.3-0.9c0.5-0.3,1-0.7,1.5-1c0.1,0,0.1-0.1,0.2-0.1
	c1.8-1.3,3.7-2.5,5.5-3.7c1.1-0.7,2.1-1.4,3.2-2c2.2-1.4,4.4-2.7,6.6-4c1.6-1,3.3-1.9,4.9-2.8c0.4-0.2,0.8-0.5,1.3-0.7
	c2-1.1,3.9-2.1,5.9-3.1c3.5-1.8,7.1-3.5,10.8-5.1c0.8-0.4,1.7-0.8,2.6-1.1c8.3-3.6,16.9-6.7,25.6-9.4c3.8-1.2,7.7-2.3,11.6-3.2
	c0.5-0.1,1-0.2,1.5-0.4c0.7-0.2,1.4-0.3,2.1-0.5c11.8-2.8,23.9-4.7,36.2-5.7c3.1-0.3,6.3-0.5,9.5-0.6c0.6,0,1.3-0.1,1.9-0.1
	c2.8-0.1,5.6-0.1,8.4-0.1h0.4c2.8,0,5.5,0,8.2,0.1c0.6,0,1.2,0,1.8,0.1c0.1,0,0.2,0,0.2,0c3.2,0.1,6.3,0.3,9.4,0.6
	c1.9,0.1,3.8,0.3,5.6,0.5c11.1,1.2,22,3.1,32.6,5.6c0.5,0.1,1.1,0.3,1.6,0.4c13.8,3.4,27.1,8.1,39.8,13.7c1.9,0.8,3.7,1.7,5.5,2.5
	c5.1,2.5,10.2,5.1,15.1,7.9c2.9,1.7,5.8,3.4,8.7,5.1c1.7,1,3.3,2.1,5,3.2c0.4,0.3,0.8,0.5,1.1,0.7c1.5,1,2.9,2,4.4,2.9
	c1.6,1.1,3.2,2.2,4.7,3.3c1.7,1.3,3.5,2.6,5.2,3.9c0.2,0.1,0.3,0.3,0.5,0.4c1.9,1.4,3.7,2.9,5.5,4.4c2.3,1.9,4.7,3.9,6.9,5.9
	c4,3.5,7.9,7.2,11.6,11c1.6,1.6,3.2,3.3,4.8,5c1.3,1.4,2.7,2.9,3.9,4.3c1.4,1.6,2.8,3.2,4.2,4.8c1.3,1.6,2.6,3.1,3.9,4.7
	c1.3,1.7,2.7,3.4,4,5.1c0.8,1,1.5,2,2.3,3c4.4,6,8.5,12.2,12.4,18.6c0.6,1,1.2,1.9,1.7,2.9c1,1.7,2,3.4,2.9,5.1
	c0.1,0.1,0.1,0.2,0.2,0.3l0,0c0,0,0,0.1,0.1,0.1c1.9,3.4,3.7,6.8,5.4,10.3l0,0c2.3,4.7,4.4,9.4,6.4,14.3c0.4,1,0.8,2,1.2,3
	c0.6,1.5,1.2,3,1.8,4.6c0.2,0.5,0.4,1,0.5,1.5c2,5.3,3.7,10.6,5.3,16.1c1,3.3,1.8,6.5,2.6,9.9c0,0,0,0.1,0,0.1
	c0.6,2.2,1.1,4.5,1.6,6.7c0.2,1.1,0.5,2.2,0.7,3.3c1,4.8,1.8,9.7,2.5,14.6c0.1,0.9,0.3,1.9,0.4,2.8c0.4,3.5,0.8,6.9,1.1,10.4
	c0,0.1,0,0.1,0,0.2c0.3,3.6,0.5,7.2,0.7,10.8c0,0,0,0.1,0,0.1C499.1,242.9,499.2,246.1,499.2,249.3z"/>
<g>
	<g>
		<g>
			<path class="st13" d="M347.6,245.2h-5.8l0,0l-3.2,0.6l-16.5,3.5l-6.4,36.3h22.9h9c5,0,9-4,9-9v-22.5
				C356.7,249.2,352.6,245.2,347.6,245.2L347.6,245.2z"/>
		</g>
		<g>
			<path class="st14" d="M401.5,139.8c1.1,4.9-2.1,9.6-7,10.7l-20,4.2l-4.3-17.5l20.6-4.4c0.6-0.1,1.3-0.2,1.9-0.2
				C396.9,132.7,400.6,135.8,401.5,139.8L401.5,139.8z"/>
		</g>
		<g>
			<path class="st15" d="M370.2,137.3l4.3,17.5l-28.2,6c-5.4,1.2-9.5,5.4-10.5,10.9l-7.4,42l-6.2,35.7l-6.4,36.3l-2.2,12.8
				c-5.5-2.2-11.4-3.5-17.6-3.7l0,0l5.5-31.6l16.7-94.6c2.2-12.7,11.8-22.6,24.4-25.3L370.2,137.3z"/>
		</g>
		<g>
			<path class="st16" d="M158.7,173.2v4.5v107.9v4.5c0,2.4-2,4.5-4.5,4.5h-9c-2.4,0-4.5-2-4.5-4.5v-117c0-2.4,2-4.5,4.5-4.5h9
				C156.7,168.7,158.7,170.8,158.7,173.2z"/>
		</g>
		<g>
			<path class="st14" d="M181.2,330.7h61.6c-2,5.6-3.1,11.7-3.1,18c0,6.3,1.1,12.4,3.1,18h-61.6c-5,0-9.4-2-12.8-5.3
				c-3.3-3.3-5.3-7.8-5.3-12.8C163.2,338.8,171.3,330.7,181.2,330.7z"/>
		</g>
		<g>
			<path class="st14" d="M374.7,330.7c9.9,0,18,8,18,18c0,5-2,9.4-5.3,12.8c-3.3,3.3-7.8,5.3-12.8,5.3h-30.1c2-5.6,3.1-11.7,3.1-18
				c0-6.3-1.1-12.4-3.1-18h30.2V330.7z"/>
		</g>
		<g>
			<path class="st17" d="M344.6,330.7c2,5.6,3.1,11.7,3.1,18c0,6.3-1.1,12.4-3.1,18c-7.4,21-27.4,36-50.9,36s-43.5-15-50.9-36
				c-2-5.6-3.1-11.7-3.1-18c0-6.3,1.1-12.4,3.1-18c2.6-7.5,6.9-14.2,12.3-19.8l0,0c7.5-7.6,17.2-13.1,28.1-15.2
				c3.4-0.6,7-1.1,10.6-1.1c0.7,0,1.5,0,2.2,0.1c6.2,0.2,12.1,1.5,17.6,3.7C328,304.2,339.4,316,344.6,330.7z M320.7,348.7
				c0-14.9-12.1-27-27-27s-27,12.1-27,27c0,14.9,12.1,27,27,27S320.7,363.6,320.7,348.7z"/>
		</g>
		<g>
			<path class="st15" d="M293.7,321.7c14.9,0,27,12.1,27,27c0,14.9-12.1,27-27,27s-27-12.1-27-27
				C266.6,333.8,278.8,321.7,293.7,321.7z M302.7,348.7c0-5-4-9-9-9s-9,4-9,9s4,9,9,9S302.7,353.7,302.7,348.7z"/>
		</g>
		<g>
			<path class="st18" d="M203.7,156.2v151c-8.2-2.4-16.2-5.8-23.8-9.9l-21.2-11.6V177.7l21.2-11.5
				C187.5,162,195.4,158.7,203.7,156.2L203.7,156.2z"/>
		</g>
		<g>
			<path class="st18" d="M302.7,213v37.5c0,4.3-0.4,8.6-1.3,12.8c-2.6,12.5-9,23.8-18.3,32.5c-10.9,2.1-20.6,7.6-28.1,15.2l0,0
				c-4.8,1.2-9.6,1.8-14.6,1.8c-3.3,0-6.5-0.1-9.7-0.4V151.1c3.3-0.3,6.5-0.4,9.7-0.4c11.3,0,22.4,3.1,32,8.9
				C291.2,170.9,302.7,191.1,302.7,213z"/>
		</g>
		<g>
			<path class="st16" d="M230.7,151.1v161.2c-9.2-0.6-18.3-2.4-27-5.1v-151c1.8-0.6,3.7-1.1,5.5-1.6
				C216.3,152.9,223.4,151.6,230.7,151.1L230.7,151.1z"/>
		</g>
	</g>
	<g>
		<path d="M280.2,348.7c0,7.4,6,13.5,13.5,13.5c7.5,0,13.5-6,13.5-13.5c0-7.4-6-13.5-13.5-13.5C286.2,335.2,280.2,341.2,280.2,348.7
			z M298.2,348.7c0,2.4-2,4.5-4.5,4.5c-2.5,0-4.5-2-4.5-4.5c0-2.4,2-4.5,4.5-4.5C296.2,344.2,298.2,346.2,298.2,348.7z"/>
		<path d="M262.2,348.7c0,17.3,14.2,31.5,31.5,31.5s31.5-14.2,31.5-31.5c0-17.3-14.2-31.5-31.5-31.5S262.2,331.3,262.2,348.7z
			 M316.2,348.7c0,12.4-10.1,22.5-22.5,22.5s-22.5-10.1-22.5-22.5s10.1-22.5,22.5-22.5C306,326.2,316.2,336.3,316.2,348.7z"/>
		<path d="M365.7,317.3h49.5v-9h-49.5c-7.4,0-13.5-6-13.5-13.5v-5.3c5.2-1.9,9-6.8,9-12.7v-22.5c0-3-1-5.7-2.6-7.9l19.1-4.1
			c6.1-1.4,10.5-6.9,10.5-13.2v-6.3c0-7.4-6-13.5-13.5-13.5h-40.7l6.4-36.8c0.6-3.6,3.4-6.4,7-7.2l48.2-10.4
			c7.3-1.6,11.9-8.8,10.4-16.1c-1.5-7.1-8.8-11.9-16.1-10.4l-48.2,10.4c-14.4,3.1-25.3,14.5-27.9,28.9l-6.9,39.1
			c-2-21-13.8-40.1-32.1-51.1c-10.4-6.2-22.3-9.5-34.3-9.5c-21.9,0-43.5,5.5-62.7,15.9l-15,8.2c-1.2-3.6-4.5-6.2-8.6-6.2h-9
			c-5,0-9,4-9,9v117c0,5,4,9,9,9h9c4,0,7.3-2.6,8.6-6.2l15,8.2c19.2,10.5,40.9,15.9,62.7,15.9c1.4,0,2.7-0.2,4.1-0.2
			c-1.9,3-3.6,6-5,9.3h-58.5c-12.4,0-22.5,10.1-22.5,22.5c0,12.4,10.1,22.5,22.5,22.5h58.5c8.9,21.1,29.7,36,54,36s45.1-14.9,54-36
			h27c12.4,0,22.5-10.1,22.5-22.5s-10.1-22.5-22.5-22.5h-26.9c-5.6-13.4-16.1-24.2-29-30.3l1-5.6h23.7v4.5
			C343.2,307.1,353.2,317.3,365.7,317.3L365.7,317.3z M352.2,276.7c0,2.4-2,4.5-4.5,4.5h-4.5v-31.5h4.5c2.4,0,4.5,2,4.5,4.5V276.7z
			 M326.1,253.1l8-1.7v11.7h-9.8L326.1,253.1z M374.7,218.2c2.4,0,4.5,2,4.5,4.5v6.3c0,2.1-1.5,3.9-3.4,4.3l-48,10.1l4.4-25.3H374.7
			z M391.7,137.4c2.4-0.5,4.9,1.1,5.4,3.5s-1.1,4.9-3.5,5.4l-15.7,3.4l-2.2-8.8L391.7,137.4z M226.2,156.1v151.2
			c-6.1-0.7-12.1-1.9-18-3.5V159.7C214.1,158,220.2,156.8,226.2,156.1z M145.2,290.2v-117h9v117H145.2z M163.2,283V180.4l18.8-10.2
			c5.5-3,11.3-5.5,17.1-7.6V301c-5.9-2.1-11.6-4.6-17.1-7.6L163.2,283z M235.2,308.1V155.4c1.8-0.1,3.5-0.2,5.3-0.2
			c10.5,0,20.7,2.9,29.7,8.2c17.3,10.4,28,29.4,28,49.5v37.5c0,15.4-6.3,30.4-17.3,41.2c-10.7,2.4-20.3,7.7-27.9,15.1
			c-4.1,1-8.3,1.5-12.6,1.5C238.8,308.2,237,308.2,235.2,308.1L235.2,308.1z M181.2,362.2c-7.4,0-13.5-6-13.5-13.5
			c0-7.5,6-13.5,13.5-13.5h55.7c-1.1,4.3-1.6,8.9-1.6,13.5c0,4.6,0.6,9.2,1.6,13.5H181.2z M374.7,335.2c7.4,0,13.5,6,13.5,13.5
			c0,7.5-6,13.5-13.5,13.5h-24.1c1.1-4.3,1.6-8.9,1.6-13.5c0-4.6-0.6-9.2-1.6-13.5H374.7z M343.2,348.7c0,27.2-22.2,49.5-49.5,49.5
			s-49.5-22.2-49.5-49.5c0-27.4,22.2-49.5,49.5-49.5S343.2,321.4,343.2,348.7z M301.2,290.7l21.4-121.4
			c1.9-10.9,10.1-19.4,20.9-21.7l23.3-5l2.2,8.8l-23.7,5.1c-7.2,1.6-12.7,7.2-13.9,14.5L310,292.7
			C307.2,291.7,304.2,291.2,301.2,290.7z M322.7,272.3h11.4v9h-13L322.7,272.3z"/>
	</g>
</g>
</svg>
