<?xml version="1.0" encoding="utf-8"?>
<!-- Generator: Adobe Illustrator 24.0.1, SVG Export Plug-In . SVG Version: 6.00 Build 0)  -->
<svg version="1.1" id="Layer_1" xmlns="http://www.w3.org/2000/svg" xmlns:xlink="http://www.w3.org/1999/xlink" x="0px" y="0px"
	 viewBox="0 0 512 512" style="enable-background:new 0 0 512 512;" xml:space="preserve">
<style type="text/css">
	.st0{display:none;}
	.st1{display:inline;fill:#200A7F;stroke:#18E5EA;stroke-width:20;stroke-miterlimit:10;}
	.st2{display:inline;fill:#EF0B79;}
	.st3{display:inline;fill:#18E5EA;}
	.st4{display:inline;}
	.st5{fill:#E9F21C;}
	.st6{display:inline;fill:none;}
	.st7{display:inline;fill:#EF3A24;}
	.st8{font-family:'MyriadPro-Regular';}
	.st9{font-size:250px;}
	.st10{display:inline;fill:#FFFFFF;}
	.st11{opacity:0.48;fill:#969696;enable-background:new    ;}
	.st12{fill:url(#SVGID_1_);}
	.st13{fill:#231F20;}
	.st14{fill:#ECEFF1;}
	.st15{fill:#388E3C;}
	.st16{fill:#2E7D32;}
	.st17{fill:#FAFAFA;}
	.st18{fill:#E3E4D8;}
	.st19{fill:#D0CEBD;}
	.st20{fill:#B53438;}
	.st21{fill:#FFFFFF;}
	.st22{fill:#FFE100;}
	.st23{fill:#FDCC00;}
	.st24{fill:#FFA800;}
	.st25{fill:#3B5999;stroke:#FAFDFF;stroke-width:2;stroke-miterlimit:10;}
</style>
<g id="Layer_3" class="st0">
	<path class="st1" d="M401.1,212.2c5.1,15.3,7.9,31.7,7.9,48.8c0,85.3-69.2,154.5-154.5,154.5S100,346.3,100,261
		s69.2-154.5,154.5-154.5c51.2,0,96.6,24.9,124.7,63.3"/>
	<path class="st2" d="M333.4,255.2c0,4.2-3.3,7.7-7.4,7.7H174.9c-4.1,0-7.4-3.4-7.4-7.7l0,0c0-4.2,3.3-7.7,7.4-7.7H326
		C330.1,247.5,333.4,250.9,333.4,255.2L333.4,255.2z"/>
	<path class="st2" d="M333.4,284.8c0,4.2-3.3,7.6-7.4,7.6H174.9c-4.1,0-7.4-3.4-7.4-7.6l0,0c0-4.2,3.3-7.6,7.4-7.6H326
		C330.1,277.1,333.4,280.6,333.4,284.8L333.4,284.8z"/>
	<path class="st2" d="M333.4,313c0,4.2-3.3,7.7-7.4,7.7H174.9c-4.1,0-7.4-3.4-7.4-7.7l0,0c0-4.2,3.3-7.6,7.4-7.6H326
		C330.1,305.4,333.4,308.8,333.4,313L333.4,313z"/>
	<path class="st2" d="M333.4,338.4c0,4.2-3.3,7.7-7.4,7.7H174.9c-4.1,0-7.4-3.4-7.4-7.7l0,0c0-4.2,3.3-7.6,7.4-7.6H326
		C330.1,330.7,333.4,334.1,333.4,338.4L333.4,338.4z"/>
	<polygon class="st3" points="395,191.5 320.2,165.2 380.4,113.5 	"/>
	<g class="st4">
		<g>
			<g>
				<path class="st5" d="M241.5,239.2c-2.3,0-4.4-1.1-5.8-2.9l-18.8-24.8c-2.4-3.2-1.8-7.8,1.4-10.3c3.2-2.4,7.8-1.8,10.3,1.4
					l12.3,16.3l31-49.8c2.1-3.4,6.6-4.5,10.1-2.3c3.4,2.1,4.5,6.6,2.3,10.1l-36.7,58.9c-1.3,2-3.5,3.3-5.9,3.4
					C241.7,239.2,241.6,239.2,241.5,239.2z"/>
			</g>
		</g>
	</g>
</g>
<g id="Layer_2_2_" class="st0">
	<rect x="121" y="171.5" class="st6" width="298" height="251"/>
	<text transform="matrix(1 0 0 1 121 348.9979)" class="st7 st8 st9">24</text>
	<circle class="st10" cx="138.3" cy="91.8" r="17.3"/>
	<circle class="st10" cx="185.3" cy="91.8" r="17.3"/>
	<circle class="st10" cx="232.3" cy="91.8" r="17.3"/>
	<circle class="st10" cx="278.3" cy="91.8" r="17.3"/>
	<circle class="st10" cx="323.3" cy="91.8" r="17.3"/>
	<circle class="st10" cx="368.3" cy="91.8" r="17.3"/>
</g>
<circle class="st11" cx="255.6" cy="260.3" r="244.6"/>
<radialGradient id="SVGID_1_" cx="254.55" cy="249.3" r="244.625" gradientUnits="userSpaceOnUse">
	<stop  offset="5.618000e-03" style="stop-color:#D3EDF0"/>
	<stop  offset="0.4494" style="stop-color:#AEDFE6"/>
	<stop  offset="1" style="stop-color:#7CCFDA"/>
</radialGradient>
<path class="st12" d="M499.2,249.3c0,2.9,0,5.9-0.2,8.8c-0.5,14.3-2.3,28.3-5.1,41.9c0,0,0,0.1,0,0.2c-2.1,10-4.8,19.8-8.1,29.3
	c-2.2,6.3-4.6,12.4-7.3,18.5c-1.3,2.9-2.6,5.8-4,8.7c-1.4,2.8-2.8,5.6-4.3,8.4c-0.1,0.1-0.1,0.2-0.2,0.3c-1.4,2.6-2.9,5.2-4.4,7.7
	c-0.5,0.9-1.1,1.8-1.6,2.7c-2.6,4.4-5.4,8.6-8.3,12.8c-0.5,0.8-1,1.5-1.6,2.2c-0.9,1.3-1.9,2.6-2.8,3.9c-0.5,0.7-1,1.4-1.5,2
	c-2.1,2.8-4.3,5.6-6.6,8.3c-4.4,5.3-9,10.5-13.9,15.4c-2.1,2.1-4.2,4.2-6.3,6.2l-0.1,0.1c-0.1,0.1-0.3,0.3-0.4,0.4
	c-0.2,0.2-0.4,0.4-0.7,0.6l-0.1,0.1c-0.1,0.1-0.2,0.2-0.3,0.3c-1.7,1.6-3.4,3.1-5.2,4.7c-1.1,1-2.2,1.9-3.3,2.9
	c-4.2,3.5-8.4,6.9-12.8,10.2c-2.3,1.7-4.7,3.4-7.1,5c0,0,0,0-0.1,0c-0.1,0.1-0.2,0.2-0.4,0.3c-3.1,2.1-6.2,4.1-9.3,6.1
	c-1.1,0.7-2.1,1.3-3.2,1.9c-4.8,2.9-9.8,5.6-14.8,8.2c-8.6,4.4-17.5,8.3-26.7,11.6c-26.2,9.6-54.5,14.8-84,14.8
	c-31.7,0-61.9-6-89.7-17c-5.2-2-10.3-4.3-15.3-6.7c-0.1,0-0.2-0.1-0.3-0.1c-6.6-3.2-13.1-6.6-19.4-10.4c-0.1,0-0.1-0.1-0.2-0.1
	c-1.2-0.7-2.5-1.5-3.7-2.2c-2.5-1.5-5-3.2-7.4-4.8c0,0,0,0-0.1,0c-2.5-1.7-4.9-3.4-7.3-5.1c-3.2-2.3-6.3-4.7-9.4-7.2
	c-2.3-1.8-4.6-3.7-6.8-5.6c-2.1-1.8-4.1-3.6-6.2-5.5l-0.1-0.1c0,0,0,0-0.1,0c-0.1-0.1-0.2-0.2-0.3-0.2l-0.2-0.2
	c-2.1-1.9-4.2-3.9-6.2-5.9c-4.9-4.9-9.6-9.9-14-15.2c-0.8-1-1.7-2-2.5-3c-1.7-2-3.3-4-4.9-6.1c-0.5-0.6-0.9-1.2-1.4-1.8
	c-0.8-1-1.6-2.1-2.3-3.2c-4.1-5.6-8-11.5-11.6-17.5c-0.8-1.4-1.6-2.7-2.4-4.1c-0.3-0.5-0.5-0.9-0.8-1.4c-0.5-0.8-0.9-1.5-1.3-2.3
	c0,0,0-0.1-0.1-0.1c-1.5-2.7-3-5.5-4.4-8.2c-4.1-8.8-8.1-17.8-11.4-27c0,0,0-0.1-0.1-0.1c-8.5-23.5-13.5-48.6-14.5-74.8
	c-0.1-2.9-0.2-5.8-0.2-8.8c0-3.2,0.1-6.4,0.2-9.5c1.5-39,12.1-75.7,29.8-107.9c10.6-19.3,23.7-37,38.9-52.7
	c4.3-4.5,8.8-8.8,13.4-12.9c5.8-5.1,11.8-10,18-14.5c1.2-0.9,2.4-1.8,3.7-2.7c9.6-6.8,19.8-12.9,30.4-18.3
	c30.8-15.5,65.3-24.8,101.8-26c2.8-0.1,5.6-0.1,8.4-0.1h0.4c2.8,0,5.5,0,8.2,0.1c34.5,1.2,67.1,9.5,96.6,23.5
	c10,4.8,19.6,10.2,28.8,16.2c0.8,0.5,1.6,1,2.3,1.6c2.7,1.8,5.3,3.6,7.9,5.4c3.8,2.8,7.6,5.7,11.2,8.7c2.3,1.9,4.7,3.9,6.9,5.9
	c20.8,18.4,38.4,40.4,51.9,64.9c17.9,32.4,28.7,69.3,30.2,108.6c0.1,1.9,0.2,3.9,0.2,5.7C499.2,246.7,499.2,248,499.2,249.3z"/>
<path d="M616.3,333.3"/>
<path class="st13" d="M449.8,396.8c-2.4,2.8-4.8,5.6-7.3,8.3c-4.9,5.3-10,10.5-15.4,15.4c-2.3,2.1-4.6,4.2-7,6.2l-0.1,0.1
	c-0.1,0.1-0.3,0.3-0.4,0.4c-0.2,0.2-0.4,0.4-0.8,0.6l-0.1,0.1c-0.1,0.1-0.2,0.2-0.3,0.3c-1.9,1.6-3.8,3.1-5.8,4.7
	c-1.2,1-2.4,1.9-3.7,2.9c-4.7,3.5-9.3,6.9-14.2,10.2c-2.5,1.7-5.2,3.4-7.9,5c0,0,0,0-0.1,0c-0.1,0.1-0.2,0.2-0.4,0.3
	c-3.4,2.1-6.9,4.1-10.3,6.1H125.9c-2.5-1.5-5-3.2-7.4-4.8c0,0,0,0-0.1,0c-2.5-1.7-4.9-3.4-7.3-5.1c-3.2-2.3-6.3-4.7-9.4-7.2
	c-2.3-1.8-4.6-3.7-6.8-5.6c-2.1-1.8-4.1-3.6-6.2-5.5l-0.1-0.1c0,0,0,0-0.1,0c-0.1-0.1-0.2-0.2-0.3-0.2l-0.2-0.2
	c-2.1-1.9-4.2-3.9-6.2-5.9c-4.9-4.9-9.6-9.9-14-15.2c-0.8-1-1.7-2-2.5-3c-1.7-2-3.3-4-4.9-6.1c-0.5-0.6-0.9-1.2-1.4-1.8H449.8z"/>
<path class="st14" d="M154.5,423.3h-29.1c-1.2,0-2.1-0.9-2.1-2.1c0-1.2,0-40.4,0-41.6c0-1.2,0.9-2.1,2.1-2.1h29.1
	c1.2,0,2.1,0.9,2.1,2.1v41.6C156.6,422.4,155.6,423.3,154.5,423.3z"/>
<g>
	<path class="st15" d="M133.7,390h-8.3c-1.2,0-2.1-0.9-2.1-2.1c0-1.2,0.9-2.1,2.1-2.1h8.3c1.2,0,2.1,0.9,2.1,2.1
		C135.8,389.1,134.7,390,133.7,390z"/>
	<path class="st15" d="M133.7,398.3h-8.3c-1.2,0-2.1-0.9-2.1-2.1c0-1.2,0.9-2.1,2.1-2.1h8.3c1.2,0,2.1,0.9,2.1,2.1
		C135.8,397.4,134.7,398.3,133.7,398.3z"/>
	<path class="st15" d="M133.7,406.7h-8.3c-1.2,0-2.1-0.9-2.1-2.1c0-1.2,0.9-2.1,2.1-2.1h8.3c1.2,0,2.1,0.9,2.1,2.1
		C135.8,405.6,134.7,406.7,133.7,406.7z"/>
	<path class="st15" d="M133.7,415h-8.3c-1.2,0-2.1-0.9-2.1-2.1c0-1.2,0.9-2.1,2.1-2.1h8.3c1.2,0,2.1,0.9,2.1,2.1
		C135.8,414.1,134.7,415,133.7,415z"/>
	<path class="st15" d="M146.2,390H142c-1.2,0-2.1-0.9-2.1-2.1c0-1.2,0.9-2.1,2.1-2.1h4.2c1.2,0,2.1,0.9,2.1,2.1
		C148.2,389.1,147.3,390,146.2,390z"/>
	<path class="st15" d="M146.2,398.3H142c-1.2,0-2.1-0.9-2.1-2.1c0-1.2,0.9-2.1,2.1-2.1h4.2c1.2,0,2.1,0.9,2.1,2.1
		C148.2,397.4,147.3,398.3,146.2,398.3z"/>
	<path class="st15" d="M146.2,406.7H142c-1.2,0-2.1-0.9-2.1-2.1c0-1.2,0.9-2.1,2.1-2.1h4.2c1.2,0,2.1,0.9,2.1,2.1
		C148.2,405.6,147.3,406.7,146.2,406.7z"/>
	<path class="st15" d="M146.2,415H142c-1.2,0-2.1-0.9-2.1-2.1c0-1.2,0.9-2.1,2.1-2.1h4.2c1.2,0,2.1,0.9,2.1,2.1
		C148.2,414.1,147.3,415,146.2,415z"/>
</g>
<path class="st16" d="M126.6,369.6c-0.5-0.5-1.1-0.6-1.7-0.5l-33.3,6.2c-1.1,0.2-1.7,1.1-1.7,2.1v45.7c0,1.1,0.8,1.8,1.7,2.1
	l33.3,6.2c0.2,0,0.3,0,0.5,0c0.5,0,0.9-0.2,1.4-0.5c0.5-0.5,0.8-1.1,0.8-1.7v-58.2C127.4,370.7,127.2,370.1,126.6,369.6z"/>
<path class="st17" d="M118.6,407.3l-6.6-7.5l6.6-8.6c0.8-0.9,0.6-2.3-0.3-2.9c-0.9-0.8-2.3-0.6-2.9,0.3l-6.2,8l-5.1-5.9
	c-0.8-0.9-2.1-0.9-2.9-0.2c-0.9,0.8-0.9,2.1-0.2,2.9l5.7,6.5l-5.7,7.4c-0.8,0.9-0.6,2.3,0.3,2.9c0.5,0.3,0.9,0.5,1.4,0.5
	c0.6,0,1.2-0.3,1.7-0.8l5.3-6.8l6,6.9c0.5,0.5,1.1,0.8,1.5,0.8s0.9-0.2,1.4-0.5C119.2,409.6,119.4,408.2,118.6,407.3z"/>
<path class="st18" d="M254.3,424h-52.5V352h40.7l11.8,11.8V424z"/>
<path class="st19" d="M242.6,352v11.8h11.8L242.6,352z"/>
<path class="st20" d="M201.9,404.4h52.5v23.7h-52.5V404.4z"/>
<g>
	<path class="st21" d="M209.8,424c-0.8,0-1.4-0.6-1.4-1.4v-13.1c0-0.8,0.6-1.4,1.4-1.4s1.4,0.6,1.4,1.4v13.1
		C211.1,423.4,210.5,424,209.8,424z"/>
	<path class="st21" d="M246.5,410.9h-7.8c-0.8,0-1.4-0.6-1.4-1.4s0.6-1.4,1.4-1.4h7.8c0.8,0,1.4,0.6,1.4,1.4
		C247.9,410.3,247.3,410.9,246.5,410.9z"/>
	<path class="st21" d="M246.5,417.6h-7.8c-0.8,0-1.4-0.6-1.4-1.4s0.6-1.4,1.4-1.4h7.8c0.8,0,1.4,0.6,1.4,1.4
		S247.3,417.6,246.5,417.6z"/>
	<path class="st21" d="M238.7,424c-0.8,0-1.4-0.6-1.4-1.4v-13.1c0-0.8,0.6-1.4,1.4-1.4c0.8,0,1.4,0.6,1.4,1.4v13.1
		C240,423.4,239.4,424,238.7,424z"/>
</g>
<path class="st20" d="M227.2,366.1c-0.2,0-1.8,2.3,0.2,4.2C228.5,367.5,227.3,366.1,227.2,366.1 M227.9,377
	c-0.9,3.2-2.1,6.6-3.5,9.8c2.7-1.1,5.7-2,8.4-2.6C231.3,382.1,229.5,379.6,227.9,377 M237.7,385.4c1.1,0.8,1.4,1.2,2,1.2
	c0.3,0,1.2,0,1.5-0.6c0.2-0.3,0.3-0.5,0.3-0.6c-0.2-0.2-0.3-0.3-1.5-0.3C239.4,385.4,238.7,385.4,237.7,385.4 M220,391.3
	c-2.9,1.5-3.9,2.9-4.1,3.5c0,0.2,0,0.5,0.6,0.9C216.6,395.7,217.8,395.1,220,391.3 M216.5,397.8c-0.5,0-0.9-0.2-1.2-0.5
	c-1.4-1.1-1.5-2.1-1.5-2.9c0.3-2.1,2.9-4.4,7.8-6.5c2-4.2,3.8-9.5,5-13.9c-1.4-2.9-2.6-6.5-1.7-8.6c0.3-0.8,0.8-1.4,1.5-1.5
	c0.3-0.2,1.1-0.2,1.4-0.2c0.8,0,1.4,0.8,1.7,1.4c0.6,1.1,0.6,2.1,0.5,3.3c-0.2,1.1-0.3,2.1-0.5,3.2c-0.2,0.8-0.3,1.5-0.5,2.3
	c1.8,3.6,4.2,7.2,6.6,9.8c1.7-0.3,3.2-0.5,4.4-0.5c2.1,0,3.3,0.5,3.8,1.5c0.5,0.8,0.3,1.8-0.5,2.7c-0.8,1.1-1.7,1.5-2.9,1.5
	c-1.7,0-3.5-1.1-5.6-3c-3.8,0.8-8,2.1-11.5,3.6c-1.1,2.3-2.1,4.1-3.2,5.4C218.7,397,217.5,397.8,216.5,397.8"/>
<path class="st21" d="M213.8,418.9h-3.9c-0.8,0-1.4-0.6-1.4-1.4v-7.8c0-0.8,0.6-1.4,1.4-1.4h3.9c2.9,0,5.3,2.4,5.3,5.3
	S216.6,418.9,213.8,418.9z M211.1,416.2h2.6c1.5,0,2.6-1.2,2.6-2.6c0-1.5-1.2-2.6-2.6-2.6h-2.6V416.2z"/>
<path class="st21" d="M225.5,424h-1.4c-0.8,0-1.4-0.6-1.4-1.4v-13.1c0-0.8,0.6-1.4,1.4-1.4h1.4c4.4,0,7.8,3.5,7.8,7.8
	S229.9,424,225.5,424z M225.5,421.5L225.5,421.5L225.5,421.5z M225.5,410.9v10.6c2.9,0,5.3-2.4,5.3-5.3S228.4,410.9,225.5,410.9z"/>
<g>
	<g>
		<path class="st22" d="M356.7,419.5c-0.6,2.6-2.9,4.2-5.4,4.2H300c-2.1,0-3.3-1.2-3.3-3.5l9.2-21.9c0.5-1.2,1.4-2.1,2.7-2.1h16.9
			c2.9,0,5.6-1.2,7.4-3.5c1.8-2.1,4.5-3.5,7.4-3.5h20.4c1.8,0,3,1.5,2.7,3.3L356.7,419.5z"/>
		<path class="st22" d="M307,382.4h48.1V379c0-2-1.5-3.5-3.5-3.5h-31.5c-0.5,0-0.8-0.2-0.9-0.5l-4.4-5.6c-0.5-0.6-1.1-0.9-1.8-0.9
			h-12.8c-2,0-3.5,1.5-3.5,3.5v48.1l7.7-35.7C304.6,383.3,305.6,382.4,307,382.4"/>
	</g>
	<path class="st21" d="M300,372.2c0-2,1.5-3.5,3.5-3.5H300c-2,0-3.5,1.5-3.5,3.5v48.1l3.5-16.1V372.2z"/>
	<path class="st23" d="M308.5,396.3h16.9c2.9,0,5.6-1.2,7.4-3.5c1.8-2.1,4.5-3.5,7.4-3.5h19.2l0.5-3.6c0.3-1.7-0.9-3.3-2.7-3.3H307
		c-1.4,0-2.4,0.9-2.7,2.1l-7.7,35.7l9.2-21.9C306.4,397.2,307.3,396.3,308.5,396.3"/>
	<g>
		<path class="st24" d="M360.4,389.4h-3.5c1.8,0,3,1.5,2.7,3.3l-6.3,26.8c-0.6,2.6-2.9,4.2-5.4,4.2h3.5c2.6,0,4.8-1.8,5.4-4.2
			l6.3-26.8C363.5,390.9,362.2,389.4,360.4,389.4"/>
		<path class="st24" d="M351.8,375.6h-3.5c2,0,3.5,1.5,3.5,3.5v3.5h3.5v-3.5C355.1,377.1,353.6,375.6,351.8,375.6"/>
		<path class="st24" d="M357,382.4h-3.5c1.8,0,3,1.5,2.7,3.3l-0.5,3.6h3.5l0.5-3.6C360.1,384.1,358.7,382.4,357,382.4"/>
	</g>
	<g>
		<path d="M356.3,397.4h-18.4c-0.6,0-1.2-0.5-1.2-1.2c0-0.6,0.5-1.2,1.2-1.2h18.4c0.6,0,1.2,0.5,1.2,1.2
			C357.5,396.9,356.9,397.4,356.3,397.4"/>
		<path d="M356.3,402h-9.2c-0.6,0-1.2-0.5-1.2-1.2c0-0.6,0.5-1.2,1.2-1.2h9.2c0.6,0,1.2,0.5,1.2,1.2
			C357.5,401.4,356.9,402,356.3,402"/>
		<path d="M297.8,420.6c0,1.5,0.8,2.1,2.1,2.1h51.3c2.1,0,3.8-1.4,4.2-3.3l6.3-26.8c0.2-0.5,0-0.9-0.3-1.2c-0.3-0.3-0.8-0.6-1.2-0.6
			h-20.4c-2.6,0-4.8,1.1-6.5,3c-2.1,2.4-5,3.9-8.3,3.9h-16.9c-0.6,0-1.2,0.5-1.7,1.5L297.8,420.6z M351.3,425H300
			c-2.9,0-4.5-1.7-4.5-4.5c0-0.2,0-0.3,0.2-0.5l9.2-21.9c0.8-1.8,2.1-2.9,3.8-2.9h16.9c2.6,0,4.8-1.1,6.5-3c2.1-2.4,5-3.9,8.3-3.9
			h20.4c1.2,0,2.3,0.5,3,1.5c0.8,0.9,1.1,2.1,0.8,3.2l-6.5,26.8C357,422.8,354.5,425,351.3,425L351.3,425z"/>
		<path d="M307,383.6c-0.8,0-1.4,0.6-1.5,1.2l-5.1,23.7l4.4-10.6c0.8-1.8,2.1-2.9,3.8-2.9h16.9c2.6,0,4.8-1.1,6.5-3
			c2.1-2.4,5-3.9,8.3-3.9h18.1l0.3-2.6c0,0,0,0,0-0.2c0.2-0.5,0-0.9-0.3-1.4c-0.3-0.3-0.8-0.6-1.2-0.6L307,383.6L307,383.6z
			 M296.7,421.5c-0.2,0-0.3,0-0.3,0c-0.6-0.2-0.9-0.8-0.8-1.4l7.7-35.7c0.3-1.8,2-3,3.8-3h50.1c1.2,0,2.3,0.5,3,1.5
			c0.8,0.9,1.1,2,0.8,3.2l-0.3,3.6c0,0.6-0.6,1.1-1.2,1.1h-19.2c-2.6,0-4.8,1.1-6.5,3c-2.1,2.4-5,3.9-8.3,3.9h-16.9
			c-0.6,0-1.2,0.5-1.7,1.5l-9.2,21.9C297.5,421.2,297.2,421.5,296.7,421.5L296.7,421.5z"/>
		<path d="M296.7,421.5C296.6,421.5,296.6,421.5,296.7,421.5c-0.8,0-1.2-0.6-1.2-1.2v-28.7c0-0.6,0.5-1.2,1.2-1.2
			c0.6,0,1.2,0.5,1.2,1.2v17.8l5.4-25c0.3-1.8,2-3,3.8-3h47.1v-2.3c0-1.2-1.1-2.3-2.3-2.3h-31.5c-0.8,0-1.4-0.3-1.8-0.9l-4.4-5.6
			c-0.2-0.3-0.6-0.5-0.9-0.5h-12.8c-1.2,0-2.3,1.1-2.3,2.3v10.3c0,0.6-0.5,1.2-1.2,1.2c-0.6,0-1.2-0.5-1.2-1.2v-10.3
			c0-2.6,2.1-4.5,4.5-4.5h12.8c1.1,0,2,0.5,2.7,1.4l4.4,5.6h31.5c2.6,0,4.5,2.1,4.5,4.5v3.5c0,0.6-0.5,1.2-1.2,1.2H307
			c-0.8,0-1.4,0.6-1.5,1.2l-7.7,35.7C297.6,421,297.2,421.5,296.7,421.5"/>
		<path d="M297.8,387.1c0,0.6-0.5,1.2-1.2,1.2c-0.6,0-1.2-0.5-1.2-1.2c0-0.6,0.5-1.2,1.2-1.2C297.3,385.9,297.8,386.5,297.8,387.1"
			/>
	</g>
</g>
<path class="st25" d="M422,361h6.8v-11.8c-1.2-0.2-5.1-0.5-10-0.5c-21.6,0-15.7,24.3-16.4,27.9h-10.9V390h10.9v33.3h13.3V390h10.4
	l1.7-13.3h-12.1C416.2,367.8,413.3,361,422,361L422,361z"/>
</svg>
