<?xml version="1.0" encoding="utf-8"?>
<!-- Generator: Adobe Illustrator 24.0.1, SVG Export Plug-In . SVG Version: 6.00 Build 0)  -->
<svg version="1.1" id="Layer_1" xmlns="http://www.w3.org/2000/svg" xmlns:xlink="http://www.w3.org/1999/xlink" x="0px" y="0px"
	 viewBox="0 0 512 512" style="enable-background:new 0 0 512 512;" xml:space="preserve">
<style type="text/css">
	.st0{display:none;}
	.st1{display:inline;fill:#200A7F;stroke:#18E5EA;stroke-width:20;stroke-miterlimit:10;}
	.st2{display:inline;fill:#EF0B79;}
	.st3{display:inline;fill:#18E5EA;}
	.st4{display:inline;}
	.st5{fill:#E9F21C;}
	.st6{display:inline;fill:none;}
	.st7{display:inline;fill:#EF3A24;}
	.st8{font-family:'MyriadPro-Regular';}
	.st9{font-size:250px;}
	.st10{display:inline;fill:#FFFFFF;}
	.st11{opacity:0.48;fill:#969696;enable-background:new    ;}
	.st12{fill:#FFFFFF;stroke:#D8D8D8;stroke-width:2;stroke-miterlimit:10;}
	.st13{fill:#FF3162;}
	.st14{fill:#7FFF55;}
	.st15{fill:#FFEC06;}
	.st16{fill:#339EFF;}
</style>
<g id="Layer_3" class="st0">
	<path class="st1" d="M401.1,212.2c5.1,15.3,7.9,31.7,7.9,48.8c0,85.3-69.2,154.5-154.5,154.5S100,346.3,100,261
		s69.2-154.5,154.5-154.5c51.2,0,96.6,24.9,124.7,63.3"/>
	<path class="st2" d="M333.4,255.2c0,4.2-3.3,7.7-7.4,7.7H174.9c-4.1,0-7.4-3.4-7.4-7.7l0,0c0-4.2,3.3-7.7,7.4-7.7H326
		C330.1,247.5,333.4,250.9,333.4,255.2L333.4,255.2z"/>
	<path class="st2" d="M333.4,284.8c0,4.2-3.3,7.6-7.4,7.6H174.9c-4.1,0-7.4-3.4-7.4-7.6l0,0c0-4.2,3.3-7.6,7.4-7.6H326
		C330.1,277.1,333.4,280.6,333.4,284.8L333.4,284.8z"/>
	<path class="st2" d="M333.4,313c0,4.2-3.3,7.7-7.4,7.7H174.9c-4.1,0-7.4-3.4-7.4-7.7l0,0c0-4.2,3.3-7.6,7.4-7.6H326
		C330.1,305.4,333.4,308.8,333.4,313L333.4,313z"/>
	<path class="st2" d="M333.4,338.4c0,4.2-3.3,7.7-7.4,7.7H174.9c-4.1,0-7.4-3.4-7.4-7.7l0,0c0-4.2,3.3-7.6,7.4-7.6H326
		C330.1,330.7,333.4,334.1,333.4,338.4L333.4,338.4z"/>
	<polygon class="st3" points="395,191.5 320.2,165.2 380.4,113.5 	"/>
	<g class="st4">
		<g>
			<g>
				<path class="st5" d="M241.5,239.2c-2.3,0-4.4-1.1-5.8-2.9l-18.8-24.8c-2.4-3.2-1.8-7.8,1.4-10.3c3.2-2.4,7.8-1.8,10.3,1.4
					l12.3,16.3l31-49.8c2.1-3.4,6.6-4.5,10.1-2.3c3.4,2.1,4.5,6.6,2.3,10.1l-36.7,58.9c-1.3,2-3.5,3.3-5.9,3.4
					C241.7,239.2,241.6,239.2,241.5,239.2z"/>
			</g>
		</g>
	</g>
</g>
<g id="Layer_2_2_" class="st0">
	<rect x="121" y="171.5" class="st6" width="298" height="251"/>
	<text transform="matrix(1 0 0 1 121 348.9979)" class="st7 st8 st9">24</text>
	<circle class="st10" cx="138.3" cy="91.8" r="17.3"/>
	<circle class="st10" cx="185.3" cy="91.8" r="17.3"/>
	<circle class="st10" cx="232.3" cy="91.8" r="17.3"/>
	<circle class="st10" cx="278.3" cy="91.8" r="17.3"/>
	<circle class="st10" cx="323.3" cy="91.8" r="17.3"/>
	<circle class="st10" cx="368.3" cy="91.8" r="17.3"/>
</g>
<circle class="st11" cx="255.6" cy="260.3" r="244.6"/>
<path class="st12" d="M499.2,249.3c0,2.9,0,5.9-0.2,8.8c-0.5,14.3-2.3,28.3-5.1,41.9c0,0,0,0.1,0,0.2c-2.1,10-4.8,19.8-8.1,29.3
	c0,0,0,0,0,0c-3.2,9.3-7,18.4-11.3,27.2c-1.4,2.8-2.8,5.6-4.3,8.4c0,0,0,0,0,0c-0.1,0.1-0.1,0.2-0.2,0.3c-1.4,2.6-2.9,5.2-4.4,7.7
	c-3.6,6.1-7.4,12-11.5,17.7c-0.9,1.3-1.9,2.6-2.8,3.9c-2.6,3.5-5.3,7-8.1,10.4c-4.4,5.3-9,10.5-13.9,15.4c-2.1,2.1-4.2,4.2-6.3,6.2
	c0,0-0.1,0.1-0.1,0.1c-0.1,0.1-0.3,0.3-0.4,0.4c-0.2,0.2-0.4,0.4-0.7,0.6c0,0-0.1,0.1-0.1,0.1c-0.1,0.1-0.2,0.2-0.3,0.3
	c-1.7,1.6-3.4,3.1-5.2,4.7c-1.1,1-2.2,1.9-3.3,2.9c-4.2,3.5-8.4,6.9-12.8,10.2c-2.3,1.7-4.7,3.4-7.1,5c0,0,0,0-0.1,0
	c-0.1,0.1-0.2,0.2-0.4,0.3c-39.3,26.9-86.8,42.6-138,42.6c-31.7,0-61.9-6-89.7-17c-5.2-2-10.3-4.3-15.3-6.7c-0.1,0-0.2-0.1-0.3-0.1
	c-6.6-3.2-13.1-6.6-19.4-10.4c-0.1,0-0.1-0.1-0.2-0.1h0c-3.8-2.2-7.5-4.6-11.1-7c0,0,0,0-0.1,0c-2.5-1.7-4.9-3.4-7.3-5.1
	c-3.2-2.3-6.3-4.7-9.4-7.2c-2.3-1.8-4.6-3.7-6.8-5.6c-2.1-1.8-4.1-3.6-6.2-5.5c0,0-0.1-0.1-0.1-0.1c0,0,0,0-0.1,0
	c-0.1-0.1-0.2-0.2-0.3-0.2c0,0-0.1-0.1-0.1-0.1c0,0-0.1-0.1-0.1-0.1c-2.1-1.9-4.2-3.9-6.2-5.9c-4.9-4.9-9.6-9.9-14-15.2
	c-2.5-3-5-6-7.4-9.1c-1.3-1.6-2.5-3.3-3.7-4.9c-4.1-5.6-8-11.5-11.6-17.5c-0.8-1.4-1.6-2.7-2.4-4.1c-0.3-0.5-0.5-0.9-0.8-1.4
	c-0.5-0.8-0.9-1.5-1.3-2.3c0,0,0,0,0,0c0,0,0-0.1-0.1-0.1c0,0,0,0,0,0c-1.5-2.7-3-5.5-4.4-8.2C32,351.2,28,342.2,24.7,333
	c0,0,0-0.1-0.1-0.1c-8.5-23.5-13.5-48.6-14.5-74.8c-0.1-2.9-0.2-5.8-0.2-8.8c0-3.2,0.1-6.4,0.2-9.5c1.5-39,12.1-75.7,29.8-107.9
	c10.6-19.3,23.7-37,38.9-52.7c0,0,0,0,0,0c4.3-4.5,8.8-8.8,13.4-12.9c5.8-5.1,11.8-10,18-14.5c1.2-0.9,2.4-1.8,3.7-2.7
	c9.6-6.8,19.8-12.9,30.4-18.3c30.8-15.5,65.3-24.8,101.8-26c2.8-0.1,5.6-0.1,8.4-0.1h0.4c2.8,0,5.5,0,8.2,0.1
	c34.5,1.2,67.1,9.5,96.6,23.5c10,4.8,19.6,10.2,28.8,16.2c3.5,2.3,6.9,4.6,10.2,7c3.8,2.8,7.6,5.7,11.2,8.7c2.3,1.9,4.7,3.9,6.9,5.9
	c20.8,18.4,38.4,40.4,51.9,64.9c17.9,32.4,28.7,69.3,30.2,108.6C499.1,242.9,499.2,246.1,499.2,249.3z"/>
<path class="st13" d="M367.4,252.1c-20.3,34.9-45.8,69.6-74.7,102.8c0,0,0,0-0.1,0.1c-38.6,44.5-82.9,86.2-127.7,121.9
	c-5.2-2-10.3-4.3-15.3-6.7c-0.1,0-0.2-0.1-0.3-0.1c-6.6-3.2-13.1-6.6-19.4-10.4c-0.1,0-0.1-0.1-0.2-0.1h0c-3.8-2.2-7.5-4.6-11.1-7
	c0,0,0,0-0.1,0c-2.5-1.7-4.9-3.4-7.3-5.1c-3.2-2.3-6.3-4.7-9.4-7.2c-2.3-1.8-4.6-3.7-6.8-5.6c-2.1-1.8-4.1-3.6-6.2-5.5
	c0,0-0.1-0.1-0.1-0.1c0,0,0,0-0.1,0c-0.1-0.1-0.2-0.2-0.3-0.2c0,0-0.1-0.1-0.1-0.1c0,0-0.1-0.1-0.1-0.1c-2.1-1.9-4.2-3.9-6.2-5.9
	c-4.9-4.9-9.6-9.9-14-15.2c-2.5-3-5-6-7.4-9.1c-1.3-1.6-2.5-3.3-3.7-4.9c-4.1-5.6-8-11.5-11.6-17.5c-0.8-1.4-1.6-2.7-2.4-4.1
	c-0.3-0.5-0.5-0.9-0.8-1.4c-0.5-0.8-0.9-1.5-1.3-2.3c0,0,0,0,0,0c0,0,0-0.1-0.1-0.1c0,0,0,0,0,0c-1.5-2.7-3-5.5-4.4-8.2
	C32,351.2,28,342.2,24.7,333c0,0,0-0.1-0.1-0.1c-8.5-23.5-13.5-48.6-14.5-74.8c-0.1-2.9-0.2-5.8-0.2-8.8c0-3.2,0.1-6.4,0.2-9.5
	c1.5-39,12.1-75.7,29.8-107.9c10.6-19.3,23.7-37,38.9-52.7c0,0,0,0,0,0c4.3-4.5,8.8-8.8,13.4-12.9c5.8-5.1,11.8-10,18-14.5
	c1.2-0.9,2.4-1.8,3.7-2.7c9.6-6.8,19.8-12.9,30.4-18.3c30.8-15.5,65.3-24.8,101.8-26c2.8-0.1,5.6-0.1,8.4-0.1h0.4
	c2.8,0,5.5,0,8.2,0.1c34.5,1.2,67.1,9.5,96.6,23.5c10,4.8,19.6,10.2,28.8,16.2c3.5,2.3,6.9,4.6,10.2,7c3.8,2.8,7.6,5.7,11.2,8.7
	C425,118.6,405.9,185.6,367.4,252.1z"/>
<path class="st14" d="M493.9,300c0,0,0,0.1,0,0.2c-2.1,10-4.8,19.8-8.1,29.3c0,0,0,0,0,0c-3.2,9.3-7,18.4-11.3,27.2
	c-1.4,2.8-2.8,5.6-4.3,8.4c0,0,0,0,0,0c-0.1,0.1-0.1,0.2-0.2,0.3c-1.4,2.6-2.9,5.2-4.4,7.7c-3.6,6.1-7.4,12-11.5,17.7
	c-0.9,1.3-1.9,2.6-2.8,3.9c-2.6,3.5-5.3,7-8.1,10.4c-4.4,5.3-9,10.5-13.9,15.4c-2.1,2.1-4.2,4.2-6.3,6.2c0,0-0.1,0.1-0.1,0.1
	c-0.1,0.1-0.3,0.3-0.4,0.4c-0.2,0.2-0.4,0.4-0.7,0.6c0,0-0.1,0.1-0.1,0.1c-0.1,0.1-0.2,0.2-0.3,0.3c-1.7,1.6-3.4,3.1-5.2,4.7
	c-1.1,1-2.2,1.9-3.3,2.9c-4.2,3.5-8.4,6.9-12.8,10.2c-2.3,1.7-4.7,3.4-7.1,5c0,0,0,0-0.1,0c-0.1,0.1-0.2,0.2-0.4,0.3
	c-39.3,26.9-86.8,42.6-138,42.6c-31.7,0-61.9-6-89.7-17c-5.2-2-10.3-4.3-15.3-6.7c-0.1,0-0.2-0.1-0.3-0.1
	c-6.6-3.2-13.1-6.6-19.4-10.4c-0.1,0-0.1-0.1-0.2-0.1h0c-3.8-2.2-7.5-4.6-11.1-7c0,0,0,0-0.1,0c-2.5-1.7-4.9-3.4-7.3-5.1
	c-3.2-2.3-6.3-4.7-9.4-7.2c-2.3-1.8-4.6-3.7-6.8-5.6c-2.1-1.8-4.1-3.6-6.2-5.5c0,0-0.1-0.1-0.1-0.1c0,0,0,0-0.1,0
	c-0.1-0.1-0.2-0.2-0.3-0.2c0,0-0.1-0.1-0.1-0.1c0,0-0.1-0.1-0.1-0.1c-2.1-1.9-4.2-3.9-6.2-5.9c-4.9-4.9-9.6-9.9-14-15.2
	c-2.5-3-5-6-7.4-9.1c-1.3-1.6-2.5-3.3-3.7-4.9c-4.1-5.6-8-11.5-11.6-17.5c-0.8-1.4-1.6-2.7-2.4-4.1c10.1-19.3,22.8-37.5,38.4-54
	c30.5-32.2,67.5-53.2,108-64.9c0,0,0,0,0.1,0h0c12.3-3.5,24.9-6.3,37.9-8.2c0.1,0,0.2,0,0.3,0c16.4-2.3,33-3.5,49.9-3.5h0
	c29.6,0.1,59.9,4,89.8,10.7C411.5,262.1,454.8,278.7,493.9,300z"/>
<path class="st15" d="M499.2,249.3c0,2.9,0,5.9-0.2,8.8c-0.5,14.3-2.3,28.3-5.1,41.9c0,0,0,0.1,0,0.2c-2.1,10-4.8,19.8-8.1,29.3
	c0,0,0,0,0,0c-3.2,9.3-7,18.4-11.3,27.2c-1.4,2.8-2.8,5.6-4.3,8.4c0,0,0,0,0,0c-0.1,0.1-0.1,0.2-0.2,0.3c-1.4,2.6-2.9,5.2-4.4,7.7
	c-3.6,6.1-7.4,12-11.5,17.7c-0.9,1.3-1.9,2.6-2.8,3.9c-2.6,3.5-5.3,7-8.1,10.4c-4.4,5.3-9,10.5-13.9,15.4c-2.1,2.1-4.2,4.2-6.3,6.2
	c0,0-0.1,0.1-0.1,0.1c-0.1,0.1-0.3,0.3-0.4,0.4c-0.2,0.2-0.4,0.4-0.7,0.6c0,0-0.1,0.1-0.1,0.1c-0.1,0.1-0.2,0.2-0.3,0.3
	c-1.7,1.6-3.4,3.1-5.2,4.7c-1.1,1-2.2,1.9-3.3,2.9c-45.3-18.9-87.3-46.5-120.3-80.8l-0.1-0.1c-9.5-9.9-18.3-20.4-26.2-31.2
	c-10-13.8-18-27.9-24.6-41.7c0,0,0-0.1-0.1-0.1c-6-12.7-10.7-25.1-14.4-36.9c0,0,0,0,0-0.1c-5.7-18.4-9-35.5-10.8-50.3
	c0,0,0,0,0-0.1c-2.7-21.2-2.5-37.7-2.1-46.1c1.9-49.1,16.7-99,40.5-143.7c2.8,0,5.5,0,8.2,0.1c34.5,1.2,67.1,9.5,96.6,23.5
	c10,4.8,19.6,10.2,28.8,16.2c3.5,2.3,6.9,4.6,10.2,7c3.8,2.8,7.6,5.7,11.2,8.7c2.3,1.9,4.7,3.9,6.9,5.9
	c20.8,18.4,38.4,40.4,51.9,64.9c17.9,32.4,28.7,69.3,30.2,108.6C499.1,242.9,499.2,246.1,499.2,249.3z"/>
<circle class="st16" cx="232.2" cy="237.3" r="45.6"/>
</svg>
