<?xml version="1.0" encoding="utf-8"?>
<!-- Generator: Adobe Illustrator 24.0.1, SVG Export Plug-In . SVG Version: 6.00 Build 0)  -->
<svg version="1.1" id="Layer_1" xmlns="http://www.w3.org/2000/svg" xmlns:xlink="http://www.w3.org/1999/xlink" x="0px" y="0px"
	 viewBox="0 0 512 512" style="enable-background:new 0 0 512 512;" xml:space="preserve">
<style type="text/css">
	.st0{display:none;}
	.st1{display:inline;fill:#200A7F;stroke:#18E5EA;stroke-width:20;stroke-miterlimit:10;}
	.st2{display:inline;fill:#EF0B79;}
	.st3{display:inline;fill:#18E5EA;}
	.st4{display:inline;}
	.st5{fill:#E9F21C;}
	.st6{display:inline;fill:none;}
	.st7{display:inline;fill:#EF3A24;}
	.st8{font-family:'MyriadPro-Regular';}
	.st9{font-size:250px;}
	.st10{display:inline;fill:#FFFFFF;}
	.st11{opacity:0.48;fill:#969696;}
	.st12{fill:url(#SVGID_1_);stroke:#D8D8D8;stroke-width:2;stroke-miterlimit:10;}
	.st13{fill:#00D8E0;}
	.st14{fill:#54E360;}
	.st15{fill:#FEF4F5;}
</style>
<g id="Layer_3" class="st0">
	<path class="st1" d="M401.1,212.2c5.1,15.3,7.9,31.7,7.9,48.8c0,85.3-69.2,154.5-154.5,154.5S100,346.3,100,261
		s69.2-154.5,154.5-154.5c51.2,0,96.6,24.9,124.7,63.3"/>
	<path class="st2" d="M333.4,255.2c0,4.2-3.3,7.7-7.4,7.7H174.9c-4.1,0-7.4-3.4-7.4-7.7l0,0c0-4.2,3.3-7.7,7.4-7.7H326
		C330.1,247.5,333.4,250.9,333.4,255.2L333.4,255.2z"/>
	<path class="st2" d="M333.4,284.8c0,4.2-3.3,7.6-7.4,7.6H174.9c-4.1,0-7.4-3.4-7.4-7.6l0,0c0-4.2,3.3-7.6,7.4-7.6H326
		C330.1,277.1,333.4,280.6,333.4,284.8L333.4,284.8z"/>
	<path class="st2" d="M333.4,313c0,4.2-3.3,7.7-7.4,7.7H174.9c-4.1,0-7.4-3.4-7.4-7.7l0,0c0-4.2,3.3-7.6,7.4-7.6H326
		C330.1,305.4,333.4,308.8,333.4,313L333.4,313z"/>
	<path class="st2" d="M333.4,338.4c0,4.2-3.3,7.7-7.4,7.7H174.9c-4.1,0-7.4-3.4-7.4-7.7l0,0c0-4.2,3.3-7.6,7.4-7.6H326
		C330.1,330.7,333.4,334.1,333.4,338.4L333.4,338.4z"/>
	<polygon class="st3" points="395,191.5 320.2,165.2 380.4,113.5 	"/>
	<g class="st4">
		<g>
			<g>
				<path class="st5" d="M241.5,239.2c-2.3,0-4.4-1.1-5.8-2.9l-18.8-24.8c-2.4-3.2-1.8-7.8,1.4-10.3c3.2-2.4,7.8-1.8,10.3,1.4
					l12.3,16.3l31-49.8c2.1-3.4,6.6-4.5,10.1-2.3c3.4,2.1,4.5,6.6,2.3,10.1l-36.7,58.9c-1.3,2-3.5,3.3-5.9,3.4
					C241.7,239.2,241.6,239.2,241.5,239.2z"/>
			</g>
		</g>
	</g>
</g>
<g id="Layer_2_2_" class="st0">
	<rect x="121" y="171.5" class="st6" width="298" height="251"/>
	<text transform="matrix(1 0 0 1 121 348.9979)" class="st7 st8 st9">24</text>
	<circle class="st10" cx="138.3" cy="91.8" r="17.3"/>
	<circle class="st10" cx="185.3" cy="91.8" r="17.3"/>
	<circle class="st10" cx="232.3" cy="91.8" r="17.3"/>
	<circle class="st10" cx="278.3" cy="91.8" r="17.3"/>
	<circle class="st10" cx="323.3" cy="91.8" r="17.3"/>
	<circle class="st10" cx="368.3" cy="91.8" r="17.3"/>
</g>
<circle class="st11" cx="255.6" cy="260.3" r="244.6"/>
<radialGradient id="SVGID_1_" cx="254.625" cy="249.325" r="244.615" gradientUnits="userSpaceOnUse">
	<stop  offset="0" style="stop-color:#2BC4F3"/>
	<stop  offset="0.5" style="stop-color:#00AEEE"/>
	<stop  offset="1" style="stop-color:#0095DA"/>
</radialGradient>
<path class="st12" d="M499.2,249.3c0,135.1-109.5,244.6-244.6,244.6c-3.2,0-6.3-0.1-9.5-0.2C114.4,488.8,10,381.2,10,249.3
	c0-1.7,0-3.4,0.1-5C12.7,111.5,121.2,4.7,254.6,4.7c13.5,0,26.7,1.1,39.5,3.2C406,26.1,492.4,120.1,498.8,235.5
	C499.1,240,499.2,244.7,499.2,249.3z"/>
<path class="st13" d="M349.2,54.8c0,4.8-2.3,9.4-6.3,12.2l-50,35.7c0,0,0,0,0,0.1V183c0,6.8-4.4,13-10.9,14.9
	c-5.6,1.5-11-0.3-14.6-3.8c0,0-0.1,0-0.1,0l-19.5,19.6l-23.4,23.5c0,0,0,0.1,0,0.1c3.5,3.6,5.3,9.1,3.8,14.6
	c-1.8,6.6-8.1,10.9-14.9,10.9H45c-10.7,0-20.7-3.1-29.1-8.3c0,0,0,0,0,0l-0.6-1l-5.2-9.1c0,0,0,0,0,0
	C12.7,111.5,121.2,4.7,254.6,4.7c13.5,0,26.6,1.1,39.5,3.2c0,0,0,0,0,0l48.7,34.7C346.8,45.4,349.2,50,349.2,54.8z"/>
<path class="st14" d="M499.2,249.3c0,135.1-109.5,244.6-244.6,244.6h-9.5c0-0.1,0-0.1,0-0.2c-0.2-0.8-0.3-1.6-0.4-2.3l-50.6-36.1
	c-3.9-2.8-6.3-7.4-6.3-12.2s2.3-9.4,6.3-12.2l50-35.7v-105c0-30.4,24.7-55.2,55.2-55.2h192.8c2.3,0,4.5,0.1,6.7,0.4
	C499.1,240,499.2,244.7,499.2,249.3z"/>
<path class="st15" d="M241.7,227.6c-20,0-38.7-5.5-54.7-15.2c19.4-20.9,32.2-47.7,35.4-77.6h19.5c7.8,0,14.2-6.3,14.2-14.2
	s-6.3-14.2-14.2-14.2h-62.9V72.3c0-7.8-6.3-14.2-14.2-14.2c-7.8,0-14.2,6.3-14.2,14.2v34.2H87.8c-7.8,0-14.2,6.3-14.2,14.2
	s6.3,14.2,14.2,14.2h19.5c3.2,29.9,16,56.7,35.2,77.6c-16,9.7-34.7,15.2-54.7,15.2c-7.8,0-14.2,6.3-14.2,14.2
	c0,7.8,6.3,14.2,14.2,14.2c28.5,0,55.1-9,76.9-24.2c21.9,15.2,48.4,24.2,76.9,24.2c7.8,0,14.2-6.3,14.2-14.2
	C255.8,234,249.5,227.6,241.7,227.6z M193.8,134.9c-3,23.2-13.5,43.9-29,59.9c-15.5-16-25.9-36.9-29-59.9L193.8,134.9L193.8,134.9z"
	/>
<path class="st15" d="M408.4,417.3c0,0,0-0.2,0-0.3c0-0.3-0.2-0.6-0.2-1c0-0.2-0.2-0.5-0.2-0.8l-49.9-162.6c-0.6-2.1-1.9-4-3.5-5.6
	c-0.3-0.3-0.8-0.6-1.1-1l0,0c-0.5-0.3-0.8-0.6-1.3-0.8c-1.6-1-3.2-1.8-5.1-2.4c-0.5-0.2-1.1-0.3-1.6-0.5c-0.5-0.2-1-0.2-1.4-0.3
	c-0.2,0-0.2,0-0.3,0c-1.1-0.2-2.3-0.5-3.4-0.5c-0.6,0-1.3-0.2-1.8-0.2c-0.6,0-1.3,0-1.8,0h-0.2c-9.7,0-19.1,3.7-21.4,11.4
	l-49.9,162.6c-0.3,1-0.5,2.1-0.5,2.6c0,8.2,12.1,14,21.2,14c5.6,0,10.1-1.8,11.4-6.8l9.8-34.4h59.2l9.8,34.4c1.3,5,5.6,6.8,11.4,6.8
	c5,0,10.9-1.8,15.3-4.8l0,0c3.5-2.4,5.8-5.6,5.8-9.2C408.4,417.6,408.4,417.5,408.4,417.3z M313.8,364.4l22.5-79.3l0.2,0.5
	l22.4,78.8H313.8z"/>
</svg>
