<?xml version="1.0" encoding="utf-8"?>
<!-- Generator: Adobe Illustrator 24.0.1, SVG Export Plug-In . SVG Version: 6.00 Build 0)  -->
<svg version="1.1" id="Layer_1" xmlns="http://www.w3.org/2000/svg" xmlns:xlink="http://www.w3.org/1999/xlink" x="0px" y="0px"
	 viewBox="0 0 512 512" style="enable-background:new 0 0 512 512;" xml:space="preserve">
<style type="text/css">
	.st0{display:none;}
	.st1{display:inline;fill:#200A7F;stroke:#18E5EA;stroke-width:20;stroke-miterlimit:10;}
	.st2{display:inline;fill:#EF0B79;}
	.st3{display:inline;fill:#18E5EA;}
	.st4{display:inline;}
	.st5{fill:#E9F21C;}
	.st6{display:inline;fill:none;}
	.st7{display:inline;fill:#EF3A24;}
	.st8{font-family:'MyriadPro-Regular';}
	.st9{font-size:250px;}
	.st10{display:inline;fill:#FFFFFF;}
	.st11{opacity:0.48;fill:#969696;enable-background:new    ;}
	.st12{fill:url(#SVGID_1_);}
	.st13{fill:#FFFFFF;}
	.st14{fill:none;stroke:#FFFFFF;stroke-width:7;stroke-miterlimit:10;}
</style>
<g id="Layer_3" class="st0">
	<path class="st1" d="M401.1,212.2c5.1,15.3,7.9,31.7,7.9,48.8c0,85.3-69.2,154.5-154.5,154.5S100,346.3,100,261
		s69.2-154.5,154.5-154.5c51.2,0,96.6,24.9,124.7,63.3"/>
	<path class="st2" d="M333.4,255.2c0,4.2-3.3,7.7-7.4,7.7H174.9c-4.1,0-7.4-3.4-7.4-7.7l0,0c0-4.2,3.3-7.7,7.4-7.7H326
		C330.1,247.5,333.4,250.9,333.4,255.2L333.4,255.2z"/>
	<path class="st2" d="M333.4,284.8c0,4.2-3.3,7.6-7.4,7.6H174.9c-4.1,0-7.4-3.4-7.4-7.6l0,0c0-4.2,3.3-7.6,7.4-7.6H326
		C330.1,277.1,333.4,280.6,333.4,284.8L333.4,284.8z"/>
	<path class="st2" d="M333.4,313c0,4.2-3.3,7.7-7.4,7.7H174.9c-4.1,0-7.4-3.4-7.4-7.7l0,0c0-4.2,3.3-7.6,7.4-7.6H326
		C330.1,305.4,333.4,308.8,333.4,313L333.4,313z"/>
	<path class="st2" d="M333.4,338.4c0,4.2-3.3,7.7-7.4,7.7H174.9c-4.1,0-7.4-3.4-7.4-7.7l0,0c0-4.2,3.3-7.6,7.4-7.6H326
		C330.1,330.7,333.4,334.1,333.4,338.4L333.4,338.4z"/>
	<polygon class="st3" points="395,191.5 320.2,165.2 380.4,113.5 	"/>
	<g class="st4">
		<g>
			<g>
				<path class="st5" d="M241.5,239.2c-2.3,0-4.4-1.1-5.8-2.9l-18.8-24.8c-2.4-3.2-1.8-7.8,1.4-10.3c3.2-2.4,7.8-1.8,10.3,1.4
					l12.3,16.3l31-49.8c2.1-3.4,6.6-4.5,10.1-2.3c3.4,2.1,4.5,6.6,2.3,10.1l-36.7,58.9c-1.3,2-3.5,3.3-5.9,3.4
					C241.7,239.2,241.6,239.2,241.5,239.2z"/>
			</g>
		</g>
	</g>
</g>
<g id="Layer_2_2_" class="st0">
	<rect x="121" y="171.5" class="st6" width="298" height="251"/>
	<text transform="matrix(1 0 0 1 121 348.9979)" class="st7 st8 st9">24</text>
	<circle class="st10" cx="138.3" cy="91.8" r="17.3"/>
	<circle class="st10" cx="185.3" cy="91.8" r="17.3"/>
	<circle class="st10" cx="232.3" cy="91.8" r="17.3"/>
	<circle class="st10" cx="278.3" cy="91.8" r="17.3"/>
	<circle class="st10" cx="323.3" cy="91.8" r="17.3"/>
	<circle class="st10" cx="368.3" cy="91.8" r="17.3"/>
</g>
<circle class="st11" cx="255.6" cy="260.3" r="244.6"/>
<linearGradient id="SVGID_1_" gradientUnits="userSpaceOnUse" x1="9.9" y1="249.3" x2="499.2" y2="249.3">
	<stop  offset="0" style="stop-color:#F37E5F"/>
	<stop  offset="0.5" style="stop-color:#EC1C24"/>
	<stop  offset="1" style="stop-color:#CF232A"/>
</linearGradient>
<path class="st12" d="M498.9,239.6c0,0,0-0.1,0-0.1c-0.1-3.6-0.4-7.2-0.7-10.8c0-0.1,0-0.1,0-0.2c-0.3-3.5-0.6-7-1.1-10.4
	c-0.1-0.9-0.2-1.9-0.4-2.8c-0.7-4.9-1.5-9.8-2.5-14.6c-0.2-1.1-0.5-2.2-0.7-3.3c-0.5-2.3-1-4.5-1.6-6.7c0-0.1,0-0.1,0-0.1
	c-0.8-3.3-1.7-6.6-2.6-9.9c-1.6-5.4-3.3-10.8-5.3-16.1c-0.2-0.5-0.3-1-0.5-1.5c-0.6-1.5-1.2-3.1-1.8-4.6c-0.4-1-0.8-2-1.2-3
	c-2-4.8-4.1-9.6-6.4-14.3l0,0c-1.7-3.5-3.5-6.9-5.4-10.3c0,0,0-0.1-0.1-0.1l0,0c0-0.1-0.1-0.2-0.2-0.3c-0.9-1.7-1.9-3.4-2.9-5.1
	c-0.5-1-1.1-1.9-1.7-2.9c-3.8-6.4-8-12.6-12.4-18.6c-0.8-1-1.5-2-2.3-3c-1.3-1.7-2.6-3.4-4-5.1c-1.3-1.6-2.6-3.1-3.9-4.7
	c-1.4-1.6-2.8-3.3-4.2-4.8c-1.3-1.5-2.6-2.9-3.9-4.3c-1.6-1.7-3.2-3.3-4.8-5c-3.8-3.8-7.6-7.5-11.6-11c-2.2-2-4.6-4-6.9-5.9
	c-1.8-1.5-3.6-3-5.5-4.4c-0.2-0.1-0.3-0.3-0.5-0.4c-1.7-1.3-3.5-2.6-5.2-3.9c-1.5-1.1-3.1-2.2-4.7-3.3c-1.4-1-2.9-2-4.4-2.9
	c-0.4-0.3-0.7-0.5-1.1-0.7c-1.6-1.1-3.3-2.1-5-3.2c-2.9-1.8-5.8-3.5-8.7-5.1c-4.9-2.8-10-5.4-15.1-7.9c-1.8-0.9-3.7-1.7-5.5-2.5
	c-12.8-5.7-26.1-10.3-39.8-13.7c-0.5-0.1-1.1-0.3-1.6-0.4C302.1,9,291.3,7.1,280.2,6c-1.9-0.2-3.8-0.4-5.6-0.5
	c-3.1-0.3-6.3-0.5-9.4-0.6c-0.1,0-0.2,0-0.2,0c-0.6,0-1.2,0-1.8-0.1c-2.7-0.1-5.4-0.1-8.2-0.1h-0.4c-2.8,0-5.6,0-8.4,0.1
	c-0.6,0-1.3,0-1.9,0.1c-3.2,0.1-6.3,0.3-9.5,0.6c-12.4,1-24.5,2.9-36.2,5.7c-0.7,0.2-1.4,0.3-2.1,0.5c-0.5,0.1-1,0.2-1.5,0.4
	c-3.9,1-7.8,2.1-11.6,3.2c-8.8,2.6-17.3,5.8-25.6,9.4c-0.9,0.4-1.7,0.7-2.6,1.1c-3.6,1.6-7.2,3.3-10.8,5.1c-2,1-3.9,2-5.9,3.1
	c-0.4,0.2-0.8,0.4-1.3,0.7c-1.7,0.9-3.3,1.8-4.9,2.8c-2.2,1.3-4.4,2.6-6.6,4c-1.1,0.7-2.1,1.3-3.2,2c-1.8,1.2-3.7,2.4-5.5,3.7
	c0,0-0.1,0.1-0.2,0.1c-0.5,0.3-1,0.7-1.5,1c-0.5,0.3-0.9,0.6-1.3,0.9c-1.3,0.9-2.5,1.8-3.7,2.7c-0.9,0.6-1.7,1.3-2.6,1.9
	c-1.4,1.1-2.8,2.1-4.2,3.2c-0.3,0.2-0.5,0.4-0.8,0.6c-3.6,2.8-7,5.8-10.5,8.8c-2.6,2.3-5.1,4.6-7.6,7c-2,1.9-3.9,3.9-5.8,5.9
	c-6.5,6.7-12.7,13.8-18.4,21.3c-0.1,0.2-0.3,0.4-0.4,0.5c-4.2,5.5-8.2,11.2-11.9,17c-2.6,4.1-5.1,8.3-7.5,12.5
	c-0.3,0.5-0.5,0.9-0.8,1.4c-0.5,0.8-0.9,1.7-1.3,2.5c-0.6,1.5-1.4,2.9-2.2,4.2c-0.2,0.4-0.4,0.8-0.6,1.1c-2.7,5.3-5.1,10.6-7.4,16.1
	l0,0c-1,2.3-1.9,4.7-2.8,7.1c-2,5.3-3.8,10.6-5.4,16c-0.6,2-1.2,4.1-1.8,6.2c-4.7,17.5-7.6,35.8-8.3,54.6c-0.1,3.1-0.2,6.3-0.2,9.5
	c0,3,0.1,5.9,0.2,8.8c0.7,19,3.6,37.5,8.3,55.1c1.8,6.7,3.9,13.2,6.2,19.7c0.1,0,0.1,0.1,0.1,0.1c3.3,9.2,7.3,18.2,11.4,27
	c1.4,2.7,2.9,5.5,4.4,8.2c0,0,0.1,0,0.1,0c0,0,0,0.1,0,0.1c0.4,0.8,0.8,1.5,1.3,2.3c0.3,0.5,0.5,0.9,0.8,1.4
	c0.8,1.4,1.6,2.7,2.4,4.1c1,1.7,2,3.3,3,4.9c2.7,4.3,5.6,8.5,8.6,12.6c1,1.4,2,2.8,3.1,4.2l0.6,0.7c2.4,3.1,4.9,6.1,7.4,9.1
	c4.4,5.3,9.1,10.3,14,15.2c2,2,4.1,4,6.2,5.9l0.2,0.2c0.1,0,0.2,0.1,0.3,0.2c0.1,0,0.1,0,0.1,0l0.1,0.1c2.1,1.9,4.1,3.7,6.2,5.5
	c1.1,0.9,2.2,1.9,3.3,2.8c0,0,0,0,0,0c1.1,0.9,2.3,1.9,3.4,2.8c2,1.6,3.9,3.1,5.9,4.6c1.2,0.9,2.3,1.7,3.5,2.6
	c2.4,1.7,4.8,3.4,7.3,5.1c0.1,0,0.1,0,0.1,0c1.3,0.9,2.6,1.7,3.9,2.6c0.9,0.6,1.8,1.2,2.8,1.8c0.1,0,0.2,0.1,0.2,0.2
	c1.4,0.9,2.8,1.7,4.2,2.5c0.1,0,0.1,0.1,0.2,0.1c2.4,1.5,4.9,2.9,7.4,4.2c4,2.2,8,4.2,12,6.2c0.1,0,0.2,0.1,0.3,0.1
	c5,2.4,10.1,4.7,15.3,6.7c7.4,2.9,15,5.5,22.7,7.7c3,0.9,6,1.6,9,2.4c0.5,0.1,1.1,0.3,1.6,0.4h0c11.2,2.6,22.6,4.5,34.3,5.5h0
	c6.8,0.6,13.8,0.9,20.8,1c0.4,0,0.9,0,1.3,0c20,0,39.4-2.4,58.1-6.9c3.2-0.8,6.3-1.6,9.5-2.5c4.1-1.2,8.2-2.5,12.2-3.8h0
	c1.4-0.5,2.8-1,4.3-1.5c8.4-3,16.5-6.5,24.3-10.4c0.8-0.4,1.6-0.8,2.4-1.2c3.2-1.7,6.5-3.4,9.6-5.2c1.7-1,3.5-2,5.2-3
	c1.2-0.7,2.4-1.5,3.7-2.2c2-1.2,4-2.5,6-3.8c1-0.6,1.9-1.3,2.9-1.9c0.1,0,0.2-0.1,0.2-0.1c0.1-0.1,0.1-0.1,0.2-0.2
	c0.1,0,0.1,0,0.1,0c2.4-1.6,4.8-3.3,7.1-5c1.5-1.1,2.9-2.2,4.3-3.3c2.9-2.3,5.7-4.6,8.5-6.9c0.2-0.2,0.4-0.3,0.5-0.5
	c0,0,0.1-0.1,0.1-0.1c0.5-0.4,1-0.8,1.4-1.3c0.4-0.3,0.8-0.7,1.2-1.1c1.8-1.6,3.5-3.1,5.2-4.7c0.1-0.1,0.2-0.2,0.3-0.3l0.1-0.1
	c0.3-0.2,0.5-0.4,0.7-0.6c0.1-0.1,0.3-0.3,0.4-0.4l0.1-0.1c0,0,0,0,0.1-0.1c2.1-2,4.1-4,6.2-6.1c0.9-0.9,1.8-1.8,2.7-2.8
	c0.6-0.7,1.2-1.3,1.8-2c3.3-3.5,6.3-7.1,9.4-10.7c1.9-2.3,3.8-4.7,5.6-7.1c0-0.1,0.1-0.1,0.1-0.2c0.8-1,1.6-2.1,2.3-3.1
	c0.9-1.3,1.9-2.6,2.8-3.9c0.3-0.3,0.6-0.7,0.8-1.1l0-0.1c0.2-0.3,0.5-0.7,0.7-1.1c1.8-2.7,3.6-5.3,5.4-8c0,0,0,0,0,0
	c1-1.5,1.9-3,2.8-4.5c0-0.1,0.1-0.2,0.1-0.2c0.1-0.2,0.3-0.5,0.4-0.7c0.4-0.7,0.8-1.3,1.2-2c1-1.6,1.9-3.2,2.8-4.9
	c0.1-0.1,0.1-0.2,0.2-0.4c0.5-0.8,0.9-1.7,1.4-2.5c0.1-0.1,0.1-0.2,0.2-0.3c0.8-1.4,1.5-2.8,2.2-4.3c0.7-1.4,1.4-2.8,2.1-4.1
	c0.7-1.5,1.4-2.9,2-4.4l0,0c0.4-0.8,0.8-1.7,1.1-2.5c0,0,0,0,0,0c0.3-0.6,0.5-1.2,0.8-1.8c2.5-5.6,4.7-11.1,6.7-16.8
	c0.2-0.5,0.4-1.1,0.6-1.7c0.9-2.6,1.8-5.2,2.5-7.8c1-3.2,1.9-6.4,2.8-9.6c0.9-3.5,1.7-6.9,2.5-10.4c0.1-0.5,0.2-0.9,0.3-1.4
	c0-0.1,0-0.2,0-0.2c0.3-1.7,0.7-3.5,1-5.2c0.6-3.1,1.1-6.2,1.6-9.4c0.9-5.9,1.6-11.9,2-17.9c0.2-3.1,0.4-6.3,0.5-9.5
	c0.2-2.9,0.2-5.9,0.2-8.8C499.2,246.1,499.1,242.9,498.9,239.6z"/>
<g id="g47">
	<g id="g49">
		<g id="g51">
			<path id="path53" class="st13" d="M239.3,124.9h36.6c54.9,0,54.9,54.2,54.9,54.2v53.7c0,18.1-36.6,54.9-36.6,54.9v18.1l54.9,36.1
				v36.2H147.8v-36.3l73.2-36.1v-18.1c0,0-36.7-36.7-36.6-54.9V179C184.5,179.2,184.5,124.9,239.3,124.9"/>
		</g>
	</g>
</g>
<circle class="st14" cx="256.1" cy="251.5" r="234.2"/>
</svg>
