<?xml version="1.0" encoding="utf-8"?>
<!-- Generator: Adobe Illustrator 24.0.1, SVG Export Plug-In . SVG Version: 6.00 Build 0)  -->
<svg version="1.1" id="Layer_1" xmlns="http://www.w3.org/2000/svg" xmlns:xlink="http://www.w3.org/1999/xlink" x="0px" y="0px"
	 viewBox="0 0 512 512" style="enable-background:new 0 0 512 512;" xml:space="preserve">
<style type="text/css">
	.st0{display:none;}
	.st1{display:inline;fill:#200A7F;stroke:#18E5EA;stroke-width:20;stroke-miterlimit:10;}
	.st2{display:inline;fill:#EF0B79;}
	.st3{display:inline;fill:#18E5EA;}
	.st4{display:inline;}
	.st5{fill:#E9F21C;}
	.st6{display:inline;fill:none;}
	.st7{display:inline;fill:#EF3A24;}
	.st8{font-family:'MyriadPro-Regular';}
	.st9{font-size:250px;}
	.st10{display:inline;fill:#FFFFFF;}
	.st11{opacity:0.48;fill:#969696;enable-background:new    ;}
	.st12{fill:url(#SVGID_1_);}
	.st13{fill:none;}
	.st14{fill:#FFFFFF;stroke:#000000;stroke-width:0.75;stroke-miterlimit:10;}
</style>
<g id="Layer_3" class="st0">
	<path class="st1" d="M401.1,212.2c5.1,15.3,7.9,31.7,7.9,48.8c0,85.3-69.2,154.5-154.5,154.5S100,346.3,100,261
		s69.2-154.5,154.5-154.5c51.2,0,96.6,24.9,124.7,63.3"/>
	<path class="st2" d="M333.4,255.2c0,4.2-3.3,7.7-7.4,7.7H174.9c-4.1,0-7.4-3.4-7.4-7.7l0,0c0-4.2,3.3-7.7,7.4-7.7H326
		C330.1,247.5,333.4,250.9,333.4,255.2L333.4,255.2z"/>
	<path class="st2" d="M333.4,284.8c0,4.2-3.3,7.6-7.4,7.6H174.9c-4.1,0-7.4-3.4-7.4-7.6l0,0c0-4.2,3.3-7.6,7.4-7.6H326
		C330.1,277.1,333.4,280.6,333.4,284.8L333.4,284.8z"/>
	<path class="st2" d="M333.4,313c0,4.2-3.3,7.7-7.4,7.7H174.9c-4.1,0-7.4-3.4-7.4-7.7l0,0c0-4.2,3.3-7.6,7.4-7.6H326
		C330.1,305.4,333.4,308.8,333.4,313L333.4,313z"/>
	<path class="st2" d="M333.4,338.4c0,4.2-3.3,7.7-7.4,7.7H174.9c-4.1,0-7.4-3.4-7.4-7.7l0,0c0-4.2,3.3-7.6,7.4-7.6H326
		C330.1,330.7,333.4,334.1,333.4,338.4L333.4,338.4z"/>
	<polygon class="st3" points="395,191.5 320.2,165.2 380.4,113.5 	"/>
	<g class="st4">
		<g>
			<g>
				<path class="st5" d="M241.5,239.2c-2.3,0-4.4-1.1-5.8-2.9l-18.8-24.8c-2.4-3.2-1.8-7.8,1.4-10.3c3.2-2.4,7.8-1.8,10.3,1.4
					l12.3,16.3l31-49.8c2.1-3.4,6.6-4.5,10.1-2.3c3.4,2.1,4.5,6.6,2.3,10.1l-36.7,58.9c-1.3,2-3.5,3.3-5.9,3.4
					C241.7,239.2,241.6,239.2,241.5,239.2z"/>
			</g>
		</g>
	</g>
</g>
<g id="Layer_2_2_" class="st0">
	<rect x="121" y="171.5" class="st6" width="298" height="251"/>
	<text transform="matrix(1 0 0 1 121 348.9979)" class="st7 st8 st9">24</text>
	<circle class="st10" cx="138.3" cy="91.8" r="17.3"/>
	<circle class="st10" cx="185.3" cy="91.8" r="17.3"/>
	<circle class="st10" cx="232.3" cy="91.8" r="17.3"/>
	<circle class="st10" cx="278.3" cy="91.8" r="17.3"/>
	<circle class="st10" cx="323.3" cy="91.8" r="17.3"/>
	<circle class="st10" cx="368.3" cy="91.8" r="17.3"/>
</g>
<circle class="st11" cx="255.6" cy="260.3" r="244.6"/>
<radialGradient id="SVGID_1_" cx="254.4375" cy="249.35" r="244.6438" gradientUnits="userSpaceOnUse">
	<stop  offset="0" style="stop-color:#B07EB7"/>
	<stop  offset="0.5" style="stop-color:#8C3D96"/>
	<stop  offset="1" style="stop-color:#762A90"/>
</radialGradient>
<path class="st12" d="M498.8,249.3c0,2.9,0,5.9-0.2,8.8c-0.1,3.2-0.3,6.4-0.5,9.5c-0.2,3.5-0.6,7.1-1,10.6c-0.3,2.5-0.6,4.9-1,7.3
	c-0.5,3.2-1,6.3-1.6,9.4c-0.2,1.3-0.5,2.7-0.8,4c-0.1,0.4-0.1,0.8-0.2,1.1c0,0,0,0.1,0,0.2c-0.1,0.5-0.2,0.9-0.3,1.4
	c-0.8,3.5-1.6,6.9-2.5,10.4c-0.9,3.2-1.8,6.4-2.8,9.6c-0.7,2.6-1.6,5.2-2.5,7.8c-0.2,0.6-0.4,1.2-0.6,1.7c-2,5.7-4.2,11.2-6.7,16.8
	c-0.3,0.6-0.5,1.2-0.8,1.8c-0.3,0.8-0.7,1.7-1.1,2.5c-0.6,1.5-1.3,2.9-2,4.4c-0.7,1.3-1.4,2.7-2.1,4.1c0,0.1-0.1,0.2-0.1,0.3
	c-0.7,1.4-1.3,2.7-2.1,4c-0.1,0.1-0.1,0.2-0.2,0.3c-0.5,0.8-0.9,1.7-1.4,2.5c-0.1,0.2-0.1,0.3-0.2,0.4c-0.9,1.7-1.8,3.3-2.8,4.9
	c-0.4,0.7-0.8,1.3-1.2,2c-0.1,0.2-0.3,0.5-0.4,0.7c0,0-0.1,0.1-0.1,0.2c-0.9,1.5-1.8,3-2.8,4.5c-1.8,2.7-3.6,5.3-5.4,8
	c-0.2,0.4-0.5,0.8-0.7,1.1v0.1c-0.2,0.4-0.5,0.8-0.8,1.1c-0.9,1.3-1.9,2.6-2.8,3.9c-0.7,1-1.5,2.1-2.3,3.1c0,0.1-0.1,0.1-0.1,0.2
	c-1.8,2.4-3.7,4.8-5.6,7.1c-3.1,3.6-6.1,7.2-9.4,10.7c-0.6,0.7-1.2,1.3-1.8,2c-0.9,1-1.8,1.9-2.7,2.8c-2.1,2.1-4.1,4.1-6.2,6.1
	c-0.1,0.1-0.1,0.1-0.1,0.1l-0.1,0.1c-0.1,0.1-0.3,0.3-0.4,0.4c-0.2,0.2-0.4,0.4-0.7,0.6l-0.1,0.1c-0.1,0.1-0.2,0.2-0.3,0.3
	c-1.7,1.6-3.4,3.1-5.2,4.7c-0.4,0.4-0.8,0.8-1.2,1.1c-0.4,0.5-0.9,0.9-1.4,1.3l-0.1,0.1c-0.1,0.2-0.3,0.3-0.5,0.5
	c-2.8,2.3-5.6,4.6-8.5,6.9c-1.4,1.1-2.8,2.2-4.3,3.3c-1,0.7-2,1.4-3,2.1c-1.4,1-2.8,1.9-4.1,2.9c0,0,0,0-0.1,0
	c-0.1,0.1-0.1,0.1-0.2,0.2c0,0-0.1,0.1-0.2,0.1c-1,0.6-1.9,1.3-2.9,1.9c-2,1.3-4,2.6-6,3.8c-1.3,0.7-2.5,1.5-3.7,2.2
	c-1.7,1-3.5,2-5.2,3c-3.1,1.8-6.4,3.5-9.6,5.2c-0.8,0.4-1.6,0.8-2.4,1.2c-7.8,3.9-15.9,7.4-24.3,10.4c-0.4,0.1-0.7,0.3-1.1,0.4
	c-1.1,0.4-2.2,0.8-3.2,1.1c-4,1.3-8.1,2.6-12.2,3.8c-3.2,0.9-6.3,1.7-9.5,2.5c-18.7,4.5-38.1,6.9-58.1,6.9H253c-7-0.1-14-0.4-20.8-1
	c-5.9-0.5-11.6-1.2-17.3-2.2c-5.7-0.9-11.4-2-17-3.3c-0.5-0.1-1.1-0.3-1.6-0.4c-3-0.8-6-1.5-9-2.4c-7.7-2.2-15.3-4.8-22.7-7.7
	c-5.2-2-10.3-4.3-15.3-6.7c-0.1,0-0.2-0.1-0.3-0.1c-0.6-0.3-1.3-0.6-1.9-1c-1.7-0.8-3.4-1.7-5.1-2.6c-1.7-0.9-3.3-1.7-5-2.7
	c-2.5-1.3-5-2.7-7.4-4.2c-0.1,0-0.1-0.1-0.2-0.1c-1.4-0.8-2.8-1.6-4.2-2.5c0-0.1-0.1-0.2-0.2-0.2c-1-0.6-1.9-1.2-2.8-1.8
	c-1.3-0.9-2.6-1.7-3.9-2.6c0,0,0,0-0.1,0c-2.5-1.7-4.9-3.4-7.3-5.1c-1.2-0.9-2.3-1.7-3.5-2.6c-2-1.5-3.9-3-5.9-4.6
	c-1.1-0.9-2.3-1.9-3.4-2.8c-1.1-0.9-2.2-1.9-3.3-2.8c-2.1-1.8-4.1-3.6-6.2-5.5l-0.1-0.1c0,0,0,0-0.1,0c-0.1-0.1-0.2-0.2-0.3-0.2
	l-0.2-0.2c-2.1-1.9-4.2-3.9-6.2-5.9c-4.9-4.9-9.6-9.9-14-15.2c-2.5-3-5-6-7.4-9.1l-0.6-0.7c-1.1-1.4-2.1-2.8-3.1-4.2
	c-3-4.1-5.9-8.3-8.6-12.6c-1-1.6-2-3.2-3-4.9c-0.8-1.4-1.6-2.7-2.4-4.1c-0.3-0.5-0.5-0.9-0.8-1.4c-0.5-0.8-0.9-1.5-1.3-2.3v-0.1
	h-0.1c-1.5-2.7-3-5.5-4.4-8.2c-4.1-8.8-8.1-17.8-11.4-27c0,0,0-0.1-0.1-0.1c-2.3-6.5-4.4-13-6.2-19.7c-1.6-6.1-3-12.3-4.2-18.7
	c-1.7-9.3-3-18.8-3.6-28.4c-0.2-2.7-0.3-5.3-0.4-8c-0.1-2.9-0.2-5.8-0.2-8.8c0-3.2,0.1-6.4,0.2-9.5c0.7-18.8,3.6-37.1,8.3-54.6
	c0.6-2.1,1.2-4.2,1.8-6.2c1.6-5.4,3.4-10.7,5.4-16c0.9-2.4,1.8-4.8,2.8-7.1c0.9-2.2,1.9-4.4,2.8-6.5c1.4-3.2,3-6.4,4.6-9.6
	c0.2-0.3,0.4-0.7,0.6-1.1c0.8-1.3,1.6-2.7,2.2-4.2c0.4-0.8,0.8-1.7,1.3-2.5c0.3-0.5,0.5-0.9,0.8-1.4c2.4-4.2,4.9-8.4,7.5-12.5
	c3.7-5.8,7.7-11.5,11.9-17c0.1-0.1,0.3-0.3,0.4-0.5c5.7-7.5,11.9-14.6,18.4-21.3c1.7-1.8,3.3-3.5,5-5.2c0.3-0.3,0.5-0.5,0.8-0.7
	c2.5-2.4,5-4.7,7.6-7c3.5-3,6.9-6,10.5-8.8c0.3-0.2,0.5-0.4,0.8-0.6c1.4-1.1,2.8-2.1,4.2-3.2c0.9-0.6,1.7-1.3,2.6-1.9
	c1.2-0.9,2.4-1.8,3.7-2.7c0.4-0.3,0.8-0.6,1.3-0.9s1-0.7,1.5-1c0.1,0,0.2-0.1,0.2-0.1c1.8-1.3,3.7-2.5,5.5-3.7
	c1.1-0.7,2.1-1.3,3.2-2c2.2-1.4,4.4-2.7,6.6-4c1.6-1,3.2-1.9,4.9-2.8c0.5-0.3,0.9-0.5,1.3-0.7c2-1.1,3.9-2.1,5.9-3.1
	c3.6-1.8,7.2-3.5,10.8-5.1c0.9-0.4,1.7-0.7,2.6-1.1c8.3-3.6,16.8-6.8,25.6-9.4c3.8-1.1,7.7-2.2,11.6-3.2c0.5-0.2,1-0.3,1.5-0.4
	c0.7-0.2,1.4-0.3,2.1-0.5c6.9-1.7,13.9-3,21.1-4c0.3,0,0.7-0.1,1-0.1c4.7-0.6,9.4-1.2,14.1-1.5c3.2-0.3,6.3-0.5,9.5-0.6
	c0.6-0.1,1.3-0.1,1.9-0.1c2.8-0.1,5.6-0.1,8.4-0.1h0.4c2.8,0,5.5,0,8.2,0.1c0.6,0.1,1.2,0.1,1.8,0.1c0,0,0.1,0,0.2,0
	c3.1,0.1,6.3,0.3,9.4,0.6c1.8,0.1,3.7,0.3,5.6,0.5c11.1,1.1,21.9,3,32.5,5.7c0.5,0.1,1.1,0.3,1.6,0.4c13.7,3.4,27,8,39.8,13.7
	c1.8,0.8,3.7,1.6,5.5,2.5c5.1,2.5,10.2,5.1,15.1,7.9c2.9,1.6,5.8,3.3,8.7,5.1c1.7,1.1,3.4,2.1,5,3.2c0.4,0.2,0.7,0.4,1.1,0.7
	c1.5,0.9,3,1.9,4.4,2.9c0.4,0.3,0.9,0.6,1.3,0.9c1.2,0.8,2.3,1.6,3.4,2.4c1.7,1.3,3.5,2.6,5.2,3.9c0.2,0.1,0.3,0.3,0.5,0.4
	c1.9,1.4,3.7,2.9,5.5,4.4c2.3,1.9,4.7,3.9,6.9,5.9c4,3.5,7.8,7.2,11.6,11c1.6,1.7,3.2,3.3,4.8,5c1.3,1.4,2.6,2.8,3.9,4.3
	c1.4,1.5,2.8,3.2,4.2,4.8c1.3,1.6,2.6,3.1,3.9,4.7c1.4,1.7,2.7,3.4,4,5.1c0.8,1,1.5,2,2.3,3c2.2,3,4.3,6,6.3,9
	c0.8,1.2,1.6,2.4,2.4,3.6c1.3,1.9,2.5,3.9,3.7,5.9c0.6,1,1.2,1.9,1.7,2.9c1,1.7,2,3.4,2.9,5.1c0.1,0.1,0.2,0.2,0.2,0.3
	c0.1,0,0.1,0.1,0.1,0.1c1.9,3.4,3.7,6.8,5.4,10.3c2.3,4.7,4.4,9.5,6.4,14.3c0.4,1,0.8,2,1.2,3c0.6,1.5,1.2,3.1,1.8,4.6
	c0.2,0.5,0.3,1,0.5,1.5c2,5.3,3.7,10.7,5.3,16.1c0.9,3.3,1.8,6.6,2.6,9.9c0,0,0,0,0,0.1c0.6,2.2,1.1,4.4,1.6,6.7
	c0.2,1.1,0.5,2.2,0.7,3.3c1,4.8,1.8,9.7,2.5,14.6c0.2,0.9,0.3,1.9,0.4,2.8c0.5,3.4,0.8,6.9,1.1,10.4c0,0.1,0,0.1,0,0.2
	c0.3,3.6,0.6,7.2,0.7,10.8v0.1C499.1,242.9,499.2,246.1,498.8,249.3z"/>
<rect x="87.6" y="252.2" class="st13" width="480.5" height="288"/>
<g>
	<g>
		<g>
			<g>
				<g>
					<path class="st14" d="M514.9,166.4c0.7-0.7-0.1-0.8,0-1C513.7,166.6,514.9,166.5,514.9,166.4z"/>
					<polygon class="st14" points="504.9,178.7 504.9,178.3 503.7,180.5 					"/>
					<path class="st14" d="M494.7,189.3c1.8-0.2,3.7-3.8,5.8-5.5l0.5-0.1l0.2-1.5C499,184.6,496.5,187.9,494.7,189.3z"/>
					<path class="st14" d="M487.5,193.2c0.7,0-1,1.5,1.3-1.2c-0.1,0.1-0.3,0.1-0.3,0.1C488.3,192.3,487.9,192.7,487.5,193.2z"/>
					<path class="st14" d="M488.5,192.2C489.5,191,487.6,192.7,488.5,192.2L488.5,192.2z"/>
					<path class="st14" d="M483.6,197.3l1.2-1.8c-0.5,0.1-1.8,1.4-1.5,0.7C482.1,198.1,482.5,197.9,483.6,197.3z"/>
					<path class="st14" d="M482.8,199.3l0.6-0.8C483.3,198.5,483,198.6,482.8,199.3z"/>
					<path class="st14" d="M484.8,196.6l-1.3,1.8c0.3-0.1,0.6,0.2,0.6-0.8C484.3,198,484.4,197.5,484.8,196.6z"/>
					<path class="st14" d="M485.8,195.9c0.9-0.6,2.2-1.6,0.9,0.1C489.5,193.1,488.4,193,485.8,195.9z"/>
					<path class="st14" d="M495,190.7l1.3-0.8l0.6-1.2C496.6,189.2,494.6,190.5,495,190.7z"/>
					<path class="st14" d="M474.1,206c0.1,0.3,0.8-0.1,1.2,0.1l0.9-1.3C475.6,205.1,474.5,206,474.1,206z"/>
					<path class="st14" d="M475.4,206.1l-1.3,1.8C475.6,206.5,475.7,206.1,475.4,206.1z"/>
					<polygon class="st14" points="483.4,200.5 485.5,197.3 482.9,200.9 					"/>
					<polygon class="st14" points="467.9,211.9 468.5,210.6 467.4,212.8 					"/>
					<path class="st14" d="M463.9,215.8c0.4-1-1.4,0.3-1-0.6c-1,1.2-1.8,2.4-2.3,3.4C461.4,217.7,462.3,216.8,463.9,215.8z"/>
					<path class="st14" d="M459.4,220.4c0.4-0.5,0.7-1,1.1-1.7C460.2,219.2,459.8,219.9,459.4,220.4z"/>
					<path class="st14" d="M471.2,210.5c-0.2-0.1-0.7,0-1.7,0.7l1.1-0.2C470.8,210.8,471,210.6,471.2,210.5z"/>
					<path class="st14" d="M470.5,211L470.5,211c-0.7,0.7-1.2,1.1-1.4,1.4C469.4,212.2,469.7,211.9,470.5,211z"/>
					<path class="st14" d="M471.4,210.2c-0.1,0.1-0.1,0.1-0.1,0.1C471.3,210.4,471.4,210.4,471.4,210.2z"/>
					<path class="st14" d="M478.8,204.2c-0.6,1.2-2.3,3.4-0.1,1.9C479.1,205.2,477.8,206,478.8,204.2z"/>
					<path class="st14" d="M472.7,210.1l1.8-1.6c-0.2-0.1-0.7,0-0.3-0.6L472.7,210.1z"/>
					<polygon class="st14" points="472.1,211.1 472.7,210.1 472.1,210.7 					"/>
					<path class="st14" d="M462.9,218c-0.6,1-1.4,1.7-2.2,2.6c1.1-0.9,2.1-1.7,3.2-2.7C463.7,217.6,463.8,217.1,462.9,218z"/>
					<path class="st14" d="M466.6,214.7c0,0-0.1,0.1-0.1,0.2C466.7,214.9,466.7,214.9,466.6,214.7z"/>
					<path class="st14" d="M451.3,229.3l0.1-0.1l-0.1-0.1L451.3,229.3z"/>
					<path class="st14" d="M464,217.9c0.9-0.6,1.1-1.2,1.4-1.7c-0.6,0.6-1.1,1.2-1.7,1.8C463.8,218.1,463.8,218.1,464,217.9z"/>
					<path class="st14" d="M457.1,223.1c0.6-0.3,1.1-0.7,1.6-0.9C458.1,222.4,457.1,222.9,457.1,223.1z"/>
					<path class="st14" d="M466.1,215C466.2,214.9,466.2,214.9,466.1,215C465.9,215.1,465.9,215.1,466.1,215z"/>
					<path class="st14" d="M466.1,215c-0.3,0.5-0.4,0.9-0.8,1.2c0.4-0.5,0.8-0.9,1.1-1.4C466.4,215,466.2,214.9,466.1,215z"/>
					<path class="st14" d="M451.4,235.1c-0.3-0.6,1.4-2.9,3.5-3.9c1.3-1.8-1.1-2.4-3.3-1.9c0.1,0.3,0.3,0.4-1.1,2.3
						c0.8-0.4,4.4-3,3.4-1.3c-2.1,2.4-2,1.6-3.4,2.3c1.4-0.3-2.3,3.5-0.9,3.9l1.7-2.2C451.4,234.6,450.7,235.4,451.4,235.1z"/>
					<path class="st14" d="M454.9,226.2l0.7-0.7c-0.9,0.6-1.6,0.9-3,1.6c-0.9,1.3-1.1,1.7-1,1.9l3.6-3.3L454.9,226.2z"/>
					<path class="st14" d="M458.9,222.6c0,1-1.6,2.8-0.1,2.3c2.1-2,1.1-1.7,2.1-3.1C457.7,225,461.5,220.6,458.9,222.6
						c0.7-0.7,1.3-1.3,1.8-1.7c-0.6,0.5-1.3,0.9-1.9,1.4c0,0,0,0,0.1-0.1l0,0l0,0c0.1-0.1,0.3-0.1,0,0c0,0,0,0-0.1,0.1
						C458.7,222.3,458.8,222.4,458.9,222.6c-1.1,0.9-0.3,0,0-0.3c0,0,0,0-0.1-0.1l0,0l-3.2,3.4C456.4,224.9,457.2,224.1,458.9,222.6
						z"/>
					<path class="st14" d="M477.9,208.8c-0.1,0.1-0.1,0.1-0.2-0.1C477.6,209.1,477.5,209.4,477.9,208.8z"/>
					<path class="st14" d="M476.2,210c0.2-0.3,0.2-0.6,1.1-1.4c0.8-0.5,0.3,0.2,0.3,0.4c0.4-0.5,1.3-2-0.3-0.7l-0.2,0.3
						c-1.5,1.1-3.8,2.2-3.6,1.9C474.4,210.3,475,210.4,476.2,210z"/>
					<path class="st14" d="M467.7,216.5l-2.5,2.9l1.8-0.9l-0.3-0.2C468.2,216.9,467.5,216.9,467.7,216.5z"/>
					<polygon class="st14" points="450.8,229.4 450.7,228.5 449.7,230.7 					"/>
					<polygon class="st14" points="447.1,232.8 446.8,232.3 446.2,233.4 					"/>
					<path class="st14" d="M222,403.8l-0.8,0.7C221.6,404.2,221.9,403.8,222,403.8z"/>
					<path class="st14" d="M229.2,399.7l0-0.3C229.1,399.7,228.9,399.8,229.2,399.7z"/>
					<path class="st14" d="M352.5,311c-1.7,0.5-3.7,0.9-3.1,1.3l0.8,0.3C351,311.8,351.8,311.3,352.5,311z"/>
					<path class="st14" d="M285.3,362c0.1-0.1,0.3,0,0.5-0.1c0.1-0.4,0.5-0.8,0.6-1.2C286,361.1,285.6,361.5,285.3,362z"/>
					<path class="st14" d="M285.7,365.1l-2,0.8C284.1,365.7,284.8,365.3,285.7,365.1z"/>
					<path class="st14" d="M182.7,425.7l-0.9,1.3C183.7,426.1,182.7,426.1,182.7,425.7z"/>
					<path class="st14" d="M408.9,266.8c-1.2,0.7-2.2,1.4-3,2C407.4,268,408.9,267.5,408.9,266.8z"/>
					<path class="st14" d="M221.4,396c-0.5,0.4-0.7,0.7-0.6,0.8C221.3,396.4,221.6,396.1,221.4,396z"/>
					<path class="st14" d="M402.6,271.3c0.3-0.1,0.4-0.2,0.7-0.3c0.7-0.7,1.5-1.6,2.5-2.2C404.7,269.3,403.4,270.1,402.6,271.3z"/>
					<path class="st14" d="M41.6,416.4c-0.1-0.1,0-0.3,0-0.3C41.5,415.9,41.4,416.1,41.6,416.4z"/>
					<path class="st14" d="M432,246.1C432.8,245.3,432,245.9,432,246.1L432,246.1z"/>
					<path class="st14" d="M437.6,244.6c-0.1,0.2-0.1,0.4-0.1,0.6C437.5,245,437.5,244.8,437.6,244.6z"/>
					<path class="st14" d="M397.1,281.3L397.1,281.3C397.4,281.4,397.4,281.2,397.1,281.3z"/>
					<path class="st14" d="M433.4,245.2c-0.4,0.2-0.8,0.5-1.2,0.7C432.4,245.9,432.8,245.7,433.4,245.2z"/>
					<path class="st14" d="M433,245.1c0.3-0.1,0.5-0.4,0.8-0.5C433.7,244.4,433.7,244.4,433,245.1z"/>
					<path class="st14" d="M430.9,247.1c0.5-0.4,0.8-0.7,1.3-1.2c-0.1,0.1-0.3,0.1-0.3,0.1C431.7,246.2,431.5,246.5,430.9,247.1z"/>
					<path class="st14" d="M111.2,451.7c0,0-0.1,0.1-0.2-0.1C109.9,452.1,110.4,452.1,111.2,451.7z"/>
					<path class="st14" d="M334.1,333C334.1,333,334.3,332.9,334.1,333C334.2,332.8,334.1,332.8,334.1,333L334.1,333z"/>
					<path class="st14" d="M331.2,335.6c0.9-1.6,1.6-2,2.8-2.7l-2.1-0.9L331.2,335.6z"/>
					<path class="st14" d="M239.2,394l-2.3,1.6c2.1,0.2,3.8-1.3,6.8-2.2c-0.7,0-4.4,1-4.5,0.3c-0.2,0.2-0.4,0.4-0.7,0.6
						C238.8,394.2,239,394.1,239.2,394z"/>
					<path class="st14" d="M445.6,234.7c-1.6,0.2-0.4,0.5-2.7,1.1c2.3-0.2-5.7,5-2.5,4.1c-2.5,0.5-3.2,2-6,3.2
						c0.3,0.2,1.1-0.2-0.8,1.2c-0.1,0.2-0.1,0.4-0.2,0.6c0.6-0.3,1-0.5,1.3-0.5c-0.4,1.4-3.4,4-4.3,5.1c-1.1,0.9,0.2-0.6-0.5-0.4
						l-1.1,1.7c-0.5-0.4-3.6,1.7-1.3-0.9l-2.3,2c-1.6,0.9-3.6,2.4-4.6,3.6c-1.1,0.9-2.3,3-1.8,1.7l-3.5,3.5l-0.2-0.1
						c-3.7,3.1-6.8,7.4-12,9.8c-1.1,1.2-2.3,2.5-4.4,4l-0.8-0.2c-1.5,1.6-5.2,3.5-5.6,4.6c-2.7,0.1-8.1,6-11.2,8.1l0.3,0.7
						c-2,1.5-3.8,3.2-6,5.4l0.5,0.4c-1.8,2.1-5.9,3.9-9.3,6.5c0-0.3,0.9-1,1.8-1.4c-5,1.9-7.9,7.6-12.4,9.4
						c-0.8,0.9-1.5,1.2-2.3,1.6c0.1-0.1,0.1-0.1,0.2-0.3c-0.1,0.1-0.3,0.1-0.4,0.3c-0.4,0.2-1,0.5-1.5,0.7c0.4-0.2,0.9-0.3,1.3-0.5
						c-0.8,0.5-1.8,1.4-2.7,2.3l-0.8-0.3c-0.1,0.1-0.1,0.1-0.2,0.3c-1.3,0.6-0.6,1,0.3,0.9c-0.4,0.5-0.9,1-1.2,1.4
						c-1.5-0.3-2.6,2.5-4.5,2.1c-0.4,1-5.1,4.3-5,5.8c-0.1-0.1-0.5,0.1,0-0.3c-1.3,0.8-2.6,1.4-3.4,2.5l-1-0.4l-1.9,3
						c-1.9,0.7-2.9,0.9-1.6-0.9c-3.3,3.6-2.9,2.6-5.5,5.7l-0.1-0.6c-1.1,0.9-2.6,2.8-3.6,2.9c-1.7,0.5-4.9,2.7-8.7,5.2
						s-8.2,5.5-11.8,7.2c2.3,0.6-3.6,1.4-3.1,2.9c-0.6-0.1-1.7,0.3-0.8-0.6c-3.2,2.6-5.7,2.9-7.4,5.4c-0.6-0.1,0.4-1-0.1-1
						c-0.2,0.3-0.9,1-1.4,1c-0.5,0.1,0.4-0.7,0.8-1.2c-3.5,2.4-3.2,3.8-2.8,4.9c-2.1,0.7-3,1.3-3.9,2.9c-0.8,0.1-2.2,0.4,0-1.2
						c-1.3,0.8-8.1,4.4-7.7,5.2c-0.5,0.1-1.8,1-2.1,1.4c-2.9,1.8-3.2,1.9-6,3.6l0.8-0.4c-0.6,1.7-2.2,1.6-4.4,3.1l-0.1-0.1
						c-5.7,2.4-2.1,1.7-7.7,4l0.8,0.5c0.3,1.7-5.1,1.9-7.8,4.2l1.3-0.3c-1.3,1.5-5.8,0.9-7.5,1.7c-0.5,0.1,0.4-0.5,0.9-1
						c-4.8,1.8-0.1,1.2-3.2,3.3c-0.9-0.1,0.1-1.6-2.1-0.4c-1.3,0.3-5.4,5.2-9,6c0.8-0.1,1.7-0.1,0.3,1c-2.2,1.4-7,2.3-8.5,4.6
						c-0.3,0-0.5,0.1-0.6-0.1c-1.6,1.3-5.5,3.7-6.3,4.9c-2.9-1.4-10.5,7.2-11.5,5.1l-5.4,3.1l0-0.3c-3.6,1.7-4.6,2.9-5.6,4.1
						c-0.9,0.3-0.4-0.1-0.3-0.4c-5.4,2.3-5.8,2.6-9.7,5.9l-0.8-0.5c-1.1,1-8,2.6-12.8,6c0-0.1,0-0.2,0.2-0.4
						c-5.5,3.5-14.6,4.4-15.6,7.7l-3.7,2.3c5.1-1.9-0.3,1.5,2,0.9c-1.9,1.1-5.5,1.4-3.1,0.3l0.5-0.1c0.4-1.7-6.6,2.1-6.7,1.1
						c-9.9,4.1-20.2,6.7-29.8,9.1l1.4,0.9l-3.4,0.8c-0.9-0.1-1.4-0.5,1-1.2c-1.4-0.4-3.9,1.5-4,1.7c-4.9,0.6,1.6-1.6,0.2-1.5l-2,0.6
						l0.6,0.1c-1.5,0.7-1.6,1.3-4.5,1.8c-1.9,0-1.1-0.5-1.8-0.5c-0.1-0.1-0.2-0.1-1.1,0.2c-1.5,0.2-2.9,0.4-4.2,0.5
						c0.6,0.2,1.2,0.4,1.9,0.7c-1.9,0.7-4.1,0.4-2,1.3c-1.5-0.7-5.7-0.4-9.5-0.4c-4,0-7.6-0.3-8.4-0.8c-2.6,0.2-5.3-0.4-8.3-1.5
						c0.7,0.4,0.8,1.7-1.9,0.4c0.8-0.7-0.2-1.5-1.6-2.3c-0.7-0.4-1.5-1-2.1-1.6c-0.6-0.6-1.1-1.2-1.4-1.8c0.5,1-1.1-0.2-2.5-1.2
						s-2.5-2.3-2.1-0.7c-1.4-1.9,0.6-0.6-0.2-2.3c-1.9-1.8-3.3-4.4-4.4-7.4c-1.1-2.9-1.6-6.3-2.5-9.5c-0.2-0.1-0.5,1.1-1.2-0.3
						c0.2-1.3,0.5-2.5,0.8-3.8c-0.3-1.3-1.7-1.1-0.9-3.7c-0.1,0.4-0.6,1-0.7,0c0.3-6.9,0.4-13.8,1.2-20.9c0.4-3.9,1.1-7.9,2-11.7
						c-0.8-0.8-1.5-1.7-2-2.7c-0.8-0.7-1.4-1.6-1.9-2.6c-0.1,0.9-0.3,1.9-0.7,3.3l-0.1-0.3c-0.7,3.6-1.3,6.3-1.9,9
						c-0.6,2.7-1.3,5.6-1.8,9.8l0.8-0.5c-0.3,1.9-0.5,2.1-0.8,3c0.9,2.2,0.5-5.1,1.6-3c-0.9,1.1-1.2,4.3-1.3,7.3
						c-0.2,3.2-0.2,6.1-1,7c0.2,2.8,0.8-0.9,0.9,2l-0.5,0.8l0.7,0.7c0,1.9-0.5,2.8-0.8,3c-0.1-0.5-0.3-1.3-0.3-1.7
						c-0.4,2.4,1.1,6.9,1.1,7.7c-0.1-1-0.2-1.8-0.2-2.8c0.8,3.9,1.9,8.2,3.5,12.3c1.8,4.1,4.2,8,7.3,10.6l-0.1-0.6
						c1,1.1,2,1.6,2.5,2.3c0.6,0.6,1,1.1,1.6,1.5c1,0.9,1.9,1.8,4.7,3.4c0.6,0.2,1.3,0.3,2,0.6c0.8,0.3,1.7,0.6,2.3,0.9
						c-1.7-0.2,2.6,1.8,0.4,1.5c3.1,0.7,3.9,0.7,4.6,0.6c0.5-0.1,0.9-0.3,3-0.6l0.9,0.8c1.4-0.3,1.6-0.6,4.7-0.3
						c-2.6,0.2,1.9,1-1,1.5c3.2,1,5.8,0.7,7.8,0.4s3.5-0.5,5.1,0.3c1.5-0.9,0-1-1.5-1c-1.5,0-3.3,0.2-2.4,0
						c-1.4-0.5,2.3-1.3,4.4-1.2c2-0.1,3.8,1.8,8.9,0.9c-0.5,0.1-0.6,0.3-1,0.3c1.9,0.1,3.7-1.3,6.2-1.1c1.1-1.2,3-0.6,3.2-1.9
						c-1.5,0.4-3,0.9-4.5,1.3c2.5-0.9,4.7-2.8,9.1-3.2c-0.2,0.3-1.4,1-2.2,1.4c1.4,0,2.4-0.8,3.8-0.8c-0.1,1.2-5.5,1.8-8.1,3.2
						c1.5,0.3,5.2-2.1,4.1-0.4c1.6-2.1,5-1,8.1-3.2l0,0.7c0.6-0.3,1.5-0.9,2.5-1.2l-1.6,1.4c2.5-1.6,5.4-0.9,7.9-2.2
						c-5.5,1.8-1.4-0.5-3.9-0.2c6.3-3,4.5,0.4,11.3-2.2c-1.2,0.4-3.1,0.6-1.9-0.2c1.4-0.3,3.4-0.8,4.5-0.8c4.9-2-1-0.4,0.9-1.6
						c2,0.2,2.3-1.3,4.2-2.4l0.3,0.7c5.7-1.8,0.9-2,6-3.6l-1.7,1.8l2.5-1.3l-0.2,1c2.6-1.8,3.5-2,6.3-3c-0.8-0.3-0.2-1.5,2.3-2.5
						c1.7-0.3-0.7,1,2.6-0.6c-0.5,0.8-1.1,1.7-2.9,1.8c0,0.3-0.5,0.8-0.7,1c1.9-0.2,4.5-1.8,5.7-2.4c-0.4,0.2-1,0.3-1.3,0.5l4.5-3.2
						c0.8-0.1,0.3,0.4-0.1,0.9c1-0.5,1.5-1.2,2.9-1.9c-0.2,0.8,0.3,1.3-1.7,2.5l4.3-2.8c0.4,0.1,2.7-0.4,2.2,0
						c2.7-0.9,5.8-4.1,9.3-5.3c0.1-0.2,0.4-0.5,1.1-0.9c3.2-1.5,6.3-2.2,9.7-5l2.6-0.2c2.8-1.7-3.5,0.3,1.2-2.6
						c3.3-2.1,1.8,0.2,3-0.2c1.4-1.4,3.8-3.9,7.3-4.9c-1.6,0.9-2.5,1.2-3.4,1.8l2.7-0.8c-2.4,2.5-4.6,3.2-1.9,2.8
						c-0.7-2.1,9.2-5.3,8.4-7.3l1.8-0.5c-0.4,0.2-0.5,0.4-0.9,0.6c3.6-0.8,1.5-2.6,5.6-4.6c1.4-0.7,2.5-0.9,1.7-0.1l2.7-2.2
						c0.6-0.3,0.7-0.2,0.5,0l4-2.5c0.6-0.6,1.6-2,2.4-2.5c1.3-0.5-0.4,0.5-0.1,0.6l2.2-1.9c1.3-0.1-0.4,1.6-2.3,2.5
						c3,0.4,2.1-1.2,5.7-2.9c0.4-0.9,1-1,2-1.4c0.1-0.1,0.3-0.3,0.5-0.5c0.9-0.3,1.8-0.9,3.2-2c0.5,0.6,1.7-0.3,3.4-1.5l0.4,0.8
						c1.8-1.4,1.4-1.7,2.3-2.8c2.2-1.2,3.1-0.8,3.9-0.5c3.6-1.9-3.1,0.4,1-2.2c3.1-1.5,5-2.9,8-5.5c2.2-0.9,0,0.7,0.8,0.5l1.4-1.7
						c0.4-0.2,0.3,0,0.4,0.1c1.3-1.2-0.4-0.8,1.8-2.6c0-1.4,5.6-1.5,7.9-4.3c0.9-0.3,0,0.7,0.4,0.8c3.5-3.2,3-2.7,5.8-5.5l3.1-1.1
						c-2.4,0.7-0.3-1.7,1.7-3.7c-1,0.1-1.7,0.3-2.2,0.4l3.3-2.8c0.5-0.1,0.3,0.4,0,1c0.2-0.3,0.4-0.5,0.6-0.6c1.5-0.5,1,0.4,0.5,1.5
						c-0.5,0.1-1.1,0.2-1.6,0.2c-0.5,1.1-1,2.2-0.5,2.5c0.2-0.3,0.6-0.6,1.1-1c-0.2,0.3-0.3,0.5-0.1,0.6c0.2,0.1,0.5-0.4,0.9-1
						l1.4,0.4l-0.1-0.5l5-2.4c2.8-3.2,4.9-6.3,9.9-10.2c-0.8,1.6,0.5,1.3,0.9,2.2c-2,0.1-3.9,3.1-6.7,4.6c1.5-0.9,1.5-0.2,1.1,0.2
						c1.4-1.4,3-2.7,4.4-4c0.3,0.7,1.3-0.1,2.9-0.9c-1.9-0.7,3-3.3,4.8-5c0.3,0.4,0.2,1.1-2.3,2.7c3.4-0.8,2.5-3.8,5.6-4.8
						c-0.6,0.5-0.9,0.6-1.1,1c1.1-1.2,4.8-3.3,4.2-2.4l-0.6,0.5c3.9-2.6,11.9-8.1,11.7-9.6c0.1,0.1,0.5,1.7,0.3,2.1
						c1.4-2.7,2.9-5.7,4.4-8.5c0,1.4,4,1.9,1,4.7c1-0.5,2.2-1.2,3.9-2.9c-0.7,0.3-2.5-0.2-1.6-0.9c3.1-0.6,2-0.6,5.3-1.7
						c-0.9,0.2-0.7-1.9,0.6-2.8c-0.1,0.4,1.2,1.3,0.7,1.9l2.7-4c-0.8,0.9,0.7,1.4,1.8,1.2c-0.6-0.1,3.2-2.4,4-3.1l-1.8,0.9
						c4.3-2.9,2.6-5,6.7-7.9c-0.2,0.6,0.1,2.7,2.3,1.3c0.4-1.4,1.7-6.5,4.7-9.8l1-0.1l2.4-2.5c-0.9,2.3-4,8.3-6,11.1
						c1.8-0.9,0.8,0.2,3-1.6c1.1-0.2-0.8,1.6-1.4,2.1l5.5-3.9c-0.8-0.6,3.5-3.9,2.6-4.5l-5.1,5.2c-0.8-0.6,1.6-4.9,5.5-7.6
						c1.2-0.4,0.5,2,0.7,2.2c0.2-0.6,3.1-3.2,3.7-3.3l-1.3,1.6c2.3-1.3,2.6-3.6,5.8-4.8c0.9-0.6,3.3-0.9,3.2-1.5
						c-2.2,0.2-4.7-2.6-4.3-4c0.4-0.2,5.2-2.7,6.5-2.9c2-0.5-0.8,3.5,1,3.1c-0.1-0.3,0.4-1.2,0.7-1.5c1.1-0.5,0.1,1,2.1-0.7
						c-0.3-1,4-3.1,0.4-1.4c1.8-1.7,2.2-1.4,4.4-3.3c-1.2,0,0.6-3.4,2.2-5.2c0.1,0.3,0.6,0.2,1,0.2c3.9-3.1,6.3-4.4,9.9-7.3
						c0.5-0.1,2.5-1.3,1.9-0.2c0.4-0.5,0.6-1.2,1.7-2.2c2.7-1.1-2.4,2.2-0.1,1.6c-0.3-0.6,2.3-3,3.6-4.7c-1-0.4-3.7,3-5.1,4.5
						c-0.8-1,1-4.3,4.3-7.9c2.8-2.7,1.8-0.5,2.2-1.1c5.7-4.6,3.2-5.8,8.4-9c2.3-0.9,1.2,1.1,2,1.3c-2.2,2.3-4,2.8-5.6,4.2l2.2-1.4
						c-0.6,0.8-2.1,2.4-3,3c2-0.8,9.5-7.8,14.1-11.1c0.6-1,1.7-2.2,0.8-1.9l-1.3,1.3c-1.6,0.6,1.9-3,0-1.7c1.5-1.9,2.9-4.3,5.7-6.1
						l1.2,0.3c-0.3-0.2-2.1,1-2.5,1.9c0.8-1.2,4.7-2.4,4.9-4.4l-2.2,1.1C441.8,239.3,443.2,236.6,445.6,234.7z M99.1,449l0.7,0
						C98.3,449.6,98.7,449.2,99.1,449z M288.8,361.2c0.5-0.4,1.3-0.8,2.2-1.2C290.6,360.5,289.9,360.8,288.8,361.2z"/>
					<path class="st14" d="M423.6,254.2L423.6,254.2C422.2,255.1,422.7,254.8,423.6,254.2z"/>
					<path class="st14" d="M285.6,364.6c-0.3,0-0.3,0-0.4-0.1C285,364.7,285.1,364.9,285.6,364.6z"/>
					<path class="st14" d="M182.9,425.4L182.9,425.4c-0.1,0.1-0.1,0.2-0.2,0.3L182.9,425.4z"/>
					<path class="st14" d="M387.7,292.7c-0.7,0.3-1.1,0.5-1.4,0.7C386.6,293.4,386.8,293.3,387.7,292.7z"/>
					<path class="st14" d="M440,238.5l-1.6,1.6c0.8-0.7,1.3-0.9,1.7-1.1C440,238.8,439.4,238.9,440,238.5z"/>
					<path class="st14" d="M457.9,228.4c0.2-0.3,0.5-0.4,0.6-0.8l-0.3-0.2C457.2,228.4,456.6,229.3,457.9,228.4z"/>
					<path class="st14" d="M443.3,238.9c0.5,0.4,1.5-0.7,2.7-2c-0.1,0.1-0.1,0.1-0.2,0.3C445.5,236.2,444.4,237.6,443.3,238.9z"/>
					<path class="st14" d="M446.1,236.8c0.4-0.3,0.7-0.7,1.1-1C447.1,235.3,446.7,235.9,446.1,236.8z"/>
					<path class="st14" d="M429.8,248.7c0.7-0.3-0.1-1,0.4-1C430.2,246.6,426.8,251.8,429.8,248.7z"/>
					<polygon class="st14" points="445.5,239.6 444.6,239.4 444.4,240.5 					"/>
					<path class="st14" d="M435.6,247.6l2-1.5c-0.1-0.1,0-0.3,0.4-0.7C437,246.5,435.6,247.5,435.6,247.6z"/>
					<path class="st14" d="M438.2,245.4c0.6-0.5,1.2-1.1,1.5-1.6C439.2,244.3,438.6,244.8,438.2,245.4z"/>
					<polygon class="st14" points="443.1,242.1 442.4,242.5 441.1,243.6 					"/>
					<path class="st14" d="M414.7,265.7l-2,2c0,0.3,0.7,0,1.3-0.8C414.3,266.4,415.2,265.6,414.7,265.7z"/>
					<path class="st14" d="M422.5,261.8c-0.7,0.3-0.9,0.3-1.4,0.3l0.5,0.8L422.5,261.8z"/>
					<path class="st14" d="M416.3,267.3c0,0.3-2.6,3.3,0.1,0.8C416.5,267.7,418.5,265.8,416.3,267.3z"/>
					<polygon class="st14" points="382.7,293.2 383.3,292.8 382.2,291.6 					"/>
					<path class="st14" d="M355.2,319.1c2.9-1.8,0.1-1.2,2.8-2.7c0.5-0.8-2.2,1.2-1.7,0.5C354.8,318.3,353.8,318.7,355.2,319.1z"/>
					<path class="st14" d="M356.3,316.7c0.2-0.3,0.4-0.5,0.6-0.8C356.5,316.4,356.4,316.6,356.3,316.7z"/>
					<path class="st14" d="M245.8,392.1l0-0.3c-0.3,0-0.9,0.3-1.7,0.7L245.8,392.1z"/>
					<polygon class="st14" points="220.1,405.9 220.6,405.7 219.4,405.4 					"/>
					<path class="st14" d="M199.2,418.9c0.8-0.4,1.8-1.2,2.8-1.7C200.2,418.4,198.4,418,199.2,418.9z"/>
				</g>
			</g>
		</g>
	</g>
</g>
<g>
	<g>
		<g>
			<g>
				<g>
					<path class="st14" d="M501.1,137.7c0.7-0.7-0.1-0.8,0-1C500,137.9,501.2,137.8,501.1,137.7z"/>
					<polygon class="st14" points="491.3,150.2 491.2,149.7 490.1,151.9 					"/>
					<path class="st14" d="M481,160.6c1.8-0.2,3.7-3.8,5.8-5.5l0.5-0.1l0.2-1.5C485.3,155.9,482.7,159.2,481,160.6z"/>
					<path class="st14" d="M473.8,164.6c0.7,0-1,1.5,1.3-1.2c-0.1,0.1-0.3,0.1-0.3,0.1C474.5,163.7,474.2,164,473.8,164.6z"/>
					<path class="st14" d="M474.8,163.5C475.8,162.4,473.8,164,474.8,163.5L474.8,163.5z"/>
					<path class="st14" d="M469.9,168.6l1.2-1.8c-0.5,0.1-1.8,1.4-1.5,0.7C468.3,169.4,468.8,169.2,469.9,168.6z"/>
					<path class="st14" d="M469.1,170.7l0.6-0.8C469.6,169.8,469.3,170,469.1,170.7z"/>
					<path class="st14" d="M471.1,167.9l-1.3,1.8c0.3-0.1,0.6,0.2,0.6-0.8C470.6,169.4,470.6,168.8,471.1,167.9z"/>
					<path class="st14" d="M472.1,167.2c0.9-0.6,2.2-1.6,0.9,0.1C475.8,164.4,474.7,164.3,472.1,167.2z"/>
					<path class="st14" d="M481.3,162l1.3-0.8l0.6-1.2C482.8,160.5,480.9,161.8,481.3,162z"/>
					<path class="st14" d="M460.4,177.3c0.1,0.3,0.8-0.1,1.2,0.1l0.9-1.3C461.9,176.4,460.8,177.4,460.4,177.3z"/>
					<path class="st14" d="M461.7,177.4l-1.3,1.8C461.9,177.8,462,177.4,461.7,177.4z"/>
					<polygon class="st14" points="469.7,171.8 471.7,168.6 469.2,172.2 					"/>
					<polygon class="st14" points="454.2,183.2 454.7,181.9 453.7,184.1 					"/>
					<path class="st14" d="M450.2,187.2c0.4-1-1.4,0.3-1-0.6c-1,1.2-1.8,2.4-2.3,3.4C447.7,189.1,448.6,188.1,450.2,187.2z"/>
					<path class="st14" d="M445.7,191.7c0.4-0.5,0.7-1,1.1-1.7C446.5,190.6,446.1,191.2,445.7,191.7z"/>
					<path class="st14" d="M457.4,181.8c-0.2-0.1-0.7,0-1.7,0.7l1.1-0.2C457.1,182.2,457.3,181.9,457.4,181.8z"/>
					<path class="st14" d="M456.8,182.3L456.8,182.3c-0.7,0.7-1.2,1.1-1.4,1.4C455.7,183.5,456,183.2,456.8,182.3z"/>
					<path class="st14" d="M457.6,181.5c-0.1,0.1-0.1,0.1-0.1,0.1C457.6,181.7,457.7,181.7,457.6,181.5z"/>
					<path class="st14" d="M465.1,175.6c-0.6,1.2-2.3,3.4-0.1,1.9C465.4,176.5,464,177.3,465.1,175.6z"/>
					<path class="st14" d="M459,181.4l1.8-1.6c-0.2-0.1-0.7,0-0.3-0.6L459,181.4z"/>
					<polygon class="st14" points="458.4,182.4 459,181.4 458.4,182 					"/>
					<path class="st14" d="M449.2,189.4c-0.6,1-1.4,1.7-2.2,2.6c1.1-0.9,2.1-1.7,3.2-2.7C450.1,189.1,450.1,188.4,449.2,189.4z"/>
					<path class="st14" d="M452.9,186c0,0-0.1,0.1-0.1,0.2C453,186.2,453,186.2,452.9,186z"/>
					<path class="st14" d="M437.5,200.6l0.1-0.1l-0.1-0.1L437.5,200.6z"/>
					<path class="st14" d="M450.3,189.2c0.9-0.6,1.1-1.2,1.4-1.7c-0.6,0.6-1.1,1.2-1.7,1.8C450.1,189.5,450.1,189.5,450.3,189.2z"/>
					<path class="st14" d="M443.3,194.4c0.6-0.3,1.1-0.7,1.6-0.9C444.4,193.7,443.4,194.2,443.3,194.4z"/>
					<path class="st14" d="M452.4,186.3C452.5,186.2,452.5,186.2,452.4,186.3C452.2,186.4,452.2,186.4,452.4,186.3z"/>
					<path class="st14" d="M452.4,186.3c-0.3,0.5-0.4,0.9-0.8,1.2c0.4-0.5,0.8-0.9,1.1-1.4C452.7,186.3,452.5,186.2,452.4,186.3z"/>
					<path class="st14" d="M437.7,206.4c-0.3-0.6,1.4-2.9,3.5-3.9c1.3-1.8-1.1-2.4-3.3-1.9c0.1,0.3,0.3,0.4-1.1,2.3
						c0.8-0.4,4.4-3,3.4-1.3c-2.1,2.4-2,1.6-3.4,2.3c1.4-0.3-2.3,3.5-0.9,3.9l1.7-2.2C437.7,205.9,437,206.7,437.7,206.4z"/>
					<path class="st14" d="M441.2,197.5l0.7-0.7c-0.9,0.6-1.6,0.9-3,1.6c-0.9,1.3-1.1,1.7-1,1.9l3.6-3.3L441.2,197.5z"/>
					<path class="st14" d="M445.2,193.9c0,1-1.6,2.8-0.1,2.3c2.1-2,1.1-1.7,2.1-3.1C443.9,196.4,447.8,191.9,445.2,193.9
						c0.7-0.7,1.3-1.3,1.8-1.7c-0.6,0.5-1.3,0.9-1.9,1.4c0,0,0,0,0.1-0.1l0,0l0,0c0.1-0.1,0.3-0.1,0,0c0,0,0,0-0.1,0.1
						C445,193.6,445.1,193.7,445.2,193.9c-1.1,0.9-0.3,0,0-0.3c0,0,0,0-0.1-0.1l0,0l-3.2,3.4C442.7,196.3,443.5,195.4,445.2,193.9z"
						/>
					<path class="st14" d="M464.3,180.3c-0.1,0.1-0.1,0.1-0.2-0.1C463.8,180.5,463.8,180.7,464.3,180.3z"/>
					<path class="st14" d="M462.5,181.3c0.2-0.3,0.2-0.6,1.1-1.4c0.8-0.5,0.3,0.2,0.3,0.4c0.4-0.5,1.3-2-0.3-0.7l-0.2,0.3
						c-1.5,1.1-3.8,2.2-3.6,1.9C460.6,181.7,461.3,181.7,462.5,181.3z"/>
					<path class="st14" d="M453.9,187.8l-2.5,2.9l1.8-0.9l-0.3-0.2C454.5,188.2,453.8,188.2,453.9,187.8z"/>
					<polygon class="st14" points="437.1,200.7 437,199.8 436,202 					"/>
					<polygon class="st14" points="433.4,204.1 433.1,203.6 432.5,204.8 					"/>
					<path class="st14" d="M208.3,375.1l-0.8,0.7C207.8,375.5,208.2,375.2,208.3,375.1z"/>
					<path class="st14" d="M215.5,371l0-0.3C215.3,371.1,215.2,371.1,215.5,371z"/>
					<path class="st14" d="M338.7,282.3c-1.7,0.5-3.7,0.9-3.1,1.3l0.8,0.3C337.3,283.1,338,282.6,338.7,282.3z"/>
					<path class="st14" d="M271.5,333.3c0.1-0.1,0.3,0,0.5-0.1c0.1-0.4,0.5-0.8,0.6-1.2C272.3,332.4,271.8,332.9,271.5,333.3z"/>
					<path class="st14" d="M272,336.4l-2,0.8C270.4,337,271.1,336.7,272,336.4z"/>
					<path class="st14" d="M169,397l-0.9,1.3C170,397.4,169,397.5,169,397z"/>
					<path class="st14" d="M395.1,238.1c-1.2,0.7-2.2,1.4-3,2C393.7,239.3,395.1,238.8,395.1,238.1z"/>
					<path class="st14" d="M207.7,367.3c-0.5,0.4-0.7,0.7-0.6,0.8C207.6,367.7,207.9,367.4,207.7,367.3z"/>
					<path class="st14" d="M388.9,242.6c0.3-0.1,0.4-0.2,0.7-0.3c0.7-0.7,1.5-1.6,2.5-2.2C391,240.6,389.7,241.4,388.9,242.6z"/>
					<path class="st14" d="M27.8,387.7c-0.1-0.1,0-0.3,0-0.3C27.8,387.2,27.7,387.4,27.8,387.7z"/>
					<path class="st14" d="M418.3,217.4C419.1,216.7,418.3,217.2,418.3,217.4L418.3,217.4z"/>
					<path class="st14" d="M423.9,215.9c-0.1,0.2-0.1,0.4-0.1,0.6C423.8,216.3,423.8,216.1,423.9,215.9z"/>
					<path class="st14" d="M383.4,252.7L383.4,252.7C383.7,252.7,383.7,252.7,383.4,252.7z"/>
					<path class="st14" d="M419.7,216.5c-0.4,0.2-0.8,0.5-1.2,0.7C418.7,217.2,419.1,217,419.7,216.5z"/>
					<path class="st14" d="M419.3,216.4c0.3-0.1,0.5-0.4,0.8-0.5C420,215.7,420,215.7,419.3,216.4z"/>
					<path class="st14" d="M417.2,218.4c0.5-0.4,0.8-0.7,1.3-1.2c-0.1,0.1-0.3,0.1-0.3,0.1C418,217.5,417.8,217.8,417.2,218.4z"/>
					<path class="st14" d="M97.5,423c0,0-0.1,0.1-0.2-0.1C96.2,423.4,96.6,423.4,97.5,423z"/>
					<path class="st14" d="M320.4,304.3C320.4,304.3,320.5,304.2,320.4,304.3C320.5,304.1,320.3,304.1,320.4,304.3L320.4,304.3z"/>
					<path class="st14" d="M317.5,306.9c0.9-1.6,1.6-2,2.8-2.7l-2.1-0.9L317.5,306.9z"/>
					<path class="st14" d="M225.5,365.3l-2.3,1.6c2.1,0.2,3.8-1.3,6.8-2.2c-0.7,0-4.4,1-4.5,0.3c-0.2,0.2-0.4,0.4-0.7,0.6
						C225,365.5,225.3,365.4,225.5,365.3z"/>
					<path class="st14" d="M431.9,206.1c-1.6,0.2-0.4,0.5-2.7,1.1c2.3-0.2-5.7,5-2.5,4.1c-2.5,0.5-3.2,2-6,3.2
						c0.3,0.2,1.1-0.2-0.8,1.2c-0.1,0.2-0.1,0.4-0.2,0.6c0.6-0.3,1-0.5,1.3-0.5c-0.4,1.4-3.4,4-4.3,5.1c-1.1,0.9,0.2-0.6-0.5-0.4
						l-1.1,1.7c-0.5-0.4-3.6,1.7-1.3-0.9l-2.3,2c-1.6,0.9-3.6,2.4-4.6,3.6c-1.1,0.9-2.3,3-1.8,1.7l-3.5,3.5l-0.2-0.1
						c-3.7,3.1-6.8,7.4-12,9.8c-1.1,1.2-2.3,2.5-4.4,4l-0.8-0.2c-1.5,1.6-5.2,3.5-5.6,4.6c-2.7,0.1-8.1,6-11.2,8.1l0.3,0.7
						c-2,1.5-3.8,3.2-6,5.4l0.5,0.4c-1.8,2.1-5.9,3.9-9.3,6.5c0-0.3,0.9-1,1.8-1.4c-5,1.9-7.9,7.6-12.4,9.4
						c-0.8,0.9-1.5,1.2-2.3,1.6c0.1-0.1,0.1-0.1,0.2-0.3c-0.1,0.1-0.3,0.1-0.4,0.3c-0.4,0.2-1,0.5-1.5,0.7c0.4-0.2,0.9-0.3,1.3-0.5
						c-0.8,0.5-1.8,1.4-2.7,2.3l-0.8-0.3c-0.1,0.1-0.1,0.1-0.2,0.3c-1.3,0.6-0.6,1,0.3,0.9c-0.4,0.5-0.9,1-1.2,1.4
						c-1.5-0.3-2.6,2.5-4.5,2.1c-0.4,1-5.1,4.3-5,5.8c-0.1-0.1-0.5,0.1,0-0.3c-1.3,0.8-2.6,1.4-3.4,2.5l-1-0.4l-1.9,3
						c-1.9,0.7-2.9,0.9-1.6-0.9c-3.3,3.6-2.9,2.6-5.5,5.7l-0.1-0.6c-1.1,0.9-2.6,2.8-3.6,2.9c-1.7,0.5-4.9,2.7-8.7,5.2
						s-8.2,5.5-11.8,7.2c2.3,0.6-3.6,1.4-3.1,2.9c-0.6-0.1-1.7,0.3-0.8-0.6c-3.2,2.6-5.7,2.9-7.4,5.4c-0.6-0.1,0.4-1-0.1-1
						c-0.2,0.3-0.9,1-1.4,1c-0.5,0.1,0.4-0.7,0.8-1.2c-3.5,2.4-3.2,3.8-2.8,4.9c-2.1,0.7-3,1.3-3.9,2.9c-0.8,0.1-2.2,0.4,0-1.2
						c-1.3,0.8-8.1,4.4-7.7,5.2c-0.5,0.1-1.8,1-2.1,1.4c-2.9,1.8-3.2,1.9-6,3.6l0.8-0.4c-0.6,1.7-2.2,1.6-4.4,3.1l-0.1-0.1
						c-5.7,2.4-2.1,1.7-7.7,4l0.8,0.5c0.3,1.7-5.1,1.9-7.8,4.2l1.3-0.3c-1.3,1.5-5.8,0.9-7.5,1.7c-0.5,0.1,0.4-0.5,0.9-1
						c-4.8,1.8-0.1,1.2-3.2,3.3c-0.9-0.1,0.1-1.6-2.1-0.4c-1.3,0.3-5.4,5.2-9,6c0.8-0.1,1.7-0.1,0.3,1c-2.2,1.4-7,2.3-8.5,4.6
						c-0.3,0-0.5,0.1-0.6-0.1c-1.6,1.3-5.5,3.7-6.3,4.9c-2.9-1.4-10.5,7.2-11.5,5.1l-5.4,3.1l0-0.3c-3.6,1.7-4.6,2.9-5.6,4.1
						c-0.9,0.3-0.4-0.1-0.3-0.4c-5.4,2.3-5.8,2.6-9.7,5.9l-0.8-0.5c-1.1,1-8,2.6-12.8,6c0-0.1,0-0.2,0.2-0.4
						c-5.5,3.5-14.6,4.4-15.6,7.7l-3.7,2.3c5.1-1.9-0.3,1.5,2,0.9c-1.9,1.1-5.5,1.4-3.1,0.3l0.5-0.1c0.4-1.7-6.6,2.1-6.7,1.1
						c-9.9,4.1-20.2,6.7-29.8,9.1l1.4,0.9l-3.4,0.8c-0.9-0.1-1.4-0.5,1-1.2c-1.4-0.4-3.9,1.5-4,1.7c-4.9,0.6,1.6-1.6,0.2-1.5l-2,0.6
						l0.6,0.1c-1.5,0.7-1.6,1.3-4.5,1.8c-1.9,0-1.1-0.5-1.8-0.5c-0.1-0.1-0.2-0.1-1.1,0.2c-1.5,0.2-2.9,0.4-4.2,0.5
						c0.6,0.2,1.2,0.4,1.9,0.7c-1.9,0.7-4.1,0.4-2,1.3c-1.5-0.7-5.7-0.4-9.5-0.4c-4,0-7.6-0.3-8.4-0.8c-2.6,0.2-5.3-0.4-8.3-1.5
						c0.7,0.4,0.8,1.7-1.9,0.4c0.8-0.7-0.2-1.5-1.6-2.3c-0.7-0.4-1.5-1-2.1-1.6s-1.1-1.2-1.4-1.8c0.5,1-1.1-0.2-2.5-1.2
						s-2.5-2.3-2.1-0.7c-1.4-1.9,0.6-0.6-0.2-2.3c-1.9-1.8-3.3-4.4-4.4-7.4c-1.1-2.9-1.6-6.3-2.5-9.5c-0.2-0.1-0.5,1.1-1.2-0.3
						c0.2-1.3,0.5-2.5,0.8-3.8c-0.3-1.3-1.7-1.1-0.9-3.7c-0.1,0.4-0.6,1-0.7,0c0.3-6.9,0.4-13.8,1.2-20.9c0.3-2.7,0.7-5.3,1.2-7.9
						c-1.4-2.1-2.6-4.3-3.5-6.7c-0.1,0.3-0.1,0.5-0.2,0.8l-0.1-0.3c-0.7,3.6-1.3,6.3-1.9,9c-0.6,2.7-1.3,5.6-1.8,9.8l0.8-0.5
						c-0.3,1.9-0.5,2.1-0.8,3c0.9,2.2,0.5-5.1,1.6-3c-0.9,1.1-1.2,4.3-1.3,7.3c-0.2,3.2-0.2,6.1-1,7c0.2,2.8,0.8-0.9,0.9,2l-0.5,0.8
						l0.7,0.7c0,1.9-0.5,2.8-0.8,3c-0.1-0.5-0.3-1.3-0.3-1.7c-0.4,2.4,1.1,6.9,1.1,7.7c-0.1-1-0.2-1.8-0.2-2.8
						c0.8,3.9,1.9,8.2,3.5,12.3c1.8,4.1,4.2,8,7.3,10.6l-0.1-0.6c1,1.1,2,1.6,2.5,2.3c0.6,0.6,1,1.1,1.6,1.5
						c0.9,0.9,1.9,1.8,4.7,3.4c0.6,0.2,1.3,0.3,2,0.6c0.8,0.3,1.7,0.6,2.3,0.9c-1.7-0.2,2.6,1.8,0.4,1.5c3.1,0.7,3.9,0.7,4.6,0.6
						c0.5-0.1,0.9-0.3,3-0.6l0.9,0.8c1.4-0.3,1.6-0.6,4.7-0.3c-2.6,0.2,1.9,1-1,1.5c3.2,1,5.8,0.7,7.8,0.4c1.9-0.2,3.5-0.5,5.1,0.3
						c1.5-0.9,0-1-1.5-1c-1.5,0-3.3,0.2-2.4,0c-1.4-0.5,2.3-1.3,4.4-1.2c2-0.1,3.8,1.8,8.9,0.9c-0.5,0.1-0.6,0.3-1,0.3
						c1.9,0.1,3.7-1.3,6.2-1.1c1.1-1.2,3-0.6,3.2-1.9c-1.5,0.4-3,0.9-4.5,1.3c2.5-0.9,4.7-2.8,9.1-3.2c-0.2,0.3-1.4,1-2.2,1.4
						c1.4,0,2.4-0.8,3.8-0.8c-0.1,1.2-5.5,1.8-8.1,3.2c1.5,0.3,5.2-2.1,4.1-0.4c1.6-2.1,5-1,8.1-3.2l0,0.7c0.6-0.3,1.5-0.9,2.5-1.2
						l-1.6,1.4c2.5-1.6,5.4-0.9,7.9-2.2c-5.5,1.8-1.4-0.5-3.9-0.2c6.3-3,4.5,0.4,11.3-2.2c-1.2,0.4-3.1,0.6-1.9-0.2
						c1.4-0.3,3.4-0.8,4.5-0.8c4.9-2-1-0.4,0.9-1.6c2,0.2,2.3-1.3,4.2-2.4l0.3,0.7c5.7-1.8,0.9-2,6-3.6l-1.7,1.8l2.5-1.3l-0.2,1
						c2.6-1.8,3.5-2,6.3-3c-0.8-0.3-0.2-1.5,2.3-2.5c1.7-0.3-0.7,1,2.6-0.6c-0.5,0.8-1.1,1.7-2.9,1.8c0,0.3-0.5,0.8-0.7,1
						c1.9-0.2,4.5-1.8,5.7-2.4c-0.4,0.2-1,0.3-1.3,0.5l4.5-3.2c0.8-0.1,0.3,0.4-0.1,0.9c1-0.5,1.5-1.2,2.9-1.9
						c-0.2,0.8,0.3,1.3-1.7,2.5l4.3-2.8c0.4,0.1,2.7-0.4,2.2,0c2.7-0.9,5.8-4.1,9.3-5.3c0.1-0.2,0.4-0.5,1.1-0.9
						c3.2-1.5,6.3-2.2,9.7-5l2.6-0.2c2.8-1.7-3.5,0.3,1.2-2.6c3.3-2.1,1.8,0.2,3-0.2c1.4-1.4,3.8-3.9,7.3-4.9
						c-1.6,0.9-2.5,1.2-3.4,1.8l2.7-0.8c-2.4,2.5-4.6,3.2-1.9,2.8c-0.7-2.1,9.2-5.3,8.4-7.3l1.8-0.5c-0.4,0.2-0.5,0.4-0.9,0.6
						c3.6-0.8,1.5-2.6,5.6-4.6c1.4-0.7,2.5-0.9,1.7-0.1l2.7-2.2c0.6-0.3,0.7-0.2,0.5,0l4-2.5c0.6-0.6,1.6-2,2.4-2.5
						c1.3-0.5-0.4,0.5-0.1,0.6l2.2-1.9c1.3-0.1-0.4,1.6-2.3,2.5c3,0.4,2.1-1.2,5.7-2.9c0.4-0.9,1-1,2-1.4c0.1-0.1,0.3-0.3,0.5-0.5
						c0.9-0.3,1.8-0.9,3.2-2c0.5,0.6,1.7-0.3,3.4-1.5l0.4,0.8c1.8-1.4,1.4-1.7,2.3-2.8c2.2-1.2,3.1-0.8,3.9-0.5
						c3.6-1.9-3.1,0.4,1-2.2c3.1-1.5,5-2.9,8-5.5c2.2-0.9,0,0.7,0.8,0.5l1.4-1.7c0.4-0.2,0.3,0,0.4,0.1c1.3-1.2-0.4-0.8,1.8-2.6
						c0-1.4,5.6-1.5,7.9-4.3c0.9-0.3,0,0.7,0.4,0.8c3.5-3.2,3-2.7,5.8-5.5l3.1-1.1c-2.4,0.7-0.3-1.7,1.7-3.7c-1,0.1-1.7,0.3-2.2,0.4
						l3.3-2.8c0.5-0.1,0.3,0.4,0,1c0.2-0.3,0.4-0.5,0.6-0.6c1.5-0.5,1,0.4,0.5,1.5c-0.5,0.1-1.1,0.2-1.6,0.2c-0.5,1.1-1,2.2-0.5,2.5
						c0.2-0.3,0.6-0.6,1.1-1c-0.2,0.3-0.3,0.5-0.1,0.6c0.2,0.1,0.5-0.4,0.9-1l1.4,0.4l-0.1-0.5l5-2.4c2.8-3.2,4.9-6.3,9.9-10.2
						c-0.8,1.6,0.5,1.3,0.9,2.2c-2,0.1-3.9,3.1-6.7,4.6c1.5-0.9,1.5-0.2,1.1,0.2c1.4-1.4,3-2.7,4.4-4c0.3,0.7,1.3-0.1,2.9-0.9
						c-1.9-0.7,3-3.3,4.8-5c0.3,0.4,0.2,1.1-2.3,2.7c3.4-0.8,2.5-3.8,5.6-4.8c-0.6,0.5-0.9,0.6-1.1,1c1.1-1.2,4.8-3.3,4.2-2.4
						l-0.6,0.5c3.9-2.6,11.9-8.1,11.7-9.6c0.1,0.1,0.5,1.7,0.3,2.1c1.4-2.7,2.9-5.7,4.4-8.5c0,1.4,4,1.9,1,4.7
						c1-0.5,2.2-1.2,3.9-2.9c-0.7,0.3-2.5-0.2-1.6-0.9c3.1-0.6,2-0.6,5.3-1.7c-0.9,0.2-0.7-1.9,0.6-2.8c-0.1,0.4,1.2,1.3,0.7,1.9
						l2.7-4c-0.8,0.9,0.7,1.4,1.8,1.2c-0.6-0.1,3.2-2.4,4-3.1l-1.8,0.9c4.3-2.9,2.6-5,6.7-7.9c-0.2,0.6,0.1,2.7,2.3,1.3
						c0.4-1.4,1.7-6.5,4.7-9.8l1-0.1l2.4-2.5c-0.9,2.3-4,8.3-6,11.1c1.8-0.9,0.8,0.2,3-1.6c1.1-0.2-0.8,1.6-1.4,2.1l5.5-3.9
						c-0.8-0.6,3.5-3.9,2.6-4.5l-5.1,5.2c-0.8-0.6,1.6-4.9,5.5-7.6c1.2-0.4,0.5,2,0.7,2.2c0.2-0.6,3.1-3.2,3.7-3.3l-1.3,1.6
						c2.3-1.3,2.6-3.6,5.8-4.8c0.9-0.6,3.3-0.9,3.2-1.5c-2.2,0.2-4.7-2.6-4.3-4c0.4-0.2,5.2-2.7,6.5-2.9c2-0.5-0.8,3.5,1,3.1
						c-0.1-0.3,0.4-1.2,0.7-1.5c1.1-0.5,0.1,1,2.1-0.7c-0.3-1,4-3.1,0.4-1.4c1.8-1.7,2.2-1.4,4.4-3.3c-1.2,0,0.6-3.4,2.2-5.2
						c0.1,0.3,0.6,0.2,1,0.2c3.9-3.1,6.3-4.4,9.9-7.3c0.5-0.1,2.5-1.3,1.9-0.2c0.4-0.5,0.6-1.2,1.7-2.2c2.7-1.1-2.4,2.2-0.1,1.6
						c-0.3-0.6,2.3-3,3.6-4.7c-1-0.4-3.7,3-5.1,4.5c-0.8-1,1-4.3,4.3-7.9c2.8-2.7,1.8-0.5,2.2-1.1c5.7-4.6,3.2-5.8,8.4-9
						c2.3-0.9,1.2,1.1,2,1.3c-2.2,2.3-4,2.8-5.6,4.2l2.2-1.4c-0.6,0.8-2.1,2.4-3,3c2-0.8,9.5-7.8,14.1-11.1c0.6-1,1.7-2.2,0.8-1.9
						l-1.3,1.3c-1.6,0.6,1.9-3,0-1.7c1.5-1.9,2.9-4.3,5.7-6.1l1.2,0.3c-0.3-0.2-2.1,1-2.5,1.9c0.8-1.2,4.7-2.4,4.9-4.4l-2.2,1.1
						C428.1,210.6,429.5,207.9,431.9,206.1z M85.4,420.3l0.7,0C84.6,420.9,85,420.5,85.4,420.3z M275.1,332.5
						c0.5-0.4,1.3-0.8,2.2-1.2C276.8,331.8,276.1,332.2,275.1,332.5z"/>
					<path class="st14" d="M409.9,225.5L409.9,225.5C408.5,226.4,409,226.1,409.9,225.5z"/>
					<path class="st14" d="M271.9,335.9c-0.3,0-0.3,0-0.4-0.1C271.3,336,271.4,336.2,271.9,335.9z"/>
					<path class="st14" d="M169.2,396.8L169.2,396.8c-0.1,0.1-0.1,0.2-0.2,0.3L169.2,396.8z"/>
					<path class="st14" d="M374,264c-0.7,0.3-1.1,0.5-1.4,0.7C372.8,264.8,373.1,264.6,374,264z"/>
					<path class="st14" d="M426.3,209.8l-1.6,1.6c0.8-0.7,1.3-0.9,1.7-1.1C426.3,210.1,425.7,210.4,426.3,209.8z"/>
					<path class="st14" d="M444.2,199.7c0.2-0.3,0.5-0.4,0.6-0.8l-0.3-0.2C443.5,199.7,442.9,200.6,444.2,199.7z"/>
					<path class="st14" d="M429.6,210.3c0.5,0.4,1.5-0.7,2.7-2c-0.1,0.1-0.1,0.1-0.2,0.3C431.7,207.5,430.7,208.9,429.6,210.3z"/>
					<path class="st14" d="M432.4,208.1c0.4-0.3,0.7-0.7,1.1-1C433.4,206.6,433,207.3,432.4,208.1z"/>
					<path class="st14" d="M416.1,220c0.7-0.3-0.1-1,0.4-1C416.4,217.9,413.1,223.1,416.1,220z"/>
					<polygon class="st14" points="431.8,210.9 430.9,210.7 430.7,211.8 					"/>
					<path class="st14" d="M421.9,218.9l2-1.5c-0.1-0.1,0-0.3,0.4-0.7C423.2,217.8,421.8,218.8,421.9,218.9z"/>
					<path class="st14" d="M424.4,216.7c0.6-0.5,1.2-1.1,1.5-1.6C425.5,215.7,424.9,216.3,424.4,216.7z"/>
					<polygon class="st14" points="429.4,213.4 428.7,213.8 427.4,214.9 					"/>
					<path class="st14" d="M401,237l-2,2c0,0.3,0.7,0,1.3-0.8C400.6,237.7,401.5,237,401,237z"/>
					<path class="st14" d="M408.8,233.1c-0.7,0.3-0.9,0.3-1.4,0.3l0.5,0.8L408.8,233.1z"/>
					<path class="st14" d="M402.6,238.6c0,0.3-2.6,3.3,0.1,0.8C402.8,239.1,404.8,237.1,402.6,238.6z"/>
					<polygon class="st14" points="368.9,264.6 369.6,264.1 368.6,263 					"/>
					<path class="st14" d="M341.4,290.4c2.9-1.8,0.1-1.2,2.8-2.7c0.5-0.8-2.2,1.2-1.7,0.5C341,289.6,340.1,290.1,341.4,290.4z"/>
					<path class="st14" d="M342.5,288c0.2-0.3,0.4-0.5,0.6-0.8C342.7,287.8,342.7,288,342.5,288z"/>
					<path class="st14" d="M232.1,363.4l0-0.3c-0.3,0-0.9,0.3-1.7,0.7L232.1,363.4z"/>
					<polygon class="st14" points="206.5,377.4 206.8,377 205.7,376.7 					"/>
					<path class="st14" d="M185.5,390.2c0.8-0.4,1.8-1.2,2.8-1.7C186.4,389.7,184.7,389.3,185.5,390.2z"/>
				</g>
			</g>
		</g>
	</g>
</g>
<g>
	<g>
		<g>
			<g>
				<g>
					<path class="st14" d="M474.3,105c0.7-0.7-0.1-0.8,0-1C473.3,105.3,474.4,105.1,474.3,105z"/>
					<polygon class="st14" points="464.4,117.4 464.5,117.1 463.2,119.2 					"/>
					<path class="st14" d="M454.2,128c1.8-0.2,3.7-3.8,5.8-5.5l0.5-0.1l0.2-1.5C458.5,123.2,456,126.6,454.2,128z"/>
					<path class="st14" d="M446.9,131.8c0.7,0-1,1.5,1.3-1.2c-0.1,0.1-0.3,0.1-0.3,0.1C447.8,131.1,447.4,131.3,446.9,131.8z"/>
					<path class="st14" d="M448,130.8C449,129.6,447,131.3,448,130.8L448,130.8z"/>
					<path class="st14" d="M443.1,136.1l1.2-1.8c-0.5,0.1-1.8,1.4-1.5,0.7C441.5,136.7,442,136.6,443.1,136.1z"/>
					<path class="st14" d="M442.3,138l0.6-0.8C442.7,137.1,442.5,137.4,442.3,138z"/>
					<path class="st14" d="M444.3,135.3l-1.3,1.8c0.3-0.1,0.6,0.2,0.6-0.8C443.7,136.6,443.8,136.1,444.3,135.3z"/>
					<path class="st14" d="M445.3,134.5c0.9-0.6,2.2-1.6,0.9,0.1C448.9,131.7,447.9,131.7,445.3,134.5z"/>
					<path class="st14" d="M454.5,129.3l1.3-0.8l0.6-1.2C456,127.8,454.1,129.1,454.5,129.3z"/>
					<path class="st14" d="M433.6,144.6c0.1,0.3,0.8-0.1,1.2,0.1l0.9-1.3C435.1,143.8,434,144.7,433.6,144.6z"/>
					<path class="st14" d="M434.8,144.7l-1.3,1.8C435,145.1,435.2,144.7,434.8,144.7z"/>
					<polygon class="st14" points="442.8,139.1 444.9,135.9 442.4,139.7 					"/>
					<polygon class="st14" points="427.3,150.5 427.9,149.2 426.9,151.4 					"/>
					<path class="st14" d="M423.4,154.5c0.4-1-1.4,0.3-1-0.6c-1,1.2-1.8,2.4-2.3,3.4C420.8,156.3,421.8,155.5,423.4,154.5z"/>
					<path class="st14" d="M418.9,159.2c0.4-0.5,0.7-1,1.1-1.7C419.7,157.9,419.3,158.5,418.9,159.2z"/>
					<path class="st14" d="M430.6,149.1c-0.2-0.1-0.7,0-1.7,0.7l1.1-0.2C430.3,149.4,430.5,149.3,430.6,149.1z"/>
					<path class="st14" d="M430,149.7L430,149.7c-0.7,0.7-1.2,1.1-1.4,1.4C428.8,150.8,429.2,150.5,430,149.7z"/>
					<path class="st14" d="M430.9,149c-0.1,0.1-0.1,0.1-0.1,0.1L430.9,149z"/>
					<path class="st14" d="M438.3,142.8c-0.6,1.2-2.3,3.4-0.1,1.9C438.5,143.8,437.2,144.6,438.3,142.8z"/>
					<path class="st14" d="M432.1,148.7l1.8-1.6c-0.2-0.1-0.7,0-0.3-0.6L432.1,148.7z"/>
					<polygon class="st14" points="431.6,149.7 432.1,148.7 431.6,149.3 					"/>
					<path class="st14" d="M422.4,156.7c-0.6,1-1.4,1.7-2.2,2.6c1.1-0.9,2.1-1.7,3.2-2.7C423.3,156.4,423.3,155.7,422.4,156.7z"/>
					<path class="st14" d="M426.1,153.3c0,0-0.1,0.1-0.1,0.2C426.2,153.5,426.2,153.5,426.1,153.3z"/>
					<path class="st14" d="M410.7,167.9l0.1-0.1l-0.1-0.1L410.7,167.9z"/>
					<path class="st14" d="M423.5,156.6c0.9-0.6,1.1-1.2,1.4-1.7c-0.6,0.6-1.1,1.2-1.7,1.8C423.3,156.7,423.3,156.9,423.5,156.6z"/>
					<path class="st14" d="M416.5,161.7c0.6-0.3,1.1-0.7,1.6-0.9C417.6,161,416.6,161.5,416.5,161.7z"/>
					<path class="st14" d="M425.5,153.6C425.7,153.5,425.7,153.5,425.5,153.6C425.4,153.7,425.4,153.7,425.5,153.6z"/>
					<path class="st14" d="M425.5,153.6c-0.3,0.5-0.4,0.9-0.8,1.2c0.4-0.5,0.8-0.9,1.1-1.4C425.9,153.6,425.7,153.7,425.5,153.6z"/>
					<path class="st14" d="M410.9,173.7c-0.3-0.6,1.4-2.9,3.5-3.9c1.3-1.8-1.1-2.4-3.3-1.9c0.1,0.3,0.3,0.4-1.1,2.3
						c0.8-0.4,4.4-3,3.4-1.3c-2.1,2.4-2,1.6-3.4,2.3c1.4-0.3-2.3,3.5-0.9,3.9l1.7-2.2C410.8,173.2,410.2,174,410.9,173.7z"/>
					<path class="st14" d="M414.4,164.9l0.7-0.7c-0.9,0.6-1.6,0.9-3,1.6c-0.9,1.3-1.1,1.7-1,1.9l3.6-3.3L414.4,164.9z"/>
					<path class="st14" d="M418.3,161.2c0,1-1.6,2.8-0.1,2.3c2.1-2,1.1-1.7,2.1-3.1C417.1,163.6,421,159.2,418.3,161.2
						c0.7-0.7,1.3-1.3,1.8-1.7c-0.6,0.5-1.3,0.9-1.9,1.4c0,0,0,0,0.1-0.1l0,0l0,0c0.1-0.1,0.3-0.1,0,0c0,0,0,0-0.1,0.1
						C418.3,161,418.3,161,418.3,161.2c-1.1,0.9-0.3,0,0-0.3c0,0,0,0-0.1-0.1l0,0l-3.2,3.4C415.9,163.5,416.7,162.8,418.3,161.2z"/>
					<path class="st14" d="M437.4,147.6c-0.1,0.1-0.1,0.1-0.2-0.1C437,147.8,436.9,148,437.4,147.6z"/>
					<path class="st14" d="M435.7,148.6c0.2-0.3,0.2-0.6,1.1-1.4c0.8-0.5,0.3,0.2,0.3,0.4c0.4-0.5,1.3-2-0.3-0.7l-0.2,0.3
						c-1.5,1.1-3.8,2.2-3.6,1.9C433.8,148.9,434.5,149,435.7,148.6z"/>
					<path class="st14" d="M427.1,155.1l-2.5,2.9l1.8-0.9l-0.3-0.2C427.7,155.5,427,155.5,427.1,155.1z"/>
					<polygon class="st14" points="410.2,168 410.2,167.1 409.2,169.3 					"/>
					<polygon class="st14" points="406.6,171.4 406.3,170.9 405.7,172 					"/>
					<path class="st14" d="M181.5,342.4l-0.8,0.7C181,342.8,181.4,342.6,181.5,342.4z"/>
					<path class="st14" d="M188.7,338.4l0-0.3C188.5,338.3,188.4,338.6,188.7,338.4z"/>
					<path class="st14" d="M312,249.7c-1.7,0.5-3.7,0.9-3.1,1.3l0.8,0.3C310.4,250.4,311.3,250,312,249.7z"/>
					<path class="st14" d="M244.7,300.6c0.1-0.1,0.3,0,0.5-0.1c0.1-0.4,0.5-0.8,0.6-1.2C245.5,299.7,245.1,300.3,244.7,300.6z"/>
					<path class="st14" d="M245.2,303.7l-2,0.8C243.5,304.3,244.3,304.1,245.2,303.7z"/>
					<path class="st14" d="M142.2,364.5l-0.9,1.3C143.2,364.7,142.2,364.8,142.2,364.5z"/>
					<path class="st14" d="M368.3,205.4c-1.2,0.7-2.2,1.4-3,2C366.8,206.6,368.4,206.2,368.3,205.4z"/>
					<path class="st14" d="M180.9,334.6c-0.5,0.4-0.7,0.7-0.6,0.8C180.7,335,181.1,334.7,180.9,334.6z"/>
					<path class="st14" d="M362.1,210.1c0.3-0.1,0.4-0.2,0.7-0.3c0.7-0.7,1.5-1.6,2.5-2.2C364.2,208,362.9,208.8,362.1,210.1z"/>
					<path class="st14" d="M1,355c-0.1-0.1,0-0.3,0-0.3S0.9,354.9,1,355z"/>
					<path class="st14" d="M13.3,308.5c-0.1,0.4-0.3,1.2-0.4,1.9C13,310,13.2,309.6,13.3,308.5z"/>
					<path class="st14" d="M391.4,184.7C392.3,183.9,391.5,184.5,391.4,184.7L391.4,184.7z"/>
					<path class="st14" d="M397.1,183.2c-0.1,0.2-0.1,0.4-0.1,0.6C396.9,183.6,397,183.4,397.1,183.2z"/>
					<path class="st14" d="M356.5,219.9L356.5,219.9C356.9,220,356.9,220,356.5,219.9z"/>
					<path class="st14" d="M392.9,183.8c-0.4,0.2-0.8,0.5-1.2,0.7C392,184.4,392.3,184.3,392.9,183.8z"/>
					<path class="st14" d="M392.5,183.8c0.3-0.1,0.5-0.4,0.8-0.5C393.2,183,393.2,183,392.5,183.8z"/>
					<path class="st14" d="M390.4,185.7c0.5-0.4,0.8-0.7,1.3-1.2c-0.1,0.1-0.3,0.1-0.3,0.1C391.2,185,391,185.2,390.4,185.7z"/>
					<path class="st14" d="M70.7,390.3c0,0-0.1,0.1-0.2-0.1C69.4,390.9,69.8,390.7,70.7,390.3z"/>
					<path class="st14" d="M293.6,271.6C293.6,271.6,293.7,271.5,293.6,271.6C293.7,271.5,293.6,271.6,293.6,271.6L293.6,271.6z"/>
					<path class="st14" d="M290.7,274.2c0.9-1.6,1.6-2,2.8-2.7l-2.1-0.9L290.7,274.2z"/>
					<path class="st14" d="M164.3,352.1l2.7-0.8c-2.4,2.5-4.6,3.2-1.9,2.8c-0.7-2.1,9.2-5.3,8.4-7.3l1.8-0.5
						c-0.4,0.2-0.5,0.4-0.9,0.6c3.6-0.8,1.5-2.6,5.6-4.6c1.4-0.7,2.5-0.9,1.7-0.1l2.7-2.2c0.8-0.4,0.8-0.1,0,0.3l4.5-2.8l0,0
						c0.6-0.6,1.6-2,2.4-2.5c1.3-0.5-0.4,0.5-0.1,0.6l2.2-1.9c1.3-0.1-0.4,1.6-2.3,2.5c3.5,0.4,1.8-1.7,7.6-3.6l-2.3,1.6
						c2.1,0.2,3.8-1.3,6.8-2.2c-0.8,0.1-6.3,1.5-3.9-0.6c0.9-0.3,1.8-0.9,3.2-2c0.5,0.6,1.7-0.3,3.4-1.5l0.4,0.8
						c1.8-1.4,1.4-1.7,2.3-2.8c2.2-1.2,3.1-0.8,3.9-0.5c3.6-1.9-3.1,0.4,1-2.2c3.1-1.5,4.8-2.8,8-5.5c2.2-0.9,0,0.7,0.8,0.5l1.4-1.7
						c0.4-0.2,0.3,0,0.4,0.1c1.3-1.2-0.4-0.8,1.8-2.6c0-1.4,5.6-1.5,7.9-4.3c0.9-0.3,0,0.7,0.4,0.8c3.5-3.2,3-2.7,5.8-5.5l3.1-1.1
						c-2.4,0.7-0.3-1.7,1.7-3.7c-1,0.1-1.7,0.3-2.2,0.4l3.3-2.8c0.5-0.1,0.3,0.4,0,1c0.2-0.3,0.4-0.5,0.6-0.6c1.5-0.5,1,0.4,0.5,1.5
						c-0.5,0.1-1.1,0.2-1.6,0.2c-0.5,1.1-1,2.2-0.5,2.5c0.2-0.3,0.6-0.6,1.1-1c-0.2,0.3-0.3,0.5-0.1,0.6c0.2,0.1,0.5-0.4,0.9-1
						l1.4,0.4L248,301l5-2.4c2.8-3.2,4.9-6.3,9.9-10.2c-0.8,1.6,0.5,1.3,0.9,2.2c-2,0.1-3.9,3.1-6.7,4.6c1.5-0.9,1.5-0.2,1.1,0.2
						c1.4-1.4,3-2.7,4.4-4c0.3,0.7,1.3-0.1,2.9-0.9c-1.9-0.7,3-3.3,4.8-5c0.3,0.4,0.2,1.1-2.3,2.7c3.4-0.8,2.5-3.8,5.6-4.8
						c-0.6,0.5-0.9,0.6-1.1,1c1.1-1.2,4.8-3.3,4.2-2.4l-0.6,0.5c3.9-2.6,11.9-8.1,11.7-9.6c0.1,0.1,0.5,1.7,0.3,2.1
						c1.4-2.7,2.9-5.7,4.4-8.5c0,1.4,4,1.9,1,4.7c1-0.5,2.2-1.2,3.9-2.9c-0.7,0.3-2.5-0.2-1.6-0.9c3.1-0.6,2-0.6,5.5-1.8
						c-1.1,0.5-1-1.8,0.4-2.8c-0.1,0.4,1.2,1.3,0.7,1.9l2.7-4c-0.8,0.9,0.7,1.4,1.8,1.2c-0.6-0.1,3.2-2.4,4-3.1l-1.8,0.9
						c4.3-2.9,2.6-5,6.7-7.9c-0.2,0.6,0.1,2.7,2.3,1.3c0.4-1.4,1.7-6.5,4.7-9.8l1-0.1l2.4-2.5c-0.9,2.3-4,8.3-6,11.1
						c1.8-0.9,0.8,0.2,3-1.6c1.1-0.2-0.8,1.6-1.4,2.1l5.5-3.9c-0.8-0.6,3.5-3.9,2.6-4.5l-5.1,5.2c-0.8-0.6,1.6-4.9,5.5-7.6
						c1.2-0.4,0.5,2,0.7,2.2c0.2-0.6,3.1-3.2,3.7-3.3l-1.3,1.6c2.3-1.3,2.6-3.6,5.8-4.8c0.9-0.6,3.3-0.9,3.2-1.5
						c-2.2,0.2-4.7-2.6-4.3-4c0.4-0.2,5.2-2.7,6.5-2.9c2-0.5-0.8,3.5,1,3.1c-0.1-0.3,0.4-1.2,0.7-1.5c1.1-0.5,0.1,1,2.1-0.7
						c-0.3-1,4-3.1,0.4-1.4c1.8-1.7,2.2-1.4,4.4-3.3c-1.2,0,0.6-3.4,2.2-5.2c0.1,0.3,0.6,0.2,1,0.2c3.9-3.1,6.3-4.4,9.9-7.3
						c0.5-0.1,2.5-1.3,1.9-0.2c0.4-0.5,0.6-1.2,1.7-2.2c2.7-1.1-2.4,2.2-0.1,1.6c-0.3-0.6,2.3-3,3.6-4.7c-1-0.4-3.7,3-5.1,4.5
						c-0.8-1,1-4.3,4.3-7.9c2.8-2.7,1.8-0.5,2.2-1.1c5.7-4.6,3.2-5.8,8.4-9c2.3-0.9,1.2,1.1,2,1.3c-2.2,2.3-4,2.8-5.6,4.2l2.2-1.4
						c-0.6,0.8-2.1,2.4-3,3c2-0.8,9.5-7.8,14.1-11.1c0.6-1,1.7-2.2,0.8-1.9l-1.3,1.3c-1.6,0.6,1.9-3,0-1.7c1.5-1.9,2.9-4.3,5.7-6.1
						l1.2,0.3c-0.3-0.2-2.1,1-2.5,1.9c0.8-1.2,4.7-2.4,4.9-4.4l-2.2,1.1c1.5-1.9,2.9-4.7,5.3-6.5c-1.6,0.2-0.4,0.5-2.7,1.1
						c2.3-0.2-5.7,5-2.5,4.1c-2.5,0.5-3.2,2-6,3.2c0.3,0.2,1.1-0.2-0.8,1.2c-0.1,0.2-0.1,0.4-0.2,0.6l-0.1,0.1l0.1-0.1
						c-0.1,0.1-0.1,0.2,0,0c0.6-0.3,1-0.5,1.3-0.5c-0.4,1.4-3.4,4-4.3,5.1c-1.1,0.9,0.2-0.6-0.5-0.4l-1.1,1.7
						c-0.5-0.4-3.6,1.7-1.3-0.9l-2.3,2c-1.6,0.9-3.6,2.4-4.6,3.6c-1.1,0.9-2.3,3-1.8,1.7l-3.5,3.5l-0.2-0.1c-3.7,3.1-6.8,7.4-12,9.8
						c-1.1,1.2-2.3,2.5-4.4,4l-0.8-0.2c-1.5,1.6-5.2,3.5-5.6,4.6c-2.7,0.1-8.1,6-11.2,8.1l0.3,0.7c-2,1.5-3.8,3.2-6,5.4l0.5,0.4
						c-1.8,2.1-5.9,3.9-9.3,6.5c0-0.3,0.9-1,1.8-1.4c-5,1.9-7.9,7.6-12.4,9.4c-0.8,0.9-1.5,1.2-2.3,1.6c0.1-0.1,0.1-0.1,0.2-0.3
						c-0.1,0.1-0.3,0.1-0.4,0.3c-0.4,0.2-1,0.5-1.5,0.7c0.4-0.2,0.9-0.3,1.3-0.5c-0.8,0.5-1.8,1.4-2.7,2.3l-0.8-0.3
						c-0.1,0.1-0.1,0.1-0.2,0.3c-1.3,0.6-0.6,1,0.3,0.9c-0.4,0.5-0.9,1-1.2,1.4c-1.5-0.3-2.6,2.5-4.5,2.1c-0.4,1-5.1,4.3-5,5.8
						c-0.1-0.1-0.5,0.1,0-0.3c-1.3,0.8-2.6,1.4-3.4,2.5l-1-0.4l-1.9,3c-1.9,0.7-2.9,0.9-1.6-0.9c-3.3,3.6-2.9,2.6-5.5,5.7l-0.1-0.6
						c-1.1,0.9-2.6,2.8-3.6,2.9c-1.7,0.5-4.9,2.7-8.7,5.2s-8.2,5.5-11.8,7.2c2.3,0.6-3.6,1.4-3.1,2.9c-0.6-0.1-1.7,0.3-0.8-0.6
						c-3.2,2.6-5.7,2.9-7.4,5.4c-0.6-0.1,0.4-1-0.1-1c-0.2,0.3-0.9,1-1.4,1c-0.5,0.1,0.4-0.7,0.8-1.2c-3.5,2.4-3.2,3.8-2.8,4.9
						c-2.1,0.7-3,1.3-3.9,2.9c-0.8,0.1-2.2,0.4,0-1.2c-1.3,0.8-8.1,4.4-7.7,5.2c-0.5,0.1-1.8,1-2.1,1.4c-2.9,1.8-3.2,1.9-6,3.6
						l0.8-0.4c-0.6,1.7-2.2,1.6-4.4,3.1l-0.1-0.1c-5.7,2.4-2.1,1.7-7.7,4l0.8,0.5c0.3,1.7-5.1,1.9-7.8,4.2l1.3-0.3
						c-1.3,1.5-5.8,0.9-7.5,1.7c-0.5,0.1,0.4-0.5,0.9-1c-4.8,1.8-0.1,1.2-3.2,3.3c-0.9-0.1,0.1-1.6-2.1-0.4c-1.3,0.3-5.4,5.2-9,6
						c0.8-0.1,1.7-0.1,0.3,1c-2.2,1.4-7,2.3-8.5,4.6c-0.3,0-0.5,0.1-0.6-0.1c-1.6,1.3-5.5,3.7-6.3,4.9c-2.9-1.4-10.5,7.2-11.5,5.1
						l-5.4,3.1l0-0.3c-3.6,1.7-4.6,2.9-5.6,4.1c-0.9,0.3-0.4-0.1-0.3-0.4c-5.4,2.3-5.8,2.6-9.7,5.9l-0.8-0.5c-1.1,1-8,2.6-12.8,6
						c-0.1-0.1,0-0.3,0.4-0.5c-5.5,3.7-14.9,4.5-15.8,7.9l-3.7,2.3c5.1-1.9-0.3,1.5,2,0.9c-1.9,1.1-5.5,1.4-3.1,0.3l0.5-0.1
						c0.4-1.7-6.6,2.1-6.7,1.1c-9.9,4.1-20.2,6.7-29.8,9.1l1.4,0.9l-3.4,0.8c-0.9-0.1-1.4-0.5,1-1.2c-1.4-0.4-3.9,1.5-4,1.7
						c-4.9,0.6,1.6-1.6,0.2-1.5l-2,0.6l0.6,0.1c-1.5,0.7-1.6,1.3-4.5,1.8c-1.9,0-1.1-0.5-1.8-0.5c-0.1-0.1-0.2-0.1-1.1,0.2
						c-1.5,0.2-2.9,0.4-4.2,0.5c0.6,0.2,1.2,0.4,1.9,0.7c-1.9,0.7-4.1,0.4-2,1.3c-1.5-0.7-5.7-0.4-9.5-0.4c-4,0-7.6-0.3-8.4-0.8
						c-2.6,0.2-5.3-0.4-8.3-1.5c0.7,0.4,0.8,1.7-1.9,0.4c0.8-0.7-0.2-1.5-1.6-2.3c-0.7-0.4-1.5-1-2.1-1.6c-0.6-0.6-1.1-1.2-1.4-1.8
						c0.5,1-1.1-0.2-2.5-1.2c-1.4-1.1-2.5-2.3-2.1-0.7c-1.4-1.9,0.6-0.6-0.2-2.3c-1.9-1.8-3.3-4.4-4.4-7.4s-1.6-6.3-2.5-9.5
						c-0.2-0.1-0.5,1.1-1.2-0.3c0.2-1.3,0.5-2.5,0.8-3.8c-0.3-1.3-1.7-1.1-0.9-3.7c-0.1,0.4-0.6,1-0.7,0c0.3-6.9,0.4-13.8,1.2-20.9
						c0.7-7.1,2.2-14.1,5.1-20.7c-0.9,1.6-0.8,0.5-0.5-1c-0.4,0.9-0.6-0.2-1,0c0.9-1.8,1.7-3.7,2.5-5.5c-0.8-1.3,1.7-6.1,1-7
						l-0.3,1.9c-0.4-2.7-3.4,2.6-4.8,1.9c0.4,3.1-3.8,6.8-3.1,11.8c-0.6,1-0.3-0.9-0.8-0.5c0.3,1.4,0.1,2.7-0.6,5.3l-0.1-0.3
						c-0.7,3.6-1.3,6.3-1.9,9c-0.6,2.7-1.3,5.6-1.8,9.8l0.8-0.5c-0.3,1.9-0.5,2.1-0.8,3c0.9,2.2,0.5-5.1,1.6-3
						c-0.9,1.1-1.2,4.3-1.3,7.3c-0.2,3.2-0.2,6.1-1,7c0.2,2.8,0.8-0.9,0.9,2l-0.5,0.8l0.7,0.7c0,1.9-0.5,2.8-0.8,3
						c-0.1-0.5-0.3-1.3-0.3-1.7c-0.4,2.4,1.1,6.9,1.1,7.7c-0.1-1-0.2-1.8-0.2-2.8c0.8,3.9,1.9,8.2,3.5,12.3c1.8,4.1,4.2,8,7.3,10.6
						l-0.1-0.6c1,1.1,2,1.6,2.5,2.3c0.6,0.6,1,1.1,1.6,1.5c1,0.9,1.9,1.8,4.7,3.4l-0.2-0.1c0.6,0.2,1.4,0.4,2.2,0.7
						c0.8,0.3,1.7,0.6,2.3,0.9c-1.7-0.2,2.6,1.8,0.4,1.5c3.1,0.7,3.9,0.7,4.6,0.6c0.5-0.1,0.9-0.3,3-0.6l0.9,0.8
						c1.4-0.3,1.6-0.6,4.7-0.3c-2.6,0.2,1.9,1-1,1.5c3.2,1,5.8,0.7,7.8,0.4c1.9-0.2,3.5-0.5,5.1,0.3c1.5-0.9,0-1-1.5-1
						c-1.5,0-3.3,0.2-2.4,0c-1.4-0.5,2.3-1.3,4.4-1.2c2-0.1,3.8,1.8,8.9,0.9c-0.5,0.1-0.6,0.3-1,0.3c1.9,0.1,3.7-1.3,6.2-1.1
						c1.1-1.2,3-0.6,3.2-1.9c-1.5,0.4-3,0.9-4.5,1.3c2.5-0.9,4.7-2.8,9.1-3.2c-0.2,0.3-1.4,1-2.2,1.4c1.4,0,2.4-0.8,3.8-0.8
						c-0.1,1.2-5.5,1.8-8.1,3.2c1.5,0.3,5.2-2.1,4.1-0.4c1.6-2.1,5-1,8.1-3.2l0,0.7c0.6-0.3,1.5-0.9,2.5-1.2l-1.6,1.4
						c2.5-1.6,5.4-0.9,7.9-2.2c-5.5,1.8-1.4-0.5-3.9-0.2c6.4-3.1,4.4,0.6,11.8-2.4c-1,0.5-3.8,1-2.4,0c1.4-0.3,3.4-0.8,4.5-0.8
						c4.9-2-1-0.4,0.9-1.6c2,0.2,2.3-1.3,4.2-2.4l0.3,0.7c5.7-1.8,0.9-2,6-3.6l-1.7,1.8l2.5-1.3l-0.2,1c2.6-1.8,3.5-2,6.3-3
						c-0.8-0.3-0.2-1.5,2.3-2.5c1.7-0.3-0.7,1,2.6-0.6c-0.5,0.8-1.1,1.7-2.9,1.8c0,0.3-0.5,0.8-0.7,1c1.9-0.2,4.5-1.8,5.7-2.4
						c-0.4,0.2-1,0.3-1.3,0.5l4.5-3.2c0.8-0.1,0.3,0.4-0.1,0.9c1-0.5,1.5-1.2,2.9-1.9c-0.2,0.8,0.3,1.3-1.7,2.5l4.3-2.8
						c0.4,0.1,2.7-0.4,2.2,0c2.7-0.9,5.8-4.1,9.3-5.3c0.1-0.2,0.4-0.5,1.1-0.9c3.2-1.5,6.3-2.2,9.7-5l2.6-0.2
						c2.8-1.7-3.5,0.3,1.2-2.6c3.3-2.1,1.8,0.2,3-0.2c1.4-1.4,3.8-3.9,7.3-4.9C166.2,351.3,165.2,351.5,164.3,352.1z M199.2,331.9
						c-0.6,0.5-1.8,1.7-2.5,1.7C197.1,332.3,197.8,332.3,199.2,331.9z M250.5,298.7c-0.4,0.5-1.1,0.9-2.2,1.2
						C248.8,299.5,249.6,299,250.5,298.7z M386,190.7c0.2-0.3,0.1-0.4,0-0.3c0,0.3-0.6,0.8-1.4,1.4C385,191.7,385.4,191.5,386,190.7
						z M58.6,387.6l0.7,0C57.8,388.2,58.1,387.8,58.6,387.6z"/>
					<path class="st14" d="M383.1,192.8C383.1,192.8,383.2,192.9,383.1,192.8C381.7,193.8,382.2,193.4,383.1,192.8z"/>
					<path class="st14" d="M245.2,303.3c-0.3,0-0.3,0-0.4-0.1C244.5,303.3,244.5,303.5,245.2,303.3z"/>
					<path class="st14" d="M142.4,364.2L142.4,364.2c-0.1,0.1-0.1,0.2-0.2,0.3L142.4,364.2z"/>
					<path class="st14" d="M347.2,231.3c-0.7,0.3-1.1,0.5-1.4,0.7C346,232,346.3,231.9,347.2,231.3z"/>
					<path class="st14" d="M399.5,177.1l-1.6,1.6c0.8-0.7,1.3-0.9,1.7-1.1C399.5,177.6,398.9,177.7,399.5,177.1z"/>
					<path class="st14" d="M417.3,167c0.2-0.3,0.5-0.4,0.6-0.8l-0.3-0.2C416.7,167.1,416.1,167.9,417.3,167z"/>
					<path class="st14" d="M402.8,177.5c0.5,0.4,1.5-0.7,2.7-2c-0.1,0.1-0.1,0.1-0.2,0.3C404.9,174.8,403.8,176.2,402.8,177.5z"/>
					<path class="st14" d="M405.5,175.4c0.4-0.3,0.7-0.7,1.1-1C406.6,174,406.2,174.7,405.5,175.4z"/>
					<path class="st14" d="M389.3,187.4c0.7-0.3-0.1-1,0.4-1C389.6,185.2,386.3,190.6,389.3,187.4z"/>
					<polygon class="st14" points="405,178.2 404.1,178.1 403.9,179.1 					"/>
					<path class="st14" d="M395.1,186.4l2-1.5c-0.1-0.1,0-0.3,0.4-0.7C396.4,185.1,395,186.1,395.1,186.4z"/>
					<path class="st14" d="M397.7,184.1c0.6-0.5,1.2-1.1,1.5-1.6C398.7,182.9,398.1,183.6,397.7,184.1z"/>
					<polygon class="st14" points="402.6,180.7 402,181.2 400.6,182.2 					"/>
					<path class="st14" d="M374.2,204.3l-2,2c0,0.3,0.7,0,1.3-0.8C373.9,205.1,374.6,204.2,374.2,204.3z"/>
					<path class="st14" d="M381.9,200.4c-0.7,0.3-0.9,0.3-1.4,0.3l0.5,0.8L381.9,200.4z"/>
					<path class="st14" d="M375.8,205.9c0,0.3-2.6,3.3,0.1,0.8C376.1,206.5,378,204.4,375.8,205.9z"/>
					<polygon class="st14" points="342.2,232 342.8,231.5 341.7,230.3 					"/>
					<path class="st14" d="M314.6,257.7c2.9-1.8,0.1-1.2,2.8-2.7c0.5-0.8-2.2,1.2-1.7,0.5C314.2,256.9,313.2,257.3,314.6,257.7z"/>
					<path class="st14" d="M315.8,255.4c0.2-0.3,0.4-0.5,0.6-0.8C315.9,255,315.8,255.2,315.8,255.4z"/>
					<polygon class="st14" points="16.2,301.3 17,299.4 16.2,300.5 					"/>
					<path class="st14" d="M16.2,297l1.1-0.2l-0.5-1.5C16.7,295.8,16.4,296.7,16.2,297z"/>
					<path class="st14" d="M205.3,330.7l0-0.3c-0.3,0-0.9,0.3-1.7,0.7L205.3,330.7z"/>
					<polygon class="st14" points="179.7,344.6 180.1,344.4 178.8,344 					"/>
					<path class="st14" d="M158.6,357.5c0.8-0.4,1.8-1.2,2.8-1.7C159.6,357,157.9,356.6,158.6,357.5z"/>
				</g>
			</g>
		</g>
	</g>
</g>
</svg>
