<?xml version="1.0" encoding="utf-8"?>
<!-- Generator: Adobe Illustrator 24.0.1, SVG Export Plug-In . SVG Version: 6.00 Build 0)  -->
<svg version="1.1" id="Layer_1" xmlns="http://www.w3.org/2000/svg" xmlns:xlink="http://www.w3.org/1999/xlink" x="0px" y="0px"
	 viewBox="0 0 512 512" style="enable-background:new 0 0 512 512;" xml:space="preserve">
<style type="text/css">
	.st0{display:none;}
	.st1{display:inline;fill:#200A7F;stroke:#18E5EA;stroke-width:20;stroke-miterlimit:10;}
	.st2{display:inline;fill:#EF0B79;}
	.st3{display:inline;fill:#18E5EA;}
	.st4{display:inline;}
	.st5{fill:#E9F21C;}
	.st6{display:inline;fill:none;}
	.st7{display:inline;fill:#EF3A24;}
	.st8{font-family:'MyriadPro-Regular';}
	.st9{font-size:250px;}
	.st10{display:inline;fill:#FFFFFF;}
	.st11{opacity:0.48;fill:#969696;enable-background:new    ;}
	.st12{fill:#FF1F55;stroke:#D8D8D8;stroke-width:2;stroke-miterlimit:10;}
	.st13{fill:#F9FAE9;}
</style>
<g id="Layer_3" class="st0">
	<path class="st1" d="M401.1,212.2c5.1,15.3,7.9,31.7,7.9,48.8c0,85.3-69.2,154.5-154.5,154.5S100,346.3,100,261
		s69.2-154.5,154.5-154.5c51.2,0,96.6,24.9,124.7,63.3"/>
	<path class="st2" d="M333.4,255.2c0,4.2-3.3,7.7-7.4,7.7H174.9c-4.1,0-7.4-3.4-7.4-7.7l0,0c0-4.2,3.3-7.7,7.4-7.7H326
		C330.1,247.5,333.4,250.9,333.4,255.2L333.4,255.2z"/>
	<path class="st2" d="M333.4,284.8c0,4.2-3.3,7.6-7.4,7.6H174.9c-4.1,0-7.4-3.4-7.4-7.6l0,0c0-4.2,3.3-7.6,7.4-7.6H326
		C330.1,277.1,333.4,280.6,333.4,284.8L333.4,284.8z"/>
	<path class="st2" d="M333.4,313c0,4.2-3.3,7.7-7.4,7.7H174.9c-4.1,0-7.4-3.4-7.4-7.7l0,0c0-4.2,3.3-7.6,7.4-7.6H326
		C330.1,305.4,333.4,308.8,333.4,313L333.4,313z"/>
	<path class="st2" d="M333.4,338.4c0,4.2-3.3,7.7-7.4,7.7H174.9c-4.1,0-7.4-3.4-7.4-7.7l0,0c0-4.2,3.3-7.6,7.4-7.6H326
		C330.1,330.7,333.4,334.1,333.4,338.4L333.4,338.4z"/>
	<polygon class="st3" points="395,191.5 320.2,165.2 380.4,113.5 	"/>
	<g class="st4">
		<g>
			<g>
				<path class="st5" d="M241.5,239.2c-2.3,0-4.4-1.1-5.8-2.9l-18.8-24.8c-2.4-3.2-1.8-7.8,1.4-10.3c3.2-2.4,7.8-1.8,10.3,1.4
					l12.3,16.3l31-49.8c2.1-3.4,6.6-4.5,10.1-2.3c3.4,2.1,4.5,6.6,2.3,10.1l-36.7,58.9c-1.3,2-3.5,3.3-5.9,3.4
					C241.7,239.2,241.6,239.2,241.5,239.2z"/>
			</g>
		</g>
	</g>
</g>
<g id="Layer_2_2_" class="st0">
	<rect x="121" y="171.5" class="st6" width="298" height="251"/>
	<text transform="matrix(1 0 0 1 121 348.9979)" class="st7 st8 st9">24</text>
	<circle class="st10" cx="138.3" cy="91.8" r="17.3"/>
	<circle class="st10" cx="185.3" cy="91.8" r="17.3"/>
	<circle class="st10" cx="232.3" cy="91.8" r="17.3"/>
	<circle class="st10" cx="278.3" cy="91.8" r="17.3"/>
	<circle class="st10" cx="323.3" cy="91.8" r="17.3"/>
	<circle class="st10" cx="368.3" cy="91.8" r="17.3"/>
</g>
<circle class="st11" cx="255.6" cy="260.3" r="244.6"/>
<circle class="st12" cx="254.6" cy="249.3" r="244.6"/>
<path class="st13" d="M475.8,225.1c-0.7-6.2-7.9-10.8-14.2-10.8c-20.1,0-37.9-11.8-45.3-30c-7.6-18.7-2.7-40.4,12.3-54.1
	c4.7-4.4,5.2-11.5,1.3-16.5c-10.3-13-21.9-24.8-34.7-35c-5.1-4-12.3-3.4-16.7,1.3c-13,14.5-36.6,19.9-54.6,12.3
	c-18.9-7.9-30.8-27.1-29.7-47.5c0.3-6.4-4.4-12.1-10.8-12.8c-16.3-1.9-32.9-2-49.2-0.2c-6.4,0.7-11.1,6.2-10.8,12.5
	c0.7,20.4-11.3,39.1-30,46.7c-17.9,7.2-41.1,2-54.3-12.3c-4.4-4.7-11.5-5.2-16.5-1.3c-13.1,10.3-25.1,22.1-35.4,35
	c-4,5.1-3.4,12.3,1.3,16.7c15.3,13.8,20.2,35.7,12.3,54.6c-7.6,18-26.3,29.7-47.7,29.7c-6.9-0.2-12,4.4-12.6,10.8
	c-1.9,16.5-2,33.2-0.2,49.9c0.7,6.2,8.1,10.8,14.3,10.8c19-0.5,37.4,11.3,45.2,30c7.6,18.7,2.7,40.4-12.3,54.1
	c-4.7,4.4-5.2,11.5-1.3,16.5c10.1,13,21.9,24.8,34.7,35c5.1,4,12.3,3.5,16.7-1.3c13.1-14.5,36.6-19.9,54.6-12.3
	c18.9,7.9,30.8,27,29.7,47.5c-0.3,6.4,4.4,12.1,10.8,12.8c8.4,1,16.9,1.5,25.3,1.5c8.1,0,16-0.5,24.1-1.3
	c6.4-0.7,11.1-6.2,10.8-12.5c-0.7-20.2,11.3-39.1,30-46.7c18-7.4,41.3-2,54.3,12.3c4.4,4.7,11.5,5.2,16.5,1.3
	c13.1-10.3,24.9-22.1,35.4-35c4-5.1,3.5-12.3-1.3-16.7c-15.2-13.8-20.2-35.7-12.3-54.6c7.4-17.7,25.4-29.7,44.8-29.7h2.7
	c6.2,0.5,12.1-4.4,12.8-10.8C477.7,258.5,477.7,241.8,475.8,225.1z M366.5,314.3l-3.2-3.2c-4.8,9.3-11.2,17.7-19.2,25.1
	c-6.4,6.9-13.5,12.6-21.3,17.1l2.8,2.8c-19.2,12.5-42.5,19.7-67.6,19.7c-69.8,0-126.2-56.6-126.2-126.2
	c0-69.8,56.6-126.2,126.2-126.2S384.3,180,384.3,249.5C384.3,273.1,377.7,295.4,366.5,314.3z"/>
</svg>
