<?xml version="1.0" encoding="utf-8"?>
<!-- Generator: Adobe Illustrator 24.0.1, SVG Export Plug-In . SVG Version: 6.00 Build 0)  -->
<svg version="1.1" id="Layer_1" xmlns="http://www.w3.org/2000/svg" xmlns:xlink="http://www.w3.org/1999/xlink" x="0px" y="0px"
	 viewBox="0 0 512 512" style="enable-background:new 0 0 512 512;" xml:space="preserve">
<style type="text/css">
	.st0{display:none;}
	.st1{display:inline;fill:#200A7F;stroke:#18E5EA;stroke-width:20;stroke-miterlimit:10;}
	.st2{display:inline;fill:#EF0B79;}
	.st3{display:inline;fill:#18E5EA;}
	.st4{display:inline;}
	.st5{fill:#E9F21C;}
	.st6{display:inline;fill:none;}
	.st7{display:inline;fill:#EF3A24;}
	.st8{font-family:'MyriadPro-Regular';}
	.st9{font-size:250px;}
	.st10{display:inline;fill:#FFFFFF;}
	.st11{opacity:0.48;fill:#969696;enable-background:new    ;}
	.st12{fill:url(#SVGID_1_);stroke:#D8D8D8;stroke-width:2;stroke-miterlimit:10;}
	.st13{fill:#EDF5E1;stroke:url(#SVGID_2_);stroke-width:4;stroke-miterlimit:10;}
	.st14{fill:#B4B4B3;}
	.st15{fill:#3A3E48;}
	.st16{fill:#FFBA00;}
	.st17{fill:#928170;}
	.st18{fill:#354A9F;}
	.st19{fill:#583EAB;}
	.st20{fill:#7B54BF;}
	.st21{fill:#FFFFFF;}
	.st22{fill:#AA44B9;}
	.st23{fill:#F9D842;}
	.st24{fill:#FFE749;}
</style>
<g id="Layer_3" class="st0">
	<path class="st1" d="M401.1,212.2c5.1,15.3,7.9,31.7,7.9,48.8c0,85.3-69.2,154.5-154.5,154.5S100,346.3,100,261
		s69.2-154.5,154.5-154.5c51.2,0,96.6,24.9,124.7,63.3"/>
	<path class="st2" d="M333.4,255.2c0,4.2-3.3,7.7-7.4,7.7H174.9c-4.1,0-7.4-3.4-7.4-7.7l0,0c0-4.2,3.3-7.7,7.4-7.7H326
		C330.1,247.5,333.4,250.9,333.4,255.2L333.4,255.2z"/>
	<path class="st2" d="M333.4,284.8c0,4.2-3.3,7.6-7.4,7.6H174.9c-4.1,0-7.4-3.4-7.4-7.6l0,0c0-4.2,3.3-7.6,7.4-7.6H326
		C330.1,277.1,333.4,280.6,333.4,284.8L333.4,284.8z"/>
	<path class="st2" d="M333.4,313c0,4.2-3.3,7.7-7.4,7.7H174.9c-4.1,0-7.4-3.4-7.4-7.7l0,0c0-4.2,3.3-7.6,7.4-7.6H326
		C330.1,305.4,333.4,308.8,333.4,313L333.4,313z"/>
	<path class="st2" d="M333.4,338.4c0,4.2-3.3,7.7-7.4,7.7H174.9c-4.1,0-7.4-3.4-7.4-7.7l0,0c0-4.2,3.3-7.6,7.4-7.6H326
		C330.1,330.7,333.4,334.1,333.4,338.4L333.4,338.4z"/>
	<polygon class="st3" points="395,191.5 320.2,165.2 380.4,113.5 	"/>
	<g class="st4">
		<g>
			<g>
				<path class="st5" d="M241.5,239.2c-2.3,0-4.4-1.1-5.8-2.9l-18.8-24.8c-2.4-3.2-1.8-7.8,1.4-10.3c3.2-2.4,7.8-1.8,10.3,1.4
					l12.3,16.3l31-49.8c2.1-3.4,6.6-4.5,10.1-2.3c3.4,2.1,4.5,6.6,2.3,10.1l-36.7,58.9c-1.3,2-3.5,3.3-5.9,3.4
					C241.7,239.2,241.6,239.2,241.5,239.2z"/>
			</g>
		</g>
	</g>
</g>
<g id="Layer_2_2_" class="st0">
	<rect x="121" y="171.5" class="st6" width="298" height="251"/>
	<text transform="matrix(1 0 0 1 121 348.9979)" class="st7 st8 st9">24</text>
	<circle class="st10" cx="138.3" cy="91.8" r="17.3"/>
	<circle class="st10" cx="185.3" cy="91.8" r="17.3"/>
	<circle class="st10" cx="232.3" cy="91.8" r="17.3"/>
	<circle class="st10" cx="278.3" cy="91.8" r="17.3"/>
	<circle class="st10" cx="323.3" cy="91.8" r="17.3"/>
	<circle class="st10" cx="368.3" cy="91.8" r="17.3"/>
</g>
<circle class="st11" cx="255.6" cy="260.3" r="244.6"/>
<linearGradient id="SVGID_1_" gradientUnits="userSpaceOnUse" x1="10" y1="262.7" x2="499.2" y2="262.7" gradientTransform="matrix(1 0 0 -1 0 512)">
	<stop  offset="0" style="stop-color:#FFF7A9"/>
	<stop  offset="0.5" style="stop-color:#FFF100"/>
	<stop  offset="1" style="stop-color:#FFD700"/>
</linearGradient>
<path class="st12" d="M499.2,249.3c0,76.1-34.7,144-89.2,188.9c-42.3,34.8-96.4,55.7-155.4,55.7c-3.2,0-6.3-0.1-9.5-0.2
	c-50.6-1.9-97.3-19.3-135.5-47.4C49.2,401.8,10,330.1,10,249.3c0-1.7,0-3.4,0.1-5C12.7,111.5,121.2,4.7,254.6,4.7
	c13.5,0,26.7,1.1,39.5,3.2C406,26.1,492.4,120.1,498.8,235.5C499.1,240,499.2,244.7,499.2,249.3z"/>
<linearGradient id="SVGID_2_" gradientUnits="userSpaceOnUse" x1="305.5" y1="-168.1" x2="305.5" y2="-168.1" gradientTransform="matrix(1 0 0 1 0 332)">
	<stop  offset="0" style="stop-color:#FFFF25"/>
	<stop  offset="3.320000e-02" style="stop-color:#FAED31"/>
	<stop  offset="9.210000e-02" style="stop-color:#F4D242"/>
	<stop  offset="0.1523" style="stop-color:#EFBF4E"/>
	<stop  offset="0.2141" style="stop-color:#ECB456"/>
	<stop  offset="0.28" style="stop-color:#EBB058"/>
	<stop  offset="0.67" style="stop-color:#DB7971"/>
	<stop  offset="0.89" style="stop-color:#CD497E"/>
	<stop  offset="1" style="stop-color:#BB1284"/>
</linearGradient>
<path class="st13" d="M305.5,163.9"/>
<g transform="translate(-1)">
	<g>
		<g>
			<circle class="st14" cx="263.6" cy="245.5" r="142.8"/>
			<circle class="st14" cx="328.8" cy="185.9" r="26"/>
			<circle class="st14" cx="360.4" cy="242" r="16.3"/>
		</g>
		<path class="st15" d="M317.1,113.1l4.4-21.4c0.7-3.5-1.6-6.9-5.1-7.6l-38.2-7.7c-3.5-0.7-6.9,1.6-7.6,5.1l-4.4,21.4"/>
	</g>
	<path class="st16" d="M494.6,54.1c0,0-53.7,0.9-71.3,10.9c-8,4.6-13.1,13.1-13.2,22.4s4.9,17.8,12.9,22.5c8,4.7,17.9,4.7,26,0
		C466.5,99.9,494.6,54.1,494.6,54.1z"/>
	<path id="SVGCleanerId_0" class="st17" d="M296,86.5c-1.7-0.3-3.2-1.4-4.2-2.8c-1-1.4-1.3-3.2-1-4.9l4.5-21.7
		c2.3-11.7,9.7-21.7,20.2-27.2c10.7-5.2,31.5-8.3,51.2,26.9c15.7,28.2,33.2,33.7,45.1,33.3c3.6-0.1,6.5,2.7,6.6,6.3
		c0.1,3.6-2.7,6.5-6.3,6.6c-15.6,0.4-38.1-6.1-56.8-40c-11-19.7-22.5-27-34.2-21.4c-6.9,3.7-11.7,10.3-13.1,18l-4.5,21.7
		c-0.3,1.7-1.4,3.2-2.8,4.2C299.4,86.5,297.7,86.8,296,86.5L296,86.5z"/>
	<g>
		<path class="st18" d="M316.9,114l4.5-22.1c0.8-3.6-1.5-7-5.1-7.8l-38.2-7.7c-3.6-0.7-7,1.7-7.7,5.3l-4.5,22.1"/>
		<path class="st19" d="M403.6,274c-15.8,77.3-91.1,127.1-168.4,111.5c-77.3-15.7-127.1-91-111.5-168.4
			c15.7-77.3,91-127.1,168.4-111.5c37.1,7.5,69.7,29.5,90.6,61.1C403.7,198.2,411.1,236.9,403.6,274L403.6,274z"/>
		<path class="st20" d="M374.2,287.9c-7.8,38.5-31.1,72.1-64.5,92.7c-68.7,23.4-144-8.4-175.1-74s-8-144,53.5-182.4
			c48.4-16.5,101.9-5.9,140.3,28C367,186,384.4,237.8,374.2,287.9L374.2,287.9z"/>
		<circle class="st21" cx="328.8" cy="185.9" r="26"/>
		<circle class="st22" cx="360.4" cy="242" r="16.3"/>
	</g>
	<path class="st23" d="M494.6,54.1c0,0-28.1,45.9-45.6,55.9c-6,3.4-13,4.4-19.6,2.6c-6.6-1.8-12.3-6.1-15.7-12.1
		c-0.7-1.2-1.2-2.4-1.7-3.7c-4.6-11.9,0.2-25.4,11.3-31.7c9-5.2,27.5-7.8,43.3-9.3C481.8,54.3,494.6,54.1,494.6,54.1z"/>
	<path class="st24" d="M466.6,55.7c-9.7,14.1-24,32.8-34.4,38.8c-6.1,3.6-13.5,4.4-20.2,2.3c-4.6-11.9,0.2-25.4,11.3-31.7
		C432.3,59.9,450.8,57.2,466.6,55.7z"/>
	<g>
		<path id="SVGCleanerId_0_1_" class="st17" d="M296,86.5c-1.7-0.3-3.2-1.4-4.2-2.8c-1-1.4-1.3-3.2-1-4.9l4.5-21.7
			c2.3-11.7,9.7-21.7,20.2-27.2c10.7-5.2,31.5-8.3,51.2,26.9c15.7,28.2,33.2,33.7,45.1,33.3c3.6-0.1,6.5,2.7,6.6,6.3
			c0.1,3.6-2.7,6.5-6.3,6.6c-15.6,0.4-38.1-6.1-56.8-40c-11-19.7-22.5-27-34.2-21.4c-6.9,3.7-11.7,10.3-13.1,18l-4.5,21.7
			c-0.3,1.7-1.4,3.2-2.8,4.2C299.4,86.5,297.7,86.8,296,86.5L296,86.5z"/>
	</g>
	<g>
		<path d="M322.3,217.7c17.6,3.6,34.7-7.7,38.3-25.3s-7.7-34.7-25.3-38.3c-17.6-3.6-34.7,7.7-38.3,25.3S304.7,214.1,322.3,217.7
			L322.3,217.7z M332.7,166.9c10.5,2.2,17.4,12.4,15.2,22.9c-2.2,10.5-12.4,17.4-22.9,15.2c-10.5-2.2-17.4-12.4-15.2-22.9
			C311.8,171.5,322.1,164.7,332.7,166.9L332.7,166.9z"/>
		<path d="M338.1,237.5c-2.5,12.3,5.5,24.3,17.8,26.8c12.3,2.5,24.3-5.5,26.8-17.8c2.5-12.3-5.5-24.3-17.8-26.8
			S340.6,225.2,338.1,237.5z M362.3,232.5c5.3,1.1,8.6,6.2,7.6,11.5c-1.1,5.3-6.2,8.6-11.5,7.6c-5.3-1.1-8.6-6.2-7.6-11.5
			C351.9,234.8,357.1,231.4,362.3,232.5z"/>
		<path d="M366.7,56.9C347,21.7,326.2,25,315.5,30c-10.5,5.5-17.9,15.5-20.1,27.2l-3.2,15.4L279.5,70c-7-1.4-13.9,3.1-15.3,10.1
			l-3.4,16.3C184.8,97.7,121.9,156.3,115,232s44.3,144.7,118.9,159.9s148.7-28.3,171.9-100.7c23.2-72.5-11.8-150.8-81.3-181.9
			l3.3-16.3c1.4-7-3.1-13.9-10.1-15.3l-12.7-2.6l3.2-15.4c1.4-7.7,6.1-14.4,13.1-18c11.6-5.6,23.1,1.7,34.2,21.4
			c17.2,30.8,37.3,39,52.6,39.9c0.1,0.2,0.1,0.4,0.2,0.5c4.3,7.4,11.3,12.9,19.6,15.2c0.7,0.2,1.4,0.4,2.1,0.5
			c7.6,1.6,15.7,0.3,22.5-3.7c18.4-10.5,44.9-53.4,47.9-58.1c1.2-2,1.3-4.6,0.1-6.6c-1.2-2.1-3.4-3.3-5.8-3.3
			c-5.7,0.1-55.9,1.3-74.4,11.8c-10.8,6-17.1,17.8-16.2,30.1C392.9,87.4,379.2,79.4,366.7,56.9z M397.2,272.7
			c-15,73.8-87,121.4-160.6,106.4c-73.8-15-121.4-87-106.4-160.6c15-73.8,86.9-121.5,160.6-106.5C364.5,127,412.1,198.9,397.2,272.7
			L397.2,272.7z M312.2,104.4c-12.3-4.3-25.2-6.9-38.2-7.7l2.9-14l38.2,7.7L312.2,104.4z M426.6,70.7c10.4-5.9,37.7-8.6,55.9-9.6
			c-10.1,15.2-26.3,37.4-36.7,43.3c-9.3,5.4-21.1,2.1-26.5-7.2S417.3,76,426.6,70.7z"/>
	</g>
</g>
</svg>
