<?xml version="1.0" encoding="utf-8"?>
<!-- Generator: Adobe Illustrator 24.0.1, SVG Export Plug-In . SVG Version: 6.00 Build 0)  -->
<svg version="1.1" id="Layer_1" xmlns="http://www.w3.org/2000/svg" xmlns:xlink="http://www.w3.org/1999/xlink" x="0px" y="0px"
	 viewBox="0 0 512 512" style="enable-background:new 0 0 512 512;" xml:space="preserve">
<style type="text/css">
	.st0{display:none;}
	.st1{display:inline;fill:#200A7F;stroke:#18E5EA;stroke-width:20;stroke-miterlimit:10;}
	.st2{display:inline;fill:#EF0B79;}
	.st3{display:inline;fill:#18E5EA;}
	.st4{display:inline;}
	.st5{fill:#E9F21C;}
	.st6{display:inline;fill:none;}
	.st7{display:inline;fill:#EF3A24;}
	.st8{font-family:'MyriadPro-Regular';}
	.st9{font-size:250px;}
	.st10{display:inline;fill:#FFFFFF;}
	.st11{opacity:0.48;fill:#969696;enable-background:new    ;}
	.st12{fill:url(#SVGID_1_);stroke:#D8D8D8;stroke-width:2;stroke-miterlimit:10;}
	.st13{fill:#FDB0A0;}
	.st14{fill:#F69583;}
	.st15{fill:#FFCEC0;}
</style>
<g id="Layer_3" class="st0">
	<path class="st1" d="M401.1,212.2c5.1,15.3,7.9,31.7,7.9,48.8c0,85.3-69.2,154.5-154.5,154.5S100,346.3,100,261
		s69.2-154.5,154.5-154.5c51.2,0,96.6,24.9,124.7,63.3"/>
	<path class="st2" d="M333.4,255.2c0,4.2-3.3,7.7-7.4,7.7H174.9c-4.1,0-7.4-3.4-7.4-7.7l0,0c0-4.2,3.3-7.7,7.4-7.7H326
		C330.1,247.5,333.4,250.9,333.4,255.2L333.4,255.2z"/>
	<path class="st2" d="M333.4,284.8c0,4.2-3.3,7.6-7.4,7.6H174.9c-4.1,0-7.4-3.4-7.4-7.6l0,0c0-4.2,3.3-7.6,7.4-7.6H326
		C330.1,277.1,333.4,280.6,333.4,284.8L333.4,284.8z"/>
	<path class="st2" d="M333.4,313c0,4.2-3.3,7.7-7.4,7.7H174.9c-4.1,0-7.4-3.4-7.4-7.7l0,0c0-4.2,3.3-7.6,7.4-7.6H326
		C330.1,305.4,333.4,308.8,333.4,313L333.4,313z"/>
	<path class="st2" d="M333.4,338.4c0,4.2-3.3,7.7-7.4,7.7H174.9c-4.1,0-7.4-3.4-7.4-7.7l0,0c0-4.2,3.3-7.6,7.4-7.6H326
		C330.1,330.7,333.4,334.1,333.4,338.4L333.4,338.4z"/>
	<polygon class="st3" points="395,191.5 320.2,165.2 380.4,113.5 	"/>
	<g class="st4">
		<g>
			<g>
				<path class="st5" d="M241.5,239.2c-2.3,0-4.4-1.1-5.8-2.9l-18.8-24.8c-2.4-3.2-1.8-7.8,1.4-10.3c3.2-2.4,7.8-1.8,10.3,1.4
					l12.3,16.3l31-49.8c2.1-3.4,6.6-4.5,10.1-2.3c3.4,2.1,4.5,6.6,2.3,10.1l-36.7,58.9c-1.3,2-3.5,3.3-5.9,3.4
					C241.7,239.2,241.6,239.2,241.5,239.2z"/>
			</g>
		</g>
	</g>
</g>
<g id="Layer_2_2_" class="st0">
	<rect x="121" y="171.5" class="st6" width="298" height="251"/>
	<text transform="matrix(1 0 0 1 121 348.9979)" class="st7 st8 st9">24</text>
	<circle class="st10" cx="138.3" cy="91.8" r="17.3"/>
	<circle class="st10" cx="185.3" cy="91.8" r="17.3"/>
	<circle class="st10" cx="232.3" cy="91.8" r="17.3"/>
	<circle class="st10" cx="278.3" cy="91.8" r="17.3"/>
	<circle class="st10" cx="323.3" cy="91.8" r="17.3"/>
	<circle class="st10" cx="368.3" cy="91.8" r="17.3"/>
</g>
<circle class="st11" cx="255.6" cy="260.3" r="244.6"/>
<radialGradient id="SVGID_1_" cx="254.6" cy="249.3" r="244.6" gradientUnits="userSpaceOnUse">
	<stop  offset="0" style="stop-color:#F074AC"/>
	<stop  offset="0.5" style="stop-color:#EB008B"/>
	<stop  offset="1" style="stop-color:#CD118C"/>
</radialGradient>
<path class="st12" d="M499.2,249.3c0,28.1-4.7,55-13.4,80.2c0,0,0,0,0,0c-3.2,9.3-7,18.4-11.3,27.2c-1.4,2.8-2.8,5.6-4.3,8.4
	c0,0,0,0,0,0c-0.1,0.1-0.1,0.2-0.2,0.3c-1.4,2.6-2.9,5.2-4.4,7.7c-3.6,6.1-7.4,12-11.5,17.7c-0.9,1.3-1.9,2.6-2.8,3.9
	c-2.6,3.5-5.3,7-8.1,10.4c-4.4,5.3-9,10.5-13.9,15.4c-2.1,2.1-4.2,4.2-6.3,6.2c0,0-0.1,0.1-0.1,0.1c-0.1,0.1-0.3,0.3-0.4,0.4
	c-0.2,0.2-0.4,0.4-0.7,0.6c0,0-0.1,0.1-0.1,0.1c-0.1,0.1-0.2,0.2-0.3,0.3c-1.7,1.6-3.4,3.1-5.2,4.7c-5.2,4.6-10.6,8.9-16.1,13.1
	c-2.3,1.7-4.7,3.4-7.1,5c0,0,0,0-0.1,0c-0.1,0.1-0.2,0.2-0.4,0.3c-39.3,26.9-86.8,42.6-138,42.6c-37.6,0-73.2-8.5-105-23.6
	c-0.1,0-0.2-0.1-0.3-0.1c-6.6-3.2-13.1-6.6-19.4-10.4c-0.1,0-0.1-0.1-0.2-0.1h0c-3.8-2.2-7.5-4.6-11.1-7c0,0,0,0-0.1,0
	c-2.5-1.7-4.9-3.4-7.3-5.1c-5.6-4-11-8.3-16.2-12.8c-2.1-1.8-4.1-3.6-6.2-5.5c0,0-0.1-0.1-0.1-0.1c0,0,0,0-0.1,0
	c-0.1-0.1-0.2-0.2-0.3-0.2c0,0-0.1-0.1-0.1-0.1c0,0-0.1-0.1-0.1-0.1c-2.1-1.9-4.2-3.9-6.2-5.9c-4.9-4.9-9.6-9.9-14-15.2
	c-2.5-3-5-6-7.4-9.1c-1.3-1.6-2.5-3.3-3.7-4.9c-4.1-5.6-8-11.5-11.6-17.5c-1.6-2.6-3.1-5.2-4.5-7.8c0,0,0,0,0,0c0,0,0-0.1-0.1-0.1
	c0,0,0,0,0,0c-1.5-2.7-3-5.5-4.4-8.2C32,351.2,28,342.2,24.7,333c0,0,0-0.1-0.1-0.1C15.2,306.8,10,278.6,10,249.3
	c0-42.5,10.9-82.6,30-117.4c17.3-31.6,41.4-59,70.4-80.1c40.4-29.6,90.3-47,144.3-47c53.9,0,103.7,17.4,144.1,47
	c28.8,21,52.8,48.1,70.1,79.5C488.2,166.2,499.2,206.5,499.2,249.3z"/>
<g>
	<g>
		<g>
			<g>
				<g>
					<path class="st13" d="M430.8,19.7l-3.4,3.4L430.8,19.7z"/>
					<path class="st13" d="M468.8,131.1L345.1,253.8l-13.7,13.6l-60.9,60.4l-1.7,1.8l-13.3,13.2l-2.9,2.9c-0.8,0.7-1.5,1.6-2.2,2.3
						c-0.4,0.5-0.9,0.9-1.3,1.5c-0.3,0.3-0.6,0.7-0.9,1c-0.2,0.2-0.4,0.5-0.6,0.7c-0.3,0.4-0.8,0.8-1.1,1.3
						c-0.2,0.2-0.4,0.5-0.5,0.7c-0.4,0.5-0.9,1-1.2,1.6c-0.4,0.5-0.9,1.1-1.3,1.8c-0.4,0.6-0.9,1.2-1.3,1.9c-0.2,0.3-0.4,0.7-0.6,1
						c-0.3,0.4-0.5,0.8-0.9,1.3c-0.4,0.7-0.8,1.3-1.2,2.1c-0.4,0.7-0.8,1.3-1.2,2.1c-1.1,1.9-1.9,3.8-2.8,5.8
						c-0.2,0.5-0.5,1-0.8,1.7c-0.1,0.1-0.1,0.3-0.2,0.4c-0.2,0.5-0.4,1-0.6,1.6c-0.1,0.3-0.3,0.6-0.4,0.9c-0.1,0.1-0.1,0.3-0.2,0.4
						c-0.3,0.7-0.5,1.4-0.7,2.1c0,0.1-0.1,0.2-0.1,0.3c-0.2,0.6-0.4,1.2-0.6,1.8c-0.2,0.6-0.4,1.2-0.7,1.9c-0.1,0.3-0.2,0.5-0.3,0.8
						c0,0.1-0.1,0.2-0.1,0.3c0,0.1-0.1,0.2-0.1,0.2c0,0,0,0.1,0,0.1c0,0,0,0.1-0.1,0.1c0,0.1-0.1,0.3-0.1,0.4c0,0,0,0,0,0.1
						c-0.2,0.4-0.3,0.8-0.5,1.3c-0.3,0.8-0.6,1.7-1.1,2.5c0,0.1-0.1,0.2-0.1,0.3c-0.2,0.4-0.3,0.8-0.5,1.2c-0.2,0.5-0.4,1-0.8,1.6
						c-2.9,6.4-6.5,12.5-10.6,18.3c-4.1,5.8-8.7,11.2-13.9,16.2l-14.8,13.7l-17.9,16.8l-9.1,8.6l-0.4,0.4c-0.1,0.1-0.2,0.2-0.3,0.3
						c-0.1,0.1-0.3,0.3-0.4,0.4c-0.1,0.2-0.3,0.3-0.4,0.3c0,0-0.1,0-0.1,0.1c-0.1,0.1-0.2,0.1-0.3,0.2c-0.5,0.4-1.1,0.8-1.6,1.1
						c-0.3,0.2-0.5,0.3-0.9,0.5c-0.3,0.2-0.5,0.3-0.9,0.5c-0.3,0.1-0.5,0.3-0.8,0.4c-0.2,0.1-0.4,0.2-0.6,0.3
						c-0.2,0.1-0.5,0.2-0.8,0.3h-0.1c-0.2,0.1-0.4,0.1-0.5,0.2c-0.2,0.1-0.3,0.1-0.5,0.2c-0.3,0.1-0.6,0.2-1,0.2
						c-0.3,0.1-0.6,0.1-1,0.2c-0.5,0.1-1,0.2-1.5,0.2c-0.5,0.1-1,0.1-1.4,0.1h-2.5c-0.2,0-0.4,0-0.6-0.1c-0.4,0-0.9-0.1-1.3-0.2
						c-0.3,0-0.5-0.1-0.8-0.2c-0.2,0-0.4-0.1-0.5-0.1c-0.6-0.2-1.3-0.3-1.9-0.6c-0.3-0.1-0.5-0.2-0.9-0.3c-0.1-0.1-0.3-0.1-0.4-0.2
						c-0.3-0.2-0.8-0.3-1.1-0.5c-0.3-0.2-0.6-0.3-1-0.5c-0.2-0.1-0.4-0.3-0.8-0.5c-0.2-0.1-0.4-0.3-0.6-0.4c0,0-0.1,0-0.1-0.1
						c-0.2-0.2-0.4-0.3-0.6-0.5l-0.1-0.1c-0.2-0.2-0.4-0.3-0.6-0.5c-1.7-1.6-3.1-3.4-4-5.4c0,0,0-0.1,0-0.1
						c-0.7-1.3-1.2-2.8-1.5-4.2c-0.2-0.6-0.3-1.2-0.4-1.8c-0.1-0.5-0.1-1-0.1-1.5c0-0.3,0-0.5,0-0.8c0-0.2,0-0.3,0-0.5
						c0-0.2,0-0.3,0-0.5v-0.3c0-0.1,0-0.2,0-0.2c0-0.1,0-0.2,0-0.4c0-0.2,0-0.4,0-0.5c0,0,0,0,0,0c0-0.1,0-0.3,0-0.4
						c0-0.2,0-0.3,0.1-0.5c0-0.1,0-0.2,0-0.3c0-0.1,0-0.2,0.1-0.3c0,0,0-0.1,0-0.1c0-0.1,0-0.2,0.1-0.3c0-0.1,0.1-0.3,0.1-0.4
						c0-0.1,0.1-0.3,0.1-0.5c0.1-0.4,0.2-0.8,0.4-1.2c0-0.1,0-0.2,0.1-0.2h0c0.1-0.3,0.2-0.6,0.4-1c0.2-0.5,0.4-1.1,0.7-1.6
						c0.1-0.2,0.2-0.4,0.3-0.6c0-0.1,0.1-0.1,0.1-0.2c0-0.1,0-0.1,0.1-0.1c0.1-0.2,0.3-0.4,0.4-0.6c0.2-0.3,0.3-0.5,0.5-0.8
						c0-0.1,0.1-0.1,0.2-0.2c0.1-0.1,0.1-0.2,0.2-0.3c0.1-0.1,0.2-0.3,0.3-0.4l-4.6,4.6l-8.8,8.7c-0.1,0.1-0.2,0.2-0.3,0.3
						s-0.3,0.2-0.4,0.4c-0.5,0.4-1,0.8-1.5,1.2c-1.1,0.7-2.1,1.3-3.2,1.9c-0.3,0.1-0.5,0.3-0.9,0.4c-0.1,0-0.2,0.1-0.2,0.1
						c0,0-0.1,0-0.1,0.1c0,0,0,0,0,0c0,0-0.1,0.1-0.1,0.1c0,0,0,0-0.1,0c0,0-0.1,0-0.1,0c-0.1,0-0.2,0-0.3,0
						c-0.2,0.1-0.4,0.1-0.6,0.2c-0.1,0-0.1,0-0.2,0.1c-0.1,0-0.1,0-0.2,0.1c0,0,0,0-0.1,0c-0.1,0-0.3,0.1-0.4,0.1c0,0,0,0,0,0
						c-0.1,0-0.1,0-0.2,0c-0.3,0.1-0.6,0.1-0.8,0.2c-1.3,0.2-2.5,0.3-3.8,0.3h-1c-0.3,0-0.8,0-1.1-0.1c-0.2,0-0.4,0-0.6-0.1h-0.3
						c-0.1,0-0.2,0-0.3-0.1c-0.2,0-0.3-0.1-0.5-0.1c-0.1,0-0.1,0-0.2,0c0,0,0,0-0.1,0c-0.1,0-0.3-0.1-0.3-0.1
						c-0.2,0-0.4-0.1-0.6-0.2c-0.6-0.2-1.3-0.4-1.9-0.6c-0.3-0.1-0.5-0.2-0.8-0.4c-0.3-0.1-0.5-0.3-0.9-0.4
						c-0.2-0.1-0.4-0.2-0.6-0.3c-0.1,0-0.2-0.1-0.2-0.1c-0.2-0.1-0.5-0.3-0.8-0.4c-0.2-0.1-0.4-0.3-0.7-0.4
						c-0.3-0.2-0.7-0.5-1.1-0.8c-0.4-0.4-0.8-0.7-1.3-1.1c-0.5-0.5-1-0.9-1.4-1.5c-0.2-0.2-0.3-0.4-0.5-0.7
						c-0.2-0.2-0.3-0.4-0.4-0.6c-0.2-0.3-0.4-0.6-0.6-1c-0.3-0.5-0.6-1-0.9-1.6c-0.3-0.5-0.5-1.1-0.8-1.8c-0.2-0.5-0.3-1-0.5-1.7
						c0-0.2-0.1-0.3-0.1-0.5V443c0-0.2-0.1-0.4-0.1-0.6V442c0-0.2-0.1-0.5-0.1-0.7c0,0,0,0,0-0.1V438c0-0.1,0-0.2,0-0.2v-0.4
						c0-0.2,0-0.5,0.1-0.7c0-0.1,0-0.1,0-0.2c0,0,0,0,0-0.1c0,0,0-0.1,0-0.2v-0.3c0-0.1,0-0.2,0.1-0.3v-0.3c0-0.1,0-0.2,0.1-0.3
						c0-0.1,0-0.1,0-0.2c0-0.3,0.1-0.5,0.2-0.8c0.1-0.4,0.2-0.8,0.3-1.1c0.1-0.3,0.2-0.6,0.3-1c0,0,0,0,0-0.1c0-0.1,0,0,0-0.1
						c0,0,0,0,0,0c0-0.1,0.1-0.2,0.1-0.3c0,0,0,0,0-0.1c0.1-0.3,0.2-0.4,0.3-0.7c0,0,0-0.1,0-0.2c0-0.1,0-0.1,0.1-0.2
						c0.2-0.3,0.3-0.6,0.5-0.9c0,0,0-0.1,0.1-0.1c0.2-0.3,0.3-0.5,0.5-0.8c0.1-0.1,0.1-0.2,0.2-0.3c0,0,0-0.1,0.1-0.1
						c0.1-0.2,0.3-0.5,0.5-0.7c0.3-0.4,0.6-0.8,1-1.2l-2.8,2.8l-3.5,3.4c-0.2,0.2-0.5,0.4-0.8,0.7c-0.5,0.4-1,0.8-1.5,1.2
						c-0.3,0.2-0.5,0.4-0.8,0.5c-0.1,0.1-0.3,0.2-0.4,0.3c-0.4,0.3-0.9,0.5-1.3,0.7c0,0-0.1,0-0.1,0.1c-0.2,0.1-0.4,0.2-0.8,0.3
						c-0.2,0.1-0.5,0.2-0.8,0.3h-0.1c-0.3,0.1-0.5,0.2-0.9,0.3c-0.1,0-0.1,0-0.2,0.1c-0.1,0-0.3,0.1-0.4,0.1
						c-0.3,0.1-0.5,0.2-0.9,0.2c-0.1,0-0.3,0.1-0.4,0.1h-0.1c-0.1,0-0.2,0-0.3,0.1c-0.2,0-0.4,0.1-0.6,0.1h-0.1
						c-0.1,0-0.3,0-0.4,0.1c-0.2,0-0.3,0.1-0.5,0.1H73c-0.1,0-0.1,0-0.2,0h-3.7c-0.1,0-0.1,0-0.2,0h-0.3c-0.2,0-0.4,0-0.5-0.1
						c0,0,0,0-0.1,0c-0.2,0-0.3,0-0.5-0.1c0,0,0,0,0,0c-0.1,0-0.2,0-0.3-0.1c-0.1,0-0.1,0-0.2,0s-0.2,0-0.3-0.1
						c-0.3-0.1-0.5-0.1-0.9-0.2c-0.2-0.1-0.4-0.1-0.6-0.2c-0.3-0.1-0.8-0.2-1.1-0.3c-0.1,0-0.1,0-0.2-0.1c-0.2-0.1-0.4-0.2-0.5-0.2
						c-0.2-0.1-0.3-0.2-0.5-0.2c-0.1,0-0.1-0.1-0.2-0.1h-0.1c-0.2-0.1-0.4-0.2-0.8-0.4c-0.2-0.1-0.5-0.3-0.7-0.4c0,0,0,0-0.1,0
						c-0.2-0.1-0.5-0.3-0.8-0.5c-0.2-0.2-0.5-0.3-0.8-0.5c-0.2-0.2-0.5-0.4-0.8-0.5c-0.2-0.2-0.4-0.4-0.6-0.6
						c-0.5-0.5-1-0.9-1.4-1.5c-0.2-0.2-0.4-0.5-0.6-0.7c-0.2-0.3-0.4-0.6-0.6-0.8c-0.2-0.2-0.3-0.5-0.5-0.8
						c-0.2-0.3-0.3-0.5-0.5-0.8c-0.1-0.3-0.3-0.5-0.4-0.8c-0.3-0.6-0.5-1.2-0.8-1.9c-0.1-0.3-0.2-0.6-0.3-0.8c0,0,0,0,0-0.1
						c-0.1-0.2-0.1-0.4-0.2-0.6c-0.1-0.2-0.1-0.4-0.2-0.6c0-0.1,0-0.1,0-0.2c0,0,0,0,0-0.1c-0.1-0.3-0.1-0.7-0.2-1
						c0-0.3-0.1-0.7-0.1-1v-0.3c0-0.1,0-0.1,0-0.2v-1.7c0-0.6,0-1.2,0.1-1.9c0-0.2,0-0.4,0.1-0.6c0-0.3,0.1-0.5,0.1-0.8
						c0-0.1,0-0.3,0.1-0.4c0.1-0.3,0.1-0.6,0.2-0.8c0.1-0.3,0.1-0.6,0.2-0.9c0-0.1,0.1-0.3,0.1-0.5v0c0-0.1,0.1-0.2,0.1-0.3
						c0,0,0,0,0,0c0,0,0,0,0-0.1c0-0.1,0-0.1,0.1-0.2c0,0,0,0,0,0c0.1-0.3,0.3-0.7,0.4-1c0.2-0.4,0.4-0.8,0.6-1.2
						c0,0,0.1-0.1,0.1-0.2c0,0,0,0,0,0c0-0.1,0.1-0.1,0.1-0.2c0,0,0,0,0,0l0.2-0.4c0.2-0.3,0.3-0.5,0.5-0.8c0.2-0.3,0.3-0.5,0.4-0.7
						c0,0,0.1-0.1,0.1-0.1c0.1-0.1,0.2-0.2,0.3-0.3c0,0,0-0.1,0-0.1c0.1-0.1,0.2-0.2,0.3-0.4c0.4-0.4,0.8-0.9,1.2-1.3l-6.9,6.8
						c-0.2,0.2-0.5,0.5-0.8,0.7c-0.8,0.7-1.6,1.3-2.3,1.9c-0.3,0.2-0.5,0.3-0.9,0.5c-0.5,0.3-1.2,0.6-1.7,0.9
						c-0.3,0.1-0.7,0.3-0.9,0.4c-0.3,0.1-0.6,0.2-0.9,0.3c-0.4,0.1-0.9,0.3-1.3,0.4c-0.2,0-0.3,0.1-0.5,0.1c-0.3,0.1-0.6,0.1-1,0.2
						c-0.2,0-0.3,0.1-0.5,0.1c-1.4,0.2-2.8,0.3-4.2,0.3h-1.1c-0.2,0-0.5,0-0.8-0.1c-0.1,0-0.1,0-0.2,0c-0.1,0-0.3,0-0.4-0.1
						c-0.1,0-0.2,0-0.4-0.1h-0.2c-1.2-0.2-2.5-0.6-3.5-1.1h-0.1c-0.3-0.2-0.6-0.3-1.1-0.5c-0.4-0.2-0.8-0.4-1.1-0.6
						c-0.3-0.2-0.8-0.4-1.1-0.7c-0.3-0.2-0.6-0.4-1-0.7l-0.2-0.2c-0.3-0.2-0.5-0.5-0.9-0.7c-0.2-0.2-0.3-0.3-0.5-0.5
						c-0.2-0.2-0.3-0.3-0.5-0.5c-0.3-0.3-0.6-0.7-1-1c-0.1-0.1-0.2-0.3-0.3-0.4c-0.6-0.8-1.1-1.5-1.6-2.4c-0.2-0.4-0.4-0.8-0.6-1.3
						c-0.1-0.2-0.2-0.4-0.3-0.6c-0.1-0.2-0.2-0.4-0.3-0.7s-0.2-0.6-0.3-0.9c-0.1-0.3-0.2-0.6-0.3-0.9c0-0.1,0-0.1,0-0.2
						c-0.1-0.6-0.2-1.1-0.3-1.7c0-0.1,0-0.1,0-0.2c0-0.4-0.1-0.7-0.1-1.1c0-0.1,0-0.2,0-0.2c-0.1-0.8-0.1-1.6,0-2.4v-0.3
						c0-0.2,0-0.5,0.1-0.7c0-0.3,0.1-0.5,0.1-0.7V396c0-0.2,0.1-0.4,0.1-0.6v-0.3c0-0.2,0.1-0.3,0.1-0.5c0-0.1,0-0.1,0-0.2
						c0,0,0,0,0-0.1v-0.1c0-0.1,0-0.2,0.1-0.3c0-0.2,0.1-0.3,0.1-0.5c0.1-0.3,0.1-0.5,0.2-0.8c0-0.1,0.1-0.3,0.1-0.4
						c0-0.2,0.1-0.3,0.2-0.5c0.1-0.3,0.2-0.5,0.3-0.8c0.1-0.3,0.3-0.5,0.4-0.8c0.1-0.3,0.3-0.5,0.4-0.8c0.1-0.2,0.2-0.4,0.4-0.6
						c0.4-0.6,0.9-1.1,1.3-1.8c0.2-0.2,0.3-0.4,0.5-0.6l0.1-0.1c0.2-0.2,0.4-0.5,0.6-0.7l0.4-0.4l14.3-14.1l0.5-0.5
						c-0.3-0.1-0.8-0.1-1.1-0.2c-0.2,0-0.3-0.1-0.5-0.1c-0.1,0-0.1,0-0.2,0H36c-0.1,0-0.3-0.1-0.4-0.1c-0.2,0-0.4-0.1-0.6-0.2
						c-0.2-0.1-0.4-0.1-0.5-0.2c-0.1,0-0.3-0.1-0.4-0.1c-0.1-0.1-0.3-0.1-0.4-0.2c-0.1,0-0.2-0.1-0.3-0.1s-0.2-0.1-0.2-0.1
						c-0.2-0.1-0.4-0.1-0.5-0.2c-0.1,0-0.2-0.1-0.3-0.1s-0.2-0.1-0.3-0.1s-0.2-0.1-0.3-0.1c-0.2-0.1-0.3-0.1-0.4-0.2
						c-0.3-0.1-0.5-0.3-0.9-0.4c-0.1,0-0.1-0.1-0.2-0.1c-0.2-0.1-0.3-0.2-0.5-0.3c-0.1-0.1-0.2-0.1-0.3-0.2
						c-0.1-0.1-0.1-0.1-0.2-0.2c-0.3-0.2-0.8-0.5-1.1-0.7c-0.2-0.2-0.5-0.4-0.8-0.5c-0.3-0.2-0.5-0.5-0.9-0.7s-0.5-0.5-0.8-0.8
						c-0.2-0.2-0.4-0.4-0.5-0.6c-0.2-0.2-0.4-0.4-0.5-0.6c-0.2-0.3-0.4-0.5-0.7-0.8c-0.2-0.2-0.3-0.4-0.4-0.6
						c-1-1.2-1.7-2.6-2.4-3.9c-0.1-0.2-0.2-0.5-0.3-0.7c0-0.1-0.1-0.2-0.1-0.3c-0.2-0.5-0.4-0.9-0.5-1.5c-0.1-0.3-0.2-0.5-0.2-0.8
						c0,0,0,0,0-0.1c-0.1-0.5-0.3-1-0.4-1.7c0,0,0,0,0-0.1c0-0.3-0.1-0.5-0.1-0.8c-0.1-0.5-0.1-1-0.2-1.6c0-0.1,0-0.2,0-0.2v-0.8
						c0-1,0-2.1,0.1-3.1c0-0.3,0.1-0.5,0.1-0.8v-0.4c0.1-0.3,0.1-0.6,0.2-0.9v-0.1c0.1-0.3,0.1-0.5,0.2-0.8c0-0.2,0.1-0.4,0.1-0.6
						c0-0.1,0.1-0.3,0.1-0.4c0.1-0.3,0.2-0.6,0.3-0.9c0,0,0-0.1,0-0.1c0,0,0,0,0,0c0,0,0,0,0.1-0.1c0.1-0.3,0.2-0.6,0.3-0.9
						c0-0.1,0.1-0.2,0.1-0.3c0,0,0-0.1,0-0.1c0.4-1,1-2.1,1.5-3c0.2-0.3,0.4-0.6,0.6-1c0.4-0.6,0.9-1.2,1.4-1.9
						c0.1-0.1,0.2-0.3,0.3-0.4c0.2-0.2,0.3-0.4,0.4-0.5c0.2-0.3,0.5-0.6,0.8-0.8l3-2.8l1.9-1.8l6.1-6l6.8-6.8l1.4-1.4
						c0.1-0.1,0.2-0.2,0.3-0.3l0.1-0.1l2.5-2.4l10.8-10.8c18-17.8,42.2-25.7,65.7-23.4c1,0.1,2,0.2,3,0.3c0.1,0,0.3,0,0.4,0.1
						c0.4,0.1,0.8,0.1,1.3,0.2c0,0,0,0,0,0c0.1,0,0.3,0,0.4,0c0.5,0.1,1.2,0.2,1.7,0.3c0.5,0.1,1.1,0.2,1.7,0.3
						c0.5,0.1,1.1,0.2,1.7,0.3c1.2,0.2,2.3,0.5,3.3,0.8c0.5,0.1,1,0.2,1.5,0.4c3.4,0.8,7,1.2,10.4,1.2h1.4c0.5,0,1.2,0,1.7-0.1
						c0.3,0,0.6,0,0.9-0.1c0,0,0,0,0.1,0c0.1,0,0.2,0,0.3,0c0.2,0,0.4-0.1,0.6-0.1c0.3,0,0.5-0.1,0.8-0.1c0.4-0.1,0.9-0.1,1.3-0.2
						c0.3,0,0.6-0.1,1-0.2c0.2,0,0.5-0.1,0.8-0.1c0.4-0.1,0.9-0.2,1.2-0.2c0.3,0,0.5-0.1,0.7-0.1c0.2,0,0.4-0.1,0.7-0.2
						c1-0.3,2-0.5,2.9-0.8c0.3-0.1,0.5-0.2,0.8-0.3c0.6-0.2,1.2-0.4,1.7-0.6c0.1,0,0.2-0.1,0.3-0.1c0.4-0.2,0.7-0.3,1.1-0.5
						c0.1-0.1,0.3-0.1,0.4-0.2c0,0,0.1,0,0.2-0.1c0,0,0.1,0,0.2-0.1c0.1-0.1,0.2-0.1,0.2-0.2c0.4-0.2,0.9-0.4,1.3-0.6
						c0.4-0.2,0.8-0.4,1.3-0.6s0.8-0.4,1.1-0.6c0.8-0.4,1.5-0.8,2.3-1.3c0.6-0.4,1.3-0.8,1.9-1.2c0.8-0.6,1.7-1.3,2.5-1.9
						c0.2-0.1,0.3-0.2,0.5-0.4c0.1-0.1,0.2-0.2,0.4-0.3c0.5-0.4,1.1-0.9,1.5-1.3c0.5-0.4,1-0.9,1.5-1.5l11.5-11.4l60.7-60.3l14-13.9
						L398.7,51.7C427.5,72.7,451.5,99.8,468.8,131.1z"/>
				</g>
			</g>
		</g>
		<path class="st14" d="M268.7,329.6l-16.2,16.1c-9.1,9-15.8,20-19.8,32.1c-1.4,4.2-3.1,8.5-5,12.5c-0.6-1.8-1.3-3.4-1.8-5.2
			c-2.9-8.6-7.7-16.6-14-22.8l-87.3-86.6c4.6,0.4,9.1,1.2,13.6,2.5c16.2,4.4,33.5-0.6,45.4-12.4l10.6-10.5
			C218.9,280.1,243.8,304.8,268.7,329.6z"/>
		<g>
			<g>
				<g>
					<path class="st14" d="M50.3,412.6l7-6.9c-7.7,7.7-7.5,20.1,0.5,27.6c7.6,7,19.6,6.5,27-0.8l7-6.9c-3.7,3.7-5.7,8.6-5.7,13.5
						c0,4.9,1.8,9.7,5.7,13.5c7.5,7.5,19.7,7.5,27.2,0l14.6-14.5c-7.7,7.7-7.5,20.1,0.5,27.6c7.6,7,19.6,6.5,27-0.8l16.3-15.9
						c-7.4,4.2-17.1,3.1-23.7-2.9c-8-7.4-8.1-19.9-0.5-27.5l-14.7,14.5c-7.5,7.5-19.7,7.5-27.2,0c-3.7-3.7-5.7-8.6-5.7-13.5
						s1.8-9.7,5.7-13.5l-7,6.9c-7.4,7.4-19.4,7.9-27,0.8c-8-7.5-8.1-19.9-0.5-27.5l-7,6.9c-7.4,7.4-19.4,7.9-27,0.8
						c-8-7.5-8.1-19.9-0.5-27.5l-19.7,19.6c-7.7,7.7-7.5,20.1,0.5,27.5C31,420.5,42.9,420,50.3,412.6L50.3,412.6z"/>
					<path class="st14" d="M38,370.8l19.6-19.6c-5.7-0.9-11-3.9-14.8-9c-6.7-9.1-5.5-21.9,2.6-30l-19.7,19.6c-8,8-9.4,20.8-2.6,30
						C27,366.9,32.3,369.9,38,370.8z"/>
				</g>
			</g>
		</g>
		<g>
			<path class="st14" d="M63.9,357.6l-46.2,46c-1.4-6.2,0.3-12.9,5.1-17.7l15.2-15c-3.2-0.5-6.3-1.7-9.1-3.5L51.3,345
				c3.5-3.4,9.1-3.4,12.6,0S67.5,354.1,63.9,357.6L63.9,357.6z"/>
		</g>
		<g>
			<path class="st14" d="M152.4,431.7l-24.1,23.9c-1.4-6.1,0.3-12.9,5.1-17.6l-14.7,14.5c-4.8,4.8-11.6,6.5-17.8,5.2l38.6-38.5
				c3.5-3.4,9.1-3.4,12.6,0C156,422.7,156,428.3,152.4,431.7z"/>
		</g>
		<g>
			<path class="st14" d="M125.3,404.7l-38.6,38.5c-0.3-1.3-0.4-2.8-0.4-4.1c0-4.9,1.9-9.7,5.7-13.5l-7,6.9
				c-4.8,4.9-11.8,6.7-18.1,5.4l45.9-45.6c3.5-3.4,9.1-3.4,12.6,0C128.8,395.6,128.8,401.2,125.3,404.7L125.3,404.7z"/>
		</g>
		<g>
			<path class="st14" d="M98.1,377.7l-45.9,45.7c-1.4-6.1,0.3-12.9,5.1-17.6l-7,6.9c-4.8,4.9-11.8,6.7-18.1,5.4l53.2-52.9
				c3.5-3.4,9.1-3.4,12.6,0C101.6,368.6,101.6,374.2,98.1,377.7L98.1,377.7z"/>
		</g>
	</g>
</g>
<g>
	<g>
		<g>
			<g>
				<g>
					<g>
						<path class="st15" d="M493.1,393.2c0-0.2-0.1-0.5-0.1-0.7c0-0.3-0.1-0.5-0.1-0.8v-0.1c-0.1-0.3-0.1-0.5-0.2-0.8
							c-0.1-0.6-0.3-1.3-0.5-1.8c-0.1-0.2-0.2-0.5-0.3-0.8c-0.1-0.1-0.1-0.3-0.2-0.4c0,0-0.1-0.1-0.1-0.2c0-0.1-0.1-0.1-0.1-0.2
							c-0.1-0.1-0.2-0.3-0.3-0.5c0-0.1-0.1-0.2-0.1-0.3c-0.1-0.3-0.2-0.5-0.4-0.8c0-0.1-0.1-0.3-0.2-0.4l-0.1-0.1
							c-0.1-0.1-0.3-0.3-0.4-0.5c0-0.1,0-0.2-0.1-0.2c-0.1-0.2-0.3-0.5-0.5-0.7c-0.1-0.1-0.1-0.1-0.2-0.2c-0.2-0.3-0.4-0.5-0.8-0.8
							c-0.1-0.1-0.1-0.1-0.2-0.2c-0.1-0.1-0.1-0.2-0.2-0.2c-0.1-0.1-0.1-0.1-0.2-0.2c0,0,0,0,0,0l-1.2-1.1l-14.1-13.8l-0.2-0.2
							c0.3-0.1,0.8-0.1,1.1-0.2c0,0,0,0,0.1,0h0.1c0.3-0.1,0.5-0.1,0.9-0.2c0.1,0,0.1,0,0.2,0c0.2,0,0.4-0.1,0.5-0.1
							c0.1-0.1,0.2-0.1,0.3-0.1c0,0,0.1-0.1,0.2-0.1h0.1c0.1,0,0.2-0.1,0.3-0.1c0.1-0.1,0.3-0.1,0.5-0.2c0.1,0,0.3-0.1,0.5-0.2
							c0.2-0.1,0.3-0.1,0.5-0.2c0,0,0.1,0,0.2-0.1c0,0,0.1,0,0.1,0c0,0,0,0,0,0c0,0,0.1,0,0.1,0l0,0c0,0,0,0,0.1,0h0c0,0,0,0,0.1,0
							c0,0,0.1-0.1,0.1-0.1c0,0,0,0,0,0c0.1,0,0.3-0.1,0.4-0.2c0,0,0,0,0,0c0,0,0,0,0,0c0.1,0,0.2-0.1,0.3-0.1c0,0,0,0,0-0.1
							c0,0,0,0,0,0c0,0,0.1,0,0.1,0c0-0.1,0.1-0.1,0.1-0.1c0.1,0,0.3-0.1,0.4-0.2c0,0,0,0,0.1,0c0.3-0.2,0.7-0.4,1-0.6
							c0,0,0.1,0,0.1-0.1c0.1-0.1,0.3-0.2,0.4-0.3c0,0,0,0,0.1,0c0.1-0.1,0.3-0.2,0.4-0.2c0,0,0,0,0.1,0c0.5-0.3,1-0.7,1.3-1
							c0.7-0.4,1.2-1,1.7-1.5c0.2-0.2,0.4-0.4,0.6-0.6c0.1-0.2,0.3-0.4,0.5-0.6c0.2-0.2,0.3-0.4,0.5-0.6c0.2-0.2,0.3-0.5,0.5-0.7
							c0.2-0.2,0.3-0.5,0.5-0.7c0.2-0.2,0.3-0.4,0.5-0.7c0.3-0.5,0.5-1,0.9-1.6c0.2-0.5,0.5-1,0.8-1.6c0.4-1.1,0.8-2.2,1.1-3.4
							c0.1-0.5,0.2-1.1,0.3-1.7c0.2-1.2,0.3-2.5,0.3-3.8c0,0,0-0.1,0-0.1c0-0.7,0-1.3-0.1-2c0-0.4-0.1-0.7-0.1-1.1
							c-0.1-0.4-0.1-0.9-0.2-1.3c0-0.3-0.1-0.6-0.2-1c0,0,0,0,0,0c-0.1-0.1-0.1-0.1-0.1-0.2c-0.1-0.3-0.2-0.7-0.3-1
							c0-0.1,0-0.1,0-0.2c0-0.2-0.1-0.3-0.1-0.4c0,0,0,0,0-0.1c-0.1-0.2-0.2-0.5-0.3-0.7c-0.3-0.8-0.6-1.7-1.1-2.4
							c0-0.1,0-0.1-0.1-0.2c-0.1-0.3-0.3-0.6-0.5-0.9c-0.1-0.1-0.2-0.3-0.3-0.5c-0.1-0.2-0.2-0.3-0.3-0.5c-0.2-0.3-0.4-0.6-0.7-0.9
							c-0.3-0.3-0.5-0.6-0.8-1l-0.1-0.1c-0.1-0.1-0.2-0.2-0.3-0.3c-0.2-0.2-0.4-0.3-0.5-0.5c-0.3-0.3-0.5-0.5-0.9-0.8L474.2,318
							l-8.5-8.3l-1.2-1.2l-1.6-1.6L451,295.3c-21.8-21.3-52.7-28.4-80.4-21c-13.6,3.7-27.9,0.9-39.2-6.9c-2.4-1.6-4.7-3.5-6.8-5.5
							l-15.3-15l-53.8-52.8l-22.4-22L110.3,51.8c-28.9,21.2-53,48.5-70.4,80.1l118,115.4l22,21.5l0,0l54,52.8l20.3,19.9
							c0.4,0.4,0.8,0.8,1.1,1.2c0,0,0.1,0,0.1,0.1c8.6,8.8,15,19.4,18.9,30.9c5.9,17.7,16.2,33.8,29.9,47l14.6,13.7l18.3,17.9
							l9.6,8.9c0.2,0.3,0.5,0.5,0.8,0.7c0.2,0.2,0.4,0.4,0.8,0.6c0.1,0.1,0.3,0.2,0.4,0.3c0.3,0.2,0.5,0.4,0.9,0.6
							c0.1,0.1,0.2,0.1,0.3,0.2c0.3,0.2,0.5,0.4,0.9,0.5c0.1,0,0.3,0.1,0.4,0.2c0.2,0.1,0.4,0.2,0.7,0.3c0.2,0.1,0.4,0.2,0.6,0.3
							c0.2,0.2,0.5,0.3,0.9,0.4c0.1,0.1,0.3,0.1,0.5,0.2c0.1,0.1,0.3,0.1,0.4,0.2c0.2,0.1,0.4,0.1,0.6,0.2c0.3,0.1,0.5,0.1,0.9,0.2
							c0.4,0.1,0.8,0.2,1.2,0.3c0.3,0.1,0.7,0.2,1,0.2c1.3,0.2,2.5,0.2,3.8,0.2h0.5c0.4,0,0.8-0.1,1.2-0.1c0.2,0,0.3-0.1,0.5-0.1
							c0.2,0,0.4-0.1,0.6-0.1c0,0,0.1,0,0.2,0c0.3-0.1,0.5-0.1,0.9-0.2c0.3-0.1,0.7-0.2,1-0.3c0.3-0.1,0.6-0.2,1-0.3
							c0.3-0.2,0.7-0.3,1-0.4c0.1,0,0.3-0.1,0.5-0.2c0.8-0.4,1.5-0.8,2.3-1.3c0.2-0.1,0.4-0.2,0.6-0.4c0.1,0,0.1,0,0.2-0.1
							c0.3-0.2,0.5-0.3,0.8-0.5c0.3-0.2,0.6-0.5,1-0.8c0.2-0.2,0.5-0.5,0.8-0.7c0.1-0.1,0.1-0.2,0.2-0.3l0,0c0-0.1,0.1-0.1,0.1-0.2
							c0.1-0.1,0.3-0.3,0.4-0.4c0.4-0.4,0.8-0.9,1.1-1.4c0.1-0.1,0.2-0.3,0.3-0.4c0.2-0.3,0.4-0.6,0.6-1c0.1-0.2,0.2-0.3,0.3-0.5
							c0.1-0.2,0.2-0.4,0.3-0.6c0.1-0.2,0.2-0.4,0.3-0.6c0.2-0.4,0.4-0.8,0.5-1.3c0.1-0.2,0.1-0.4,0.2-0.6s0.1-0.4,0.2-0.6
							c0.1-0.5,0.2-0.9,0.3-1.4c0.1-0.2,0.1-0.5,0.1-0.7c0-0.1,0.1-0.3,0.1-0.4c0.1-0.1,0.1-0.3,0.1-0.4c0,0,0-0.1,0-0.2v-2.4
							c0-0.8,0-1.6-0.1-2.4c0-0.2-0.1-0.5-0.1-0.7c-0.1-0.5-0.2-1.1-0.3-1.6v-0.1c-0.1-0.2-0.1-0.4-0.2-0.6c-0.1-0.3-0.2-0.6-0.3-1
							c0-0.3-0.1-0.5-0.2-0.7v-0.1c0-0.2-0.1-0.4-0.2-0.6c-0.1-0.2-0.1-0.3-0.2-0.5c0-0.1-0.1-0.1-0.1-0.2v-0.1
							c-0.1-0.3-0.2-0.5-0.4-0.8c0-0.1-0.1-0.2-0.1-0.3c-0.2-0.3-0.4-0.6-0.6-0.9c-0.1-0.2-0.3-0.5-0.5-0.7l-0.1-0.1
							c-0.1-0.1-0.1-0.2-0.2-0.3c-0.2-0.2-0.5-0.5-0.7-0.8l1.8,1.7l0.2,0.2l5,4.9l7.1,6.9c0.4,0.4,0.9,0.7,1.3,1.2
							c0,0.1,0.1,0.1,0.1,0.1c0,0.1,0.1,0.1,0.1,0.1c0.2,0.1,0.3,0.2,0.4,0.3c0.2,0.1,0.3,0.2,0.4,0.3c0.2,0.2,0.4,0.3,0.6,0.4
							c0.4,0.2,0.7,0.4,1,0.6c0.5,0.3,1.1,0.6,1.6,0.8c0.1,0,0.2,0.1,0.3,0.1c0.4,0.2,0.9,0.4,1.3,0.5c0.1,0,0.3,0.1,0.4,0.1
							c0.4,0.2,0.9,0.3,1.3,0.4c0.1,0,0.3,0.1,0.4,0.1c0.2,0,0.4,0.1,0.7,0.1c0.2,0,0.4,0.1,0.6,0.1c0.3,0.1,0.8,0.2,1.1,0.2
							c0.2,0.1,0.5,0.1,0.8,0.1c0.4,0,0.8,0,1.2,0c1.1,0,2.2-0.1,3.3-0.3c0.4-0.1,0.8-0.1,1.1-0.2c1.7-0.4,3.4-1,5.1-1.9
							c1.3-0.7,2.6-1.6,3.8-2.6c0.3-0.2,0.5-0.4,0.8-0.6c0.3-0.2,0.7-0.5,0.9-0.8c0.1,0,0.1-0.1,0.2-0.2c0.3-0.2,0.5-0.5,0.8-0.8
							c0.2-0.3,0.4-0.6,0.6-1c0-0.1,0.1-0.2,0.1-0.2c0.2-0.3,0.4-0.7,0.6-1c0.2-0.4,0.4-0.7,0.7-1.2c0-0.1,0-0.1,0-0.1
							c0.1-0.3,0.3-0.7,0.4-1v-0.1c0.1-0.2,0.2-0.5,0.2-0.7c0-0.1,0.1-0.2,0.1-0.3c0-0.1,0.1-0.3,0.1-0.4c0.1-0.4,0.2-1,0.3-1.4
							c0-0.1,0-0.1,0-0.2c0-0.2,0-0.3,0.1-0.4c0-0.1,0-0.1,0-0.2c0-0.1,0-0.1,0-0.2c0-0.1,0-0.1,0-0.2v-0.8c0-0.1,0-0.1,0-0.2
							c0.1-0.3,0.1-0.5,0.1-0.8V434c0-0.3-0.1-0.5-0.1-0.7c0-0.3-0.1-0.5-0.1-0.7v-0.1c0-0.2-0.1-0.5-0.1-0.7
							c-0.1-0.3-0.1-0.6-0.2-1c0-0.1,0-0.1,0-0.2c-0.1-0.2-0.1-0.4-0.2-0.6c0-0.1-0.1-0.3-0.1-0.4c0-0.1-0.1-0.3-0.1-0.4
							c0-0.2-0.1-0.4-0.2-0.6c0-0.1,0-0.2-0.1-0.3c-0.1-0.3-0.2-0.6-0.4-0.9c-0.1-0.1-0.1-0.3-0.2-0.4c-0.1-0.1-0.1-0.3-0.2-0.4
							c-0.1-0.2-0.2-0.3-0.3-0.5c-0.1,0-0.1-0.1-0.1-0.1c-0.1,0-0.1-0.1-0.1-0.1c-0.1-0.2-0.2-0.3-0.3-0.5c-0.1-0.1-0.1-0.2-0.2-0.3
							l-0.1-0.1c-0.1-0.1-0.2-0.2-0.3-0.4c-0.5-0.7-1.1-1.5-1.7-2.1l1.1,1l1.7,1.7l0.4,0.4l1.9,1.8l1.6,1.6c0.3,0.2,0.5,0.4,0.8,0.6
							c0.2,0.1,0.3,0.2,0.4,0.3c0.2,0.1,0.3,0.2,0.4,0.3c0.1,0.1,0.2,0.1,0.3,0.2c0.2,0.1,0.3,0.3,0.5,0.4c0.3,0.1,0.5,0.3,0.8,0.4
							l0.1,0.1c0.3,0.2,0.5,0.3,0.9,0.5c0.3,0.2,0.5,0.4,0.9,0.5c0.2,0.1,0.5,0.3,0.9,0.4c0.2,0.2,0.5,0.3,0.9,0.4h0.1
							c0.1,0.1,0.3,0.2,0.4,0.2c0.2,0.1,0.4,0.1,0.6,0.2c0.1,0,0.2,0.1,0.4,0.1c0.1,0.1,0.1,0.1,0.2,0.1h0.1c0.1,0,0.3,0.1,0.4,0.1
							c0.2,0,0.4,0.1,0.6,0.1c0.3,0.1,0.5,0.2,0.9,0.2c1.5,0.3,3.1,0.4,4.7,0.3h1c0.2-0.1,0.4-0.1,0.7-0.1h0.5
							c0.1-0.1,0.3-0.1,0.4-0.1c0.1,0,0.3-0.1,0.4-0.1c0.1,0,0.1,0,0.1,0c0.3-0.1,0.8-0.2,1.2-0.3c0.4-0.1,0.8-0.2,1.1-0.3
							c0.1-0.1,0.3-0.1,0.4-0.2c0.1-0.1,0.3-0.1,0.4-0.2c0.2,0,0.3-0.1,0.5-0.2c0.3-0.1,0.5-0.3,0.9-0.4c0.1-0.1,0.3-0.1,0.4-0.2
							c0.2-0.1,0.5-0.2,0.8-0.4c0.2-0.1,0.5-0.3,0.7-0.4c0.1,0,0.2-0.1,0.3-0.2c0.1-0.1,0.2-0.2,0.3-0.2c0.3-0.2,0.6-0.5,1-0.7
							c0.3-0.2,0.7-0.5,1-0.8c0.2-0.2,0.3-0.3,0.5-0.5c0.2-0.2,0.4-0.3,0.5-0.5c0.5-0.5,1.1-1.2,1.5-1.8c0.1-0.2,0.2-0.3,0.3-0.5
							c0.2-0.2,0.3-0.4,0.4-0.6s0.2-0.4,0.3-0.6c0.2-0.4,0.4-0.8,0.7-1.3c0.3-0.6,0.6-1.4,0.9-2c0.2-0.6,0.4-1.4,0.5-2
							c0-0.1,0.1-0.3,0.1-0.5c0-0.2,0.1-0.4,0.1-0.6c0.1-0.2,0.1-0.3,0.1-0.5c0.1-0.2,0.1-0.3,0.1-0.5c0.1-0.2,0.1-0.5,0.1-0.7v-3.2
							c0-0.1,0-0.2,0-0.2c0-0.1,0-0.1,0-0.2v-0.4c0-0.1,0-0.1,0-0.2c-0.1-0.1-0.1-0.3-0.1-0.4c0-0.2,0-0.4-0.1-0.7
							c0-0.1-0.1-0.3-0.1-0.5v-0.2c-0.1-0.3-0.1-0.5-0.2-0.7v-0.1c0-0.2-0.1-0.4-0.2-0.7c-0.1-0.1-0.1-0.1-0.1-0.2
							c-0.1-0.5-0.3-0.9-0.5-1.4c0-0.1-0.1-0.1-0.1-0.2c0-0.1-0.1-0.1-0.1-0.2c0,0,0-0.1,0-0.1c0,0,0,0,0,0c0,0-0.1-0.1-0.1-0.1
							c0,0,0,0,0,0c0-0.2-0.1-0.3-0.2-0.5c-0.2-0.4-0.4-0.8-0.8-1.3c-0.1-0.2-0.2-0.3-0.3-0.5c-0.1-0.1-0.2-0.3-0.3-0.4
							c-0.1-0.1-0.1-0.1-0.1-0.1c-0.2-0.3-0.3-0.5-0.5-0.7c-0.3-0.3-0.6-0.6-0.8-0.9l0.6,0.6l6,5.8c0.2,0.3,0.5,0.5,0.8,0.7
							c0.3,0.2,0.5,0.4,0.8,0.6c0.1,0.1,0.3,0.2,0.4,0.3c0.1,0.1,0.2,0.2,0.3,0.3c0.3,0.2,0.6,0.4,0.9,0.6c0,0,0,0,0,0
							c0.5,0.4,1.2,0.7,1.7,1c0.7,0.3,1.2,0.6,1.8,0.8c0.1,0.1,0.1,0.1,0.2,0.1c0.2,0.1,0.4,0.2,0.6,0.3c0.6,0.2,1.2,0.4,1.8,0.5
							c0.3,0.1,0.7,0.2,1,0.2c0.3,0,0.7,0.1,1,0.1s0.6,0.1,1,0.1c1,0.1,1.9,0.1,2.9,0.1h1.2c0.2,0,0.4-0.1,0.7-0.1
							c0.1,0,0.1,0,0.2,0h0.3c0.3,0,0.5-0.1,0.9-0.1c0.3-0.1,0.8-0.2,1.2-0.3c0.4-0.1,0.8-0.3,1.2-0.4c0.4-0.1,0.8-0.2,1.2-0.4
							c0.3-0.1,0.6-0.2,1-0.4c0.1-0.1,0.3-0.1,0.4-0.2c0.2-0.1,0.5-0.3,0.8-0.4c0.3-0.2,0.8-0.5,1.1-0.7c0.1,0,0.2-0.1,0.3-0.2
							c0.2-0.2,0.5-0.4,0.8-0.6c0.1-0.1,0.1-0.1,0.1-0.1c0.3-0.3,0.6-0.5,1-0.8c0.3-0.3,0.5-0.5,0.9-0.8c0.2-0.2,0.3-0.4,0.5-0.6
							c0.2-0.2,0.4-0.5,0.6-0.7v-0.1c0,0,0,0,0.1-0.1c0,0,0,0,0,0c0.2-0.2,0.3-0.4,0.4-0.5c0.2-0.3,0.4-0.6,0.6-1
							c0.2-0.2,0.3-0.4,0.4-0.6c0-0.1,0-0.1,0-0.1c0,0,0-0.1,0.1-0.1c0.1-0.2,0.2-0.4,0.3-0.5c0.1-0.2,0.2-0.4,0.3-0.6
							c0.2-0.5,0.4-0.9,0.6-1.3c0.1-0.2,0.2-0.4,0.2-0.6c0.1-0.2,0.2-0.4,0.2-0.6c0.2-0.5,0.3-1.1,0.4-1.6v-0.1
							c0.1-0.1,0.1-0.2,0.1-0.3c0.1-0.1,0.1-0.3,0.1-0.4c0-0.1,0-0.1,0-0.2V398c0,0,0-0.1,0-0.1c0.1-0.2,0.1-0.3,0.1-0.4v-2.1
							c0-0.1,0-0.2,0-0.4v0c0-0.1,0-0.1,0-0.2c0-0.1,0.1-0.2,0.1-0.3v-0.5C493.1,393.6,493.1,393.4,493.1,393.2z M375.3,434.8
							l-0.1-0.1l-0.1-0.1L375.3,434.8z"/>
					</g>
				</g>
			</g>
			<g>
				<g>
					<g>
						<path class="st13" d="M459.5,408.6l-7-6.9c7.8,7.7,7.7,20.1-0.5,27.5c-7.8,7-19.9,6.5-27.4-0.8l-7.1-6.9
							c3.8,3.7,5.7,8.6,5.7,13.6c0,4.9-1.9,9.8-5.7,13.6c-7.7,7.5-19.9,7.5-27.6,0L375.1,434c7.8,7.7,7.7,20.1-0.5,27.5
							c-7.8,7-19.9,6.5-27.4-0.8l-16.5-15.9c7.4,4.2,17.5,3,23.9-2.8c8.1-7.4,8.3-19.9,0.5-27.5L370,429c7.7,7.5,19.9,7.5,27.6,0
							c3.8-3.7,5.7-8.6,5.7-13.6c0-4.9-1.9-9.8-5.7-13.6l7.1,6.9c7.4,7.4,19.6,7.9,27.4,0.8c8.1-7.5,8.3-19.9,0.5-27.5l7,6.9
							c7.4,7.4,19.6,7.9,27.4,0.8c8.1-7.5,8.3-19.9,0.5-27.5l19.9,19.5c7.8,7.7,7.7,20.1-0.5,27.5
							C479.1,416.5,466.9,416,459.5,408.6L459.5,408.6z"/>
						<path class="st13" d="M472,366.9l-19.9-19.5c5.7-0.9,11.2-3.9,15-8.9c6.9-9.1,5.6-21.9-2.6-30l19.9,19.5
							c8.2,8,9.5,20.8,2.6,30C483.2,362.9,477.7,365.9,472,366.9z"/>
					</g>
				</g>
			</g>
			<g>
				<path class="st13" d="M492.6,399.6l-46.9-46c-3.6-3.5-3.6-9,0-12.5s9.3-3.5,12.8,0l22.7,22.3c-2.8,1.9-5.9,3-9.2,3.5l15.4,15
					C492.3,386.6,494,393.4,492.6,399.6L492.6,399.6z"/>
			</g>
			<g>
				<path class="st13" d="M407.9,453.6c-6.3,1.4-13.1-0.3-18-5.1L375,433.9c4.8,4.8,6.7,11.6,5.3,17.7l-24.4-23.9
					c-3.6-3.5-3.6-9,0-12.5s9.3-3.5,12.8,0L407.9,453.6z"/>
			</g>
			<g>
				<path class="st13" d="M442.8,433.8c-6.4,1.3-13.4-0.6-18.3-5.4l-7.1-6.9c3.8,3.7,5.7,8.6,5.7,13.5c0,1.4-0.1,2.8-0.4,4.2
					l-39.1-38.5c-3.6-3.5-3.6-9,0-12.5s9.3-3.5,12.8,0L442.8,433.8z"/>
			</g>
			<g>
				<path class="st13" d="M477.7,414c-6.4,1.3-13.4-0.6-18.3-5.4l-7-6.9c4.8,4.8,6.7,11.5,5.3,17.7l-46.6-45.6
					c-3.6-3.5-3.6-9,0-12.5s9.3-3.5,12.8,0L477.7,414z"/>
			</g>
		</g>
	</g>
</g>
</svg>
