<?xml version="1.0" encoding="utf-8"?>
<!-- Generator: Adobe Illustrator 24.0.1, SVG Export Plug-In . SVG Version: 6.00 Build 0)  -->
<svg version="1.1" id="Layer_1" xmlns="http://www.w3.org/2000/svg" xmlns:xlink="http://www.w3.org/1999/xlink" x="0px" y="0px"
	 viewBox="0 0 512 512" style="enable-background:new 0 0 512 512;" xml:space="preserve">
<style type="text/css">
	.st0{display:none;}
	.st1{display:inline;fill:#200A7F;stroke:#18E5EA;stroke-width:20;stroke-miterlimit:10;}
	.st2{display:inline;fill:#EF0B79;}
	.st3{display:inline;fill:#18E5EA;}
	.st4{display:inline;}
	.st5{fill:#E9F21C;}
	.st6{display:inline;fill:none;}
	.st7{display:inline;fill:#EF3A24;}
	.st8{font-family:'MyriadPro-Regular';}
	.st9{font-size:250px;}
	.st10{display:inline;fill:#FFFFFF;}
	.st11{opacity:0.48;fill:#969696;enable-background:new    ;}
	.st12{fill:url(#SVGID_1_);}
	.st13{fill:none;}
	.st14{fill:#FFFFFF;}
	.st15{font-family:'MyriadPro-Bold';}
	.st16{font-size:100px;}
</style>
<g id="Layer_3" class="st0">
	<path class="st1" d="M401.1,212.2c5.1,15.3,7.9,31.7,7.9,48.8c0,85.3-69.2,154.5-154.5,154.5S100,346.3,100,261
		s69.2-154.5,154.5-154.5c51.2,0,96.6,24.9,124.7,63.3"/>
	<path class="st2" d="M333.4,255.2c0,4.2-3.3,7.7-7.4,7.7H174.9c-4.1,0-7.4-3.4-7.4-7.7l0,0c0-4.2,3.3-7.7,7.4-7.7H326
		C330.1,247.5,333.4,250.9,333.4,255.2L333.4,255.2z"/>
	<path class="st2" d="M333.4,284.8c0,4.2-3.3,7.6-7.4,7.6H174.9c-4.1,0-7.4-3.4-7.4-7.6l0,0c0-4.2,3.3-7.6,7.4-7.6H326
		C330.1,277.1,333.4,280.6,333.4,284.8L333.4,284.8z"/>
	<path class="st2" d="M333.4,313c0,4.2-3.3,7.7-7.4,7.7H174.9c-4.1,0-7.4-3.4-7.4-7.7l0,0c0-4.2,3.3-7.6,7.4-7.6H326
		C330.1,305.4,333.4,308.8,333.4,313L333.4,313z"/>
	<path class="st2" d="M333.4,338.4c0,4.2-3.3,7.7-7.4,7.7H174.9c-4.1,0-7.4-3.4-7.4-7.7l0,0c0-4.2,3.3-7.6,7.4-7.6H326
		C330.1,330.7,333.4,334.1,333.4,338.4L333.4,338.4z"/>
	<polygon class="st3" points="395,191.5 320.2,165.2 380.4,113.5 	"/>
	<g class="st4">
		<g>
			<g>
				<path class="st5" d="M241.5,239.2c-2.3,0-4.4-1.1-5.8-2.9l-18.8-24.8c-2.4-3.2-1.8-7.8,1.4-10.3c3.2-2.4,7.8-1.8,10.3,1.4
					l12.3,16.3l31-49.8c2.1-3.4,6.6-4.5,10.1-2.3c3.4,2.1,4.5,6.6,2.3,10.1l-36.7,58.9c-1.3,2-3.5,3.3-5.9,3.4
					C241.7,239.2,241.6,239.2,241.5,239.2z"/>
			</g>
		</g>
	</g>
</g>
<g id="Layer_2_2_" class="st0">
	<rect x="121" y="171.5" class="st6" width="298" height="251"/>
	<text transform="matrix(1 0 0 1 121 348.9979)" class="st7 st8 st9">24</text>
	<circle class="st10" cx="138.3" cy="91.8" r="17.3"/>
	<circle class="st10" cx="185.3" cy="91.8" r="17.3"/>
	<circle class="st10" cx="232.3" cy="91.8" r="17.3"/>
	<circle class="st10" cx="278.3" cy="91.8" r="17.3"/>
	<circle class="st10" cx="323.3" cy="91.8" r="17.3"/>
	<circle class="st10" cx="368.3" cy="91.8" r="17.3"/>
</g>
<circle class="st11" cx="255.6" cy="260.3" r="244.6"/>
<linearGradient id="SVGID_1_" gradientUnits="userSpaceOnUse" x1="9.9" y1="249.25" x2="499.0894" y2="249.25">
	<stop  offset="0" style="stop-color:#5B57A5"/>
	<stop  offset="0.5" style="stop-color:#2E3092"/>
	<stop  offset="1" style="stop-color:#474374"/>
</linearGradient>
<path class="st12" d="M498.8,249.3c0,2.9,0,5.9-0.2,8.8c-0.1,3.2-0.3,6.4-0.5,9.5c-0.2,3.5-0.6,7.1-1,10.6c-0.3,2.5-0.6,4.9-1,7.3
	c-0.5,3.2-1,6.3-1.6,9.4c-0.2,1.3-0.5,2.7-0.8,4c-0.1,0.4-0.1,0.8-0.2,1.1c0,0,0,0.1,0,0.2c-0.1,0.5-0.2,0.9-0.3,1.4
	c-0.8,3.5-1.6,6.9-2.5,10.4c-0.9,3.2-1.8,6.4-2.8,9.6c-0.7,2.6-1.6,5.2-2.5,7.8c-0.1,0.3-0.2,0.7-0.4,1c-0.1,0.2-0.2,0.5-0.3,0.7
	c-2,5.7-4.2,11.2-6.7,16.8c-0.3,0.6-0.5,1.2-0.8,1.8c-0.3,0.8-0.7,1.7-1.1,2.5c-0.4,1-0.9,2-1.4,3c-0.2,0.5-0.4,0.9-0.6,1.4
	c-0.7,1.3-1.4,2.7-2.1,4.1c0,0.1-0.1,0.2-0.1,0.3c-0.2,0.4-0.4,0.8-0.6,1.2c-0.5,1-0.9,1.9-1.5,2.8c-0.1,0.1-0.1,0.2-0.2,0.3
	c-0.5,0.8-0.9,1.7-1.4,2.5c-0.1,0.2-0.1,0.3-0.2,0.4c-0.1,0.1-0.1,0.3-0.2,0.4c-0.8,1.5-1.7,3-2.6,4.5c-0.4,0.7-0.8,1.3-1.2,2
	c-0.1,0.2-0.3,0.5-0.4,0.7c0,0-0.1,0.1-0.1,0.2c-0.9,1.5-1.8,3-2.8,4.5c-1.8,2.7-3.6,5.3-5.4,8c-0.2,0.4-0.5,0.8-0.7,1.1v0.1
	c-0.2,0.4-0.5,0.8-0.8,1.1c-0.9,1.3-1.9,2.6-2.8,3.9c-0.7,1-1.5,2.1-2.3,3.1c0,0.1-0.1,0.1-0.1,0.2c-1.8,2.4-3.7,4.8-5.6,7.1
	c-3.1,3.6-6.1,7.2-9.4,10.7c-0.6,0.7-1.2,1.3-1.8,2c-0.9,1-1.8,1.9-2.7,2.8c-2.1,2.1-4.1,4.1-6.2,6.1c-0.1,0.1-0.1,0.1-0.1,0.1
	l-0.5,0.5c-0.2,0.2-0.4,0.4-0.7,0.6l-0.1,0.1c-0.1,0.1-0.2,0.2-0.3,0.3c-1.7,1.6-3.4,3.1-5.2,4.7c-0.4,0.4-0.8,0.8-1.2,1.1
	c-0.4,0.5-0.9,0.9-1.4,1.3l-0.1,0.1c-0.1,0.2-0.3,0.3-0.5,0.5c-2.8,2.3-5.6,4.6-8.5,6.9c-1.4,1.1-2.8,2.2-4.3,3.3
	c-1,0.7-2,1.4-3,2.1c-1.4,1-2.8,1.9-4.1,2.9c0,0,0,0-0.1,0c-0.1,0.1-0.1,0.1-0.2,0.2c0,0,0,0-0.1,0.1h-0.1c-1,0.6-1.9,1.3-2.9,1.9
	c-2,1.3-4,2.6-6,3.8c-1.3,0.7-2.5,1.5-3.7,2.2c-1.7,1-3.5,2-5.2,3c-3.1,1.8-6.4,3.5-9.6,5.2c-0.8,0.4-1.6,0.8-2.4,1.2
	c-7.8,3.9-15.9,7.4-24.3,10.4c-0.4,0.1-0.7,0.3-1.1,0.4c-1.1,0.4-2.2,0.8-3.2,1.1c-4,1.3-8.1,2.6-12.2,3.8c-3.2,0.9-6.3,1.7-9.5,2.5
	c-18.7,4.5-38.1,6.9-58.1,6.9H253c-7-0.1-14-0.4-20.8-1c-5.9-0.5-11.6-1.2-17.3-2.2c-5.7-0.9-11.4-2-17-3.3
	c-0.5-0.1-1.1-0.3-1.6-0.4c-3-0.8-6-1.5-9-2.4c-7.7-2.2-15.3-4.8-22.7-7.7c-5.2-2-10.3-4.3-15.3-6.7c-0.1,0-0.2-0.1-0.3-0.1
	c-0.6-0.3-1.3-0.6-1.9-1c-1.7-0.8-3.4-1.7-5.1-2.6s-3.3-1.7-5-2.7c-2.5-1.3-5-2.7-7.4-4.2c-0.1,0-0.1-0.1-0.2-0.1
	c-1.4-0.8-2.8-1.6-4.2-2.5c0-0.1-0.1-0.2-0.2-0.2c-1-0.6-1.9-1.2-2.8-1.8c-1.3-0.9-2.6-1.7-3.9-2.6c0,0,0,0-0.1,0
	c-2.5-1.7-4.9-3.4-7.3-5.1c-1.2-0.9-2.3-1.7-3.5-2.6c-2-1.5-3.9-3-5.9-4.6c-1.1-0.9-2.3-1.9-3.4-2.8c-1.1-0.9-2.2-1.9-3.3-2.8
	c-2.1-1.8-4.1-3.6-6.2-5.5l-0.1-0.1c0,0,0,0-0.1,0c-0.1-0.1-0.2-0.2-0.3-0.2l-0.2-0.2c-2.1-1.9-4.2-3.9-6.2-5.9
	c-4.9-4.9-9.6-9.9-14-15.2c-2.5-3-5-6-7.4-9.1l-0.6-0.7c-1.1-1.4-2.1-2.8-3.1-4.2c-3-4.1-5.9-8.3-8.6-12.6c-1-1.6-2-3.2-3-4.9
	c-0.8-1.4-1.6-2.7-2.4-4.1c-0.3-0.5-0.5-0.9-0.8-1.4c-0.5-0.8-0.9-1.5-1.3-2.3V368h-0.1c-1.5-2.7-3-5.5-4.4-8.2
	c-4.1-8.8-8.1-17.8-11.4-27c0,0,0-0.1-0.1-0.1c-2.1-6.1-4.1-12.1-5.8-18.3c-0.1-0.5-0.3-0.9-0.4-1.4c-1.6-6.1-3-12.3-4.2-18.7
	c-1.7-9.3-3-18.8-3.6-28.4c-0.2-2.7-0.3-5.3-0.4-8c-0.1-2.9-0.2-5.8-0.2-8.8c0-3.2,0.1-6.4,0.2-9.5c0.7-18.8,3.6-37.1,8.3-54.6
	c0.6-2.1,1.2-4.2,1.8-6.2c1.6-5.4,3.4-10.7,5.4-16c0.9-2.4,1.8-4.8,2.8-7.1c0.9-2.2,1.9-4.4,2.8-6.5c1.4-3.2,3-6.4,4.6-9.6
	c0.2-0.3,0.4-0.7,0.6-1.1c0.8-1.3,1.6-2.7,2.2-4.2c0.4-0.8,0.8-1.7,1.3-2.5c0.3-0.5,0.5-0.9,0.8-1.4c2.4-4.2,4.9-8.4,7.5-12.5
	c3.7-5.8,7.7-11.5,11.9-17c0.1-0.1,0.3-0.3,0.4-0.5c5.7-7.5,11.9-14.6,18.4-21.3c1.7-1.8,3.3-3.5,5-5.2c0.3-0.3,0.5-0.5,0.8-0.7
	c2.5-2.4,5-4.7,7.6-7c3.5-3,6.9-6,10.5-8.8c0.3-0.2,0.5-0.4,0.8-0.6c1.4-1.1,2.8-2.1,4.2-3.2c0.9-0.6,1.7-1.3,2.6-1.9
	c1.2-0.9,2.4-1.8,3.7-2.7c0.4-0.3,0.8-0.6,1.3-0.9c0.5-0.3,1-0.7,1.5-1c0.1,0,0.2-0.1,0.2-0.1c1.8-1.3,3.7-2.5,5.5-3.7
	c1.1-0.7,2.1-1.3,3.2-2c2.2-1.4,4.4-2.7,6.6-4c1.6-1,3.2-1.9,4.9-2.8c0.5-0.3,0.9-0.5,1.3-0.7c2-1.1,3.9-2.1,5.9-3.1
	c3.6-1.8,7.2-3.5,10.8-5.1c0.9-0.4,1.7-0.7,2.6-1.1c8.3-3.6,16.8-6.8,25.6-9.4c3.8-1.1,7.7-2.2,11.6-3.2c0.5-0.2,1-0.3,1.5-0.4
	c0.7-0.2,1.4-0.3,2.1-0.5c6.9-1.7,13.9-3,21.1-4c0.3,0,0.7-0.1,1-0.1c4.7-0.6,9.4-1.2,14.1-1.5c3.2-0.3,6.3-0.5,9.5-0.6
	c0.6-0.1,1.3-0.1,1.9-0.1c2.8-0.1,5.6-0.1,8.4-0.1h0.4c2.8,0,5.5,0,8.2,0.1c0.6,0.1,1.2,0.1,1.8,0.1c0,0,0.1,0,0.2,0
	c3.1,0.1,6.3,0.3,9.4,0.6c1.8,0.1,3.7,0.3,5.6,0.5c11.1,1.1,21.9,3,32.5,5.7c0.5,0.1,1.1,0.3,1.6,0.4c13.7,3.4,27,8,39.8,13.7
	c1.8,0.8,3.7,1.6,5.5,2.5c5.1,2.5,10.2,5.1,15.1,7.9c2.9,1.6,5.8,3.3,8.7,5.1c1.7,1.1,3.4,2.1,5,3.2c0.4,0.2,0.7,0.4,1.1,0.7
	c1.5,0.9,3,1.9,4.4,2.9c0.4,0.3,0.9,0.6,1.3,0.9c1.2,0.8,2.3,1.6,3.4,2.4c1.7,1.3,3.5,2.6,5.2,3.9c0.2,0.1,0.3,0.3,0.5,0.4
	c1.9,1.4,3.7,2.9,5.5,4.4c2.3,1.9,4.7,3.9,6.9,5.9c4,3.5,7.8,7.2,11.6,11c1.6,1.7,3.2,3.3,4.8,5c1.3,1.4,2.6,2.8,3.9,4.3
	c1.4,1.5,2.8,3.2,4.2,4.8c1.3,1.6,2.6,3.1,3.9,4.7c1.4,1.7,2.7,3.4,4,5.1c0.5,0.6,0.9,1.1,1.3,1.7c0.3,0.4,0.7,0.9,1,1.3
	c2.2,3,4.3,6,6.3,9c0.8,1.2,1.6,2.4,2.4,3.6c1.3,1.9,2.5,3.9,3.7,5.9c0.6,1,1.2,1.9,1.7,2.9c0.7,1.2,1.4,2.4,2.1,3.6
	c0.3,0.5,0.5,1,0.8,1.5c0.1,0.1,0.2,0.2,0.2,0.3c0.1,0,0.1,0.1,0.1,0.1c1.6,2.9,3.2,5.9,4.7,8.9c0.2,0.5,0.5,1,0.7,1.4
	c2.3,4.7,4.4,9.5,6.4,14.3c0.4,1,0.8,2,1.2,3c0.6,1.5,1.2,3.1,1.8,4.6c0.2,0.5,0.3,1,0.5,1.5c0.3,0.9,0.6,1.7,1,2.6
	c1.6,4.5,3,9,4.4,13.5c0.9,3.3,1.8,6.6,2.6,9.9c0,0,0,0,0,0.1c0.6,2.2,1.1,4.4,1.6,6.7c0.2,1.1,0.5,2.2,0.7,3.3
	c1,4.8,1.8,9.7,2.5,14.6c0.2,0.9,0.3,1.9,0.4,2.8c0.5,3.4,0.8,6.9,1.1,10.4c0,0.1,0,0.1,0,0.2c0.3,3.6,0.6,7.2,0.7,10.8v0.1
	C499.1,242.9,499.2,246.1,498.8,249.3z"/>
<rect x="87.6" y="252.2" class="st13" width="480.5" height="288"/>
<text transform="matrix(1 0 0 1 138.1928 180.2575)" class="st14 st15 st16">Libre </text>
<path id="path4168" class="st14" d="M164.9,332.7c-0.2,0-2.2,0.3-4.3,0.7s-6.8,1.2-10.2,1.8c-3.4,0.6-6.5,1.1-6.8,1.2
	s-3.4,0.6-6.8,1.2c-3.4,0.6-6.3,1.1-6.6,1.2c-0.2,0.1-1.5,0.3-2.7,0.5l-2.3,0.4v25.9c0,14.2,0,25.9,0,25.9s1.2,0.2,2.7,0.5
	s5.5,1,8.9,1.6s6.3,1.1,6.5,1.2c0.2,0,3.2,0.6,6.7,1.2s8.3,1.4,10.6,1.9c2.3,0.4,4.3,0.7,4.4,0.7c0.2,0,0.2-1.6,0.2-32.9v-32.9
	L164.9,332.7L164.9,332.7z M167.5,337.3v2.4v2.4h4.7h4.7v3.5v3.5h-4.7h-4.7v1.2v1.2h4.7h4.7v3.5v3.5h-4.7h-4.7v1.2v1.2h4.7h4.7v3.5
	v3.5h-4.7h-4.7v1.2v1.2h4.7h4.7v3.5v3.5h-4.7h-4.7v1.2v1.2h4.7h4.7v3.5v3.5h-4.7h-4.7v2.4v2.4h14.2h14.2v-27.1v-27.1h-14.2
	L167.5,337.3L167.5,337.3z M179.4,342.1h5.8h5.8v3.5v3.5h-5.8h-5.8v-3.5V342.1L179.4,342.1z M179.4,351.5h5.8h5.8v3.5v3.5h-5.8h-5.8
	V355V351.5L179.4,351.5z M153.3,353.2l-0.2,0.5c-0.1,0.3-0.3,0.8-0.5,1.2c-0.2,0.4-0.3,0.7-0.4,0.7c-0.1,0-0.2,0.1-0.2,0.3
	c-0.2,0.5-1.7,3.8-2.4,5.4c-0.8,1.6-1.7,3.6-1.7,3.8c0,0.2,1.6,3.6,2.2,4.7c0.2,0.5,0.6,1.1,0.7,1.5c0.2,0.4,0.6,1.4,1.1,2.4
	c0.9,1.9,1.5,3.3,1.4,3.4s-1.7,0.1-2.7,0c-0.6-0.1-1.3-0.2-1.5-0.3c-0.5-0.3-1-1.1-1.9-3.5c-1-2.6-1.8-4.2-2-4.2
	c-0.3,0-0.8,1.1-2.8,6l-0.5,1.2h-0.6c-0.6,0-3.6-0.2-3.7-0.3c0,0,0.1-0.4,0.3-0.8s0.5-1,0.6-1.4s0.4-0.8,0.5-0.9s0.4-0.8,0.8-1.5
	c0.3-0.7,1.1-2.4,1.7-3.7l1.2-2.4l-0.5-1.2c-0.3-0.7-0.7-1.6-0.9-2s-0.8-1.8-1.3-3s-1-2.5-1.2-2.8c-0.5-1-0.7-1.9-0.6-2.1
	c0.1-0.1,0.9-0.1,2.2-0.2h2l0.3,0.9c0.2,0.5,0.6,1.7,1,2.7c1,2.8,1.3,3.5,1.5,3.5c0.3,0,1.3-1.9,2-3.9c0.4-1,0.8-2.1,1-2.6
	s0.4-0.9,0.4-1s0.5-0.2,1.5-0.2c0.8,0,1.9-0.1,2.4-0.1L153.3,353.2z M179.4,360.9h5.8h5.8v3.5v3.5h-5.8h-5.8v-3.5V360.9L179.4,360.9
	z M179.4,370.3h5.8h5.8v3.5v3.5h-5.8h-5.8v-3.5V370.3L179.4,370.3z M179.4,379.7h5.8h5.8v3.5v3.5h-5.8h-5.8v-3.5V379.7L179.4,379.7z
	"/>
<path id="rect2993" class="st14" d="M264.6,330c-0.2-0.1-42.8,7.3-43.1,7.6c-0.2,0.1-0.2,5.9-0.2,28.2v28l21.3,3.8
	c11.7,2.1,21.4,3.8,21.7,3.7h0.4v-35.6C264.7,346.1,264.7,330,264.6,330z M267.2,340.1v1.3v1.3l13.9,0.1l13.9,0.1v16.3
	c0,9,0.1,16.4,0.1,16.5c0.1,0.1,0.4,0.2,1.3,0.2h1.2v-18v-17.8h-15.3H267.2L267.2,340.1L267.2,340.1z M267.2,345.2v2.7
	c0,1.9,0,2.7,0.1,2.8c0.1,0.1,0.4,0.1,0.8,0c0.3-0.1,0.8-0.1,1.1-0.1h0.5v5v5l5,0.1l5,0.1l-0.1,0.9c0,0.5-0.2,1.4-0.4,2.1
	c-1,3.1-3.4,5.5-6.5,6.5c-1.1,0.4-1.6,0.4-2.9,0.4c-0.9,0-1.8,0-2.1-0.1h-0.6v1.4v1.4l8.8,0.1l8.8,0.1v1.1v1.1l-8.8,0.1l-8.8,0.1
	v2.5v2.5l8.8,0.1l8.8,0.1v1.1v1.1l-8.8,0.1l-8.8,0.1v3.7c0,2,0,3.7,0,3.9c0.1,0.2,2.6,0.2,12.8,0.2h12.7v-22.9v-22.9h-12.7
	L267.2,345.2L267.2,345.2z M272.4,348h0.7c1,0,2.4,0.4,3.8,1.1c1.8,0.9,3.6,2.7,4.4,4.5c0.6,1.4,1,2.4,1,3.6v0.6h-4.9
	c-2.7,0-4.9,0-5-0.1c-0.1-0.1-0.1-2.3-0.1-4.9L272.4,348L272.4,348z M243.5,353.7c1.7,0,2.3,0,2.9,0.2c2,0.5,3.3,1.8,4,3.7
	c0.3,0.9,0.4,1.4,0.4,3.3c0,2.5-0.2,3.3-1,4.9c-1.2,2.4-3.8,3.8-7.1,3.8c-0.9,0-1.4,0.1-1.4,0.2c-0.1,0.1-0.2,1.9-0.2,3.9
	c-0.1,2.1-0.2,3.8-0.2,3.9c-0.1,0.2-0.6,0.2-2.5,0.1l-1-0.1v-11.8c0-6.5,0-11.8,0.1-11.9s2-0.2,4.2-0.2
	C242.2,353.7,242.9,353.7,243.5,353.7z M241,357.8v3.5c0,4.3,0,4.3,1.5,4.3c0.6,0,1.2-0.1,1.7-0.4c1.5-0.7,2.2-2,2.1-4
	c-0.1-1.5-0.6-2.5-1.5-3c-0.7-0.4-0.9-0.4-2.3-0.4H241z"/>
<path class="st14" d="M363.4,329.8l-40.1,7.6c-0.7,0.1-1.2,0.7-1.2,1.4v53.4c0,0.7,0.5,1.3,1.2,1.4l40.1,7.6c0.1,0,0.2,0,0.3,0
	c0.3,0,0.6-0.1,0.9-0.3c0.3-0.3,0.5-0.7,0.5-1.1V331c0-0.4-0.2-0.8-0.5-1.1C364.2,329.8,363.8,329.8,363.4,329.8z M367.9,338.4v10
	h17.2v2.9h-17.2v7.2h17.2v2.9h-17.2v7.2h17.2v2.9h-17.2v8.6h17.2v2.9h-17.2v10h21.5c1.6,0,2.9-1.3,2.9-2.9v-48.7
	c0-1.6-1.3-2.9-2.9-2.9L367.9,338.4L367.9,338.4z M328.7,352.2h5.1l2.9,17.8c0.1,0.8,0.2,1.8,0.3,3.1h0.1c0-1,0.2-2,0.4-3.1
	l3.8-17.8h5l3.4,18c0.1,0.7,0.2,1.6,0.3,2.9l0,0c0-1,0.1-2,0.3-3l2.9-17.9h4.7l-5.5,26.8h-5.2l-3.4-17.1c-0.2-0.9-0.3-1.9-0.3-3l0,0
	c-0.1,1.2-0.2,2.3-0.4,3l-3.5,17.1h-5.4L328.7,352.2z"/>
<text transform="matrix(1 0 0 1 119.7406 290.2575)" class="st14 st15 st16">Office</text>
</svg>
