<?xml version="1.0" encoding="utf-8"?>
<!-- Generator: Adobe Illustrator 24.0.1, SVG Export Plug-In . SVG Version: 6.00 Build 0)  -->
<svg version="1.1" id="Layer_1" xmlns="http://www.w3.org/2000/svg" xmlns:xlink="http://www.w3.org/1999/xlink" x="0px" y="0px"
	 viewBox="0 0 512 512" style="enable-background:new 0 0 512 512;" xml:space="preserve">
<style type="text/css">
	.st0{display:none;}
	.st1{display:inline;fill:#200A7F;stroke:#18E5EA;stroke-width:20;stroke-miterlimit:10;}
	.st2{display:inline;fill:#EF0B79;}
	.st3{display:inline;fill:#18E5EA;}
	.st4{display:inline;}
	.st5{fill:#E9F21C;}
	.st6{display:inline;fill:none;}
	.st7{display:inline;fill:#EF3A24;}
	.st8{font-family:'MyriadPro-Regular';}
	.st9{font-size:250px;}
	.st10{display:inline;fill:#FFFFFF;}
	.st11{opacity:0.48;fill:#969696;enable-background:new    ;}
	.st12{fill:url(#SVGID_1_);stroke:#D8D8D8;stroke-width:2;stroke-miterlimit:10;}
	.st13{fill:#FFFFFF;}
	.st14{fill:#FFC107;}
	.st15{fill:none;stroke:url(#SVGID_2_);stroke-width:16;stroke-miterlimit:10;}
	.st16{fill:none;stroke:url(#SVGID_3_);stroke-width:16;stroke-miterlimit:10;}
	.st17{fill:#F6FAEF;}
</style>
<g id="Layer_3" class="st0">
	<path class="st1" d="M401.1,212.2c5.1,15.3,7.9,31.7,7.9,48.8c0,85.3-69.2,154.5-154.5,154.5S100,346.3,100,261
		s69.2-154.5,154.5-154.5c51.2,0,96.6,24.9,124.7,63.3"/>
	<path class="st2" d="M333.4,255.2c0,4.2-3.3,7.7-7.4,7.7H174.9c-4.1,0-7.4-3.4-7.4-7.7l0,0c0-4.2,3.3-7.7,7.4-7.7H326
		C330.1,247.5,333.4,250.9,333.4,255.2L333.4,255.2z"/>
	<path class="st2" d="M333.4,284.8c0,4.2-3.3,7.6-7.4,7.6H174.9c-4.1,0-7.4-3.4-7.4-7.6l0,0c0-4.2,3.3-7.6,7.4-7.6H326
		C330.1,277.1,333.4,280.6,333.4,284.8L333.4,284.8z"/>
	<path class="st2" d="M333.4,313c0,4.2-3.3,7.7-7.4,7.7H174.9c-4.1,0-7.4-3.4-7.4-7.7l0,0c0-4.2,3.3-7.6,7.4-7.6H326
		C330.1,305.4,333.4,308.8,333.4,313L333.4,313z"/>
	<path class="st2" d="M333.4,338.4c0,4.2-3.3,7.7-7.4,7.7H174.9c-4.1,0-7.4-3.4-7.4-7.7l0,0c0-4.2,3.3-7.6,7.4-7.6H326
		C330.1,330.7,333.4,334.1,333.4,338.4L333.4,338.4z"/>
	<polygon class="st3" points="395,191.5 320.2,165.2 380.4,113.5 	"/>
	<g class="st4">
		<g>
			<g>
				<path class="st5" d="M241.5,239.2c-2.3,0-4.4-1.1-5.8-2.9l-18.8-24.8c-2.4-3.2-1.8-7.8,1.4-10.3c3.2-2.4,7.8-1.8,10.3,1.4
					l12.3,16.3l31-49.8c2.1-3.4,6.6-4.5,10.1-2.3c3.4,2.1,4.5,6.6,2.3,10.1l-36.7,58.9c-1.3,2-3.5,3.3-5.9,3.4
					C241.7,239.2,241.6,239.2,241.5,239.2z"/>
			</g>
		</g>
	</g>
</g>
<g id="Layer_2_2_" class="st0">
	<rect x="121" y="171.5" class="st6" width="298" height="251"/>
	<text transform="matrix(1 0 0 1 121 348.9979)" class="st7 st8 st9">24</text>
	<circle class="st10" cx="138.3" cy="91.8" r="17.3"/>
	<circle class="st10" cx="185.3" cy="91.8" r="17.3"/>
	<circle class="st10" cx="232.3" cy="91.8" r="17.3"/>
	<circle class="st10" cx="278.3" cy="91.8" r="17.3"/>
	<circle class="st10" cx="323.3" cy="91.8" r="17.3"/>
	<circle class="st10" cx="368.3" cy="91.8" r="17.3"/>
</g>
<circle class="st11" cx="255.6" cy="260.3" r="244.6"/>
<linearGradient id="SVGID_1_" gradientUnits="userSpaceOnUse" x1="10" y1="249.3" x2="499.2" y2="249.3">
	<stop  offset="0" style="stop-color:#F7977A"/>
	<stop  offset="7.105196e-02" style="stop-color:#F68D71"/>
	<stop  offset="0.5" style="stop-color:#F1563C"/>
	<stop  offset="0.745" style="stop-color:#DE3B34"/>
	<stop  offset="1" style="stop-color:#CE242C"/>
</linearGradient>
<path class="st12" d="M499.2,249.3c0,35.6-7.6,69.5-21.3,100c-1.5,3.4-3.1,6.8-4.8,10.1v0c-0.3,0.6-0.6,1.2-0.9,1.7
	c-2.6,5.1-5.4,10-8.3,14.9C421,446.7,343.3,493.9,254.6,493.9c-79.3,0-149.9-37.8-194.5-96.3c-1-1.3-2-2.6-2.9-3.9
	C46.4,379,37.3,363.2,30,346.4h0c-0.7-1.5-1.3-3.1-1.9-4.6C16.4,313.2,10,282,10,249.3c0-33.4,6.7-65.2,18.8-94.2
	c2.3-5.6,4.9-11.1,7.6-16.4c0,0,0,0,0-0.1c5.8-11.3,12.4-22.1,19.8-32.4C100.6,44.7,172.9,4.7,254.6,4.7
	c91.1,0,170.6,49.8,212.7,123.8C487.6,164.1,499.2,205.3,499.2,249.3z"/>
<g>
	<path class="st13" d="M-31.3,241.1c-0.1,1.3-0.2,2.6-0.5,3.8C-31.6,243.6-31.4,242.4-31.3,241.1z"/>
	<path class="st14" d="M-31.8,244.9c0.1-1.3,0.4-2.5,0.5-3.8C-31.4,242.4-31.5,243.7-31.8,244.9z"/>
	<path class="st13" d="M540.5,262.1c-0.5,3-1.3,5.9-2.4,8.8C539.1,268,539.9,265,540.5,262.1z"/>
	<path class="st14" d="M540.5,262.1c-0.5,3-1.3,5.9-2.4,8.8C539.1,268,539.9,265,540.5,262.1z"/>
</g>
<radialGradient id="SVGID_2_" cx="495.5792" cy="-340.1178" r="0" gradientTransform="matrix(1.101 0 0 0.3785 -43.6327 388.3346)" gradientUnits="userSpaceOnUse">
	<stop  offset="0" style="stop-color:#F37E5F"/>
	<stop  offset="0.5" style="stop-color:#EC1C24"/>
	<stop  offset="1" style="stop-color:#CF232A"/>
</radialGradient>
<path class="st15" d="M502,259.6"/>
<radialGradient id="SVGID_3_" cx="46.8962" cy="-338.0042" r="0" gradientTransform="matrix(1.101 0 0 0.3785 -43.6327 388.3346)" gradientUnits="userSpaceOnUse">
	<stop  offset="0" style="stop-color:#F37E5F"/>
	<stop  offset="0.5" style="stop-color:#EC1C24"/>
	<stop  offset="1" style="stop-color:#CF232A"/>
</radialGradient>
<path class="st16" d="M8,260.4"/>
<path class="st17" d="M423.9,228.5L194.2,99.3c-4.4-2.5-9.9-2.4-14.3,0.1c-4.4,2.6-7.1,7.3-7.1,12.4v258.4c0,5.1,2.7,9.8,7.1,12.4
	c2.2,1.3,4.7,2,7.2,2c2.4,0,4.9-0.6,7-1.8l229.7-129.2c4.5-2.6,7.3-7.3,7.3-12.5C431.2,235.8,428.4,231,423.9,228.5z"/>
</svg>
