<?xml version="1.0" encoding="utf-8"?>
<!-- Generator: Adobe Illustrator 24.0.1, SVG Export Plug-In . SVG Version: 6.00 Build 0)  -->
<svg version="1.1" id="Layer_1" xmlns="http://www.w3.org/2000/svg" xmlns:xlink="http://www.w3.org/1999/xlink" x="0px" y="0px"
	 viewBox="0 0 512 512" style="enable-background:new 0 0 512 512;" xml:space="preserve">
<style type="text/css">
	.st0{display:none;}
	.st1{display:inline;fill:#200A7F;stroke:#18E5EA;stroke-width:20;stroke-miterlimit:10;}
	.st2{display:inline;fill:#EF0B79;}
	.st3{display:inline;fill:#18E5EA;}
	.st4{display:inline;}
	.st5{fill:#E9F21C;}
	.st6{display:inline;fill:none;}
	.st7{display:inline;fill:#EF3A24;}
	.st8{font-family:'MyriadPro-Regular';}
	.st9{font-size:250px;}
	.st10{display:inline;fill:#FFFFFF;}
	.st11{opacity:0.48;fill:#969696;enable-background:new    ;}
	.st12{fill:url(#SVGID_1_);}
	.st13{fill:none;}
	.st14{fill:#FFFFFF;}
	.st15{font-family:'ArialMT';}
	.st16{font-size:180px;}
	.st17{fill:none;stroke:#000000;stroke-miterlimit:10;}
	.st18{fill:url(#SVGID_2_);stroke:#000000;stroke-miterlimit:10;}
	.st19{fill:url(#SVGID_3_);stroke:#000000;stroke-miterlimit:10;}
	.st20{fill:url(#SVGID_4_);stroke:#000000;stroke-miterlimit:10;}
	.st21{fill:url(#SVGID_5_);stroke:#000000;stroke-miterlimit:10;}
	.st22{fill:url(#SVGID_6_);stroke:#000000;stroke-miterlimit:10;}
</style>
<g id="Layer_3" class="st0">
	<path class="st1" d="M401.1,212.2c5.1,15.3,7.9,31.7,7.9,48.8c0,85.3-69.2,154.5-154.5,154.5S100,346.3,100,261
		s69.2-154.5,154.5-154.5c51.2,0,96.6,24.9,124.7,63.3"/>
	<path class="st2" d="M333.4,255.2c0,4.2-3.3,7.7-7.4,7.7H174.9c-4.1,0-7.4-3.4-7.4-7.7l0,0c0-4.2,3.3-7.7,7.4-7.7H326
		C330.1,247.5,333.4,250.9,333.4,255.2L333.4,255.2z"/>
	<path class="st2" d="M333.4,284.8c0,4.2-3.3,7.6-7.4,7.6H174.9c-4.1,0-7.4-3.4-7.4-7.6l0,0c0-4.2,3.3-7.6,7.4-7.6H326
		C330.1,277.1,333.4,280.6,333.4,284.8L333.4,284.8z"/>
	<path class="st2" d="M333.4,313c0,4.2-3.3,7.7-7.4,7.7H174.9c-4.1,0-7.4-3.4-7.4-7.7l0,0c0-4.2,3.3-7.6,7.4-7.6H326
		C330.1,305.4,333.4,308.8,333.4,313L333.4,313z"/>
	<path class="st2" d="M333.4,338.4c0,4.2-3.3,7.7-7.4,7.7H174.9c-4.1,0-7.4-3.4-7.4-7.7l0,0c0-4.2,3.3-7.6,7.4-7.6H326
		C330.1,330.7,333.4,334.1,333.4,338.4L333.4,338.4z"/>
	<polygon class="st3" points="395,191.5 320.2,165.2 380.4,113.5 	"/>
	<g class="st4">
		<g>
			<g>
				<path class="st5" d="M241.5,239.2c-2.3,0-4.4-1.1-5.8-2.9l-18.8-24.8c-2.4-3.2-1.8-7.8,1.4-10.3c3.2-2.4,7.8-1.8,10.3,1.4
					l12.3,16.3l31-49.8c2.1-3.4,6.6-4.5,10.1-2.3c3.4,2.1,4.5,6.6,2.3,10.1l-36.7,58.9c-1.3,2-3.5,3.3-5.9,3.4
					C241.7,239.2,241.6,239.2,241.5,239.2z"/>
			</g>
		</g>
	</g>
</g>
<g id="Layer_2_2_" class="st0">
	<rect x="121" y="171.5" class="st6" width="298" height="251"/>
	<text transform="matrix(1 0 0 1 121 348.9979)" class="st7 st8 st9">24</text>
	<circle class="st10" cx="138.3" cy="91.8" r="17.3"/>
	<circle class="st10" cx="185.3" cy="91.8" r="17.3"/>
	<circle class="st10" cx="232.3" cy="91.8" r="17.3"/>
	<circle class="st10" cx="278.3" cy="91.8" r="17.3"/>
	<circle class="st10" cx="323.3" cy="91.8" r="17.3"/>
	<circle class="st10" cx="368.3" cy="91.8" r="17.3"/>
</g>
<circle class="st11" cx="255.6" cy="260.3" r="244.6"/>
<linearGradient id="SVGID_1_" gradientUnits="userSpaceOnUse" x1="10" y1="249.3" x2="499.2" y2="249.3">
	<stop  offset="0" style="stop-color:#DCE9F7"/>
	<stop  offset="0.5" style="stop-color:#B9D6EF"/>
	<stop  offset="1" style="stop-color:#78B7E3"/>
</linearGradient>
<path class="st12" d="M499.2,249.3c0,2.9,0,5.9-0.2,8.8c-0.5,14.3-2.3,28.3-5.1,41.9c0,0,0,0.1,0,0.2c-2.1,10-4.8,19.8-8.1,29.3
	c0,0,0,0,0,0c-2.2,6.3-4.6,12.4-7.3,18.5c-1.3,2.9-2.6,5.8-4,8.7c-1.4,2.8-2.8,5.6-4.3,8.4c0,0,0,0,0,0c-0.1,0.1-0.1,0.2-0.2,0.3
	c-1.4,2.6-2.9,5.2-4.4,7.7c-0.5,0.9-1.1,1.8-1.6,2.7c-2.6,4.4-5.4,8.6-8.3,12.8c-0.5,0.8-1,1.5-1.6,2.2c-0.9,1.3-1.9,2.6-2.8,3.9
	c-2.6,3.5-5.3,7-8.1,10.4c-4.4,5.3-9,10.5-13.9,15.4c-2.1,2.1-4.2,4.2-6.3,6.2c0,0-0.1,0.1-0.1,0.1c-0.1,0.1-0.3,0.3-0.4,0.4
	c-0.2,0.2-0.4,0.4-0.7,0.6c0,0-0.1,0.1-0.1,0.1c-0.1,0.1-0.2,0.2-0.3,0.3c-1.7,1.6-3.4,3.1-5.2,4.7c-1.1,1-2.2,1.9-3.3,2.9
	c-4.2,3.5-8.4,6.9-12.8,10.2c-2.3,1.7-4.7,3.4-7.1,5c0,0,0,0-0.1,0c-0.1,0.1-0.2,0.2-0.4,0.3c-4.1,2.8-8.3,5.5-12.5,8
	c-4.8,2.9-9.8,5.6-14.8,8.2c-8.6,4.4-17.5,8.3-26.7,11.6c-26.2,9.6-54.5,14.8-84,14.8c-31.7,0-61.9-6-89.7-17
	c-5.2-2-10.3-4.3-15.3-6.7c-0.1,0-0.2-0.1-0.3-0.1c-6.6-3.2-13.1-6.6-19.4-10.4c-0.1,0-0.1-0.1-0.2-0.1h0c-3.8-2.2-7.5-4.6-11.1-7
	c0,0,0,0-0.1,0c-2.5-1.7-4.9-3.4-7.3-5.1c-3.2-2.3-6.3-4.7-9.4-7.2c-2.3-1.8-4.6-3.7-6.8-5.6c-2.1-1.8-4.1-3.6-6.2-5.5
	c0,0-0.1-0.1-0.1-0.1c0,0,0,0-0.1,0c-0.1-0.1-0.2-0.2-0.3-0.2c0,0-0.1-0.1-0.1-0.1c0,0-0.1-0.1-0.1-0.1c-2.1-1.9-4.2-3.9-6.2-5.9
	c-4.9-4.9-9.6-9.9-14-15.2c-2.5-3-5-6-7.4-9.1c-1.3-1.6-2.5-3.3-3.7-4.9c-4.1-5.6-8-11.5-11.6-17.5c-0.8-1.4-1.6-2.7-2.4-4.1
	c-0.3-0.5-0.5-0.9-0.8-1.4c-0.5-0.8-0.9-1.5-1.3-2.3c0,0,0,0,0,0c0,0,0-0.1-0.1-0.1c0,0,0,0,0,0c-1.5-2.7-3-5.5-4.4-8.2
	C32,351.2,28,342.2,24.7,333c0,0,0-0.1-0.1-0.1c-8.5-23.5-13.5-48.6-14.5-74.8c-0.1-2.9-0.2-5.8-0.2-8.8c0-3.2,0.1-6.4,0.2-9.5
	c1.5-39,12.1-75.7,29.8-107.9c10.6-19.3,23.7-37,38.9-52.7c0,0,0,0,0,0c4.3-4.5,8.8-8.8,13.4-12.9c5.8-5.1,11.8-10,18-14.5
	c1.2-0.9,2.4-1.8,3.7-2.7c9.6-6.8,19.8-12.9,30.4-18.3c30.8-15.5,65.3-24.8,101.8-26c2.8-0.1,5.6-0.1,8.4-0.1h0.4
	c2.8,0,5.5,0,8.2,0.1c34.5,1.2,67.1,9.5,96.6,23.5c10,4.8,19.6,10.2,28.8,16.2c3.5,2.3,6.9,4.6,10.2,7c3.8,2.8,7.6,5.7,11.2,8.7
	c2.3,1.9,4.7,3.9,6.9,5.9c20.8,18.4,38.4,40.4,51.9,64.9c17.9,32.4,28.7,69.3,30.2,108.6C499.1,242.9,499.2,246.1,499.2,249.3z"/>
<g id="Layer_2_1_">
	<g id="Layer_3_1_">
		<g>
			<g>
				<path class="st13" d="M283.5,257.5v221.6h195V257.5H283.5z M464,463.4c0,2.2-1.8,4.1-4.1,4.1h-94.6c5-2.6,10-5.3,14.8-8.2h75.6
					v-70.7c2.9-4.2,5.7-8.4,8.3-12.8V463.4z"/>
				<text transform="matrix(1 0 0 1 283.4758 386.3487)" class="st14 st15 st16">A</text>
				<text transform="matrix(1 0 0 1 283.4758 386.3487)" class="st17 st15 st16">A</text>
			</g>
		</g>
	</g>
	
		<linearGradient id="SVGID_2_" gradientUnits="userSpaceOnUse" x1="259.8863" y1="-86.1129" x2="427.9863" y2="-86.1129" gradientTransform="matrix(1 0 0 1 0 333.2912)">
		<stop  offset="0" style="stop-color:#FB6040"/>
		<stop  offset="0.2394" style="stop-color:#FB5D3E"/>
		<stop  offset="0.3924" style="stop-color:#FB5538"/>
		<stop  offset="0.5212" style="stop-color:#FC462F"/>
		<stop  offset="0.6365" style="stop-color:#FC3121"/>
		<stop  offset="0.742" style="stop-color:#FD160F"/>
		<stop  offset="0.8118" style="stop-color:#FE0000"/>
		<stop  offset="1" style="stop-color:#D50000"/>
	</linearGradient>
	<path class="st18" d="M265.8,251.3h156.3c3.3,0,5.9-1.9,5.9-4.1s-2.6-4.1-5.9-4.1H265.8c-3.3,0-5.9,1.9-5.9,4.1
		C259.9,249.4,262.5,251.3,265.8,251.3L265.8,251.3z"/>
	
		<linearGradient id="SVGID_3_" gradientUnits="userSpaceOnUse" x1="259.8863" y1="-31.6129" x2="427.9863" y2="-31.6129" gradientTransform="matrix(1 0 0 1 0 333.2912)">
		<stop  offset="0" style="stop-color:#FB6040"/>
		<stop  offset="0.2394" style="stop-color:#FB5D3E"/>
		<stop  offset="0.3924" style="stop-color:#FB5538"/>
		<stop  offset="0.5212" style="stop-color:#FC462F"/>
		<stop  offset="0.6365" style="stop-color:#FC3121"/>
		<stop  offset="0.742" style="stop-color:#FD160F"/>
		<stop  offset="0.8118" style="stop-color:#FE0000"/>
		<stop  offset="1" style="stop-color:#D50000"/>
	</linearGradient>
	<path class="st19" d="M265.8,305.8h156.3c3.3,0,5.9-1.9,5.9-4.1s-2.6-4.1-5.9-4.1H265.8c-3.3,0-5.9,1.9-5.9,4.1
		C259.9,304,262.5,305.8,265.8,305.8L265.8,305.8z"/>
	
		<linearGradient id="SVGID_4_" gradientUnits="userSpaceOnUse" x1="259.8863" y1="22.9871" x2="427.9863" y2="22.9871" gradientTransform="matrix(1 0 0 1 0 333.2912)">
		<stop  offset="0" style="stop-color:#FB6040"/>
		<stop  offset="0.2394" style="stop-color:#FB5D3E"/>
		<stop  offset="0.3924" style="stop-color:#FB5538"/>
		<stop  offset="0.5212" style="stop-color:#FC462F"/>
		<stop  offset="0.6365" style="stop-color:#FC3121"/>
		<stop  offset="0.742" style="stop-color:#FD160F"/>
		<stop  offset="0.8118" style="stop-color:#FE0000"/>
		<stop  offset="1" style="stop-color:#D50000"/>
	</linearGradient>
	<path class="st20" d="M265.8,360.4h156.3c3.3,0,5.9-1.9,5.9-4.1s-2.6-4.1-5.9-4.1H265.8c-3.3,0-5.9,1.9-5.9,4.1
		S262.5,360.4,265.8,360.4L265.8,360.4z"/>
	
		<linearGradient id="SVGID_5_" gradientUnits="userSpaceOnUse" x1="259.8863" y1="77.5871" x2="427.9863" y2="77.5871" gradientTransform="matrix(1 0 0 1 0 333.2912)">
		<stop  offset="0" style="stop-color:#FB6040"/>
		<stop  offset="0.2394" style="stop-color:#FB5D3E"/>
		<stop  offset="0.3924" style="stop-color:#FB5538"/>
		<stop  offset="0.5212" style="stop-color:#FC462F"/>
		<stop  offset="0.6365" style="stop-color:#FC3121"/>
		<stop  offset="0.742" style="stop-color:#FD160F"/>
		<stop  offset="0.8118" style="stop-color:#FE0000"/>
		<stop  offset="1" style="stop-color:#D50000"/>
	</linearGradient>
	<path class="st21" d="M265.8,415h156.3c3.3,0,5.9-1.9,5.9-4.1c0-2.3-2.6-4.1-5.9-4.1H265.8c-3.3,0-5.9,1.9-5.9,4.1
		C259.9,413.1,262.5,415,265.8,415L265.8,415z"/>
	
		<linearGradient id="SVGID_6_" gradientUnits="userSpaceOnUse" x1="225.79" y1="-5.8112" x2="463.99" y2="-5.8112" gradientTransform="matrix(1 0 0 1 0 333.2912)">
		<stop  offset="0" style="stop-color:#FB6040"/>
		<stop  offset="0.2394" style="stop-color:#FB5D3E"/>
		<stop  offset="0.3924" style="stop-color:#FB5538"/>
		<stop  offset="0.5212" style="stop-color:#FC462F"/>
		<stop  offset="0.6365" style="stop-color:#FC3121"/>
		<stop  offset="0.742" style="stop-color:#FD160F"/>
		<stop  offset="0.8118" style="stop-color:#FE0000"/>
		<stop  offset="1" style="stop-color:#D50000"/>
	</linearGradient>
	<path class="st22" d="M459.9,187.5h-230c-2.3,0-4.1,1.9-4.1,4.1v271.8c0,2.3,1.9,4.1,4.1,4.1h135.4c5-2.6,10-5.3,14.8-8.2H234
		V195.7h221.7v192.9c2.9-4.2,5.7-8.4,8.3-12.8V191.6C464,189.3,462.2,187.5,459.9,187.5z"/>
</g>
</svg>
