<?xml version="1.0" encoding="utf-8"?>
<!-- Generator: Adobe Illustrator 24.0.1, SVG Export Plug-In . SVG Version: 6.00 Build 0)  -->
<svg version="1.1" id="Layer_1" xmlns="http://www.w3.org/2000/svg" xmlns:xlink="http://www.w3.org/1999/xlink" x="0px" y="0px"
	 viewBox="0 0 512 512" style="enable-background:new 0 0 512 512;" xml:space="preserve">
<style type="text/css">
	.st0{display:none;}
	.st1{display:inline;fill:#200A7F;stroke:#18E5EA;stroke-width:20;stroke-miterlimit:10;}
	.st2{display:inline;fill:#EF0B79;}
	.st3{display:inline;fill:#18E5EA;}
	.st4{display:inline;}
	.st5{fill:#E9F21C;}
	.st6{display:inline;fill:none;}
	.st7{display:inline;fill:#EF3A24;}
	.st8{font-family:'MyriadPro-Regular';}
	.st9{font-size:250px;}
	.st10{display:inline;fill:#FFFFFF;}
	.st11{opacity:0.48;fill:#969696;enable-background:new    ;}
	.st12{fill:url(#SVGID_1_);stroke:#D8D8D8;stroke-width:2;stroke-miterlimit:10;}
	.st13{fill:#FFD54F;}
	.st14{fill:#FFFFFF;}
	.st15{fill:#FFC107;}
	.st16{fill:#FFA000;}
</style>
<g id="Layer_3" class="st0">
	<path class="st1" d="M401.1,212.2c5.1,15.3,7.9,31.7,7.9,48.8c0,85.3-69.2,154.5-154.5,154.5S100,346.3,100,261
		s69.2-154.5,154.5-154.5c51.2,0,96.6,24.9,124.7,63.3"/>
	<path class="st2" d="M333.4,255.2c0,4.2-3.3,7.7-7.4,7.7H174.9c-4.1,0-7.4-3.4-7.4-7.7l0,0c0-4.2,3.3-7.7,7.4-7.7H326
		C330.1,247.5,333.4,250.9,333.4,255.2L333.4,255.2z"/>
	<path class="st2" d="M333.4,284.8c0,4.2-3.3,7.6-7.4,7.6H174.9c-4.1,0-7.4-3.4-7.4-7.6l0,0c0-4.2,3.3-7.6,7.4-7.6H326
		C330.1,277.1,333.4,280.6,333.4,284.8L333.4,284.8z"/>
	<path class="st2" d="M333.4,313c0,4.2-3.3,7.7-7.4,7.7H174.9c-4.1,0-7.4-3.4-7.4-7.7l0,0c0-4.2,3.3-7.6,7.4-7.6H326
		C330.1,305.4,333.4,308.8,333.4,313L333.4,313z"/>
	<path class="st2" d="M333.4,338.4c0,4.2-3.3,7.7-7.4,7.7H174.9c-4.1,0-7.4-3.4-7.4-7.7l0,0c0-4.2,3.3-7.6,7.4-7.6H326
		C330.1,330.7,333.4,334.1,333.4,338.4L333.4,338.4z"/>
	<polygon class="st3" points="395,191.5 320.2,165.2 380.4,113.5 	"/>
	<g class="st4">
		<g>
			<g>
				<path class="st5" d="M241.5,239.2c-2.3,0-4.4-1.1-5.8-2.9l-18.8-24.8c-2.4-3.2-1.8-7.8,1.4-10.3c3.2-2.4,7.8-1.8,10.3,1.4
					l12.3,16.3l31-49.8c2.1-3.4,6.6-4.5,10.1-2.3c3.4,2.1,4.5,6.6,2.3,10.1l-36.7,58.9c-1.3,2-3.5,3.3-5.9,3.4
					C241.7,239.2,241.6,239.2,241.5,239.2z"/>
			</g>
		</g>
	</g>
</g>
<g id="Layer_2_2_" class="st0">
	<rect x="121" y="171.5" class="st6" width="298" height="251"/>
	<text transform="matrix(1 0 0 1 121 348.9979)" class="st7 st8 st9">24</text>
	<circle class="st10" cx="138.3" cy="91.8" r="17.3"/>
	<circle class="st10" cx="185.3" cy="91.8" r="17.3"/>
	<circle class="st10" cx="232.3" cy="91.8" r="17.3"/>
	<circle class="st10" cx="278.3" cy="91.8" r="17.3"/>
	<circle class="st10" cx="323.3" cy="91.8" r="17.3"/>
	<circle class="st10" cx="368.3" cy="91.8" r="17.3"/>
</g>
<circle class="st11" cx="255.6" cy="260.3" r="244.6"/>
<linearGradient id="SVGID_1_" gradientUnits="userSpaceOnUse" x1="10" y1="249.3" x2="499.2" y2="249.3">
	<stop  offset="5.618000e-03" style="stop-color:#EC7D4C"/>
	<stop  offset="0.8017" style="stop-color:#F6B744"/>
	<stop  offset="1" style="stop-color:#F8C642"/>
</linearGradient>
<path class="st12" d="M499.2,249.3c0,39.6-9.4,77-26.1,110.1v0c-40.3,79.8-123,134.5-218.5,134.5c-100.6,0-187-60.7-224.6-147.5h0
	c-12.9-29.8-20-62.6-20-97.1c0-39.8,9.5-77.4,26.4-110.6c0,0,0,0,0-0.1C76.8,59.1,159.3,4.7,254.6,4.7
	c91.1,0,170.6,49.8,212.7,123.8C487.6,164.1,499.2,205.3,499.2,249.3z"/>
<path class="st13" d="M467.3,128.5L336.6,223L288.2,258c-25.7,19-60.6,19-86.3,0L153.4,223l-52.9-38l-64.2-46.2l-9.1-6.5l0-0.1
	l9,6.5C76.8,59.1,159.3,4.7,254.6,4.7C345.7,4.7,425.2,54.5,467.3,128.5z"/>
<g>
	<path class="st14" d="M-31.3,241.1c-0.1,1.3-0.2,2.6-0.5,3.8C-31.6,243.6-31.4,242.4-31.3,241.1z"/>
	<path class="st15" d="M-31.8,244.9c0.1-1.3,0.4-2.5,0.5-3.8C-31.4,242.4-31.5,243.7-31.8,244.9z"/>
	<path class="st15" d="M153.3,223L30,346.4h0c-12.9-29.8-20-62.6-20-97.1c0-39.8,9.5-77.4,26.4-110.6l-9.1-6.5l0-0.1l9,6.5
		l64.2,46.3L153.3,223z"/>
	<path class="st14" d="M540.5,262.1c-0.5,3-1.3,5.9-2.4,8.8C539.1,268,539.9,265,540.5,262.1z"/>
	<path class="st15" d="M467.3,128.5c20.3,35.6,31.9,76.9,31.9,120.8c0,39.6-9.4,77-26.1,110.1L336.6,223L467.3,128.5z"/>
	<path class="st15" d="M540.5,262.1c-0.5,3-1.3,5.9-2.4,8.8C539.1,268,539.9,265,540.5,262.1z"/>
</g>
<path class="st16" d="M473.1,359.4c-40.3,79.8-123,134.5-218.5,134.5c-100.6,0-187-60.7-224.6-147.5l123.3-123.3l48.4,35.1
	c25.7,19,60.6,19,86.3,0l48.4-35.1L473.1,359.4z"/>
</svg>
