<?xml version="1.0" encoding="utf-8"?>
<!-- Generator: Adobe Illustrator 24.0.1, SVG Export Plug-In . SVG Version: 6.00 Build 0)  -->
<svg version="1.1" id="Layer_1" xmlns="http://www.w3.org/2000/svg" xmlns:xlink="http://www.w3.org/1999/xlink" x="0px" y="0px"
	 viewBox="0 0 512 512" style="enable-background:new 0 0 512 512;" xml:space="preserve">
<style type="text/css">
	.st0{display:none;}
	.st1{display:inline;fill:#200A7F;stroke:#18E5EA;stroke-width:20;stroke-miterlimit:10;}
	.st2{display:inline;fill:#EF0B79;}
	.st3{display:inline;fill:#18E5EA;}
	.st4{display:inline;}
	.st5{fill:#E9F21C;}
	.st6{display:inline;fill:none;}
	.st7{display:inline;fill:#EF3A24;}
	.st8{font-family:'MyriadPro-Regular';}
	.st9{font-size:250px;}
	.st10{display:inline;fill:#FFFFFF;}
	.st11{opacity:0.48;fill:#969696;enable-background:new    ;}
	.st12{fill:#FFFFFF;stroke:#D8D8D8;stroke-width:2;stroke-miterlimit:10;}
	.st13{fill:none;}
	.st14{fill:#E2DFE2;}
	.st15{fill:#A2F4C1;}
	.st16{fill:#F9F6F9;}
	.st17{fill:#EFECEF;}
	.st18{fill:#86F1A7;}
	.st19{fill:#80E29D;}
	.st20{fill:#78D090;}
	.st21{fill:#070504;}
	.st22{font-size:45px;}
	.st23{fill:none;stroke:#000000;stroke-miterlimit:10;}
</style>
<g id="Layer_3" class="st0">
	<path class="st1" d="M401.1,212.2c5.1,15.3,7.9,31.7,7.9,48.8c0,85.3-69.2,154.5-154.5,154.5S100,346.3,100,261
		s69.2-154.5,154.5-154.5c51.2,0,96.6,24.9,124.7,63.3"/>
	<path class="st2" d="M333.4,255.2c0,4.2-3.3,7.7-7.4,7.7H174.9c-4.1,0-7.4-3.4-7.4-7.7l0,0c0-4.2,3.3-7.7,7.4-7.7H326
		C330.1,247.5,333.4,250.9,333.4,255.2L333.4,255.2z"/>
	<path class="st2" d="M333.4,284.8c0,4.2-3.3,7.6-7.4,7.6H174.9c-4.1,0-7.4-3.4-7.4-7.6l0,0c0-4.2,3.3-7.6,7.4-7.6H326
		C330.1,277.1,333.4,280.6,333.4,284.8L333.4,284.8z"/>
	<path class="st2" d="M333.4,313c0,4.2-3.3,7.7-7.4,7.7H174.9c-4.1,0-7.4-3.4-7.4-7.7l0,0c0-4.2,3.3-7.6,7.4-7.6H326
		C330.1,305.4,333.4,308.8,333.4,313L333.4,313z"/>
	<path class="st2" d="M333.4,338.4c0,4.2-3.3,7.7-7.4,7.7H174.9c-4.1,0-7.4-3.4-7.4-7.7l0,0c0-4.2,3.3-7.6,7.4-7.6H326
		C330.1,330.7,333.4,334.1,333.4,338.4L333.4,338.4z"/>
	<polygon class="st3" points="395,191.5 320.2,165.2 380.4,113.5 	"/>
	<g class="st4">
		<g>
			<g>
				<path class="st5" d="M241.5,239.2c-2.3,0-4.4-1.1-5.8-2.9l-18.8-24.8c-2.4-3.2-1.8-7.8,1.4-10.3c3.2-2.4,7.8-1.8,10.3,1.4
					l12.3,16.3l31-49.8c2.1-3.4,6.6-4.5,10.1-2.3c3.4,2.1,4.5,6.6,2.3,10.1l-36.7,58.9c-1.3,2-3.5,3.3-5.9,3.4
					C241.7,239.2,241.6,239.2,241.5,239.2z"/>
			</g>
		</g>
	</g>
</g>
<g id="Layer_2_2_" class="st0">
	<rect x="121" y="171.5" class="st6" width="298" height="251"/>
	<text transform="matrix(1 0 0 1 121 348.9979)" class="st7 st8 st9">24</text>
	<circle class="st10" cx="138.3" cy="91.8" r="17.3"/>
	<circle class="st10" cx="185.3" cy="91.8" r="17.3"/>
	<circle class="st10" cx="232.3" cy="91.8" r="17.3"/>
	<circle class="st10" cx="278.3" cy="91.8" r="17.3"/>
	<circle class="st10" cx="323.3" cy="91.8" r="17.3"/>
	<circle class="st10" cx="368.3" cy="91.8" r="17.3"/>
</g>
<circle class="st11" cx="255.6" cy="260.3" r="244.6"/>
<path class="st12" d="M499.2,249.3c0,2.9,0,5.9-0.2,8.8c-0.9,24.9-5.5,48.9-13.3,71.4l0,0c-3.2,9.3-7,18.4-11.3,27.2
	c-1.4,2.8-2.8,5.6-4.3,8.4l0,0c-0.1,0.1-0.1,0.2-0.2,0.3c-1.4,2.6-2.9,5.2-4.4,7.7c-3.6,6.1-7.4,12-11.5,17.7
	c-0.9,1.3-1.9,2.6-2.8,3.9c-2.6,3.5-5.3,7-8.1,10.4c-4.4,5.3-9,10.5-13.9,15.4c-2.1,2.1-4.2,4.2-6.3,6.2l-0.1,0.1
	c-0.1,0.1-0.3,0.3-0.4,0.4c-0.2,0.2-0.4,0.4-0.7,0.6l-0.1,0.1c-0.1,0.1-0.2,0.2-0.3,0.3c-1.7,1.6-3.4,3.1-5.2,4.7
	c-5.2,4.6-10.6,8.9-16.1,13.1c-2.3,1.7-4.7,3.4-7.1,5c0,0,0,0-0.1,0c-0.1,0.1-0.2,0.2-0.4,0.3c-39.3,26.9-86.8,42.6-138,42.6
	c-37.6,0-73.2-8.5-105-23.6c-0.1,0-0.2-0.1-0.3-0.1c-6.6-3.2-13.1-6.6-19.4-10.4c-0.1,0-0.1-0.1-0.2-0.1l0,0
	c-3.8-2.2-7.5-4.6-11.1-7c0,0,0,0-0.1,0c-2.5-1.7-4.9-3.4-7.3-5.1c-5.6-4-11-8.3-16.2-12.8c-2.1-1.8-4.1-3.6-6.2-5.5l-0.1-0.1
	c0,0,0,0-0.1,0c-0.1-0.1-0.2-0.2-0.3-0.2l-0.1-0.1l-0.1-0.1c-2.1-1.9-4.2-3.9-6.2-5.9c-4.9-4.9-9.6-9.9-14-15.2c-2.5-3-5-6-7.4-9.1
	c-1.3-1.6-2.5-3.3-3.7-4.9c-4.1-5.6-8-11.5-11.6-17.5c-1.6-2.6-3.1-5.2-4.5-7.8l0,0c0,0,0-0.1-0.1-0.1l0,0c-1.5-2.7-3-5.5-4.4-8.2
	c-4-8.9-8-17.9-11.3-27.1c0,0,0-0.1-0.1-0.1c-8.5-23.5-13.5-48.6-14.5-74.8c-0.1-2.9-0.2-5.8-0.2-8.8c0-3.2,0.1-6.4,0.2-9.5
	c1.5-39,12.1-75.7,29.8-107.9c17.3-31.6,41.4-59,70.4-80.1c38.3-28,85.1-45.2,135.9-46.9c2.8-0.1,5.6-0.1,8.4-0.1
	c2.9,0,5.7,0,8.6,0.1c50.6,1.7,97.3,18.8,135.6,46.8c28.8,21,52.8,48.1,70.1,79.5c17.9,32.4,28.7,69.3,30.2,108.6
	C499.1,242.9,499.2,246.1,499.2,249.3z"/>
<g>
	<rect x="136.4" y="109.2" class="st13" width="256.8" height="249.7"/>
	<path class="st14" d="M360.6,138.1c0-33.7-27.3-60.9-60.9-60.9h-3.4c14.7,0,26.7,11.9,26.7,26.7v4c0,3.9,3.1,7,7,7h4
		c14.7,0,26.7,11.9,26.7,26.7L360.6,138.1L360.6,138.1z"/>
	<path class="st15" d="M227.3,106h-61.5c-5.9,0-10.6,4.8-10.6,10.6V156c0-5.9,4.8-10.6,10.6-10.6h61.5c5.9,0,10.6-4.8,10.6-10.6
		v-18.1C237.9,110.7,233.1,106,227.3,106z"/>
	<path class="st16" d="M334,114.8h-4c-3.9,0-7-3.2-7-7v-4c0-14.7-11.9-26.7-26.7-26.7H180.2c-3.9,0-7,3.2-7,7V106h54.1
		c5.9,0,10.6,4.8,10.6,10.6v18.1c0,5.9-4.8,10.6-10.6,10.6h-54.1v185.4c0,3.9,3.2,7,7,7h173.4c3.9,0,7-3.1,7-7V141.5
		C360.6,126.8,348.7,114.8,334,114.8z"/>
	<path class="st17" d="M334.2,114.8c3.4,4.5,5.5,10.1,5.5,16.2v144c0,28.9-23.5,52.4-52.4,52.4H173.2v3.4c0,3.9,3.2,7,7,7h173.4
		c3.9,0,7-3.1,7-7V141.5C360.6,126.8,348.8,114.9,334.2,114.8z"/>
	<path class="st18" d="M173.2,166.7h-7.4c-5.9,0-10.6-4.8-10.6-10.6s4.8-10.6,10.6-10.6h7.4V166.7z"/>
	<path class="st19" d="M339.6,197.2v-20.6c0-2.9-2.3-5.2-5.2-5.2H220v25.9L339.6,197.2L339.6,197.2z"/>
	<path class="st20" d="M220,171.3h-20.6c-2.9,0-5.2,2.3-5.2,5.2v20.6h25.9L220,171.3L220,171.3z"/>
	<path class="st19" d="M194.1,197.2v114.4c0,2.9,2.3,5.2,5.2,5.2h20.6V197.2H194.1z"/>
	<path class="st15" d="M220,197.2v119.6h114.4c2.9,0,5.2-2.3,5.2-5.2V197.2H220z"/>
	<path class="st18" d="M334.4,316.8c2.9,0,5.2-2.4,5.2-5.2V275c0,17.1-8.2,32.3-20.9,41.9L334.4,316.8L334.4,316.8z"/>
	<path d="M299.7,73.2H180.2c-6.1,0-11,4.9-11,11V102h-3.5c-8,0-14.6,6.5-14.6,14.6V156c0,8,6.5,14.6,14.6,14.6h3.5v160.2
		c0,6.1,4.9,11,11,11h173.4c6.1,0,11-4.9,11-11v-45.2c0-2.2-1.8-3.9-3.9-3.9c-2.2,0-3.9,1.8-3.9,3.9v45.2c0,1.7-1.4,3.1-3.1,3.1
		H180.2c-1.7,0-3.1-1.4-3.1-3.1V149.3h17c2.2,0,3.9-1.8,3.9-3.9s-1.8-3.9-3.9-3.9h-28.4c-2.4,0-4.7,0.6-6.7,1.6v-26.5
		c0-3.7,3-6.7,6.7-6.7h61.5c3.7,0,6.7,3,6.7,6.7v18.1c0,3.7-3,6.7-6.7,6.7h-14.8c-2.2,0-3.9,1.8-3.9,3.9c0,2.2,1.8,3.9,3.9,3.9h14.8
		c8,0,14.6-6.5,14.6-14.6v-18.1c0-8-6.5-14.6-14.6-14.6h-50.1V84.2c0-1.7,1.4-3.1,3.1-3.1h116.1c12.5,0,22.7,10.2,22.7,22.7v4
		c0,6.1,4.9,11,11,11h4c12.5,0,22.7,10.2,22.7,22.7v125.7c0,2.2,1.8,3.9,3.9,3.9c2.2,0,3.9-1.8,3.9-3.9V138.1
		C364.6,102.3,335.5,73.2,299.7,73.2L299.7,73.2z M165.7,149.3h3.5v13.4h-3.5c-3.7,0-6.7-3-6.7-6.7C159,152.3,162,149.3,165.7,149.3
		z M334,110.9h-4c-1.7,0-3.1-1.4-3.1-3.1v-4c0-7.1-2.4-13.6-6.5-18.8c14.8,5.8,26.7,17.6,32.5,32.5
		C347.6,113.3,341.1,110.9,334,110.9L334,110.9z"/>
	<path d="M199.4,167.4c-5.1,0-9.2,4.1-9.2,9.2v135c0,5.1,4.1,9.2,9.2,9.2h135c5.1,0,9.2-4.1,9.2-9.2v-135c0-5.1-4.1-9.2-9.2-9.2
		L199.4,167.4L199.4,167.4z M284.8,201.2h11v16.1h-32v-16.1h2.6c2.2,0,3.9-1.8,3.9-3.9c0-2.2-1.8-3.9-3.9-3.9h-2.6v-18h32v18h-11
		c-2.2,0-3.9,1.8-3.9,3.9C280.9,199.4,282.7,201.2,284.8,201.2L284.8,201.2z M263.8,289v-16.1h32V289H263.8z M295.8,296.8v16.1h-32
		v-16.1H295.8z M216.1,249v16.1h-18V249H216.1z M198.1,241.1V225h18v16.1H198.1z M224,249h32v16.1h-32V249z M263.8,249h32v16.1h-32
		V249z M303.7,249h32v16.1h-32V249z M303.7,241.1V225h32v16.1H303.7z M295.8,241.1h-32V225h32V241.1z M256,241.1h-32V225h32V241.1z
		 M224,217.2v-16.1h32v16.1H224z M224,193.3v-18h32v18H224L224,193.3z M216.1,217.2h-18v-16.1h18V217.2z M198.1,272.9h18V289h-18
		V272.9z M224,272.9h32V289h-32V272.9z M303.7,272.9h32V289h-32V272.9z M335.7,217.2h-32v-16.1h32V217.2L335.7,217.2z M198.1,176.6
		c0-0.7,0.6-1.3,1.3-1.3h16.7v18h-18V176.6z M198.1,311.6v-14.7h18V313h-16.7C198.7,312.9,198.1,312.3,198.1,311.6L198.1,311.6z
		 M224,296.8h32v16.1h-32V296.8z M334.4,312.9h-30.7v-16.1h32v14.7C335.7,312.3,335.1,312.9,334.4,312.9z M335.7,176.6v16.7h-32v-18
		h30.7C335.1,175.3,335.7,175.9,335.7,176.6z"/>
	<text transform="matrix(1 0 0 1 92.5808 393.7878)" class="st21 st8 st22">Lobre Office</text>
	<text transform="matrix(1 0 0 1 92.5808 393.7878)" class="st23 st8 st22">Lobre Office</text>
	<text transform="matrix(1 0 0 1 313.7391 138.9307)" class="st23 st8 st22"> </text>
</g>
</svg>
