<?xml version="1.0" encoding="utf-8"?>
<!-- Generator: Adobe Illustrator 24.0.1, SVG Export Plug-In . SVG Version: 6.00 Build 0)  -->
<svg version="1.1" id="Layer_1" xmlns="http://www.w3.org/2000/svg" xmlns:xlink="http://www.w3.org/1999/xlink" x="0px" y="0px"
	 viewBox="0 0 512 512" style="enable-background:new 0 0 512 512;" xml:space="preserve">
<style type="text/css">
	.st0{display:none;}
	.st1{display:inline;fill:#200A7F;stroke:#18E5EA;stroke-width:20;stroke-miterlimit:10;}
	.st2{display:inline;fill:#EF0B79;}
	.st3{display:inline;fill:#18E5EA;}
	.st4{display:inline;}
	.st5{fill:#E9F21C;}
	.st6{display:inline;fill:none;}
	.st7{display:inline;fill:#EF3A24;}
	.st8{font-family:'MyriadPro-Regular';}
	.st9{font-size:250px;}
	.st10{display:inline;fill:#FFFFFF;}
	.st11{opacity:0.48;fill:#969696;enable-background:new    ;}
	.st12{fill:#FFFFFF;stroke:#D8D8D8;stroke-width:2;stroke-miterlimit:10;}
	.st13{font-size:45px;}
	.st14{fill:none;stroke:#000000;stroke-miterlimit:10;}
	.st15{display:inline;fill:#9E5528;}
	.st16{display:inline;fill:#904D24;}
	.st17{display:inline;fill:#C86D36;}
	.st18{display:inline;fill:#AC5E2E;}
	.st19{display:none;fill:#D77F4A;}
	.st20{display:none;fill:#C86D36;}
	.st21{display:none;fill:#91DEB6;}
	.st22{display:none;fill:#6ED5A1;}
	.st23{fill:#54B582;}
</style>
<g id="Layer_3" class="st0">
	<path class="st1" d="M401.1,212.2c5.1,15.3,7.9,31.7,7.9,48.8c0,85.3-69.2,154.5-154.5,154.5S100,346.3,100,261
		s69.2-154.5,154.5-154.5c51.2,0,96.6,24.9,124.7,63.3"/>
	<path class="st2" d="M333.4,255.2c0,4.2-3.3,7.7-7.4,7.7H174.9c-4.1,0-7.4-3.4-7.4-7.7l0,0c0-4.2,3.3-7.7,7.4-7.7H326
		C330.1,247.5,333.4,250.9,333.4,255.2L333.4,255.2z"/>
	<path class="st2" d="M333.4,284.8c0,4.2-3.3,7.6-7.4,7.6H174.9c-4.1,0-7.4-3.4-7.4-7.6l0,0c0-4.2,3.3-7.6,7.4-7.6H326
		C330.1,277.1,333.4,280.6,333.4,284.8L333.4,284.8z"/>
	<path class="st2" d="M333.4,313c0,4.2-3.3,7.7-7.4,7.7H174.9c-4.1,0-7.4-3.4-7.4-7.7l0,0c0-4.2,3.3-7.6,7.4-7.6H326
		C330.1,305.4,333.4,308.8,333.4,313L333.4,313z"/>
	<path class="st2" d="M333.4,338.4c0,4.2-3.3,7.7-7.4,7.7H174.9c-4.1,0-7.4-3.4-7.4-7.7l0,0c0-4.2,3.3-7.6,7.4-7.6H326
		C330.1,330.7,333.4,334.1,333.4,338.4L333.4,338.4z"/>
	<polygon class="st3" points="395,191.5 320.2,165.2 380.4,113.5 	"/>
	<g class="st4">
		<g>
			<g>
				<path class="st5" d="M241.5,239.2c-2.3,0-4.4-1.1-5.8-2.9l-18.8-24.8c-2.4-3.2-1.8-7.8,1.4-10.3c3.2-2.4,7.8-1.8,10.3,1.4
					l12.3,16.3l31-49.8c2.1-3.4,6.6-4.5,10.1-2.3c3.4,2.1,4.5,6.6,2.3,10.1l-36.7,58.9c-1.3,2-3.5,3.3-5.9,3.4
					C241.7,239.2,241.6,239.2,241.5,239.2z"/>
			</g>
		</g>
	</g>
</g>
<g id="Layer_2_2_" class="st0">
	<rect x="121" y="171.5" class="st6" width="298" height="251"/>
	<text transform="matrix(1 0 0 1 121 348.9979)" class="st7 st8 st9">24</text>
	<circle class="st10" cx="138.3" cy="91.8" r="17.3"/>
	<circle class="st10" cx="185.3" cy="91.8" r="17.3"/>
	<circle class="st10" cx="232.3" cy="91.8" r="17.3"/>
	<circle class="st10" cx="278.3" cy="91.8" r="17.3"/>
	<circle class="st10" cx="323.3" cy="91.8" r="17.3"/>
	<circle class="st10" cx="368.3" cy="91.8" r="17.3"/>
</g>
<circle class="st11" cx="255.6" cy="260.3" r="244.6"/>
<path class="st12" d="M499.2,249.3c0,2.9,0,5.9-0.2,8.8c-0.9,24.9-5.5,48.9-13.3,71.4l0,0c-3.2,9.3-7,18.4-11.3,27.2
	c-1.4,2.8-2.8,5.6-4.3,8.4l0,0c-0.1,0.1-0.1,0.2-0.2,0.3c-1.4,2.6-2.9,5.2-4.4,7.7c-3.6,6.1-7.4,12-11.5,17.7
	c-0.9,1.3-1.9,2.6-2.8,3.9c-2.6,3.5-5.3,7-8.1,10.4c-4.4,5.3-9,10.5-13.9,15.4c-2.1,2.1-4.2,4.2-6.3,6.2l-0.1,0.1
	c-0.1,0.1-0.3,0.3-0.4,0.4c-0.2,0.2-0.4,0.4-0.7,0.6l-0.1,0.1c-0.1,0.1-0.2,0.2-0.3,0.3c-1.7,1.6-3.4,3.1-5.2,4.7
	c-5.2,4.6-10.6,8.9-16.1,13.1c-2.3,1.7-4.7,3.4-7.1,5c0,0,0,0-0.1,0c-0.1,0.1-0.2,0.2-0.4,0.3c-39.3,26.9-86.8,42.6-138,42.6
	c-37.6,0-73.2-8.5-105-23.6c-0.1,0-0.2-0.1-0.3-0.1c-6.6-3.2-13.1-6.6-19.4-10.4c-0.1,0-0.1-0.1-0.2-0.1l0,0
	c-3.8-2.2-7.5-4.6-11.1-7c0,0,0,0-0.1,0c-2.5-1.7-4.9-3.4-7.3-5.1c-5.6-4-11-8.3-16.2-12.8c-2.1-1.8-4.1-3.6-6.2-5.5l-0.1-0.1
	c0,0,0,0-0.1,0c-0.1-0.1-0.2-0.2-0.3-0.2l-0.1-0.1l-0.1-0.1c-2.1-1.9-4.2-3.9-6.2-5.9c-4.9-4.9-9.6-9.9-14-15.2c-2.5-3-5-6-7.4-9.1
	c-1.3-1.6-2.5-3.3-3.7-4.9c-4.1-5.6-8-11.5-11.6-17.5c-1.6-2.6-3.1-5.2-4.5-7.8l0,0c0,0,0-0.1-0.1-0.1l0,0c-1.5-2.7-3-5.5-4.4-8.2
	c-4-8.9-8-17.9-11.3-27.1c0,0,0-0.1-0.1-0.1c-8.5-23.5-13.5-48.6-14.5-74.8c-0.1-2.9-0.2-5.8-0.2-8.8c0-3.2,0.1-6.4,0.2-9.5
	c1.5-39,12.1-75.7,29.8-107.9c17.3-31.6,41.4-59,70.4-80.1c38.3-28,85.1-45.2,135.9-46.9c2.8-0.1,5.6-0.1,8.4-0.1
	c2.9,0,5.7,0,8.6,0.1c50.6,1.7,97.3,18.8,135.6,46.8c28.8,21,52.8,48.1,70.1,79.5c17.9,32.4,28.7,69.3,30.2,108.6
	C499.1,242.9,499.2,246.1,499.2,249.3z"/>
<text transform="matrix(1 0 0 1 88.4643 357.2242)" class="st8 st13">Lobre Office </text>
<text transform="matrix(1 0 0 1 88.4643 357.2242)" class="st14 st8 st13">Lobre Office </text>
<g>
	<g class="st0">
		<path class="st15" d="M159,379.6h232.1v28.1H159V379.6z"/>
		<path class="st16" d="M391.1,379.6v28.1h-26.3l-9.1-28.1H391.1z"/>
		<path class="st17" d="M132.1,458.1c-8.7-2.8-13.5-12.2-10.7-21l43.4-134c2.8-8.7,12.2-13.5,21-10.7c8.7,2.8,13.5,12.2,10.7,21
			l-43.4,134C150.3,456.2,140.9,461,132.1,458.1z"/>
		<path class="st18" d="M197.3,308.3c0,1.7-0.3,3.4-0.8,5.1l-43.4,134c-2.8,8.7-12.2,13.5-21,10.7c-2.8-0.9-5.2-2.5-7.1-4.6
			c5.7-1.2,10.6-5.3,12.5-11.2l43.4-134c0.6-1.7,0.8-3.4,0.8-5.1c0-4.2-1.6-8.2-4.4-11.3c2.7-0.6,5.6-0.4,8.5,0.5
			C192.9,294.8,197.3,301.3,197.3,308.3L197.3,308.3z"/>
		<path class="st17" d="M417.9,458.1c8.7-2.8,13.5-12.2,10.7-21l-43.4-134c-2.8-8.7-12.2-13.5-21-10.7c-8.7,2.8-13.5,12.2-10.7,21
			l43.4,134C399.8,456.2,409.1,461,417.9,458.1z"/>
		<path class="st18" d="M417.9,458.1c-4.8,1.6-9.8,0.8-13.9-1.7c6.4-3.9,9.5-11.9,7.1-19.3l-43.4-134c-1.3-3.9-3.9-7-7.1-9
			c1.1-0.7,2.3-1.2,3.6-1.7c8.7-2.8,18.1,2,21,10.7l43.4,134C431.4,445.9,426.6,455.3,417.9,458.1L417.9,458.1z"/>
	</g>
	<path class="st19" d="M458.3,333.8H91.7c-8.4,0-15.2-6.8-15.2-15.2V76.9c0-8.4,6.8-15.2,15.2-15.2h366.6c8.4,0,15.2,6.8,15.2,15.2
		v241.6C473.6,326.9,466.7,333.8,458.3,333.8z"/>
	<path class="st20" d="M473.6,76.9v241.6c0,8.4-6.8,15.2-15.2,15.2h-16c8.4,0,15.2-6.8,15.2-15.2V76.9c0-8.4-6.8-15.2-15.2-15.2h16
		C466.7,61.6,473.6,68.5,473.6,76.9z"/>
	<path class="st21" d="M443.6,308.4H106.4c-3,0-5.5-2.4-5.5-5.5V92.5c0-3,2.5-5.5,5.5-5.5h337.2c3,0,5.5,2.4,5.5,5.5v210.4
		C449.1,305.9,446.7,308.4,443.6,308.4z"/>
	<path class="st22" d="M449.1,92.5v210.4c0,3-2.5,5.5-5.5,5.5h-16c3,0,5.5-2.5,5.5-5.5V92.5c0-3-2.5-5.5-5.5-5.5h16
		C446.7,87,449.1,89.5,449.1,92.5L449.1,92.5z"/>
	<g>
		<path class="st23" d="M167.3,164.4c3.2,0,5.8-2.6,5.8-5.8s-2.6-5.8-5.8-5.8h-32.6c-3.2,0-5.8,2.6-5.8,5.8V236
			c0,3.2,2.6,5.8,5.8,5.8h32.6c3.2,0,5.8-2.6,5.8-5.8s-2.6-5.8-5.8-5.8h-26.8v-27.1h24.4c3.2,0,5.8-2.6,5.8-5.8s-2.6-5.8-5.8-5.8
			h-24.4v-27.1L167.3,164.4L167.3,164.4z"/>
		<path class="st23" d="M378.3,225.5c-2.5-2.1-6.1-1.7-8.2,0.7c-0.4,0.5-0.9,1-1.4,1.4c-2.5,2.2-5.7,3.4-9.5,3.4
			c-10.2,0-18.5-8.3-18.5-18.5S349,194,359.2,194c3.7,0,7.3,1.1,10.3,3.2c2.7,1.8,6.3,1.1,8.1-1.6c1.8-2.7,1.1-6.3-1.6-8.1
			c-5-3.4-10.8-5.1-16.9-5.1c-16.6,0-30.1,13.5-30.1,30.1s13.5,30.1,30.1,30.1c6.6,0,12.6-2.2,17.2-6.3c0.9-0.8,1.8-1.7,2.6-2.6
			C381.1,231.2,380.8,227.5,378.3,225.5L378.3,225.5z"/>
		<path class="st23" d="M295.1,182.7c-6.7,0-12.2,2.4-16.1,6.6c-3.4-4.6-8.5-6.9-15.3-6.9c-4.5,0-8.5,1.3-11.9,3.5
			c-0.7-2.5-2.9-4.3-5.6-4.3c-3.2,0-5.8,2.6-5.8,5.8v48.9c0,3.2,2.6,5.8,5.8,5.8s5.8-2.6,5.8-5.8v-25.2V211c0-10.3,4.6-17,11.7-17
			c3.4,0,8.5,0,8.9,14.7c0,0.4,0,3.4,0,3.4v24.2c0,3.2,2.6,5.8,5.8,5.8c3.2,0,5.8-2.6,5.8-5.8v-28.6c0-11.1,5.9-13.5,10.8-13.5
			c4.7,0,6.1,1.5,6.6,2c2.2,2.3,3.1,7.3,2.8,14.9c0,0.1,0,0.2,0,0.3v24.9c0,3.2,2.6,5.8,5.8,5.8s5.8-2.6,5.8-5.8v-24.7
			c0.5-11.2-1.4-18.6-6-23.4C306.6,184.6,301.5,182.7,295.1,182.7L295.1,182.7z"/>
		<path class="st23" d="M217.6,195.5h-23.2c-3.2,0-5.8,2.6-5.8,5.8s2.6,5.8,5.8,5.8h23.2c3.2,0,5.8-2.6,5.8-5.8
			S220.8,195.5,217.6,195.5z"/>
		<path class="st23" d="M217.6,216.8h-23.2c-3.2,0-5.8,2.6-5.8,5.8s2.6,5.8,5.8,5.8h23.2c3.2,0,5.8-2.6,5.8-5.8
			S220.8,216.8,217.6,216.8z"/>
		<path class="st23" d="M415.4,190.9C415.4,190.9,415.3,190.9,415.4,190.9c-2.7,0-5.5,0.1-8.1,0.1c1.9-2.5,4.2-5.8,7.1-9.9
			c2.6-3.7,5.2-8.3,5.2-12.9c0-8.5-6.9-15.4-15.4-15.4c-7.4,0-13.7,5.2-15.1,12.4c-0.6,3.2,1.4,6.2,4.6,6.8s6.2-1.4,6.8-4.6
			c0.3-1.8,1.9-3,3.7-3c2,0,3.6,1.5,3.8,3.5c0.2,2.1-2,4.9-3.1,6.5c-5.9,8.5-9.5,13.1-11.3,15.6c-2.4,3.2-3.9,5.1-2.9,8.2
			c0.6,1.8,2,3.3,3.9,3.9c0.8,0.3,1.4,0.5,8.8,0.5c2.9,0,6.8,0,12.2-0.1c3.2,0,5.8-2.7,5.7-5.9C421.2,193.5,418.6,190.9,415.4,190.9
			L415.4,190.9z"/>
	</g>
</g>
</svg>
