<?xml version="1.0" encoding="utf-8"?>
<!-- Generator: Adobe Illustrator 24.0.1, SVG Export Plug-In . SVG Version: 6.00 Build 0)  -->
<svg version="1.1" id="Layer_1" xmlns="http://www.w3.org/2000/svg" xmlns:xlink="http://www.w3.org/1999/xlink" x="0px" y="0px"
	 viewBox="0 0 2000 2000" style="enable-background:new 0 0 2000 2000;" xml:space="preserve">
<style type="text/css">
	.st0{display:none;}
	.st1{display:inline;fill:#200A7F;stroke:#18E5EA;stroke-width:20;stroke-miterlimit:10;}
	.st2{display:inline;fill:#EF0B79;}
	.st3{display:inline;fill:#18E5EA;}
	.st4{display:inline;}
	.st5{fill:#E9F21C;}
	.st6{display:inline;fill:none;}
	.st7{display:inline;fill:#EF3A24;}
	.st8{font-family:'MyriadPro-Regular';}
	.st9{font-size:976.5625px;}
	.st10{display:inline;fill:#FFFFFF;}
	.st11{fill:#969696;}
	.st12{fill:url(#SVGID_1_);}
	.st13{fill:none;}
	.st14{fill:#FFFFFF;stroke:#FFFFFF;stroke-width:3;stroke-miterlimit:10;}
</style>
<g id="Layer_3" class="st0">
	<path class="st1" d="M1566.8,828.9c19.9,59.8,30.9,123.8,30.9,190.6c0,333.2-270.3,603.5-603.5,603.5s-603.5-270.3-603.5-603.5
		S660.9,416,994.1,416c200,0,377.3,97.3,487.1,247.3"/>
	<path class="st2" d="M1302.3,996.9c0,16.4-12.9,30.1-28.9,30.1H683.2c-16,0-28.9-13.3-28.9-30.1l0,0c0-16.4,12.9-30.1,28.9-30.1
		h590.2C1289.5,966.8,1302.3,980.1,1302.3,996.9L1302.3,996.9z"/>
	<path class="st2" d="M1302.3,1112.5c0,16.4-12.9,29.7-28.9,29.7H683.2c-16,0-28.9-13.3-28.9-29.7l0,0c0-16.4,12.9-29.7,28.9-29.7
		h590.2C1289.5,1082.4,1302.3,1096.1,1302.3,1112.5L1302.3,1112.5z"/>
	<path class="st2" d="M1302.3,1222.7c0,16.4-12.9,30.1-28.9,30.1H683.2c-16,0-28.9-13.3-28.9-30.1l0,0c0-16.4,12.9-29.7,28.9-29.7
		h590.2C1289.5,1193,1302.3,1206.3,1302.3,1222.7L1302.3,1222.7z"/>
	<path class="st2" d="M1302.3,1321.9c0,16.4-12.9,30.1-28.9,30.1H683.2c-16,0-28.9-13.3-28.9-30.1l0,0c0-16.4,12.9-29.7,28.9-29.7
		h590.2C1289.5,1291.8,1302.3,1305.1,1302.3,1321.9L1302.3,1321.9z"/>
	<polygon class="st3" points="1543,748 1250.8,645.3 1485.9,443.4 	"/>
	<g class="st4">
		<g>
			<g>
				<path class="st5" d="M943.4,934.4c-9,0-17.2-4.3-22.7-11.3l-73.4-96.9c-9.4-12.5-7-30.5,5.5-40.2c12.5-9.4,30.5-7,40.2,5.5
					l48,63.7l121.1-194.5c8.2-13.3,25.8-17.6,39.5-9c13.3,8.2,17.6,25.8,9,39.5L967.2,921.1c-5.1,7.8-13.7,12.9-23,13.3
					C944.1,934.4,943.8,934.4,943.4,934.4z"/>
			</g>
		</g>
	</g>
</g>
<g id="Layer_2_2_" class="st0">
	<rect x="472.7" y="669.9" class="st6" width="1164.1" height="980.5"/>
	<text transform="matrix(1 0 0 1 472.6543 1363.2715)" class="st7 st8 st9">24</text>
	
		<ellipse transform="matrix(0.7071 -0.7071 0.7071 0.7071 -95.3476 487.0106)" class="st10" cx="540.2" cy="358.6" rx="67.6" ry="67.6"/>
	<circle class="st10" cx="723.8" cy="358.6" r="67.6"/>
	<circle class="st10" cx="907.4" cy="358.6" r="67.6"/>
	<circle class="st10" cx="1087.1" cy="358.6" r="67.6"/>
	<circle class="st10" cx="1262.9" cy="358.6" r="67.6"/>
	<circle class="st10" cx="1438.7" cy="358.6" r="67.6"/>
</g>
<path class="st11" d="M111.3,859.8c22.7,125.4,10.9,251.6,17.2,377.7c0.8,13.7,1.6,27.3,2.7,41c0.8,6.6,1.6,13.7,2.3,20.3
	c0,1.2,0.4,2,0.4,2.7s0.4,2.3,0.8,3.5c4.7,24.6,9.4,49.2,16.8,73c2.7,9,5.5,17.6,9,26.2c0.4,1.2,5.9,14.5,5.1,12.9
	c3.9,7.8,7.8,15.6,12.5,23.4c3.1,5.1,7,10.2,10.2,15.2c-10.5-15.2,0.8,1.2,3.1,3.5c7,8.6,14.8,17.2,22.3,25.8
	c19.5,22.7,41,45.7,53.9,72.7c6.3,12.5,11.3,25.8,16.4,38.7c2,5.1,3.9,10.2,5.9,14.8c1.2,3.1,2.7,6.6,3.9,9.8
	c-1.2-3.1-2.3-5.9-3.5-9c-1.2,3.9,7.8,14.8,9.8,18.8c0.4,0.8,0.8,2,1.2,2.7c1.2,1.2,2.3,2.3,3.5,3.5c0.8,0.4,2,1.2,3.1,2.3
	c2,1.2,3.9,2,5.5,3.1c0.8,0.4,1.2,0.8,1.6,1.2c0.8,0.4,2,0.4,3.5,0.8c6.3,2,12.5,4.3,18.8,6.3c10.5,3.1,20.7,6.6,30.9,10.2
	c54.7,20.3,96.1,53.5,139.5,91.8c5.1,4.3,10.2,8.6,15.2,13.3c0.4,0.4,1.2,0.8,1.6,1.2s0.8,0.4,1.2,0.8c10.2,6.6,19.9,12.5,30.9,18
	c4.7,2.3,9.8,4.7,14.5,7c0,0,0.4,0,0.4,0.4c0.4,0,0.8,0.4,1.6,0.4c12.1,4.3,23.8,8.6,36.3,12.1c38.3,10.9,78.1,16.8,117.6,21.9
	c3.5,0,6.6-0.4,10.2-0.4c46.9-1.6,94.1,3.5,139.8,12.9c28.9,5.9,59,14.8,85.9,28.1c7.4-0.8,14.5-1.2,21.5-1.2
	c37.9-1.2,74.6,3.9,110.2,14.8c-3.5-9-5.9-18.4-6.3-28.5c-2-44.9,37.5-73.4,77.7-77.7c17.6-1.6,34.8-3.5,52.3-5.9
	c9.8-1.2,19.9-2.3,29.7-3.9c1.6-0.4,2.7-0.4,3.9-0.4s2.7-0.4,5.1-0.8c37.5-5.1,75.4-10.5,112.9-14.8c18.8-2,37.5-3.9,56.3-5.5
	c-1.2-29.3,12.1-60.2,37.9-73.8c55.5-29.3,114.1-44.1,173.4-55.1c-3.9-13.3-4.3-27.3-0.4-41c14.1-50,44.5-93.4,80.5-130.1
	c7.4-62.5,16-125,33.6-185.9c27.3-95.3,77.3-186.7,175.4-222.3c0.4,0,1.2-0.4,1.6-0.4c-30.5-500.8-446.1-898-954.3-898
	c-428.1,0-790.2,281.3-911.7,669.1C85.9,815.6,107,835.2,111.3,859.8z"/>
<linearGradient id="SVGID_1_" gradientUnits="userSpaceOnUse" x1="37.9996" y1="1013.7231" x2="1949.5574" y2="1013.7231" gradientTransform="matrix(1 0 0 -1 0 1997.8898)">
	<stop  offset="0" style="stop-color:#2BC4F3"/>
	<stop  offset="0.5" style="stop-color:#00AEEE"/>
	<stop  offset="1" style="stop-color:#0095DA"/>
</linearGradient>
<path class="st12" d="M1948.8,971.1c0,1.6,0,3.5-0.4,5.1c0,10.5,0,21.5-0.8,32c-0.4,12.5-1.2,25-2,37.1c-0.8,13.7-2.3,27.7-3.9,41.4
	c-1.2,9.8-2.3,19.1-3.9,28.5c-2,12.5-3.9,24.6-6.3,36.7c-0.8,5.1-2,10.5-3.1,15.6c-0.4,1.6-0.4,3.1-0.8,4.3c0,0,0,0.4,0,0.8
	c-0.4,2-0.8,3.5-1.2,5.5c-3.1,13.7-6.3,27-9.8,40.6c-3.5,12.5-7,25-10.9,37.5c-2.7,10.2-6.3,20.3-9.8,30.5c-0.8,2.3-1.6,4.7-2.3,6.6
	c-7.8,22.3-16.4,43.8-26.2,65.6c-1.2,2.3-2,4.7-3.1,7c-1.2,3.1-2.7,6.6-4.3,9.8c-2.3,5.9-5.1,11.3-7.8,17.2
	c-2.7,5.1-5.5,10.5-8.2,16c0,0.4-0.4,0.8-0.4,1.2c-2.7,5.5-5.1,10.5-8.2,15.6c-0.4,0.4-0.4,0.8-0.8,1.2c-2,3.1-3.5,6.6-5.5,9.8
	c-0.4,0.8-0.4,1.2-0.8,1.6c-3.5,6.6-7,12.9-10.9,19.1c-1.6,2.7-3.1,5.1-4.7,7.8c-0.4,0.8-1.2,2-1.6,2.7c0,0-0.4,0.4-0.4,0.8
	c-3.5,5.9-7,11.7-10.9,17.6c-7,10.5-14.1,20.7-21.1,31.3c-0.8,1.6-2,3.1-2.7,4.3v0.4c-0.4,0.8-0.8,1.6-1.6,2.3l-4.7,6.3
	c-2.7,3.5-5.5,7.4-7.8,10.9c-2.7,3.9-5.9,8.2-9,12.1c0,0.4-0.4,0.4-0.4,0.8c-7,9.4-14.5,18.8-21.9,27.7
	c-12.1,14.1-23.8,28.1-36.7,41.8c-2.3,2.7-4.7,5.1-7,7.8c-3.5,3.9-7,7.4-10.5,10.9c-8.2,8.2-16,16-24.2,23.8
	c-0.4,0.4-0.4,0.4-0.4,0.4l-0.4,0.4c-0.4,0.4-1.2,1.2-1.6,1.6c-0.8,0.8-1.6,1.6-2.7,2.3l-0.4,0.4c-0.4,0.4-0.8,0.8-1.2,1.2
	c-6.6,6.3-13.3,12.1-20.3,18.4c-1.6,1.6-3.1,3.1-4.7,4.3c-1.6,2-3.5,3.5-5.5,5.1l-0.4,0.4c-0.4,0.8-1.2,1.2-2,2
	c-10.9,9-21.9,18-33.2,27c-5.5,4.3-10.9,8.6-16.8,12.9c-3.9,2.7-7.8,5.5-11.7,8.2c-5.5,3.9-10.9,7.4-16,11.3c0,0,0,0-0.4,0
	c-0.4,0.4-0.4,0.4-0.8,0.8c0,0,0,0-0.4,0.4h-0.4c-3.9,2.3-7.4,5.1-11.3,7.4c-7.8,5.1-15.6,10.2-23.4,14.8c-5.1,2.7-9.8,5.9-14.5,8.6
	c-6.6,3.9-13.7,7.8-20.3,11.7c-12.1,7-25,13.7-37.5,20.3c-3.1,1.6-6.3,3.1-9.4,4.7c-30.5,15.2-62.1,28.9-94.9,40.6
	c-1.6,0.4-2.7,1.2-4.3,1.6c-4.3,1.6-8.6,3.1-12.5,4.3c-15.6,5.1-31.6,10.2-47.7,14.8c-12.5,3.5-24.6,6.6-37.1,9.8
	c-73,17.6-148.8,27-227,27h-5.1c-27.3-0.4-54.7-1.6-81.3-3.9c-23-2-45.3-4.7-67.6-8.6c-22.3-3.5-44.5-7.8-66.4-12.9
	c-2-0.4-4.3-1.2-6.3-1.6c-11.7-3.1-23.4-5.9-35.2-9.4c-30.1-8.6-59.8-18.8-88.7-30.1c-20.3-7.8-40.2-16.8-59.8-26.2
	c-0.4,0-0.8-0.4-1.2-0.4c-2.3-1.2-5.1-2.3-7.4-3.9c-6.6-3.1-13.3-6.6-19.9-10.2s-12.9-6.6-19.5-10.5c-9.8-5.1-19.5-10.5-28.9-16.4
	c-0.4,0-0.4-0.4-0.8-0.4c-5.5-3.1-10.9-6.3-16.4-9.8c0-0.4-0.4-0.8-0.8-0.8c-3.9-2.3-7.4-4.7-10.9-7c-5.1-3.5-10.2-6.6-15.2-10.2
	c0,0,0,0-0.4,0c-9.8-6.6-19.1-13.3-28.5-19.9c-4.7-3.5-9-6.6-13.7-10.2c-7.8-5.9-15.2-11.7-23-18c-4.3-3.5-9-7.4-13.3-10.9
	s-8.6-7.4-12.9-10.9c-8.2-7-16-14.1-24.2-21.5l-0.4-0.4c0,0,0,0-0.4,0c-0.4-0.4-0.8-0.8-1.2-0.8l-0.8-0.8
	c-8.2-7.4-16.4-15.2-24.2-23c-19.1-19.1-37.5-38.7-54.7-59.4c-9.8-11.7-19.5-23.4-28.9-35.5l-2.3-2.7c-4.3-5.5-8.2-10.9-12.1-16.4
	c-11.7-16-23-32.4-33.6-49.2c-3.9-6.3-7.8-12.5-11.7-19.1c-3.1-5.5-6.3-10.5-9.4-16c-1.2-2-2-3.5-3.1-5.5c-2-3.1-3.5-5.9-5.1-9v-0.4
	h-0.4c-5.9-10.5-11.7-21.5-17.2-32c-16-34.4-31.6-69.5-44.5-105.5c0,0,0-0.4-0.4-0.4c-8.2-23.8-16-47.3-22.7-71.5
	c-0.4-2-1.2-3.5-1.6-5.5c-6.3-23.8-11.7-48-16.4-73c-6.6-36.3-11.7-73.4-14.1-110.9c-0.8-10.5-1.2-20.7-1.6-31.3
	C38.4,996.1,38,984.7,38,973c0-12.5,0.4-25,0.8-37.1c2.7-73.4,14.1-144.9,32.4-213.3c2.3-8.2,4.7-16.4,7-24.2
	c6.3-21.1,13.3-41.8,21.1-62.5c3.5-9.4,7-18.8,10.9-27.7c3.5-8.6,7.4-17.2,10.9-25.4c5.5-12.5,11.7-25,18-37.5
	c0.8-1.2,1.6-2.7,2.3-4.3c3.1-5.1,6.3-10.5,8.6-16.4c1.6-3.1,3.1-6.6,5.1-9.8c1.2-2,2-3.5,3.1-5.5c9.4-16.4,19.1-32.8,29.3-48.8
	c14.5-22.7,30.1-44.9,46.5-66.4c0.4-0.4,1.2-1.2,1.6-2c22.3-29.3,46.5-57,71.9-83.2c6.6-7,12.9-13.7,19.5-20.3c1.2-1.2,2-2,3.1-2.7
	c9.8-9.4,19.5-18.4,29.7-27.3c13.7-11.7,27-23.4,41-34.4c1.2-0.8,2-1.6,3.1-2.3c5.5-4.3,10.9-8.2,16.4-12.5
	c3.5-2.3,6.6-5.1,10.2-7.4c4.7-3.5,9.4-7,14.5-10.5c1.6-1.2,3.1-2.3,5.1-3.5s3.9-2.7,5.9-3.9c0.4,0,0.8-0.4,0.8-0.4
	c7-5.1,14.5-9.8,21.5-14.5c4.3-2.7,8.2-5.1,12.5-7.8c8.6-5.5,17.2-10.5,25.8-15.6c6.3-3.9,12.5-7.4,19.1-10.9c2-1.2,3.5-2,5.1-2.7
	c7.8-4.3,15.2-8.2,23-12.1c14.1-7,28.1-13.7,42.2-19.9c3.5-1.6,6.6-2.7,10.2-4.3c32.4-14.1,65.6-26.6,100-36.7
	c14.8-4.3,30.1-8.6,45.3-12.5c2-0.8,3.9-1.2,5.9-1.6c2.7-0.8,5.5-1.2,8.2-2c5.1-1.2,10.2-2.3,15.2-3.5c17.6-3.9,34.8,9.8,34.8,27.7
	v127c0,187.9,152.3,340.6,340.6,340.6h660.2c10.9,0,20.7,6.3,25.4,16l0,0c9,18.4,17.2,37.1,25,55.9c1.6,3.9,3.1,7.8,4.7,11.7
	c2.3,5.9,4.7,12.1,7,18c0.8,2,1.2,3.9,2,5.9c7.8,20.7,14.5,41.8,20.7,62.9c3.5,12.9,7,25.8,10.2,38.7c0,0,0,0,0,0.4
	c2.3,8.6,4.3,17.2,6.3,26.2c0.8,4.3,2,8.6,2.7,12.9c3.9,18.8,7,37.9,9.8,57c0.8,3.5,1.2,7.4,1.6,10.9c2,13.3,3.1,27,4.3,40.6
	c0,0.4,0,0.4,0,0.8c1.2,14.1,2.3,28.1,2.7,42.2v0.4C1949.6,948,1950,959.8,1948.8,971.1z"/>
<rect x="342.2" y="985.2" class="st13" width="1877" height="1125"/>
<path class="st14" d="M1129.7,982.4c0-50,40.6-90.6,90.6-90.6s90.6,40.6,90.6,90.6s-40.6,90.6-90.6,90.6
	C1170.3,1073.4,1129.7,1032.8,1129.7,982.4z M585.2,1303.9l234.4-195.7c43.8-36.7,112.5-33.6,152.7,7l102.7,103.1
	c20.3,20.3,56.6,25,81.6,10.9l234.8-134.4c12.5-7,22.7-24.6,22.7-38.7v-151c0-43-34.8-77.7-77.7-77.7H662.9
	c-43,0-77.7,34.8-77.7,77.7V1303.9L585.2,1303.9z M1414.5,1319.5L1414.5,1319.5c0-28.5,23-52,52-52l0,0c28.5,0,52,23,52,52l0,0
	v233.2c0,71.5-58.2,129.7-129.7,129.7H611.3c-71.5,0-129.7-58.2-129.7-129.7V853.1c0-71.5,58.2-129.7,129.7-129.7h777.3
	c71.5,0,129.7,58.2,129.7,129.7v237.1c0,28.5-20.3,63.3-44.9,77.7l-288.3,164.5c-49.6,28.5-123,18.8-163.3-21.9l-92.2-91.4
	c-20.3-20.3-54.7-21.9-76.6-3.5l-234.8,195.7l-33.2,27.3v62.1c0,43,34.8,77.7,77.7,77.7h673.8c43,0,77.7-34.8,77.7-77.7
	L1414.5,1319.5L1414.5,1319.5z"/>
</svg>
